<svg xmlns="http://www.w3.org/2000/svg" width="1515" height="1858">
 <!-- Created with Image Occlusion Enhanced -->
 <g>
  <title>Labels</title>
 </g>
 <g>
  <title>Masks</title>
  <rect id="00c9c054908e477eb84f74ccccf60246-ao-1" height="56.45161" width="93.54839" y="140.38716" x="648.87099" stroke="#2D2D2D" fill="#007fff"/>
  <rect id="00c9c054908e477eb84f74ccccf60246-ao-2" height="56.45161" width="74.19355" y="143.61297" x="787.58068" stroke="#2D2D2D" fill="#007fff"/>
  <rect id="00c9c054908e477eb84f74ccccf60246-ao-3" height="59.67742" width="106.45162" y="166.19362" x="1073.06456" stroke="#2D2D2D" fill="#007fff"/>
  <rect id="00c9c054908e477eb84f74ccccf60246-ao-4" height="58.06452" width="87.09678" y="109.742" x="1232.74198" stroke="#2D2D2D" fill="#FF7E7E" class="qshape"/>
  <rect id="00c9c054908e477eb84f74ccccf60246-ao-5" height="64.51613" width="83.87097" y="106.5162" x="1356.93553" stroke="#2D2D2D" fill="#007fff"/>
  <rect id="00c9c054908e477eb84f74ccccf60246-ao-6" height="62.90323" width="130.64517" y="380.70975" x="1110.16133" stroke="#2D2D2D" fill="#007fff"/>
  <rect id="00c9c054908e477eb84f74ccccf60246-ao-7" height="62.90323" width="95.16129" y="382.32266" x="177.90324" stroke="#2D2D2D" fill="#007fff"/>
  <rect id="00c9c054908e477eb84f74ccccf60246-ao-8" height="54.83871" width="67.74194" y="554.90331" x="666.61293" stroke="#2D2D2D" fill="#007fff"/>
  <rect id="00c9c054908e477eb84f74ccccf60246-ao-9" height="35.48387" width="101.61291" y="575.87105" x="965.00004" stroke="#2D2D2D" fill="#007fff"/>
  <rect id="00c9c054908e477eb84f74ccccf60246-ao-10" height="51.6129" width="138.70968" y="690.38718" x="756.93551" stroke="#2D2D2D" fill="#007fff"/>
  <rect id="00c9c054908e477eb84f74ccccf60246-ao-11" height="46.7742" width="140.32259" y="743.61299" x="924.67745" stroke="#2D2D2D" fill="#007fff"/>
  <rect id="00c9c054908e477eb84f74ccccf60246-ao-12" height="62.90323" width="143.54839" y="995.2259" x="1110.16133" stroke="#2D2D2D" fill="#007fff"/>
  <rect id="00c9c054908e477eb84f74ccccf60246-ao-13" height="54.83871" width="116.12904" y="1103.29042" x="995.6452" stroke="#2D2D2D" fill="#007fff"/>
  <rect id="00c9c054908e477eb84f74ccccf60246-ao-14" height="41.93549" width="77.41936" y="1154.90333" x="648.87099" stroke="#2D2D2D" fill="#007fff"/>
  <rect id="00c9c054908e477eb84f74ccccf60246-ao-15" height="56.45161" width="75.80645" y="685.54847" x="571.45164" stroke="#2D2D2D" fill="#007fff"/>
  <rect id="00c9c054908e477eb84f74ccccf60246-ao-16" height="33.87097" width="72.58065" y="743.61299" x="658.54841" stroke="#2D2D2D" fill="#007fff"/>
  <rect id="00c9c054908e477eb84f74ccccf60246-ao-17" height="56.45161" width="158.06452" y="706.51622" x="300.48389" stroke="#2D2D2D" fill="#007fff"/>
  <rect id="00c9c054908e477eb84f74ccccf60246-ao-18" height="30.64516" width="135.48388" y="779.09686" x="247.25808" stroke="#2D2D2D" fill="#007fff"/>
  <rect id="00c9c054908e477eb84f74ccccf60246-ao-19" height="45.16129" width="146.7742" y="829.09687" x="140.80646" stroke="#2D2D2D" fill="#007fff"/>
  <rect id="00c9c054908e477eb84f74ccccf60246-ao-20" height="61.29032" width="100" y="948.45171" x="174.67743" stroke="#2D2D2D" fill="#007fff"/>
  <rect id="00c9c054908e477eb84f74ccccf60246-ao-21" height="62.90323" width="98.3871" y="1262.96785" x="632.74196" stroke="#2D2D2D" fill="#007fff"/>
  <rect id="00c9c054908e477eb84f74ccccf60246-ao-22" height="54.83871" width="101.61291" y="1290.3872" x="779.51616" stroke="#2D2D2D" fill="#007fff"/>
  <rect id="00c9c054908e477eb84f74ccccf60246-ao-23" height="66.12903" width="164.51613" y="1379.09688" x="945.6452" stroke="#2D2D2D" fill="#007fff"/>
  <rect id="00c9c054908e477eb84f74ccccf60246-ao-24" height="32.25807" width="87.09678" y="1514.58076" x="1106.93553" stroke="#2D2D2D" fill="#007fff"/>
  <rect id="00c9c054908e477eb84f74ccccf60246-ao-25" height="29.03226" width="85.48387" y="1556.51624" x="1111.77424" stroke="#2D2D2D" fill="#007fff"/>
  <rect id="00c9c054908e477eb84f74ccccf60246-ao-26" height="45.16129" width="137.09678" y="1522.64528" x="1223.06456" stroke="#2D2D2D" fill="#007fff"/>
  <rect id="00c9c054908e477eb84f74ccccf60246-ao-27" height="54.83871" width="122.58065" y="1774.25819" x="898.871" stroke="#2D2D2D" fill="#007fff"/>
  <rect id="00c9c054908e477eb84f74ccccf60246-ao-28" height="54.83871" width="87.09678" y="1771.03238" x="766.61293" stroke="#2D2D2D" fill="#007fff"/>
  <rect id="00c9c054908e477eb84f74ccccf60246-ao-29" height="50" width="83.87097" y="1775.87109" x="634.35486" stroke="#2D2D2D" fill="#007fff"/>
  <rect id="00c9c054908e477eb84f74ccccf60246-ao-30" height="58.06452" width="85.48387" y="1774.25819" x="503.7097" stroke="#2D2D2D" fill="#007fff"/>
  <rect id="00c9c054908e477eb84f74ccccf60246-ao-31" height="43.54839" width="70.96774" y="1680.7098" x="195.64517" stroke="#2D2D2D" fill="#007fff"/>
  <rect id="00c9c054908e477eb84f74ccccf60246-ao-32" height="51.6129" width="122.58065" y="1603.29044" x="148.87098" stroke="#2D2D2D" fill="#007fff"/>
  <rect id="00c9c054908e477eb84f74ccccf60246-ao-33" height="75.80645" width="101.61291" y="1504.90334" x="163.38711" stroke="#2D2D2D" fill="#007fff"/>
  <rect id="00c9c054908e477eb84f74ccccf60246-ao-34" height="50" width="172.58065" y="1432.32269" x="142.41936" stroke="#2D2D2D" fill="#007fff"/>
  <rect id="00c9c054908e477eb84f74ccccf60246-ao-35" height="51.6129" width="170.96775" y="1348.45172" x="244.03227" stroke="#2D2D2D" fill="#007fff"/>
  <rect id="00c9c054908e477eb84f74ccccf60246-ao-36" height="66.12903" width="154.83871" y="1283.93559" x="427.90324" stroke="#2D2D2D" fill="#007fff"/>
 </g>
</svg>