<svg xmlns="http://www.w3.org/2000/svg" width="1403" height="1348">
 <!-- Created with Image Occlusion Enhanced -->
 <g>
  <title>Labels</title>
 </g>
 <g>
  <title>Masks</title>
  <rect id="0354f329ad1e44049ebe3871a5b36de3-ao-1" height="112.7907" width="181.39536" y="199.44179" x="539.09309" stroke="#2D2D2D" fill="#007fff"/>
  <rect id="0354f329ad1e44049ebe3871a5b36de3-ao-2" height="38.37209" width="117.44186" y="321.53482" x="594.90705" stroke="#2D2D2D" fill="#007fff"/>
  
  <rect id="0354f329ad1e44049ebe3871a5b36de3-ao-4" height="48.83721" width="129.06977" y="65.72086" x="1237.93033" stroke="#2D2D2D" fill="#007fff"/>
  <rect id="0354f329ad1e44049ebe3871a5b36de3-ao-5" height="46.51163" width="111.62791" y="137.81388" x="1241.4187" stroke="#2D2D2D" fill="#007fff"/>
  <rect id="0354f329ad1e44049ebe3871a5b36de3-ao-6" height="51.16279" width="116.27907" y="201.76737" x="1244.90707" stroke="#2D2D2D" fill="#007fff"/>
  <rect id="0354f329ad1e44049ebe3871a5b36de3-ao-7" height="50" width="110.46512" y="271.53482" x="1243.74428" stroke="#2D2D2D" fill="#007fff"/>
  <rect id="0354f329ad1e44049ebe3871a5b36de3-ao-8" height="27.90698" width="96.51163" y="338.97668" x="1241.4187" stroke="#2D2D2D" fill="#007fff"/>
  <rect id="0354f329ad1e44049ebe3871a5b36de3-ao-9" height="31.39535" width="136.04652" y="383.16273" x="1244.90707" stroke="#2D2D2D" fill="#007fff"/>
  <rect id="0354f329ad1e44049ebe3871a5b36de3-ao-10" height="43.02326" width="137.20931" y="429.67436" x="1237.93033" stroke="#2D2D2D" fill="#007fff"/>
  <rect id="0354f329ad1e44049ebe3871a5b36de3-ao-11" height="36.04651" width="127.90698" y="778.51158" x="593.74426" stroke="#2D2D2D" fill="#007fff"/>
  <rect id="0354f329ad1e44049ebe3871a5b36de3-ao-12" height="54.65116" width="140.69768" y="826.186" x="576.3024" stroke="#2D2D2D" fill="#007fff"/>
  <rect id="0354f329ad1e44049ebe3871a5b36de3-ao-13" height="27.90698" width="108.13954" y="900.60461" x="607.69775" stroke="#2D2D2D" fill="#007fff"/>
  <rect id="0354f329ad1e44049ebe3871a5b36de3-ao-14" height="29.06977" width="109.30233" y="959.90694" x="542.58147" stroke="#2D2D2D" fill="#007fff"/>
  <rect id="0354f329ad1e44049ebe3871a5b36de3-ao-15" height="27.90698" width="98.83721" y="1006.41857" x="537.9303" stroke="#2D2D2D" fill="#007fff"/>
  <rect id="0354f329ad1e44049ebe3871a5b36de3-ao-16" height="45.34884" width="136.04652" y="1052.9302" x="544.90705" stroke="#2D2D2D" fill="#007fff"/>
  <rect id="0354f329ad1e44049ebe3871a5b36de3-ao-17" height="33.72093" width="130.23256" y="834.32554" x="1241.4187" stroke="#2D2D2D" fill="#007fff"/>
  <rect id="0354f329ad1e44049ebe3871a5b36de3-ao-18" height="46.51163" width="113.95349" y="886.65112" x="1240.25591" stroke="#2D2D2D" fill="#007fff"/>
  <rect id="0354f329ad1e44049ebe3871a5b36de3-ao-19" height="46.51163" width="110.46512" y="955.25577" x="1242.58149" stroke="#2D2D2D" fill="#007fff"/>
  <rect id="0354f329ad1e44049ebe3871a5b36de3-ao-20" height="31.39535" width="104.65117" y="1020.37205" x="1243.74428" stroke="#2D2D2D" fill="#007fff"/>
  <rect id="0354f329ad1e44049ebe3871a5b36de3-ao-21" height="47.67442" width="93.02326" y="1070.37206" x="1241.4187" stroke="#2D2D2D" fill="#007fff"/>
 </g>
</svg>