<svg xmlns="http://www.w3.org/2000/svg" width="1279" height="1709">
 <!-- Created with Image Occlusion Enhanced -->
 <g>
  <title>Labels</title>
 </g>
 <g>
  <title>Masks</title>
  <rect id="0614afd5eb7c44e18c7ad389ca84d088-ao-1" height="84.84849" width="175.75758" y="203.12131" x="154.33327" stroke="#2D2D2D" fill="#007fff"/>
  <rect id="0614afd5eb7c44e18c7ad389ca84d088-ao-2" height="36.36364" width="145.45455" y="315.24253" x="193.72722" stroke="#2D2D2D" fill="#007fff"/>
  
  <rect id="0614afd5eb7c44e18c7ad389ca84d088-ao-4" height="71.21212" width="153.03031" y="591.00012" x="169.48479" stroke="#2D2D2D" fill="#007fff"/>
  <rect id="0614afd5eb7c44e18c7ad389ca84d088-ao-5" height="75.75758" width="151.51516" y="703.12134" x="177.06055" stroke="#2D2D2D" fill="#007fff"/>
  <rect id="0614afd5eb7c44e18c7ad389ca84d088-ao-6" height="89.39394" width="180.30304" y="797.06074" x="146.75752" stroke="#2D2D2D" fill="#007fff"/>
  <rect id="0614afd5eb7c44e18c7ad389ca84d088-ao-7" height="78.78788" width="172.72728" y="912.21226" x="149.78782" stroke="#2D2D2D" fill="#007fff"/>
  <rect id="0614afd5eb7c44e18c7ad389ca84d088-ao-8" height="78.78788" width="189.39395" y="1150.09106" x="139.18176" stroke="#2D2D2D" fill="#007fff"/>
  <rect id="0614afd5eb7c44e18c7ad389ca84d088-ao-9" height="125.75758" width="260.60607" y="1245.54561" x="72.51509" stroke="#2D2D2D" fill="#007fff"/>
  <rect id="0614afd5eb7c44e18c7ad389ca84d088-ao-10" height="90.9091" width="216.66668" y="1394.03046" x="114.93933" stroke="#2D2D2D" fill="#007fff"/>
  <rect id="0614afd5eb7c44e18c7ad389ca84d088-ao-11" height="101.51516" width="390.90911" y="1562.21229" x="410.39389" stroke="#2D2D2D" fill="#007fff"/>
  <rect id="0614afd5eb7c44e18c7ad389ca84d088-ao-12" height="80.30303" width="150.00001" y="1254.63652" x="1086.15151" stroke="#2D2D2D" fill="#007fff"/>
  <rect id="0614afd5eb7c44e18c7ad389ca84d088-ao-13" height="90.9091" width="206.06062" y="986.45469" x="1036.1515" stroke="#2D2D2D" fill="#007fff"/>
  <rect id="0614afd5eb7c44e18c7ad389ca84d088-ao-14" height="78.78788" width="184.84849" y="887.96983" x="1033.1212" stroke="#2D2D2D" fill="#007fff"/>
  <rect id="0614afd5eb7c44e18c7ad389ca84d088-ao-15" height="78.78788" width="201.51516" y="781.90922" x="1027.06059" stroke="#2D2D2D" fill="#007fff"/>
  <rect id="0614afd5eb7c44e18c7ad389ca84d088-ao-16" height="77.27273" width="130.30304" y="537.96981" x="1084.63635" stroke="#2D2D2D" fill="#007fff"/>
  <rect id="0614afd5eb7c44e18c7ad389ca84d088-ao-17" height="90.9091" width="189.39395" y="304.63647" x="1019.48483" stroke="#2D2D2D" fill="#007fff"/>
  <rect id="0614afd5eb7c44e18c7ad389ca84d088-ao-18" height="89.39394" width="239.39395" y="97.0607" x="731.60603" stroke="#2D2D2D" fill="#007fff"/>
 </g>
</svg>