<svg xmlns="http://www.w3.org/2000/svg" width="1162" height="1055">
 <!-- Created with Image Occlusion Enhanced -->
 <g>
  <title>Labels</title>
 </g>
 <g>
  <title>Masks</title>
  <rect id="0cf29831e05d42879f99a12d0aae56c9-ao-1" height="58.87851" width="157.00935" y="33.78507" x="36.13087" stroke="#2D2D2D" fill="#007fff"/>
  <rect id="0cf29831e05d42879f99a12d0aae56c9-ao-2" height="28.03738" width="109.3458" y="107.61685" x="38.93461" stroke="#2D2D2D" fill="#007fff"/>
  <rect id="0cf29831e05d42879f99a12d0aae56c9-ao-3" height="63.5514" width="135.51402" y="150.6075" x="23.98134" stroke="#2D2D2D" fill="#007fff"/>
  <rect id="0cf29831e05d42879f99a12d0aae56c9-ao-4" height="57.94393" width="127.10281" y="293.59816" x="4.35517" stroke="#2D2D2D" fill="#FF7E7E" class="qshape"/>
  <rect id="0cf29831e05d42879f99a12d0aae56c9-ao-5" height="32.71028" width="107.47664" y="457.14957" x="21.1776" stroke="#2D2D2D" fill="#007fff"/>
  <rect id="0cf29831e05d42879f99a12d0aae56c9-ao-6" height="28.97196" width="92.52337" y="545.00003" x="217.43929" stroke="#2D2D2D" fill="#007fff"/>
  <rect id="0cf29831e05d42879f99a12d0aae56c9-ao-7" height="47.66355" width="115.88785" y="601.0748" x="215.57013" stroke="#2D2D2D" fill="#007fff"/>
  <rect id="0cf29831e05d42879f99a12d0aae56c9-ao-8" height="46.72897" width="108.41122" y="694.53275" x="250.14957" stroke="#2D2D2D" fill="#007fff"/>
  <rect id="0cf29831e05d42879f99a12d0aae56c9-ao-9" height="57.94393" width="106.54206" y="759.95331" x="254.82247" stroke="#2D2D2D" fill="#007fff"/>
  <rect id="0cf29831e05d42879f99a12d0aae56c9-ao-10" height="59.81309" width="141.1215" y="833.78509" x="225.85051" stroke="#2D2D2D" fill="#007fff"/>
  <rect id="0cf29831e05d42879f99a12d0aae56c9-ao-11" height="76.63552" width="107.47664" y="914.15892" x="207.15892" stroke="#2D2D2D" fill="#007fff"/>
  <rect id="0cf29831e05d42879f99a12d0aae56c9-ao-12" height="20.56075" width="95.32711" y="941.26173" x="923.98137" stroke="#2D2D2D" fill="#007fff"/>
  <rect id="0cf29831e05d42879f99a12d0aae56c9-ao-13" height="31.7757" width="116.82243" y="713.22434" x="848.28043" stroke="#2D2D2D" fill="#007fff"/>
  <rect id="0cf29831e05d42879f99a12d0aae56c9-ao-14" height="41.1215" width="121.49533" y="649.67293" x="835.19632" stroke="#2D2D2D" fill="#007fff"/>
  <rect id="0cf29831e05d42879f99a12d0aae56c9-ao-15" height="53.27103" width="123.36449" y="571.16826" x="839.86921" stroke="#2D2D2D" fill="#007fff"/>
  <rect id="0cf29831e05d42879f99a12d0aae56c9-ao-16" height="24.29907" width="121.49533" y="530.98134" x="846.41127" stroke="#2D2D2D" fill="#007fff"/>
  <rect id="0cf29831e05d42879f99a12d0aae56c9-ao-17" height="48.59813" width="113.08412" y="456.21499" x="844.54211" stroke="#2D2D2D" fill="#007fff"/>
  <rect id="0cf29831e05d42879f99a12d0aae56c9-ao-18" height="29.90654" width="110.28038" y="410.42059" x="909.96267" stroke="#2D2D2D" fill="#007fff"/>
  <rect id="0cf29831e05d42879f99a12d0aae56c9-ao-19" height="46.72897" width="123.36449" y="339.39255" x="903.42062" stroke="#2D2D2D" fill="#007fff"/>
  <rect id="0cf29831e05d42879f99a12d0aae56c9-ao-20" height="47.66355" width="111.21496" y="269.29909" x="959.49539" stroke="#2D2D2D" fill="#007fff"/>
  <rect id="0cf29831e05d42879f99a12d0aae56c9-ao-21" height="42.05608" width="133.64486" y="159.9533" x="984.72903" stroke="#2D2D2D" fill="#007fff"/>
  <rect id="0cf29831e05d42879f99a12d0aae56c9-ao-22" height="48.59813" width="130.84113" y="89.85984" x="984.72903" stroke="#2D2D2D" fill="#007fff"/>
 </g>
</svg>