<svg xmlns="http://www.w3.org/2000/svg" width="1600" height="1397">
 <!-- Created with Image Occlusion Enhanced -->
 <g>
  <title>Labels</title>
 </g>
 <g>
  <title>Masks</title>
  <rect id="104b9b5af3f14416ba5404f9dc206405-ao-1" height="59.25926" width="174.07408" y="272.13588" x="146.91355" stroke="#2D2D2D" fill="#007fff"/>
  <rect id="104b9b5af3f14416ba5404f9dc206405-ao-2" height="51.85185" width="124.69136" y="374.60502" x="177.77775" stroke="#2D2D2D" fill="#007fff"/>
  <rect id="104b9b5af3f14416ba5404f9dc206405-ao-3" height="48.14815" width="135.80248" y="440.03712" x="174.07404" stroke="#2D2D2D" fill="#007fff"/>
  <rect id="104b9b5af3f14416ba5404f9dc206405-ao-4" height="43.20988" width="130.8642" y="509.17293" x="150.61725" stroke="#2D2D2D" fill="#007fff"/>
  
  <rect id="104b9b5af3f14416ba5404f9dc206405-ao-6" height="69.13581" width="137.03704" y="616.58034" x="122.22219" stroke="#2D2D2D" fill="#007fff"/>
  <rect id="104b9b5af3f14416ba5404f9dc206405-ao-7" height="46.91358" width="129.62964" y="816.58035" x="122.22219" stroke="#2D2D2D" fill="#007fff"/>
  <rect id="104b9b5af3f14416ba5404f9dc206405-ao-8" height="44.44445" width="151.85186" y="880.77789" x="109.87651" stroke="#2D2D2D" fill="#007fff"/>
  <rect id="104b9b5af3f14416ba5404f9dc206405-ao-9" height="43.20988" width="125.92593" y="946.20999" x="134.56787" stroke="#2D2D2D" fill="#007fff"/>
  <rect id="104b9b5af3f14416ba5404f9dc206405-ao-10" height="45.67901" width="143.20988" y="1011.64209" x="116.04935" stroke="#2D2D2D" fill="#007fff"/>
  <rect id="104b9b5af3f14416ba5404f9dc206405-ao-11" height="25.92593" width="104.93828" y="1074.60506" x="174.07404" stroke="#2D2D2D" fill="#007fff"/>
  <rect id="104b9b5af3f14416ba5404f9dc206405-ao-12" height="53.08642" width="122.22223" y="1117.81493" x="175.30861" stroke="#2D2D2D" fill="#007fff"/>
  <rect id="104b9b5af3f14416ba5404f9dc206405-ao-13" height="28.39506" width="106.17284" y="1182.01247" x="213.58022" stroke="#2D2D2D" fill="#007fff"/>
  <rect id="104b9b5af3f14416ba5404f9dc206405-ao-14" height="62.96297" width="109.87655" y="1265.96309" x="348.14813" stroke="#2D2D2D" fill="#007fff"/>
  <rect id="104b9b5af3f14416ba5404f9dc206405-ao-15" height="34.5679" width="76.54321" y="1304.2347" x="512.34567" stroke="#2D2D2D" fill="#007fff"/>
  <rect id="104b9b5af3f14416ba5404f9dc206405-ao-16" height="58.02469" width="122.22223" y="936.33344" x="1292.59262" stroke="#2D2D2D" fill="#007fff"/>
  <rect id="104b9b5af3f14416ba5404f9dc206405-ao-17" height="50.61729" width="172.83951" y="869.66677" x="1302.46916" stroke="#2D2D2D" fill="#007fff"/>
  <rect id="104b9b5af3f14416ba5404f9dc206405-ao-18" height="49.38272" width="119.75309" y="165.96304" x="1340.74077" stroke="#2D2D2D" fill="#007fff"/>
  <rect id="104b9b5af3f14416ba5404f9dc206405-ao-19" height="53.08642" width="122.22223" y="95.59266" x="1296.29632" stroke="#2D2D2D" fill="#007fff"/>
 </g>
</svg>