<svg xmlns="http://www.w3.org/2000/svg" width="1599" height="1476">
 <!-- Created with Image Occlusion Enhanced -->
 <g>
  <title>Labels</title>
 </g>
 <g>
  <title>Masks</title>
  
  <rect id="145ca48e1d2346c183f20d9169f0501d-ao-2" height="46.15385" width="76.92308" y="262.46147" x="363.30774" stroke="#2D2D2D" fill="#007fff"/>
  <rect id="145ca48e1d2346c183f20d9169f0501d-ao-3" height="35.89744" width="120.51282" y="353.48711" x="278.69235" stroke="#2D2D2D" fill="#007fff"/>
  <rect id="145ca48e1d2346c183f20d9169f0501d-ao-4" height="29.48718" width="97.4359" y="431.69224" x="247.92312" stroke="#2D2D2D" fill="#007fff"/>
  <rect id="145ca48e1d2346c183f20d9169f0501d-ao-5" height="30.76923" width="130.76923" y="498.35891" x="183.82055" stroke="#2D2D2D" fill="#007fff"/>
  <rect id="145ca48e1d2346c183f20d9169f0501d-ao-6" height="48.71795" width="102.5641" y="570.15379" x="181.25645" stroke="#2D2D2D" fill="#007fff"/>
  <rect id="145ca48e1d2346c183f20d9169f0501d-ao-7" height="47.4359" width="100" y="641.94866" x="172.28209" stroke="#2D2D2D" fill="#007fff"/>
  <rect id="145ca48e1d2346c183f20d9169f0501d-ao-8" height="23.07692" width="55.12821" y="806.05123" x="190.23081" stroke="#2D2D2D" fill="#007fff"/>
  <rect id="145ca48e1d2346c183f20d9169f0501d-ao-9" height="62.82051" width="98.71795" y="968.87174" x="168.43594" stroke="#2D2D2D" fill="#007fff"/>
  <rect id="145ca48e1d2346c183f20d9169f0501d-ao-10" height="24.35897" width="105.12821" y="1217.5897" x="236.38466" stroke="#2D2D2D" fill="#007fff"/>
  <rect id="145ca48e1d2346c183f20d9169f0501d-ao-11" height="47.4359" width="139.74359" y="1280.41021" x="251.76927" stroke="#2D2D2D" fill="#007fff"/>
  <rect id="145ca48e1d2346c183f20d9169f0501d-ao-12" height="67.94872" width="137.17949" y="1127.84611" x="1273.56417" stroke="#2D2D2D" fill="#007fff"/>
  <rect id="145ca48e1d2346c183f20d9169f0501d-ao-13" height="32.05128" width="108.97436" y="1070.1538" x="1296.64109" stroke="#2D2D2D" fill="#007fff"/>
  <rect id="145ca48e1d2346c183f20d9169f0501d-ao-14" height="55.12821" width="102.5641" y="993.23072" x="1294.07699" stroke="#2D2D2D" fill="#007fff"/>
  <rect id="145ca48e1d2346c183f20d9169f0501d-ao-15" height="44.8718" width="128.20513" y="786.82046" x="1294.07699" stroke="#2D2D2D" fill="#007fff"/>
  <rect id="145ca48e1d2346c183f20d9169f0501d-ao-16" height="20.51282" width="93.58975" y="734.25635" x="1295.35904" stroke="#2D2D2D" fill="#007fff"/>
  <rect id="145ca48e1d2346c183f20d9169f0501d-ao-17" height="50" width="100" y="658.61533" x="1296.64109" stroke="#2D2D2D" fill="#007fff"/>
  <rect id="145ca48e1d2346c183f20d9169f0501d-ao-18" height="17.94872" width="96.15385" y="616.30763" x="1299.2052" stroke="#2D2D2D" fill="#007fff"/>
  <rect id="145ca48e1d2346c183f20d9169f0501d-ao-19" height="32.05128" width="128.20513" y="556.05122" x="1290.23084" stroke="#2D2D2D" fill="#007fff"/>
  <rect id="145ca48e1d2346c183f20d9169f0501d-ao-20" height="47.4359" width="103.84616" y="485.5384" x="1268.43596" stroke="#2D2D2D" fill="#007fff"/>
  <rect id="145ca48e1d2346c183f20d9169f0501d-ao-21" height="52.5641" width="97.4359" y="404.76917" x="1244.07699" stroke="#2D2D2D" fill="#007fff"/>
  <rect id="145ca48e1d2346c183f20d9169f0501d-ao-22" height="42.30769" width="89.74359" y="338.1025" x="1195.35904" stroke="#2D2D2D" fill="#007fff"/>
  <rect id="145ca48e1d2346c183f20d9169f0501d-ao-23" height="43.58974" width="112.82052" y="262.46147" x="1149.20519" stroke="#2D2D2D" fill="#007fff"/>
  <rect id="145ca48e1d2346c183f20d9169f0501d-ao-24" height="26.92308" width="108.97436" y="198.35891" x="892.79493" stroke="#2D2D2D" fill="#007fff"/>
  <rect id="145ca48e1d2346c183f20d9169f0501d-ao-25" height="29.48718" width="114.10257" y="143.2307" x="728.69236" stroke="#2D2D2D" fill="#007fff"/>
 </g>
</svg>