<svg xmlns="http://www.w3.org/2000/svg" width="1431" height="1127">
 <!-- Created with Image Occlusion Enhanced -->
 <g>
  <title>Labels</title>
 </g>
 <g>
  <title>Masks</title>
  <rect id="153751a529bf4368bf20bda0362784c4-ao-1" height="58.65385" width="118.26924" y="212.80774" x="624.96155" stroke="#2D2D2D" fill="#007fff"/>
  <rect id="153751a529bf4368bf20bda0362784c4-ao-2" height="23.07692" width="174.03847" y="271.46159" x="413.42308" stroke="#2D2D2D" fill="#007fff"/>
  <rect id="153751a529bf4368bf20bda0362784c4-ao-3" height="27.88462" width="164.42308" y="315.69236" x="345.15385" stroke="#2D2D2D" fill="#007fff"/>
  <rect id="153751a529bf4368bf20bda0362784c4-ao-4" height="31.73077" width="116.34616" y="359.92313" x="340.34615" stroke="#2D2D2D" fill="#007fff"/>
  <rect id="153751a529bf4368bf20bda0362784c4-ao-5" height="26.92308" width="198.07693" y="409.92313" x="226.88461" stroke="#2D2D2D" fill="#007fff"/>
  <rect id="153751a529bf4368bf20bda0362784c4-ao-6" height="24.03846" width="91.34616" y="451.26929" x="301.88461" stroke="#2D2D2D" fill="#007fff"/>
  <rect id="153751a529bf4368bf20bda0362784c4-ao-7" height="28.84615" width="159.61539" y="495.50006" x="198.03846" stroke="#2D2D2D" fill="#007fff"/>
  <rect id="153751a529bf4368bf20bda0362784c4-ao-8" height="27.88462" width="173.07693" y="544.53852" x="171.11538" stroke="#2D2D2D" fill="#007fff"/>
  <rect id="153751a529bf4368bf20bda0362784c4-ao-9" height="25" width="118.26924" y="588.7693" x="217.26923" stroke="#2D2D2D" fill="#007fff"/>
  <rect id="153751a529bf4368bf20bda0362784c4-ao-10" height="23.07692" width="127.88462" y="636.84622" x="209.57692" stroke="#2D2D2D" fill="#007fff"/>
  <rect id="153751a529bf4368bf20bda0362784c4-ao-11" height="25" width="121.15385" y="687.80776" x="194.1923" stroke="#2D2D2D" fill="#007fff"/>
  <rect id="153751a529bf4368bf20bda0362784c4-ao-12" height="22.11539" width="116.34616" y="734.92315" x="166.30769" stroke="#2D2D2D" fill="#007fff"/>
  <rect id="153751a529bf4368bf20bda0362784c4-ao-13" height="41.34616" width="126.92308" y="786.84623" x="145.15384" stroke="#2D2D2D" fill="#007fff"/>
  <rect id="153751a529bf4368bf20bda0362784c4-ao-14" height="29.80769" width="148.07693" y="853.19238" x="121.11538" stroke="#2D2D2D" fill="#007fff"/>
  <rect id="153751a529bf4368bf20bda0362784c4-ao-15" height="50" width="159.61539" y="1075.30777" x="501.88462" stroke="#2D2D2D" fill="#007fff"/>
  <rect id="153751a529bf4368bf20bda0362784c4-ao-16" height="42.30769" width="125.96154" y="1079.15393" x="695.15386" stroke="#2D2D2D" fill="#007fff"/>
  <rect id="153751a529bf4368bf20bda0362784c4-ao-17" height="44.23077" width="151.92308" y="1077.23085" x="857.65387" stroke="#2D2D2D" fill="#007fff"/>
  <rect id="153751a529bf4368bf20bda0362784c4-ao-18" height="37.5" width="165.38462" y="895.50008" x="1105.7308" stroke="#2D2D2D" fill="#007fff"/>
  <rect id="153751a529bf4368bf20bda0362784c4-ao-19" height="58.65385" width="163.46154" y="831.077" x="1134.57695" stroke="#2D2D2D" fill="#FF7E7E" class="qshape"/>
  <rect id="153751a529bf4368bf20bda0362784c4-ao-20" height="23.07692" width="111.53847" y="786.84623" x="1138.42311" stroke="#2D2D2D" fill="#007fff"/>
  <rect id="153751a529bf4368bf20bda0362784c4-ao-21" height="31.73077" width="163.46154" y="739.73084" x="1136.50003" stroke="#2D2D2D" fill="#007fff"/>
  <rect id="153751a529bf4368bf20bda0362784c4-ao-22" height="30.76923" width="184.61539" y="694.53853" x="1116.30772" stroke="#2D2D2D" fill="#007fff"/>
  <rect id="153751a529bf4368bf20bda0362784c4-ao-23" height="30.76923" width="188.46155" y="648.38468" x="1034.57695" stroke="#2D2D2D" fill="#007fff"/>
  <rect id="153751a529bf4368bf20bda0362784c4-ao-24" height="28.84615" width="171.15385" y="604.15391" x="1037.46156" stroke="#2D2D2D" fill="#007fff"/>
  <rect id="153751a529bf4368bf20bda0362784c4-ao-25" height="29.80769" width="175.00001" y="556.07699" x="1032.65387" stroke="#2D2D2D" fill="#007fff"/>
  <rect id="153751a529bf4368bf20bda0362784c4-ao-26" height="22.11539" width="104.8077" y="514.73083" x="1039.38464" stroke="#2D2D2D" fill="#007fff"/>
  <rect id="153751a529bf4368bf20bda0362784c4-ao-27" height="27.88462" width="189.42308" y="466.65391" x="1002.84618" stroke="#2D2D2D" fill="#007fff"/>
  <rect id="153751a529bf4368bf20bda0362784c4-ao-28" height="27.88462" width="175.96155" y="423.38467" x="988.4231" stroke="#2D2D2D" fill="#007fff"/>
  <rect id="153751a529bf4368bf20bda0362784c4-ao-29" height="50" width="145.19231" y="336.84621" x="917.26925" stroke="#2D2D2D" fill="#007fff"/>
  <rect id="153751a529bf4368bf20bda0362784c4-ao-30" height="51.92308" width="101.92308" y="261.84621" x="788.42309" stroke="#2D2D2D" fill="#007fff"/>
 </g>
</svg>