<svg width="264.045" height="170.131" xmlns="http://www.w3.org/2000/svg">
 <g>
  <title>background</title>
  <rect x="-1" y="-1" width="266.045" height="172.131" id="canvas_background" fill="#ffffff"/>
 </g>

 <g>
  <title>Layer 1</title>
  <polygon points="156.521,118.135 159.421,120.685 158.57,123.234 108.67,123.234 107.82,120.685 110.67,118.135 " id="svg_1"/>
  <polygon points="70.47,84.534 71.32,84.234 72.57,84.185 110.67,118.135 107.82,120.685 106.97,125.484 " id="svg_2"/>
  <polygon points="107.47,46.885 107.82,47.734 106.97,49.784 72.57,84.185 71.32,84.234 72.17,82.185 " id="svg_3"/>
  <polygon points="158.57,46.885 159.421,47.734 159.07,48.584 108.67,48.584 107.82,47.734 107.47,46.885 " id="svg_4"/>
  <polygon points="196.72,83.885 195.87,84.234 194.671,84.185 159.07,48.584 159.421,47.734 160.271,47.385 " id="svg_5"/>
  <polygon points="160.271,125.484 159.421,120.685 156.521,118.135 194.671,84.185 195.87,84.234 195.021,86.435 " id="svg_6"/>
  <g id="svg_7">
   <path d="m151.177,161.469c0,-2.853 0.766,-5.085 2.298,-6.698c1.532,-1.614 3.51,-2.421 5.933,-2.421c1.587,0 3.018,0.379 4.291,1.137c1.273,0.759 2.245,1.815 2.914,3.171c0.668,1.355 1.002,2.894 1.002,4.612c0,1.743 -0.352,3.302 -1.055,4.677c-0.704,1.375 -1.701,2.417 -2.99,3.124c-1.29,0.707 -2.682,1.061 -4.174,1.061c-1.618,0 -3.064,-0.391 -4.338,-1.172c-1.274,-0.781 -2.239,-1.849 -2.896,-3.2c-0.657,-1.353 -0.985,-2.782 -0.985,-4.291zm2.344,0.029c0,2.07 0.557,3.701 1.671,4.893s2.512,1.787 4.192,1.787c1.712,0 3.121,-0.602 4.228,-1.805s1.659,-2.91 1.659,-5.121c0,-1.398 -0.236,-2.619 -0.709,-3.662c-0.474,-1.043 -1.166,-1.852 -2.076,-2.426s-1.933,-0.861 -3.066,-0.861c-1.61,0 -2.996,0.553 -4.157,1.658s-1.742,2.951 -1.742,5.537z" id="svg_8"/>
   <path d="m170.626,169.834l0,-17.188l2.281,0l0,7.063l8.891,0l0,-7.063l2.281,0l0,17.188l-2.281,0l0,-8.094l-8.891,0l0,8.094l-2.281,0z" id="svg_9"/>
  </g>
  <polygon points="160.271,150.085 158.57,150.085 158.57,123.234 159.421,120.685 160.271,125.484 " id="svg_10"/>
  <g id="svg_11">
   <path d="m187.677,124.97c0,-2.853 0.766,-5.085 2.298,-6.698c1.532,-1.614 3.51,-2.421 5.933,-2.421c1.587,0 3.018,0.379 4.291,1.137c1.273,0.759 2.245,1.815 2.914,3.171c0.668,1.355 1.002,2.894 1.002,4.612c0,1.743 -0.352,3.302 -1.055,4.677c-0.704,1.375 -1.701,2.417 -2.99,3.124c-1.29,0.707 -2.682,1.061 -4.174,1.061c-1.618,0 -3.064,-0.391 -4.338,-1.172c-1.274,-0.781 -2.239,-1.849 -2.896,-3.2c-0.657,-1.353 -0.985,-2.782 -0.985,-4.291zm2.344,0.029c0,2.07 0.557,3.701 1.671,4.893s2.512,1.787 4.192,1.787c1.712,0 3.121,-0.602 4.228,-1.805s1.659,-2.91 1.659,-5.121c0,-1.398 -0.236,-2.619 -0.709,-3.662c-0.474,-1.043 -1.166,-1.852 -2.076,-2.426s-1.933,-0.861 -3.066,-0.861c-1.61,0 -2.996,0.553 -4.157,1.658s-1.742,2.951 -1.742,5.537z" id="svg_12"/>
   <path d="m207.048,133.335l0,-17.188l6.479,0c1.141,0 2.011,0.055 2.612,0.164c0.844,0.141 1.55,0.409 2.12,0.804s1.029,0.948 1.377,1.659c0.348,0.712 0.521,1.493 0.521,2.346c0,1.462 -0.465,2.699 -1.393,3.712c-0.93,1.013 -2.607,1.519 -5.034,1.519l-4.401,0l0,6.984l-2.281,0zm2.281,-9.016l4.436,0c1.467,0 2.508,-0.273 3.124,-0.82s0.925,-1.316 0.925,-2.309c0,-0.719 -0.182,-1.334 -0.544,-1.846c-0.363,-0.512 -0.841,-0.85 -1.434,-1.014c-0.383,-0.102 -1.089,-0.152 -2.118,-0.152l-4.389,0l0,6.141z" id="svg_13"/>
   <path d="m222.353,124.97c0,-2.853 0.766,-5.085 2.298,-6.698c1.532,-1.614 3.51,-2.421 5.933,-2.421c1.587,0 3.018,0.379 4.291,1.137c1.273,0.759 2.245,1.815 2.914,3.171c0.668,1.355 1.002,2.894 1.002,4.612c0,1.743 -0.352,3.302 -1.055,4.677c-0.704,1.375 -1.701,2.417 -2.99,3.124c-1.29,0.707 -2.682,1.061 -4.174,1.061c-1.618,0 -3.064,-0.391 -4.338,-1.172c-1.274,-0.781 -2.239,-1.849 -2.896,-3.2c-0.657,-1.353 -0.985,-2.782 -0.985,-4.291zm2.343,0.029c0,2.07 0.557,3.701 1.671,4.893s2.512,1.787 4.192,1.787c1.712,0 3.121,-0.602 4.228,-1.805s1.659,-2.91 1.659,-5.121c0,-1.398 -0.236,-2.619 -0.709,-3.662c-0.474,-1.043 -1.166,-1.852 -2.076,-2.426s-1.933,-0.861 -3.066,-0.861c-1.61,0 -2.996,0.553 -4.157,1.658s-1.742,2.951 -1.742,5.537z" id="svg_14"/>
  </g>
  <g id="svg_15">
   <path d="m240.113,134.428l1.578,-0.219c0.183,0.896 0.492,1.542 0.928,1.938c0.437,0.395 0.972,0.593 1.607,0.593c0.753,0 1.386,-0.258 1.899,-0.772c0.512,-0.516 0.769,-1.154 0.769,-1.916c0,-0.726 -0.238,-1.324 -0.716,-1.796c-0.477,-0.472 -1.084,-0.707 -1.819,-0.707c-0.301,0 -0.675,0.059 -1.122,0.176l0.177,-1.391c0.106,0.012 0.191,0.018 0.256,0.018c0.675,0 1.281,-0.175 1.821,-0.526c0.539,-0.351 0.81,-0.892 0.81,-1.623c0,-0.579 -0.197,-1.059 -0.591,-1.438c-0.395,-0.38 -0.902,-0.57 -1.525,-0.57c-0.617,0 -1.132,0.194 -1.543,0.582c-0.412,0.388 -0.677,0.97 -0.794,1.746l-1.578,-0.281c0.193,-1.062 0.634,-1.885 1.32,-2.468c0.687,-0.584 1.54,-0.876 2.561,-0.876c0.704,0 1.353,0.15 1.944,0.452c0.593,0.301 1.046,0.712 1.36,1.232c0.313,0.521 0.471,1.073 0.471,1.658c0,0.556 -0.149,1.062 -0.448,1.518s-0.741,0.818 -1.327,1.088c0.762,0.176 1.354,0.541 1.779,1.094c0.425,0.555 0.637,1.247 0.637,2.079c0,1.126 -0.411,2.079 -1.233,2.861c-0.821,0.782 -1.86,1.174 -3.116,1.174c-1.134,0 -2.074,-0.337 -2.822,-1.009c-0.75,-0.675 -1.177,-1.546 -1.283,-2.617z" id="svg_16"/>
  </g>
  <g id="svg_17">
   <path d="m257.659,122.819l0,1.516l-8.531,0c-0.012,-0.381 0.05,-0.747 0.186,-1.099c0.219,-0.58 0.567,-1.151 1.049,-1.713c0.48,-0.562 1.17,-1.211 2.069,-1.947c1.396,-1.153 2.343,-2.064 2.84,-2.734c0.498,-0.67 0.747,-1.305 0.747,-1.903c0,-0.626 -0.225,-1.153 -0.676,-1.584c-0.449,-0.43 -1.036,-0.645 -1.76,-0.645c-0.766,0 -1.377,0.229 -1.836,0.688s-0.691,1.094 -0.697,1.905l-1.625,-0.172c0.111,-1.216 0.531,-2.142 1.26,-2.778c0.729,-0.638 1.706,-0.956 2.934,-0.956c1.238,0 2.22,0.343 2.941,1.029c0.723,0.686 1.084,1.536 1.084,2.55c0,0.516 -0.105,1.023 -0.317,1.521s-0.563,1.023 -1.053,1.574c-0.491,0.551 -1.304,1.307 -2.44,2.268c-0.951,0.798 -1.562,1.338 -1.833,1.623c-0.271,0.283 -0.496,0.569 -0.673,0.856l6.331,0l0,0.001z" id="svg_18"/>
   <path d="m259.17,120.46l0,-1.594l4.875,0l0,1.594l-4.875,0z" id="svg_19"/>
  </g>
  <polygon points="196.72,113.635 195.021,113.635 195.021,86.435 195.87,84.234 196.72,83.885 " id="svg_20"/>
  <g id="svg_21">
   <path d="m8.533,43.469l0,1.516l-8.532,0c-0.012,-0.381 0.05,-0.747 0.186,-1.099c0.218,-0.58 0.567,-1.151 1.048,-1.713c0.48,-0.562 1.17,-1.211 2.07,-1.947c1.396,-1.153 2.342,-2.064 2.84,-2.734c0.498,-0.67 0.747,-1.305 0.747,-1.903c0,-0.626 -0.225,-1.153 -0.675,-1.584c-0.45,-0.43 -1.037,-0.645 -1.76,-0.645c-0.766,0 -1.377,0.229 -1.836,0.688s-0.691,1.094 -0.697,1.905l-1.625,-0.172c0.111,-1.216 0.531,-2.142 1.26,-2.778c0.728,-0.638 1.706,-0.956 2.934,-0.956c1.239,0 2.22,0.343 2.942,1.029c0.722,0.686 1.083,1.536 1.083,2.55c0,0.516 -0.106,1.023 -0.317,1.521s-0.563,1.023 -1.053,1.574c-0.491,0.551 -1.304,1.307 -2.44,2.268c-0.951,0.798 -1.562,1.338 -1.833,1.623c-0.271,0.283 -0.496,0.569 -0.673,0.856l6.331,0l0,0.001z" id="svg_22"/>
   <path d="m10.043,41.109l0,-1.594l4.875,0l0,1.594l-4.875,0z" id="svg_23"/>
  </g>
  <g id="svg_24">
   <path d="m16.386,45.619c0,-2.853 0.766,-5.085 2.298,-6.698c1.532,-1.614 3.51,-2.421 5.933,-2.421c1.587,0 3.017,0.379 4.291,1.137c1.274,0.759 2.245,1.815 2.914,3.171s1.002,2.894 1.002,4.612c0,1.743 -0.352,3.302 -1.055,4.677s-1.7,2.417 -2.99,3.124c-1.29,0.707 -2.681,1.061 -4.174,1.061c-1.618,0 -3.064,-0.391 -4.338,-1.172c-1.274,-0.781 -2.239,-1.849 -2.896,-3.2s-0.985,-2.782 -0.985,-4.291zm2.344,0.029c0,2.07 0.557,3.701 1.671,4.893s2.512,1.787 4.192,1.787c1.712,0 3.121,-0.602 4.228,-1.805c1.106,-1.203 1.659,-2.91 1.659,-5.121c0,-1.398 -0.236,-2.619 -0.709,-3.662s-1.165,-1.852 -2.076,-2.426s-1.933,-0.861 -3.066,-0.861c-1.61,0 -2.996,0.553 -4.157,1.658s-1.742,2.952 -1.742,5.537z" id="svg_25"/>
  </g>
  <g id="svg_26">
   <path d="m33.517,55.078l1.578,-0.219c0.183,0.896 0.492,1.542 0.928,1.938c0.437,0.395 0.972,0.593 1.607,0.593c0.753,0 1.386,-0.258 1.899,-0.772c0.513,-0.516 0.769,-1.154 0.769,-1.916c0,-0.726 -0.238,-1.324 -0.716,-1.796c-0.477,-0.472 -1.083,-0.707 -1.819,-0.707c-0.301,0 -0.675,0.059 -1.122,0.176l0.177,-1.391c0.106,0.012 0.191,0.018 0.256,0.018c0.674,0 1.281,-0.175 1.821,-0.526c0.54,-0.351 0.81,-0.892 0.81,-1.623c0,-0.579 -0.197,-1.059 -0.591,-1.438c-0.394,-0.38 -0.902,-0.57 -1.525,-0.57c-0.617,0 -1.132,0.194 -1.543,0.582s-0.676,0.97 -0.793,1.746l-1.578,-0.281c0.193,-1.062 0.634,-1.885 1.32,-2.468c0.686,-0.584 1.54,-0.876 2.561,-0.876c0.704,0 1.353,0.15 1.945,0.452c0.592,0.301 1.045,0.712 1.36,1.232c0.313,0.521 0.471,1.073 0.471,1.658c0,0.556 -0.149,1.062 -0.448,1.518s-0.741,0.818 -1.327,1.088c0.762,0.176 1.354,0.541 1.779,1.094c0.424,0.555 0.637,1.247 0.637,2.079c0,1.126 -0.411,2.079 -1.233,2.861s-1.861,1.174 -3.117,1.174c-1.133,0 -2.074,-0.337 -2.822,-1.009c-0.752,-0.674 -1.178,-1.546 -1.284,-2.617z" id="svg_27"/>
  </g>
  <g id="svg_28">
   <path d="m43.86,53.984l0,-17.187l6.479,0c1.14,0 2.011,0.055 2.612,0.164c0.844,0.141 1.55,0.409 2.121,0.804c0.57,0.395 1.029,0.948 1.376,1.659c0.348,0.712 0.521,1.493 0.521,2.346c0,1.462 -0.464,2.699 -1.393,3.712s-2.607,1.518 -5.034,1.518l-4.401,0l0,6.984l-2.281,0zm2.281,-9.015l4.436,0c1.466,0 2.508,-0.273 3.124,-0.82s0.925,-1.316 0.925,-2.309c0,-0.719 -0.182,-1.334 -0.544,-1.846c-0.363,-0.512 -0.841,-0.85 -1.434,-1.014c-0.383,-0.102 -1.089,-0.152 -2.118,-0.152l-4.389,0l0,6.141z" id="svg_29"/>
   <path d="m59.165,45.619c0,-2.853 0.766,-5.085 2.298,-6.698c1.532,-1.614 3.51,-2.421 5.933,-2.421c1.587,0 3.017,0.379 4.291,1.137c1.274,0.759 2.245,1.815 2.914,3.171s1.002,2.894 1.002,4.612c0,1.743 -0.352,3.302 -1.055,4.677s-1.7,2.417 -2.99,3.124c-1.29,0.707 -2.681,1.061 -4.174,1.061c-1.618,0 -3.064,-0.391 -4.338,-1.172c-1.274,-0.781 -2.239,-1.849 -2.896,-3.2s-0.985,-2.782 -0.985,-4.291zm2.343,0.029c0,2.07 0.557,3.701 1.671,4.893s2.512,1.787 4.192,1.787c1.712,0 3.121,-0.602 4.228,-1.805c1.106,-1.203 1.659,-2.91 1.659,-5.121c0,-1.398 -0.236,-2.619 -0.709,-3.662s-1.165,-1.852 -2.076,-2.426s-1.933,-0.861 -3.066,-0.861c-1.61,0 -2.996,0.553 -4.157,1.658s-1.742,2.952 -1.742,5.537z" id="svg_30"/>
  </g>
  <polygon points="70.47,56.534 72.17,56.534 72.17,82.185 71.32,84.234 70.47,84.534 " id="svg_31"/>
  <g id="svg_32">
   <path d="m81.626,161.469c0,-2.853 0.766,-5.085 2.298,-6.698c1.532,-1.614 3.51,-2.421 5.933,-2.421c1.587,0 3.017,0.379 4.291,1.137c1.274,0.759 2.245,1.815 2.914,3.171s1.002,2.894 1.002,4.612c0,1.743 -0.352,3.302 -1.055,4.677s-1.7,2.417 -2.99,3.124c-1.29,0.707 -2.681,1.061 -4.174,1.061c-1.618,0 -3.064,-0.391 -4.338,-1.172c-1.274,-0.781 -2.239,-1.849 -2.896,-3.2s-0.985,-2.782 -0.985,-4.291zm2.344,0.029c0,2.07 0.557,3.701 1.671,4.893s2.512,1.787 4.192,1.787c1.712,0 3.121,-0.602 4.228,-1.805c1.106,-1.203 1.659,-2.91 1.659,-5.121c0,-1.398 -0.236,-2.619 -0.709,-3.662s-1.165,-1.852 -2.076,-2.426s-1.933,-0.861 -3.066,-0.861c-1.61,0 -2.996,0.553 -4.157,1.658s-1.742,2.951 -1.742,5.537z" id="svg_33"/>
   <path d="m101.076,169.834l0,-17.188l2.281,0l0,7.063l8.891,0l0,-7.063l2.281,0l0,17.188l-2.281,0l0,-8.094l-8.891,0l0,8.094l-2.281,0z" id="svg_34"/>
  </g>
  <polygon points="108.67,150.384 106.97,150.384 106.97,125.484 107.82,120.685 108.67,123.234 " id="svg_35"/>
  <g id="svg_36">
   <path d="m99.577,88.52c0,-2.853 0.766,-5.085 2.298,-6.698c1.532,-1.614 3.51,-2.421 5.933,-2.421c1.587,0 3.017,0.379 4.291,1.137c1.274,0.759 2.245,1.815 2.914,3.171s1.002,2.894 1.002,4.612c0,1.743 -0.352,3.302 -1.055,4.677s-1.7,2.417 -2.99,3.124c-1.29,0.707 -2.681,1.061 -4.174,1.061c-1.618,0 -3.064,-0.391 -4.338,-1.172c-1.274,-0.781 -2.239,-1.849 -2.896,-3.2s-0.985,-2.783 -0.985,-4.291zm2.343,0.029c0,2.07 0.557,3.701 1.671,4.893s2.512,1.787 4.192,1.787c1.712,0 3.121,-0.602 4.228,-1.805c1.106,-1.203 1.659,-2.91 1.659,-5.121c0,-1.398 -0.236,-2.619 -0.709,-3.662s-1.165,-1.852 -2.076,-2.426s-1.933,-0.861 -3.066,-0.861c-1.61,0 -2.996,0.553 -4.157,1.658s-1.742,2.951 -1.742,5.537z" id="svg_37"/>
   <path d="m118.948,96.885l0,-17.188l6.479,0c1.14,0 2.011,0.055 2.612,0.164c0.844,0.141 1.55,0.409 2.121,0.804c0.57,0.395 1.029,0.948 1.376,1.659c0.348,0.712 0.521,1.493 0.521,2.346c0,1.462 -0.464,2.699 -1.393,3.712s-2.607,1.519 -5.034,1.519l-4.401,0l0,6.984l-2.281,0zm2.281,-9.016l4.436,0c1.466,0 2.508,-0.273 3.124,-0.82s0.925,-1.316 0.925,-2.309c0,-0.719 -0.182,-1.334 -0.544,-1.846c-0.363,-0.512 -0.841,-0.85 -1.434,-1.014c-0.383,-0.102 -1.089,-0.152 -2.118,-0.152l-4.389,0l0,6.141z" id="svg_38"/>
   <path d="m134.252,88.52c0,-2.853 0.766,-5.085 2.297,-6.698c1.533,-1.614 3.51,-2.421 5.934,-2.421c1.586,0 3.017,0.379 4.291,1.137c1.273,0.759 2.244,1.815 2.913,3.171s1.003,2.894 1.003,4.612c0,1.743 -0.352,3.302 -1.056,4.677s-1.7,2.417 -2.989,3.124c-1.291,0.707 -2.682,1.061 -4.174,1.061c-1.619,0 -3.064,-0.391 -4.338,-1.172c-1.275,-0.781 -2.24,-1.849 -2.896,-3.2s-0.985,-2.783 -0.985,-4.291zm2.345,0.029c0,2.07 0.557,3.701 1.67,4.893c1.115,1.191 2.512,1.787 4.193,1.787c1.711,0 3.121,-0.602 4.227,-1.805c1.106,-1.203 1.66,-2.91 1.66,-5.121c0,-1.398 -0.236,-2.619 -0.71,-3.662s-1.165,-1.852 -2.075,-2.426c-0.911,-0.574 -1.934,-0.861 -3.066,-0.861c-1.611,0 -2.996,0.553 -4.158,1.658c-1.161,1.105 -1.741,2.951 -1.741,5.537z" id="svg_39"/>
  </g>
  <g id="svg_40">
   <path d="m152.013,97.979l1.578,-0.219c0.184,0.896 0.492,1.542 0.928,1.938c0.438,0.395 0.973,0.593 1.607,0.593c0.754,0 1.387,-0.258 1.899,-0.772c0.513,-0.516 0.769,-1.154 0.769,-1.916c0,-0.726 -0.238,-1.324 -0.715,-1.796s-1.084,-0.707 -1.82,-0.707c-0.301,0 -0.674,0.059 -1.121,0.176l0.176,-1.391c0.106,0.012 0.191,0.018 0.256,0.018c0.675,0 1.281,-0.175 1.822,-0.526c0.539,-0.351 0.809,-0.892 0.809,-1.623c0,-0.579 -0.197,-1.059 -0.59,-1.438c-0.395,-0.38 -0.902,-0.57 -1.525,-0.57c-0.617,0 -1.133,0.194 -1.544,0.582s-0.677,0.97 -0.794,1.746l-1.578,-0.281c0.193,-1.062 0.635,-1.885 1.32,-2.468c0.687,-0.584 1.54,-0.876 2.561,-0.876c0.705,0 1.354,0.15 1.945,0.452c0.592,0.301 1.045,0.712 1.359,1.232s0.471,1.073 0.471,1.658c0,0.556 -0.148,1.062 -0.447,1.518s-0.742,0.818 -1.328,1.088c0.762,0.176 1.355,0.541 1.779,1.094c0.425,0.555 0.637,1.247 0.637,2.079c0,1.126 -0.41,2.079 -1.232,2.861s-1.861,1.174 -3.117,1.174c-1.133,0 -2.074,-0.337 -2.822,-1.009c-0.75,-0.675 -1.178,-1.546 -1.283,-2.617z" id="svg_41"/>
  </g>
  <g id="svg_42">
   <path d="m169.56,86.369l0,1.516l-8.531,0c-0.012,-0.381 0.05,-0.747 0.186,-1.099c0.219,-0.58 0.567,-1.151 1.049,-1.713c0.48,-0.562 1.17,-1.211 2.069,-1.947c1.396,-1.153 2.343,-2.064 2.84,-2.734c0.498,-0.67 0.747,-1.305 0.747,-1.903c0,-0.626 -0.225,-1.153 -0.676,-1.584c-0.449,-0.43 -1.036,-0.645 -1.76,-0.645c-0.766,0 -1.377,0.229 -1.836,0.688s-0.691,1.094 -0.697,1.905l-1.625,-0.172c0.111,-1.216 0.531,-2.142 1.26,-2.778c0.729,-0.638 1.706,-0.956 2.934,-0.956c1.238,0 2.22,0.343 2.941,1.029c0.723,0.686 1.084,1.536 1.084,2.55c0,0.516 -0.105,1.023 -0.317,1.521s-0.563,1.023 -1.053,1.574c-0.491,0.551 -1.304,1.307 -2.44,2.268c-0.951,0.798 -1.562,1.338 -1.833,1.623c-0.271,0.283 -0.496,0.569 -0.673,0.856l6.331,0l0,0.001z" id="svg_43"/>
   <path d="m171.07,84.01l0,-1.594l4.875,0l0,1.594l-4.875,0z" id="svg_44"/>
  </g>
  <polygon points="108.67,77.185 106.97,77.185 106.97,49.784 107.82,47.734 108.67,48.584 " id="svg_45"/>
  <g id="svg_46">
   <path d="m151.177,9.119c0,-2.853 0.766,-5.085 2.298,-6.698c1.532,-1.614 3.509,-2.421 5.932,-2.421c1.587,0 3.018,0.379 4.291,1.137c1.273,0.759 2.245,1.815 2.914,3.171c0.668,1.355 1.002,2.894 1.002,4.612c0,1.743 -0.352,3.302 -1.055,4.677c-0.704,1.375 -1.701,2.417 -2.99,3.124c-1.29,0.707 -2.682,1.061 -4.174,1.061c-1.618,0 -3.064,-0.391 -4.338,-1.172c-1.274,-0.781 -2.239,-1.849 -2.896,-3.2c-0.656,-1.352 -0.984,-2.782 -0.984,-4.291zm2.344,0.029c0,2.07 0.557,3.701 1.671,4.893s2.512,1.787 4.192,1.787c1.712,0 3.121,-0.602 4.228,-1.805s1.659,-2.91 1.659,-5.121c0,-1.398 -0.236,-2.619 -0.709,-3.662c-0.474,-1.043 -1.166,-1.852 -2.076,-2.426s-1.933,-0.861 -3.066,-0.861c-1.61,0 -2.996,0.553 -4.157,1.658s-1.742,2.952 -1.742,5.537z" id="svg_47"/>
   <path d="m170.626,17.484l0,-17.187l2.281,0l0,7.063l8.891,0l0,-7.063l2.281,0l0,17.188l-2.281,0l0,-8.094l-8.891,0l0,8.094l-2.281,0l0,-0.001z" id="svg_48"/>
  </g>
  <polygon points="158.57,20.034 160.271,20.034 160.271,47.385 159.421,47.734 158.57,46.885 " id="svg_49"/>
 </g>
</svg>