<svg xmlns="http://www.w3.org/2000/svg" width="697" height="677">
 <!-- Created with Image Occlusion Enhanced -->
 <g>
  <title>Labels</title>
 </g>
 <g>
  <title>Masks</title>
  <rect id="20e8018d30ff4d5d9376aa2db8f3617f-oa-1" height="39.08046" width="72.41379" y="145.75863" x="584.60917" stroke="#2D2D2D" fill="#FFEBA2"/>
  <rect id="20e8018d30ff4d5d9376aa2db8f3617f-oa-2" height="22.98851" width="74.71264" y="192.88507" x="588.05745" stroke="#2D2D2D" fill="#FFEBA2"/>
  <rect id="20e8018d30ff4d5d9376aa2db8f3617f-oa-3" height="25.28736" width="75.86207" y="225.06898" x="585.7586" stroke="#2D2D2D" fill="#FFEBA2"/>
  <rect id="20e8018d30ff4d5d9376aa2db8f3617f-oa-4" height="14.94253" width="68.96552" y="259.55174" x="598.40228" stroke="#2D2D2D" fill="#FFEBA2"/>
  <rect id="20e8018d30ff4d5d9376aa2db8f3617f-oa-5" height="32.18391" width="62.06897" y="280.2414" x="598.40228" stroke="#2D2D2D" fill="#FFEBA2"/>
  <rect id="20e8018d30ff4d5d9376aa2db8f3617f-oa-6" height="31.03448" width="90.8046" y="317.023" x="599.5517" stroke="#2D2D2D" fill="#FFEBA2"/>
  <rect id="20e8018d30ff4d5d9376aa2db8f3617f-oa-7" height="32.18391" width="58.62069" y="349.20691" x="608.74711" stroke="#2D2D2D" fill="#FFEBA2"/>
  <rect id="20e8018d30ff4d5d9376aa2db8f3617f-oa-8" height="25.28736" width="77.0115" y="383.68967" x="592.65515" stroke="#2D2D2D" fill="#FFEBA2"/>
  <rect id="20e8018d30ff4d5d9376aa2db8f3617f-oa-9" height="25.28736" width="62.06897" y="441.16094" x="558.17239" stroke="#2D2D2D" fill="#FFEBA2"/>
  <rect id="20e8018d30ff4d5d9376aa2db8f3617f-oa-10" height="16.09195" width="73.56322" y="476.79312" x="543.22986" stroke="#2D2D2D" fill="#FFEBA2"/>
  <rect id="20e8018d30ff4d5d9376aa2db8f3617f-oa-11" height="27.58621" width="93.10345" y="519.32186" x="529.43676" stroke="#2D2D2D" fill="#FFEBA2"/>
  <rect id="20e8018d30ff4d5d9376aa2db8f3617f-oa-12" height="14.94253" width="65.51724" y="557.25289" x="532.88504" stroke="#2D2D2D" fill="#FFEBA2"/>
  <rect id="20e8018d30ff4d5d9376aa2db8f3617f-oa-13" height="42.52874" width="72.41379" y="257.25289" x="7.59767" stroke="#2D2D2D" fill="#FFEBA2"/>
  <rect id="20e8018d30ff4d5d9376aa2db8f3617f-oa-14" height="21.83908" width="52.87356" y="313.57473" x="28.28733" stroke="#2D2D2D" fill="#FFEBA2"/>
  <rect id="20e8018d30ff4d5d9376aa2db8f3617f-oa-15" height="25.28736" width="63.21839" y="349.20691" x="15.64365" stroke="#2D2D2D" fill="#FFEBA2"/>
  <rect id="20e8018d30ff4d5d9376aa2db8f3617f-oa-16" height="21.83908" width="59.77012" y="411.27588" x="32.88503" stroke="#2D2D2D" fill="#FFEBA2"/>
  <rect id="20e8018d30ff4d5d9376aa2db8f3617f-oa-17" height="13.7931" width="60.91954" y="445.75864" x="40.931" stroke="#2D2D2D" fill="#FFEBA2"/>
  <rect id="20e8018d30ff4d5d9376aa2db8f3617f-oa-18" height="31.03448" width="65.51724" y="481.39082" x="44.37928" stroke="#2D2D2D" fill="#FFEBA2"/>
  <rect id="20e8018d30ff4d5d9376aa2db8f3617f-oa-19" height="13.7931" width="64.36782" y="533.11496" x="60.47123" stroke="#2D2D2D" fill="#FFEBA2"/>
 </g>
</svg>