<svg xmlns="http://www.w3.org/2000/svg" width="785.0000000000001" height="761">
 <!-- Created with Image Occlusion Enhanced -->
 <g>
  <title>Labels</title>
 </g>
 <g>
  <title>Masks</title>
  <rect id="2ab4a88ec74e4bf382b0dec0a592944e-oa-1" height="39.74359" width="75.64103" y="434.12817" x="9.87181" stroke="#2D2D2D" fill="#FFEBA2"/>
  <rect id="2ab4a88ec74e4bf382b0dec0a592944e-oa-2" height="33.33333" width="61.53846" y="249.51279" x="29.10258" stroke="#2D2D2D" fill="#FFEBA2"/>
  <rect id="2ab4a88ec74e4bf382b0dec0a592944e-oa-3" height="32.05128" width="64.10257" y="205.92304" x="59.87181" stroke="#2D2D2D" fill="#FFEBA2"/>
  <rect id="2ab4a88ec74e4bf382b0dec0a592944e-oa-4" height="37.17949" width="89.74359" y="149.51278" x="95.76925" stroke="#2D2D2D" fill="#FFEBA2"/>
  <rect id="2ab4a88ec74e4bf382b0dec0a592944e-oa-5" height="39.74359" width="83.33333" y="70.0256" x="225.25643" stroke="#2D2D2D" fill="#FFEBA2"/>
  <rect id="2ab4a88ec74e4bf382b0dec0a592944e-oa-6" height="20.51282" width="78.20513" y="120.0256" x="141.9231" stroke="#2D2D2D" fill="#FFEBA2"/>
  <rect id="2ab4a88ec74e4bf382b0dec0a592944e-oa-7" height="12.82051" width="11.53846" y="66.17945" x="340.64105" stroke="#2D2D2D" fill="#FFEBA2"/>
  <rect id="2ab4a88ec74e4bf382b0dec0a592944e-oa-8" height="6.41026" width="43.58974" y="72.5897" x="385.51284" stroke="#2D2D2D" fill="#FFEBA2"/>
  <rect id="2ab4a88ec74e4bf382b0dec0a592944e-oa-9" height="10.25641" width="51.28205" y="68.74355" x="454.74361" stroke="#2D2D2D" fill="#FFEBA2"/>
  <rect id="2ab4a88ec74e4bf382b0dec0a592944e-oa-10" height="25.64103" width="78.20513" y="86.69227" x="513.71797" stroke="#2D2D2D" fill="#FFEBA2"/>
  <rect id="2ab4a88ec74e4bf382b0dec0a592944e-oa-11" height="11.53846" width="92.30769" y="128.99996" x="543.20515" stroke="#2D2D2D" fill="#FFEBA2"/>
  <rect id="2ab4a88ec74e4bf382b0dec0a592944e-oa-12" height="12.82051" width="79.48718" y="152.07689" x="600.89746" stroke="#2D2D2D" fill="#FFEBA2"/>
  <rect id="2ab4a88ec74e4bf382b0dec0a592944e-oa-13" height="26.92308" width="80.76923" y="184.12817" x="634.2308" stroke="#2D2D2D" fill="#FFEBA2"/>
  <rect id="2ab4a88ec74e4bf382b0dec0a592944e-oa-14" height="11.53846" width="78.20513" y="226.43586" x="679.10259" stroke="#2D2D2D" fill="#FFEBA2"/>
  <rect id="2ab4a88ec74e4bf382b0dec0a592944e-oa-15" height="17.94872" width="69.23077" y="255.92304" x="694.48721" stroke="#2D2D2D" fill="#FFEBA2"/>
  <rect id="2ab4a88ec74e4bf382b0dec0a592944e-oa-16" height="37.17949" width="42.30769" y="377.71792" x="725.25644" stroke="#2D2D2D" fill="#FFEBA2"/>
  <rect id="2ab4a88ec74e4bf382b0dec0a592944e-oa-17" height="30.76923" width="62.82051" y="436.69228" x="713.71798" stroke="#2D2D2D" fill="#FFEBA2"/>
  <rect id="2ab4a88ec74e4bf382b0dec0a592944e-oa-18" height="16.66667" width="39.74359" y="509.7692" x="670.12823" stroke="#2D2D2D" fill="#FFEBA2"/>
  <rect id="2ab4a88ec74e4bf382b0dec0a592944e-oa-19" height="20.51282" width="57.69231" y="543.10253" x="659.87182" stroke="#2D2D2D" fill="#FFEBA2"/>
  <rect id="2ab4a88ec74e4bf382b0dec0a592944e-oa-20" height="19.23077" width="43.58974" y="581.56407" x="636.7949" stroke="#2D2D2D" fill="#FFEBA2"/>
  <rect id="2ab4a88ec74e4bf382b0dec0a592944e-oa-21" height="26.92308" width="101.28205" y="576.43587" x="88.07694" stroke="#2D2D2D" fill="#FFEBA2"/>
  <rect id="2ab4a88ec74e4bf382b0dec0a592944e-oa-22" height="26.92308" width="46.15385" y="622.58972" x="180.38463" stroke="#2D2D2D" fill="#FFEBA2"/>
  <rect id="2ab4a88ec74e4bf382b0dec0a592944e-oa-23" height="32.05128" width="67.94872" y="662.33331" x="165.00002" stroke="#2D2D2D" fill="#FFEBA2"/>
  <rect id="2ab4a88ec74e4bf382b0dec0a592944e-oa-24" height="20.51282" width="78.20513" y="663.61536" x="399.61541" stroke="#2D2D2D" fill="#FFEBA2"/>
  <rect id="2ab4a88ec74e4bf382b0dec0a592944e-oa-25" height="23.07692" width="62.82051" y="696.94869" x="398.33336" stroke="#2D2D2D" fill="#FFEBA2"/>
 </g>
</svg>