<svg xmlns="http://www.w3.org/2000/svg" width="1470" height="1072">
 <!-- Created with Image Occlusion Enhanced -->
 <g>
  <title>Labels</title>
 </g>
 <g>
  <title>Masks</title>
  <rect id="36a4dc182e784b55850b1bda7c8a6fc1-ao-1" height="47.22222" width="87.96296" y="63.55553" x="65.55558" stroke="#2D2D2D" fill="#007fff"/>
  <rect id="36a4dc182e784b55850b1bda7c8a6fc1-ao-2" height="51.85185" width="81.48148" y="138.55554" x="68.33336" stroke="#2D2D2D" fill="#007fff"/>
  <rect id="36a4dc182e784b55850b1bda7c8a6fc1-ao-3" height="48.14815" width="96.2963" y="223.74072" x="53.51854" stroke="#2D2D2D" fill="#007fff"/>
  <rect id="36a4dc182e784b55850b1bda7c8a6fc1-ao-4" height="43.51852" width="75.92593" y="285.77776" x="273.88892" stroke="#2D2D2D" fill="#007fff"/>
  <rect id="36a4dc182e784b55850b1bda7c8a6fc1-ao-5" height="53.7037" width="118.51852" y="280.2222" x="395.18521" stroke="#2D2D2D" fill="#007fff"/>
  <rect id="36a4dc182e784b55850b1bda7c8a6fc1-ao-6" height="48.14815" width="100.92593" y="221.88887" x="604.44448" stroke="#2D2D2D" fill="#007fff"/>
  <rect id="36a4dc182e784b55850b1bda7c8a6fc1-ao-7" height="46.2963" width="97.22222" y="161.70368" x="597.03707" stroke="#2D2D2D" fill="#007fff"/>
  <rect id="36a4dc182e784b55850b1bda7c8a6fc1-ao-8" height="48.14815" width="87.03704" y="97.81479" x="597.96299" stroke="#2D2D2D" fill="#007fff"/>
  <rect id="36a4dc182e784b55850b1bda7c8a6fc1-ao-9" height="49.07407" width="92.59259" y="37.62961" x="594.25929" stroke="#2D2D2D" fill="#007fff"/>
  <rect id="36a4dc182e784b55850b1bda7c8a6fc1-ao-10" height="46.2963" width="87.03704" y="376.5185" x="68.33336" stroke="#2D2D2D" fill="#007fff"/>
  <rect id="36a4dc182e784b55850b1bda7c8a6fc1-ao-11" height="50" width="83.33333" y="438.55554" x="71.11113" stroke="#2D2D2D" fill="#007fff"/>
  <rect id="36a4dc182e784b55850b1bda7c8a6fc1-ao-12" height="48.14815" width="82.40741" y="507.99999" x="72.03706" stroke="#2D2D2D" fill="#007fff"/>
  <rect id="36a4dc182e784b55850b1bda7c8a6fc1-ao-13" height="49.07407" width="86.11111" y="377.44443" x="601.6667" stroke="#2D2D2D" fill="#007fff"/>
  <rect id="36a4dc182e784b55850b1bda7c8a6fc1-ao-14" height="48.14815" width="91.66667" y="440.40739" x="601.6667" stroke="#2D2D2D" fill="#007fff"/>
  <rect id="36a4dc182e784b55850b1bda7c8a6fc1-ao-15" height="46.2963" width="97.22222" y="502.44443" x="600.74077" stroke="#2D2D2D" fill="#007fff"/>
  <rect id="36a4dc182e784b55850b1bda7c8a6fc1-ao-16" height="46.2963" width="103.70371" y="558.92591" x="598.88892" stroke="#2D2D2D" fill="#007fff"/>
  <rect id="36a4dc182e784b55850b1bda7c8a6fc1-ao-17" height="46.2963" width="158.33334" y="619.1111" x="305.3704" stroke="#2D2D2D" fill="#007fff"/>
  <rect id="36a4dc182e784b55850b1bda7c8a6fc1-ao-18" height="50.92593" width="83.33333" y="753.37036" x="557.22225" stroke="#2D2D2D" fill="#007fff"/>
  <rect id="36a4dc182e784b55850b1bda7c8a6fc1-ao-19" height="55.55556" width="100.92593" y="874.66666" x="558.14818" stroke="#2D2D2D" fill="#007fff"/>
  <rect id="36a4dc182e784b55850b1bda7c8a6fc1-ao-20" height="45.37037" width="96.2963" y="969.1111" x="557.22225" stroke="#2D2D2D" fill="#007fff"/>
  <rect id="36a4dc182e784b55850b1bda7c8a6fc1-ao-21" height="70.37037" width="111.11111" y="908.92592" x="89.62965" stroke="#2D2D2D" fill="#007fff"/>
  <rect id="36a4dc182e784b55850b1bda7c8a6fc1-ao-22" height="49.07407" width="144.44445" y="842.25925" x="54.44447" stroke="#2D2D2D" fill="#007fff"/>
  <rect id="36a4dc182e784b55850b1bda7c8a6fc1-ao-23" height="49.07407" width="131.48148" y="86.70368" x="1233.14819" stroke="#2D2D2D" fill="#007fff"/>
  <rect id="36a4dc182e784b55850b1bda7c8a6fc1-ao-24" height="75" width="80.55556" y="157.99998" x="1232.22226" stroke="#2D2D2D" fill="#007fff"/>
  <rect id="36a4dc182e784b55850b1bda7c8a6fc1-ao-25" height="28.7037" width="79.62963" y="238.55554" x="1231.29634" stroke="#2D2D2D" fill="#007fff"/>
  <rect id="36a4dc182e784b55850b1bda7c8a6fc1-ao-26" height="44.44445" width="68.51852" y="278.37035" x="1231.29634" stroke="#2D2D2D" fill="#FF7E7E" class="qshape"/>
  <rect id="36a4dc182e784b55850b1bda7c8a6fc1-ao-27" height="50" width="69.44445" y="219.11109" x="1342.40745" stroke="#2D2D2D" fill="#007fff"/>
  <rect id="36a4dc182e784b55850b1bda7c8a6fc1-ao-28" height="51.85185" width="150" y="351.5185" x="1233.14819" stroke="#2D2D2D" fill="#007fff"/>
  <rect id="36a4dc182e784b55850b1bda7c8a6fc1-ao-29" height="45.37037" width="129.62963" y="424.66665" x="1233.14819" stroke="#2D2D2D" fill="#007fff"/>
  <rect id="36a4dc182e784b55850b1bda7c8a6fc1-ao-30" height="50" width="136.11111" y="573.74073" x="1072.963" stroke="#2D2D2D" fill="#007fff"/>
  <rect id="36a4dc182e784b55850b1bda7c8a6fc1-ao-31" height="50" width="172.22222" y="570.03702" x="873.88892" stroke="#2D2D2D" fill="#007fff"/>
  <rect id="36a4dc182e784b55850b1bda7c8a6fc1-ao-32" height="47.22222" width="75.92593" y="180.2222" x="757.22226" stroke="#2D2D2D" fill="#007fff"/>
  <rect id="36a4dc182e784b55850b1bda7c8a6fc1-ao-33" height="47.22222" width="139.81482" y="672.8148" x="837.77781" stroke="#2D2D2D" fill="#007fff"/>
  <rect id="36a4dc182e784b55850b1bda7c8a6fc1-ao-34" height="50" width="85.18519" y="666.33332" x="1006.29633" stroke="#2D2D2D" fill="#007fff"/>
  <rect id="36a4dc182e784b55850b1bda7c8a6fc1-ao-35" height="60.18519" width="165.74074" y="762.62962" x="1235.00004" stroke="#2D2D2D" fill="#007fff"/>
  <rect id="36a4dc182e784b55850b1bda7c8a6fc1-ao-36" height="48.14815" width="81.48148" y="846.88888" x="1233.14819" stroke="#2D2D2D" fill="#007fff"/>
  <rect id="36a4dc182e784b55850b1bda7c8a6fc1-ao-37" height="25" width="87.03704" y="911.7037" x="1230.37041" stroke="#2D2D2D" fill="#007fff"/>
  <rect id="36a4dc182e784b55850b1bda7c8a6fc1-ao-38" height="53.7037" width="70.37037" y="860.77777" x="1340.5556" stroke="#2D2D2D" fill="#007fff"/>
  <rect id="36a4dc182e784b55850b1bda7c8a6fc1-ao-39" height="49.07407" width="141.66667" y="962.62962" x="1233.14819" stroke="#2D2D2D" fill="#007fff"/>
  <rect id="36a4dc182e784b55850b1bda7c8a6fc1-ao-40" height="45.37037" width="70.37037" y="885.77777" x="759.07411" stroke="#2D2D2D" fill="#007fff"/>
 </g>
</svg>