<svg xmlns="http://www.w3.org/2000/svg" width="1351" height="1503">
 <!-- Created with Image Occlusion Enhanced -->
 <g>
  <title>Labels</title>
 </g>
 <g>
  <title>Masks</title>
  <rect id="36eccf9058ff4f24b20ec4d1233ba735-ao-1" height="32.07547" width="101.88679" y="56.62259" x="382.39615" stroke="#2D2D2D" fill="#007fff"/>
  <rect id="36eccf9058ff4f24b20ec4d1233ba735-ao-2" height="27.35849" width="110.37735" y="61.33957" x="524.84898" stroke="#2D2D2D" fill="#007fff"/>
  <rect id="36eccf9058ff4f24b20ec4d1233ba735-ao-3" height="50" width="88.67924" y="35.86787" x="669.1886" stroke="#2D2D2D" fill="#007fff"/>
  <rect id="36eccf9058ff4f24b20ec4d1233ba735-ao-4" height="33.96226" width="126.41509" y="57.56599" x="797.49048" stroke="#2D2D2D" fill="#007fff"/>
  <rect id="36eccf9058ff4f24b20ec4d1233ba735-ao-5" height="50.94339" width="205.66037" y="179.26409" x="1122.01877" stroke="#2D2D2D" fill="#007fff"/>
  <rect id="36eccf9058ff4f24b20ec4d1233ba735-ao-6" height="48.11321" width="193.39622" y="243.41504" x="1122.01877" stroke="#2D2D2D" fill="#007fff"/>
  <rect id="36eccf9058ff4f24b20ec4d1233ba735-ao-7" height="24.5283" width="94.33962" y="310.39617" x="1118.24519" stroke="#2D2D2D" fill="#007fff"/>
  <rect id="36eccf9058ff4f24b20ec4d1233ba735-ao-8" height="21.69811" width="107.54717" y="356.62258" x="1124.84896" stroke="#2D2D2D" fill="#007fff"/>
  <rect id="36eccf9058ff4f24b20ec4d1233ba735-ao-9" height="41.50943" width="151.88679" y="394.35843" x="1103.15085" stroke="#2D2D2D" fill="#007fff"/>
  <rect id="36eccf9058ff4f24b20ec4d1233ba735-ao-10" height="28.30189" width="201.88679" y="460.39616" x="1078.62255" stroke="#2D2D2D" fill="#007fff"/>
  <rect id="36eccf9058ff4f24b20ec4d1233ba735-ao-11" height="24.5283" width="212.26414" y="501.90559" x="1080.50934" stroke="#2D2D2D" fill="#007fff"/>
  <rect id="36eccf9058ff4f24b20ec4d1233ba735-ao-12" height="46.22641" width="137.73584" y="540.58484" x="1078.62255" stroke="#2D2D2D" fill="#007fff"/>
  <rect id="36eccf9058ff4f24b20ec4d1233ba735-ao-13" height="24.5283" width="82.07547" y="605.67917" x="1077.67915" stroke="#2D2D2D" fill="#007fff"/>
  <rect id="36eccf9058ff4f24b20ec4d1233ba735-ao-14" height="50" width="107.54717" y="640.58483" x="1080.50934" stroke="#2D2D2D" fill="#007fff"/>
  <rect id="36eccf9058ff4f24b20ec4d1233ba735-ao-15" height="50" width="116.03773" y="706.62257" x="1081.45273" stroke="#2D2D2D" fill="#007fff"/>
  <rect id="36eccf9058ff4f24b20ec4d1233ba735-ao-16" height="49.0566" width="155.66037" y="775.49049" x="1080.50934" stroke="#2D2D2D" fill="#007fff"/>
  <rect id="36eccf9058ff4f24b20ec4d1233ba735-ao-17" height="43.39622" width="156.60377" y="840.58483" x="1079.56594" stroke="#2D2D2D" fill="#007fff"/>
  <rect id="36eccf9058ff4f24b20ec4d1233ba735-ao-18" height="46.22641" width="179.24528" y="900.01879" x="1080.50934" stroke="#2D2D2D" fill="#007fff"/>
  <rect id="36eccf9058ff4f24b20ec4d1233ba735-ao-19" height="46.22641" width="156.60377" y="965.11312" x="1078.62255" stroke="#2D2D2D" fill="#007fff"/>
  <rect id="36eccf9058ff4f24b20ec4d1233ba735-ao-20" height="47.16981" width="111.32075" y="1026.43388" x="1079.56594" stroke="#2D2D2D" fill="#007fff"/>
  <rect id="36eccf9058ff4f24b20ec4d1233ba735-ao-21" height="49.0566" width="116.98113" y="1188.69802" x="1052.20745" stroke="#2D2D2D" fill="#007fff"/>
  <rect id="36eccf9058ff4f24b20ec4d1233ba735-ao-22" height="51.88679" width="164.15094" y="1256.62255" x="978.62255" stroke="#2D2D2D" fill="#007fff"/>
  <rect id="36eccf9058ff4f24b20ec4d1233ba735-ao-23" height="26.41509" width="81.13207" y="1326.43387" x="982.39613" stroke="#2D2D2D" fill="#007fff"/>
  <rect id="36eccf9058ff4f24b20ec4d1233ba735-ao-24" height="50" width="112.26415" y="1321.71689" x="322.96219" stroke="#2D2D2D" fill="#007fff"/>
  <rect id="36eccf9058ff4f24b20ec4d1233ba735-ao-25" height="26.41509" width="161.32075" y="1158.50934" x="100.32069" stroke="#2D2D2D" fill="#007fff"/>
  <rect id="36eccf9058ff4f24b20ec4d1233ba735-ao-26" height="30.18868" width="159.43396" y="1098.13199" x="100.32069" stroke="#2D2D2D" fill="#007fff"/>
  <rect id="36eccf9058ff4f24b20ec4d1233ba735-ao-27" height="27.35849" width="166.98113" y="1043.41501" x="94.66031" stroke="#2D2D2D" fill="#007fff"/>
  <rect id="36eccf9058ff4f24b20ec4d1233ba735-ao-28" height="25.4717" width="176.41509" y="933.03765" x="66.35843" stroke="#2D2D2D" fill="#007fff"/>
  <rect id="36eccf9058ff4f24b20ec4d1233ba735-ao-29" height="28.30189" width="165.09433" y="874.54709" x="70.13201" stroke="#2D2D2D" fill="#007fff"/>
  <rect id="36eccf9058ff4f24b20ec4d1233ba735-ao-30" height="26.41509" width="157.54716" y="771.7169" x="80.50937" stroke="#2D2D2D" fill="#007fff"/>
  <rect id="36eccf9058ff4f24b20ec4d1233ba735-ao-31" height="26.41509" width="172.6415" y="722.6603" x="69.18862" stroke="#2D2D2D" fill="#007fff"/>
  <rect id="36eccf9058ff4f24b20ec4d1233ba735-ao-32" height="22.64151" width="182.07547" y="677.37728" x="57.86786" stroke="#2D2D2D" fill="#007fff"/>
  <rect id="36eccf9058ff4f24b20ec4d1233ba735-ao-33" height="26.41509" width="179.24528" y="635.86785" x="62.58484" stroke="#2D2D2D" fill="#FF7E7E" class="qshape"/>
  <rect id="36eccf9058ff4f24b20ec4d1233ba735-ao-34" height="24.5283" width="88.67924" y="589.64144" x="154.09427" stroke="#2D2D2D" fill="#007fff"/>
  <rect id="36eccf9058ff4f24b20ec4d1233ba735-ao-35" height="24.5283" width="174.5283" y="545.30182" x="59.75465" stroke="#2D2D2D" fill="#007fff"/>
  <rect id="36eccf9058ff4f24b20ec4d1233ba735-ao-36" height="26.41509" width="80.18868" y="500.0188" x="139.94333" stroke="#2D2D2D" fill="#007fff"/>
  <rect id="36eccf9058ff4f24b20ec4d1233ba735-ao-37" height="29.24528" width="125.47169" y="448.13201" x="87.11314" stroke="#2D2D2D" fill="#007fff"/>
  <rect id="36eccf9058ff4f24b20ec4d1233ba735-ao-38" height="27.35849" width="177.35848" y="409.45277" x="40.88673" stroke="#2D2D2D" fill="#007fff"/>
  <rect id="36eccf9058ff4f24b20ec4d1233ba735-ao-39" height="19.81132" width="91.50943" y="367.94333" x="125.79239" stroke="#2D2D2D" fill="#007fff"/>
  <rect id="36eccf9058ff4f24b20ec4d1233ba735-ao-40" height="27.35849" width="172.6415" y="324.54711" x="43.71692" stroke="#2D2D2D" fill="#007fff"/>
  <rect id="36eccf9058ff4f24b20ec4d1233ba735-ao-41" height="43.39622" width="131.13207" y="253.79239" x="82.39616" stroke="#2D2D2D" fill="#007fff"/>
  <rect id="36eccf9058ff4f24b20ec4d1233ba735-ao-42" height="49.0566" width="134.90566" y="181.15089" x="88.05654" stroke="#2D2D2D" fill="#007fff"/>
 </g>
</svg>