<svg xmlns="http://www.w3.org/2000/svg" width="1511" height="913">
 <!-- Created with Image Occlusion Enhanced -->
 <g>
  <title>Labels</title>
 </g>
 <g>
  <title>Masks</title>
  <rect id="3ca8725ed96143f8acfb5725b77ac4ea-ao-1" height="70.87379" width="202.91263" y="258.84463" x="48.22334" stroke="#2D2D2D" fill="#007fff"/>
  <rect id="3ca8725ed96143f8acfb5725b77ac4ea-ao-2" height="69.90291" width="182.52428" y="353.99027" x="60.8447" stroke="#2D2D2D" fill="#007fff"/>
  <rect id="3ca8725ed96143f8acfb5725b77ac4ea-ao-3" height="63.1068" width="163.1068" y="448.16503" x="70.55344" stroke="#2D2D2D" fill="#007fff"/>
  <rect id="3ca8725ed96143f8acfb5725b77ac4ea-ao-4" height="36.8932" width="114.56311" y="544.28153" x="112.30102" stroke="#2D2D2D" fill="#007fff"/>
  <rect id="3ca8725ed96143f8acfb5725b77ac4ea-ao-5" height="38.83495" width="173.78641" y="609.33008" x="58.90296" stroke="#2D2D2D" fill="#007fff"/>
  <rect id="3ca8725ed96143f8acfb5725b77ac4ea-ao-6" height="66.99029" width="200.00001" y="674.37863" x="144.33985" stroke="#2D2D2D" fill="#007fff"/>
  <rect id="3ca8725ed96143f8acfb5725b77ac4ea-ao-7" height="71.84466" width="143.68932" y="766.61164" x="296.76704" stroke="#2D2D2D" fill="#007fff"/>
  <rect id="3ca8725ed96143f8acfb5725b77ac4ea-ao-8" height="44.6602" width="286.40778" y="795.73785" x="1045.31075" stroke="#2D2D2D" fill="#007fff"/>
  <rect id="3ca8725ed96143f8acfb5725b77ac4ea-ao-9" height="72.81554" width="244.6602" y="698.65047" x="1133.66027" stroke="#2D2D2D" fill="#007fff"/>
  <rect id="3ca8725ed96143f8acfb5725b77ac4ea-ao-10" height="65.04855" width="230.09709" y="601.56309" x="1249.19425" stroke="#2D2D2D" fill="#007fff"/>
  <rect id="3ca8725ed96143f8acfb5725b77ac4ea-ao-11" height="64.07767" width="184.46602" y="508.3592" x="1252.10687" stroke="#2D2D2D" fill="#007fff"/>
  
  <rect id="3ca8725ed96143f8acfb5725b77ac4ea-ao-13" height="64.07767" width="187.37865" y="336.51454" x="1250.16513" stroke="#2D2D2D" fill="#007fff"/>
  <rect id="3ca8725ed96143f8acfb5725b77ac4ea-ao-14" height="68.93204" width="193.20389" y="211.27182" x="1250.16513" stroke="#2D2D2D" fill="#007fff"/>
  <rect id="3ca8725ed96143f8acfb5725b77ac4ea-ao-15" height="66.99029" width="129.12622" y="22.9223" x="910.35929" stroke="#2D2D2D" fill="#007fff"/>
  <rect id="3ca8725ed96143f8acfb5725b77ac4ea-ao-16" height="67.96117" width="196.11651" y="19.0388" x="638.51462" stroke="#2D2D2D" fill="#007fff"/>
  <rect id="3ca8725ed96143f8acfb5725b77ac4ea-ao-17" height="63.1068" width="195.14564" y="25.83492" x="388.02918" stroke="#2D2D2D" fill="#007fff"/>
 </g>
</svg>