<svg xmlns="http://www.w3.org/2000/svg" width="775" height="584">
 <!-- Created with Image Occlusion Enhanced -->
 <g>
  <title>Labels</title>
 </g>
 <g>
  <title>Masks</title>
  <rect id="446cdb182fe94d5d9b84176d32e29048-oa-1" height="27.72277" width="95.0495" y="93.4257" x="562.62376" stroke="#2D2D2D" fill="#FFEBA2"/>
  <rect id="446cdb182fe94d5d9b84176d32e29048-oa-2" height="34.65347" width="61.38614" y="138.97026" x="597.27723" stroke="#2D2D2D" fill="#FFEBA2"/>
  <rect id="446cdb182fe94d5d9b84176d32e29048-oa-3" height="15.84158" width="69.30693" y="183.52471" x="634.90099" stroke="#2D2D2D" fill="#FFEBA2"/>
  <rect id="446cdb182fe94d5d9b84176d32e29048-oa-4" height="15.84158" width="76.23762" y="211.24748" x="658.66337" stroke="#2D2D2D" fill="#FFEBA2"/>
  <rect id="446cdb182fe94d5d9b84176d32e29048-oa-5" height="19.80198" width="92.07921" y="238.97026" x="656.68317" stroke="#2D2D2D" fill="#FFEBA2"/>
  <rect id="446cdb182fe94d5d9b84176d32e29048-oa-6" height="13.86139" width="112.87129" y="263.72273" x="661.63366" stroke="#2D2D2D" fill="#FFEBA2"/>
  <rect id="446cdb182fe94d5d9b84176d32e29048-oa-7" height="17.82178" width="102.9703" y="290.45541" x="661.63366" stroke="#2D2D2D" fill="#FFEBA2"/>
  <rect id="446cdb182fe94d5d9b84176d32e29048-oa-8" height="22.77228" width="92.07921" y="318.17818" x="662.62376" stroke="#2D2D2D" fill="#FFEBA2"/>
  <rect id="446cdb182fe94d5d9b84176d32e29048-oa-9" height="10.89109" width="108.91089" y="351.84154" x="661.63366" stroke="#2D2D2D" fill="#FFEBA2"/>
  <rect id="446cdb182fe94d5d9b84176d32e29048-oa-10" height="12.87129" width="94.05941" y="378.57422" x="657.67327" stroke="#2D2D2D" fill="#FFEBA2"/>
  <rect id="446cdb182fe94d5d9b84176d32e29048-oa-11" height="13.86139" width="58.41584" y="403.32669" x="659.65347" stroke="#2D2D2D" fill="#FFEBA2"/>
  <rect id="446cdb182fe94d5d9b84176d32e29048-oa-12" height="30.69307" width="83.16832" y="433.02966" x="662.62376" stroke="#2D2D2D" fill="#FFEBA2"/>
  <rect id="446cdb182fe94d5d9b84176d32e29048-oa-13" height="22.77228" width="60.39604" y="146.89105" x="95.29703" stroke="#2D2D2D" fill="#FFEBA2"/>
  <rect id="446cdb182fe94d5d9b84176d32e29048-oa-14" height="15.84158" width="58.41584" y="183.52471" x="67.57426" stroke="#2D2D2D" fill="#FFEBA2"/>
  <rect id="446cdb182fe94d5d9b84176d32e29048-oa-15" height="27.72277" width="100.9901" y="207.28709" x="14.10891" stroke="#2D2D2D" fill="#FFEBA2"/>
  <rect id="446cdb182fe94d5d9b84176d32e29048-oa-16" height="20.79208" width="96.0396" y="245.90095" x="26.9802" stroke="#2D2D2D" fill="#FFEBA2"/>
  <rect id="446cdb182fe94d5d9b84176d32e29048-oa-17" height="16.83168" width="101.9802" y="278.57422" x="22.0297" stroke="#2D2D2D" fill="#FFEBA2"/>
  <rect id="446cdb182fe94d5d9b84176d32e29048-oa-18" height="16.83168" width="84.15842" y="309.26729" x="31.93069" stroke="#2D2D2D" fill="#FFEBA2"/>
  <rect id="446cdb182fe94d5d9b84176d32e29048-oa-19" height="27.72277" width="71.28713" y="335.00986" x="43.81188" stroke="#2D2D2D" fill="#FFEBA2"/>
  <rect id="446cdb182fe94d5d9b84176d32e29048-oa-20" height="18.81188" width="68.31683" y="373.62372" x="54.70297" stroke="#2D2D2D" fill="#FFEBA2"/>
  <rect id="446cdb182fe94d5d9b84176d32e29048-oa-21" height="11.88119" width="51.48515" y="405.30689" x="58.66337" stroke="#2D2D2D" fill="#FFEBA2"/>
 </g>
</svg>