<svg xmlns="http://www.w3.org/2000/svg" width="1599" height="1438">
 <!-- Created with Image Occlusion Enhanced -->
 <g>
  <title>Labels</title>
 </g>
 <g>
  <title>Masks</title>
  <rect id="46b29b2b7e5f44eaa586be50588ca3b3-ao-1" height="56.09756" width="106.09756" y="401.26824" x="160.02431" stroke="#2D2D2D" fill="#007fff"/>
  <rect id="46b29b2b7e5f44eaa586be50588ca3b3-ao-2" height="46.34146" width="128.04878" y="475.65848" x="128.31699" stroke="#2D2D2D" fill="#007fff"/>
  <rect id="46b29b2b7e5f44eaa586be50588ca3b3-ao-3" height="43.90244" width="112.19512" y="541.51214" x="153.92675" stroke="#2D2D2D" fill="#007fff"/>
  <rect id="46b29b2b7e5f44eaa586be50588ca3b3-ao-4" height="31.70732" width="102.43902" y="607.36579" x="153.92675" stroke="#2D2D2D" fill="#FF7E7E" class="qshape"/>
  <rect id="46b29b2b7e5f44eaa586be50588ca3b3-ao-5" height="51.21951" width="112.19512" y="653.70726" x="141.73163" stroke="#2D2D2D" fill="#007fff"/>
  <rect id="46b29b2b7e5f44eaa586be50588ca3b3-ao-6" height="29.26829" width="115.85366" y="829.31701" x="145.39016" stroke="#2D2D2D" fill="#007fff"/>
  <rect id="46b29b2b7e5f44eaa586be50588ca3b3-ao-7" height="47.56097" width="82.92683" y="881.75603" x="178.31699" stroke="#2D2D2D" fill="#007fff"/>
  <rect id="46b29b2b7e5f44eaa586be50588ca3b3-ao-8" height="46.34146" width="81.70731" y="951.26822" x="179.53651" stroke="#2D2D2D" fill="#007fff"/>
  <rect id="46b29b2b7e5f44eaa586be50588ca3b3-ao-9" height="34.14634" width="107.31707" y="1019.5609" x="141.73163" stroke="#2D2D2D" fill="#007fff"/>
  <rect id="46b29b2b7e5f44eaa586be50588ca3b3-ao-10" height="25.60976" width="58.53658" y="1071.99993" x="195.39016" stroke="#2D2D2D" fill="#007fff"/>
  <rect id="46b29b2b7e5f44eaa586be50588ca3b3-ao-11" height="32.92683" width="90.2439" y="1123.21944" x="161.24382" stroke="#2D2D2D" fill="#007fff"/>
  <rect id="46b29b2b7e5f44eaa586be50588ca3b3-ao-12" height="46.34146" width="89.02439" y="1258.58529" x="289.2926" stroke="#2D2D2D" fill="#007fff"/>
  <rect id="46b29b2b7e5f44eaa586be50588ca3b3-ao-13" height="58.53658" width="96.34146" y="1318.34138" x="420.99991" stroke="#2D2D2D" fill="#007fff"/>
  <rect id="46b29b2b7e5f44eaa586be50588ca3b3-ao-14" height="20.73171" width="124.39024" y="1385.41455" x="514.90235" stroke="#2D2D2D" fill="#007fff"/>
  <rect id="46b29b2b7e5f44eaa586be50588ca3b3-ao-15" height="20.73171" width="140.2439" y="1384.19504" x="672.21942" stroke="#2D2D2D" fill="#007fff"/>
  <rect id="46b29b2b7e5f44eaa586be50588ca3b3-ao-16" height="25.60976" width="86.58536" y="1380.5365" x="846.60966" stroke="#2D2D2D" fill="#007fff"/>
  <rect id="46b29b2b7e5f44eaa586be50588ca3b3-ao-17" height="24.39024" width="112.19512" y="1193.95114" x="1319.78037" stroke="#2D2D2D" fill="#007fff"/>
  <rect id="46b29b2b7e5f44eaa586be50588ca3b3-ao-18" height="24.39024" width="82.92683" y="1128.09749" x="1328.31696" stroke="#2D2D2D" fill="#007fff"/>
  <rect id="46b29b2b7e5f44eaa586be50588ca3b3-ao-19" height="48.78049" width="143.90243" y="1043.95115" x="1318.56086" stroke="#2D2D2D" fill="#007fff"/>
  <rect id="46b29b2b7e5f44eaa586be50588ca3b3-ao-20" height="46.34146" width="143.90243" y="978.09749" x="1322.2194" stroke="#2D2D2D" fill="#007fff"/>
  <rect id="46b29b2b7e5f44eaa586be50588ca3b3-ao-21" height="30.4878" width="117.07317" y="926.87798" x="1349.04867" stroke="#2D2D2D" fill="#007fff"/>
  <rect id="46b29b2b7e5f44eaa586be50588ca3b3-ao-22" height="26.82927" width="84.14634" y="878.09749" x="1346.60964" stroke="#2D2D2D" fill="#007fff"/>
  <rect id="46b29b2b7e5f44eaa586be50588ca3b3-ao-23" height="51.21951" width="100" y="807.36579" x="1363.68281" stroke="#2D2D2D" fill="#007fff"/>
  <rect id="46b29b2b7e5f44eaa586be50588ca3b3-ao-24" height="29.26829" width="69.51219" y="765.90238" x="1396.60964" stroke="#2D2D2D" fill="#007fff"/>
  <rect id="46b29b2b7e5f44eaa586be50588ca3b3-ao-25" height="52.43902" width="98.78048" y="695.17067" x="1396.60964" stroke="#2D2D2D" fill="#007fff"/>
  <rect id="46b29b2b7e5f44eaa586be50588ca3b3-ao-26" height="32.92683" width="84.14634" y="645.17067" x="1392.9511" stroke="#2D2D2D" fill="#007fff"/>
  <rect id="46b29b2b7e5f44eaa586be50588ca3b3-ao-27" height="54.87805" width="108.53658" y="408.58531" x="1385.63403" stroke="#2D2D2D" fill="#007fff"/>
 </g>
</svg>