<svg xmlns="http://www.w3.org/2000/svg" width="1492" height="1692.0000000000002">
 <!-- Created with Image Occlusion Enhanced -->
 <g>
  <title>Labels</title>
 </g>
 <g>
  <title>Masks</title>
  <rect id="4d6411f0f2214bfa9a3208c95ce3dd0c-ao-1" height="27.94118" width="119.11765" y="304.17634" x="281.52942" stroke="#2D2D2D" fill="#007fff"/>
  <rect id="4d6411f0f2214bfa9a3208c95ce3dd0c-ao-2" height="26.47059" width="108.82353" y="249.76458" x="515.35295" stroke="#2D2D2D" fill="#007fff"/>
  
  <rect id="4d6411f0f2214bfa9a3208c95ce3dd0c-ao-4" height="51.47059" width="91.17647" y="195.35281" x="784.47059" stroke="#2D2D2D" fill="#007fff"/>
  <rect id="4d6411f0f2214bfa9a3208c95ce3dd0c-ao-5" height="60.29412" width="92.64706" y="186.52928" x="924.17648" stroke="#2D2D2D" fill="#007fff"/>
  <rect id="4d6411f0f2214bfa9a3208c95ce3dd0c-ao-6" height="20.58824" width="77.94118" y="251.23516" x="1094.76471" stroke="#2D2D2D" fill="#007fff"/>
  <rect id="4d6411f0f2214bfa9a3208c95ce3dd0c-ao-7" height="27.94118" width="91.17647" y="840.94105" x="1171.2353" stroke="#2D2D2D" fill="#007fff"/>
  <rect id="4d6411f0f2214bfa9a3208c95ce3dd0c-ao-8" height="30.88235" width="80.88235" y="874.76458" x="1049.17648" stroke="#2D2D2D" fill="#007fff"/>
  <rect id="4d6411f0f2214bfa9a3208c95ce3dd0c-ao-9" height="54.41176" width="80.88235" y="898.29399" x="915.35295" stroke="#2D2D2D" fill="#007fff"/>
  <rect id="4d6411f0f2214bfa9a3208c95ce3dd0c-ao-10" height="47.05882" width="69.11765" y="902.70575" x="794.76471" stroke="#2D2D2D" fill="#007fff"/>
  <rect id="4d6411f0f2214bfa9a3208c95ce3dd0c-ao-11" height="55.88235" width="75" y="893.88222" x="665.35295" stroke="#2D2D2D" fill="#007fff"/>
  <rect id="4d6411f0f2214bfa9a3208c95ce3dd0c-ao-12" height="33.82353" width="104.41176" y="964.47046" x="422.70589" stroke="#2D2D2D" fill="#007fff"/>
  <rect id="4d6411f0f2214bfa9a3208c95ce3dd0c-ao-13" height="50" width="85.29412" y="1108.58811" x="203.58824" stroke="#2D2D2D" fill="#007fff"/>
  <rect id="4d6411f0f2214bfa9a3208c95ce3dd0c-ao-14" height="52.94118" width="94.11765" y="1212.99987" x="146.2353" stroke="#2D2D2D" fill="#007fff"/>
  <rect id="4d6411f0f2214bfa9a3208c95ce3dd0c-ao-15" height="66.17647" width="114.70588" y="1564.47046" x="308" stroke="#2D2D2D" fill="#007fff"/>
  <rect id="4d6411f0f2214bfa9a3208c95ce3dd0c-ao-16" height="57.35294" width="95.58824" y="1614.47046" x="456.52942" stroke="#2D2D2D" fill="#007fff"/>
  <rect id="4d6411f0f2214bfa9a3208c95ce3dd0c-ao-17" height="27.94118" width="111.76471" y="1636.52928" x="583" stroke="#2D2D2D" fill="#007fff"/>
  <rect id="4d6411f0f2214bfa9a3208c95ce3dd0c-ao-18" height="48.52941" width="88.23529" y="1592.41164" x="741.82353" stroke="#2D2D2D" fill="#007fff"/>
  <rect id="4d6411f0f2214bfa9a3208c95ce3dd0c-ao-19" height="27.94118" width="97.05882" y="1611.52928" x="856.52942" stroke="#2D2D2D" fill="#007fff"/>
  <rect id="4d6411f0f2214bfa9a3208c95ce3dd0c-ao-20" height="54.41176" width="122.05882" y="1590.94105" x="1006.52942" stroke="#2D2D2D" fill="#007fff"/>
  <rect id="4d6411f0f2214bfa9a3208c95ce3dd0c-ao-21" height="50" width="79.41176" y="1570.35281" x="1172.70589" stroke="#2D2D2D" fill="#007fff"/>
 </g>
</svg>