<svg xmlns="http://www.w3.org/2000/svg" width="1600" height="1503">
 <!-- Created with Image Occlusion Enhanced -->
 <g>
  <title>Labels</title>
 </g>
 <g>
  <title>Masks</title>
  <rect id="503a83b7bcc5441e9a1e9ace8afdce2a-ao-1" height="49.33333" width="137.33333" y="58.33333" x="560" stroke="#2D2D2D" fill="#007fff"/>
  <rect id="503a83b7bcc5441e9a1e9ace8afdce2a-ao-2" height="42.66667" width="85.33333" y="41" x="742.66667" stroke="#2D2D2D" fill="#007fff"/>
  <rect id="503a83b7bcc5441e9a1e9ace8afdce2a-ao-3" height="53.33333" width="128" y="53" x="872" stroke="#2D2D2D" fill="#007fff"/>
  <rect id="503a83b7bcc5441e9a1e9ace8afdce2a-ao-4" height="24" width="73.33333" y="155.66667" x="1032" stroke="#2D2D2D" fill="#007fff"/>
  <rect id="503a83b7bcc5441e9a1e9ace8afdce2a-ao-5" height="62.66667" width="169.33333" y="219.66667" x="1184" stroke="#2D2D2D" fill="#007fff"/>
  <rect id="503a83b7bcc5441e9a1e9ace8afdce2a-ao-6" height="29.33333" width="76" y="309" x="1264" stroke="#2D2D2D" fill="#007fff"/>
  <rect id="503a83b7bcc5441e9a1e9ace8afdce2a-ao-7" height="58.66667" width="156" y="373" x="1286.66667" stroke="#2D2D2D" fill="#007fff"/>
  <rect id="503a83b7bcc5441e9a1e9ace8afdce2a-ao-8" height="50.66667" width="138.66667" y="450.33333" x="1288" stroke="#2D2D2D" fill="#007fff"/>
  <rect id="503a83b7bcc5441e9a1e9ace8afdce2a-ao-9" height="48" width="113.33333" y="546.33333" x="1288" stroke="#2D2D2D" fill="#007fff"/>
  <rect id="503a83b7bcc5441e9a1e9ace8afdce2a-ao-10" height="26.66667" width="110.66667" y="635.66667" x="1293.33333" stroke="#2D2D2D" fill="#007fff"/>
  <rect id="503a83b7bcc5441e9a1e9ace8afdce2a-ao-11" height="49.33333" width="112" y="682.33333" x="1286.66667" stroke="#2D2D2D" fill="#007fff"/>
  <rect id="503a83b7bcc5441e9a1e9ace8afdce2a-ao-12" height="48" width="112" y="746.33333" x="1290.66667" stroke="#2D2D2D" fill="#007fff"/>
  <rect id="503a83b7bcc5441e9a1e9ace8afdce2a-ao-13" height="22.66667" width="126.66667" y="818.33333" x="1290.66667" stroke="#2D2D2D" fill="#007fff"/>
  <rect id="503a83b7bcc5441e9a1e9ace8afdce2a-ao-14" height="26.66667" width="172" y="862.33333" x="1286.66667" stroke="#2D2D2D" fill="#007fff"/>
  <rect id="503a83b7bcc5441e9a1e9ace8afdce2a-ao-15" height="30.66667" width="162.66667" y="903.66667" x="1285.33333" stroke="#2D2D2D" fill="#007fff"/>
  <rect id="503a83b7bcc5441e9a1e9ace8afdce2a-ao-16" height="24" width="160" y="950.33333" x="1289.33333" stroke="#2D2D2D" fill="#007fff"/>
  <rect id="503a83b7bcc5441e9a1e9ace8afdce2a-ao-17" height="24" width="152" y="999.66667" x="1290.66667" stroke="#2D2D2D" fill="#007fff"/>
  <rect id="503a83b7bcc5441e9a1e9ace8afdce2a-ao-18" height="52" width="114.66667" y="1062.33333" x="1288" stroke="#2D2D2D" fill="#007fff"/>
  <rect id="503a83b7bcc5441e9a1e9ace8afdce2a-ao-19" height="30.66667" width="104" y="1202.33333" x="1264" stroke="#2D2D2D" fill="#007fff"/>
  <rect id="503a83b7bcc5441e9a1e9ace8afdce2a-ao-20" height="29.33333" width="114.66667" y="1294.33333" x="1241.33333" stroke="#2D2D2D" fill="#007fff"/>
  <rect id="503a83b7bcc5441e9a1e9ace8afdce2a-ao-21" height="52" width="153.33333" y="1381" x="1172" stroke="#2D2D2D" fill="#007fff"/>
  <rect id="503a83b7bcc5441e9a1e9ace8afdce2a-ao-22" height="48" width="129.33333" y="1419.66667" x="304" stroke="#2D2D2D" fill="#007fff"/>
  <rect id="503a83b7bcc5441e9a1e9ace8afdce2a-ao-23" height="53.33333" width="121.33333" y="1321" x="236" stroke="#2D2D2D" fill="#007fff"/>
  <rect id="503a83b7bcc5441e9a1e9ace8afdce2a-ao-24" height="53.33333" width="121.33333" y="1205" x="184" stroke="#2D2D2D" fill="#007fff"/>
  <rect id="503a83b7bcc5441e9a1e9ace8afdce2a-ao-25" height="32" width="156" y="1050.33333" x="128" stroke="#2D2D2D" fill="#007fff"/>
  <rect id="503a83b7bcc5441e9a1e9ace8afdce2a-ao-26" height="57.33333" width="113.33333" y="967.66667" x="174.66667" stroke="#2D2D2D" fill="#007fff"/>
  <rect id="503a83b7bcc5441e9a1e9ace8afdce2a-ao-27" height="50.66667" width="158.66667" y="903.66667" x="125.33333" stroke="#2D2D2D" fill="#007fff"/>
  <rect id="503a83b7bcc5441e9a1e9ace8afdce2a-ao-28" height="29.33333" width="148" y="858.33333" x="130.66667" stroke="#2D2D2D" fill="#007fff"/>
  <rect id="503a83b7bcc5441e9a1e9ace8afdce2a-ao-29" height="25.33333" width="140" y="818.33333" x="140" stroke="#2D2D2D" fill="#007fff"/>
  <rect id="503a83b7bcc5441e9a1e9ace8afdce2a-ao-30" height="32" width="142.66667" y="766.33333" x="134.66667" stroke="#2D2D2D" fill="#007fff"/>
  <rect id="503a83b7bcc5441e9a1e9ace8afdce2a-ao-31" height="25.33333" width="164" y="723.66667" x="120" stroke="#2D2D2D" fill="#007fff"/>
  <rect id="503a83b7bcc5441e9a1e9ace8afdce2a-ao-32" height="24" width="125.33333" y="681" x="153.33333" stroke="#2D2D2D" fill="#007fff"/>
  <rect id="503a83b7bcc5441e9a1e9ace8afdce2a-ao-33" height="46.66667" width="161.33333" y="613" x="114.66667" stroke="#2D2D2D" fill="#007fff"/>
  <rect id="503a83b7bcc5441e9a1e9ace8afdce2a-ao-34" height="45.33333" width="169.33333" y="546.33333" x="113.33333" stroke="#2D2D2D" fill="#007fff"/>
  <rect id="503a83b7bcc5441e9a1e9ace8afdce2a-ao-35" height="20" width="58.66667" y="502.33333" x="224" stroke="#2D2D2D" fill="#007fff"/>
  <rect id="503a83b7bcc5441e9a1e9ace8afdce2a-ao-36" height="52" width="165.33333" y="429" x="121.33333" stroke="#2D2D2D" fill="#007fff"/>
  <rect id="503a83b7bcc5441e9a1e9ace8afdce2a-ao-37" height="56" width="152" y="354.33333" x="138.66667" stroke="#2D2D2D" fill="#FF7E7E" class="qshape"/>
  <rect id="503a83b7bcc5441e9a1e9ace8afdce2a-ao-38" height="24" width="110.66667" y="301" x="194.66667" stroke="#2D2D2D" fill="#007fff"/>
  <rect id="503a83b7bcc5441e9a1e9ace8afdce2a-ao-39" height="57.33333" width="126.66667" y="221" x="274.66667" stroke="#2D2D2D" fill="#007fff"/>
 </g>
</svg>