<svg xmlns="http://www.w3.org/2000/svg" width="787" height="786">
 <!-- Created with Image Occlusion Enhanced -->
 <g>
  <title>Labels</title>
 </g>
 <g>
  <title>Masks</title>
  <rect id="59c7452df0c04a2e8b16ed72889723ef-oa-1" height="18.66667" width="85.33333" y="173.46667" x="102.33333" stroke="#2D2D2D" fill="#FFEBA2"/>
  <rect id="59c7452df0c04a2e8b16ed72889723ef-oa-2" height="26.66667" width="76" y="129.46667" x="155.66667" stroke="#2D2D2D" fill="#FFEBA2"/>
  <rect id="59c7452df0c04a2e8b16ed72889723ef-oa-3" height="33.33333" width="66.66667" y="116.13333" x="246.33333" stroke="#2D2D2D" fill="#FFEBA2"/>
  <rect id="59c7452df0c04a2e8b16ed72889723ef-oa-4" height="33.33333" width="57.33333" y="116.13333" x="345" stroke="#2D2D2D" fill="#FFEBA2"/>
  <rect id="59c7452df0c04a2e8b16ed72889723ef-oa-5" height="46.66667" width="109.33333" y="106.8" x="433" stroke="#2D2D2D" fill="#FFEBA2"/>
  <rect id="59c7452df0c04a2e8b16ed72889723ef-oa-6" height="41.33333" width="82.66667" y="117.46667" x="565" stroke="#2D2D2D" fill="#FFEBA2"/>
  <rect id="59c7452df0c04a2e8b16ed72889723ef-oa-7" height="22.66667" width="112" y="173.46667" x="614.33333" stroke="#2D2D2D" fill="#FFEBA2"/>
  <rect id="59c7452df0c04a2e8b16ed72889723ef-oa-8" height="13.33333" width="90.66667" y="218.8" x="646.33333" stroke="#2D2D2D" fill="#FFEBA2"/>
  <rect id="59c7452df0c04a2e8b16ed72889723ef-oa-9" height="30.66667" width="73.33333" y="256.13333" x="685" stroke="#2D2D2D" fill="#FFEBA2"/>
  <rect id="59c7452df0c04a2e8b16ed72889723ef-oa-10" height="33.33333" width="77.33333" y="309.46667" x="690.33333" stroke="#2D2D2D" fill="#FFEBA2"/>
  <rect id="59c7452df0c04a2e8b16ed72889723ef-oa-11" height="41.33333" width="69.33333" y="448.13333" x="591.66667" stroke="#2D2D2D" fill="#FFEBA2"/>
  <rect id="59c7452df0c04a2e8b16ed72889723ef-oa-12" height="36" width="64" y="517.46667" x="433" stroke="#2D2D2D" fill="#FFEBA2"/>
  <rect id="59c7452df0c04a2e8b16ed72889723ef-oa-13" height="54.66667" width="76" y="586.8" x="433" stroke="#2D2D2D" fill="#FFEBA2"/>
  <rect id="59c7452df0c04a2e8b16ed72889723ef-oa-14" height="54.66667" width="96" y="505.46667" x="591.66667" stroke="#2D2D2D" fill="#FFEBA2"/>
  <rect id="59c7452df0c04a2e8b16ed72889723ef-oa-15" height="50.66667" width="70.66667" y="501.46667" x="699.66667" stroke="#2D2D2D" fill="#FFEBA2"/>
  <rect id="59c7452df0c04a2e8b16ed72889723ef-oa-16" height="29.33333" width="74.66667" y="578.8" x="594.33333" stroke="#2D2D2D" fill="#FFEBA2"/>
  <rect id="59c7452df0c04a2e8b16ed72889723ef-oa-17" height="32" width="68" y="656.13333" x="150.33333" stroke="#2D2D2D" fill="#FFEBA2"/>
  <rect id="59c7452df0c04a2e8b16ed72889723ef-oa-18" height="45.33333" width="81.33333" y="698.8" x="221" stroke="#2D2D2D" fill="#FFEBA2"/>
  <rect id="59c7452df0c04a2e8b16ed72889723ef-oa-19" height="18.66667" width="109.33333" y="672.13333" x="481" stroke="#2D2D2D" fill="#FFEBA2"/>
  <rect id="59c7452df0c04a2e8b16ed72889723ef-oa-20" height="32" width="110.66667" y="712.13333" x="491.66667" stroke="#2D2D2D" fill="#FFEBA2"/>
 </g>
</svg>