<svg xmlns="http://www.w3.org/2000/svg" width="1411" height="607">
 <!-- Created with Image Occlusion Enhanced -->
 <g>
  <title>Labels</title>
 </g>
 <g>
  <title>Masks</title>
  <rect id="5b6b30a2ae1f43deb8cb8cc5a527181d-ao-1" height="69.79167" width="173.95834" y="59.6667" x="552.95823" stroke="#2D2D2D" fill="#aaaaff"/>
  <rect id="5b6b30a2ae1f43deb8cb8cc5a527181d-ao-2" height="51.04167" width="142.70834" y="143.00004" x="555.04157" stroke="#2D2D2D" fill="#aaaaff"/>
  <rect id="5b6b30a2ae1f43deb8cb8cc5a527181d-ao-3" height="21.875" width="131.25001" y="208.62504" x="555.04157" stroke="#2D2D2D" fill="#aaaaff"/>
  <rect id="5b6b30a2ae1f43deb8cb8cc5a527181d-ao-4" height="47.91667" width="142.70834" y="247.16671" x="553.9999" stroke="#2D2D2D" fill="#aaaaff"/>
  <rect id="5b6b30a2ae1f43deb8cb8cc5a527181d-ao-5" height="25" width="137.50001" y="309.66671" x="552.95823" stroke="#2D2D2D" fill="#aaaaff"/>
  <rect id="5b6b30a2ae1f43deb8cb8cc5a527181d-ao-6" height="48.95834" width="161.45834" y="353.41671" x="552.95823" stroke="#2D2D2D" fill="#FF7E7E" class="qshape"/>
  <rect id="5b6b30a2ae1f43deb8cb8cc5a527181d-ao-7" height="69.79167" width="179.16668" y="418.00005" x="552.95823" stroke="#2D2D2D" fill="#aaaaff"/>
  <rect id="5b6b30a2ae1f43deb8cb8cc5a527181d-ao-8" height="28.125" width="131.25001" y="503.41672" x="553.9999" stroke="#2D2D2D" fill="#aaaaff"/>
  <rect id="5b6b30a2ae1f43deb8cb8cc5a527181d-ao-9" height="22.91667" width="103.12501" y="565.91673" x="400.87489" stroke="#2D2D2D" fill="#aaaaff"/>
  <rect id="5b6b30a2ae1f43deb8cb8cc5a527181d-ao-10" height="23.95833" width="141.66667" y="566.95839" x="220.66655" stroke="#2D2D2D" fill="#aaaaff"/>
  <rect id="5b6b30a2ae1f43deb8cb8cc5a527181d-ao-11" height="42.70834" width="73.95834" y="480.50005" x="186.29155" stroke="#2D2D2D" fill="#aaaaff"/>
  <rect id="5b6b30a2ae1f43deb8cb8cc5a527181d-ao-12" height="38.54167" width="94.79167" y="54.45837" x="786.29158" stroke="#2D2D2D" fill="#aaaaff"/>
  <rect id="5b6b30a2ae1f43deb8cb8cc5a527181d-ao-13" height="29.16667" width="204.16668" y="55.50003" x="908.16659" stroke="#2D2D2D" fill="#aaaaff"/>
  <rect id="5b6b30a2ae1f43deb8cb8cc5a527181d-ao-14" height="30.20833" width="187.50001" y="73.20837" x="1140.45826" stroke="#2D2D2D" fill="#aaaaff"/>
  <rect id="5b6b30a2ae1f43deb8cb8cc5a527181d-ao-15" height="25" width="252.08335" y="118.00004" x="1140.45826" stroke="#2D2D2D" fill="#aaaaff"/>
  <rect id="5b6b30a2ae1f43deb8cb8cc5a527181d-ao-16" height="27.08333" width="237.50001" y="155.50004" x="1136.2916" stroke="#2D2D2D" fill="#aaaaff"/>
  <rect id="5b6b30a2ae1f43deb8cb8cc5a527181d-ao-17" height="51.04167" width="266.66668" y="202.37504" x="1141.49993" stroke="#2D2D2D" fill="#aaaaff"/>
  <rect id="5b6b30a2ae1f43deb8cb8cc5a527181d-ao-18" height="26.04167" width="237.50001" y="266.95838" x="1140.45826" stroke="#2D2D2D" fill="#aaaaff"/>
  <rect id="5b6b30a2ae1f43deb8cb8cc5a527181d-ao-19" height="42.70834" width="254.16668" y="310.70838" x="1144.62493" stroke="#2D2D2D" fill="#aaaaff"/>
  <rect id="5b6b30a2ae1f43deb8cb8cc5a527181d-ao-20" height="25" width="197.91668" y="372.16672" x="1140.45826" stroke="#2D2D2D" fill="#aaaaff"/>
  <rect id="5b6b30a2ae1f43deb8cb8cc5a527181d-ao-21" height="40.625" width="192.70834" y="413.83338" x="1140.45826" stroke="#2D2D2D" fill="#aaaaff"/>
  <rect id="5b6b30a2ae1f43deb8cb8cc5a527181d-ao-22" height="26.04167" width="143.75001" y="475.29172" x="1146.70826" stroke="#2D2D2D" fill="#aaaaff"/>
  <rect id="5b6b30a2ae1f43deb8cb8cc5a527181d-ao-23" height="22.91667" width="91.66667" y="566.95839" x="1002.95826" stroke="#2D2D2D" fill="#aaaaff"/>
  <rect id="5b6b30a2ae1f43deb8cb8cc5a527181d-ao-24" height="30.20833" width="133.33334" y="565.91673" x="809.20825" stroke="#2D2D2D" fill="#aaaaff"/>
 </g>
</svg>