<svg xmlns="http://www.w3.org/2000/svg" width="1452" height="931">
 <!-- Created with Image Occlusion Enhanced -->
 <g>
  <title>Labels</title>
 </g>
 <g>
  <title>Masks</title>
  <rect id="5df84416618a4c4c97c1905de84b1db2-ao-1" height="55.55555" width="85.71428" y="122.96819" x="194.34919" stroke="#2D2D2D" fill="#007fff"/>
  <rect id="5df84416618a4c4c97c1905de84b1db2-ao-2" height="31.74603" width="126.98413" y="202.33327" x="124.50792" stroke="#2D2D2D" fill="#007fff"/>
  <rect id="5df84416618a4c4c97c1905de84b1db2-ao-3" height="47.61905" width="193.65079" y="251.53962" x="38.79363" stroke="#2D2D2D" fill="#007fff"/>
  <rect id="5df84416618a4c4c97c1905de84b1db2-ao-4" height="33.33333" width="158.73016" y="322.96819" x="73.71427" stroke="#2D2D2D" fill="#007fff"/>
  <rect id="5df84416618a4c4c97c1905de84b1db2-ao-5" height="31.74603" width="157.14286" y="376.93644" x="68.95236" stroke="#2D2D2D" fill="#007fff"/>
  <rect id="5df84416618a4c4c97c1905de84b1db2-ao-6" height="26.98413" width="185.71428" y="434.0793" x="53.07935" stroke="#2D2D2D" fill="#007fff"/>
  <rect id="5df84416618a4c4c97c1905de84b1db2-ao-7" height="53.96825" width="161.90476" y="481.69834" x="78.47617" stroke="#2D2D2D" fill="#007fff"/>
  <rect id="5df84416618a4c4c97c1905de84b1db2-ao-8" height="26.98413" width="82.53968" y="554.71422" x="149.90474" stroke="#2D2D2D" fill="#007fff"/>
  <rect id="5df84416618a4c4c97c1905de84b1db2-ao-9" height="31.74603" width="111.11111" y="599.15866" x="124.50792" stroke="#2D2D2D" fill="#007fff"/>
  <rect id="5df84416618a4c4c97c1905de84b1db2-ao-10" height="61.90476" width="123.80952" y="40.42851" x="1054.66664" stroke="#2D2D2D" fill="#007fff"/>
  <rect id="5df84416618a4c4c97c1905de84b1db2-ao-11" height="47.61905" width="109.52381" y="129.31739" x="1105.46029" stroke="#2D2D2D" fill="#007fff"/>
  <rect id="5df84416618a4c4c97c1905de84b1db2-ao-12" height="25.39683" width="107.93651" y="203.92057" x="1156.25394" stroke="#2D2D2D" fill="#007fff"/>
  <rect id="5df84416618a4c4c97c1905de84b1db2-ao-13" height="31.74603" width="117.46032" y="249.95231" x="1207.04759" stroke="#2D2D2D" fill="#007fff"/>
  <rect id="5df84416618a4c4c97c1905de84b1db2-ao-14" height="31.74603" width="144.44444" y="294.39676" x="1207.04759" stroke="#2D2D2D" fill="#007fff"/>
  <rect id="5df84416618a4c4c97c1905de84b1db2-ao-15" height="25.39683" width="193.65079" y="348.36501" x="1205.46029" stroke="#2D2D2D" fill="#007fff"/>
  <rect id="5df84416618a4c4c97c1905de84b1db2-ao-16" height="25.39683" width="173.01587" y="402.33326" x="1208.63489" stroke="#2D2D2D" fill="#007fff"/>
  <rect id="5df84416618a4c4c97c1905de84b1db2-ao-17" height="33.33333" width="161.90476" y="448.36501" x="1205.46029" stroke="#2D2D2D" fill="#007fff"/>
  <rect id="5df84416618a4c4c97c1905de84b1db2-ao-18" height="25.39683" width="180.95238" y="503.92056" x="1208.63489" stroke="#2D2D2D" fill="#007fff"/>
  <rect id="5df84416618a4c4c97c1905de84b1db2-ao-19" height="31.74603" width="160.31746" y="553.12691" x="1208.63489" stroke="#2D2D2D" fill="#007fff"/>
  <rect id="5df84416618a4c4c97c1905de84b1db2-ao-20" height="26.98413" width="111.11111" y="605.50787" x="1205.46029" stroke="#2D2D2D" fill="#007fff"/>
  
  <rect id="5df84416618a4c4c97c1905de84b1db2-ao-22" height="53.96825" width="109.52381" y="859.47612" x="887.99998" stroke="#2D2D2D" fill="#007fff"/>
  <rect id="5df84416618a4c4c97c1905de84b1db2-ao-23" height="49.20635" width="115.87301" y="865.82532" x="724.50791" stroke="#2D2D2D" fill="#007fff"/>
  <rect id="5df84416618a4c4c97c1905de84b1db2-ao-24" height="53.96825" width="166.66666" y="864.23802" x="526.09522" stroke="#2D2D2D" fill="#007fff"/>
 </g>
</svg>