<svg xmlns="http://www.w3.org/2000/svg" width="1139" height="602">
 <!-- Created with Image Occlusion Enhanced -->
 <g>
  <title>Labels</title>
 </g>
 <g>
  <title>Masks</title>
  <rect id="5ef0147d546c4f56bb9e975bb47f7a6e-ao-1" height="28.86598" width="138.14434" y="24.39174" x="452.54646" stroke="#2D2D2D" fill="#007fff"/>
  <rect id="5ef0147d546c4f56bb9e975bb47f7a6e-ao-2" height="21.64949" width="98.96908" y="91.40205" x="483.47429" stroke="#2D2D2D" fill="#007fff"/>
  <rect id="5ef0147d546c4f56bb9e975bb47f7a6e-ao-3" height="51.54639" width="95.87629" y="7.89689" x="928.83513" stroke="#2D2D2D" fill="#007fff"/>
  <rect id="5ef0147d546c4f56bb9e975bb47f7a6e-ao-4" height="25.7732" width="102.06186" y="74.9072" x="947.39184" stroke="#2D2D2D" fill="#007fff"/>
  <rect id="5ef0147d546c4f56bb9e975bb47f7a6e-ao-5" height="42.26804" width="91.75258" y="122.32989" x="976.25782" stroke="#2D2D2D" fill="#007fff"/>
  <rect id="5ef0147d546c4f56bb9e975bb47f7a6e-ao-6" height="44.3299" width="92.78351" y="150.16494" x="671.10316" stroke="#2D2D2D" fill="#007fff"/>
  <rect id="5ef0147d546c4f56bb9e975bb47f7a6e-ao-7" height="46.39175" width="104.12372" y="185.21649" x="975.22689" stroke="#2D2D2D" fill="#007fff"/>
  <rect id="5ef0147d546c4f56bb9e975bb47f7a6e-ao-8" height="45.36083" width="93.81444" y="255.31958" x="978.31967" stroke="#2D2D2D" fill="#FF7E7E" class="qshape"/>
  <rect id="5ef0147d546c4f56bb9e975bb47f7a6e-ao-9" height="44.3299" width="89.69073" y="318.20618" x="977.28874" stroke="#2D2D2D" fill="#007fff"/>
  <rect id="5ef0147d546c4f56bb9e975bb47f7a6e-ao-10" height="43.29897" width="97.93815" y="389.34021" x="948.42276" stroke="#2D2D2D" fill="#007fff"/>
  <rect id="5ef0147d546c4f56bb9e975bb47f7a6e-ao-11" height="27.83505" width="111.34021" y="396.5567" x="568.01038" stroke="#2D2D2D" fill="#007fff"/>
  <rect id="5ef0147d546c4f56bb9e975bb47f7a6e-ao-12" height="46.39175" width="122.68042" y="386.24742" x="406.1547" stroke="#2D2D2D" fill="#007fff"/>
  <rect id="5ef0147d546c4f56bb9e975bb47f7a6e-ao-13" height="40.20619" width="90.72165" y="137.7938" x="381.41243" stroke="#2D2D2D" fill="#007fff"/>
  <rect id="5ef0147d546c4f56bb9e975bb47f7a6e-ao-14" height="25.7732" width="131.95877" y="149.13401" x="44.29902" stroke="#2D2D2D" fill="#007fff"/>
  <rect id="5ef0147d546c4f56bb9e975bb47f7a6e-ao-15" height="51.54639" width="116.49485" y="193.46391" x="26.77324" stroke="#2D2D2D" fill="#007fff"/>
  <rect id="5ef0147d546c4f56bb9e975bb47f7a6e-ao-16" height="49.48454" width="97.93815" y="265.62886" x="61.82479" stroke="#2D2D2D" fill="#007fff"/>
  <rect id="5ef0147d546c4f56bb9e975bb47f7a6e-ao-17" height="27.83505" width="136.08248" y="459.4433" x="514.40213" stroke="#2D2D2D" fill="#ffffff"/>
  <rect id="5ef0147d546c4f56bb9e975bb47f7a6e-ao-18" height="235.05156" width="168.04124" y="367.69072" x="-0.03088" stroke="#2D2D2D" fill="#ffffff"/>
 </g>
</svg>