<svg xmlns="http://www.w3.org/2000/svg" width="786" height="588">
 <!-- Created with Image Occlusion Enhanced -->
 <g>
  <title>Labels</title>
 </g>
 <g>
  <title>Masks</title>
  <rect id="63ecc08b2eab4ff7afa0417d4f88af54-oa-1" height="42" width="77" y="295" x="35" stroke="#2D2D2D" fill="#FFEBA2"/>
  <rect id="63ecc08b2eab4ff7afa0417d4f88af54-oa-2" height="14" width="77" y="265" x="20" stroke="#2D2D2D" fill="#FFEBA2"/>
  <rect id="63ecc08b2eab4ff7afa0417d4f88af54-oa-3" height="14" width="104" y="232" x="23" stroke="#2D2D2D" fill="#FFEBA2"/>
  <rect id="63ecc08b2eab4ff7afa0417d4f88af54-oa-4" height="23" width="131" y="199" x="35" stroke="#2D2D2D" fill="#FFEBA2"/>
  <rect id="63ecc08b2eab4ff7afa0417d4f88af54-oa-5" height="19" width="64" y="173" x="111" stroke="#2D2D2D" fill="#FFEBA2"/>
  <rect id="63ecc08b2eab4ff7afa0417d4f88af54-oa-6" height="26" width="93" y="139" x="149" stroke="#2D2D2D" fill="#FFEBA2"/>
  <rect id="63ecc08b2eab4ff7afa0417d4f88af54-oa-7" height="19" width="73" y="112" x="235" stroke="#2D2D2D" fill="#FFEBA2"/>
  <rect id="63ecc08b2eab4ff7afa0417d4f88af54-oa-8" height="39" width="68" y="73" x="296" stroke="#2D2D2D" fill="#FFEBA2"/>
  <rect id="63ecc08b2eab4ff7afa0417d4f88af54-oa-9" height="33" width="76" y="67" x="394" stroke="#2D2D2D" fill="#FFEBA2"/>
  <rect id="63ecc08b2eab4ff7afa0417d4f88af54-oa-10" height="15" width="74" y="80" x="624.6" stroke="#2D2D2D" fill="#FFEBA2"/>
  <rect id="63ecc08b2eab4ff7afa0417d4f88af54-oa-11" height="19" width="98" y="109" x="620.6" stroke="#2D2D2D" fill="#FFEBA2"/>
  <rect id="63ecc08b2eab4ff7afa0417d4f88af54-oa-12" height="21" width="95" y="131" x="639.6" stroke="#2D2D2D" fill="#FFEBA2"/>
  <rect id="63ecc08b2eab4ff7afa0417d4f88af54-oa-13" height="20" width="87" y="160" x="643.6" stroke="#2D2D2D" fill="#FFEBA2"/>
  <rect id="63ecc08b2eab4ff7afa0417d4f88af54-oa-14" height="18" width="100" y="188" x="654.6" stroke="#2D2D2D" fill="#FFEBA2"/>
  <rect id="63ecc08b2eab4ff7afa0417d4f88af54-oa-15" height="17" width="89" y="215" x="658.6" stroke="#2D2D2D" fill="#FFEBA2"/>
  <rect id="63ecc08b2eab4ff7afa0417d4f88af54-oa-16" height="18" width="106" y="244" x="652.6" stroke="#2D2D2D" fill="#FFEBA2"/>
  <rect id="63ecc08b2eab4ff7afa0417d4f88af54-oa-17" height="14" width="91" y="273" x="651.6" stroke="#2D2D2D" fill="#FFEBA2"/>
  <rect id="63ecc08b2eab4ff7afa0417d4f88af54-oa-18" height="36" width="117" y="300" x="654.6" stroke="#2D2D2D" fill="#FFEBA2"/>
 </g>
</svg>