<svg xmlns="http://www.w3.org/2000/svg" width="1961" height="914.9999999999999">
 <!-- Created with Image Occlusion Enhanced -->
 <g>
  <title>Labels</title>
 </g>
 <g>
  <title>Masks</title>
  <rect id="64d4b144a156432c8f64a0e4f8fb0bc5-ao-1" height="58.51815" width="133.36694" y="44.42544" x="956.74204" stroke="#2D2D2D" fill="#FFEBA2"/>
  <rect id="64d4b144a156432c8f64a0e4f8fb0bc5-ao-2" height="53.0746" width="153.78025" y="74.36496" x="1139.10091" stroke="#2D2D2D" fill="#FFEBA2"/>
  <rect id="64d4b144a156432c8f64a0e4f8fb0bc5-ao-3" height="32.66129" width="152.41936" y="150.57464" x="1054.72591" stroke="#2D2D2D" fill="#FFEBA2"/>
  <rect id="64d4b144a156432c8f64a0e4f8fb0bc5-ao-4" height="43.54839" width="149.69759" y="213.17545" x="1004.37309" stroke="#2D2D2D" fill="#FFEBA2"/>
  <rect id="64d4b144a156432c8f64a0e4f8fb0bc5-ao-5" height="54.43549" width="123.84073" y="13.12504" x="1404.47391" stroke="#2D2D2D" fill="#FFEBA2"/>
  <rect id="64d4b144a156432c8f64a0e4f8fb0bc5-ao-6" height="31.3004" width="134.72783" y="11.76415" x="1593.63722" stroke="#2D2D2D" fill="#FFEBA2"/>
  <rect id="64d4b144a156432c8f64a0e4f8fb0bc5-ao-7" height="44.90928" width="83.01412" y="218.619" x="1822.26626" stroke="#2D2D2D" fill="#FFEBA2"/>
  
  <rect id="64d4b144a156432c8f64a0e4f8fb0bc5-ao-9" height="46.27016" width="140.17138" y="379.20368" x="1803.21384" stroke="#2D2D2D" fill="#FFEBA2"/>
  <rect id="64d4b144a156432c8f64a0e4f8fb0bc5-ao-10" height="48.99194" width="108.87097" y="456.77425" x="1805.93562" stroke="#2D2D2D" fill="#FFEBA2"/>
  <rect id="64d4b144a156432c8f64a0e4f8fb0bc5-ao-11" height="51.71371" width="108.87097" y="530.26215" x="1771.91344" stroke="#2D2D2D" fill="#FFEBA2"/>
  <rect id="64d4b144a156432c8f64a0e4f8fb0bc5-ao-12" height="36.74395" width="78.93145" y="603.75006" x="1748.77836" stroke="#2D2D2D" fill="#FFEBA2"/>
  <rect id="64d4b144a156432c8f64a0e4f8fb0bc5-ao-13" height="51.71371" width="77.57057" y="739.83877" x="1716.11707" stroke="#2D2D2D" fill="#FFEBA2"/>
  <rect id="64d4b144a156432c8f64a0e4f8fb0bc5-ao-14" height="50.35282" width="132.00605" y="777.94361" x="1084.66543" stroke="#2D2D2D" fill="#FFEBA2"/>
  <rect id="64d4b144a156432c8f64a0e4f8fb0bc5-ao-15" height="51.71371" width="118.39718" y="603.75006" x="993.48599" stroke="#2D2D2D" fill="#FFEBA2"/>
  <rect id="64d4b144a156432c8f64a0e4f8fb0bc5-ao-16" height="46.27016" width="91.17944" y="512.57062" x="1024.78639" stroke="#2D2D2D" fill="#FFEBA2"/>
  <rect id="64d4b144a156432c8f64a0e4f8fb0bc5-ao-17" height="44.90928" width="126.5625" y="444.52626" x="978.51623" stroke="#2D2D2D" fill="#FFEBA2"/>
  <rect id="64d4b144a156432c8f64a0e4f8fb0bc5-ao-18" height="44.90928" width="97.98387" y="369.67747" x="1013.8993" stroke="#2D2D2D" fill="#FFEBA2"/>
  <rect id="64d4b144a156432c8f64a0e4f8fb0bc5-ao-19" height="34.02218" width="62.60081" y="68.92141" x="639.65533" stroke="#2D2D2D" fill="#FFEBA2"/>
  <rect id="64d4b144a156432c8f64a0e4f8fb0bc5-ao-20" height="43.54839" width="236.79436" y="74.36496" x="272.2158" stroke="#2D2D2D" fill="#FFEBA2"/>
  <rect id="64d4b144a156432c8f64a0e4f8fb0bc5-ao-21" height="85.73589" width="134.72783" y="360.15126" x="647.82065" stroke="#2D2D2D" fill="#FFEBA2"/>
  <rect id="64d4b144a156432c8f64a0e4f8fb0bc5-ao-22" height="35.38307" width="100.70565" y="478.54844" x="661.42953" stroke="#2D2D2D" fill="#FFEBA2"/>
  <rect id="64d4b144a156432c8f64a0e4f8fb0bc5-ao-23" height="55.79637" width="104.78831" y="542.51014" x="638.29444" stroke="#2D2D2D" fill="#FFEBA2"/>
  <rect id="64d4b144a156432c8f64a0e4f8fb0bc5-ao-24" height="111.59275" width="208.21573" y="633.68958" x="586.58073" stroke="#2D2D2D" fill="#FFEBA2"/>
  <rect id="64d4b144a156432c8f64a0e4f8fb0bc5-ao-25" height="92.54033" width="102.06654" y="803.80047" x="25.89523" stroke="#2D2D2D" fill="#FFEBA2"/>
  <rect id="64d4b144a156432c8f64a0e4f8fb0bc5-ao-26" height="145.61492" width="157.86291" y="583.33675" x="1.39926" stroke="#2D2D2D" fill="#FFEBA2"/>
  <rect id="64d4b144a156432c8f64a0e4f8fb0bc5-ao-27" height="58.51815" width="142.89315" y="474.46578" x="5.48192" stroke="#2D2D2D" fill="#FFEBA2"/>
  <rect id="64d4b144a156432c8f64a0e4f8fb0bc5-ao-28" height="65.32258" width="140.17138" y="383.28634" x="16.36902" stroke="#2D2D2D" fill="#FFEBA2"/>
  <rect id="64d4b144a156432c8f64a0e4f8fb0bc5-ao-29" height="59.87903" width="89.81855" y="777.94361" x="634.21178" stroke="#2D2D2D" fill="#FFEBA2"/>
 </g>
</svg>