<svg xmlns="http://www.w3.org/2000/svg" width="1443" height="1378">
 <!-- Created with Image Occlusion Enhanced -->
 <g>
  <title>Labels</title>
 </g>
 <g>
  <title>Masks</title>
  <rect id="69006f35a1f34e6889bf5f00694ea7f6-ao-1" height="54.7619" width="90.47619" y="348.19044" x="177.95239" stroke="#2D2D2D" fill="#007fff"/>
  <rect id="69006f35a1f34e6889bf5f00694ea7f6-ao-2" height="57.14286" width="142.85714" y="421.99996" x="111.28572" stroke="#2D2D2D" fill="#007fff"/>
  <rect id="69006f35a1f34e6889bf5f00694ea7f6-ao-3" height="52.38095" width="180.95238" y="488.66663" x="42.2381" stroke="#2D2D2D" fill="#007fff"/>
  <rect id="69006f35a1f34e6889bf5f00694ea7f6-ao-4" height="71.42857" width="114.28571" y="555.3333" x="61.28572" stroke="#2D2D2D" fill="#007fff"/>
  <rect id="69006f35a1f34e6889bf5f00694ea7f6-ao-5" height="47.61905" width="88.09524" y="733.90473" x="82.71429" stroke="#2D2D2D" fill="#007fff"/>
  <rect id="69006f35a1f34e6889bf5f00694ea7f6-ao-6" height="30.95238" width="102.38095" y="810.0952" x="70.80953" stroke="#2D2D2D" fill="#007fff"/>
  <rect id="69006f35a1f34e6889bf5f00694ea7f6-ao-7" height="33.33333" width="133.33333" y="862.47616" x="42.2381" stroke="#2D2D2D" fill="#007fff"/>
  <rect id="69006f35a1f34e6889bf5f00694ea7f6-ao-8" height="35.71429" width="107.14286" y="910.0952" x="68.42858" stroke="#2D2D2D" fill="#FF7E7E" class="qshape"/>
  <rect id="69006f35a1f34e6889bf5f00694ea7f6-ao-9" height="57.14286" width="114.28571" y="1112.47616" x="104.14286" stroke="#2D2D2D" fill="#007fff"/>
  <rect id="69006f35a1f34e6889bf5f00694ea7f6-ao-10" height="61.90476" width="123.80952" y="1283.90473" x="432.71429" stroke="#2D2D2D" fill="#007fff"/>
  <rect id="69006f35a1f34e6889bf5f00694ea7f6-ao-11" height="47.61905" width="104.76191" y="1291.04759" x="594.61906" stroke="#2D2D2D" fill="#007fff"/>
  <rect id="69006f35a1f34e6889bf5f00694ea7f6-ao-12" height="47.61905" width="123.80952" y="1279.14282" x="751.76191" stroke="#2D2D2D" fill="#007fff"/>
  <rect id="69006f35a1f34e6889bf5f00694ea7f6-ao-13" height="42.85714" width="121.42857" y="950.57139" x="1227.95239" stroke="#2D2D2D" fill="#007fff"/>
  <rect id="69006f35a1f34e6889bf5f00694ea7f6-ao-14" height="50" width="142.85714" y="879.14282" x="1223.19049" stroke="#2D2D2D" fill="#007fff"/>
  <rect id="69006f35a1f34e6889bf5f00694ea7f6-ao-15" height="28.57143" width="88.09524" y="824.38092" x="1249.38096" stroke="#2D2D2D" fill="#007fff"/>
  <rect id="69006f35a1f34e6889bf5f00694ea7f6-ao-16" height="52.38095" width="138.09524" y="688.66663" x="1254.14287" stroke="#2D2D2D" fill="#007fff"/>
  <rect id="69006f35a1f34e6889bf5f00694ea7f6-ao-17" height="61.90476" width="157.14286" y="605.3333" x="1251.76192" stroke="#2D2D2D" fill="#007fff"/>
  <rect id="69006f35a1f34e6889bf5f00694ea7f6-ao-18" height="57.14286" width="109.52381" y="536.28568" x="1249.38096" stroke="#2D2D2D" fill="#007fff"/>
  <rect id="69006f35a1f34e6889bf5f00694ea7f6-ao-19" height="50" width="135.71429" y="460.0952" x="1227.95239" stroke="#2D2D2D" fill="#007fff"/>
  <rect id="69006f35a1f34e6889bf5f00694ea7f6-ao-20" height="33.33333" width="121.42857" y="398.19044" x="1206.52382" stroke="#2D2D2D" fill="#007fff"/>
 </g>
</svg>