<svg xmlns="http://www.w3.org/2000/svg" width="1499.9999999999998" height="799.9999999999999">
 <!-- Created with Image Occlusion Enhanced -->
 <g>
  <title>Labels</title>
 </g>
 <g>
  <title>Masks</title>
  <rect fill="#FFEBA2" stroke="#2D2D2D" x="98.90631" y="121.7969" width="78.04688" height="18.98438" id="6a2c7777abea498fae74533496879da5-ao-1"/>
  <rect fill="#FFEBA2" stroke="#2D2D2D" x="60.93756" y="192.46097" width="78.04688" height="25.3125" id="6a2c7777abea498fae74533496879da5-ao-2"/>
  <rect fill="#FFEBA2" stroke="#2D2D2D" x="60.93756" y="251.52347" width="79.10157" height="59.0625" id="6a2c7777abea498fae74533496879da5-ao-3"/>
  <rect fill="#FFEBA2" stroke="#2D2D2D" x="58.82818" y="341.17191" width="81.21094" height="60.11719" id="6a2c7777abea498fae74533496879da5-ao-4"/>
  <rect fill="#FFEBA2" stroke="#2D2D2D" x="59.88287" y="435.42973" width="76.99219" height="36.91406" id="6a2c7777abea498fae74533496879da5-ao-6"/>
  <rect fill="#FF7E7E" stroke="#2D2D2D" x="61.99225" y="534.17973" width="75.9375" height="33.75" id="6a2c7777abea498fae74533496879da5-ao-8" class="qshape"/>
  <rect fill="#FFEBA2" stroke="#2D2D2D" x="65.15631" y="592.18755" width="79.10157" height="29.53125" id="6a2c7777abea498fae74533496879da5-ao-9"/>
  <rect fill="#FFEBA2" stroke="#2D2D2D" x="96.79694" y="656.52349" width="80.15625" height="35.85938" id="6a2c7777abea498fae74533496879da5-ao-10"/>
  <rect fill="#FFEBA2" stroke="#2D2D2D" x="231.79694" y="703.98443" width="71.71875" height="37.96875" id="6a2c7777abea498fae74533496879da5-ao-11"/>
  <rect fill="#FFEBA2" stroke="#2D2D2D" x="555.58602" y="611.17192" width="88.59375" height="35.85938" id="6a2c7777abea498fae74533496879da5-ao-12"/>
  <rect fill="#FFEBA2" stroke="#2D2D2D" x="576.67977" y="547.89067" width="82.26563" height="34.80469" id="6a2c7777abea498fae74533496879da5-ao-13"/>
  <rect fill="#FFEBA2" stroke="#2D2D2D" x="577.73445" y="495.15629" width="80.15625" height="36.91406" id="6a2c7777abea498fae74533496879da5-ao-14"/>
  <rect fill="#FFEBA2" stroke="#2D2D2D" x="576.67977" y="435.0391" width="71.71875" height="46.40625" id="6a2c7777abea498fae74533496879da5-ao-15"/>
  <rect fill="#FFEBA2" stroke="#2D2D2D" x="579.84383" y="381.25004" width="53.78906" height="34.80469" id="6a2c7777abea498fae74533496879da5-ao-16"/>
  <rect fill="#FFEBA2" stroke="#2D2D2D" x="644.17977" y="267.34378" width="59.0625" height="49.57031" id="6a2c7777abea498fae74533496879da5-ao-17"/>
  <rect fill="#FFEBA2" stroke="#2D2D2D" x="637.85164" y="185.07816" width="71.71875" height="65.39063" id="6a2c7777abea498fae74533496879da5-ao-18"/>
  <rect fill="#FFEBA2" stroke="#2D2D2D" x="644.17977" y="118.63284" width="59.0625" height="41.13281" id="6a2c7777abea498fae74533496879da5-ao-19"/>
  <g id="6a2c7777abea498fae74533496879da5-ao-5">
   <rect fill="#FFEBA2" stroke="#2D2D2D" x="47.92975" y="409.37504" width="90.70313" height="17.92969"/>
   <rect fill="#FFEBA2" stroke="#2D2D2D" x="61.99225" y="487.46098" width="75.9375" height="31.64063"/>
  </g>
 </g>
</svg>