<svg xmlns="http://www.w3.org/2000/svg" width="1600" height="1345">
 <!-- Created with Image Occlusion Enhanced -->
 <g>
  <title>Labels</title>
 </g>
 <g>
  <title>Masks</title>
  <rect id="6fa1f86b984c4f348100320068bcf8a6-ao-1" height="30.95238" width="133.33333" y="240.7142" x="250" stroke="#2D2D2D" fill="#007fff"/>
  <rect id="6fa1f86b984c4f348100320068bcf8a6-ao-2" height="48.80952" width="134.52381" y="294.28563" x="219.04762" stroke="#2D2D2D" fill="#007fff"/>
  <rect id="6fa1f86b984c4f348100320068bcf8a6-ao-3" height="47.61905" width="159.52381" y="370.4761" x="169.04762" stroke="#2D2D2D" fill="#007fff"/>
  <rect id="6fa1f86b984c4f348100320068bcf8a6-ao-4" height="29.7619" width="126.19048" y="444.28563" x="189.28571" stroke="#2D2D2D" fill="#007fff"/>
  <rect id="6fa1f86b984c4f348100320068bcf8a6-ao-5" height="50" width="97.61905" y="491.90467" x="196.42857" stroke="#2D2D2D" fill="#007fff"/>
  <rect id="6fa1f86b984c4f348100320068bcf8a6-ao-6" height="47.61905" width="104.7619" y="566.90467" x="182.14286" stroke="#2D2D2D" fill="#007fff"/>
  <rect id="6fa1f86b984c4f348100320068bcf8a6-ao-7" height="54.7619" width="94.04762" y="641.90467" x="192.85714" stroke="#2D2D2D" fill="#007fff"/>
  <rect id="6fa1f86b984c4f348100320068bcf8a6-ao-8" height="26.19048" width="67.85714" y="718.09515" x="215.47619" stroke="#2D2D2D" fill="#007fff"/>
  <rect id="6fa1f86b984c4f348100320068bcf8a6-ao-9" height="57.14286" width="122.61905" y="802.61896" x="157.14286" stroke="#2D2D2D" fill="#007fff"/>
  <rect id="6fa1f86b984c4f348100320068bcf8a6-ao-10" height="55.95238" width="108.33333" y="903.80944" x="170.2381" stroke="#2D2D2D" fill="#007fff"/>
  <rect id="6fa1f86b984c4f348100320068bcf8a6-ao-11" height="61.90476" width="117.85714" y="1082.38087" x="195.2381" stroke="#2D2D2D" fill="#007fff"/>
  <rect id="6fa1f86b984c4f348100320068bcf8a6-ao-12" height="48.80952" width="73.80952" y="79.99991" x="619.04762" stroke="#2D2D2D" fill="#007fff"/>
  
  <rect id="6fa1f86b984c4f348100320068bcf8a6-ao-14" height="61.90476" width="84.52381" y="70.4761" x="861.90476" stroke="#2D2D2D" fill="#007fff"/>
  <rect id="6fa1f86b984c4f348100320068bcf8a6-ao-15" height="60.71429" width="132.14286" y="299.04753" x="1207.14286" stroke="#2D2D2D" fill="#007fff"/>
  <rect id="6fa1f86b984c4f348100320068bcf8a6-ao-16" height="26.19048" width="98.80952" y="389.52372" x="1232.14286" stroke="#2D2D2D" fill="#007fff"/>
  <rect id="6fa1f86b984c4f348100320068bcf8a6-ao-17" height="55.95238" width="141.66667" y="459.76182" x="1251.19048" stroke="#2D2D2D" fill="#007fff"/>
  <rect id="6fa1f86b984c4f348100320068bcf8a6-ao-18" height="48.80952" width="133.33333" y="531.19039" x="1270.2381" stroke="#2D2D2D" fill="#007fff"/>
  <rect id="6fa1f86b984c4f348100320068bcf8a6-ao-19" height="53.57143" width="164.28571" y="600.23801" x="1283.33333" stroke="#2D2D2D" fill="#007fff"/>
  <rect id="6fa1f86b984c4f348100320068bcf8a6-ao-20" height="55.95238" width="134.52381" y="668.09515" x="1280.95238" stroke="#2D2D2D" fill="#007fff"/>
  <rect id="6fa1f86b984c4f348100320068bcf8a6-ao-21" height="46.42857" width="123.80952" y="738.33325" x="1272.61905" stroke="#2D2D2D" fill="#007fff"/>
  <rect id="6fa1f86b984c4f348100320068bcf8a6-ao-22" height="42.85714" width="128.57143" y="804.99991" x="1278.57143" stroke="#2D2D2D" fill="#007fff"/>
  <rect id="6fa1f86b984c4f348100320068bcf8a6-ao-23" height="36.90476" width="146.42857" y="871.66658" x="1282.14286" stroke="#2D2D2D" fill="#007fff"/>
  <rect id="6fa1f86b984c4f348100320068bcf8a6-ao-24" height="36.90476" width="159.52381" y="926.42848" x="1276.19048" stroke="#2D2D2D" fill="#007fff"/>
  <rect id="6fa1f86b984c4f348100320068bcf8a6-ao-25" height="57.14286" width="91.66667" y="993.09515" x="1282.14286" stroke="#2D2D2D" fill="#007fff"/>
  <rect id="6fa1f86b984c4f348100320068bcf8a6-ao-26" height="47.61905" width="91.66667" y="1168.09515" x="1203.57143" stroke="#2D2D2D" fill="#007fff"/>
 </g>
</svg>