<svg xmlns="http://www.w3.org/2000/svg" width="777.9999999999999" height="840">
 <!-- Created with Image Occlusion Enhanced -->
 <g>
  <title>Labels</title>
 </g>
 <g>
  <title>Masks</title>
  <rect id="7440774b88bf47f6b4aee5ba1f50c989-oa-1" height="48.57143" width="81.42858" y="444.57143" x="53.42861" stroke="#2D2D2D" fill="#FFEBA2"/>
  <rect id="7440774b88bf47f6b4aee5ba1f50c989-oa-2" height="38.57143" width="107.14286" y="377.42857" x="14.85718" stroke="#2D2D2D" fill="#FFEBA2"/>
  <rect id="7440774b88bf47f6b4aee5ba1f50c989-oa-3" height="54.28572" width="100" y="231.71428" x="20.57146" stroke="#2D2D2D" fill="#FFEBA2"/>
  <rect id="7440774b88bf47f6b4aee5ba1f50c989-oa-4" height="52.85715" width="124.28572" y="303.14285" x="7.71432" stroke="#2D2D2D" fill="#FFEBA2"/>
  <rect id="7440774b88bf47f6b4aee5ba1f50c989-oa-5" height="60" width="65.71429" y="155.99999" x="59.14289" stroke="#2D2D2D" fill="#FFEBA2"/>
  <rect id="7440774b88bf47f6b4aee5ba1f50c989-oa-6" height="54.28572" width="84.28572" y="93.14284" x="39.14289" stroke="#2D2D2D" fill="#FFEBA2"/>
  <rect id="7440774b88bf47f6b4aee5ba1f50c989-oa-7" height="55.71429" width="118.57143" y="1.71427" x="130.57147" stroke="#2D2D2D" fill="#FFEBA2"/>
  <rect id="7440774b88bf47f6b4aee5ba1f50c989-oa-8" height="41.42857" width="112.85715" y="10.2857" x="279.1429" stroke="#2D2D2D" fill="#FFEBA2"/>
  <rect id="7440774b88bf47f6b4aee5ba1f50c989-oa-9" height="40" width="82.85715" y="8.85712" x="429.14291" stroke="#2D2D2D" fill="#FFEBA2"/>
  <rect id="7440774b88bf47f6b4aee5ba1f50c989-oa-10" height="44.28572" width="100" y="5.99998" x="549.14292" stroke="#2D2D2D" fill="#FFEBA2"/>
  <rect id="7440774b88bf47f6b4aee5ba1f50c989-oa-11" height="32.85714" width="71.42857" y="97.42856" x="656.28578" stroke="#2D2D2D" fill="#FFEBA2"/>
  <rect id="7440774b88bf47f6b4aee5ba1f50c989-oa-12" height="42.85714" width="82.85715" y="144.57142" x="652.00006" stroke="#2D2D2D" fill="#FFEBA2"/>
  <rect id="7440774b88bf47f6b4aee5ba1f50c989-oa-13" height="35.71429" width="108.57143" y="204.57142" x="653.42864" stroke="#2D2D2D" fill="#FFEBA2"/>
  <rect id="7440774b88bf47f6b4aee5ba1f50c989-oa-14" height="34.28572" width="64.28572" y="265.99999" x="653.42864" stroke="#2D2D2D" fill="#FFEBA2"/>
  <rect id="7440774b88bf47f6b4aee5ba1f50c989-oa-15" height="44.28572" width="112.85715" y="326" x="649.14292" stroke="#2D2D2D" fill="#FFEBA2"/>
  <rect id="7440774b88bf47f6b4aee5ba1f50c989-oa-16" height="42.85714" width="68.57143" y="381.71428" x="659.14292" stroke="#2D2D2D" fill="#FFEBA2"/>
  <rect id="7440774b88bf47f6b4aee5ba1f50c989-oa-17" height="30" width="62.85715" y="558.85715" x="213.42862" stroke="#2D2D2D" fill="#FFEBA2"/>
  <rect id="7440774b88bf47f6b4aee5ba1f50c989-oa-18" height="27.14286" width="78.57143" y="564.57144" x="330.57148" stroke="#2D2D2D" fill="#FFEBA2"/>
  <rect id="7440774b88bf47f6b4aee5ba1f50c989-oa-19" height="21.42857" width="101.42858" y="558.85715" x="437.71434" stroke="#2D2D2D" fill="#FFEBA2"/>
 </g>
</svg>