<svg xmlns="http://www.w3.org/2000/svg" width="1363" height="1284">
 <!-- Created with Image Occlusion Enhanced -->
 <g>
  <title>Labels</title>
 </g>
 <g>
  <title>Masks</title>
  <rect id="7952e38a6b1f47c897539cb8408fe35b-ao-1" height="52.27273" width="165.9091" y="60.31808" x="701.77283" stroke="#2D2D2D" fill="#007fff"/>
  <rect id="7952e38a6b1f47c897539cb8408fe35b-ao-2" height="48.86364" width="139.77273" y="229.63627" x="989.27284" stroke="#2D2D2D" fill="#007fff"/>
  <rect id="7952e38a6b1f47c897539cb8408fe35b-ao-3" height="21.59091" width="64.77273" y="292.13627" x="992.68193" stroke="#2D2D2D" fill="#007fff"/>
  <rect id="7952e38a6b1f47c897539cb8408fe35b-ao-4" height="59.09091" width="112.50001" y="518.27265" x="988.13648" stroke="#2D2D2D" fill="#007fff"/>
  <rect id="7952e38a6b1f47c897539cb8408fe35b-ao-5" height="31.81818" width="100" y="628.49992" x="990.40921" stroke="#2D2D2D" fill="#007fff"/>
  <rect id="7952e38a6b1f47c897539cb8408fe35b-ao-6" height="50" width="106.81819" y="712.59084" x="993.8183" stroke="#2D2D2D" fill="#007fff"/>
  <rect id="7952e38a6b1f47c897539cb8408fe35b-ao-7" height="31.81818" width="126.13637" y="628.49992" x="1124.50012" stroke="#2D2D2D" fill="#007fff"/>
  <rect id="7952e38a6b1f47c897539cb8408fe35b-ao-8" height="48.86364" width="105.68182" y="846.68175" x="1082.45466" stroke="#2D2D2D" fill="#007fff"/>
  <rect id="7952e38a6b1f47c897539cb8408fe35b-ao-9" height="50" width="109.09091" y="912.59085" x="1082.45466" stroke="#2D2D2D" fill="#007fff"/>
  <rect id="7952e38a6b1f47c897539cb8408fe35b-ao-10" height="61.36364" width="109.09091" y="1001.22722" x="1187.00012" stroke="#2D2D2D" fill="#007fff"/>
  <rect id="7952e38a6b1f47c897539cb8408fe35b-ao-11" height="28.40909" width="84.09091" y="1075.09086" x="1189.27285" stroke="#2D2D2D" fill="#007fff"/>
  <rect id="7952e38a6b1f47c897539cb8408fe35b-ao-12" height="27.27273" width="88.63637" y="1214.86359" x="943.81829" stroke="#2D2D2D" fill="#007fff"/>
  
  <rect id="7952e38a6b1f47c897539cb8408fe35b-ao-14" height="50" width="127.27273" y="1034.18176" x="84.72734" stroke="#2D2D2D" fill="#007fff"/>
  <rect id="7952e38a6b1f47c897539cb8408fe35b-ao-15" height="34.09091" width="120.45455" y="980.77267" x="135.86371" stroke="#2D2D2D" fill="#007fff"/>
  <rect id="7952e38a6b1f47c897539cb8408fe35b-ao-16" height="55.68182" width="109.09091" y="906.90903" x="158.59098" stroke="#2D2D2D" fill="#007fff"/>
  <rect id="7952e38a6b1f47c897539cb8408fe35b-ao-17" height="44.31818" width="102.27273" y="846.68175" x="160.86371" stroke="#2D2D2D" fill="#007fff"/>
  <rect id="7952e38a6b1f47c897539cb8408fe35b-ao-18" height="45.45455" width="111.36364" y="776.2272" x="155.18189" stroke="#2D2D2D" fill="#007fff"/>
  <rect id="7952e38a6b1f47c897539cb8408fe35b-ao-19" height="32.95455" width="145.45455" y="345.54537" x="288.13644" stroke="#2D2D2D" fill="#007fff"/>
 </g>
</svg>