<svg xmlns="http://www.w3.org/2000/svg" width="1583" height="1400">
 <!-- Created with Image Occlusion Enhanced -->
 <g>
  <title>Labels</title>
 </g>
 <g>
  <title>Masks</title>
  <rect id="7bc8fbae8adf44cc9bf7f7efeb114106-ao-1" height="48.80952" width="97.61905" y="143.57142" x="574.1429" stroke="#2D2D2D" fill="#007fff"/>
  <rect id="7bc8fbae8adf44cc9bf7f7efeb114106-ao-2" height="33.33333" width="108.33334" y="111.42856" x="758.66672" stroke="#2D2D2D" fill="#007fff"/>
  <rect id="7bc8fbae8adf44cc9bf7f7efeb114106-ao-3" height="67.85714" width="146.42857" y="134.04761" x="926.52386" stroke="#2D2D2D" fill="#007fff"/>
  <rect id="7bc8fbae8adf44cc9bf7f7efeb114106-ao-4" height="55.95238" width="111.90476" y="200.71427" x="1151.52387" stroke="#2D2D2D" fill="#007fff"/>
  <rect id="7bc8fbae8adf44cc9bf7f7efeb114106-ao-5" height="50" width="179.76191" y="278.09523" x="1206.28578" stroke="#2D2D2D" fill="#007fff"/>
  <rect id="7bc8fbae8adf44cc9bf7f7efeb114106-ao-6" height="47.61905" width="98.80953" y="354.28571" x="1255.0953" stroke="#2D2D2D" fill="#007fff"/>
  <rect id="7bc8fbae8adf44cc9bf7f7efeb114106-ao-7" height="53.57143" width="113.09524" y="424.5238" x="1278.90482" stroke="#2D2D2D" fill="#007fff"/>
  
  <rect id="7bc8fbae8adf44cc9bf7f7efeb114106-ao-9" height="58.33333" width="109.52381" y="625.71428" x="1305.0953" stroke="#2D2D2D" fill="#007fff"/>
  <rect id="7bc8fbae8adf44cc9bf7f7efeb114106-ao-10" height="54.76191" width="84.52381" y="711.42857" x="1326.52387" stroke="#2D2D2D" fill="#007fff"/>
  <rect id="7bc8fbae8adf44cc9bf7f7efeb114106-ao-11" height="47.61905" width="105.95238" y="782.85714" x="1328.90483" stroke="#2D2D2D" fill="#007fff"/>
  <rect id="7bc8fbae8adf44cc9bf7f7efeb114106-ao-12" height="36.90476" width="115.47619" y="970.95239" x="1332.47625" stroke="#2D2D2D" fill="#007fff"/>
  <rect id="7bc8fbae8adf44cc9bf7f7efeb114106-ao-13" height="67.85714" width="153.57143" y="1043.57144" x="1300.3334" stroke="#2D2D2D" fill="#007fff"/>
  <rect id="7bc8fbae8adf44cc9bf7f7efeb114106-ao-14" height="57.14286" width="127.38096" y="1225.7143" x="292.00004" stroke="#2D2D2D" fill="#007fff"/>
  <rect id="7bc8fbae8adf44cc9bf7f7efeb114106-ao-15" height="40.47619" width="84.52381" y="974.52382" x="213.42861" stroke="#2D2D2D" fill="#007fff"/>
  <rect id="7bc8fbae8adf44cc9bf7f7efeb114106-ao-16" height="41.66667" width="101.19048" y="892.38096" x="193.19052" stroke="#2D2D2D" fill="#007fff"/>
  <rect id="7bc8fbae8adf44cc9bf7f7efeb114106-ao-17" height="47.61905" width="120.2381" y="817.38095" x="178.9048" stroke="#2D2D2D" fill="#007fff"/>
  <rect id="7bc8fbae8adf44cc9bf7f7efeb114106-ao-18" height="52.38095" width="88.09524" y="742.38095" x="221.76194" stroke="#2D2D2D" fill="#007fff"/>
  <rect id="7bc8fbae8adf44cc9bf7f7efeb114106-ao-19" height="44.04762" width="88.09524" y="648.33333" x="219.38099" stroke="#2D2D2D" fill="#007fff"/>
  <rect id="7bc8fbae8adf44cc9bf7f7efeb114106-ao-20" height="45.2381" width="79.76191" y="569.7619" x="217.00004" stroke="#2D2D2D" fill="#007fff"/>
  <rect id="7bc8fbae8adf44cc9bf7f7efeb114106-ao-21" height="47.61905" width="121.42857" y="424.5238" x="225.33337" stroke="#2D2D2D" fill="#007fff"/>
  <rect id="7bc8fbae8adf44cc9bf7f7efeb114106-ao-22" height="45.2381" width="153.57143" y="316.19047" x="242.00004" stroke="#2D2D2D" fill="#007fff"/>
 </g>
</svg>