<svg xmlns="http://www.w3.org/2000/svg" width="2612" height="1391">
 <!-- Created with Image Occlusion Enhanced -->
 <g>
  <title>Labels</title>
 </g>
 <g>
  <title>Masks</title>
  <g id="858fdece1a534fa796debae693c0ce53-ao-1">
   <rect height="38.18182" width="129.09091" y="342.63639" x="1131.63643" stroke="#2D2D2D" fill="#FFEBA2"/>
   <rect height="40" width="138.18182" y="259.00003" x="2398.90918" stroke="#2D2D2D" fill="#FFEBA2"/>
  </g>
  <rect id="858fdece1a534fa796debae693c0ce53-ao-2" height="69.09091" width="112.72727" y="133.54548" x="1411.63643" stroke="#2D2D2D" fill="#FFEBA2"/>
  
  <rect id="858fdece1a534fa796debae693c0ce53-ao-3" height="40" width="145.45455" y="279.00003" x="46.18186" stroke="#2D2D2D" fill="#FFEBA2"/>
  <g id="858fdece1a534fa796debae693c0ce53-ao-4">
   <rect height="47.27273" width="121.81818" y="1166.27277" x="173.45459" stroke="#2D2D2D" fill="#FFEBA2"/>
   <rect height="40" width="123.63637" y="1142.6364" x="1513.45462" stroke="#2D2D2D" fill="#FFEBA2"/>
  </g>
  <g id="858fdece1a534fa796debae693c0ce53-ao-5">
   <rect height="36.36364" width="105.45455" y="1131.72731" x="2246.1819" stroke="#2D2D2D" fill="#FFEBA2"/>
   <rect height="43.63636" width="101.81818" y="1031.72731" x="1006.18188" stroke="#2D2D2D" fill="#FFEBA2"/>
  </g>
  <g id="858fdece1a534fa796debae693c0ce53-ao-6">
   <rect height="52.72727" width="141.81818" y="1051.72731" x="1442.54552" stroke="#2D2D2D" fill="#FFEBA2"/>
   <rect height="54.54546" width="118.18182" y="777.18185" x="1117.09097" stroke="#2D2D2D" fill="#FFEBA2"/>
  </g>
  <rect id="858fdece1a534fa796debae693c0ce53-ao-7" height="34.54546" width="141.81818" y="937.18186" x="1426.18189" stroke="#2D2D2D" fill="#FFEBA2"/>
  <rect id="858fdece1a534fa796debae693c0ce53-ao-8" height="58.18182" width="116.36364" y="508.09094" x="1355.27279" stroke="#2D2D2D" fill="#FFEBA2"/>
  <rect id="858fdece1a534fa796debae693c0ce53-ao-9" height="58.18182" width="123.63637" y="433.54548" x="2408.00009" stroke="#2D2D2D" fill="#FFEBA2"/>
  <g id="858fdece1a534fa796debae693c0ce53-ao-10">
   <g>
    <rect height="54.54546" width="145.45455" y="557.18185" x="2413.45463" stroke="#2D2D2D" fill="#FFEBA2"/>
    <rect height="36.36364" width="150.90909" y="519.00003" x="1131.63643" stroke="#2D2D2D" fill="#FFEBA2"/>
    <rect height="54.54546" width="140" y="637.18185" x="2400.72736" stroke="#2D2D2D" fill="#FFEBA2"/>
    <rect height="49.09091" width="165.45455" y="837.18185" x="2362.54554" stroke="#2D2D2D" fill="#FFEBA2"/>
   </g>
   <rect height="54.54546" width="163.63637" y="911.72731" x="2335.27281" stroke="#2D2D2D" fill="#FFEBA2"/>
  </g>
  <g id="858fdece1a534fa796debae693c0ce53-ao-11">
   <rect height="36.36364" width="116.36364" y="802.6364" x="78.90914" stroke="#2D2D2D" fill="#FFEBA2"/>
   <rect height="34.54546" width="96.36364" y="833.54549" x="1426.18189" stroke="#2D2D2D" fill="#FFEBA2"/>
  </g>
  <g id="858fdece1a534fa796debae693c0ce53-ao-12">
   <g>
    <rect height="54.54546" width="156.36364" y="611.7273" x="1120.72734" stroke="#2D2D2D" fill="#FFEBA2"/>
    <rect height="50.90909" width="185.45455" y="984.45458" x="2297.09099" stroke="#2D2D2D" fill="#FFEBA2"/>
   </g>
   <rect height="50.90909" width="149.09091" y="522.63639" x="15.27277" stroke="#2D2D2D" fill="#FFEBA2"/>
   <rect height="50.90909" width="150.90909" y="457.18185" x="1131.63643" stroke="#2D2D2D" fill="#FFEBA2"/>
  </g>
  <rect id="858fdece1a534fa796debae693c0ce53-ao-13" height="56.36364" width="114.54546" y="340.81821" x="57.09095" stroke="#2D2D2D" fill="#FFEBA2"/>
  <rect id="858fdece1a534fa796debae693c0ce53-ao-14" height="50.90909" width="129.09091" y="411.7273" x="35.27277" stroke="#2D2D2D" fill="#FFEBA2"/>
  <rect id="858fdece1a534fa796debae693c0ce53-ao-15" height="32.72727" width="112.72727" y="479.00003" x="60.72732" stroke="#2D2D2D" fill="#FFEBA2"/>
  <rect id="858fdece1a534fa796debae693c0ce53-ao-16" height="54.54546" width="149.09091" y="624.45458" x="1353.45461" stroke="#2D2D2D" fill="#FFEBA2"/>
  <rect id="858fdece1a534fa796debae693c0ce53-ao-17" height="63.63636" width="132.72727" y="699.00003" x="1369.81825" stroke="#2D2D2D" fill="#FFEBA2"/>
  <rect id="858fdece1a534fa796debae693c0ce53-ao-18" height="38.18182" width="192.72728" y="731.72731" x="1135.27279" stroke="#2D2D2D" fill="#FFEBA2"/>
  <rect id="858fdece1a534fa796debae693c0ce53-ao-19" height="49.09091" width="165.45455" y="708.09094" x="2386.1819" stroke="#2D2D2D" fill="#FFEBA2"/>
  <rect id="858fdece1a534fa796debae693c0ce53-ao-20" height="52.72727" width="127.27273" y="775.36367" x="2388.00008" stroke="#2D2D2D" fill="#FFEBA2"/>
  <rect id="858fdece1a534fa796debae693c0ce53-ao-21" height="58.18182" width="130.90909" y="1059.00004" x="2288.00008" stroke="#2D2D2D" fill="#FFEBA2"/>
  <rect id="858fdece1a534fa796debae693c0ce53-ao-22" height="49.09091" width="121.81818" y="873.54549" x="1428.00007" stroke="#2D2D2D" fill="#FFEBA2"/>
  
  <rect id="858fdece1a534fa796debae693c0ce53-ao-24" height="49.09091" width="129.09091" y="769.90913" x="1388.00007" stroke="#2D2D2D" fill="#FFEBA2"/>
  <rect id="858fdece1a534fa796debae693c0ce53-ao-25" height="58.18182" width="178.18182" y="849.90913" x="1106.18188" stroke="#2D2D2D" fill="#FFEBA2"/>
  <rect id="858fdece1a534fa796debae693c0ce53-ao-26" height="72.72727" width="200" y="929.90913" x="1088.00006" stroke="#2D2D2D" fill="#FFEBA2"/>
  <rect id="858fdece1a534fa796debae693c0ce53-ao-27" height="56.36364" width="140" y="739.00003" x="33.45459" stroke="#2D2D2D" fill="#FFEBA2"/>
  <rect id="858fdece1a534fa796debae693c0ce53-ao-28" height="54.54546" width="125.45455" y="669.90912" x="29.81823" stroke="#2D2D2D" fill="#FFEBA2"/>
  <rect id="858fdece1a534fa796debae693c0ce53-ao-29" height="76.36364" width="138.18182" y="586.27276" x="26.18186" stroke="#2D2D2D" fill="#FFEBA2"/>
  <rect id="858fdece1a534fa796debae693c0ce53-ao-30" height="52.72727" width="136.36364" y="391.7273" x="1131.63643" stroke="#2D2D2D" fill="#FFEBA2"/>
  <rect id="858fdece1a534fa796debae693c0ce53-ao-31" height="36.36364" width="103.63637" y="568.09094" x="1129.81825" stroke="#2D2D2D" fill="#FFEBA2"/>
  <rect id="858fdece1a534fa796debae693c0ce53-ao-32" height="40" width="161.81818" y="677.18185" x="1135.27279" stroke="#2D2D2D" fill="#FFEBA2"/>
  <rect id="858fdece1a534fa796debae693c0ce53-ao-33" height="80" width="114.54546" y="1179.00004" x="980.72733" stroke="#2D2D2D" fill="#FFEBA2"/>
  <rect id="858fdece1a534fa796debae693c0ce53-ao-34" height="52.72727" width="158.18182" y="848.09094" x="57.09095" stroke="#2D2D2D" fill="#FFEBA2"/>
  <rect id="858fdece1a534fa796debae693c0ce53-ao-35" height="54.54546" width="129.09091" y="915.36367" x="82.5455" stroke="#2D2D2D" fill="#FFEBA2"/>
 </g>
</svg>