<svg id="Ebene_1" data-name="Ebene 1" xmlns="http://www.w3.org/2000/svg" width="544" height="324.13" viewBox="0 0 544 324.13"><rect width="544" height="324.13" fill="#0088b5"/><path d="M198.69,184.62l2.87,60.52s6.65,23.48,37.56,34c0,0,18.79,4.31,28.57,4.31,0,0,26.61,7.43,47.74,2.74,0,0,10-2.74,7.82-17.81l6.85,10s5.68,7.63,17.81,5.68,24.06-7.44,27.78-10.57,4.89-4.5,7.43-5.09,20.94-8.21,21.92-19.76l3.06-49.13L308.58,179Z" fill="#d1c0ba"/><polygon points="328.93 219.71 328.93 276.64 323.25 268.42 323.25 222.84 297.56 186.44 301.73 180.71 316.8 180.71 328.93 219.71" fill="#b8aca7"/><path d="M409.93,186.64c-.59,4.7-1.76,5.87-1.76,5.87s1.95,6.85-2.74,11.74-20.94,13.31-24.26,12.13c0,0-10.76,10.57-30.92,11.94s-25.43-7.44-29.54-18.79-10.11-20.87-9.06-22.3,4.56-1,2.73-2.35-1,.26-5.6.78c0,0-8-.13-7.18.92s6.78.26,7.47,1.14,14.18,32,14.18,35.12-2.6,15.13-38.34,10.43c0,0-15.13-.52-15.92-3.91,0,0-22.69.26-37.82-6.52s-13.83-9.65-13.31-10.44c0,0-6.52.79-10.69-7-2.82-5.28-2.67-6.4-2.27-6.57-1.45-.28-6-2.12-6.21-14.17-.26-14.35,3.78-14.22,3.78-14.22s-3.13-2.34,6.13-10.43,15.13-7.31,15.13-7.31l1.09-.66,8.58-5.24.38-.23s-3.4-1.43,4.17-4.95,18.52-7.31,19.7-6.13c0,0,0-2,6.39-2.74s16.75-3.36,20,.46c-.32-.51-2-3.94,10-3.94,12.95,0,17.26,1.12,17.3,2.68,0-.28.35-3.07,14.87.54,15.26,3.78,13.83,5.48,13.7,6.26l.62,0a83.87,83.87,0,0,1,10.7,2c2.46.58,5.32,1.33,8.57,2.3,13.11,3.92,24.65,9.39,24.85,10.57l.19,1.17s2.35-1,7.05,3.33,3.91,5.67,3.91,5.67,5.87.78,9.59,8.41,1.95,7.05,1.95,7.05A8.83,8.83,0,0,1,409.93,186.64Z" fill="#f2ded7"/><path d="M363.43,200.66S354,198.84,347,199.1s-14.87,2.35-14.08-7.57-2.87-11.21-11.74-12-9.66.53-12.26,1.05a62.4,62.4,0,0,1-11.74,1.21c-5.48.09-14.09.09-9.92,7.14s13.31,6.52,6.53,13.56-17.48,3.13-21.66,9.39c0,0-11.21-8.35-19.3-7.82s-13.83-4.18-7-8.87,6.78-8.09,9.65-9.92,3.13-8.87-.78-11.21-10.18-5.48-14.87-15.92c-2.15-4.77-8.6-6.1-15-6.14l8.58-5.24a23.84,23.84,0,0,0,4,2.77c6.52,3.66,15.65,6.53,22.69,8.09s10.18.78,11.22,6,3.65,2.09,9.91,7,10.44,7.31,15.66,5.74,6.52-2.87,12.52-1.82,8.35,0,13.3-9.39,1-12.79,5.48-15.13c3.76-2,9.19-7,12.36-11.3a83.87,83.87,0,0,1,10.7,2c-3,1.57-7.59,5-7.41,11.17.26,9.13-1.31,20.61,5,23.48s11.74,1,18,4.44,7.3,4.95,7.3,4.95S362.65,191.53,363.43,200.66Z" fill="#b8aca7"/><path d="M257.65,135.45a37.39,37.39,0,0,1,4.73,4.42,36.91,36.91,0,0,1,4,5.1,42.36,42.36,0,0,1-8.74-9.52Z" fill="#d9c7c1"/><path d="M284.08,133.23c2,3.37,3.76,6.88,5.43,10.42s3.23,7.13,4.53,10.84c-2-3.38-3.76-6.88-5.43-10.42S285.38,136.94,284.08,133.23Z" fill="#d9c7c1"/><path d="M311.39,131.92a56.61,56.61,0,0,1,.78,15,56.55,56.55,0,0,1-.78-15Z" fill="#d9c7c1"/><path d="M384.89,154.75a32.74,32.74,0,0,1-4.28,4.29,32.18,32.18,0,0,1-4.92,3.54,36.23,36.23,0,0,1,9.2-7.83Z" fill="#d9c7c1"/><path d="M407.39,179.21a35.52,35.52,0,0,1-11.87-.72,30.49,30.49,0,0,1,6-.14A31.45,31.45,0,0,1,407.39,179.21Z" fill="#d9c7c1"/><path d="M408.17,192.51a13.11,13.11,0,0,1-3.82-.26,12.84,12.84,0,0,1-3.62-1.24,14.65,14.65,0,0,1,7.44,1.5Z" fill="#d9c7c1"/><path d="M217.86,212.4a41.1,41.1,0,0,1,5.48-4,39.51,39.51,0,0,1,6-3.09,39.85,39.85,0,0,1-5.48,3.95A40.44,40.44,0,0,1,217.86,212.4Z" fill="#d9c7c1"/><path d="M269,229.36a26.08,26.08,0,0,1,.42-5.31,25.39,25.39,0,0,1,1.41-5.13A28.16,28.16,0,0,1,269,229.36Z" fill="#d9c7c1"/><path d="M205.34,198.84a31.07,31.07,0,0,1,5.62-1.92,30.23,30.23,0,0,1,5.86-.95,35.28,35.28,0,0,1-11.48,2.87Z" fill="#d9c7c1"/><path d="M202.47,170.4a41.77,41.77,0,0,1,6.68,1.75,41.2,41.2,0,0,1,6.37,2.69,47.93,47.93,0,0,1-13.05-4.44Z" fill="#d9c7c1"/><path d="M351.27,140.71l-6.69-1.29s6.07-6.58,33.07-.71,31.3,2.08,48.13,9.52,17.47,16.69,41.74,5l1.82.53s-.78,4.69-4.69,6.26l11.21-2.09s5,6.26,2.61,7.3-7.82,2.61-17.48,3.14-21.13-.27-27.65,7.3S419,202.23,414.82,211.88s-32.61,45.91-35.74,54.52v-4.95S387.43,245,393.69,239L379.6,251.53V248.4l14.09-11.74-14.09,8.87.26-2.61,12.53-7.56-12.53,5.22.43-5.74s9.75-7.05,12.62-9.66c0,0-8.09,2.61-12,2.09v-2.09s13.56-2.08,19.3-8.86c0,0-8.87,5.47-19,5.21v-2.08s17.48-2.61,24-9.13,9.91-23.35,16.95-31.11A165.6,165.6,0,0,1,436,165.71s-17.22,1.56-29.22-5.48-18.52-12.26-23-12.52a24.71,24.71,0,0,0-8.18,1l-15-5.33s11.68-1.37,15.85-1.11C376.47,142.23,356.12,136.31,351.27,140.71Z" fill="#f6d45a"/><path d="M268.47,279.18s-2.74-10.17-20-19.95S193,217,185.52,209.92s-19.18-16-45.4-10.17-23.47-4.7-23.47-4.7l3.52-3.29s8.61,6.82,18.78,1.34c0,0-14.09-5.09-10.56-10.18s4.3,0,4.3,0,4.3,7.83,14.09,2.74,10.56-11.34,24.65-22.3,56.86-21.11,62.35-16.83l-10.05,6.13s-10-1-22.17,9.13-18,22.7-35.22,26.22c0,0,22.7,14.48,31.31,23.09s39.52,28.5,70,23.25v1.53s-8.61,2.87-25.57,1.57c0,0,15.92,5,25.57,4.69v2.35s-8.87.52-14.35-.78c0,0,11,4.95,14.35,4.17v7.83s-8.61-2.44-15.39-4.48l15.13,7.35v7.56l-23.22-15.39s21.91,17.48,23.48,20.87Z" fill="#f6d45a"/><path d="M39.77,117a5.73,5.73,0,0,1,1.71,1.09l-.94,1a5.4,5.4,0,0,0-1.37-.82,4.06,4.06,0,0,0-1.45-.26,2.68,2.68,0,0,0-1.6.45,1.52,1.52,0,0,0-.63,1.32,1.83,1.83,0,0,0,.21.91,2,2,0,0,0,.8.67,10,10,0,0,0,1.71.65,11.67,11.67,0,0,1,1.94.77,3.37,3.37,0,0,1,1.25,1.15,3.27,3.27,0,0,1,.48,1.84,3.49,3.49,0,0,1-.53,1.91,3.7,3.7,0,0,1-1.53,1.3,5.6,5.6,0,0,1-2.37.46,5.75,5.75,0,0,1-4.21-1.6l.95-1.06a5.66,5.66,0,0,0,1.51,1,4.56,4.56,0,0,0,1.73.31,3.09,3.09,0,0,0,1.91-.57,1.92,1.92,0,0,0,.75-1.64,2,2,0,0,0-.23-1,2.06,2.06,0,0,0-.8-.73,8.29,8.29,0,0,0-1.65-.65,7.22,7.22,0,0,1-2.79-1.38,2.88,2.88,0,0,1-.88-2.2,2.93,2.93,0,0,1,.5-1.67A3.29,3.29,0,0,1,35.62,117a4.87,4.87,0,0,1,2-.41A5.81,5.81,0,0,1,39.77,117Z" fill="#fff"/><path d="M51.33,120.82a6.72,6.72,0,0,1,.84,3.66,6.11,6.11,0,0,1-1,3.6,3.18,3.18,0,0,1-2.75,1.36A3.07,3.07,0,0,1,46,128.36v4.5l-1.65.2V119.74h1.42l.12,1.28a3.7,3.7,0,0,1,1.26-1.11,3.41,3.41,0,0,1,1.55-.38A3,3,0,0,1,51.33,120.82Zm-.94,3.66c0-2.43-.71-3.64-2.14-3.64a2.17,2.17,0,0,0-1.28.41,4.15,4.15,0,0,0-1,1.07v4.62a2.55,2.55,0,0,0,.9.86,2.41,2.41,0,0,0,1.19.29C49.61,128.09,50.39,126.89,50.39,124.48Z" fill="#fff"/><path d="M56.66,115.51a1.13,1.13,0,0,1,.32.81,1.08,1.08,0,0,1-.32.8,1.18,1.18,0,0,1-.85.32,1.15,1.15,0,0,1-.83-.32,1,1,0,0,1-.32-.8,1.09,1.09,0,0,1,.32-.81,1.15,1.15,0,0,1,.83-.32A1.18,1.18,0,0,1,56.66,115.51Zm0,13.72H55v-9.49h1.66Z" fill="#fff"/><path d="M66.56,120.3a3,3,0,0,1,.73,2.12v6.81H65.64v-6.57a2.1,2.1,0,0,0-.38-1.42,1.43,1.43,0,0,0-1.12-.42,2.23,2.23,0,0,0-1.33.43,4.71,4.71,0,0,0-1.08,1.25v6.73H60.08v-9.49H61.5l.14,1.41A3.73,3.73,0,0,1,62.89,120a3.23,3.23,0,0,1,1.65-.43A2.62,2.62,0,0,1,66.56,120.3Z" fill="#fff"/><path d="M77.21,127.87a1.14,1.14,0,0,0,.59.42l-.37,1.15a2.46,2.46,0,0,1-1.19-.41,1.94,1.94,0,0,1-.67-1,3.16,3.16,0,0,1-2.82,1.42,3,3,0,0,1-2.22-.79,2.77,2.77,0,0,1-.81-2.07,2.73,2.73,0,0,1,1.09-2.32,5.12,5.12,0,0,1,3.09-.81h1.46v-.7a1.83,1.83,0,0,0-.49-1.44,2.17,2.17,0,0,0-1.49-.43,8.23,8.23,0,0,0-2.56.5l-.41-1.21a9.5,9.5,0,0,1,3.27-.64,3.43,3.43,0,0,1,2.51.82,3.12,3.12,0,0,1,.82,2.33V127A1.52,1.52,0,0,0,77.21,127.87Zm-1.85-1.14v-2.18H74.12c-1.76,0-2.63.65-2.63,1.94a1.8,1.8,0,0,0,.41,1.28,1.62,1.62,0,0,0,1.23.43A2.48,2.48,0,0,0,75.36,126.73Z" fill="#fff"/><path d="M80.86,128.9a2.11,2.11,0,0,1-.53-1.54V115.93l1.65-.2v11.59a1,1,0,0,0,.14.58.53.53,0,0,0,.46.18,1.7,1.7,0,0,0,.61-.11l.43,1.15a2.66,2.66,0,0,1-1.32.32A1.92,1.92,0,0,1,80.86,128.9Z" fill="#fff"/><path d="M93.34,120.17a5.34,5.34,0,0,1-1.19.24c-.43,0-1,0-1.58,0a2.51,2.51,0,0,1,1.67,2.4,3,3,0,0,1-1,2.32,3.75,3.75,0,0,1-2.65.9,3.87,3.87,0,0,1-1.2-.18,1,1,0,0,0-.35.39,1.07,1.07,0,0,0-.12.49c0,.52.41.77,1.24.77H89.7a3.92,3.92,0,0,1,1.69.35,2.68,2.68,0,0,1,1.15.93,2.35,2.35,0,0,1,.4,1.35,2.39,2.39,0,0,1-1.13,2.13,6,6,0,0,1-3.31.75,7.48,7.48,0,0,1-2.42-.31,2.28,2.28,0,0,1-1.27-.95,3,3,0,0,1-.38-1.62h1.49a1.59,1.59,0,0,0,.22.91,1.38,1.38,0,0,0,.77.51,5.85,5.85,0,0,0,1.59.17,4.61,4.61,0,0,0,2.13-.37,1.2,1.2,0,0,0,.64-1.11,1.15,1.15,0,0,0-.51-1,2.44,2.44,0,0,0-1.4-.34H87.87a2.81,2.81,0,0,1-1.83-.51,1.62,1.62,0,0,1-.62-1.29,1.68,1.68,0,0,1,.27-.9,2.57,2.57,0,0,1,.77-.77,3,3,0,0,1-1.21-1.07,3,3,0,0,1-.39-1.56,3.1,3.1,0,0,1,.48-1.71A3.19,3.19,0,0,1,86.65,120a4.1,4.1,0,0,1,1.86-.42,12.82,12.82,0,0,0,1.88-.09,5.74,5.74,0,0,0,1.25-.27,12.32,12.32,0,0,0,1.21-.49Zm-6.27,1.13a2.21,2.21,0,0,0-.52,1.54,2.29,2.29,0,0,0,.52,1.56,1.88,1.88,0,0,0,1.48.58,1.91,1.91,0,0,0,1.49-.57,2.28,2.28,0,0,0,.51-1.59,1.84,1.84,0,0,0-2-2.11A1.81,1.81,0,0,0,87.07,121.3Z" fill="#fff"/><path d="M101.64,127.87a1.14,1.14,0,0,0,.59.42l-.38,1.15a2.42,2.42,0,0,1-1.18-.41,1.88,1.88,0,0,1-.67-1,3.19,3.19,0,0,1-2.83,1.42,3,3,0,0,1-2.21-.79,2.77,2.77,0,0,1-.81-2.07,2.7,2.7,0,0,1,1.09-2.32,5.08,5.08,0,0,1,3.09-.81h1.45v-.7a1.86,1.86,0,0,0-.48-1.44,2.22,2.22,0,0,0-1.5-.43,8.17,8.17,0,0,0-2.55.5l-.42-1.21a9.6,9.6,0,0,1,3.28-.64,3.41,3.41,0,0,1,2.5.82,3.13,3.13,0,0,1,.83,2.33V127A1.44,1.44,0,0,0,101.64,127.87Zm-1.86-1.14v-2.18H98.54c-1.75,0-2.63.65-2.63,1.94a1.76,1.76,0,0,0,.42,1.28,1.59,1.59,0,0,0,1.22.43A2.47,2.47,0,0,0,99.78,126.73Z" fill="#fff"/><path d="M111.33,120.3a3,3,0,0,1,.73,2.12v6.81H110.4v-6.57a2,2,0,0,0-.38-1.42,1.41,1.41,0,0,0-1.11-.42,2.2,2.2,0,0,0-1.33.43,4.37,4.37,0,0,0-1.08,1.25v6.73h-1.66v-9.49h1.42l.15,1.41a3.64,3.64,0,0,1,1.25-1.19,3.22,3.22,0,0,1,1.64-.43A2.64,2.64,0,0,1,111.33,120.3Z" fill="#fff"/><path d="M123,120.17a5.34,5.34,0,0,1-1.19.24c-.43,0-1,0-1.58,0a2.51,2.51,0,0,1,1.67,2.4,3,3,0,0,1-1,2.32,3.75,3.75,0,0,1-2.65.9,3.87,3.87,0,0,1-1.2-.18,1,1,0,0,0-.35.39,1.07,1.07,0,0,0-.12.49c0,.52.41.77,1.24.77h1.51a3.92,3.92,0,0,1,1.69.35,2.68,2.68,0,0,1,1.15.93,2.35,2.35,0,0,1,.4,1.35,2.39,2.39,0,0,1-1.13,2.13,6,6,0,0,1-3.31.75,7.48,7.48,0,0,1-2.42-.31,2.28,2.28,0,0,1-1.27-.95,3,3,0,0,1-.38-1.62h1.49a1.59,1.59,0,0,0,.22.91,1.38,1.38,0,0,0,.77.51,5.85,5.85,0,0,0,1.59.17,4.61,4.61,0,0,0,2.13-.37,1.2,1.2,0,0,0,.64-1.11,1.15,1.15,0,0,0-.51-1,2.44,2.44,0,0,0-1.4-.34h-1.49a2.81,2.81,0,0,1-1.83-.51,1.62,1.62,0,0,1-.62-1.29,1.68,1.68,0,0,1,.27-.9,2.57,2.57,0,0,1,.77-.77A3,3,0,0,1,115,124.4a3,3,0,0,1-.39-1.56,3.1,3.1,0,0,1,.48-1.71,3.19,3.19,0,0,1,1.31-1.18,4.1,4.1,0,0,1,1.86-.42,12.82,12.82,0,0,0,1.88-.09,5.74,5.74,0,0,0,1.25-.27,12.32,12.32,0,0,0,1.21-.49Zm-6.27,1.13a2.21,2.21,0,0,0-.52,1.54,2.29,2.29,0,0,0,.52,1.56,1.88,1.88,0,0,0,1.48.58,1.91,1.91,0,0,0,1.49-.57,2.28,2.28,0,0,0,.51-1.59,1.84,1.84,0,0,0-2-2.11A1.81,1.81,0,0,0,116.77,121.3Z" fill="#fff"/><path d="M125.19,128.9a2.11,2.11,0,0,1-.53-1.54V115.93l1.65-.2v11.59a1,1,0,0,0,.14.58.53.53,0,0,0,.46.18,1.66,1.66,0,0,0,.61-.11l.43,1.15a2.62,2.62,0,0,1-1.31.32A1.94,1.94,0,0,1,125.19,128.9Z" fill="#fff"/><path d="M131.68,115.51a1.13,1.13,0,0,1,.32.81,1.08,1.08,0,0,1-.32.8,1.18,1.18,0,0,1-.85.32,1.16,1.16,0,0,1-.83-.32,1.08,1.08,0,0,1-.32-.8,1.13,1.13,0,0,1,.32-.81,1.16,1.16,0,0,1,.83-.32A1.18,1.18,0,0,1,131.68,115.51Zm0,13.72H130v-9.49h1.66Z" fill="#fff"/><path d="M141.77,120.86a5.53,5.53,0,0,1,1.1,3.62,6.25,6.25,0,0,1-.5,2.6,3.92,3.92,0,0,1-1.46,1.74,4,4,0,0,1-2.27.62,3.82,3.82,0,0,1-3.11-1.33,5.48,5.48,0,0,1-1.12-3.62,6.25,6.25,0,0,1,.51-2.6,3.86,3.86,0,0,1,1.46-1.74,4,4,0,0,1,2.28-.62A3.82,3.82,0,0,1,141.77,120.86Zm-5.57,3.63c0,2.42.81,3.62,2.44,3.62s2.45-1.21,2.45-3.63-.81-3.62-2.43-3.62S136.2,122.07,136.2,124.49Z" fill="#fff"/><path d="M152.1,120.3a3,3,0,0,1,.73,2.12v6.81h-1.66v-6.57a2,2,0,0,0-.38-1.42,1.41,1.41,0,0,0-1.11-.42,2.18,2.18,0,0,0-1.33.43,4.37,4.37,0,0,0-1.08,1.25v6.73h-1.66v-9.49H147l.15,1.41a3.64,3.64,0,0,1,1.25-1.19,3.16,3.16,0,0,1,1.64-.43A2.64,2.64,0,0,1,152.1,120.3Z" fill="#fff"/><path d="M34.93,253.47a3.05,3.05,0,0,1,.71,2.12v6.8H34v-6.57c0-1.22-.44-1.83-1.33-1.83a1.78,1.78,0,0,0-1.19.4,5.64,5.64,0,0,0-1,1.27v6.73H28.76v-6.57c0-1.22-.44-1.83-1.33-1.83a1.79,1.79,0,0,0-1.21.41,6,6,0,0,0-1,1.26v6.73H23.54v-9.48H25l.15,1.38a3.16,3.16,0,0,1,2.73-1.6,2.52,2.52,0,0,1,1.51.45,2.49,2.49,0,0,1,.89,1.26,4.4,4.4,0,0,1,1.23-1.27,2.87,2.87,0,0,1,1.59-.44A2.38,2.38,0,0,1,34.93,253.47Z" fill="#fff"/><path d="M45.64,254a5.55,5.55,0,0,1,1.1,3.62,6.41,6.41,0,0,1-.5,2.6A4,4,0,0,1,44.78,262a4.1,4.1,0,0,1-2.27.62,3.85,3.85,0,0,1-3.11-1.33,5.44,5.44,0,0,1-1.12-3.62,6.22,6.22,0,0,1,.51-2.6,3.93,3.93,0,0,1,1.45-1.75,4.15,4.15,0,0,1,2.29-.62A3.82,3.82,0,0,1,45.64,254Zm-5.58,3.64q0,3.61,2.45,3.62c1.63,0,2.45-1.22,2.45-3.64S44.15,254,42.53,254,40.06,255.23,40.06,257.66Z" fill="#fff"/><path d="M54.27,262a3.7,3.7,0,0,1-2.13.65,2.48,2.48,0,0,1-1.88-.7,2.75,2.75,0,0,1-.67-2v-5.73H47.93v-1.27h1.66v-2.15l1.65-.19v2.34h2.25l-.18,1.27H51.24v5.65a1.8,1.8,0,0,0,.26,1.08,1.07,1.07,0,0,0,.88.33,2.49,2.49,0,0,0,1.26-.41Z" fill="#fff"/><path d="M62.47,254a5.55,5.55,0,0,1,1.1,3.62,6.41,6.41,0,0,1-.5,2.6A4,4,0,0,1,61.61,262a4.1,4.1,0,0,1-2.27.62,3.85,3.85,0,0,1-3.11-1.33,5.44,5.44,0,0,1-1.12-3.62,6.22,6.22,0,0,1,.51-2.6,3.93,3.93,0,0,1,1.45-1.75,4.15,4.15,0,0,1,2.29-.62A3.82,3.82,0,0,1,62.47,254Zm-5.58,3.64q0,3.61,2.45,3.62c1.63,0,2.45-1.22,2.45-3.64S61,254,59.36,254,56.89,255.23,56.89,257.66Z" fill="#fff"/><path d="M71.37,252.8l-.31,1.62a3.51,3.51,0,0,0-.83-.11,1.76,1.76,0,0,0-1.42.65,4.86,4.86,0,0,0-.85,2v5.42H66.31v-9.48h1.42l.16,1.92a3.58,3.58,0,0,1,1-1.6,2.27,2.27,0,0,1,1.51-.54A4,4,0,0,1,71.37,252.8Z" fill="#fff"/><path d="M74.91,248.68a1.15,1.15,0,0,1,0,1.61,1.15,1.15,0,0,1-.84.31,1.12,1.12,0,0,1-.83-.31,1.15,1.15,0,0,1,0-1.61,1.1,1.1,0,0,1,.83-.33A1.12,1.12,0,0,1,74.91,248.68Zm0,13.71H73.26v-9.48h1.65Z" fill="#fff"/><path d="M82.65,253a5.25,5.25,0,0,1,1.48.81l-.7,1a6.15,6.15,0,0,0-1.24-.61A3.87,3.87,0,0,0,81,254a2.11,2.11,0,0,0-1.28.34,1.12,1.12,0,0,0,0,1.81,5.34,5.34,0,0,0,1.59.63,5.69,5.69,0,0,1,2.37,1.08,2.35,2.35,0,0,1,.78,1.87,2.42,2.42,0,0,1-1.09,2.14,4.65,4.65,0,0,1-2.66.74,5.28,5.28,0,0,1-3.58-1.24l.88-1a4.34,4.34,0,0,0,2.67.92,2.5,2.5,0,0,0,1.48-.39,1.22,1.22,0,0,0,.55-1.06,1.33,1.33,0,0,0-.2-.78,1.59,1.59,0,0,0-.68-.52,9.52,9.52,0,0,0-1.42-.48A4.76,4.76,0,0,1,78.16,257a2.27,2.27,0,0,1-.67-1.69,2.18,2.18,0,0,1,.44-1.34,2.84,2.84,0,0,1,1.22-.94,4.49,4.49,0,0,1,1.76-.33A5.25,5.25,0,0,1,82.65,253Z" fill="#fff"/><path d="M91.74,252.93a4.26,4.26,0,0,1,1.35.79l-.79,1a4,4,0,0,0-1-.53,3,3,0,0,0-1-.17,2,2,0,0,0-1.79.92,4.7,4.7,0,0,0-.64,2.71,4.51,4.51,0,0,0,.63,2.66,2.1,2.1,0,0,0,1.8.85,2.8,2.8,0,0,0,1-.17,4.87,4.87,0,0,0,1-.55l.75,1.08a4.48,4.48,0,0,1-2.9,1.05,3.77,3.77,0,0,1-3-1.3,5.33,5.33,0,0,1-1.11-3.58,6.43,6.43,0,0,1,.51-2.65A4,4,0,0,1,88,253.32a3.82,3.82,0,0,1,2.2-.63A4.76,4.76,0,0,1,91.74,252.93Z" fill="#fff"/><path d="M101.83,253.46a3,3,0,0,1,.73,2.13v6.8H100.9v-6.57a2.12,2.12,0,0,0-.38-1.42,1.47,1.47,0,0,0-1.13-.41,2.1,2.1,0,0,0-1.31.43A4.36,4.36,0,0,0,97,255.64v6.75H95.34V249.11l1.66-.18v5.29a3.35,3.35,0,0,1,2.81-1.53A2.65,2.65,0,0,1,101.83,253.46Z" fill="#fff"/><path d="M113,258.22h-6a3.71,3.71,0,0,0,.79,2.3,2.32,2.32,0,0,0,1.77.74,4,4,0,0,0,1.26-.2,5,5,0,0,0,1.2-.63l.72,1a5.26,5.26,0,0,1-3.31,1.19,3.83,3.83,0,0,1-3.09-1.3,5.29,5.29,0,0,1-1.1-3.56,6.69,6.69,0,0,1,.47-2.62,4.15,4.15,0,0,1,1.37-1.79,3.89,3.89,0,0,1,5,.59,5.34,5.34,0,0,1,1,3.44C113.05,257.65,113,257.93,113,258.22Zm-1.6-1.34a3.52,3.52,0,0,0-.56-2.14,2,2,0,0,0-1.68-.74c-1.35,0-2.09,1-2.21,3h4.45Z" fill="#fff"/><path d="M129.34,262.39h-2.28l-5-10.53c.07.83.13,1.59.17,2.3s.06,1.55.06,2.54v5.69h-1.6V250h2.23l5.1,10.55c0-.31-.09-.86-.15-1.64s-.09-1.49-.09-2.14V250h1.6Z" fill="#fff"/><path d="M140,258.22h-6a3.71,3.71,0,0,0,.8,2.3,2.29,2.29,0,0,0,1.76.74,3.87,3.87,0,0,0,1.26-.2,5,5,0,0,0,1.21-.63l.72,1a5.28,5.28,0,0,1-3.32,1.19,3.81,3.81,0,0,1-3.08-1.3,5.29,5.29,0,0,1-1.11-3.56,6.69,6.69,0,0,1,.48-2.62,4.08,4.08,0,0,1,1.37-1.79,3.46,3.46,0,0,1,2.09-.65,3.51,3.51,0,0,1,2.9,1.24,5.34,5.34,0,0,1,1,3.44A8.19,8.19,0,0,1,140,258.22Zm-1.6-1.34a3.52,3.52,0,0,0-.56-2.14,2,2,0,0,0-1.67-.74c-1.36,0-2.1,1-2.22,3h4.45Z" fill="#fff"/><path d="M147.81,252.8l-.3,1.62a3.58,3.58,0,0,0-.83-.11,1.76,1.76,0,0,0-1.42.65,4.73,4.73,0,0,0-.85,2v5.42h-1.66v-9.48h1.43l.16,1.92a3.57,3.57,0,0,1,1-1.6,2.32,2.32,0,0,1,1.52-.54A4,4,0,0,1,147.81,252.8Z" fill="#fff"/><path d="M153.63,262.39h-2l-3.28-9.48h1.8l2.49,8,2.46-8h1.75Z" fill="#fff"/><path d="M165.69,258.22h-6.05a3.65,3.65,0,0,0,.79,2.3,2.3,2.3,0,0,0,1.76.74,3.87,3.87,0,0,0,1.26-.2,4.85,4.85,0,0,0,1.21-.63l.72,1a5.26,5.26,0,0,1-3.31,1.19,3.83,3.83,0,0,1-3.09-1.3,5.29,5.29,0,0,1-1.11-3.56,6.69,6.69,0,0,1,.48-2.62,4.08,4.08,0,0,1,1.37-1.79,3.46,3.46,0,0,1,2.09-.65,3.51,3.51,0,0,1,2.9,1.24,5.28,5.28,0,0,1,1,3.44C165.72,257.65,165.71,257.93,165.69,258.22Zm-1.61-1.34a3.45,3.45,0,0,0-.56-2.14,2,2,0,0,0-1.67-.74c-1.36,0-2.09,1-2.21,3h4.44Z" fill="#fff"/><path d="M175,253.46a3,3,0,0,1,.72,2.13v6.8H174v-6.57a2.12,2.12,0,0,0-.38-1.42,1.42,1.42,0,0,0-1.12-.41,2.16,2.16,0,0,0-1.33.43,4.65,4.65,0,0,0-1.08,1.24v6.73h-1.65v-9.48h1.42l.14,1.4a3.93,3.93,0,0,1,1.25-1.19,3.23,3.23,0,0,1,1.65-.43A2.69,2.69,0,0,1,175,253.46Z" fill="#fff"/><path d="M393.69,57.41h-5.22v5.82h-1.71V50.83h1.71V56h5.22V50.83h1.71v12.4h-1.71Z" fill="#fff"/><path d="M400.57,49.51a1.13,1.13,0,0,1,.32.81,1.08,1.08,0,0,1-.32.8,1.18,1.18,0,0,1-.85.32,1.15,1.15,0,0,1-.83-.32,1.08,1.08,0,0,1-.32-.8,1.13,1.13,0,0,1,.32-.81,1.15,1.15,0,0,1,.83-.32A1.18,1.18,0,0,1,400.57,49.51Zm0,13.72h-1.66V53.74h1.66Z" fill="#fff"/><path d="M410.48,54.3a3,3,0,0,1,.72,2.12v6.81h-1.65V56.66a2.1,2.1,0,0,0-.38-1.42,1.42,1.42,0,0,0-1.12-.42,2.23,2.23,0,0,0-1.33.43,4.71,4.71,0,0,0-1.08,1.25v6.73H404V53.74h1.42l.14,1.41A3.83,3.83,0,0,1,406.8,54a3.23,3.23,0,0,1,1.65-.43A2.65,2.65,0,0,1,410.48,54.3Z" fill="#fff"/><path d="M419.32,62.8a3.63,3.63,0,0,1-2.12.64,2.51,2.51,0,0,1-1.88-.69,2.76,2.76,0,0,1-.68-2V55H413V53.74h1.65V51.6l1.66-.2v2.34h2.25L418.37,55H416.3v5.65a1.77,1.77,0,0,0,.26,1.07,1,1,0,0,0,.87.34,2.36,2.36,0,0,0,1.26-.42Z" fill="#fff"/><path d="M428,59.05h-6.05a3.74,3.74,0,0,0,.79,2.31,2.32,2.32,0,0,0,1.77.73,4,4,0,0,0,1.26-.19,5.81,5.81,0,0,0,1.2-.63l.72,1a5.22,5.22,0,0,1-3.31,1.18,3.82,3.82,0,0,1-3.08-1.29,5.32,5.32,0,0,1-1.11-3.57,6.76,6.76,0,0,1,.48-2.62A4.12,4.12,0,0,1,422,54.17a3.91,3.91,0,0,1,5,.6,5.32,5.32,0,0,1,1,3.44C428,58.48,428,58.76,428,59.05Zm-1.6-1.33a3.5,3.5,0,0,0-.56-2.14,2,2,0,0,0-1.67-.74c-1.36,0-2.1,1-2.22,3h4.45Z" fill="#fff"/><path d="M435.81,53.63l-.31,1.62a3.4,3.4,0,0,0-.82-.1,1.79,1.79,0,0,0-1.43.64,4.85,4.85,0,0,0-.84,2v5.42h-1.66V53.74h1.42l.17,1.93a3.57,3.57,0,0,1,1-1.6,2.3,2.3,0,0,1,1.52-.54A4,4,0,0,1,435.81,53.63Z" fill="#fff"/><path d="M444.19,54.3a3,3,0,0,1,.73,2.12v6.81h-1.66V56.66a2.1,2.1,0,0,0-.38-1.42,1.47,1.47,0,0,0-1.13-.42,2.17,2.17,0,0,0-1.31.43,4.41,4.41,0,0,0-1.08,1.23v6.75H437.7V49.94l1.66-.18v5.3a3.35,3.35,0,0,1,2.8-1.53A2.64,2.64,0,0,1,444.19,54.3Z" fill="#fff"/><path d="M454.92,54.86a5.47,5.47,0,0,1,1.1,3.62,6.25,6.25,0,0,1-.5,2.6,3.92,3.92,0,0,1-1.46,1.74,4,4,0,0,1-2.27.62,3.82,3.82,0,0,1-3.11-1.33,5.48,5.48,0,0,1-1.12-3.62,6.25,6.25,0,0,1,.51-2.6,3.86,3.86,0,0,1,1.46-1.74,4,4,0,0,1,2.28-.62A3.82,3.82,0,0,1,454.92,54.86Zm-5.57,3.63c0,2.42.81,3.62,2.44,3.62s2.45-1.21,2.45-3.63-.81-3.62-2.43-3.62S449.35,56.07,449.35,58.49Z" fill="#fff"/><path d="M463.82,53.63l-.31,1.62a3.48,3.48,0,0,0-.83-.1,1.77,1.77,0,0,0-1.42.64,4.85,4.85,0,0,0-.84,2v5.42h-1.66V53.74h1.42l.16,1.93a3.67,3.67,0,0,1,1-1.6,2.29,2.29,0,0,1,1.51-.54A4,4,0,0,1,463.82,53.63Z" fill="#fff"/><path d="M472.2,54.3a3,3,0,0,1,.73,2.12v6.81h-1.66V56.66a2.1,2.1,0,0,0-.38-1.42,1.41,1.41,0,0,0-1.11-.42,2.23,2.23,0,0,0-1.34.43,4.71,4.71,0,0,0-1.08,1.25v6.73h-1.65V53.74h1.42l.14,1.41A3.76,3.76,0,0,1,468.53,54a3.16,3.16,0,0,1,1.64-.43A2.64,2.64,0,0,1,472.2,54.3Z" fill="#fff"/><path d="M249.8,36.17a5.34,5.34,0,0,1-1.19.24c-.43,0-1,.05-1.58.05a2.51,2.51,0,0,1,1.67,2.4,3,3,0,0,1-1,2.32,3.75,3.75,0,0,1-2.65.9,3.87,3.87,0,0,1-1.2-.18,1,1,0,0,0-.35.39,1.07,1.07,0,0,0-.12.49c0,.52.41.77,1.24.77h1.51a3.92,3.92,0,0,1,1.69.35,2.68,2.68,0,0,1,1.15.93,2.35,2.35,0,0,1,.4,1.35,2.39,2.39,0,0,1-1.13,2.13,6,6,0,0,1-3.31.75,7.48,7.48,0,0,1-2.42-.31,2.28,2.28,0,0,1-1.27-1,3.13,3.13,0,0,1-.38-1.62h1.49a1.59,1.59,0,0,0,.22.91,1.38,1.38,0,0,0,.77.51,5.85,5.85,0,0,0,1.59.17,4.61,4.61,0,0,0,2.13-.37,1.2,1.2,0,0,0,.64-1.11,1.16,1.16,0,0,0-.5-1,2.49,2.49,0,0,0-1.41-.34h-1.49a2.81,2.81,0,0,1-1.83-.51,1.62,1.62,0,0,1-.62-1.29,1.68,1.68,0,0,1,.27-.9,2.57,2.57,0,0,1,.77-.77,3,3,0,0,1-1.21-1.07,3,3,0,0,1-.39-1.56,3.1,3.1,0,0,1,.48-1.71A3.19,3.19,0,0,1,243.11,36a4.11,4.11,0,0,1,1.87-.42,12.76,12.76,0,0,0,1.87-.09,5.74,5.74,0,0,0,1.25-.27,12.32,12.32,0,0,0,1.21-.49Zm-6.27,1.13a2.21,2.21,0,0,0-.52,1.54,2.29,2.29,0,0,0,.52,1.56A1.88,1.88,0,0,0,245,41a1.91,1.91,0,0,0,1.49-.57,2.28,2.28,0,0,0,.51-1.59,2,2,0,0,0-3.48-1.52Z" fill="#fff"/><path d="M256.57,35.63l-.31,1.62a3.48,3.48,0,0,0-.83-.1,1.75,1.75,0,0,0-1.42.64,5,5,0,0,0-.85,2v5.42h-1.65V35.74h1.42l.16,1.93a3.58,3.58,0,0,1,1-1.6,2.27,2.27,0,0,1,1.51-.54A4,4,0,0,1,256.57,35.63Z" fill="#fff"/><path d="M264.68,43.87a1.17,1.17,0,0,0,.6.42l-.38,1.15a2.5,2.5,0,0,1-1.19-.41,1.87,1.87,0,0,1-.66-1,3.19,3.19,0,0,1-2.83,1.42,3,3,0,0,1-2.21-.79,2.77,2.77,0,0,1-.81-2.07,2.7,2.7,0,0,1,1.09-2.32,5.06,5.06,0,0,1,3.08-.81h1.46v-.7a1.83,1.83,0,0,0-.49-1.44,2.17,2.17,0,0,0-1.49-.43,8.23,8.23,0,0,0-2.56.5l-.41-1.21a9.6,9.6,0,0,1,3.28-.64,3.41,3.41,0,0,1,2.5.82,3.13,3.13,0,0,1,.83,2.33V43A1.52,1.52,0,0,0,264.68,43.87Zm-1.85-1.14V40.55h-1.24c-1.75,0-2.63.65-2.63,1.94a1.8,1.8,0,0,0,.41,1.28,1.63,1.63,0,0,0,1.23.43A2.47,2.47,0,0,0,262.83,42.73Z" fill="#fff"/><path d="M274.94,45.23h-1.42l-.12-1.48A3.61,3.61,0,0,1,272.15,45a3.33,3.33,0,0,1-1.71.4,2.54,2.54,0,0,1-1.94-.75,3,3,0,0,1-.7-2.14V35.74h1.65v6.63a2.13,2.13,0,0,0,.35,1.37,1.37,1.37,0,0,0,1.11.41,2.82,2.82,0,0,0,2.38-1.64V35.74h1.65Z" fill="#fff"/><path d="M285.49,41.05h-6.05a3.74,3.74,0,0,0,.8,2.31,2.28,2.28,0,0,0,1.76.73,3.87,3.87,0,0,0,1.26-.19,5.87,5.87,0,0,0,1.21-.63l.72,1a5.27,5.27,0,0,1-3.32,1.18,3.84,3.84,0,0,1-3.08-1.29,5.32,5.32,0,0,1-1.11-3.57,6.76,6.76,0,0,1,.48-2.62,4.14,4.14,0,0,1,1.37-1.79,3.46,3.46,0,0,1,2.09-.64,3.51,3.51,0,0,1,2.9,1.24,5.32,5.32,0,0,1,1,3.44A8.13,8.13,0,0,1,285.49,41.05Zm-1.6-1.33a3.5,3.5,0,0,0-.56-2.14,2,2,0,0,0-1.67-.74c-1.36,0-2.1,1-2.22,3h4.45Z" fill="#fff"/><path d="M298.31,33A5.73,5.73,0,0,1,300,34.05l-.94,1a5.58,5.58,0,0,0-1.37-.82,4.14,4.14,0,0,0-1.45-.26,2.71,2.71,0,0,0-1.61.45,1.52,1.52,0,0,0-.63,1.32,1.83,1.83,0,0,0,.22.91,1.91,1.91,0,0,0,.8.67,10.21,10.21,0,0,0,1.7.65,11.82,11.82,0,0,1,1.95.77,3.45,3.45,0,0,1,1.25,1.15,3.35,3.35,0,0,1,.47,1.84,3.41,3.41,0,0,1-.53,1.91,3.58,3.58,0,0,1-1.53,1.3,5.52,5.52,0,0,1-2.36.46,5.79,5.79,0,0,1-4.22-1.6l1-1.06a5.51,5.51,0,0,0,1.51.95A4.56,4.56,0,0,0,296,44a3.09,3.09,0,0,0,1.91-.57,1.92,1.92,0,0,0,.75-1.64,2.08,2.08,0,0,0-.23-1,2.13,2.13,0,0,0-.8-.73,8.29,8.29,0,0,0-1.65-.65,7.22,7.22,0,0,1-2.79-1.38,2.84,2.84,0,0,1-.88-2.2,2.92,2.92,0,0,1,.49-1.67A3.32,3.32,0,0,1,294.16,33a4.83,4.83,0,0,1,2-.41A5.86,5.86,0,0,1,298.31,33Z" fill="#fff"/><path d="M309.9,45.23h-1.42l-.13-1.48A3.59,3.59,0,0,1,307.11,45a3.38,3.38,0,0,1-1.71.4,2.51,2.51,0,0,1-1.94-.75,3,3,0,0,1-.71-2.14V35.74h1.66v6.63a2.13,2.13,0,0,0,.34,1.37,1.39,1.39,0,0,0,1.12.41,2.85,2.85,0,0,0,2.38-1.64V35.74h1.65Z" fill="#fff"/><path d="M320.23,36.83a6.07,6.07,0,0,1,1,3.65,7,7,0,0,1-.45,2.6,3.89,3.89,0,0,1-1.3,1.74,3.2,3.2,0,0,1-2,.62,3.12,3.12,0,0,1-2.52-1.26l-.16,1h-1.46V31.93l1.66-.2v5.2a3.15,3.15,0,0,1,2.68-1.4A3,3,0,0,1,320.23,36.83Zm-1.45,6.41a4.84,4.84,0,0,0,.62-2.76,5.22,5.22,0,0,0-.57-2.79,1.89,1.89,0,0,0-1.64-.85A2.66,2.66,0,0,0,315,38.32v4.53a3,3,0,0,0,.92.94,2.17,2.17,0,0,0,1.16.34A2,2,0,0,0,318.78,43.24Z" fill="#fff"/><path d="M328.33,35.8a5.25,5.25,0,0,1,1.48.81l-.7,1a5.66,5.66,0,0,0-1.24-.61,3.87,3.87,0,0,0-1.23-.2,2.19,2.19,0,0,0-1.28.33,1.08,1.08,0,0,0-.47.91,1,1,0,0,0,.44.9,5,5,0,0,0,1.6.63,5.84,5.84,0,0,1,2.36,1.08,2.34,2.34,0,0,1,.79,1.87A2.46,2.46,0,0,1,329,44.71a4.65,4.65,0,0,1-2.66.73,5.24,5.24,0,0,1-3.58-1.24l.88-1a4.28,4.28,0,0,0,2.67.92,2.57,2.57,0,0,0,1.48-.38,1.22,1.22,0,0,0,.55-1.06,1.33,1.33,0,0,0-.2-.78,1.59,1.59,0,0,0-.68-.52,9.52,9.52,0,0,0-1.42-.48,4.86,4.86,0,0,1-2.19-1.06,2.28,2.28,0,0,1-.67-1.69,2.2,2.2,0,0,1,.44-1.35,2.83,2.83,0,0,1,1.22-.93,4.49,4.49,0,0,1,1.76-.33A5.25,5.25,0,0,1,328.33,35.8Z" fill="#fff"/><path d="M337.21,44.8a3.69,3.69,0,0,1-2.13.64,2.51,2.51,0,0,1-1.88-.69,2.76,2.76,0,0,1-.67-2V37h-1.66V35.74h1.66V33.6l1.65-.2v2.34h2.25L336.25,37h-2.07v5.65a1.77,1.77,0,0,0,.26,1.07,1,1,0,0,0,.88.34,2.41,2.41,0,0,0,1.26-.42Z" fill="#fff"/><path d="M345.5,43.87a1.17,1.17,0,0,0,.6.42l-.38,1.15a2.5,2.5,0,0,1-1.19-.41,1.87,1.87,0,0,1-.66-1A3.19,3.19,0,0,1,341,45.44a3,3,0,0,1-2.21-.79,2.77,2.77,0,0,1-.81-2.07,2.7,2.7,0,0,1,1.09-2.32,5.06,5.06,0,0,1,3.08-.81h1.46v-.7a1.83,1.83,0,0,0-.49-1.44,2.17,2.17,0,0,0-1.49-.43,8.23,8.23,0,0,0-2.56.5l-.41-1.21a9.6,9.6,0,0,1,3.28-.64,3.41,3.41,0,0,1,2.5.82,3.13,3.13,0,0,1,.83,2.33V43A1.52,1.52,0,0,0,345.5,43.87Zm-1.85-1.14V40.55h-1.24c-1.75,0-2.63.65-2.63,1.94a1.8,1.8,0,0,0,.41,1.28,1.63,1.63,0,0,0,1.23.43A2.47,2.47,0,0,0,343.65,42.73Z" fill="#fff"/><path d="M355.2,36.3a3,3,0,0,1,.73,2.12v6.81h-1.66V38.66a2.1,2.1,0,0,0-.38-1.42,1.41,1.41,0,0,0-1.11-.42,2.23,2.23,0,0,0-1.34.43,4.71,4.71,0,0,0-1.08,1.25v6.73h-1.65V35.74h1.42l.14,1.41A3.76,3.76,0,0,1,351.53,36a3.16,3.16,0,0,1,1.64-.43A2.64,2.64,0,0,1,355.2,36.3Z" fill="#fff"/><path d="M364.82,37l-4.95,6.84h5l-.2,1.39H358V44l4.93-6.84h-4.52V35.74h6.41Z" fill="#fff"/><path d="M95,51.43a3,3,0,0,1,.72,2.12v6.81H94.06V53.79a2,2,0,0,0-.39-1.42A1.45,1.45,0,0,0,92.55,52a2.2,2.2,0,0,0-1.32.43,4.75,4.75,0,0,0-1.08,1.23v6.75H88.5V47.07l1.65-.18v5.3A3.37,3.37,0,0,1,93,50.66,2.64,2.64,0,0,1,95,51.43Z" fill="#fff"/><path d="M100.7,46.64a1.1,1.1,0,0,1,.33.81,1,1,0,0,1-.33.8,1.16,1.16,0,0,1-.85.32,1.12,1.12,0,0,1-.82-.32,1,1,0,0,1-.33-.8,1.1,1.1,0,0,1,.33-.81,1.12,1.12,0,0,1,.82-.32A1.16,1.16,0,0,1,100.7,46.64Zm0,13.72H99V50.87h1.66Z" fill="#fff"/><path d="M110.61,51.43a3,3,0,0,1,.73,2.12v6.81h-1.66V53.79a2,2,0,0,0-.38-1.42,1.41,1.41,0,0,0-1.11-.42,2.2,2.2,0,0,0-1.33.43,4.37,4.37,0,0,0-1.08,1.25v6.73h-1.66V50.87h1.42l.15,1.41a3.64,3.64,0,0,1,1.25-1.19,3.22,3.22,0,0,1,1.64-.43A2.64,2.64,0,0,1,110.61,51.43Z" fill="#fff"/><path d="M119.46,59.93a3.66,3.66,0,0,1-2.13.64,2.51,2.51,0,0,1-1.88-.69,2.76,2.76,0,0,1-.67-2V52.15h-1.66V50.87h1.66V48.73l1.65-.2v2.34h2.25l-.18,1.28h-2.07V57.8a1.77,1.77,0,0,0,.26,1.07,1,1,0,0,0,.88.34,2.41,2.41,0,0,0,1.26-.42Z" fill="#fff"/><path d="M128.12,56.18h-6.05a3.68,3.68,0,0,0,.79,2.31,2.29,2.29,0,0,0,1.76.73,3.87,3.87,0,0,0,1.26-.19,5.63,5.63,0,0,0,1.21-.63l.72,1a5.24,5.24,0,0,1-3.31,1.18,3.86,3.86,0,0,1-3.09-1.29,5.32,5.32,0,0,1-1.11-3.57,6.68,6.68,0,0,1,.48-2.61,4.11,4.11,0,0,1,1.37-1.8,3.47,3.47,0,0,1,2.1-.64,3.5,3.5,0,0,1,2.89,1.24,5.26,5.26,0,0,1,1,3.44Q128.15,55.75,128.12,56.18Zm-1.61-1.33a3.5,3.5,0,0,0-.55-2.14,2,2,0,0,0-1.68-.74c-1.36,0-2.09,1-2.21,3h4.44Z" fill="#fff"/><path d="M135.94,50.76l-.3,1.62a3.54,3.54,0,0,0-.83-.1,1.75,1.75,0,0,0-1.42.64,5,5,0,0,0-.85,2v5.42h-1.65V50.87h1.42l.16,1.93a3.5,3.5,0,0,1,1-1.6,2.27,2.27,0,0,1,1.51-.54A3.9,3.9,0,0,1,135.94,50.76Z" fill="#fff"/><path d="M144.78,56.18h-6.05a3.74,3.74,0,0,0,.8,2.31,2.28,2.28,0,0,0,1.76.73,3.87,3.87,0,0,0,1.26-.19,5.87,5.87,0,0,0,1.21-.63l.72,1a5.27,5.27,0,0,1-3.32,1.18,3.84,3.84,0,0,1-3.08-1.29A5.32,5.32,0,0,1,137,55.71a6.68,6.68,0,0,1,.48-2.61,4.11,4.11,0,0,1,1.37-1.8,3.46,3.46,0,0,1,2.09-.64,3.51,3.51,0,0,1,2.9,1.24,5.32,5.32,0,0,1,1,3.44A8.13,8.13,0,0,1,144.78,56.18Zm-1.6-1.33a3.5,3.5,0,0,0-.56-2.14A2,2,0,0,0,141,52c-1.36,0-2.1,1-2.22,3h4.45Z" fill="#fff"/><path d="M162.51,60.36h-2.19L158,50l-2.3,10.39h-2.15L151.06,48h1.68l2,10.9L157.13,48H159l2.45,10.9L163.47,48H165Z" fill="#fff"/><path d="M174.07,60.36h-1.42l-.13-1.48a3.59,3.59,0,0,1-1.24,1.29,3.38,3.38,0,0,1-1.71.4,2.51,2.51,0,0,1-1.94-.75,3,3,0,0,1-.71-2.14V50.87h1.66V57.5a2.13,2.13,0,0,0,.34,1.37,1.39,1.39,0,0,0,1.12.41,2.82,2.82,0,0,0,2.37-1.64V50.87h1.66Z" fill="#fff"/><path d="M182.55,50.76l-.31,1.62a3.48,3.48,0,0,0-.83-.1,1.75,1.75,0,0,0-1.42.64,5,5,0,0,0-.85,2v5.42h-1.65V50.87h1.42l.16,1.93a3.58,3.58,0,0,1,1-1.6,2.27,2.27,0,0,1,1.51-.54A4,4,0,0,1,182.55,50.76Z" fill="#fff"/><path d="M190,52.13,185.05,59h5l-.2,1.39h-6.67V59.12l4.93-6.84h-4.52V50.87H190Z" fill="#fff"/><path d="M199.43,56.18h-6.05a3.74,3.74,0,0,0,.79,2.31,2.32,2.32,0,0,0,1.77.73A4,4,0,0,0,197.2,59a5.81,5.81,0,0,0,1.2-.63l.72,1a5.22,5.22,0,0,1-3.31,1.18,3.86,3.86,0,0,1-3.09-1.29,5.37,5.37,0,0,1-1.1-3.57,6.86,6.86,0,0,1,.47-2.61,4.19,4.19,0,0,1,1.37-1.8,3.91,3.91,0,0,1,5,.6,5.32,5.32,0,0,1,1,3.44C199.47,55.61,199.45,55.89,199.43,56.18Zm-1.6-1.33a3.5,3.5,0,0,0-.56-2.14A2,2,0,0,0,195.6,52c-1.36,0-2.1,1-2.22,3h4.45Z" fill="#fff"/><path d="M202.64,60a2.15,2.15,0,0,1-.53-1.54V47.06l1.66-.2V58.45a1,1,0,0,0,.13.58.55.55,0,0,0,.46.18,1.66,1.66,0,0,0,.61-.11l.44,1.15a2.69,2.69,0,0,1-1.32.32A2,2,0,0,1,202.64,60Z" fill="#fff"/><path d="M395.35,96.36H393.1l-1.66-8-1.71,8h-2.19l-2.22-9.49H387l1.71,8.34,1.87-8.34h1.85l1.79,8.34,1.72-8.34h1.59Z" fill="#fff"/><path d="M406.52,92.18h-6a3.68,3.68,0,0,0,.79,2.31,2.28,2.28,0,0,0,1.76.73,3.87,3.87,0,0,0,1.26-.19,5.63,5.63,0,0,0,1.21-.63l.72,1a5.24,5.24,0,0,1-3.31,1.18,3.86,3.86,0,0,1-3.09-1.29,5.32,5.32,0,0,1-1.11-3.57,6.68,6.68,0,0,1,.48-2.61,4.11,4.11,0,0,1,1.37-1.8,3.46,3.46,0,0,1,2.09-.64,3.51,3.51,0,0,1,2.9,1.24,5.32,5.32,0,0,1,1,3.44A8.13,8.13,0,0,1,406.52,92.18Zm-1.6-1.33a3.44,3.44,0,0,0-.56-2.14,2,2,0,0,0-1.67-.74c-1.36,0-2.09,1-2.21,3h4.44Z" fill="#fff"/><path d="M411,82.64a1.1,1.1,0,0,1,.33.81,1,1,0,0,1-.33.8,1.25,1.25,0,0,1-1.67,0,1,1,0,0,1-.32-.8,1.09,1.09,0,0,1,.32-.81,1.25,1.25,0,0,1,1.67,0Zm0,13.72H409.3V86.87H411Z" fill="#fff"/><path d="M419.71,83.2a2.66,2.66,0,0,1,1.12.93,2.22,2.22,0,0,1,.4,1.3,2,2,0,0,1-.31,1.17,4.32,4.32,0,0,1-.88.9,4.52,4.52,0,0,0-.62.6.89.89,0,0,0-.19.57,1,1,0,0,0,.31.72,6.22,6.22,0,0,0,.93.74,9.28,9.28,0,0,1,1.11.85,3.19,3.19,0,0,1,.73,1,3.29,3.29,0,0,1,.31,1.47,3.08,3.08,0,0,1-.44,1.65,3.12,3.12,0,0,1-1.18,1.1,3.36,3.36,0,0,1-1.59.38,3.77,3.77,0,0,1-1.83-.41l.48-1.15a2.77,2.77,0,0,0,1.19.23,1.62,1.62,0,0,0,1.22-.47,1.87,1.87,0,0,0,.45-1.35,2,2,0,0,0-.42-1.31,6.87,6.87,0,0,0-1.25-1.1,7.21,7.21,0,0,1-1.18-1,1.77,1.77,0,0,1-.4-1.19,1.54,1.54,0,0,1,.25-.94,4.61,4.61,0,0,1,.77-.77,4,4,0,0,0,.72-.72,1.4,1.4,0,0,0,.24-.85,1.17,1.17,0,0,0-.48-1,1.94,1.94,0,0,0-1.2-.36c-1.29,0-1.94.84-1.94,2.51v9.7h-1.66v-9.7a3.91,3.91,0,0,1,.95-2.8,3.48,3.48,0,0,1,2.67-1A4,4,0,0,1,419.71,83.2Z" fill="#fff"/><path d="M432.17,92.18h-6a3.68,3.68,0,0,0,.79,2.31,2.29,2.29,0,0,0,1.76.73,3.87,3.87,0,0,0,1.26-.19,5.63,5.63,0,0,0,1.21-.63l.72,1a5.24,5.24,0,0,1-3.31,1.18,3.86,3.86,0,0,1-3.09-1.29,5.32,5.32,0,0,1-1.11-3.57,6.68,6.68,0,0,1,.48-2.61,4.11,4.11,0,0,1,1.37-1.8,3.46,3.46,0,0,1,2.09-.64,3.51,3.51,0,0,1,2.9,1.24,5.26,5.26,0,0,1,1,3.44A8.13,8.13,0,0,1,432.17,92.18Zm-1.6-1.33a3.44,3.44,0,0,0-.56-2.14,2,2,0,0,0-1.67-.74c-1.36,0-2.09,1-2.21,3h4.44Z" fill="#fff"/><path d="M445,84.09a5.94,5.94,0,0,1,1.71,1.09l-.94,1a5.07,5.07,0,0,0-1.37-.81,3.89,3.89,0,0,0-1.45-.27,2.68,2.68,0,0,0-1.6.45,1.52,1.52,0,0,0-.63,1.32,1.83,1.83,0,0,0,.21.91,2,2,0,0,0,.8.67,10.21,10.21,0,0,0,1.7.65,11.82,11.82,0,0,1,1.95.77,3.45,3.45,0,0,1,1.25,1.15,3.27,3.27,0,0,1,.48,1.84,3.42,3.42,0,0,1-.54,1.91,3.61,3.61,0,0,1-1.52,1.3,5.6,5.6,0,0,1-2.37.46,5.75,5.75,0,0,1-4.21-1.6l1-1.06a5.66,5.66,0,0,0,1.51,1,4.56,4.56,0,0,0,1.73.31,3.09,3.09,0,0,0,1.91-.57,1.92,1.92,0,0,0,.75-1.64,2,2,0,0,0-.23-1,2.13,2.13,0,0,0-.8-.73,8.29,8.29,0,0,0-1.65-.65,7.22,7.22,0,0,1-2.79-1.38A2.84,2.84,0,0,1,439,87a2.93,2.93,0,0,1,.5-1.67,3.29,3.29,0,0,1,1.38-1.16,4.84,4.84,0,0,1,2-.41A5.85,5.85,0,0,1,445,84.09Z" fill="#fff"/><path d="M456.58,96.36h-1.42L455,94.88a3.59,3.59,0,0,1-1.24,1.29,3.38,3.38,0,0,1-1.71.4,2.52,2.52,0,0,1-1.94-.75,3,3,0,0,1-.7-2.14V86.87h1.65V93.5a2.2,2.2,0,0,0,.34,1.37,1.39,1.39,0,0,0,1.12.41,2.84,2.84,0,0,0,2.38-1.64V86.87h1.65Z" fill="#fff"/><path d="M466.91,88a6.07,6.07,0,0,1,1,3.65,7,7,0,0,1-.45,2.6,3.82,3.82,0,0,1-1.3,1.74,3.2,3.2,0,0,1-2,.62,3.15,3.15,0,0,1-2.52-1.26l-.16,1H460V83.06l1.66-.2v5.2a3.16,3.16,0,0,1,2.68-1.4A3,3,0,0,1,466.91,88Zm-1.45,6.41a4.83,4.83,0,0,0,.63-2.76,5.14,5.14,0,0,0-.58-2.78,1.86,1.86,0,0,0-1.64-.86,2.66,2.66,0,0,0-2.21,1.48V94a3,3,0,0,0,.92.94,2.18,2.18,0,0,0,1.17.34A2,2,0,0,0,465.46,94.37Z" fill="#fff"/><path d="M475,86.93a5.25,5.25,0,0,1,1.48.81l-.7,1a5.45,5.45,0,0,0-1.24-.61,3.87,3.87,0,0,0-1.23-.2,2.21,2.21,0,0,0-1.28.33,1.07,1.07,0,0,0-.46.91,1,1,0,0,0,.44.9,4.84,4.84,0,0,0,1.59.63A5.89,5.89,0,0,1,476,91.82a2.37,2.37,0,0,1,.78,1.87,2.44,2.44,0,0,1-1.09,2.15,4.63,4.63,0,0,1-2.65.73,5.26,5.26,0,0,1-3.59-1.24l.89-1a4.24,4.24,0,0,0,2.66.92,2.57,2.57,0,0,0,1.48-.38A1.22,1.22,0,0,0,475,93.8a1.41,1.41,0,0,0-.19-.78,1.62,1.62,0,0,0-.69-.52,9.52,9.52,0,0,0-1.42-.48A4.86,4.86,0,0,1,470.52,91a2.28,2.28,0,0,1-.67-1.69,2.16,2.16,0,0,1,.44-1.34,2.77,2.77,0,0,1,1.22-.94,4.49,4.49,0,0,1,1.76-.33A5.21,5.21,0,0,1,475,86.93Z" fill="#fff"/><path d="M483.89,95.93a3.66,3.66,0,0,1-2.13.64,2.51,2.51,0,0,1-1.88-.69,2.76,2.76,0,0,1-.67-2V88.15h-1.66V86.87h1.66V84.73l1.65-.2v2.34h2.25l-.18,1.28h-2.07V93.8a1.7,1.7,0,0,0,.27,1.07,1,1,0,0,0,.87.34,2.41,2.41,0,0,0,1.26-.42Z" fill="#fff"/><path d="M492.19,95a1.14,1.14,0,0,0,.59.42l-.38,1.15a2.5,2.5,0,0,1-1.19-.41,1.87,1.87,0,0,1-.66-1,3.19,3.19,0,0,1-2.83,1.42,3,3,0,0,1-2.21-.79,2.77,2.77,0,0,1-.81-2.07,2.7,2.7,0,0,1,1.09-2.32,5.06,5.06,0,0,1,3.08-.81h1.46v-.7a1.86,1.86,0,0,0-.48-1.44,2.22,2.22,0,0,0-1.5-.43,8.17,8.17,0,0,0-2.55.5l-.42-1.21a9.6,9.6,0,0,1,3.28-.64,3.41,3.41,0,0,1,2.5.82,3.13,3.13,0,0,1,.83,2.33v4.33A1.44,1.44,0,0,0,492.19,95Zm-1.86-1.14V91.68h-1.24c-1.75,0-2.63.65-2.63,1.94a1.76,1.76,0,0,0,.42,1.28,1.59,1.59,0,0,0,1.22.43A2.47,2.47,0,0,0,490.33,93.86Z" fill="#fff"/><path d="M501.88,87.43a3,3,0,0,1,.73,2.12v6.81H501V89.79a2,2,0,0,0-.38-1.42,1.41,1.41,0,0,0-1.11-.42,2.18,2.18,0,0,0-1.33.43,4.37,4.37,0,0,0-1.08,1.25v6.73h-1.66V86.87h1.42l.15,1.41a3.64,3.64,0,0,1,1.25-1.19,3.16,3.16,0,0,1,1.64-.43A2.64,2.64,0,0,1,501.88,87.43Z" fill="#fff"/><path d="M511.5,88.13,506.55,95h5l-.19,1.39h-6.68V95.12l4.93-6.84h-4.52V86.87h6.41Z" fill="#fff"/><path d="M38.82,86.93a5.2,5.2,0,0,1,1.47.81l-.7,1a5.39,5.39,0,0,0-1.23-.61,3.87,3.87,0,0,0-1.23-.2,2.16,2.16,0,0,0-1.28.33,1.08,1.08,0,0,0-.47.91,1,1,0,0,0,.44.9,4.84,4.84,0,0,0,1.59.63,5.82,5.82,0,0,1,2.37,1.08,2.37,2.37,0,0,1,.78,1.87,2.44,2.44,0,0,1-1.09,2.15,4.61,4.61,0,0,1-2.65.73,5.22,5.22,0,0,1-3.58-1.24l.88-1a4.24,4.24,0,0,0,2.66.92,2.61,2.61,0,0,0,1.49-.38,1.24,1.24,0,0,0,.55-1.06,1.41,1.41,0,0,0-.2-.78,1.59,1.59,0,0,0-.68-.52A9.72,9.72,0,0,0,36.51,92,4.81,4.81,0,0,1,34.33,91a2.29,2.29,0,0,1-.68-1.69,2.22,2.22,0,0,1,.44-1.34A2.8,2.8,0,0,1,35.32,87a4.44,4.44,0,0,1,1.75-.33A5.31,5.31,0,0,1,38.82,86.93Z" fill="#fff"/><path d="M50,92.18H44a3.74,3.74,0,0,0,.8,2.31,2.28,2.28,0,0,0,1.76.73A3.87,3.87,0,0,0,47.8,95,5.81,5.81,0,0,0,49,94.4l.73,1a5.27,5.27,0,0,1-3.32,1.18,3.82,3.82,0,0,1-3.08-1.29,5.32,5.32,0,0,1-1.11-3.57,6.68,6.68,0,0,1,.48-2.61,4.09,4.09,0,0,1,1.36-1.8,3.91,3.91,0,0,1,5,.6,5.32,5.32,0,0,1,1,3.44A8.13,8.13,0,0,1,50,92.18Zm-1.6-1.33a3.5,3.5,0,0,0-.56-2.14A2,2,0,0,0,46.2,88c-1.36,0-2.1,1-2.22,3h4.45Z" fill="#fff"/><path d="M59.29,87.43A3,3,0,0,1,60,89.55v6.81H58.37V89.79A2.1,2.1,0,0,0,58,88.37,1.45,1.45,0,0,0,56.87,88a2.2,2.2,0,0,0-1.33.43,4.37,4.37,0,0,0-1.08,1.25v6.73H52.8V86.87h1.42l.15,1.41a3.64,3.64,0,0,1,1.25-1.19,3.23,3.23,0,0,1,1.65-.43A2.62,2.62,0,0,1,59.29,87.43Z" fill="#fff"/><path d="M67.67,86.93a5.25,5.25,0,0,1,1.48.81l-.71,1a5.39,5.39,0,0,0-1.23-.61A3.87,3.87,0,0,0,66,88a2.19,2.19,0,0,0-1.28.33,1.08,1.08,0,0,0-.47.91,1,1,0,0,0,.44.9,5,5,0,0,0,1.6.63,5.84,5.84,0,0,1,2.36,1.08,2.34,2.34,0,0,1,.79,1.87,2.46,2.46,0,0,1-1.09,2.15,4.65,4.65,0,0,1-2.66.73,5.24,5.24,0,0,1-3.58-1.24l.88-1a4.28,4.28,0,0,0,2.67.92,2.57,2.57,0,0,0,1.48-.38,1.22,1.22,0,0,0,.55-1.06,1.41,1.41,0,0,0-.2-.78,1.59,1.59,0,0,0-.68-.52A10,10,0,0,0,65.37,92,4.86,4.86,0,0,1,63.18,91a2.29,2.29,0,0,1-.68-1.69A2.17,2.17,0,0,1,63,87.93,2.77,2.77,0,0,1,64.17,87a4.47,4.47,0,0,1,1.75-.33A5.31,5.31,0,0,1,67.67,86.93Z" fill="#fff"/><path d="M73.41,82.64a1.1,1.1,0,0,1,.33.81,1,1,0,0,1-.33.8,1.25,1.25,0,0,1-1.67,0,1,1,0,0,1-.32-.8,1.09,1.09,0,0,1,.32-.81,1.25,1.25,0,0,1,1.67,0Zm0,13.72H71.76V86.87h1.65Z" fill="#fff"/><path d="M83.75,88a6.14,6.14,0,0,1,1,3.65,7,7,0,0,1-.45,2.6A3.82,3.82,0,0,1,83,96a3.2,3.2,0,0,1-2,.62,3.15,3.15,0,0,1-2.52-1.26l-.16,1H76.83V83.06l1.66-.2v5.2a3.16,3.16,0,0,1,2.68-1.4A3,3,0,0,1,83.75,88ZM82.3,94.37a4.92,4.92,0,0,0,.62-2.76,5.14,5.14,0,0,0-.58-2.78A1.86,1.86,0,0,0,80.7,88a2.67,2.67,0,0,0-2.21,1.48V94a2.88,2.88,0,0,0,.93.94,2.12,2.12,0,0,0,1.16.34A2,2,0,0,0,82.3,94.37Z" fill="#fff"/><path d="M88,96a2.11,2.11,0,0,1-.54-1.54V83.06l1.66-.2V94.45a1,1,0,0,0,.14.58.53.53,0,0,0,.45.18,1.71,1.71,0,0,0,.62-.11l.43,1.15a2.69,2.69,0,0,1-1.32.32A1.92,1.92,0,0,1,88,96Z" fill="#fff"/><path d="M99.75,92.18h-6a3.68,3.68,0,0,0,.79,2.31,2.29,2.29,0,0,0,1.76.73A3.87,3.87,0,0,0,97.51,95a5.63,5.63,0,0,0,1.21-.63l.72,1a5.24,5.24,0,0,1-3.31,1.18A3.86,3.86,0,0,1,93,95.28a5.32,5.32,0,0,1-1.11-3.57,6.68,6.68,0,0,1,.48-2.61,4.19,4.19,0,0,1,1.37-1.8,3.9,3.9,0,0,1,5,.6,5.26,5.26,0,0,1,1,3.44Q99.78,91.75,99.75,92.18Zm-1.61-1.33a3.5,3.5,0,0,0-.55-2.14A2,2,0,0,0,95.91,88c-1.35,0-2.09,1-2.21,3h4.44Z" fill="#fff"/><path d="M116.07,96.36h-2.28l-5-10.53c.07.83.13,1.59.17,2.29s.06,1.55.06,2.55v5.69h-1.6V84h2.23L114.7,94.5c0-.31-.08-.85-.14-1.63s-.09-1.5-.09-2.15V84h1.6Z" fill="#fff"/><path d="M126.71,92.18h-6a3.74,3.74,0,0,0,.79,2.31,2.32,2.32,0,0,0,1.77.73,4,4,0,0,0,1.26-.19,5.81,5.81,0,0,0,1.2-.63l.72,1a5.22,5.22,0,0,1-3.31,1.18A3.86,3.86,0,0,1,120,95.28a5.37,5.37,0,0,1-1.1-3.57,6.68,6.68,0,0,1,.48-2.61,4.09,4.09,0,0,1,1.36-1.8,3.91,3.91,0,0,1,5,.6,5.32,5.32,0,0,1,1,3.44C126.75,91.61,126.73,91.89,126.71,92.18Zm-1.6-1.33a3.5,3.5,0,0,0-.56-2.14,2,2,0,0,0-1.67-.74c-1.36,0-2.1,1-2.22,3h4.45Z" fill="#fff"/><path d="M134.54,86.76l-.31,1.62a3.4,3.4,0,0,0-.82-.1,1.77,1.77,0,0,0-1.43.64,4.85,4.85,0,0,0-.84,2v5.42h-1.66V86.87h1.42l.17,1.93a3.57,3.57,0,0,1,1-1.6,2.29,2.29,0,0,1,1.51-.54A4,4,0,0,1,134.54,86.76Z" fill="#fff"/><path d="M140.35,96.36h-2l-3.28-9.49h1.8l2.48,8,2.47-8h1.75Z" fill="#fff"/><path d="M152.41,92.18h-6a3.68,3.68,0,0,0,.79,2.31,2.28,2.28,0,0,0,1.76.73,3.87,3.87,0,0,0,1.26-.19,5.63,5.63,0,0,0,1.21-.63l.72,1a5.24,5.24,0,0,1-3.31,1.18,3.86,3.86,0,0,1-3.09-1.29,5.32,5.32,0,0,1-1.11-3.57,6.68,6.68,0,0,1,.48-2.61,4.11,4.11,0,0,1,1.37-1.8,3.46,3.46,0,0,1,2.09-.64,3.51,3.51,0,0,1,2.9,1.24,5.32,5.32,0,0,1,1,3.44A8.13,8.13,0,0,1,152.41,92.18Zm-1.6-1.33a3.44,3.44,0,0,0-.56-2.14,2,2,0,0,0-1.67-.74c-1.36,0-2.09,1-2.21,3h4.44Z" fill="#fff"/><path d="M161.67,87.43a3,3,0,0,1,.73,2.12v6.81h-1.65V89.79a2.1,2.1,0,0,0-.38-1.42,1.42,1.42,0,0,0-1.12-.42,2.23,2.23,0,0,0-1.33.43,4.71,4.71,0,0,0-1.08,1.25v6.73h-1.65V86.87h1.42l.14,1.41A3.73,3.73,0,0,1,158,87.09a3.23,3.23,0,0,1,1.65-.43A2.62,2.62,0,0,1,161.67,87.43Z" fill="#fff"/><path d="M435.19,232h-1.83l-4-12.4h1.84l3.11,10.54,3.12-10.54h1.72Z" fill="#fff"/><path d="M447.1,223.6a5.48,5.48,0,0,1,1.11,3.62,6.25,6.25,0,0,1-.51,2.6,3.9,3.9,0,0,1-1.45,1.74,4,4,0,0,1-2.27.62,3.86,3.86,0,0,1-3.12-1.33,5.48,5.48,0,0,1-1.11-3.62,6.41,6.41,0,0,1,.5-2.6,3.92,3.92,0,0,1,1.46-1.74,4.07,4.07,0,0,1,2.29-.62A3.8,3.8,0,0,1,447.1,223.6Zm-5.57,3.63c0,2.42.82,3.62,2.45,3.62s2.45-1.21,2.45-3.63-.81-3.62-2.43-3.62S441.53,224.81,441.53,227.23Z" fill="#fff"/><path d="M456,222.37l-.3,1.62a3.54,3.54,0,0,0-.83-.1,1.75,1.75,0,0,0-1.42.64,4.84,4.84,0,0,0-.85,2V232h-1.66v-9.49h1.43l.16,1.93a3.57,3.57,0,0,1,1-1.6,2.32,2.32,0,0,1,1.52-.54A4,4,0,0,1,456,222.37Z" fill="#fff"/><path d="M465.06,218.67V232H463.6l-.16-1.32a3.6,3.6,0,0,1-1.17,1.13,3.08,3.08,0,0,1-1.57.4,3,3,0,0,1-2.64-1.33,6.08,6.08,0,0,1-.94-3.58,7,7,0,0,1,.45-2.59,4.06,4.06,0,0,1,1.29-1.78,3.25,3.25,0,0,1,2-.63,3.4,3.4,0,0,1,2.56,1.17v-5Zm-2.7,11.85a4.32,4.32,0,0,0,1-1.05v-4.65a3.6,3.6,0,0,0-1-.93,2.28,2.28,0,0,0-1.2-.31,1.94,1.94,0,0,0-1.7.92,5,5,0,0,0-.6,2.73,5.32,5.32,0,0,0,.56,2.74,1.77,1.77,0,0,0,1.6.9A2.38,2.38,0,0,0,462.36,230.52Z" fill="#fff"/><path d="M475.6,227.79h-6a3.68,3.68,0,0,0,.79,2.31,2.28,2.28,0,0,0,1.76.73,3.87,3.87,0,0,0,1.26-.19,5.63,5.63,0,0,0,1.21-.63l.72,1a5.24,5.24,0,0,1-3.31,1.18,3.86,3.86,0,0,1-3.09-1.29,5.32,5.32,0,0,1-1.11-3.57,6.76,6.76,0,0,1,.48-2.62,4.14,4.14,0,0,1,1.37-1.79,3.46,3.46,0,0,1,2.09-.64,3.51,3.51,0,0,1,2.9,1.24,5.32,5.32,0,0,1,1,3.44A8.13,8.13,0,0,1,475.6,227.79Zm-1.6-1.33a3.44,3.44,0,0,0-.56-2.14,2,2,0,0,0-1.67-.74c-1.36,0-2.09,1-2.21,3H474Z" fill="#fff"/><path d="M483.43,222.37l-.3,1.62a3.54,3.54,0,0,0-.83-.1,1.75,1.75,0,0,0-1.42.64,5,5,0,0,0-.85,2V232h-1.65v-9.49h1.42l.16,1.93a3.5,3.5,0,0,1,1-1.6,2.27,2.27,0,0,1,1.51-.54A3.9,3.9,0,0,1,483.43,222.37Z" fill="#fff"/><path d="M491.81,223a3,3,0,0,1,.73,2.12V232h-1.65V225.4a2,2,0,0,0-.39-1.42,1.46,1.46,0,0,0-1.13-.42,2.17,2.17,0,0,0-1.31.43,4.57,4.57,0,0,0-1.08,1.23V232h-1.66V218.68l1.66-.18v5.3a3.35,3.35,0,0,1,2.81-1.53A2.62,2.62,0,0,1,491.81,223Z" fill="#fff"/><path d="M502.54,223.6a5.48,5.48,0,0,1,1.11,3.62,6.25,6.25,0,0,1-.51,2.6,3.9,3.9,0,0,1-1.45,1.74,4,4,0,0,1-2.27.62,3.84,3.84,0,0,1-3.12-1.33,5.48,5.48,0,0,1-1.11-3.62,6.41,6.41,0,0,1,.5-2.6,3.92,3.92,0,0,1,1.46-1.74,4.07,4.07,0,0,1,2.29-.62A3.8,3.8,0,0,1,502.54,223.6ZM497,227.23c0,2.42.82,3.62,2.45,3.62s2.45-1.21,2.45-3.63-.82-3.62-2.43-3.62S497,224.81,497,227.23Z" fill="#fff"/><path d="M511.44,222.37l-.31,1.62a3.4,3.4,0,0,0-.82-.1,1.79,1.79,0,0,0-1.43.64,4.85,4.85,0,0,0-.84,2V232h-1.66v-9.49h1.42l.17,1.93a3.57,3.57,0,0,1,1-1.6,2.29,2.29,0,0,1,1.51-.54A4,4,0,0,1,511.44,222.37Z" fill="#fff"/><path d="M519.82,223a3,3,0,0,1,.73,2.12V232h-1.66V225.4a2,2,0,0,0-.38-1.42,1.41,1.41,0,0,0-1.11-.42,2.2,2.2,0,0,0-1.33.43,4.37,4.37,0,0,0-1.08,1.25V232h-1.66v-9.49h1.42l.15,1.41a3.64,3.64,0,0,1,1.25-1.19,3.22,3.22,0,0,1,1.64-.43A2.64,2.64,0,0,1,519.82,223Z" fill="#fff"/><path d="M28.81,219.7a5.73,5.73,0,0,1,1.71,1.09l-.93,1a5.62,5.62,0,0,0-1.38-.82,4.06,4.06,0,0,0-1.45-.26,2.68,2.68,0,0,0-1.6.45,1.52,1.52,0,0,0-.63,1.32,1.73,1.73,0,0,0,.22.91,1.91,1.91,0,0,0,.8.67,9.87,9.87,0,0,0,1.7.65,11.33,11.33,0,0,1,1.94.77,3.19,3.19,0,0,1,1.73,3,3.49,3.49,0,0,1-.53,1.91,3.58,3.58,0,0,1-1.53,1.3,5.6,5.6,0,0,1-2.37.46,5.76,5.76,0,0,1-4.21-1.6l.95-1.06a5.66,5.66,0,0,0,1.52.94,4.5,4.5,0,0,0,1.72.32,3.07,3.07,0,0,0,1.91-.57,1.91,1.91,0,0,0,.76-1.64,2,2,0,0,0-.24-1,2.06,2.06,0,0,0-.8-.73,7.92,7.92,0,0,0-1.64-.65,7.08,7.08,0,0,1-2.79-1.38,2.85,2.85,0,0,1-.89-2.2,2.93,2.93,0,0,1,.5-1.67,3.26,3.26,0,0,1,1.39-1.16,4.79,4.79,0,0,1,2-.41A5.77,5.77,0,0,1,28.81,219.7Z" fill="#fff"/><path d="M40.37,223.56a6.72,6.72,0,0,1,.85,3.66,6.11,6.11,0,0,1-1,3.6,3.16,3.16,0,0,1-2.75,1.36A3,3,0,0,1,35,231.1v4.5l-1.66.2V222.48h1.42l.13,1.28a3.7,3.7,0,0,1,1.26-1.11,3.26,3.26,0,0,1,1.55-.38A3,3,0,0,1,40.37,223.56Zm-.94,3.66c0-2.43-.71-3.64-2.14-3.64A2.19,2.19,0,0,0,36,224a4,4,0,0,0-1,1.07v4.62a2.55,2.55,0,0,0,.9.86,2.48,2.48,0,0,0,1.18.29C38.65,230.83,39.43,229.63,39.43,227.22Z" fill="#fff"/><path d="M45.7,218.25a1.13,1.13,0,0,1,.32.81,1.08,1.08,0,0,1-.32.8,1.18,1.18,0,0,1-.85.32,1.16,1.16,0,0,1-.83-.32,1.08,1.08,0,0,1-.32-.8,1.13,1.13,0,0,1,.32-.81,1.16,1.16,0,0,1,.83-.32A1.18,1.18,0,0,1,45.7,218.25Zm0,13.72H44v-9.49H45.7Z" fill="#fff"/><path d="M55.61,223a3,3,0,0,1,.73,2.12V232H54.68V225.4A2,2,0,0,0,54.3,224a1.41,1.41,0,0,0-1.11-.42,2.23,2.23,0,0,0-1.34.43,4.71,4.71,0,0,0-1.08,1.25V232H49.12v-9.49h1.42l.15,1.41a3.64,3.64,0,0,1,1.25-1.19,3.16,3.16,0,0,1,1.64-.43A2.64,2.64,0,0,1,55.61,223Z" fill="#fff"/><path d="M66.25,230.61a1.23,1.23,0,0,0,.6.42l-.38,1.15a2.5,2.5,0,0,1-1.19-.41,1.87,1.87,0,0,1-.66-1,3.19,3.19,0,0,1-2.83,1.42,3,3,0,0,1-2.21-.79,2.77,2.77,0,0,1-.81-2.07A2.7,2.7,0,0,1,59.86,227a5.06,5.06,0,0,1,3.08-.81H64.4v-.7a1.83,1.83,0,0,0-.49-1.44,2.17,2.17,0,0,0-1.49-.43,8.23,8.23,0,0,0-2.56.5l-.41-1.21a9.6,9.6,0,0,1,3.28-.64,3.45,3.45,0,0,1,2.5.81,3.17,3.17,0,0,1,.83,2.34v4.33A1.52,1.52,0,0,0,66.25,230.61Zm-1.85-1.14v-2.18H63.16c-1.75,0-2.63.65-2.63,1.94a1.8,1.8,0,0,0,.41,1.28,1.63,1.63,0,0,0,1.23.43A2.47,2.47,0,0,0,64.4,229.47Z" fill="#fff"/><path d="M69.9,231.63a2.11,2.11,0,0,1-.53-1.53V218.67l1.65-.2v11.59a1,1,0,0,0,.14.58.53.53,0,0,0,.46.18,1.66,1.66,0,0,0,.61-.11l.43,1.15a2.62,2.62,0,0,1-1.31.32A1.91,1.91,0,0,1,69.9,231.63Z" fill="#fff"/><path d="M81.22,223a3,3,0,0,1,.73,2.12V232H80.29V225.4a2.1,2.1,0,0,0-.37-1.42,1.45,1.45,0,0,0-1.12-.42,2.2,2.2,0,0,0-1.33.43,4.37,4.37,0,0,0-1.08,1.25V232H74.73v-9.49h1.42l.15,1.41a3.64,3.64,0,0,1,1.25-1.19,3.23,3.23,0,0,1,1.65-.43A2.63,2.63,0,0,1,81.22,223Z" fill="#fff"/><path d="M92.41,227.79h-6a3.74,3.74,0,0,0,.79,2.31,2.32,2.32,0,0,0,1.77.73,4,4,0,0,0,1.26-.19,5.81,5.81,0,0,0,1.2-.63l.72,1a5.24,5.24,0,0,1-3.31,1.18,3.86,3.86,0,0,1-3.09-1.29,5.31,5.31,0,0,1-1.1-3.57,6.76,6.76,0,0,1,.47-2.62,4.22,4.22,0,0,1,1.37-1.79,3.47,3.47,0,0,1,2.1-.64,3.52,3.52,0,0,1,2.9,1.24,5.32,5.32,0,0,1,1,3.44Q92.44,227.36,92.41,227.79Zm-1.6-1.33a3.5,3.5,0,0,0-.56-2.14,2,2,0,0,0-1.68-.74c-1.35,0-2.09,1-2.21,3h4.45Z" fill="#fff"/><path d="M100.24,222.37,99.93,224a3.48,3.48,0,0,0-.83-.1,1.77,1.77,0,0,0-1.42.64,4.85,4.85,0,0,0-.84,2V232H95.18v-9.49H96.6l.16,1.93a3.67,3.67,0,0,1,1-1.6,2.29,2.29,0,0,1,1.51-.54A4,4,0,0,1,100.24,222.37Z" fill="#fff"/><path d="M106.05,232h-2l-3.27-9.49h1.8l2.48,8,2.47-8h1.74Z" fill="#fff"/><path d="M27.28,290.62h-2L22,281.13h1.8l2.48,8,2.47-8h1.75Z" fill="#fff"/><path d="M38.89,282.25a5.53,5.53,0,0,1,1.1,3.62,6.41,6.41,0,0,1-.5,2.6A3.92,3.92,0,0,1,38,290.21a4,4,0,0,1-2.27.62,3.82,3.82,0,0,1-3.11-1.33,5.4,5.4,0,0,1-1.12-3.61,6.27,6.27,0,0,1,.51-2.61,3.9,3.9,0,0,1,1.45-1.74,4.07,4.07,0,0,1,2.29-.62A3.82,3.82,0,0,1,38.89,282.25Zm-5.58,3.64q0,3.62,2.45,3.61t2.45-3.63q0-3.62-2.43-3.62C34.14,282.25,33.31,283.46,33.31,285.89Z" fill="#fff"/><path d="M47.79,281l-.31,1.62a3.06,3.06,0,0,0-.83-.11,1.73,1.73,0,0,0-1.42.65,4.86,4.86,0,0,0-.85,2v5.42H42.73v-9.49h1.42l.16,1.93a3.58,3.58,0,0,1,1-1.6,2.27,2.27,0,0,1,1.51-.54A3.51,3.51,0,0,1,47.79,281Z" fill="#fff"/><path d="M56.84,277.32v13.3H55.38l-.16-1.31a3.38,3.38,0,0,1-1.17,1.12,3.08,3.08,0,0,1-1.57.4,3,3,0,0,1-2.63-1.33,6.05,6.05,0,0,1-1-3.58,7,7,0,0,1,.45-2.59,3.91,3.91,0,0,1,1.3-1.77,3.15,3.15,0,0,1,2-.64,3.43,3.43,0,0,1,2.56,1.17v-5Zm-2.7,11.85a4.17,4.17,0,0,0,1-1.05v-4.65a3.86,3.86,0,0,0-1-.92,2.34,2.34,0,0,0-1.2-.32,1.93,1.93,0,0,0-1.7.92,5,5,0,0,0-.6,2.74,5.31,5.31,0,0,0,.55,2.73,1.78,1.78,0,0,0,1.6.9A2.36,2.36,0,0,0,54.14,289.17Z" fill="#fff"/><path d="M67.39,286.44h-6a3.72,3.72,0,0,0,.79,2.31,2.32,2.32,0,0,0,1.77.74,4,4,0,0,0,1.26-.2,5,5,0,0,0,1.2-.63l.72,1a5.24,5.24,0,0,1-3.31,1.18,3.86,3.86,0,0,1-3.09-1.29,5.29,5.29,0,0,1-1.1-3.56,6.69,6.69,0,0,1,.47-2.62,4.1,4.1,0,0,1,1.37-1.79,3.43,3.43,0,0,1,2.1-.65,3.52,3.52,0,0,1,2.9,1.24,5.32,5.32,0,0,1,1,3.44C67.42,285.87,67.41,286.16,67.39,286.44Zm-1.6-1.33a3.52,3.52,0,0,0-.56-2.14,2,2,0,0,0-1.68-.74c-1.35,0-2.09,1-2.21,3h4.45Z" fill="#fff"/><path d="M75.22,281l-.31,1.62a3.06,3.06,0,0,0-.83-.11,1.75,1.75,0,0,0-1.42.65,4.74,4.74,0,0,0-.84,2v5.42H70.16v-9.49h1.42l.16,1.93a3.67,3.67,0,0,1,1-1.6,2.29,2.29,0,0,1,1.51-.54A3.51,3.51,0,0,1,75.22,281Z" fill="#fff"/><path d="M84.06,286.44H78a3.66,3.66,0,0,0,.79,2.31,2.3,2.3,0,0,0,1.76.74,3.87,3.87,0,0,0,1.26-.2,4.85,4.85,0,0,0,1.21-.63l.72,1a5.24,5.24,0,0,1-3.31,1.18,3.86,3.86,0,0,1-3.09-1.29A5.29,5.29,0,0,1,76.24,286a6.69,6.69,0,0,1,.48-2.62,4.1,4.1,0,0,1,1.37-1.79,3.41,3.41,0,0,1,2.1-.65,3.49,3.49,0,0,1,2.89,1.24,5.26,5.26,0,0,1,1,3.44C84.09,285.87,84.08,286.16,84.06,286.44Zm-1.61-1.33A3.52,3.52,0,0,0,81.9,283a2,2,0,0,0-1.68-.74c-1.35,0-2.09,1-2.21,3h4.44Z" fill="#fff"/><path d="M101.79,290.62h-2.2L97.3,280.23,95,290.62H92.86l-2.52-12.4H92l2,10.91,2.39-10.91h1.82l2.45,10.91,2.07-10.91h1.57Z" fill="#fff"/><path d="M113.34,290.62h-1.42l-.13-1.48a3.59,3.59,0,0,1-1.24,1.29,3.38,3.38,0,0,1-1.71.4,2.52,2.52,0,0,1-1.94-.75,3,3,0,0,1-.7-2.14v-6.81h1.65v6.63a2.18,2.18,0,0,0,.34,1.37,1.39,1.39,0,0,0,1.12.41,2.84,2.84,0,0,0,2.38-1.64v-6.77h1.65Z" fill="#fff"/><path d="M121.82,281l-.31,1.62a3,3,0,0,0-.82-.11,1.75,1.75,0,0,0-1.43.65,4.74,4.74,0,0,0-.84,2v5.42h-1.66v-9.49h1.42l.17,1.93a3.57,3.57,0,0,1,1-1.6,2.29,2.29,0,0,1,1.51-.54A3.51,3.51,0,0,1,121.82,281Z" fill="#fff"/><path d="M129.27,282.39l-5,6.84h5l-.19,1.39h-6.68v-1.24l4.93-6.84h-4.52v-1.41h6.41Z" fill="#fff"/><path d="M138.7,286.44h-6a3.72,3.72,0,0,0,.8,2.31,2.29,2.29,0,0,0,1.76.74,3.87,3.87,0,0,0,1.26-.2,5,5,0,0,0,1.21-.63l.72,1a5.27,5.27,0,0,1-3.32,1.18,3.84,3.84,0,0,1-3.08-1.29,5.29,5.29,0,0,1-1.11-3.56,6.69,6.69,0,0,1,.48-2.62,4,4,0,0,1,1.37-1.79,3.4,3.4,0,0,1,2.09-.65,3.51,3.51,0,0,1,2.9,1.24,5.32,5.32,0,0,1,1,3.44A8,8,0,0,1,138.7,286.44Zm-1.6-1.33a3.52,3.52,0,0,0-.56-2.14,2,2,0,0,0-1.67-.74c-1.36,0-2.1,1-2.22,3h4.45Z" fill="#fff"/><path d="M141.92,290.29a2.11,2.11,0,0,1-.53-1.54V277.32l1.65-.2v11.59a1,1,0,0,0,.14.58.53.53,0,0,0,.46.18,1.7,1.7,0,0,0,.61-.11l.43,1.15a2.66,2.66,0,0,1-1.32.32A1.92,1.92,0,0,1,141.92,290.29Z" fill="#fff"/><line x1="335.85" y1="172.9" x2="290.04" y2="53.09" fill="none" stroke="#fff" stroke-miterlimit="10"/><line x1="380.29" y1="67.49" x2="339.5" y2="150.16" fill="none" stroke="#fff" stroke-miterlimit="10"/><line x1="408.79" y1="102.84" x2="374.74" y2="171.52" fill="none" stroke="#fff" stroke-miterlimit="10"/><line x1="422.56" y1="225.18" x2="350.74" y2="191.14" fill="none" stroke="#fff" stroke-miterlimit="10"/><line x1="183.03" y1="68.92" x2="212.62" y2="149.71" fill="none" stroke="#fff" stroke-miterlimit="10"/><line x1="166.57" y1="98.4" x2="189.51" y2="154.49" fill="none" stroke="#fff" stroke-miterlimit="10"/><line x1="155.61" y1="134.01" x2="171.35" y2="170.4" fill="none" stroke="#fff" stroke-miterlimit="10"/><line x1="113.22" y1="218.92" x2="131.48" y2="195.97" fill="none" stroke="#fff" stroke-miterlimit="10"/><line x1="180.53" y1="251.01" x2="214.32" y2="229.47" fill="none" stroke="#fff" stroke-miterlimit="10"/><line x1="155.22" y1="284.92" x2="226.7" y2="236.68" fill="none" stroke="#fff" stroke-miterlimit="10"/><circle cx="171.35" cy="170.4" r="2.5" fill="#fff"/><circle cx="189.51" cy="154.49" r="2.5" fill="#fff"/><circle cx="212.62" cy="150.87" r="2.5" fill="#fff"/><circle cx="339.5" cy="150.16" r="2.5" fill="#fff"/><circle cx="335.85" cy="172.9" r="2.5" fill="#fff"/><circle cx="374.45" cy="172.62" r="2.5" fill="#fff"/><circle cx="350.6" cy="191.01" r="2.5" fill="#fff"/><circle cx="131.74" cy="195.97" r="2.5" fill="#fff"/><circle cx="214.32" cy="229.47" r="2.5" fill="#fff"/><circle cx="226.1" cy="236.68" r="2.5" fill="#fff"/></svg>