<svg xmlns="http://www.w3.org/2000/svg" width="1284" height="781">
 <!-- Created with Image Occlusion Enhanced -->
 <g>
  <title>Labels</title>
 </g>
 <g>
  <title>Masks</title>
  <rect id="8bb5a4679f5444f2a7650051f84314c0-ao-1" height="30.57851" width="94.21488" y="78.50412" x="290.38015" stroke="#2D2D2D" fill="#007fff"/>
  <rect id="8bb5a4679f5444f2a7650051f84314c0-ao-2" height="27.27273" width="93.38843" y="119.82644" x="289.5537" stroke="#2D2D2D" fill="#007fff"/>
  <rect id="8bb5a4679f5444f2a7650051f84314c0-ao-3" height="28.09917" width="127.27273" y="165.28098" x="260.62808" stroke="#2D2D2D" fill="#007fff"/>
  <rect id="8bb5a4679f5444f2a7650051f84314c0-ao-4" height="23.1405" width="86.77686" y="204.12396" x="303.60329" stroke="#2D2D2D" fill="#007fff"/>
  <rect id="8bb5a4679f5444f2a7650051f84314c0-ao-5" height="19.83471" width="109.09091" y="249.5785" x="249.05784" stroke="#2D2D2D" fill="#007fff"/>
  <rect id="8bb5a4679f5444f2a7650051f84314c0-ao-6" height="38.84297" width="122.31405" y="290.90082" x="213.52065" stroke="#2D2D2D" fill="#007fff"/>
  <rect id="8bb5a4679f5444f2a7650051f84314c0-ao-7" height="43.80165" width="100" y="404.12395" x="167.23966" stroke="#2D2D2D" fill="#007fff"/>
  <rect id="8bb5a4679f5444f2a7650051f84314c0-ao-8" height="44.6281" width="107.43802" y="539.66114" x="229.22313" stroke="#2D2D2D" fill="#007fff"/>
  
  <rect id="8bb5a4679f5444f2a7650051f84314c0-ao-10" height="50.41322" width="127.27273" y="698.33883" x="317.65288" stroke="#2D2D2D" fill="#007fff"/>
  <rect id="8bb5a4679f5444f2a7650051f84314c0-ao-11" height="52.06612" width="102.47934" y="696.68594" x="488.72726" stroke="#2D2D2D" fill="#007fff"/>
  <rect id="8bb5a4679f5444f2a7650051f84314c0-ao-12" height="52.06612" width="100.82645" y="21.47933" x="521.78511" stroke="#2D2D2D" fill="#007fff"/>
  <rect id="8bb5a4679f5444f2a7650051f84314c0-ao-13" height="46.28099" width="94.21488" y="25.61156" x="658.14874" stroke="#2D2D2D" fill="#007fff"/>
  <rect id="8bb5a4679f5444f2a7650051f84314c0-ao-14" height="46.28099" width="106.61157" y="23.13222" x="779.63634" stroke="#2D2D2D" fill="#007fff"/>
  <rect id="8bb5a4679f5444f2a7650051f84314c0-ao-15" height="25.61983" width="86.77686" y="133.04958" x="1045.75204" stroke="#2D2D2D" fill="#007fff"/>
  <rect id="8bb5a4679f5444f2a7650051f84314c0-ao-16" height="25.61983" width="154.54545" y="178.50412" x="1039.14047" stroke="#2D2D2D" fill="#007fff"/>
  <rect id="8bb5a4679f5444f2a7650051f84314c0-ao-17" height="28.09917" width="156.19835" y="222.30577" x="1043.27271" stroke="#2D2D2D" fill="#007fff"/>
  <rect id="8bb5a4679f5444f2a7650051f84314c0-ao-18" height="28.09917" width="152.06611" y="268.58677" x="1042.44626" stroke="#2D2D2D" fill="#007fff"/>
  <rect id="8bb5a4679f5444f2a7650051f84314c0-ao-19" height="42.14876" width="195.86777" y="316.52065" x="1043.27271" stroke="#2D2D2D" fill="#007fff"/>
  <rect id="8bb5a4679f5444f2a7650051f84314c0-ao-20" height="48.76033" width="133.05785" y="380.98346" x="1042.44626" stroke="#2D2D2D" fill="#007fff"/>
  <rect id="8bb5a4679f5444f2a7650051f84314c0-ao-21" height="46.28099" width="157.02479" y="449.5785" x="1043.27271" stroke="#2D2D2D" fill="#007fff"/>
  <rect id="8bb5a4679f5444f2a7650051f84314c0-ao-22" height="28.92562" width="68.59504" y="514.86776" x="901.12395" stroke="#2D2D2D" fill="#007fff"/>
  <rect id="8bb5a4679f5444f2a7650051f84314c0-ao-23" height="42.97521" width="158.67768" y="561.97519" x="841.61981" stroke="#2D2D2D" fill="#007fff"/>
  <rect id="8bb5a4679f5444f2a7650051f84314c0-ao-24" height="47.10744" width="165.28925" y="631.39668" x="796.99172" stroke="#2D2D2D" fill="#007fff"/>
  <rect id="8bb5a4679f5444f2a7650051f84314c0-ao-25" height="71.07438" width="136.36364" y="677.67767" x="625.09089" stroke="#2D2D2D" fill="#007fff"/>
 </g>
</svg>