<svg xmlns="http://www.w3.org/2000/svg" width="1667" height="969">
 <!-- Created with Image Occlusion Enhanced -->
 <g>
  <title>Labels</title>
 </g>
 <g>
  <title>Masks</title>
  <rect id="92e02e4e12534102874f1dfc6863b3b9-ao-1" height="74.19355" width="222.58065" y="199.81723" x="257.73108" stroke="#2D2D2D" fill="#007fff"/>
  <rect id="92e02e4e12534102874f1dfc6863b3b9-ao-2" height="72.04301" width="252.68818" y="85.83873" x="507.19345" stroke="#2D2D2D" fill="#007fff"/>
  <rect id="92e02e4e12534102874f1dfc6863b3b9-ao-3" height="73.11828" width="186.02151" y="52.5054" x="791.06442" stroke="#2D2D2D" fill="#007fff"/>
  <rect id="92e02e4e12534102874f1dfc6863b3b9-ao-4" height="33.33333" width="149.46237" y="90.13981" x="998.59131" stroke="#2D2D2D" fill="#007fff"/>
  <rect id="92e02e4e12534102874f1dfc6863b3b9-ao-5" height="54.83871" width="236.55914" y="199.81723" x="1212.56981" stroke="#2D2D2D" fill="#007fff"/>
  <rect id="92e02e4e12534102874f1dfc6863b3b9-ao-6" height="80.64516" width="233.33334" y="375.08605" x="1426.5483" stroke="#2D2D2D" fill="#007fff"/>
  <rect id="92e02e4e12534102874f1dfc6863b3b9-ao-7" height="35.48387" width="129.03226" y="542.82799" x="1370.63432" stroke="#2D2D2D" fill="#007fff"/>
  <rect id="92e02e4e12534102874f1dfc6863b3b9-ao-8" height="79.56989" width="166.66667" y="632.0753" x="1269.55905" stroke="#2D2D2D" fill="#007fff"/>
  <rect id="92e02e4e12534102874f1dfc6863b3b9-ao-9" height="76.34409" width="203.22581" y="750.35487" x="1130.84937" stroke="#2D2D2D" fill="#007fff"/>
  <rect id="92e02e4e12534102874f1dfc6863b3b9-ao-10" height="84.94624" width="197.84947" y="869.70971" x="1054.50529" stroke="#2D2D2D" fill="#007fff"/>
  <rect id="92e02e4e12534102874f1dfc6863b3b9-ao-11" height="80.64516" width="252.68818" y="784.76347" x="429.77409" stroke="#2D2D2D" fill="#007fff"/>
  <rect id="92e02e4e12534102874f1dfc6863b3b9-ao-12" height="74.19355" width="221.50538" y="681.53767" x="300.74183" stroke="#2D2D2D" fill="#007fff"/>
  <rect id="92e02e4e12534102874f1dfc6863b3b9-ao-13" height="80.64516" width="203.22581" y="578.31186" x="197.51602" stroke="#2D2D2D" fill="#007fff"/>
  <rect id="92e02e4e12534102874f1dfc6863b3b9-ao-14" height="70.96774" width="217.20431" y="478.31186" x="87.8386" stroke="#2D2D2D" fill="#FF7E7E" class="qshape"/>
  <rect id="92e02e4e12534102874f1dfc6863b3b9-ao-15" height="69.89247" width="163.44086" y="381.53766" x="96.44075" stroke="#2D2D2D" fill="#007fff"/>
 </g>
</svg>