<svg xmlns="http://www.w3.org/2000/svg" width="1498" height="893">
 <!-- Created with Image Occlusion Enhanced -->
 <g>
  <title>Labels</title>
 </g>
 <g>
  <title>Masks</title>
  <rect id="95a50fd37a6940c48404db601f22358f-ao-1" height="50.76923" width="127.69231" y="113.46151" x="274.30767" stroke="#2D2D2D" fill="#007fff"/>
  <rect id="95a50fd37a6940c48404db601f22358f-ao-2" height="49.23077" width="141.53846" y="187.30767" x="549.69228" stroke="#2D2D2D" fill="#007fff"/>
  <rect id="95a50fd37a6940c48404db601f22358f-ao-3" height="36.92308" width="100" y="262.69228" x="572.7692" stroke="#2D2D2D" fill="#007fff"/>
  <rect id="95a50fd37a6940c48404db601f22358f-ao-4" height="21.53846" width="120" y="322.69228" x="571.23074" stroke="#2D2D2D" fill="#007fff"/>
  <rect id="95a50fd37a6940c48404db601f22358f-ao-5" height="49.23077" width="123.07692" y="373.46151" x="568.15382" stroke="#2D2D2D" fill="#007fff"/>
  <rect id="95a50fd37a6940c48404db601f22358f-ao-6" height="35.38461" width="126.15384" y="438.0769" x="571.23074" stroke="#2D2D2D" fill="#007fff"/>
  <rect id="95a50fd37a6940c48404db601f22358f-ao-7" height="20" width="64.61538" y="548.84612" x="617.38459" stroke="#2D2D2D" fill="#007fff"/>
  <rect id="95a50fd37a6940c48404db601f22358f-ao-8" height="50.76923" width="87.69231" y="679.61535" x="618.92305" stroke="#2D2D2D" fill="#007fff"/>
  <rect id="95a50fd37a6940c48404db601f22358f-ao-9" height="46.15385" width="87.69231" y="393.46151" x="95.84613" stroke="#2D2D2D" fill="#007fff"/>
  <rect id="95a50fd37a6940c48404db601f22358f-ao-10" height="44.61538" width="75.38461" y="318.0769" x="94.30767" stroke="#2D2D2D" fill="#007fff"/>
  <rect id="95a50fd37a6940c48404db601f22358f-ao-11" height="52.30769" width="81.53846" y="238.0769" x="95.84613" stroke="#2D2D2D" fill="#007fff"/>
  <rect id="95a50fd37a6940c48404db601f22358f-ao-12" height="33.84615" width="89.23077" y="182.69228" x="108.15383" stroke="#2D2D2D" fill="#007fff"/>
  <rect id="95a50fd37a6940c48404db601f22358f-ao-13" height="60" width="116.92308" y="110.38459" x="988.15381" stroke="#2D2D2D" fill="#007fff"/>
  <rect id="95a50fd37a6940c48404db601f22358f-ao-14" height="52.30769" width="112.30769" y="113.46151" x="1146.61535" stroke="#2D2D2D" fill="#007fff"/>
  
  <rect id="95a50fd37a6940c48404db601f22358f-ao-16" height="50.76923" width="98.46154" y="230.38459" x="1300.4615" stroke="#2D2D2D" fill="#007fff"/>
  <rect id="95a50fd37a6940c48404db601f22358f-ao-17" height="50.76923" width="80" y="304.23074" x="1306.61535" stroke="#2D2D2D" fill="#007fff"/>
  <rect id="95a50fd37a6940c48404db601f22358f-ao-18" height="63.07692" width="116.92308" y="379.61536" x="1306.61535" stroke="#2D2D2D" fill="#007fff"/>
  <rect id="95a50fd37a6940c48404db601f22358f-ao-19" height="67.69231" width="112.30769" y="379.61536" x="777.38459" stroke="#2D2D2D" fill="#007fff"/>
  <rect id="95a50fd37a6940c48404db601f22358f-ao-20" height="23.07692" width="96.92308" y="319.61536" x="795.84613" stroke="#2D2D2D" fill="#007fff"/>
  <rect id="95a50fd37a6940c48404db601f22358f-ao-21" height="30.76923" width="90.76923" y="258.0769" x="800.46151" stroke="#2D2D2D" fill="#007fff"/>
  <rect id="95a50fd37a6940c48404db601f22358f-ao-22" height="50.76923" width="76.92308" y="178.0769" x="849.69228" stroke="#2D2D2D" fill="#007fff"/>
 </g>
</svg>