<svg xmlns="http://www.w3.org/2000/svg" width="727" height="625">
 <!-- Created with Image Occlusion Enhanced -->
 <g>
  <title>Labels</title>
 </g>
 <g>
  <title>Masks</title>
  <rect id="9611ab2c96024ea3947a3dd2bed8577e-ao-1" height="52.68817" width="126.88172" y="88.54838" x="534.29035" stroke="#2D2D2D" fill="#007fff"/>
  <rect id="9611ab2c96024ea3947a3dd2bed8577e-ao-2" height="51.6129" width="76.34409" y="159.51613" x="559.02153" stroke="#2D2D2D" fill="#007fff"/>
  <rect id="9611ab2c96024ea3947a3dd2bed8577e-ao-3" height="48.3871" width="122.58065" y="232.63441" x="578.37637" stroke="#2D2D2D" fill="#007fff"/>
  <rect id="9611ab2c96024ea3947a3dd2bed8577e-ao-4" height="44.08602" width="90.32258" y="304.67742" x="583.75272" stroke="#2D2D2D" fill="#007fff"/>
  
  <rect id="9611ab2c96024ea3947a3dd2bed8577e-ao-6" height="45.16129" width="105.37635" y="446.61291" x="581.60218" stroke="#2D2D2D" fill="#007fff"/>
  <rect id="9611ab2c96024ea3947a3dd2bed8577e-ao-7" height="30.10753" width="87.09678" y="512.20431" x="582.67745" stroke="#2D2D2D" fill="#007fff"/>
  <rect id="9611ab2c96024ea3947a3dd2bed8577e-ao-8" height="40.86022" width="155.91398" y="561.66667" x="454.72046" stroke="#2D2D2D" fill="#007fff"/>
  <rect id="9611ab2c96024ea3947a3dd2bed8577e-ao-9" height="48.3871" width="98.92473" y="556.29033" x="329.98927" stroke="#2D2D2D" fill="#007fff"/>
  <rect id="9611ab2c96024ea3947a3dd2bed8577e-ao-10" height="44.08602" width="92.47312" y="558.44087" x="194.5054" stroke="#2D2D2D" fill="#007fff"/>
  <rect id="9611ab2c96024ea3947a3dd2bed8577e-ao-11" height="52.68817" width="91.39785" y="493.92474" x="102.03228" stroke="#2D2D2D" fill="#007fff"/>
  <rect id="9611ab2c96024ea3947a3dd2bed8577e-ao-12" height="33.33333" width="107.52688" y="441.23656" x="50.41937" stroke="#2D2D2D" fill="#007fff"/>
  <rect id="9611ab2c96024ea3947a3dd2bed8577e-ao-13" height="52.68817" width="86.02151" y="369.19355" x="84.82797" stroke="#2D2D2D" fill="#007fff"/>
  <rect id="9611ab2c96024ea3947a3dd2bed8577e-ao-14" height="29.03226" width="84.94624" y="318.65591" x="68.69894" stroke="#2D2D2D" fill="#007fff"/>
  <rect id="9611ab2c96024ea3947a3dd2bed8577e-ao-15" height="66.66667" width="88.17204" y="228.33333" x="79.45163" stroke="#2D2D2D" fill="#007fff"/>
  <rect id="9611ab2c96024ea3947a3dd2bed8577e-ao-16" height="49.46237" width="92.47312" y="155.21505" x="102.03228" stroke="#2D2D2D" fill="#007fff"/>
  <rect id="9611ab2c96024ea3947a3dd2bed8577e-ao-17" height="52.68817" width="140.86022" y="86.39784" x="74.07529" stroke="#2D2D2D" fill="#007fff"/>
 </g>
</svg>