<svg xmlns="http://www.w3.org/2000/svg" width="910" height="549">
 <!-- Created with Image Occlusion Enhanced -->
 <g>
  <title>Labels</title>
 </g>
 <g>
  <title>Masks</title>
  <rect id="995b5697cd2b4340abdfaea641977c6f-ao-1" height="32.74254" width="114.17911" y="-11.68655" x="351.00743" stroke="#2D2D2D" fill="#FFEBA2"/>
  <rect id="995b5697cd2b4340abdfaea641977c6f-ao-2" height="32.74254" width="114.17911" y="-6.64926" x="485.33581" stroke="#2D2D2D" fill="#FFEBA2"/>
  <rect id="995b5697cd2b4340abdfaea641977c6f-ao-3" height="32.74254" width="114.17911" y="31.1306" x="545.78357" stroke="#2D2D2D" fill="#FFEBA2"/>
  <rect id="995b5697cd2b4340abdfaea641977c6f-ao-4" height="32.74254" width="114.17911" y="66.39179" x="634.77611" stroke="#2D2D2D" fill="#FFEBA2"/>
  <rect stroke="#2D2D2D" id="995b5697cd2b4340abdfaea641977c6f-ao-5" height="41.97761" width="148.60074" y="190.64552" x="760.70896" fill="#FFEBA2"/>
  <rect id="995b5697cd2b4340abdfaea641977c6f-ao-6" stroke="#2D2D2D" height="41.97761" width="148.60074" y="241.43843" x="758.61005" fill="#FFEBA2"/>
  <rect id="995b5697cd2b4340abdfaea641977c6f-ao-7" stroke="#2D2D2D" height="41.97761" width="148.60074" y="290.13247" x="742.65857" fill="#FFEBA2"/>
  <rect id="995b5697cd2b4340abdfaea641977c6f-ao-8" stroke="#2D2D2D" height="41.97761" width="148.60074" y="345.54292" x="703.19962" fill="#FFEBA2"/>
  <rect id="995b5697cd2b4340abdfaea641977c6f-ao-9" stroke="#2D2D2D" height="41.97761" width="148.60074" y="392.55784" x="636.87497" fill="#FFEBA2"/>
  <rect id="995b5697cd2b4340abdfaea641977c6f-ao-10" stroke="#2D2D2D" height="41.97761" width="148.60074" y="443.77054" x="572.22945" fill="#FFEBA2"/>
  <rect id="995b5697cd2b4340abdfaea641977c6f-ao-11" stroke="#2D2D2D" height="41.97761" width="148.60074" y="493.30411" x="473.16229" fill="#FFEBA2"/>
  <rect stroke="#2D2D2D" id="995b5697cd2b4340abdfaea641977c6f-ao-12" height="26.02612" width="121.73507" y="200.30038" x="6.37123" fill="#FFEBA2"/>
  <rect id="995b5697cd2b4340abdfaea641977c6f-ao-13" stroke="#2D2D2D" height="26.02612" width="121.73507" y="243.53732" x="14.7668" fill="#FFEBA2"/>
  <rect id="995b5697cd2b4340abdfaea641977c6f-ao-14" stroke="#2D2D2D" height="26.02612" width="121.73507" y="291.3918" x="7.21083" fill="#FFEBA2"/>
  <rect id="995b5697cd2b4340abdfaea641977c6f-ao-15" stroke="#2D2D2D" height="26.02612" width="121.73507" y="331.6903" x="4.69215" fill="#FFEBA2"/>
  <rect id="995b5697cd2b4340abdfaea641977c6f-ao-16" stroke="#2D2D2D" height="26.02612" width="121.73507" y="370.3097" x="5.53172" fill="#FFEBA2"/>
  <rect stroke="#2D2D2D" id="995b5697cd2b4340abdfaea641977c6f-ao-17" height="37.77985" width="148.60074" y="413.12688" x="2.1735" fill="#FFEBA2"/>
  <rect stroke="#2D2D2D" id="995b5697cd2b4340abdfaea641977c6f-ao-18" height="37.77985" width="153.63806" y="467.69777" x="32.39738" fill="#FFEBA2"/>
  <rect stroke="#2D2D2D" id="995b5697cd2b4340abdfaea641977c6f-ao-19" height="33.58209" width="81.43656" y="497.92166" x="196.11008" fill="#FF7E7E" class="qshape"/>
  <rect stroke="#2D2D2D" id="995b5697cd2b4340abdfaea641977c6f-ao-20" height="52.89179" width="168.74999" y="1.74627" x="144.89739" fill="#FFEBA2"/>
  <rect stroke="#2D2D2D" id="995b5697cd2b4340abdfaea641977c6f-ao-21" height="58.76865" width="129.29104" y="97.45522" x="22.32277" fill="#FFEBA2"/>
  <rect stroke="#2D2D2D" id="995b5697cd2b4340abdfaea641977c6f-ao-22" height="49.53361" width="167.07089" y="494.56347" x="291.81904" fill="#FFEBA2"/>
 </g>
</svg>