<svg xmlns="http://www.w3.org/2000/svg" width="770" height="627">
 <!-- Created with Image Occlusion Enhanced -->
 <g>
  <title>Labels</title>
 </g>
 <g>
  <title>Masks</title>
  <rect id="9b16525d9563468e9d056a548ae7e5b6-oa-1" height="17.02128" width="118.08511" y="38.5319" x="11.91491" stroke="#2D2D2D" fill="#FFEBA2"/>
  <rect id="9b16525d9563468e9d056a548ae7e5b6-oa-2" height="39.3617" width="103.19149" y="74.70212" x="14.04257" stroke="#2D2D2D" fill="#FFEBA2"/>
  <rect id="9b16525d9563468e9d056a548ae7e5b6-oa-3" height="21.2766" width="88.29787" y="123.63829" x="19.36172" stroke="#2D2D2D" fill="#FFEBA2"/>
  <rect id="9b16525d9563468e9d056a548ae7e5b6-oa-4" height="22.34043" width="107.44681" y="160.87233" x="3.40427" stroke="#2D2D2D" fill="#FFEBA2"/>
  <rect id="9b16525d9563468e9d056a548ae7e5b6-oa-5" height="38.29787" width="105.31915" y="186.40425" x="8.72342" stroke="#2D2D2D" fill="#FFEBA2"/>
  <rect id="9b16525d9563468e9d056a548ae7e5b6-oa-6" height="12.76596" width="93.61702" y="239.59574" x="12.97874" stroke="#2D2D2D" fill="#FFEBA2"/>
  <rect id="9b16525d9563468e9d056a548ae7e5b6-oa-7" height="21.2766" width="105.31915" y="267.25531" x="20.42555" stroke="#2D2D2D" fill="#FFEBA2"/>
  <rect id="9b16525d9563468e9d056a548ae7e5b6-oa-8" height="17.02128" width="73.40426" y="302.36169" x="43.8298" stroke="#2D2D2D" fill="#FFEBA2"/>
  <rect id="9b16525d9563468e9d056a548ae7e5b6-oa-9" height="20.21277" width="85.10638" y="331.0851" x="28.93618" stroke="#2D2D2D" fill="#FFEBA2"/>
  <rect id="9b16525d9563468e9d056a548ae7e5b6-oa-10" height="17.02128" width="74.46809" y="361.93616" x="37.44682" stroke="#2D2D2D" fill="#FFEBA2"/>
  <rect id="9b16525d9563468e9d056a548ae7e5b6-oa-11" height="47.87234" width="113.82979" y="22.57446" x="646.17024" stroke="#2D2D2D" fill="#FFEBA2"/>
  <rect id="9b16525d9563468e9d056a548ae7e5b6-oa-12" height="34.04255" width="97.87234" y="80.02126" x="653.61705" stroke="#2D2D2D" fill="#FFEBA2"/>
  <rect id="9b16525d9563468e9d056a548ae7e5b6-oa-13" height="39.3617" width="81.91489" y="121.51063" x="650.42556" stroke="#2D2D2D" fill="#FFEBA2"/>
  <rect id="9b16525d9563468e9d056a548ae7e5b6-oa-14" height="18.08511" width="100" y="172.57446" x="650.42556" stroke="#2D2D2D" fill="#FFEBA2"/>
  <rect id="9b16525d9563468e9d056a548ae7e5b6-oa-15" height="37.23404" width="80.85107" y="204.48935" x="649.36173" stroke="#2D2D2D" fill="#FFEBA2"/>
  <rect id="9b16525d9563468e9d056a548ae7e5b6-oa-16" height="22.34043" width="85.10638" y="254.48935" x="652.55322" stroke="#2D2D2D" fill="#FFEBA2"/>
  <rect id="9b16525d9563468e9d056a548ae7e5b6-oa-17" height="36.17021" width="104.25532" y="289.59574" x="651.48939" stroke="#2D2D2D" fill="#FFEBA2"/>
  <rect id="9b16525d9563468e9d056a548ae7e5b6-oa-18" height="18.08511" width="56.38298" y="335.34042" x="656.80853" stroke="#2D2D2D" fill="#FFEBA2"/>
  <rect id="9b16525d9563468e9d056a548ae7e5b6-oa-19" height="34.04255" width="91.48936" y="370.4468" x="661.06385" stroke="#2D2D2D" fill="#FFEBA2"/>
 </g>
</svg>