<svg xmlns="http://www.w3.org/2000/svg" width="770" height="789">
 <!-- Created with Image Occlusion Enhanced -->
 <g>
  <title>Labels</title>
 </g>
 <g>
  <title>Masks</title>
  <rect id="9cba0a669f29441687d5faf645d14094-oa-1" height="34.66667" width="66.66667" y="156.06667" x="71.33333" stroke="#2D2D2D" fill="#FFEBA2"/>
  <rect id="9cba0a669f29441687d5faf645d14094-oa-2" height="25.33333" width="86.66667" y="193.4" x="43.33333" stroke="#2D2D2D" fill="#FFEBA2"/>
  <rect id="9cba0a669f29441687d5faf645d14094-oa-3" height="26.66667" width="104" y="228.06667" x="15.33333" stroke="#2D2D2D" fill="#FFEBA2"/>
  <rect id="9cba0a669f29441687d5faf645d14094-oa-4" height="40" width="60" y="268.06667" x="22" stroke="#2D2D2D" fill="#FFEBA2"/>
  <rect id="9cba0a669f29441687d5faf645d14094-oa-5" height="30.66667" width="62.66667" y="365.4" x="23.33333" stroke="#2D2D2D" fill="#FFEBA2"/>
  <rect id="9cba0a669f29441687d5faf645d14094-oa-6" height="17.33333" width="64" y="409.4" x="20.66667" stroke="#2D2D2D" fill="#FFEBA2"/>
  <rect id="9cba0a669f29441687d5faf645d14094-oa-7" height="5.33333" width="61.33333" y="444.06667" x="16.66667" stroke="#2D2D2D" fill="#FFEBA2"/>
  <rect id="9cba0a669f29441687d5faf645d14094-oa-8" height="17.33333" width="61.33333" y="465.4" x="16.66667" stroke="#2D2D2D" fill="#FFEBA2"/>
  <rect id="9cba0a669f29441687d5faf645d14094-oa-9" height="32" width="74.66667" y="174.73333" x="643.33333" stroke="#2D2D2D" fill="#FFEBA2"/>
  <rect id="9cba0a669f29441687d5faf645d14094-oa-10" height="21.33333" width="74.66667" y="220.06667" x="666" stroke="#2D2D2D" fill="#FFEBA2"/>
  <rect id="9cba0a669f29441687d5faf645d14094-oa-11" height="26.66667" width="61.33333" y="262.73333" x="671.33333" stroke="#2D2D2D" fill="#FFEBA2"/>
  <rect id="9cba0a669f29441687d5faf645d14094-oa-12" height="21.33333" width="93.33333" y="306.73333" x="668.66667" stroke="#2D2D2D" fill="#FFEBA2"/>
  <rect id="9cba0a669f29441687d5faf645d14094-oa-13" height="32" width="73.33333" y="338.73333" x="680.66667" stroke="#2D2D2D" fill="#FFEBA2"/>
  <rect id="9cba0a669f29441687d5faf645d14094-oa-14" height="17.33333" width="52" y="416.06667" x="674" stroke="#2D2D2D" fill="#FFEBA2"/>
  <rect id="9cba0a669f29441687d5faf645d14094-oa-15" height="22.66667" width="86.66667" y="449.4" x="662" stroke="#2D2D2D" fill="#FFEBA2"/>
  <rect id="9cba0a669f29441687d5faf645d14094-oa-16" height="22.66667" width="74.66667" y="482.73333" x="660.66667" stroke="#2D2D2D" fill="#FFEBA2"/>
  <rect id="9cba0a669f29441687d5faf645d14094-oa-17" height="37.33333" width="70.66667" y="572.06667" x="51.33333" stroke="#2D2D2D" fill="#FFEBA2"/>
 </g>
</svg>