<svg xmlns="http://www.w3.org/2000/svg" width="1474" height="1082">
 <!-- Created with Image Occlusion Enhanced -->
 <g>
  <title>Labels</title>
 </g>
 <g>
  <title>Masks</title>
  <rect id="9e41a8852fc74c92a65d5a3a4bc424ef-ao-1" height="37.03704" width="133.33333" y="282.44437" x="63.77774" stroke="#2D2D2D" fill="#007fff"/>
  <rect id="9e41a8852fc74c92a65d5a3a4bc424ef-ao-2" height="42.59259" width="133.33333" y="358.37029" x="61.92588" stroke="#2D2D2D" fill="#007fff"/>
  <rect id="9e41a8852fc74c92a65d5a3a4bc424ef-ao-3" height="33.33333" width="133.33333" y="439.85177" x="54.51848" stroke="#2D2D2D" fill="#007fff"/>
  <rect id="9e41a8852fc74c92a65d5a3a4bc424ef-ao-4" height="48.14815" width="124.07407" y="504.66659" x="69.33329" stroke="#2D2D2D" fill="#007fff"/>
  <rect id="9e41a8852fc74c92a65d5a3a4bc424ef-ao-5" height="38.88889" width="146.29629" y="589.85177" x="47.11107" stroke="#2D2D2D" fill="#007fff"/>
  <rect id="9e41a8852fc74c92a65d5a3a4bc424ef-ao-6" height="53.7037" width="129.62963" y="652.81473" x="67.48144" stroke="#2D2D2D" fill="#007fff"/>
  <rect id="9e41a8852fc74c92a65d5a3a4bc424ef-ao-7" height="25.92593" width="62.96296" y="736.14806" x="132.29625" stroke="#2D2D2D" fill="#007fff"/>
  <rect id="9e41a8852fc74c92a65d5a3a4bc424ef-ao-8" height="31.48148" width="68.51852" y="800.96287" x="123.03699" stroke="#2D2D2D" fill="#007fff"/>
  <rect id="9e41a8852fc74c92a65d5a3a4bc424ef-ao-9" height="53.7037" width="112.96296" y="821.33324" x="1165.62956" stroke="#2D2D2D" fill="#007fff"/>
  
  <rect id="9e41a8852fc74c92a65d5a3a4bc424ef-ao-11" height="44.44444" width="83.33333" y="665.77769" x="1171.18511" stroke="#2D2D2D" fill="#007fff"/>
  <rect id="9e41a8852fc74c92a65d5a3a4bc424ef-ao-12" height="42.59259" width="96.29629" y="593.55547" x="1195.25919" stroke="#2D2D2D" fill="#007fff"/>
  <rect id="9e41a8852fc74c92a65d5a3a4bc424ef-ao-13" height="40.74074" width="122.22222" y="519.4814" x="1208.22215" stroke="#2D2D2D" fill="#007fff"/>
  <rect id="9e41a8852fc74c92a65d5a3a4bc424ef-ao-14" height="51.85185" width="103.7037" y="443.55548" x="1254.51844" stroke="#2D2D2D" fill="#007fff"/>
  <rect id="9e41a8852fc74c92a65d5a3a4bc424ef-ao-15" height="50" width="100" y="373.18511" x="1252.66659" stroke="#2D2D2D" fill="#007fff"/>
  <rect id="9e41a8852fc74c92a65d5a3a4bc424ef-ao-16" height="48.14815" width="133.33333" y="300.96289" x="1269.33326" stroke="#2D2D2D" fill="#007fff"/>
  <rect id="9e41a8852fc74c92a65d5a3a4bc424ef-ao-17" height="50" width="105.55555" y="225.03696" x="1291.55548" stroke="#2D2D2D" fill="#007fff"/>
 </g>
</svg>