<svg xmlns="http://www.w3.org/2000/svg" width="756.9999999999999" height="745">
 <!-- Created with Image Occlusion Enhanced -->
 <g>
  <title>Labels</title>
 </g>
 <g>
  <title>Masks</title>
  <rect id="a18ade751ac24597bb218974145613cb-oa-1" height="17.72152" width="97.46836" y="696.77218" x="237.93665" stroke="#2D2D2D" fill="#FFEBA2"/>
  <rect id="a18ade751ac24597bb218974145613cb-oa-2" height="20.25316" width="93.67089" y="728.41775" x="103.75943" stroke="#2D2D2D" fill="#FFEBA2"/>
  <rect id="a18ade751ac24597bb218974145613cb-oa-3" height="12.65823" width="46.83544" y="642.3418" x="35.405" stroke="#2D2D2D" fill="#FFEBA2"/>
  <rect id="a18ade751ac24597bb218974145613cb-oa-4" height="11.39241" width="37.97468" y="489.17724" x="29.07589" stroke="#2D2D2D" fill="#FFEBA2"/>
  <rect id="a18ade751ac24597bb218974145613cb-oa-5" height="30.37975" width="63.29114" y="415.75952" x="18.9493" stroke="#2D2D2D" fill="#FFEBA2"/>
  <rect id="a18ade751ac24597bb218974145613cb-oa-6" height="10.12658" width="53.16456" y="363.86078" x="26.54424" stroke="#2D2D2D" fill="#FFEBA2"/>
  <rect id="a18ade751ac24597bb218974145613cb-oa-7" height="11.39241" width="60.75949" y="337.2785" x="21.48095" stroke="#2D2D2D" fill="#FFEBA2"/>
  <rect id="a18ade751ac24597bb218974145613cb-oa-8" height="12.65823" width="73.41772" y="310.69622" x="27.81006" stroke="#2D2D2D" fill="#FFEBA2"/>
  <rect id="a18ade751ac24597bb218974145613cb-oa-9" height="29.11392" width="63.29114" y="663.86079" x="335.40501" stroke="#2D2D2D" fill="#FFEBA2"/>
  <rect id="a18ade751ac24597bb218974145613cb-oa-10" height="53.16456" width="64.55696" y="573.98737" x="370.84805" stroke="#2D2D2D" fill="#FFEBA2"/>
  <rect id="a18ade751ac24597bb218974145613cb-oa-11" height="29.11392" width="72.1519" y="641.07598" x="417.68349" stroke="#2D2D2D" fill="#FFEBA2"/>
  <rect id="a18ade751ac24597bb218974145613cb-oa-12" height="56.96203" width="92.40507" y="577.78484" x="461.98729" stroke="#2D2D2D" fill="#FFEBA2"/>
  <rect transform="rotate(1.5911675691604614 589.8353881835935,598.0380249023433) " id="a18ade751ac24597bb218974145613cb-oa-13" height="30.37975" width="81.01266" y="582.84813" x="549.32906" stroke="#2D2D2D" fill="#FFEBA2"/>
  <rect id="a18ade751ac24597bb218974145613cb-oa-14" height="27.8481" width="69.62025" y="515.75952" x="649.32906" stroke="#2D2D2D" fill="#FFEBA2"/>
  <rect id="a18ade751ac24597bb218974145613cb-oa-15" height="16.4557" width="63.29114" y="556.26585" x="598.69615" stroke="#2D2D2D" fill="#FFEBA2"/>
  <rect id="a18ade751ac24597bb218974145613cb-oa-16" height="27.8481" width="75.94937" y="272.72154" x="21.48095" stroke="#2D2D2D" fill="#FFEBA2"/>
  <rect id="a18ade751ac24597bb218974145613cb-oa-17" height="27.8481" width="73.41772" y="236.01268" x="21.48095" stroke="#2D2D2D" fill="#FFEBA2"/>
  <rect id="a18ade751ac24597bb218974145613cb-oa-18" height="29.11392" width="84.81013" y="192.9747" x="24.0126" stroke="#2D2D2D" fill="#FFEBA2"/>
  <rect id="a18ade751ac24597bb218974145613cb-oa-19" height="32.91139" width="96.20253" y="138.54432" x="51.8607" stroke="#2D2D2D" fill="#FFEBA2"/>
  <rect id="a18ade751ac24597bb218974145613cb-oa-20" height="40.50633" width="84.81013" y="90.44306" x="72.11386" stroke="#2D2D2D" fill="#FFEBA2"/>
  <rect id="a18ade751ac24597bb218974145613cb-oa-21" height="21.51899" width="48.10127" y="44.87343" x="213.88602" stroke="#2D2D2D" fill="#FFEBA2"/>
  <rect id="a18ade751ac24597bb218974145613cb-oa-22" height="17.72152" width="88.6076" y="32.21521" x="359.45564" stroke="#2D2D2D" fill="#FFEBA2"/>
  <rect id="a18ade751ac24597bb218974145613cb-oa-23" height="16.4557" width="81.01266" y="47.40508" x="513.88602" stroke="#2D2D2D" fill="#FFEBA2"/>
  <rect id="a18ade751ac24597bb218974145613cb-oa-24" height="25.31646" width="79.74684" y="77.78483" x="589.83539" stroke="#2D2D2D" fill="#FFEBA2"/>
 </g>
</svg>