<svg xmlns="http://www.w3.org/2000/svg" width="1397" height="944">
 <!-- Created with Image Occlusion Enhanced -->
 <g>
  <title>Labels</title>
 </g>
 <g>
  <title>Masks</title>
  <rect id="a30d1b0b3a4344739eba667712f28e3d-ao-1" height="51.6129" width="104.83871" y="46.96768" x="261.06449" stroke="#2D2D2D" fill="#007fff"/>
  <rect id="a30d1b0b3a4344739eba667712f28e3d-ao-2" height="50" width="108.06451" y="48.58058" x="409.45158" stroke="#2D2D2D" fill="#007fff"/>
  <rect id="a30d1b0b3a4344739eba667712f28e3d-ao-3" height="53.22581" width="90.32258" y="43.74187" x="559.45158" stroke="#2D2D2D" fill="#007fff"/>
  <rect id="a30d1b0b3a4344739eba667712f28e3d-ao-4" height="50" width="83.87097" y="46.96768" x="691.70964" stroke="#2D2D2D" fill="#007fff"/>
  <rect id="a30d1b0b3a4344739eba667712f28e3d-ao-5" height="46.77419" width="114.51613" y="46.96768" x="820.7419" stroke="#2D2D2D" fill="#007fff"/>
  <rect id="a30d1b0b3a4344739eba667712f28e3d-ao-6" height="54.83871" width="137.09677" y="161.48381" x="1212.67738" stroke="#2D2D2D" fill="#007fff"/>
  <rect id="a30d1b0b3a4344739eba667712f28e3d-ao-7" height="48.3871" width="114.51613" y="230.83864" x="1209.45157" stroke="#2D2D2D" fill="#007fff"/>
  <rect id="a30d1b0b3a4344739eba667712f28e3d-ao-8" height="54.83871" width="143.54838" y="300.19348" x="1209.45157" stroke="#2D2D2D" fill="#007fff"/>
  <rect id="a30d1b0b3a4344739eba667712f28e3d-ao-9" height="22.58064" width="103.2258" y="375.99993" x="1207.83867" stroke="#2D2D2D" fill="#007fff"/>
  <rect id="a30d1b0b3a4344739eba667712f28e3d-ao-10" height="56.45161" width="100" y="419.54832" x="1228.80641" stroke="#2D2D2D" fill="#007fff"/>
  <rect id="a30d1b0b3a4344739eba667712f28e3d-ao-11" height="59.67742" width="116.12903" y="616.32251" x="1232.03221" stroke="#2D2D2D" fill="#007fff"/>
  
  <rect id="a30d1b0b3a4344739eba667712f28e3d-ao-13" height="30.64516" width="103.2258" y="750.19347" x="1207.83867" stroke="#2D2D2D" fill="#007fff"/>
  <rect id="a30d1b0b3a4344739eba667712f28e3d-ao-14" height="50" width="88.70968" y="801.80638" x="1212.67738" stroke="#2D2D2D" fill="#007fff"/>
  <rect id="a30d1b0b3a4344739eba667712f28e3d-ao-15" height="46.77419" width="106.45161" y="859.87089" x="732.03222" stroke="#2D2D2D" fill="#007fff"/>
  <rect id="a30d1b0b3a4344739eba667712f28e3d-ao-16" height="30.64516" width="106.45161" y="855.03218" x="572.35481" stroke="#2D2D2D" fill="#007fff"/>
  <rect id="a30d1b0b3a4344739eba667712f28e3d-ao-17" height="32.25806" width="104.83871" y="750.19347" x="407.83868" stroke="#2D2D2D" fill="#007fff"/>
  <rect id="a30d1b0b3a4344739eba667712f28e3d-ao-18" height="48.3871" width="151.6129" y="682.45154" x="288.48384" stroke="#2D2D2D" fill="#007fff"/>
  <rect id="a30d1b0b3a4344739eba667712f28e3d-ao-19" height="46.77419" width="88.70968" y="613.0967" x="323.96771" stroke="#2D2D2D" fill="#007fff"/>
  <rect id="a30d1b0b3a4344739eba667712f28e3d-ao-20" height="29.03226" width="116.12903" y="611.4838" x="162.67739" stroke="#2D2D2D" fill="#007fff"/>
 </g>
</svg>