<svg xmlns="http://www.w3.org/2000/svg" width="735" height="695">
 <!-- Created with Image Occlusion Enhanced -->
 <g>
  <title>Labels</title>
 </g>
 <g>
  <title>Masks</title>
  <rect id="a52b5f4417514d069abcc2953c87697f-oa-1" height="44.70588" width="107.05882" y="42.88235" x="106.17647" stroke="#2D2D2D" fill="#FFEBA2"/>
  <rect id="a52b5f4417514d069abcc2953c87697f-oa-2" height="42.35294" width="110.58824" y="132.29412" x="586.17647" stroke="#2D2D2D" fill="#FFEBA2"/>
  <rect id="a52b5f4417514d069abcc2953c87697f-oa-3" height="35.29412" width="75.29412" y="186.41176" x="597.94118" stroke="#2D2D2D" fill="#FFEBA2"/>
  <rect id="a52b5f4417514d069abcc2953c87697f-oa-4" height="28.23529" width="75.29412" y="235.82353" x="609.70588" stroke="#2D2D2D" fill="#FFEBA2"/>
  <rect id="a52b5f4417514d069abcc2953c87697f-oa-5" height="44.70588" width="89.41176" y="282.88235" x="626.17647" stroke="#2D2D2D" fill="#FFEBA2"/>
  <rect id="a52b5f4417514d069abcc2953c87697f-oa-6" height="32.94118" width="64.70588" y="329.94118" x="634.41176" stroke="#2D2D2D" fill="#FFEBA2"/>
  <rect id="a52b5f4417514d069abcc2953c87697f-oa-7" height="29.41176" width="82.35294" y="366.41176" x="632.05882" stroke="#2D2D2D" fill="#FFEBA2"/>
  <rect id="a52b5f4417514d069abcc2953c87697f-oa-8" height="29.41176" width="81.17647" y="405.23529" x="615.58824" stroke="#2D2D2D" fill="#FFEBA2"/>
  <rect id="a52b5f4417514d069abcc2953c87697f-oa-9" height="23.52941" width="61.17647" y="446.41176" x="582.64706" stroke="#2D2D2D" fill="#FFEBA2"/>
  <rect id="a52b5f4417514d069abcc2953c87697f-oa-10" height="22.35294" width="63.52941" y="480.52941" x="575.58824" stroke="#2D2D2D" fill="#FFEBA2"/>
  <rect id="a52b5f4417514d069abcc2953c87697f-oa-11" height="20" width="71.76471" y="512.29412" x="553.23529" stroke="#2D2D2D" fill="#FFEBA2"/>
  <rect id="a52b5f4417514d069abcc2953c87697f-oa-12" height="24.70588" width="70.58824" y="539.35294" x="557.94118" stroke="#2D2D2D" fill="#FFEBA2"/>
  <rect id="a52b5f4417514d069abcc2953c87697f-oa-13" height="32.94118" width="78.82353" y="574.64706" x="557.94118" stroke="#2D2D2D" fill="#FFEBA2"/>
  <rect id="a52b5f4417514d069abcc2953c87697f-oa-14" height="30.58824" width="68.23529" y="613.47059" x="546.17647" stroke="#2D2D2D" fill="#FFEBA2"/>
  <rect id="a52b5f4417514d069abcc2953c87697f-oa-15" height="18.82353" width="64.70588" y="655.82353" x="540.29412" stroke="#2D2D2D" fill="#FFEBA2"/>
  <rect id="a52b5f4417514d069abcc2953c87697f-oa-16" height="37.64706" width="80" y="642.88235" x="110.88235" stroke="#2D2D2D" fill="#FFEBA2"/>
  <rect id="a52b5f4417514d069abcc2953c87697f-oa-17" height="22.35294" width="58.82353" y="611.11765" x="113.23529" stroke="#2D2D2D" fill="#FFEBA2"/>
  <rect id="a52b5f4417514d069abcc2953c87697f-oa-18" height="25.88235" width="83.52941" y="579.35294" x="92.05882" stroke="#2D2D2D" fill="#FFEBA2"/>
  <rect id="a52b5f4417514d069abcc2953c87697f-oa-19" height="25.88235" width="81.17647" y="532.29412" x="82.64706" stroke="#2D2D2D" fill="#FFEBA2"/>
  <rect id="a52b5f4417514d069abcc2953c87697f-oa-20" height="38.82353" width="71.76471" y="493.47059" x="63.82353" stroke="#2D2D2D" fill="#FFEBA2"/>
  <rect id="a52b5f4417514d069abcc2953c87697f-oa-21" height="25.88235" width="81.17647" y="457" x="40.29412" stroke="#2D2D2D" fill="#FFEBA2"/>
  <rect id="a52b5f4417514d069abcc2953c87697f-oa-22" height="38.82353" width="91.76471" y="420.52941" x="20.29412" stroke="#2D2D2D" fill="#FFEBA2"/>
  <rect id="a52b5f4417514d069abcc2953c87697f-oa-23" height="34.11765" width="74.11765" y="380.52941" x="19.11765" stroke="#2D2D2D" fill="#FFEBA2"/>
  <rect id="a52b5f4417514d069abcc2953c87697f-oa-24" height="22.35294" width="55.29412" y="344.05882" x="37.94118" stroke="#2D2D2D" fill="#FFEBA2"/>
  <rect id="a52b5f4417514d069abcc2953c87697f-oa-25" height="42.35294" width="87.05882" y="231.11765" x="30.88235" stroke="#2D2D2D" fill="#FFEBA2"/>
  <rect id="a52b5f4417514d069abcc2953c87697f-oa-26" height="24.70588" width="68.23529" y="198.17647" x="36.76471" stroke="#2D2D2D" fill="#FFEBA2"/>
  <rect id="a52b5f4417514d069abcc2953c87697f-oa-27" height="31.76471" width="56.47059" y="161.70588" x="57.94118" stroke="#2D2D2D" fill="#FFEBA2"/>
 </g>
</svg>