<svg width="594" height="225.5" xmlns="http://www.w3.org/2000/svg">
 <g>
  <title>background</title>
  <rect fill="#ffffff" id="canvas_background" height="227.5" width="596" y="-1" x="-1"/>
 </g>

 <g>
  <title>Layer 1</title>
  <g id="Ebene_1">
   <g id="svg_1" transform="matrix(1,0,0,1,270,119.55) ">
    <g id="svg_2">
     <g id="svg_3">
      <g id="Symbol_1_0_Layer0_0_FILL">
       <path id="svg_4" d="m0.05,-71.55l-0.05,0.05c-9.033,21.866 -13.55,45.866 -13.55,72c0,26.1 4.517,50.083 13.55,71.95l0.05,0.05l0,-0.05c9.067,-21.867 13.6,-45.85 13.6,-71.95c0,-26.134 -4.533,-50.134 -13.601,-72l0,-0.05l0.001,0z" fill="#009FFF"/>
      </g>
     </g>
     <g id="svg_5">
      <path d="m0.05,-71.55l0,0.05c9.067,21.866 13.6,45.866 13.6,72c0,26.1 -4.533,50.083 -13.601,71.95l0,0.05l-0.049,-0.05c-9.033,-21.867 -13.55,-45.85 -13.55,-71.95c0,-26.134 4.517,-50.134 13.55,-72l0.05,-0.05z" stroke-linejoin="round" stroke-linecap="round" stroke="#009FFF" fill="none" id="Symbol_1_0_Layer0_0_1_STROKES"/>
     </g>
    </g>
   </g>
   <line id="svg_6" y2="42.176" x2="270.051" y1="203.176" x1="270.051" stroke-linejoin="round" stroke-linecap="round" stroke-width="1.9358" stroke="#FF00FF" fill="none"/>
   <g id="svg_7" transform="matrix(1,0,0,1,335.2,248) ">
    <g id="svg_8">
     <path id="svg_9" d="m7.037,-100.5l0,-12.885l8.692,0l0,1.521l-6.987,0l0,3.99l6.047,0l0,1.521l-6.047,0l0,5.854l-1.705,0l0,-0.001z"/>
     <path id="svg_10" d="m21.771,-96.5l-1.23,0l0,-7.841c-0.296,0.282 -0.685,0.565 -1.165,0.848c-0.481,0.282 -0.913,0.494 -1.296,0.636l0,-1.189c0.688,-0.323 1.29,-0.716 1.805,-1.176s0.88,-0.907 1.094,-1.34l0.793,0l0,10.062l-0.001,0z"/>
    </g>
    <line id="svg_11" y2="-134.166" x2="14.951" y1="-121.625" x1="14.951" stroke-miterlimit="10" stroke-width="1.5" stroke="#000000" fill="none"/>
    <line id="svg_12" y2="-134.344" x2="-145.249" y1="-121.802" x1="-145.249" stroke-miterlimit="10" stroke-width="1.5" stroke="#000000" fill="none"/>
    <g id="svg_13">
     <path id="svg_14" d="m-149.629,-100.5l0,-12.885l8.692,0l0,1.521l-6.987,0l0,3.99l6.047,0l0,1.521l-6.047,0l0,5.854l-1.705,0l0,-0.001z"/>
     <path id="svg_15" d="m-133.063,-97.682l0,1.183l-6.624,0c-0.009,-0.296 0.039,-0.581 0.144,-0.854c0.168,-0.451 0.438,-0.896 0.81,-1.333s0.908,-0.943 1.61,-1.518c1.089,-0.894 1.825,-1.601 2.208,-2.123c0.383,-0.521 0.574,-1.015 0.574,-1.479c0,-0.487 -0.174,-0.899 -0.523,-1.233c-0.349,-0.336 -0.803,-0.503 -1.364,-0.503c-0.592,0 -1.066,0.178 -1.422,0.533s-0.536,0.848 -0.54,1.477l-1.265,-0.13c0.086,-0.943 0.413,-1.662 0.978,-2.156c0.565,-0.495 1.324,-0.742 2.276,-0.742c0.961,0 1.723,0.267 2.283,0.8s0.841,1.194 0.841,1.982c0,0.401 -0.082,0.795 -0.246,1.183s-0.437,0.795 -0.817,1.224s-1.013,1.017 -1.897,1.764c-0.738,0.62 -1.212,1.04 -1.422,1.261c-0.209,0.222 -0.383,0.443 -0.52,0.667l4.916,0l0,-0.003z"/>
    </g>
   </g>
   <line id="svg_16" y2="120" x2="549" y1="120" x1="-76" stroke-dasharray="10.9317" stroke-linejoin="round" stroke-linecap="round" stroke-width="1.5" stroke="#000000" fill="none"/>
   <g id="svg_17">
    <g id="svg_18">
     <line id="svg_19" y2="119.927" x2="79.5" y1="60.978" x1="79.5" stroke-miterlimit="10" stroke-width="2" stroke="#007D00" fill="none"/>
     <g id="svg_20">
      <rect id="svg_21" height="2" width="13" fill="#007D00" y="59.978" x="73"/>
     </g>
     <g id="svg_22">
      <rect id="svg_23" height="2" width="13" fill="#007D00" y="118.927" x="73"/>
     </g>
    </g>
   </g>
   <g id="svg_24">
    <path id="svg_25" d="m66.873,88.908l0.308,-1.459l5.643,0l-1.099,5.247c-0.709,0.445 -1.518,0.809 -2.426,1.09s-1.802,0.422 -2.681,0.422c-1.875,0 -3.275,-0.565 -4.201,-1.696c-0.779,-0.955 -1.169,-2.183 -1.169,-3.683c0,-1.547 0.341,-2.955 1.024,-4.223s1.544,-2.206 2.584,-2.813s2.196,-0.91 3.467,-0.91c0.914,0 1.734,0.166 2.461,0.497s1.283,0.773 1.67,1.327s0.665,1.276 0.835,2.167l-1.688,0.185c-0.182,-0.885 -0.558,-1.563 -1.129,-2.035s-1.305,-0.708 -2.202,-0.708c-0.932,0 -1.802,0.253 -2.61,0.76s-1.455,1.271 -1.938,2.294s-0.725,2.184 -0.725,3.485c0,1.295 0.319,2.273 0.958,2.936s1.521,0.993 2.646,0.993c1.119,0 2.323,-0.369 3.612,-1.107l0.58,-2.769l-3.92,0z" fill="#007D00"/>
   </g>
   <g id="svg_26">
    <g id="svg_27">
     <line id="svg_28" y2="120" x2="467" y1="178.949" x1="467" stroke-miterlimit="10" stroke-width="2" stroke="#008000" fill="none"/>
     <g id="svg_29">
      <rect id="svg_30" height="2" width="13" fill="#008000" y="177.949" x="460.5"/>
     </g>
     <g id="svg_31">
      <rect id="svg_32" height="2" width="13" fill="#008000" y="119" x="460.5"/>
     </g>
    </g>
   </g>
   <g id="svg_33">
    <path id="svg_34" d="m476.945,154.427l2.698,-12.885l3.99,0c0.727,0 1.266,0.029 1.617,0.088c0.574,0.1 1.06,0.274 1.454,0.523c0.396,0.249 0.702,0.589 0.919,1.02s0.325,0.907 0.325,1.428c0,0.709 -0.195,1.333 -0.584,1.872c-0.391,0.539 -0.986,0.949 -1.789,1.23c0.697,0.229 1.219,0.573 1.564,1.033s0.519,0.998 0.519,1.613c0,0.709 -0.204,1.389 -0.61,2.039c-0.408,0.65 -0.947,1.153 -1.617,1.507c-0.672,0.355 -1.42,0.532 -2.246,0.532l-6.24,0zm2.03,-1.459l2.936,0c0.779,0 1.304,-0.026 1.573,-0.079c0.545,-0.094 0.987,-0.254 1.327,-0.479c0.34,-0.227 0.606,-0.523 0.8,-0.893s0.29,-0.756 0.29,-1.16c0,-0.604 -0.188,-1.062 -0.567,-1.375c-0.377,-0.313 -1.097,-0.47 -2.157,-0.47l-3.27,0l-0.932,4.456zm1.24,-5.924l2.61,0c1.248,0 2.146,-0.199 2.694,-0.598c0.547,-0.398 0.821,-0.979 0.821,-1.74c0,-0.363 -0.085,-0.677 -0.255,-0.94s-0.397,-0.456 -0.682,-0.576s-0.818,-0.18 -1.604,-0.18l-2.742,0l-0.842,4.034z" fill="#007D00"/>
   </g>
   <g id="svg_35">
    <path id="svg_36" d="m189.979,128.549c0,1.266 -2.89,4.124 -13.566,4.124l-17.581,0c-5.7,0 -6.502,0.919 -8.108,2.328l-1.766,0c-1.605,-1.409 -2.409,-2.328 -8.108,-2.328l-17.581,0c-11.078,0 -13.567,-3.001 -13.567,-4.369l1.846,0c1.927,1.572 1.766,2.328 9.393,2.328l20.872,0c3.853,0 7.225,1.184 8.027,2.042c0.642,-0.878 4.255,-2.042 8.028,-2.042l20.872,0c7.546,0 7.466,-0.755 9.393,-2.328l1.846,0l0,0.245z" fill="#FFA500"/>
   </g>
   <g id="svg_37">
    <path id="svg_38" d="m149.701,141.13c0.24,-0.852 0.516,-1.619 0.947,-2.171c0.408,-0.504 0.948,-0.815 1.763,-0.815c0.72,0 1.188,0.371 1.188,0.959c0,0.372 -0.24,0.647 -0.612,0.647c-0.336,0 -0.587,-0.264 -0.587,-0.6c0,-0.275 0.192,-0.336 0.192,-0.503c0,-0.097 -0.096,-0.156 -0.216,-0.156c-0.408,0 -0.816,0.672 -1.104,1.847l-0.192,0.792l1.091,0l-0.108,0.504l-1.067,0c-0.672,3.178 -0.815,3.754 -1.14,4.725c-0.372,1.104 -0.647,1.644 -1.079,2.063c-0.384,0.371 -0.84,0.552 -1.367,0.552c-0.672,0 -1.188,-0.372 -1.188,-0.948c0,-0.371 0.288,-0.659 0.612,-0.659c0.312,0 0.6,0.24 0.6,0.588c0,0.3 -0.192,0.336 -0.192,0.504c0,0.096 0.096,0.144 0.216,0.144c0.479,0 0.708,-0.492 1.08,-2.267c0.072,-0.348 0.456,-2.063 1.055,-4.701l-0.888,0l0.108,-0.504l0.888,0l0,-0.001z" fill="#FFA500"/>
   </g>
   <g id="svg_39">
    <path id="svg_40" d="m270.227,128.549c0,1.266 -2.89,4.124 -13.566,4.124l-17.581,0c-5.7,0 -6.502,0.919 -8.108,2.328l-1.766,0c-1.605,-1.409 -2.409,-2.328 -8.108,-2.328l-17.581,0c-11.078,0 -13.567,-3.001 -13.567,-4.369l1.846,0c1.927,1.572 1.766,2.328 9.393,2.328l20.872,0c3.853,0 7.225,1.184 8.027,2.042c0.642,-0.878 4.255,-2.042 8.028,-2.042l20.872,0c7.546,0 7.466,-0.755 9.392,-2.328l1.847,0l0,0.245z" fill="#FFA500"/>
   </g>
   <g id="svg_41">
    <path id="svg_42" d="m228.951,141.13c0.24,-0.852 0.516,-1.619 0.947,-2.171c0.408,-0.504 0.948,-0.815 1.763,-0.815c0.72,0 1.188,0.371 1.188,0.959c0,0.372 -0.24,0.647 -0.612,0.647c-0.336,0 -0.587,-0.264 -0.587,-0.6c0,-0.275 0.192,-0.336 0.192,-0.503c0,-0.097 -0.096,-0.156 -0.216,-0.156c-0.408,0 -0.816,0.672 -1.104,1.847l-0.192,0.792l1.091,0l-0.108,0.504l-1.067,0c-0.672,3.178 -0.815,3.754 -1.14,4.725c-0.372,1.104 -0.647,1.644 -1.079,2.063c-0.384,0.371 -0.84,0.552 -1.367,0.552c-0.672,0 -1.188,-0.372 -1.188,-0.948c0,-0.371 0.288,-0.659 0.612,-0.659c0.312,0 0.6,0.24 0.6,0.588c0,0.3 -0.192,0.336 -0.192,0.504c0,0.096 0.096,0.144 0.216,0.144c0.479,0 0.708,-0.492 1.08,-2.267c0.072,-0.348 0.456,-2.063 1.055,-4.701l-0.888,0l0.108,-0.504l0.888,0l0,-0.001z" fill="#FFA500"/>
   </g>
   <g id="svg_43">
    <path id="svg_44" d="m348.48,112.843c-1.927,-1.572 -1.846,-2.328 -9.393,-2.328l-20.871,0c-3.773,0 -7.387,-1.164 -8.028,-2.042c-0.803,0.857 -4.175,2.042 -8.027,2.042l-20.872,0c-7.627,0 -7.466,0.755 -9.393,2.328l-1.846,0c0,-1.368 2.488,-4.369 13.566,-4.369l17.58,0c5.699,0 6.503,-0.919 8.108,-2.328l1.767,0c1.605,1.409 2.408,2.328 8.107,2.328l17.58,0c10.678,0 13.566,2.858 13.566,4.124l0,0.245l-1.844,0z" fill="#FFA500"/>
   </g>
   <g id="svg_45">
    <path id="svg_46" d="m308.618,96.13c0.239,-0.852 0.516,-1.619 0.947,-2.171c0.408,-0.504 0.948,-0.815 1.763,-0.815c0.721,0 1.188,0.371 1.188,0.959c0,0.372 -0.239,0.647 -0.611,0.647c-0.336,0 -0.588,-0.264 -0.588,-0.6c0,-0.275 0.192,-0.336 0.192,-0.503c0,-0.097 -0.097,-0.156 -0.216,-0.156c-0.408,0 -0.816,0.672 -1.104,1.847l-0.191,0.792l1.091,0l-0.108,0.504l-1.066,0c-0.672,3.178 -0.816,3.754 -1.141,4.725c-0.371,1.104 -0.646,1.644 -1.078,2.063c-0.385,0.371 -0.84,0.552 -1.367,0.552c-0.672,0 -1.188,-0.372 -1.188,-0.948c0,-0.371 0.287,-0.659 0.611,-0.659c0.312,0 0.6,0.24 0.6,0.588c0,0.3 -0.191,0.336 -0.191,0.504c0,0.096 0.096,0.144 0.215,0.144c0.48,0 0.708,-0.492 1.08,-2.267c0.072,-0.348 0.455,-2.063 1.055,-4.701l-0.887,0l0.107,-0.504l0.887,0l0,-0.001z" fill="#FFA500"/>
   </g>
   <g id="svg_47">
    <path id="svg_48" d="m428.741,112.843c-1.927,-1.572 -1.847,-2.328 -9.393,-2.328l-20.872,0c-3.772,0 -7.385,-1.164 -8.027,-2.042c-0.803,0.857 -4.174,2.042 -8.027,2.042l-20.872,0c-7.626,0 -7.466,0.755 -9.393,2.328l-1.847,0c0,-1.368 2.489,-4.369 13.567,-4.369l17.581,0c5.699,0 6.502,-0.919 8.107,-2.328l1.766,0c1.605,1.409 2.408,2.328 8.108,2.328l17.581,0c10.676,0 13.566,2.858 13.566,4.124l0,0.245l-1.845,0z" fill="#FFA500"/>
   </g>
   <g id="svg_49">
    <path id="svg_50" d="m390.879,95.13c0.24,-0.852 0.516,-1.619 0.947,-2.171c0.408,-0.504 0.947,-0.815 1.764,-0.815c0.719,0 1.188,0.371 1.188,0.959c0,0.372 -0.24,0.647 -0.612,0.647c-0.336,0 -0.587,-0.264 -0.587,-0.6c0,-0.275 0.191,-0.336 0.191,-0.503c0,-0.097 -0.096,-0.156 -0.216,-0.156c-0.408,0 -0.815,0.672 -1.104,1.847l-0.192,0.792l1.092,0l-0.107,0.504l-1.068,0c-0.672,3.178 -0.814,3.754 -1.139,4.725c-0.372,1.104 -0.648,1.644 -1.08,2.063c-0.383,0.371 -0.84,0.552 -1.367,0.552c-0.672,0 -1.188,-0.372 -1.188,-0.948c0,-0.371 0.288,-0.659 0.612,-0.659c0.312,0 0.6,0.24 0.6,0.588c0,0.3 -0.192,0.336 -0.192,0.504c0,0.096 0.096,0.144 0.217,0.144c0.479,0 0.707,-0.492 1.079,-2.267c0.071,-0.348 0.456,-2.063 1.056,-4.701l-0.889,0l0.108,-0.504l0.887,0l0,-0.001z" fill="#FFA500"/>
   </g>
   <path id="svg_51" d="m492.834,171.5" stroke-miterlimit="10" stroke="#FF0000" fill="none"/>
   <path id="svg_52" d="m13.744,60.978" stroke-miterlimit="10" stroke="#FF0000" fill="none"/>
  </g>
  <g id="Ebene_2">
   <path id="svg_53" d="m428.495,178.949c0.731,0 1.466,0 2.203,0c0.058,-0.441 0.675,-0.299 1.118,-0.356c-0.092,-0.323 0.126,-0.367 0.352,-0.379c-0.057,-0.3 0.158,-0.342 0.384,-0.355c-0.09,-0.326 0.127,-0.367 0.354,-0.38c0,-0.118 0,-0.234 0,-0.356c0,-0.379 0,-0.733 0,-1.115c0,-0.236 0,-0.474 0,-0.736c-0.058,-0.413 0.095,-0.64 0.381,-0.733c0,-0.119 0,-0.235 0,-0.354c-0.057,-0.44 0.069,-0.667 0.354,-0.736c-0.062,-0.326 0.156,-0.346 0.38,-0.378c0,-0.122 0,-0.239 0,-0.357c-0.054,-0.438 0.071,-0.664 0.355,-0.735c0,-0.239 0,-0.499 0,-0.733c-0.057,-0.438 0.099,-0.664 0.381,-0.738c0,-0.117 0,-0.24 0,-0.374c-0.088,-0.305 0.131,-0.345 0.358,-0.36c0.001,-0.353 0.447,-0.284 0.733,-0.359c0.117,0 0.234,0 0.352,0c-0.063,-0.32 0.16,-0.36 0.383,-0.377c-0.061,-0.303 0.129,-0.344 0.355,-0.357c-0.063,-0.322 0.156,-0.362 0.382,-0.379c-0.063,-0.303 0.127,-0.342 0.352,-0.358c0,-0.252 0,-0.493 0,-0.736c-0.295,0.068 -0.344,-0.149 -0.352,-0.375c-0.351,-0.005 -0.284,-0.45 -0.382,-0.737c0,-0.234 0,-0.477 0,-0.734c-0.057,-0.419 0.096,-0.645 0.382,-0.734c0,-0.236 0,-0.479 0,-0.729c-0.06,-0.418 0.067,-0.646 0.352,-0.736c0,-0.361 0,-0.735 0,-1.097c-0.347,-0.012 -0.284,-0.45 -0.352,-0.733c-0.351,-0.015 -0.284,-0.453 -0.382,-0.737c-0.3,0.063 -0.346,-0.149 -0.355,-0.361c-0.345,-0.019 -0.283,-0.453 -0.383,-0.746c-0.346,-0.006 -0.283,-0.453 -0.352,-0.727c0,-1.108 0,-2.207 0,-3.313c-0.06,-0.425 0.068,-0.651 0.352,-0.736c0,-0.12 0,-0.236 0,-0.355c-0.059,-0.427 0.1,-0.666 0.383,-0.735c0,-0.131 0,-0.249 0,-0.368c-0.058,-0.426 0.07,-0.652 0.355,-0.736c0,-0.366 0,-0.733 0,-1.102c-0.057,-0.425 0.096,-0.651 0.382,-0.735c0,-0.736 0,-1.472 0,-2.208c-0.06,-0.426 0.067,-0.652 0.352,-0.735c0,-0.603 0,-1.221 0,-1.839c-0.347,-0.005 -0.284,-0.437 -0.352,-0.721c0,-0.736 0,-1.472 0,-2.205c-0.351,-0.021 -0.284,-0.453 -0.382,-0.736c0,-0.854 0,-1.723 0,-2.576c-0.351,-0.005 -0.285,-0.453 -0.355,-0.735c0,-1.589 0,-3.177 0,-4.766c-0.345,-0.021 -0.283,-0.452 -0.383,-0.735c0,-0.869 0,-1.723 0,-2.576c-0.346,-0.005 -0.283,-0.452 -0.352,-0.736c0,-1.588 0,-3.179 0,-4.769c-0.06,-0.439 0.068,-0.663 0.352,-0.734c-0.059,-0.426 0.1,-0.653 0.383,-0.735c-0.058,-0.426 0.07,-0.652 0.355,-0.735c0.031,-0.364 0.449,-0.285 0.733,-0.367c-0.062,-0.312 0.157,-0.344 0.385,-0.369c0,-0.118 0,-0.25 0,-0.367c-0.063,-0.311 0.127,-0.344 0.351,-0.368c0,-0.119 0,-0.251 0,-0.369c-0.296,0.061 -0.342,-0.142 -0.351,-0.368c-0.236,0 -0.502,0 -0.736,0c-0.239,0 -0.501,0 -0.737,0c-0.116,0 -0.232,0 -0.383,0c0.092,0.311 -0.125,0.343 -0.352,0.368c-0.236,0 -0.501,0 -0.733,0c-0.119,0 -0.236,0 -0.358,0c0.063,0.312 -0.153,0.343 -0.381,0.369c-0.217,0.743 -0.907,1.729 -0.735,0c-0.114,0 -0.235,0 -0.354,0c0.063,0.312 -0.155,0.341 -0.381,0.368c0,0.117 0,0.25 0,0.367c0,0.116 0,0.237 0,0.369c0,0.852 0,1.706 0,2.571c0.328,-0.075 0.342,0.144 0.381,0.371c0,1.338 0,2.691 0,4.03c0.063,0.313 -0.155,0.344 -0.381,0.368c0,0.367 0,0.736 0,1.104c0.062,0.313 -0.129,0.342 -0.354,0.368c0,1.342 0,2.693 0,4.045c0.298,-0.077 0.342,0.14 0.354,0.353c0,1.104 0,2.206 0,3.31c0.062,0.313 -0.129,0.343 -0.354,0.368c0,0.853 0,1.723 0,2.576c0.063,0.311 -0.157,0.341 -0.384,0.367c-0.116,0 -0.231,0 -0.352,0c-0.327,0.061 -0.341,-0.144 -0.381,-0.367c0,-0.487 0,-0.989 0,-1.472c-0.3,0.061 -0.344,-0.144 -0.355,-0.368c0,-0.736 0,-1.471 0,-2.208c-0.326,0.077 -0.342,-0.142 -0.382,-0.368c0,-0.235 0,-0.485 0,-0.735c-0.296,0.077 -0.343,-0.143 -0.352,-0.368c-0.063,-0.289 -0.386,-0.367 -0.386,-0.735c-0.294,0.077 -0.34,-0.141 -0.353,-0.353c-0.062,-0.304 -0.382,-0.37 -0.382,-0.734c-0.298,0.061 -0.344,-0.143 -0.352,-0.37c-0.063,-0.304 -0.38,-0.366 -0.38,-0.736c-0.3,0.063 -0.346,-0.141 -0.359,-0.365c-0.06,-0.305 -0.379,-0.369 -0.379,-0.737c-0.295,0.061 -0.345,-0.144 -0.354,-0.367c0,-0.119 0,-0.25 0,-0.368c-0.328,0.061 -0.343,-0.142 -0.381,-0.368c0,-0.118 0,-0.25 0,-0.368c-0.298,0.063 -0.345,-0.142 -0.353,-0.368c0,-0.118 0,-0.251 0,-0.369c-0.328,0.062 -0.346,-0.142 -0.385,-0.367c0,-0.25 0,-0.485 0,-0.736c-0.298,0.062 -0.344,-0.143 -0.354,-0.368c0,-0.235 0,-0.484 0,-0.736c-0.322,0.076 -0.342,-0.142 -0.355,-0.367c0,-1.707 0,-3.428 0,-5.133c0,-0.131 0,-0.252 0,-0.369c-0.322,0.062 -0.367,-0.141 -0.379,-0.367c-0.502,0 -0.972,0 -1.473,0c0,0.367 0,0.736 0,1.103c0,0.117 0,0.236 0,0.367c0.062,0.313 -0.128,0.344 -0.353,0.368c0.062,0.311 -0.157,0.343 -0.383,0.367c-0.116,0 -0.235,0 -0.352,0c0,0.368 0,0.736 0,1.102c0.295,-0.075 0.341,0.144 0.352,0.371c0,1.22 0,2.442 0,3.663c0.327,-0.062 0.341,0.142 0.383,0.368c0,0.368 0,0.735 0,1.104c0.297,-0.063 0.344,0.142 0.353,0.368c0,0.25 0,0.485 0,0.736c0.328,-0.077 0.344,0.142 0.385,0.368c0,0.235 0,0.483 0,0.735c0.296,-0.077 0.342,0.142 0.353,0.369c0,0.234 0,0.484 0,0.735c0.325,-0.077 0.342,0.142 0.382,0.366c0,0.236 0,0.487 0,0.734c0.296,-0.076 0.344,0.144 0.354,0.37c0,0.235 0,0.485 0,0.721c0.323,-0.062 0.344,0.142 0.379,0.367c0,0.132 0,0.25 0,0.368c0.3,-0.062 0.347,0.143 0.355,0.368c0.064,0.306 0.382,0.367 0.354,0.735c0.326,-0.062 0.369,0.144 0.385,0.368c0,0.12 0,0.25 0,0.368c0.296,-0.061 0.341,0.143 0.353,0.368c0,0.854 0,1.721 0,2.575c0.091,0.312 -0.128,0.342 -0.353,0.369c0,0.483 0,0.97 0,1.469c0.059,0.313 -0.16,0.344 -0.385,0.368c0,0.486 0,0.971 0,1.459c0.09,0.309 -0.128,0.354 -0.354,0.365c0,1.472 0,2.942 0,4.415c0.3,-0.063 0.344,0.141 0.354,0.367c0,0.25 0,0.484 0,0.735c0.326,-0.073 0.369,0.144 0.385,0.368c0,0.484 0,0.971 0,1.47c0.059,0.313 -0.16,0.344 -0.385,0.368c0,0.119 0,0.237 0,0.367c0.09,0.312 -0.128,0.345 -0.354,0.368c0,0.119 0,0.235 0,0.355c0.063,0.322 -0.153,0.353 -0.355,0.379c-0.265,0.854 -1.229,0.976 -1.467,1.827c0.06,0.317 -0.158,0.344 -0.385,0.372c0,0.126 0,0.245 0,0.362c0.062,0.316 -0.128,0.343 -0.353,0.373c0,1.343 0,2.686 0,4.04c0.297,-0.068 0.344,0.136 0.353,0.361c0,0.61 0,1.229 0,1.847c0.328,-0.069 0.344,0.134 0.385,0.354c0,1.108 0,2.206 0,3.317c0.466,0.129 0.571,0.642 1.088,0.737c0.323,-0.082 0.344,0.133 0.379,0.357c0.239,0 0.474,0 0.709,0c0.326,-0.061 0.369,0.152 0.385,0.377c0.115,0 0.234,0 0.353,0c0.436,0.065 0.216,0.359 0,0.359c0,0.117 0,0.241 0,0.36c0.034,0.369 0.451,0.3 0.734,0.374c0.057,0.416 -0.068,0.646 -0.354,0.738c-0.636,0.075 -0.843,0.625 -0.733,1.469c0.059,0.302 -0.16,0.344 -0.385,0.357c-0.409,0.551 -0.409,0.939 0,1.469c0.326,-0.063 0.369,0.155 0.385,0.381c0,0.353 0,0.732 0,1.089c0.059,0.327 -0.16,0.343 -0.385,0.382c0.09,0.298 -0.128,0.345 -0.354,0.354c0.387,1.224 1.024,2.157 2.566,2.201z" fill="#009632" clip-rule="evenodd" fill-rule="evenodd"/>
   <path id="svg_54" d="m107.682,60.978c0.734,0 1.469,0 2.203,0c0.06,0.43 0.67,0.31 1.102,0.367c-0.067,0.313 0.144,0.347 0.367,0.368c-0.067,0.312 0.144,0.346 0.367,0.367c-0.067,0.313 0.144,0.346 0.367,0.367c0,0.123 0,0.245 0,0.368c0,0.367 0,0.734 0,1.101c0,0.245 0,0.49 0,0.735c-0.06,0.427 0.081,0.653 0.367,0.734c0,0.122 0,0.245 0,0.367c-0.059,0.427 0.081,0.653 0.368,0.734c-0.068,0.313 0.143,0.347 0.367,0.367c0,0.123 0,0.245 0,0.367c-0.06,0.427 0.081,0.654 0.367,0.734c0,0.245 0,0.49 0,0.734c-0.059,0.427 0.082,0.654 0.368,0.735c0,0.123 0,0.245 0,0.367c-0.067,0.312 0.143,0.346 0.367,0.367c0.01,0.357 0.45,0.285 0.734,0.367c0.123,0 0.245,0 0.367,0c-0.067,0.313 0.144,0.347 0.367,0.367c-0.067,0.313 0.144,0.346 0.368,0.367c-0.068,0.313 0.143,0.347 0.367,0.368c-0.068,0.312 0.144,0.346 0.367,0.367c0,0.245 0,0.489 0,0.734c-0.312,-0.067 -0.346,0.143 -0.367,0.367c-0.357,0.01 -0.285,0.449 -0.367,0.734c0,0.245 0,0.49 0,0.734c-0.06,0.427 0.081,0.653 0.367,0.734c0,0.245 0,0.49 0,0.734c-0.06,0.427 0.081,0.653 0.367,0.734c0,0.367 0,0.735 0,1.102c-0.357,0.01 -0.285,0.449 -0.367,0.734c-0.357,0.01 -0.285,0.45 -0.367,0.735c-0.313,-0.068 -0.347,0.143 -0.368,0.367c-0.357,0.01 -0.285,0.45 -0.367,0.734c-0.357,0.01 -0.285,0.45 -0.367,0.735c0,1.102 0,2.203 0,3.305c-0.06,0.427 0.082,0.654 0.367,0.735c0,0.123 0,0.245 0,0.367c-0.06,0.427 0.081,0.653 0.367,0.734c0,0.122 0,0.245 0,0.367c-0.059,0.427 0.081,0.653 0.368,0.735c0,0.367 0,0.734 0,1.102c-0.06,0.427 0.081,0.653 0.367,0.734c0,0.734 0,1.469 0,2.203c-0.06,0.427 0.081,0.653 0.367,0.735c0,0.612 0,1.224 0,1.836c-0.357,0.01 -0.285,0.45 -0.367,0.734c0,0.734 0,1.469 0,2.204c-0.357,0.01 -0.285,0.449 -0.367,0.734c0,0.856 0,1.714 0,2.571c-0.357,0.01 -0.285,0.449 -0.368,0.734c0,1.591 0,3.183 0,4.774c-0.357,0.01 -0.285,0.449 -0.367,0.734c0,0.857 0,1.714 0,2.571c-0.357,0.01 -0.285,0.449 -0.367,0.734c0,1.591 0,3.183 0,4.774c-0.06,0.427 0.082,0.654 0.367,0.734c-0.06,0.427 0.081,0.653 0.367,0.735c-0.059,0.427 0.081,0.653 0.368,0.734c0.01,0.357 0.449,0.285 0.734,0.367c-0.067,0.313 0.144,0.347 0.368,0.367c0,0.123 0,0.245 0,0.368c-0.067,0.313 0.144,0.346 0.367,0.367c0,0.123 0,0.245 0,0.368c-0.312,-0.068 -0.346,0.143 -0.367,0.367c-0.245,0 -0.489,0 -0.734,0s-0.49,0 -0.735,0c-0.122,0 -0.245,0 -0.367,0c0.067,-0.312 -0.143,-0.346 -0.367,-0.367c-0.245,0 -0.49,0 -0.734,0c-0.123,0 -0.245,0 -0.367,0c0.067,-0.313 -0.143,-0.347 -0.368,-0.368c-0.211,-0.75 -0.91,-1.733 -0.734,0c-0.123,0 -0.245,0 -0.368,0c0.067,-0.313 -0.143,-0.346 -0.367,-0.367c0,-0.123 0,-0.245 0,-0.368c0,-0.122 0,-0.245 0,-0.367c0,-0.856 0,-1.713 0,-2.57c0.313,0.067 0.346,-0.143 0.367,-0.367c0,-1.347 0,-2.693 0,-4.04c0.067,-0.312 -0.143,-0.346 -0.367,-0.367c0,-0.367 0,-0.734 0,-1.102c0.067,-0.313 -0.143,-0.346 -0.367,-0.367c0,-1.347 0,-2.693 0,-4.04c0.313,0.068 0.347,-0.143 0.367,-0.367c0,-1.102 0,-2.204 0,-3.306c0.067,-0.312 -0.143,-0.346 -0.367,-0.367c0,-0.857 0,-1.714 0,-2.571c0.068,-0.313 -0.143,-0.347 -0.367,-0.367c-0.122,0 -0.245,0 -0.367,0c-0.312,-0.067 -0.347,0.143 -0.367,0.367c0,0.489 0,0.979 0,1.469c-0.312,-0.067 -0.346,0.144 -0.367,0.367c0,0.735 0,1.469 0,2.203c-0.313,-0.067 -0.347,0.144 -0.368,0.368c0,0.245 0,0.49 0,0.735c-0.312,-0.068 -0.346,0.143 -0.367,0.367c-0.069,0.297 -0.368,0.366 -0.367,0.734c-0.312,-0.068 -0.347,0.143 -0.367,0.367c-0.07,0.297 -0.369,0.367 -0.368,0.735c-0.312,-0.068 -0.346,0.143 -0.367,0.367c-0.069,0.297 -0.368,0.366 -0.367,0.734c-0.312,-0.067 -0.347,0.143 -0.367,0.367c-0.07,0.298 -0.369,0.366 -0.368,0.734c-0.312,-0.067 -0.346,0.144 -0.367,0.367c0,0.122 0,0.245 0,0.367c-0.312,-0.067 -0.346,0.144 -0.368,0.367c0,0.123 0,0.245 0,0.367c-0.312,-0.067 -0.346,0.144 -0.367,0.368c0,0.123 0,0.245 0,0.367c-0.312,-0.067 -0.347,0.143 -0.367,0.367c0,0.245 0,0.489 0,0.734c-0.312,-0.067 -0.347,0.143 -0.368,0.367c0,0.245 0,0.49 0,0.735c-0.312,-0.068 -0.346,0.143 -0.367,0.367c0,1.714 0,3.427 0,5.141c0,0.123 0,0.246 0,0.367c-0.312,-0.067 -0.346,0.144 -0.367,0.368c-0.489,0 -0.979,0 -1.469,0c0,-0.368 0,-0.735 0,-1.102c0,-0.123 0,-0.245 0,-0.368c0.067,-0.312 -0.143,-0.346 -0.367,-0.367c0.067,-0.313 -0.143,-0.347 -0.367,-0.367c-0.122,0 -0.245,0 -0.367,0c0,-0.368 0,-0.735 0,-1.102c0.313,0.067 0.346,-0.143 0.367,-0.367c0,-1.224 0,-2.448 0,-3.672c0.313,0.067 0.347,-0.143 0.367,-0.367c0,-0.367 0,-0.734 0,-1.102c0.313,0.067 0.347,-0.143 0.367,-0.368c0,-0.245 0,-0.489 0,-0.734c0.313,0.067 0.346,-0.143 0.367,-0.367c0,-0.245 0,-0.489 0,-0.734c0.313,0.067 0.346,-0.144 0.367,-0.368c0,-0.245 0,-0.49 0,-0.734c0.313,0.067 0.347,-0.143 0.367,-0.367c0,-0.245 0,-0.49 0,-0.734c0.313,0.067 0.347,-0.143 0.367,-0.368c0,-0.245 0,-0.489 0,-0.734c0.313,0.067 0.347,-0.143 0.367,-0.367c0,-0.123 0,-0.246 0,-0.367c0.313,0.067 0.346,-0.144 0.367,-0.368c0.07,-0.297 0.369,-0.366 0.368,-0.735c0.313,0.068 0.346,-0.143 0.367,-0.367c0,-0.123 0,-0.245 0,-0.367c0.313,0.067 0.346,-0.143 0.367,-0.368c0,-0.856 0,-1.714 0,-2.57c0.068,-0.312 -0.143,-0.347 -0.367,-0.367c0,-0.49 0,-0.979 0,-1.469c0.067,-0.312 -0.144,-0.346 -0.367,-0.367c0,-0.49 0,-0.98 0,-1.469c0.067,-0.313 -0.143,-0.346 -0.368,-0.367c0,-1.469 0,-2.938 0,-4.407c0.313,0.067 0.347,-0.143 0.368,-0.367c0,-0.245 0,-0.49 0,-0.734c0.313,0.067 0.346,-0.143 0.367,-0.367c0,-0.49 0,-0.979 0,-1.469c0.067,-0.313 -0.144,-0.347 -0.367,-0.367c0,-0.122 0,-0.245 0,-0.368c0.067,-0.312 -0.143,-0.346 -0.368,-0.367c0,-0.123 0,-0.245 0,-0.367c0.067,-0.313 -0.143,-0.347 -0.367,-0.367c-0.248,-0.854 -1.22,-0.983 -1.469,-1.836c0.067,-0.313 -0.143,-0.346 -0.367,-0.367c0,-0.122 0,-0.245 0,-0.367c0.067,-0.313 -0.143,-0.347 -0.367,-0.367c0,-1.347 0,-2.693 0,-4.04c0.313,0.067 0.347,-0.143 0.367,-0.367c0,-0.612 0,-1.224 0,-1.836c0.313,0.067 0.346,-0.143 0.367,-0.367c0,-1.102 0,-2.203 0,-3.305c0.483,-0.13 0.578,-0.647 1.102,-0.735c0.313,0.068 0.347,-0.143 0.367,-0.367c0.245,0 0.49,0 0.735,0c0.313,0.067 0.346,-0.143 0.367,-0.367c0.123,0 0.245,0 0.367,0c0.417,-0.07 0.205,-0.368 0,-0.367c0,-0.122 0,-0.245 0,-0.367c0.011,-0.357 0.45,-0.285 0.735,-0.367c0.06,-0.427 -0.081,-0.653 -0.367,-0.735c-0.646,-0.088 -0.837,-0.632 -0.734,-1.469c0.067,-0.313 -0.144,-0.346 -0.367,-0.367c-0.425,-0.543 -0.425,-0.925 0,-1.469c0.313,0.067 0.346,-0.143 0.367,-0.367c0,-0.367 0,-0.734 0,-1.102c0.067,-0.312 -0.144,-0.346 -0.367,-0.367c0.067,-0.313 -0.143,-0.346 -0.368,-0.367c0.378,-1.209 1.018,-2.159 2.571,-2.197z" fill="#009632" clip-rule="evenodd" fill-rule="evenodd"/>
   <path id="svg_55" d="m270.051,60.978" stroke-miterlimit="10" stroke="#FF0000" fill="none"/>
   <path id="svg_56" d="m13.744,60.978" stroke-miterlimit="10" stroke="#FF0000" fill="none"/>
   <line id="svg_57" y2="202.167" x2="461.667" y1="60.978" x1="270.051" stroke-miterlimit="10" stroke="#FF0000" fill="none"/>
   <g id="svg_58">
    <g id="svg_59">
     <line id="svg_60" y2="34" x2="269.26" y1="34" x1="110.493" stroke-miterlimit="10" stroke-width="1.5813" stroke="#0000FF" fill="none"/>
     <g id="svg_61">
      <rect id="svg_62" height="10.279" width="1.582" fill="#0000FF" y="28.861" x="109.702"/>
     </g>
     <g id="svg_63">
      <rect id="svg_64" height="10.279" width="1.581" fill="#0000FF" y="28.861" x="268.47"/>
     </g>
    </g>
   </g>
   <g id="svg_65">
    <path id="svg_66" d="m175.254,26.344l1.608,0.149c-0.012,0.363 0.032,0.636 0.132,0.817s0.258,0.322 0.475,0.422c0.287,0.129 0.659,0.193 1.116,0.193c0.961,0 1.652,-0.249 2.074,-0.747c0.275,-0.334 0.53,-1.061 0.765,-2.18l0.158,-0.756c-0.826,0.838 -1.705,1.257 -2.637,1.257c-0.943,0 -1.733,-0.347 -2.369,-1.042s-0.954,-1.677 -0.954,-2.949c0,-1.049 0.25,-2.013 0.751,-2.892s1.097,-1.542 1.789,-1.991s1.403,-0.672 2.136,-0.672c1.225,0 2.168,0.58 2.83,1.74l0.316,-1.529l1.459,0l-1.881,9.009c-0.205,0.99 -0.475,1.762 -0.809,2.316s-0.798,0.983 -1.393,1.288s-1.282,0.457 -2.061,0.457c-0.75,0 -1.396,-0.097 -1.938,-0.29s-0.946,-0.476 -1.213,-0.848s-0.4,-0.798 -0.4,-1.279c0.002,-0.144 0.017,-0.303 0.046,-0.473zm1.987,-4.974c0,0.639 0.062,1.119 0.185,1.441c0.176,0.451 0.426,0.795 0.751,1.033s0.687,0.356 1.085,0.356c0.521,0 1.04,-0.183 1.556,-0.549s0.933,-0.933 1.252,-1.701s0.479,-1.5 0.479,-2.197c0,-0.768 -0.212,-1.378 -0.637,-1.833s-0.951,-0.681 -1.578,-0.681c-0.387,0 -0.762,0.104 -1.125,0.312s-0.702,0.524 -1.015,0.949s-0.551,0.933 -0.712,1.525s-0.241,1.04 -0.241,1.345z" fill="#0000FF"/>
   </g>
   <g id="svg_67">
    <g id="svg_68">
     <line id="svg_69" y2="212" x2="429.521" y1="212" x1="271.051" stroke-miterlimit="10" stroke-width="2" stroke="#0000FF" fill="none"/>
     <g id="svg_70">
      <rect id="svg_71" height="13" width="2" fill="#0000FF" y="205.5" x="270.051"/>
     </g>
     <g id="svg_72">
      <rect id="svg_73" height="13" width="2" fill="#0000FF" y="205.5" x="428.521"/>
     </g>
    </g>
   </g>
   <g id="svg_74">
    <path id="svg_75" d="m347.379,232l2.689,-12.885l1.59,0l-0.957,4.605c0.504,-0.463 0.961,-0.789 1.371,-0.979s0.838,-0.286 1.283,-0.286c0.873,0 1.601,0.326 2.184,0.977s0.875,1.596 0.875,2.838c0,0.826 -0.117,1.582 -0.352,2.268s-0.525,1.262 -0.871,1.728s-0.703,0.838 -1.072,1.116s-0.746,0.486 -1.133,0.624s-0.76,0.206 -1.117,0.206c-0.615,0 -1.156,-0.162 -1.625,-0.487s-0.836,-0.821 -1.1,-1.489l-0.369,1.764l-1.396,0zm2.355,-3.832l-0.01,0.299c0,0.797 0.191,1.404 0.572,1.82s0.855,0.623 1.424,0.623c0.557,0 1.067,-0.194 1.533,-0.584s0.848,-0.998 1.146,-1.824s0.449,-1.588 0.449,-2.285c0,-0.785 -0.189,-1.395 -0.567,-1.828s-0.845,-0.65 -1.401,-0.65c-0.574,0 -1.102,0.222 -1.582,0.664s-0.883,1.123 -1.205,2.043c-0.24,0.685 -0.359,1.259 -0.359,1.722z" fill="#0000FF"/>
   </g>
   <line id="svg_76" y2="211.167" x2="517.333" y1="60.978" x1="109.886" stroke-miterlimit="10" stroke="#FF0000" fill="none"/>
   <line id="svg_77" y2="60.978" x2="270.051" y1="60.978" x1="109.886" stroke-miterlimit="10" stroke="#FF0000" fill="none"/>
  </g>
 </g>
</svg>