<svg xmlns="http://www.w3.org/2000/svg" width="920" height="756">
 <!-- Created with Image Occlusion Enhanced -->
 <g>
  <title>Labels</title>
 </g>
 <g>
  <title>Masks</title>
  <rect id="af5e0ce8a31a4663982681059caed65f-ao-1" height="48.05195" width="97.4026" y="92.57144" x="386.49346" stroke="#2D2D2D" fill="#007fff"/>
  <rect id="af5e0ce8a31a4663982681059caed65f-ao-2" height="51.94805" width="96.1039" y="202.96105" x="702.07788" stroke="#2D2D2D" fill="#007fff"/>
  <rect id="af5e0ce8a31a4663982681059caed65f-ao-3" height="53.24675" width="118.18182" y="267.89611" x="702.07788" stroke="#2D2D2D" fill="#007fff"/>
  <rect id="af5e0ce8a31a4663982681059caed65f-ao-4" height="51.94805" width="132.46753" y="338.02598" x="703.37658" stroke="#2D2D2D" fill="#007fff"/>
  <rect id="af5e0ce8a31a4663982681059caed65f-ao-5" height="48.05195" width="97.4026" y="400.36365" x="705.97398" stroke="#2D2D2D" fill="#007fff"/>
  <rect id="af5e0ce8a31a4663982681059caed65f-ao-6" height="32.46753" width="92.20779" y="467.89611" x="705.97398" stroke="#2D2D2D" fill="#007fff"/>
  <rect id="af5e0ce8a31a4663982681059caed65f-ao-7" height="55.84416" width="136.36364" y="521.14287" x="704.67528" stroke="#2D2D2D" fill="#007fff"/>
  <rect id="af5e0ce8a31a4663982681059caed65f-ao-8" height="49.35065" width="88.31169" y="636.72728" x="455.32463" stroke="#2D2D2D" fill="#FF7E7E" class="qshape"/>
  <rect id="af5e0ce8a31a4663982681059caed65f-ao-9" height="53.24675" width="100" y="635.42858" x="302.07787" stroke="#2D2D2D" fill="#007fff"/>
  <rect id="af5e0ce8a31a4663982681059caed65f-ao-10" height="51.94805" width="76.62338" y="534.12988" x="69.61034" stroke="#2D2D2D" fill="#007fff"/>
  <rect id="af5e0ce8a31a4663982681059caed65f-ao-11" height="25.97403" width="88.31169" y="493.87014" x="65.71423" stroke="#2D2D2D" fill="#007fff"/>
  <rect id="af5e0ce8a31a4663982681059caed65f-ao-12" height="50.64935" width="94.8052" y="422.44157" x="64.41553" stroke="#2D2D2D" fill="#007fff"/>
  <rect id="af5e0ce8a31a4663982681059caed65f-ao-13" height="37.66234" width="75.32468" y="357.5065" x="82.59735" stroke="#2D2D2D" fill="#007fff"/>
  <rect id="af5e0ce8a31a4663982681059caed65f-ao-14" height="35.06494" width="64.93507" y="302.96105" x="87.79216" stroke="#2D2D2D" fill="#007fff"/>
  <rect id="af5e0ce8a31a4663982681059caed65f-ao-15" height="46.75325" width="103.8961" y="238.02598" x="44.93501" stroke="#2D2D2D" fill="#007fff"/>
  <rect id="af5e0ce8a31a4663982681059caed65f-ao-16" height="45.45455" width="98.7013" y="170.49351" x="50.12982" stroke="#2D2D2D" fill="#007fff"/>
 </g>
</svg>