<svg width="430.65" height="120" xmlns="http://www.w3.org/2000/svg">
 <metadata id="metadata66">image/svg+xml</metadata>

 <g>
  <title>background</title>
  <rect fill="#ffffff" id="canvas_background" height="122" width="432.65" y="-1" x="-1"/>
 </g>
 <g>
  <title>Layer 1</title>
  <path id="polygon3" d="m12.39813,96.765l-1.615,0.9025l0,-38.6175l1.615,0.9025l0,36.8125z"/>
  <path id="polygon5" d="m44.22313,115.1475l0,1.8525l-33.44001,-19.3325l1.61501,-0.9025l31.825,18.3825z"/>
  <path id="polygon7" d="m76.09562,96.765l0.80751,0.4275l0,0.95l-32.68,18.8575l0,-1.8525l31.87249,-18.3825z"/>
  <path id="polygon9" d="m76.09562,59.9525l0.80751,-0.4275l0.80749,0.4275l0,36.8125l-0.80749,0.4275l-0.80751,-0.4275l0,-36.8125z"/>
  <path id="rect11" d="m70.44312,62.755l1.615,0l0,31.20845l-1.615,0l0,-31.20845z"/>
  <path id="polygon13" d="m44.22313,41.57l0,-0.9025l1.13999,-0.285l31.54001,18.1925l0,0.95l-0.80751,0.4275l-31.87249,-18.3825z"/>
  <path id="polygon15" d="m12.39813,59.9525l-1.615,-0.9025l32.3475,-18.6675l1.0925,0.285l0,0.9025l-31.825,18.3825z"/>
  <path id="polygon17" d="m77.71062,59.9525l-0.80749,-0.4275l0,-0.95l32.63249,-18.8575l0,1.8525l-31.825,18.3825z"/>
  <path id="polygon19" d="m109.53562,41.57l0,-1.8525l32.68,18.8575l0,1.8525l-32.68,-18.8575z"/>
  <path id="polygon21" d="m111.95812,36.44l0.8075,-1.3775l29.83,17.195l-0.8075,1.425l-29.83,-17.2425z"/>
  <path id="polygon23" d="m142.21562,60.4275l0,-1.8525l31.825,-18.3825l0.8075,0.475l0,0.9025l-32.6325,18.8575z"/>
  <path id="polygon25" d="m174.84812,41.57l0,-0.9025l0.8075,-0.475l31.825,18.3825l0,1.8525l-32.6325,-18.8575z"/>
  <path id="polygon27" d="m180.12062,38.1025l0.8075,-1.425l26.98,15.58l-0.8075,1.425l-26.98,-15.58z"/>
  <path id="polygon29" d="m207.48062,60.4275l0,-1.8525l32.67905,-18.8575l0,1.8525l-32.67905,18.8575z"/>
  <path id="polygon31" d="m240.15967,41.57l0,-1.8525l32.63345,18.8575l0,1.8525l-32.63345,-18.8575z"/>
  <path id="polygon33" d="m242.58312,36.44l0.8075,-1.3775l29.83,17.195l-0.8075,1.425l-29.83,-17.2425z"/>
  <path id="polygon35" d="m272.79312,60.4275l0,-1.8525l31.825,-18.3825l0.8075,0.475l0,0.9025l-32.6325,18.8575z"/>
  <path id="polygon37" d="m305.42562,41.57l0,-0.9025l0.8075,-0.475l31.8725,18.3825l0,1.8525l-32.68,-18.8575z"/>
  <path id="polygon39" d="m310.69717,38.1025l0.80845,-1.425l26.97905,15.58l-0.80655,1.425l-26.98095,-15.58z"/>
  <g transform="matrix(0.95,0,0,0.95,10.783125,3) " id="g41">
   <path id="path43" d="m384.394,43.073l2.281,0.574c-0.476,1.87 -1.333,3.296 -2.569,4.277c-1.237,0.981 -2.75,1.473 -4.537,1.473c-1.85,0 -3.354,-0.377 -4.513,-1.132c-1.159,-0.754 -2.041,-1.848 -2.646,-3.278c-0.605,-1.431 -0.907,-2.968 -0.907,-4.609c0,-1.79 0.341,-3.353 1.024,-4.686c0.682,-1.333 1.653,-2.347 2.914,-3.038c1.26,-0.691 2.646,-1.038 4.16,-1.038c1.717,0 3.16,0.438 4.33,1.314c1.171,0.877 1.986,2.108 2.446,3.697l-2.234,0.527c-0.397,-1.25 -0.976,-2.16 -1.731,-2.73c-0.757,-0.57 -1.709,-0.855 -2.855,-0.855c-1.318,0 -2.42,0.316 -3.306,0.949c-0.886,0.633 -1.507,1.482 -1.866,2.549c-0.359,1.067 -0.538,2.166 -0.538,3.299c0,1.461 0.212,2.736 0.638,3.826c0.424,1.09 1.085,1.904 1.981,2.443c0.896,0.539 1.867,0.809 2.911,0.809c1.271,0 2.347,-0.367 3.228,-1.102c0.881,-0.735 1.477,-1.824 1.789,-3.269z"/>
   <path id="path45" d="m388.788,40.735c0,-2.853 0.766,-5.085 2.298,-6.698c1.532,-1.614 3.51,-2.421 5.933,-2.421c1.587,0 3.017,0.379 4.291,1.137c1.274,0.759 2.245,1.815 2.913,3.171c0.669,1.355 1.003,2.894 1.003,4.612c0,1.743 -0.352,3.302 -1.056,4.677c-0.703,1.375 -1.699,2.417 -2.989,3.124c-1.29,0.707 -2.681,1.061 -4.174,1.061c-1.618,0 -3.064,-0.391 -4.338,-1.172c-1.274,-0.781 -2.239,-1.849 -2.896,-3.2c-0.657,-1.353 -0.985,-2.782 -0.985,-4.291zm2.344,0.029c0,2.07 0.557,3.701 1.671,4.893c1.114,1.192 2.512,1.787 4.192,1.787c1.712,0 3.121,-0.602 4.228,-1.805c1.105,-1.203 1.659,-2.91 1.659,-5.121c0,-1.398 -0.236,-2.619 -0.71,-3.662c-0.473,-1.043 -1.164,-1.852 -2.075,-2.426c-0.911,-0.574 -1.933,-0.861 -3.066,-0.861c-1.61,0 -2.996,0.553 -4.157,1.658c-1.161,1.105 -1.742,2.951 -1.742,5.537z"/>
   <path id="path47" d="m407.456,40.735c0,-2.853 0.766,-5.085 2.298,-6.698c1.532,-1.614 3.51,-2.421 5.933,-2.421c1.587,0 3.017,0.379 4.291,1.137c1.274,0.759 2.245,1.815 2.913,3.171c0.669,1.355 1.003,2.894 1.003,4.612c0,1.743 -0.352,3.302 -1.056,4.677c-0.703,1.375 -1.699,2.417 -2.989,3.124c-1.29,0.707 -2.681,1.061 -4.174,1.061c-1.618,0 -3.064,-0.391 -4.338,-1.172c-1.274,-0.781 -2.239,-1.849 -2.896,-3.2c-0.657,-1.353 -0.985,-2.782 -0.985,-4.291zm2.344,0.029c0,2.07 0.557,3.701 1.671,4.893c1.114,1.192 2.512,1.787 4.192,1.787c1.712,0 3.121,-0.602 4.228,-1.805c1.105,-1.203 1.659,-2.91 1.659,-5.121c0,-1.398 -0.236,-2.619 -0.71,-3.662c-0.473,-1.043 -1.164,-1.852 -2.075,-2.426c-0.911,-0.574 -1.933,-0.861 -3.066,-0.861c-1.61,0 -2.996,0.553 -4.157,1.658c-1.161,1.105 -1.742,2.951 -1.742,5.537z"/>
  </g>
  <path id="polygon49" d="m338.10562,60.4275l0,-1.8525l23.465,-13.5375l0.8075,1.3775l-24.2725,14.0125z"/>
  <path id="polygon51" d="m174.04062,3l1.615,0l0,37.1925l-0.8075,0.475l-0.8075,-0.475l0,-37.1925z"/>
  <path id="polygon53" d="m304.61812,3l1.615,0l0,37.1925l-0.8075,0.475l-0.8075,-0.475l0,-37.1925z"/>
  <path id="polygon55" d="m24.70062,8.415l1.37751,-0.8075l18.145,31.445l0,1.615l-1.0925,-0.285l-18.43001,-31.9675z"/>
  <path id="polygon57" d="m109.96312,115.3375l-0.8075,1.425l-32.25249,-18.62l0,-0.95l0.80749,-0.4275l32.2525,18.5725z"/>
  <path fill="none" stroke="#000000" stroke-width="1.2825" id="line59" d="m412.30062,30.93l7.6,0"/>
  <path id="polygon61" d="m62.41562,7.6075l1.37751,0.8075l-18.43001,31.9675l-1.13999,0.285l0,-1.615l18.19249,-31.445z"/>
 </g>
</svg>