<svg xmlns="http://www.w3.org/2000/svg" width="1063" height="793.9999999999999">
 <!-- Created with Image Occlusion Enhanced -->
 <g>
  <title>Labels</title>
 </g>
 <g>
  <title>Masks</title>
  <rect id="b5c1c17771bf458199a13058eb2049af-oa-1" height="16.21622" width="221.62162" y="293.02703" x="4.56757" stroke="#2D2D2D" fill="#FFEBA2"/>
  <rect id="b5c1c17771bf458199a13058eb2049af-oa-2" height="72.97297" width="250" y="322.75676" x="1.86487" stroke="#2D2D2D" fill="#FFEBA2"/>
  <rect id="b5c1c17771bf458199a13058eb2049af-oa-3" height="13.51351" width="235.13514" y="422.75676" x="3.21622" stroke="#2D2D2D" fill="#FFEBA2"/>
  <rect id="b5c1c17771bf458199a13058eb2049af-oa-4" height="66.21622" width="252.7027" y="457.8919" x="1.86487" stroke="#2D2D2D" fill="#FFEBA2"/>
  <rect id="b5c1c17771bf458199a13058eb2049af-oa-5" height="27.02703" width="174.32433" y="552.48649" x="-7.59459" stroke="#2D2D2D" fill="#FFEBA2"/>
  <rect id="b5c1c17771bf458199a13058eb2049af-oa-6" height="14.86486" width="229.72973" y="599.78379" x="1.86487" stroke="#2D2D2D" fill="#FFEBA2"/>
  <rect id="b5c1c17771bf458199a13058eb2049af-oa-7" height="117.56757" width="267.56757" y="626.81082" x="1.86487" stroke="#2D2D2D" fill="#FFEBA2"/>
  <rect id="b5c1c17771bf458199a13058eb2049af-oa-8" height="17.56757" width="174.32433" y="11.94595" x="813.21623" stroke="#2D2D2D" fill="#FFEBA2"/>
  <rect id="b5c1c17771bf458199a13058eb2049af-oa-9" height="43.24324" width="255.40541" y="51.13514" x="807.81082" stroke="#2D2D2D" fill="#FFEBA2"/>
  <rect id="b5c1c17771bf458199a13058eb2049af-oa-10" height="13.51351" width="183.78378" y="106.54054" x="807.81082" stroke="#2D2D2D" fill="#FFEBA2"/>
  <rect id="b5c1c17771bf458199a13058eb2049af-oa-11" height="21.62162" width="233.78379" y="137.62162" x="829.43244" stroke="#2D2D2D" fill="#FFEBA2"/>
  <rect id="b5c1c17771bf458199a13058eb2049af-oa-12" height="10.81081" width="166.21622" y="194.37838" x="819.97298" stroke="#2D2D2D" fill="#FFEBA2"/>
  <rect id="b5c1c17771bf458199a13058eb2049af-oa-13" height="10.81081" width="137.83784" y="236.27027" x="826.72974" stroke="#2D2D2D" fill="#FFEBA2"/>
  <rect id="b5c1c17771bf458199a13058eb2049af-oa-14" height="156.75676" width="240.54054" y="260.5946" x="825.37839" stroke="#2D2D2D" fill="#FFEBA2"/>
  <rect id="b5c1c17771bf458199a13058eb2049af-oa-15" height="18.91892" width="183.78378" y="509.24325" x="819.97298" stroke="#2D2D2D" fill="#FFEBA2"/>
  <rect id="b5c1c17771bf458199a13058eb2049af-oa-16" height="48.64865" width="187.83784" y="544.37838" x="825.37839" stroke="#2D2D2D" fill="#FFEBA2"/>
  <rect id="b5c1c17771bf458199a13058eb2049af-oa-17" height="21.62162" width="145.94595" y="620.05406" x="822.67569" stroke="#2D2D2D" fill="#FFEBA2"/>
  <rect id="b5c1c17771bf458199a13058eb2049af-oa-18" height="18.91892" width="237.83784" y="651.13514" x="830.7838" stroke="#2D2D2D" fill="#FFEBA2"/>
  <rect id="b5c1c17771bf458199a13058eb2049af-oa-19" height="13.51351" width="182.43243" y="698.43244" x="825.37839" stroke="#2D2D2D" fill="#FFEBA2"/>
  <rect id="b5c1c17771bf458199a13058eb2049af-oa-20" height="33.78378" width="217.56757" y="728.16217" x="828.08109" stroke="#2D2D2D" fill="#FFEBA2"/>
 </g>
</svg>