<svg xmlns="http://www.w3.org/2000/svg" width="1600" height="1442">
 <!-- Created with Image Occlusion Enhanced -->
 <g>
  <title>Labels</title>
 </g>
 <g>
  <title>Masks</title>
  <rect id="b711e049c3be4a1483b33f8bc6952546-ao-1" height="51.25" width="90" y="48.75003" x="570.75" stroke="#2D2D2D" fill="#007fff"/>
  <rect id="b711e049c3be4a1483b33f8bc6952546-ao-2" height="41.25" width="88.75" y="78.75003" x="428.24999" stroke="#2D2D2D" fill="#007fff"/>
  <rect id="b711e049c3be4a1483b33f8bc6952546-ao-3" height="32.5" width="116.25" y="171.25003" x="325.74999" stroke="#2D2D2D" fill="#007fff"/>
  <rect id="b711e049c3be4a1483b33f8bc6952546-ao-4" height="58.75" width="100" y="268.75004" x="208.24999" stroke="#2D2D2D" fill="#007fff"/>
  <rect id="b711e049c3be4a1483b33f8bc6952546-ao-5" height="46.25" width="90" y="345.00004" x="183.24999" stroke="#2D2D2D" fill="#007fff"/>
  <rect id="b711e049c3be4a1483b33f8bc6952546-ao-6" height="30" width="128.75" y="413.75004" x="146.99999" stroke="#2D2D2D" fill="#007fff"/>
  <rect id="b711e049c3be4a1483b33f8bc6952546-ao-7" height="32.5" width="103.75" y="460.00004" x="180.74999" stroke="#2D2D2D" fill="#007fff"/>
  <rect id="b711e049c3be4a1483b33f8bc6952546-ao-8" height="28.75" width="98.75" y="502.50004" x="165.74999" stroke="#2D2D2D" fill="#007fff"/>
  <rect id="b711e049c3be4a1483b33f8bc6952546-ao-9" height="52.5" width="81.25" y="543.75004" x="189.49999" stroke="#2D2D2D" fill="#007fff"/>
  <rect id="b711e049c3be4a1483b33f8bc6952546-ao-10" height="32.5" width="133.75" y="607.50004" x="129.49999" stroke="#2D2D2D" fill="#007fff"/>
  <rect id="b711e049c3be4a1483b33f8bc6952546-ao-11" height="26.25" width="101.25" y="652.50004" x="166.99999" stroke="#2D2D2D" fill="#007fff"/>
  <rect id="b711e049c3be4a1483b33f8bc6952546-ao-12" height="55" width="110" y="690.00005" x="159.49999" stroke="#2D2D2D" fill="#007fff"/>
  <rect id="b711e049c3be4a1483b33f8bc6952546-ao-13" height="55" width="151.25" y="756.25005" x="125.74999" stroke="#2D2D2D" fill="#007fff"/>
  <rect id="b711e049c3be4a1483b33f8bc6952546-ao-14" height="42.5" width="102.5" y="825.00005" x="166.99999" stroke="#2D2D2D" fill="#007fff"/>
  <rect id="b711e049c3be4a1483b33f8bc6952546-ao-15" height="41.25" width="133.75" y="885.00005" x="131.99999" stroke="#2D2D2D" fill="#007fff"/>
  <rect id="b711e049c3be4a1483b33f8bc6952546-ao-16" height="26.25" width="128.75" y="946.25005" x="140.74999" stroke="#2D2D2D" fill="#007fff"/>
  <rect id="b711e049c3be4a1483b33f8bc6952546-ao-17" height="30" width="146.25" y="987.50005" x="130.74999" stroke="#2D2D2D" fill="#007fff"/>
  <rect id="b711e049c3be4a1483b33f8bc6952546-ao-18" height="45" width="116.25" y="1030.00005" x="151.99999" stroke="#2D2D2D" fill="#007fff"/>
  <rect id="b711e049c3be4a1483b33f8bc6952546-ao-19" height="48.75" width="118.75" y="1095.00005" x="154.49999" stroke="#2D2D2D" fill="#007fff"/>
  <rect id="b711e049c3be4a1483b33f8bc6952546-ao-20" height="23.75" width="63.75" y="1156.25005" x="206.99999" stroke="#2D2D2D" fill="#007fff"/>
  <rect id="b711e049c3be4a1483b33f8bc6952546-ao-21" height="37.5" width="142.5" y="1198.75006" x="128.24999" stroke="#2D2D2D" fill="#007fff"/>
  <rect id="b711e049c3be4a1483b33f8bc6952546-ao-22" height="37.5" width="156.25" y="1241.25006" x="136.99999" stroke="#2D2D2D" fill="#007fff"/>
  <rect id="b711e049c3be4a1483b33f8bc6952546-ao-23" height="26.25" width="123.75" y="1288.75006" x="170.74999" stroke="#2D2D2D" fill="#007fff"/>
  <rect id="b711e049c3be4a1483b33f8bc6952546-ao-24" height="42.5" width="116.25" y="1330.00006" x="199.49999" stroke="#2D2D2D" fill="#007fff"/>
  <rect id="b711e049c3be4a1483b33f8bc6952546-ao-25" height="47.5" width="105" y="1368.75006" x="350.74999" stroke="#2D2D2D" fill="#007fff"/>
  <rect id="b711e049c3be4a1483b33f8bc6952546-ao-26" height="46.25" width="123.75" y="1371.25006" x="503.24999" stroke="#2D2D2D" fill="#007fff"/>
  <rect id="b711e049c3be4a1483b33f8bc6952546-ao-27" height="50" width="158.75" y="1371.25006" x="675.75" stroke="#2D2D2D" fill="#FF7E7E" class="qshape"/>
  <rect id="b711e049c3be4a1483b33f8bc6952546-ao-28" height="43.75" width="162.5" y="1368.75006" x="883.25" stroke="#2D2D2D" fill="#007fff"/>
  <rect id="b711e049c3be4a1483b33f8bc6952546-ao-29" height="81.25" width="173.75" y="1283.75006" x="1291.75001" stroke="#2D2D2D" fill="#007fff"/>
  <rect id="b711e049c3be4a1483b33f8bc6952546-ao-30" height="27.5" width="155" y="1238.75006" x="1295.50001" stroke="#2D2D2D" fill="#007fff"/>
  <rect id="b711e049c3be4a1483b33f8bc6952546-ao-31" height="27.5" width="102.5" y="1192.50006" x="1293.00001" stroke="#2D2D2D" fill="#007fff"/>
  <rect id="b711e049c3be4a1483b33f8bc6952546-ao-32" height="23.75" width="117.5" y="1143.75005" x="1291.75001" stroke="#2D2D2D" fill="#007fff"/>
  <rect id="b711e049c3be4a1483b33f8bc6952546-ao-33" height="23.75" width="121.25" y="1098.75005" x="1289.25001" stroke="#2D2D2D" fill="#007fff"/>
  <rect id="b711e049c3be4a1483b33f8bc6952546-ao-34" height="32.5" width="162.5" y="1050.00005" x="1294.25001" stroke="#2D2D2D" fill="#007fff"/>
  <rect id="b711e049c3be4a1483b33f8bc6952546-ao-35" height="46.25" width="131.25" y="982.50005" x="1291.75001" stroke="#2D2D2D" fill="#007fff"/>
  <rect id="b711e049c3be4a1483b33f8bc6952546-ao-36" height="23.75" width="155" y="932.50005" x="1286.75001" stroke="#2D2D2D" fill="#007fff"/>
  <rect id="b711e049c3be4a1483b33f8bc6952546-ao-37" height="28.75" width="198.75" y="886.25005" x="1283.00001" stroke="#2D2D2D" fill="#007fff"/>
  <rect id="b711e049c3be4a1483b33f8bc6952546-ao-38" height="56.25" width="156.25" y="815.00005" x="1326.75001" stroke="#2D2D2D" fill="#007fff"/>
  <rect id="b711e049c3be4a1483b33f8bc6952546-ao-39" height="50" width="115" y="747.50005" x="1359.25001" stroke="#2D2D2D" fill="#007fff"/>
  <rect id="b711e049c3be4a1483b33f8bc6952546-ao-40" height="46.25" width="117.5" y="691.25005" x="1364.25001" stroke="#2D2D2D" fill="#007fff"/>
  <rect id="b711e049c3be4a1483b33f8bc6952546-ao-41" height="32.5" width="140" y="631.25004" x="1361.75001" stroke="#2D2D2D" fill="#007fff"/>
  <rect id="b711e049c3be4a1483b33f8bc6952546-ao-42" height="92.5" width="136.25" y="510.00004" x="1365.50001" stroke="#2D2D2D" fill="#007fff"/>
  <rect id="b711e049c3be4a1483b33f8bc6952546-ao-43" height="48.75" width="113.75" y="431.25004" x="1363.00001" stroke="#2D2D2D" fill="#007fff"/>
  <rect id="b711e049c3be4a1483b33f8bc6952546-ao-44" height="45" width="78.75" y="355.00004" x="1360.50001" stroke="#2D2D2D" fill="#007fff"/>
  <rect id="b711e049c3be4a1483b33f8bc6952546-ao-45" height="46.25" width="91.25" y="273.75004" x="1321.75001" stroke="#2D2D2D" fill="#007fff"/>
  <rect id="b711e049c3be4a1483b33f8bc6952546-ao-46" height="42.5" width="107.5" y="205.00003" x="1278.00001" stroke="#2D2D2D" fill="#007fff"/>
  <rect id="b711e049c3be4a1483b33f8bc6952546-ao-47" height="45" width="95" y="101.25003" x="1171.75001" stroke="#2D2D2D" fill="#007fff"/>
  <rect id="b711e049c3be4a1483b33f8bc6952546-ao-48" height="48.75" width="98.75" y="57.50003" x="1025.5" stroke="#2D2D2D" fill="#007fff"/>
  <rect id="b711e049c3be4a1483b33f8bc6952546-ao-49" height="35" width="91.25" y="48.75003" x="875.5" stroke="#2D2D2D" fill="#007fff"/>
  <rect id="b711e049c3be4a1483b33f8bc6952546-ao-50" height="35" width="97.5" y="51.25003" x="713" stroke="#2D2D2D" fill="#007fff"/>
 </g>
</svg>