<svg xmlns="http://www.w3.org/2000/svg" width="1314" height="1458">
 <!-- Created with Image Occlusion Enhanced -->
 <g>
  <title>Labels</title>
 </g>
 <g>
  <title>Masks</title>
  <rect id="bbe6e8d2092c47a2bbfedd3ff26080d0-ao-1" height="31.25" width="91.25" y="111.24993" x="908.0001" stroke="#2D2D2D" fill="#007fff"/>
  <rect id="bbe6e8d2092c47a2bbfedd3ff26080d0-ao-2" height="52.5" width="151.25001" y="323.74994" x="905.5001" stroke="#2D2D2D" fill="#007fff"/>
  <rect id="bbe6e8d2092c47a2bbfedd3ff26080d0-ao-3" height="23.75" width="131.25001" y="392.49994" x="908.0001" stroke="#2D2D2D" fill="#007fff"/>
  <rect id="bbe6e8d2092c47a2bbfedd3ff26080d0-ao-4" height="48.75" width="111.25001" y="451.24994" x="941.7501" stroke="#2D2D2D" fill="#007fff"/>
  <rect id="bbe6e8d2092c47a2bbfedd3ff26080d0-ao-5" height="51.25" width="126.25001" y="513.74994" x="1065.50011" stroke="#2D2D2D" fill="#007fff"/>
  <rect id="bbe6e8d2092c47a2bbfedd3ff26080d0-ao-6" height="23.75" width="101.25" y="587.49995" x="1136.75011" stroke="#2D2D2D" fill="#007fff"/>
  <rect id="bbe6e8d2092c47a2bbfedd3ff26080d0-ao-7" height="26.25" width="80" y="653.74995" x="1135.50011" stroke="#2D2D2D" fill="#007fff"/>
  <rect id="bbe6e8d2092c47a2bbfedd3ff26080d0-ao-8" height="22.5" width="110.00001" y="213.74993" x="216.75007" stroke="#2D2D2D" fill="#007fff"/>
  <rect id="bbe6e8d2092c47a2bbfedd3ff26080d0-ao-9" height="48.75" width="111.25001" y="281.24993" x="211.75007" stroke="#2D2D2D" fill="#007fff"/>
  <rect id="bbe6e8d2092c47a2bbfedd3ff26080d0-ao-10" height="27.5" width="160.00001" y="379.99994" x="164.25007" stroke="#2D2D2D" fill="#007fff"/>
  <rect id="bbe6e8d2092c47a2bbfedd3ff26080d0-ao-11" height="33.75" width="147.50001" y="436.24994" x="178.00007" stroke="#2D2D2D" fill="#007fff"/>
  <rect id="bbe6e8d2092c47a2bbfedd3ff26080d0-ao-12" height="60" width="130.00001" y="1109.99997" x="219.25007" stroke="#2D2D2D" fill="#007fff"/>
  <rect id="bbe6e8d2092c47a2bbfedd3ff26080d0-ao-13" height="60" width="117.50001" y="1196.24998" x="218.00007" stroke="#2D2D2D" fill="#007fff"/>
  <rect id="bbe6e8d2092c47a2bbfedd3ff26080d0-ao-14" height="56.25" width="115.00001" y="1273.74998" x="221.75007" stroke="#2D2D2D" fill="#007fff"/>
  <rect id="bbe6e8d2092c47a2bbfedd3ff26080d0-ao-15" height="41.25" width="108.75001" y="1032.49997" x="1033.00011" stroke="#2D2D2D" fill="#007fff"/>
  <rect id="bbe6e8d2092c47a2bbfedd3ff26080d0-ao-16" height="28.75" width="117.50001" y="1116.24997" x="1038.00011" stroke="#2D2D2D" fill="#007fff"/>
  <rect id="bbe6e8d2092c47a2bbfedd3ff26080d0-ao-17" height="48.75" width="120.00001" y="1199.99998" x="1035.50011" stroke="#2D2D2D" fill="#007fff"/>
  <rect id="bbe6e8d2092c47a2bbfedd3ff26080d0-ao-18" height="52.5" width="151.25001" y="1332.49998" x="1034.25011" stroke="#2D2D2D" fill="#FF7E7E" class="qshape"/>
 </g>
</svg>