<svg xmlns="http://www.w3.org/2000/svg" width="2728" height="1000">
 <!-- Created with Image Occlusion Enhanced -->
 <g>
  <title>Labels</title>
 </g>
 <g>
  <title>Masks</title>
  <g id="beb0850d9f854e73922b99c10b6f8910-ao-1">
   <rect height="95" width="172.50001" y="682.50001" x="274.50013" stroke="#2D2D2D" fill="#FFEBA2"/>
   <rect height="90" width="192.50001" y="127.49998" x="1974.50021" stroke="#2D2D2D" fill="#FFEBA2"/>
  </g>
  <g id="beb0850d9f854e73922b99c10b6f8910-ao-2">
   <rect height="102.5" width="205.00001" y="337.49999" x="1139.50017" stroke="#2D2D2D" fill="#FFEBA2"/>
   <rect height="90" width="227.50001" y="129.99998" x="2224.50022" stroke="#2D2D2D" fill="#FFEBA2"/>
  </g>
  
  <rect id="beb0850d9f854e73922b99c10b6f8910-ao-4" height="87.5" width="182.50001" y="199.99999" x="832.00016" stroke="#2D2D2D" fill="#FFEBA2"/>
  <g id="beb0850d9f854e73922b99c10b6f8910-ao-5">
   <rect height="102.5" width="280.00001" y="177.49999" x="144.50013" stroke="#2D2D2D" fill="#FFEBA2"/>
   <rect height="102.5" width="287.50001" y="590" x="2362.00023" stroke="#2D2D2D" fill="#FFEBA2"/>
  </g>
  <g id="beb0850d9f854e73922b99c10b6f8910-ao-6">
   <rect height="92.5" width="232.50001" y="415" x="1409.50019" stroke="#2D2D2D" fill="#FFEBA2"/>
   <rect height="95" width="227.50001" y="702.50001" x="1047.00017" stroke="#2D2D2D" fill="#FFEBA2"/>
  </g>
  <rect id="beb0850d9f854e73922b99c10b6f8910-ao-7" height="110" width="180.00001" y="522.5" x="62.00012" stroke="#2D2D2D" fill="#FFEBA2"/>
  <rect id="beb0850d9f854e73922b99c10b6f8910-ao-8" height="52.5" width="132.50001" y="515" x="284.50013" stroke="#2D2D2D" fill="#FFEBA2"/>
  <rect id="beb0850d9f854e73922b99c10b6f8910-ao-9" height="52.5" width="157.50001" y="592.5" x="284.50013" stroke="#2D2D2D" fill="#FFEBA2"/>
  <rect id="beb0850d9f854e73922b99c10b6f8910-ao-10" height="85" width="237.50001" y="600" x="1039.50017" stroke="#2D2D2D" fill="#FFEBA2"/>
  <rect id="beb0850d9f854e73922b99c10b6f8910-ao-11" height="100" width="227.50001" y="477.5" x="1087.00017" stroke="#2D2D2D" fill="#FFEBA2"/>
  <rect id="beb0850d9f854e73922b99c10b6f8910-ao-12" height="92.5" width="247.50001" y="587.5" x="1507.00019" stroke="#2D2D2D" fill="#FFEBA2"/>
  <rect id="beb0850d9f854e73922b99c10b6f8910-ao-13" height="85" width="290.00001" y="750.00001" x="2152.00022" stroke="#2D2D2D" fill="#FFEBA2"/>
  <rect id="beb0850d9f854e73922b99c10b6f8910-ao-14" height="77.5" width="222.50001" y="134.99998" x="1707.0002" stroke="#2D2D2D" fill="#FFEBA2"/>
 </g>
</svg>