<svg xmlns="http://www.w3.org/2000/svg" width="1600" height="1352.0000000000002">
 <!-- Created with Image Occlusion Enhanced -->
 <g>
  <title>Labels</title>
 </g>
 <g>
  <title>Masks</title>
  <rect id="bfabc7e0c14d42f6bc3033dbc8c38162-ao-1" height="50" width="129.7619" y="78.95229" x="347.61905" stroke="#2D2D2D" fill="#007fff"/>
  <rect id="bfabc7e0c14d42f6bc3033dbc8c38162-ao-2" height="48.80952" width="125" y="302.76181" x="222.61905" stroke="#2D2D2D" fill="#007fff"/>
  <rect id="bfabc7e0c14d42f6bc3033dbc8c38162-ao-3" height="22.61905" width="102.38095" y="384.90467" x="210.71429" stroke="#2D2D2D" fill="#007fff"/>
  <rect id="bfabc7e0c14d42f6bc3033dbc8c38162-ao-4" height="73.80952" width="150" y="439.66657" x="172.61905" stroke="#2D2D2D" fill="#007fff"/>
  <rect id="bfabc7e0c14d42f6bc3033dbc8c38162-ao-5" height="38.09524" width="82.14286" y="650.38086" x="202.38095" stroke="#2D2D2D" fill="#007fff"/>
  <rect id="bfabc7e0c14d42f6bc3033dbc8c38162-ao-6" height="47.61905" width="151.19048" y="725.38086" x="146.42857" stroke="#2D2D2D" fill="#007fff"/>
  <rect id="bfabc7e0c14d42f6bc3033dbc8c38162-ao-7" height="51.19048" width="141.66667" y="793.238" x="170.2381" stroke="#2D2D2D" fill="#007fff"/>
  <rect id="bfabc7e0c14d42f6bc3033dbc8c38162-ao-8" height="53.57143" width="140.47619" y="864.66657" x="194.04762" stroke="#2D2D2D" fill="#007fff"/>
  <rect id="bfabc7e0c14d42f6bc3033dbc8c38162-ao-9" height="48.80952" width="86.90476" y="940.85705" x="272.61905" stroke="#2D2D2D" fill="#007fff"/>
  <rect id="bfabc7e0c14d42f6bc3033dbc8c38162-ao-10" height="33.33333" width="89.28571" y="1006.33324" x="294.04762" stroke="#2D2D2D" fill="#007fff"/>
  <rect id="bfabc7e0c14d42f6bc3033dbc8c38162-ao-11" height="55.95238" width="117.85714" y="1082.52371" x="289.28571" stroke="#2D2D2D" fill="#007fff"/>
  <rect id="bfabc7e0c14d42f6bc3033dbc8c38162-ao-12" height="38.09524" width="78.57143" y="1161.09514" x="354.7619" stroke="#2D2D2D" fill="#007fff"/>
  <rect id="bfabc7e0c14d42f6bc3033dbc8c38162-ao-13" height="51.19048" width="138.09524" y="1219.42848" x="338.09524" stroke="#2D2D2D" fill="#007fff"/>
  <rect id="bfabc7e0c14d42f6bc3033dbc8c38162-ao-14" height="40.47619" width="104.7619" y="1238.47609" x="1147.61905" stroke="#2D2D2D" fill="#007fff"/>
  <rect id="bfabc7e0c14d42f6bc3033dbc8c38162-ao-15" height="53.57143" width="133.33333" y="1159.90467" x="1163.09524" stroke="#2D2D2D" fill="#007fff"/>
  <rect id="bfabc7e0c14d42f6bc3033dbc8c38162-ao-16" height="45.2381" width="107.14286" y="1092.04752" x="1196.42857" stroke="#2D2D2D" fill="#007fff"/>
  
  <rect id="bfabc7e0c14d42f6bc3033dbc8c38162-ao-18" height="26.19048" width="107.14286" y="965.85705" x="1194.04762" stroke="#2D2D2D" fill="#007fff"/>
  <rect id="bfabc7e0c14d42f6bc3033dbc8c38162-ao-19" height="33.33333" width="120.2381" y="914.66657" x="1222.61905" stroke="#2D2D2D" fill="#007fff"/>
  <rect id="bfabc7e0c14d42f6bc3033dbc8c38162-ao-20" height="47.61905" width="104.7619" y="844.42848" x="1242.85714" stroke="#2D2D2D" fill="#007fff"/>
  <rect id="bfabc7e0c14d42f6bc3033dbc8c38162-ao-21" height="50" width="139.28571" y="772.9999" x="1290.47619" stroke="#2D2D2D" fill="#007fff"/>
  <rect id="bfabc7e0c14d42f6bc3033dbc8c38162-ao-22" height="46.42857" width="141.66667" y="701.57133" x="1314.28571" stroke="#2D2D2D" fill="#007fff"/>
  <rect id="bfabc7e0c14d42f6bc3033dbc8c38162-ao-23" height="47.61905" width="128.57143" y="632.52371" x="1320.2381" stroke="#2D2D2D" fill="#007fff"/>
  <rect id="bfabc7e0c14d42f6bc3033dbc8c38162-ao-24" height="71.42857" width="135.71429" y="534.90467" x="1320.2381" stroke="#2D2D2D" fill="#007fff"/>
  <rect id="bfabc7e0c14d42f6bc3033dbc8c38162-ao-25" height="50" width="116.66667" y="436.09514" x="1294.04762" stroke="#2D2D2D" fill="#007fff"/>
  <rect id="bfabc7e0c14d42f6bc3033dbc8c38162-ao-26" height="44.04762" width="130.95238" y="347.9999" x="1263.09524" stroke="#2D2D2D" fill="#007fff"/>
  <rect id="bfabc7e0c14d42f6bc3033dbc8c38162-ao-27" height="47.61905" width="164.28571" y="252.76181" x="1245.2381" stroke="#2D2D2D" fill="#007fff"/>
 </g>
</svg>