<svg width="620.01" height="341.5" xmlns="http://www.w3.org/2000/svg">

 <g>
  <title>background</title>
  <rect fill="#ffffff" id="canvas_background" height="343.5" width="622.01" y="-1" x="-1"/>
 </g>
 <g>
  <title>Layer 1</title>
  <g id="layer1">
   <path fill="#000000" id="path2853" d="m34.44001,316.79998l0,-14.8l9.69,0l9.69,0l0,1.7l0,1.7l-7.8,0l-7.79,0l0,4.6l0,4.6l6.53,0l6.53,0l0,1.7l0,1.7l-6.53,0l-6.53,0l0,6.8l0,6.7l-1.9,0l-1.89,0l0,-14.7zm97.33,-9.7c-6.45,-2.1 -10.07,-7.5 -10.12,-14.8c0,-8.8 5.69,-15.2 13.74,-15.2c7.92,0 13.65,6.4 13.65,15.2c0,6.7 -3.16,11.9 -8.64,14.3c-1.51,0.6 -7.16,1 -8.63,0.5zm8.68,-4.5c1.55,-1 2.36,-1.9 3.32,-3.8c1.14,-2.2 1.27,-2.8 1.27,-6.5c0,-3.7 -0.13,-4.3 -1.27,-6.6c-2.78,-5.4 -9.31,-6.8 -14.41,-3.1c-4.17,3 -5.26,11.7 -2.1,16.9c2.78,4.6 8.55,6 13.19,3.1zm-130.45,-10.3l0,-14.7l9.69,0l9.69,0l0,1.7l0,1.6l-7.79,0l-7.8,0l0,4.7l0,4.6l6.53,0l6.53,0l0,1.7l0,1.7l-6.53,0l-6.53,0l0,6.7l0,6.8l-1.89,0l-1.9,0l0,-14.8zm44.07,6.1c-0.42,-0.3 -0.97,-0.6 -1.18,-0.7c-0.21,-0.1 4.26,-8.2 9.99,-18.2c5.73,-9.9 10.36,-18.1 10.28,-18.1c-0.1,-0.1 -8.13,4.5 -17.87,10.1c-9.73,5.7 -17.95,10.4 -18.24,10.5c-0.55,0.3 -1.73,-0.9 -1.77,-1.8c0,-0.2 9.19,-5.7 20.44,-12.2l20.39,-11.7l0,-23.1l0,-23.1l1.47,0l1.48,0l0,23.1l0,23.1l20.77,11.9c11.42,6.6 20.81,12.1 20.9,12.1c0.17,0.2 -0.8,2.7 -0.97,2.7c0,0 -9.44,-5.4 -20.9,-12c-11.42,-6.6 -20.81,-11.9 -20.86,-11.9c0,0.1 -5.18,8.9 -11.37,19.7c-6.2,10.8 -11.42,19.8 -11.55,19.9c-0.12,0.1 -0.59,0 -1.05,-0.3l0.04,0zm177.34,-17.8c-10.66,-6.1 -23.59,-13.6 -28.69,-16.5l-9.35,-5.4l-20.99,12.1l-21.02,12.2l-0.76,-0.9c-0.42,-0.5 -0.67,-1.1 -0.59,-1.3c0.1,-0.2 9.56,-5.8 21.07,-12.5l20.9,-12l0,-33.5l0,-33.52l29.57,-17.06c16.26,-9.39 29.73,-17.02 29.93,-16.96c0.2,0.1 13.17,7.51 28.83,16.54c15.63,9.04 28.65,16.43 28.9,16.43c0.34,0 32.23,-18.18 38.55,-21.98l1.35,-0.82l0.63,1.26l0.63,1.27l-3.45,2.04c-1.9,1.12 -10.83,6.28 -19.8,11.45l-16.31,9.41l-0.13,33.54l-0.1,33.5l-29.45,17c-16.17,9.3 -29.63,17 -29.9,17c-0.27,0 -9.22,-5.1 -19.88,-11.3l0.06,0zm49.53,-8.9l26.75,-15.4l0.1,-32.7l0.1,-32.63l-27.89,-16.09c-15.35,-8.85 -28.13,-16.14 -28.39,-16.22c-0.26,-0.1 -13.11,7.15 -28.54,16.04l-28.07,16.18l0,32.72l0,32.7l28.12,16.3l28.13,16.2l1.47,-0.8c0.81,-0.4 13.52,-7.8 28.25,-16.3l-0.03,0zm-29.69,7.2l-0.65,-1.2l23.81,-13.8c13.1,-7.6 23.89,-13.7 24.01,-13.7c0.1,0 0.47,0.5 0.8,1.1l0.59,1.2l-23.63,13.7c-13.01,7.5 -23.79,13.7 -23.97,13.8c-0.17,0.1 -0.6,-0.4 -0.96,-1.1zm-49.12,-55.5l0,-27.6l1.26,0l1.27,0l0,27.6l0,27.6l-1.27,0l-1.26,0l0,-27.6zm72.19,-40.12l-23.69,-13.72l0.64,-1.23c0.34,-0.67 0.78,-1.16 0.98,-1.09c0.19,0.1 10.98,6.27 23.97,13.78l23.63,13.68l-0.63,1.2c-0.33,0.6 -0.76,1.2 -0.92,1.1c-0.17,0 -10.96,-6.18 -23.98,-13.72zm312.93,42.02l0,-14.7l2.02,0l2.02,0l7.38,11.3l7.33,11.4l0.12,-11.4l0.1,-11.3l1.89,0l1.9,0l0,14.7l0,14.8l-2.02,0l-2.02,0l-7.38,-11.4l-7.33,-11.3l-0.13,11.3l-0.1,11.4l-1.9,0l-1.89,0l0,-14.8l0.01,0zm-23.47,-8.7l-11.46,-6.6l0.63,-1.2c0.34,-0.7 0.72,-1.2 0.84,-1.2c0.3,0 22.21,12.6 22.63,13c0.34,0.4 -0.46,2.6 -0.93,2.6c-0.12,0 -5.39,-3 -11.71,-6.6zm5.14,-8.6c-6.03,-3.5 -11.08,-6.5 -11.25,-6.6c-0.17,-0.2 0,-0.8 0.42,-1.5l0.76,-1.1l11.33,6.6c6.28,3.6 11.42,6.6 11.51,6.6c0.29,0.3 -0.93,2.4 -1.35,2.3c-0.25,0 -5.4,-2.8 -11.42,-6.3zm-32.06,-1.6c-3.67,-1.3 -5.78,-3.4 -7.42,-7.6c-0.76,-1.9 -0.93,-3.2 -0.93,-7c0,-4.21 0.1,-4.86 1.14,-7.21c0.68,-1.42 1.9,-3.25 2.74,-4.08c4.34,-4.24 12.22,-4.78 16.6,-1.15c1.6,1.34 3.92,5.44 3.41,5.97c-0.21,0.17 -1.01,0.43 -1.89,0.59c-1.44,0.27 -1.56,0.2 -2.24,-1.23c-2.02,-4.21 -6.7,-5.61 -11.37,-3.39c-2.02,0.95 -3.79,3.73 -4.47,6.87c-0.59,2.9 -0.29,7.73 0.68,10.03c3.16,7.6 13.69,7.4 16.18,-0.3l0.5,-1.6l1.77,0.6c1.98,0.6 2.02,0.9 0.72,3.8c-0.93,2 -2.99,4.2 -5.23,5.3c-2.44,1.3 -7.33,1.5 -10.19,0.4zm-469.14,-14.4l0,-14.73l9.69,0l9.69,0l0,1.69l0,1.68l-7.79,0l-7.79,0l0,4.64l0,4.63l6.53,0l6.53,0l0,1.69l0,1.7l-6.53,0l-6.53,0l0,6.7l0,6.8l-1.9,0l-1.9,0l0,-14.8zm345.94,0l0,-14.73l2.02,0l2.02,0l7.38,11.35l7.33,11.38l0.12,-11.38l0.1,-11.35l1.89,0l1.9,0l0,14.73l0,14.8l-2.02,0l-2.03,0l-7.37,-11.4l-7.33,-11.33l-0.13,11.33l-0.12,11.4l-1.9,0l-1.85,0l0,-14.8l-0.01,0zm160.53,7.4c-6.16,-3.6 -11.34,-6.6 -11.51,-6.6c-0.21,-0.1 0,-0.7 0.38,-1.5l0.72,-1.23l10.57,6.03c14.08,8.1 12.6,7.1 11.84,8.6c-0.37,0.7 -0.71,1.2 -0.75,1.2c0,0 -5.1,-2.9 -11.25,-6.5zm-70.11,-28.86l-21.07,-12.17l-1.69,1c-0.97,0.54 -9.98,5.74 -20.05,11.55l-18.33,10.57l-0.72,-0.95c-0.42,-0.52 -0.75,-1.07 -0.75,-1.22c0,-0.15 9.01,-5.45 20.01,-11.8l20.01,-11.52l0,-22.86l0,-22.86l1.48,0l1.47,0l0,22.86l0,22.86l20.78,11.95c11.46,6.58 21.06,12.11 21.36,12.3c0.67,0.42 -0.17,2.51 -0.97,2.48c-0.3,0 -10.03,-5.5 -21.57,-12.19l0.04,0zm-108.79,4.08l-11.8,-6.83l0.63,-1.16c0.38,-0.63 0.76,-1.15 0.89,-1.15c0.21,0 22.79,12.99 23.13,13.31c0.1,0.1 -0.1,0.74 -0.42,1.42l-0.59,1.24l-11.84,-6.83zm-39.36,-16.31l0,-14.74l2.03,0l2.02,0l7.33,11.35l7.37,11.35l0.1,-11.35l0.12,-11.35l1.9,0l1.9,0l0,14.74l0,14.75l-2.07,0l-2.02,0l-7.33,-11.35l-7.33,-11.35l-0.13,11.35l-0.13,11.35l-1.89,0l-1.86,0l0,-14.75l-0.01,0zm81.07,13.3c-0.38,-0.61 -0.63,-1.17 -0.55,-1.24c0.51,-0.44 35.52,-20.48 35.77,-20.48c0.47,0 1.35,2.2 0.97,2.52c-0.46,0.41 -34.13,19.79 -34.84,20.06c-0.38,0.14 -0.93,-0.22 -1.35,-0.86zm-81.07,-46.58l0,-14.75l1.9,0l1.9,0l0,6.11l0,6.11l7.58,0l7.58,0l0,-6.11l0,-6.11l1.9,0l1.9,0l0,14.75l0,14.75l-1.9,0l-1.9,0l0,-6.96l0,-6.95l-7.58,0l-7.58,0l0,6.95l0,6.96l-1.9,0l-1.9,0l0,-14.75zm123.2,-18.86c-3.66,-1.32 -5.77,-3.46 -7.41,-7.66c-0.76,-1.9 -0.93,-3.22 -0.93,-6.98c0,-4.22 0.1,-4.86 1.14,-7.22c0.67,-1.42 1.89,-3.25 2.74,-4.08c4.34,-4.24 12.22,-4.78 16.6,-1.14c1.6,1.33 3.92,5.44 3.41,5.96c-0.21,0.17 -1.01,0.44 -1.9,0.59c-1.43,0.27 -1.55,0.2 -2.23,-1.23c-2.02,-4.21 -6.7,-5.61 -11.37,-3.39c-2.03,0.96 -3.8,3.73 -4.47,6.88c-0.59,2.89 -0.3,7.74 0.67,9.98c3.16,7.64 13.7,7.45 16.18,-0.29l0.51,-1.54l1.77,0.54c1.98,0.59 2.02,0.89 0.71,3.79c-0.92,2.09 -2.99,4.22 -5.22,5.37c-2.44,1.24 -7.33,1.44 -10.2,0.42zm-7.75,-48.34l0,-15.38l1.47,0l1.48,0l0,15.38l0,15.37l-1.48,0l-1.47,0l0,-15.37zm10.11,0l0,-15.38l1.48,0l1.47,0l0,15.38l0,15.37l-1.47,0l-1.48,0l0,-15.37zm10.11,0l0,-15.38l1.48,0l1.47,0l0,15.38l0,15.37l-1.47,0l-1.48,0l0,-15.37zm-19.8,-33.08l0,-14.75l2.02,0l2.03,0l7.37,11.35l7.33,11.36l0.13,-11.36l0.1,-11.35l1.9,0l1.89,0l0,14.75l0,14.75l-2.02,0l-2.02,0l-7.37,-11.35l-7.34,-11.35l-0.12,11.35l-0.1,11.35l-1.89,0l-1.9,0l0,-14.75l-0.01,0z"/>
  </g>
 </g>
</svg>