<svg xmlns="http://www.w3.org/2000/svg" width="1600" height="1072">
 <!-- Created with Image Occlusion Enhanced -->
 <g>
  <title>Labels</title>
 </g>
 <g>
  <title>Masks</title>
  <rect id="cb32ecfdaabc4f3bada78d39832d6305-ao-1" height="54.63918" width="174.22681" y="130.0619" x="193.81441" stroke="#2D2D2D" fill="#007fff"/>
  <rect id="cb32ecfdaabc4f3bada78d39832d6305-ao-2" height="23.71134" width="201.03093" y="199.13406" x="177.31957" stroke="#2D2D2D" fill="#007fff"/>
  <rect id="cb32ecfdaabc4f3bada78d39832d6305-ao-3" height="42.26804" width="169.07217" y="240.37118" x="203.09276" stroke="#2D2D2D" fill="#007fff"/>
  <rect id="cb32ecfdaabc4f3bada78d39832d6305-ao-4" height="27.83505" width="115.46392" y="285.732" x="250.51545" stroke="#2D2D2D" fill="#007fff"/>
  <rect id="cb32ecfdaabc4f3bada78d39832d6305-ao-5" height="42.26804" width="201.03093" y="334.18561" x="167.01029" stroke="#2D2D2D" fill="#007fff"/>
  <rect id="cb32ecfdaabc4f3bada78d39832d6305-ao-6" height="25.7732" width="183.50516" y="391.91757" x="181.44328" stroke="#2D2D2D" fill="#007fff"/>
  <rect id="cb32ecfdaabc4f3bada78d39832d6305-ao-7" height="25.7732" width="183.50516" y="433.15469" x="182.47421" stroke="#2D2D2D" fill="#007fff"/>
  <rect id="cb32ecfdaabc4f3bada78d39832d6305-ao-8" height="25.7732" width="205.15465" y="472.32995" x="162.88658" stroke="#2D2D2D" fill="#007fff"/>
  <rect id="cb32ecfdaabc4f3bada78d39832d6305-ao-9" height="28.86598" width="169.07217" y="510.47428" x="195.87627" stroke="#2D2D2D" fill="#007fff"/>
  <rect id="cb32ecfdaabc4f3bada78d39832d6305-ao-10" height="43.29897" width="152.57732" y="553.77325" x="223.71132" stroke="#2D2D2D" fill="#007fff"/>
  <rect id="cb32ecfdaabc4f3bada78d39832d6305-ao-11" height="17.52577" width="87.62887" y="601.19593" x="282.47421" stroke="#2D2D2D" fill="#007fff"/>
  <rect id="cb32ecfdaabc4f3bada78d39832d6305-ao-12" height="29.89691" width="184.53609" y="640.37119" x="180.41235" stroke="#2D2D2D" fill="#007fff"/>
  <rect id="cb32ecfdaabc4f3bada78d39832d6305-ao-13" height="31.95876" width="153.60825" y="678.51552" x="215.4639" stroke="#2D2D2D" fill="#007fff"/>
  <rect id="cb32ecfdaabc4f3bada78d39832d6305-ao-14" height="23.71134" width="118.5567" y="725.9382" x="251.54637" stroke="#2D2D2D" fill="#007fff"/>
  <rect id="cb32ecfdaabc4f3bada78d39832d6305-ao-15" height="25.7732" width="111.34021" y="765.11346" x="262.88658" stroke="#2D2D2D" fill="#007fff"/>
  <rect id="cb32ecfdaabc4f3bada78d39832d6305-ao-16" height="48.45361" width="189.69073" y="802.22687" x="180.41235" stroke="#2D2D2D" fill="#007fff"/>
  <rect id="cb32ecfdaabc4f3bada78d39832d6305-ao-17" height="48.45361" width="121.64949" y="863.05161" x="251.54637" stroke="#2D2D2D" fill="#007fff"/>
  <rect id="cb32ecfdaabc4f3bada78d39832d6305-ao-18" height="49.48454" width="115.46392" y="925.93821" x="258.76287" stroke="#2D2D2D" fill="#007fff"/>
  <rect id="cb32ecfdaabc4f3bada78d39832d6305-ao-19" height="30.92784" width="79.38145" y="987.79388" x="288.65978" stroke="#2D2D2D" fill="#007fff"/>
  <rect id="cb32ecfdaabc4f3bada78d39832d6305-ao-20" height="27.83505" width="104.12371" y="836.24749" x="894.84536" stroke="#2D2D2D" fill="#007fff"/>
  <rect id="cb32ecfdaabc4f3bada78d39832d6305-ao-21" height="55.6701" width="200.00001" y="878.51553" x="894.84536" stroke="#2D2D2D" fill="#007fff"/>
  <rect id="cb32ecfdaabc4f3bada78d39832d6305-ao-22" height="25.7732" width="111.34021" y="940.3712" x="896.90722" stroke="#2D2D2D" fill="#007fff"/>
  <rect id="cb32ecfdaabc4f3bada78d39832d6305-ao-23" height="44.3299" width="142.26805" y="220.78355" x="1282.47424" stroke="#2D2D2D" fill="#007fff"/>
  <rect id="cb32ecfdaabc4f3bada78d39832d6305-ao-24" height="24.74227" width="104.12371" y="286.76293" x="1285.56703" stroke="#2D2D2D" fill="#007fff"/>
  <rect id="cb32ecfdaabc4f3bada78d39832d6305-ao-25" height="29.89691" width="181.4433" y="571.29902" x="1283.50517" stroke="#2D2D2D" fill="#FF7E7E" class="qshape"/>
  <rect id="cb32ecfdaabc4f3bada78d39832d6305-ao-26" height="45.36083" width="172.16495" y="613.56707" x="1276.28868" stroke="#2D2D2D" fill="#007fff"/>
  <rect id="cb32ecfdaabc4f3bada78d39832d6305-ao-27" height="49.48454" width="160.82475" y="677.48459" x="1283.50517" stroke="#2D2D2D" fill="#007fff"/>
  <rect id="cb32ecfdaabc4f3bada78d39832d6305-ao-28" height="48.45361" width="148.45361" y="744.49491" x="1277.3196" stroke="#2D2D2D" fill="#007fff"/>
  <rect id="cb32ecfdaabc4f3bada78d39832d6305-ao-29" height="35.05155" width="168.04124" y="802.22687" x="1274.22682" stroke="#2D2D2D" fill="#007fff"/>
  <rect id="cb32ecfdaabc4f3bada78d39832d6305-ao-30" height="31.95876" width="193.81444" y="844.49491" x="1277.3196" stroke="#2D2D2D" fill="#007fff"/>
  <rect id="cb32ecfdaabc4f3bada78d39832d6305-ao-31" height="48.45361" width="216.49485" y="980.57739" x="888.6598" stroke="#2D2D2D" fill="#007fff"/>
 </g>
</svg>