<svg xmlns="http://www.w3.org/2000/svg" width="967" height="1571">
 <!-- Created with Image Occlusion Enhanced -->
 <g>
  <title>Labels</title>
 </g>
 <g>
  <title>Masks</title>
  <rect id="cc14d330f13d4c9fa04dd28248976aac-ao-1" height="53.06123" width="177.55103" y="61.44903" x="738.51025" stroke="#2D2D2D" fill="#aaaaff"/>
  <rect id="cc14d330f13d4c9fa04dd28248976aac-ao-2" height="72.44898" width="113.26531" y="131.85719" x="818.10209" stroke="#2D2D2D" fill="#aaaaff"/>
  <rect id="cc14d330f13d4c9fa04dd28248976aac-ao-3" height="75.51021" width="108.16327" y="234.91842" x="818.10209" stroke="#2D2D2D" fill="#aaaaff"/>
  <rect id="cc14d330f13d4c9fa04dd28248976aac-ao-4" height="51.02041" width="111.22449" y="323.69393" x="817.08168" stroke="#2D2D2D" fill="#aaaaff"/>
  <rect id="cc14d330f13d4c9fa04dd28248976aac-ao-5" height="45.91837" width="103.06123" y="394.1021" x="814.02046" stroke="#2D2D2D" fill="#aaaaff"/>
  <rect id="cc14d330f13d4c9fa04dd28248976aac-ao-6" height="50" width="144.89796" y="515.53067" x="788.51025" stroke="#2D2D2D" fill="#aaaaff"/>
  <rect id="cc14d330f13d4c9fa04dd28248976aac-ao-7" height="72.44898" width="202.04082" y="581.8572" x="716.06127" stroke="#2D2D2D" fill="#aaaaff"/>
  <rect id="cc14d330f13d4c9fa04dd28248976aac-ao-8" height="47.95919" width="134.69388" y="652.26537" x="237.48983" stroke="#2D2D2D" fill="#aaaaff"/>
  <rect id="cc14d330f13d4c9fa04dd28248976aac-ao-9" height="28.57143" width="187.75511" y="605.32659" x="144.63268" stroke="#2D2D2D" fill="#aaaaff"/>
  <rect id="cc14d330f13d4c9fa04dd28248976aac-ao-10" height="47.95919" width="141.83674" y="536.95924" x="137.48983" stroke="#2D2D2D" fill="#aaaaff"/>
  <rect id="cc14d330f13d4c9fa04dd28248976aac-ao-11" height="29.59184" width="163.26531" y="492.06128" x="91.57146" stroke="#2D2D2D" fill="#aaaaff"/>
  <rect id="cc14d330f13d4c9fa04dd28248976aac-ao-12" height="44.89796" width="135.71429" y="427.77557" x="114.02044" stroke="#2D2D2D" fill="#aaaaff"/>
  <rect id="cc14d330f13d4c9fa04dd28248976aac-ao-13" height="46.93878" width="133.67347" y="361.44903" x="121.1633" stroke="#2D2D2D" fill="#aaaaff"/>
  <rect id="cc14d330f13d4c9fa04dd28248976aac-ao-14" height="23.46939" width="157.14286" y="316.55107" x="97.69391" stroke="#2D2D2D" fill="#aaaaff"/>
  <rect id="cc14d330f13d4c9fa04dd28248976aac-ao-15" height="43.87755" width="139.79592" y="245.1225" x="122.1837" stroke="#2D2D2D" fill="#aaaaff"/>
  <rect id="cc14d330f13d4c9fa04dd28248976aac-ao-16" height="43.87755" width="161.22449" y="178.79597" x="93.61227" stroke="#2D2D2D" fill="#aaaaff"/>
  <rect id="cc14d330f13d4c9fa04dd28248976aac-ao-17" height="26.53061" width="179.59184" y="134.91842" x="98.71432" stroke="#2D2D2D" fill="#aaaaff"/>
  <rect id="cc14d330f13d4c9fa04dd28248976aac-ao-18" height="47.95919" width="142.85715" y="63.48984" x="159.93881" stroke="#2D2D2D" fill="#aaaaff"/>
  <rect id="cc14d330f13d4c9fa04dd28248976aac-ao-19" height="53.06123" width="112.2449" y="774.71435" x="771.16331" stroke="#2D2D2D" fill="#aaaaff"/>
  <rect id="cc14d330f13d4c9fa04dd28248976aac-ao-20" height="45.91837" width="165.30613" y="841.04089" x="769.1225" stroke="#2D2D2D" fill="#aaaaff"/>
  <rect id="cc14d330f13d4c9fa04dd28248976aac-ao-21" height="48.97959" width="121.42857" y="910.42864" x="770.14291" stroke="#2D2D2D" fill="#aaaaff"/>
  <rect id="cc14d330f13d4c9fa04dd28248976aac-ao-22" height="56.12245" width="172.44898" y="975.73477" x="769.1225" stroke="#2D2D2D" fill="#aaaaff"/>
  <rect id="cc14d330f13d4c9fa04dd28248976aac-ao-23" height="48.97959" width="154.08164" y="1046.14293" x="769.1225" stroke="#2D2D2D" fill="#aaaaff"/>
  <rect id="cc14d330f13d4c9fa04dd28248976aac-ao-24" height="48.97959" width="121.42857" y="1114.51028" x="773.20413" stroke="#2D2D2D" fill="#aaaaff"/>
  <rect id="cc14d330f13d4c9fa04dd28248976aac-ao-25" height="53.06123" width="139.79592" y="1194.10212" x="767.08168" stroke="#2D2D2D" fill="#aaaaff"/>
  <rect id="cc14d330f13d4c9fa04dd28248976aac-ao-26" height="48.97959" width="110.20408" y="1262.46947" x="771.16331" stroke="#2D2D2D" fill="#aaaaff"/>
  <rect id="cc14d330f13d4c9fa04dd28248976aac-ao-27" height="58.16327" width="141.83674" y="1325.73478" x="765.04087" stroke="#2D2D2D" fill="#FF7E7E" class="qshape"/>
  <rect id="cc14d330f13d4c9fa04dd28248976aac-ao-28" height="47.95919" width="150" y="1430.83682" x="241.57146" stroke="#2D2D2D" fill="#aaaaff"/>
  <rect id="cc14d330f13d4c9fa04dd28248976aac-ao-29" height="47.95919" width="142.85715" y="1363.48988" x="226.26534" stroke="#2D2D2D" fill="#aaaaff"/>
  <rect id="cc14d330f13d4c9fa04dd28248976aac-ao-30" height="43.87755" width="88.77551" y="1299.20416" x="242.59187" stroke="#2D2D2D" fill="#aaaaff"/>
  <rect id="cc14d330f13d4c9fa04dd28248976aac-ao-31" height="47.95919" width="133.67347" y="1239.00008" x="182.38779" stroke="#2D2D2D" fill="#aaaaff"/>
  <rect id="cc14d330f13d4c9fa04dd28248976aac-ao-32" height="46.93878" width="136.7347" y="1173.69396" x="118.10207" stroke="#2D2D2D" fill="#aaaaff"/>
  <rect id="cc14d330f13d4c9fa04dd28248976aac-ao-33" height="33.67347" width="158.16327" y="1123.69395" x="69.12248" stroke="#2D2D2D" fill="#aaaaff"/>
  <rect id="cc14d330f13d4c9fa04dd28248976aac-ao-34" height="91.83674" width="126.53062" y="1015.53069" x="63.00003" stroke="#2D2D2D" fill="#aaaaff"/>
 </g>
</svg>