<svg xmlns="http://www.w3.org/2000/svg" width="2057" height="1262">
 <!-- Created with Image Occlusion Enhanced -->
 <g>
  <title>Labels</title>
 </g>
 <g>
  <title>Masks</title>
  <rect id="cea0a7b34b9e41d892df6b6818b2c52c-ao-1" height="54.31035" width="124.13793" y="132.61209" x="472.31027" stroke="#2D2D2D" fill="#FFEBA2"/>
  <rect id="cea0a7b34b9e41d892df6b6818b2c52c-ao-2" height="54.31035" width="126.07759" y="130.67243" x="802.05165" stroke="#2D2D2D" fill="#FFEBA2"/>
  <rect id="cea0a7b34b9e41d892df6b6818b2c52c-ao-3" height="64.00862" width="73.7069" y="119.0345" x="1135.67234" stroke="#2D2D2D" fill="#FFEBA2"/>
  <rect id="cea0a7b34b9e41d892df6b6818b2c52c-ao-4" height="56.25" width="128.01724" y="283.90519" x="491.70682" stroke="#2D2D2D" fill="#FFEBA2"/>
  <rect id="cea0a7b34b9e41d892df6b6818b2c52c-ao-5" height="25.21552" width="73.7069" y="293.60347" x="827.26717" stroke="#2D2D2D" fill="#FFEBA2"/>
  <rect id="cea0a7b34b9e41d892df6b6818b2c52c-ao-6" height="34.91379" width="114.43966" y="289.72416" x="1081.362" stroke="#2D2D2D" fill="#FFEBA2"/>
  
  <rect id="cea0a7b34b9e41d892df6b6818b2c52c-ao-8" height="40.73276" width="65.94828" y="214.0776" x="831.14648" stroke="#2D2D2D" fill="#FFEBA2"/>
  <rect id="cea0a7b34b9e41d892df6b6818b2c52c-ao-9" height="44.61207" width="46.55172" y="206.31898" x="1133.73269" stroke="#2D2D2D" fill="#FFEBA2"/>
  <rect id="cea0a7b34b9e41d892df6b6818b2c52c-ao-10" height="44.61207" width="46.55172" y="355.67241" x="511.10349" stroke="#2D2D2D" fill="#FFEBA2"/>
  <rect id="cea0a7b34b9e41d892df6b6818b2c52c-ao-11" height="44.61207" width="46.55172" y="355.67241" x="835.02588" stroke="#2D2D2D" fill="#FFEBA2"/>
  <rect id="cea0a7b34b9e41d892df6b6818b2c52c-ao-12" height="44.61207" width="46.55172" y="347.91379" x="1131.79313" stroke="#2D2D2D" fill="#FFEBA2"/>
  <rect id="cea0a7b34b9e41d892df6b6818b2c52c-ao-13" height="44.61207" width="46.55172" y="427.43965" x="514.98276" stroke="#2D2D2D" fill="#FFEBA2"/>
  <rect id="cea0a7b34b9e41d892df6b6818b2c52c-ao-14" height="44.61207" width="46.55172" y="421.62068" x="836.96554" stroke="#2D2D2D" fill="#FFEBA2"/>
  <rect id="cea0a7b34b9e41d892df6b6818b2c52c-ao-15" height="44.61207" width="46.55172" y="425.49998" x="1131.79313" stroke="#2D2D2D" fill="#FFEBA2"/>
  <rect id="cea0a7b34b9e41d892df6b6818b2c52c-ao-16" height="44.61207" width="46.55172" y="493.38792" x="522.74137" stroke="#2D2D2D" fill="#FFEBA2"/>
  <rect id="cea0a7b34b9e41d892df6b6818b2c52c-ao-17" height="44.61207" width="46.55172" y="506.96551" x="835.02588" stroke="#2D2D2D" fill="#FFEBA2"/>
  <rect id="cea0a7b34b9e41d892df6b6818b2c52c-ao-18" height="44.61207" width="46.55172" y="495.32757" x="1131.79313" stroke="#2D2D2D" fill="#FFEBA2"/>
  <rect id="cea0a7b34b9e41d892df6b6818b2c52c-ao-19" height="44.61207" width="46.55172" y="572.91378" x="507.22416" stroke="#2D2D2D" fill="#FFEBA2"/>
  <rect id="cea0a7b34b9e41d892df6b6818b2c52c-ao-20" height="44.61207" width="46.55172" y="576.79309" x="836.96554" stroke="#2D2D2D" fill="#FFEBA2"/>
  <rect id="cea0a7b34b9e41d892df6b6818b2c52c-ao-21" height="44.61207" width="46.55172" y="570.97413" x="1127.91382" stroke="#2D2D2D" fill="#FFEBA2"/>
  <rect id="cea0a7b34b9e41d892df6b6818b2c52c-ao-22" height="44.61207" width="46.55172" y="648.56033" x="516.9224" stroke="#2D2D2D" fill="#FFEBA2"/>
  <rect id="cea0a7b34b9e41d892df6b6818b2c52c-ao-23" height="44.61207" width="46.55172" y="648.56033" x="833.08623" stroke="#2D2D2D" fill="#FFEBA2"/>
  <rect id="cea0a7b34b9e41d892df6b6818b2c52c-ao-24" height="44.61207" width="46.55172" y="652.43965" x="1127.91382" stroke="#2D2D2D" fill="#FFEBA2"/>
  <rect id="cea0a7b34b9e41d892df6b6818b2c52c-ao-25" height="44.61207" width="46.55172" y="726.14654" x="1127.91382" stroke="#2D2D2D" fill="#FFEBA2"/>
  <rect id="cea0a7b34b9e41d892df6b6818b2c52c-ao-26" height="44.61207" width="46.55172" y="720.32757" x="836.96554" stroke="#2D2D2D" fill="#FFEBA2"/>
  <rect id="cea0a7b34b9e41d892df6b6818b2c52c-ao-27" height="44.61207" width="46.55172" y="718.38792" x="514.98276" stroke="#2D2D2D" fill="#FFEBA2"/>
  <rect id="cea0a7b34b9e41d892df6b6818b2c52c-ao-28" height="44.61207" width="46.55172" y="792.09482" x="511.10349" stroke="#2D2D2D" fill="#FFEBA2"/>
  <rect id="cea0a7b34b9e41d892df6b6818b2c52c-ao-29" height="44.61207" width="46.55172" y="792.09482" x="844.72416" stroke="#2D2D2D" fill="#FFEBA2"/>
  <rect id="cea0a7b34b9e41d892df6b6818b2c52c-ao-30" height="44.61207" width="46.55172" y="794.03448" x="1131.79313" stroke="#2D2D2D" fill="#FFEBA2"/>
  <rect id="cea0a7b34b9e41d892df6b6818b2c52c-ao-31" height="44.61207" width="46.55172" y="871.62068" x="518.8621" stroke="#2D2D2D" fill="#FFEBA2"/>
  <rect id="cea0a7b34b9e41d892df6b6818b2c52c-ao-32" height="44.61207" width="46.55172" y="869.68101" x="840.84484" stroke="#2D2D2D" fill="#FFEBA2"/>
  <rect id="cea0a7b34b9e41d892df6b6818b2c52c-ao-33" height="44.61207" width="46.55172" y="865.80171" x="1133.73278" stroke="#2D2D2D" fill="#FFEBA2"/>
  <rect stroke="#2D2D2D" id="cea0a7b34b9e41d892df6b6818b2c52c-ao-34" height="44.61207" width="46.55172" y="937.56895" x="520.80173" fill="#FFEBA2"/>
  <rect id="cea0a7b34b9e41d892df6b6818b2c52c-ao-35" height="44.61207" width="46.55172" y="935.62932" x="831.14657" stroke="#2D2D2D" fill="#FFEBA2"/>
  <rect id="cea0a7b34b9e41d892df6b6818b2c52c-ao-36" height="44.61207" width="46.55172" y="939.50862" x="1127.91382" stroke="#2D2D2D" fill="#FFEBA2"/>
  <rect id="cea0a7b34b9e41d892df6b6818b2c52c-ao-37" height="44.61207" width="46.55172" y="1005.45689" x="1141.4914" stroke="#2D2D2D" fill="#FFEBA2"/>
  <rect id="cea0a7b34b9e41d892df6b6818b2c52c-ao-38" height="44.61207" width="46.55172" y="1005.45689" x="840.84484" stroke="#2D2D2D" fill="#FFEBA2"/>
  <rect id="cea0a7b34b9e41d892df6b6818b2c52c-ao-39" height="44.61207" width="46.55172" y="993.81895" x="518.8621" stroke="#2D2D2D" fill="#FFEBA2"/>
  <rect id="cea0a7b34b9e41d892df6b6818b2c52c-ao-40" height="44.61207" width="46.55172" y="1090.80171" x="514.98276" stroke="#2D2D2D" fill="#FFEBA2"/>
  <rect id="cea0a7b34b9e41d892df6b6818b2c52c-ao-41" height="44.61207" width="46.55172" y="1084.98274" x="829.20692" stroke="#2D2D2D" fill="#FFEBA2"/>
  <rect id="cea0a7b34b9e41d892df6b6818b2c52c-ao-42" height="44.61207" width="46.55172" y="1088.86207" x="1137.61209" stroke="#2D2D2D" fill="#FFEBA2"/>
 </g>
</svg>