<?xml version="1.0" encoding="UTF-8" standalone="no"?>
<!-- Generator: Adobe Illustrator 12.0.1, SVG Export Plug-In . SVG Version: 6.00 Build 51448)  -->
<svg
   xmlns:dc="http://purl.org/dc/elements/1.1/"
   xmlns:cc="http://web.resource.org/cc/"
   xmlns:rdf="http://www.w3.org/1999/02/22-rdf-syntax-ns#"
   xmlns:svg="http://www.w3.org/2000/svg"
   xmlns="http://www.w3.org/2000/svg"
   xmlns:sodipodi="http://sodipodi.sourceforge.net/DTD/sodipodi-0.dtd"
   xmlns:inkscape="http://www.inkscape.org/namespaces/inkscape"
   version="1.1"
   id="Layer_1"
   width="845.021"
   height="343.284"
   viewBox="0 0 845.021 343.284"
   style="overflow:visible;enable-background:new 0 0 845.021 343.284;"
   xml:space="preserve"
   sodipodi:version="0.32"
   inkscape:version="0.45.1"
   sodipodi:docname="Coenzym A.svg"
   inkscape:output_extension="org.inkscape.output.svg.inkscape"
   sodipodi:docbase="C:\"><metadata
   id="metadata290"><rdf:RDF><cc:Work
       rdf:about=""><dc:format>image/svg+xml</dc:format><dc:type
         rdf:resource="http://purl.org/dc/dcmitype/StillImage" /></cc:Work></rdf:RDF></metadata><defs
   id="defs288" /><sodipodi:namedview
   inkscape:window-height="579"
   inkscape:window-width="801"
   inkscape:pageshadow="2"
   inkscape:pageopacity="0.0"
   guidetolerance="10.0"
   gridtolerance="10.0"
   objecttolerance="10.0"
   borderopacity="1.0"
   bordercolor="#666666"
   pagecolor="#ffffff"
   id="base"
   inkscape:zoom="0.84849963"
   inkscape:cx="422.5105"
   inkscape:cy="171.642"
   inkscape:window-x="22"
   inkscape:window-y="22"
   inkscape:current-layer="Layer_1" />
<path
   d="M 173.70695,114.30478 L 173.70695,112.45228 L 206.38695,131.31072 L 206.38695,133.16228 L 173.70695,114.30478 z "
   id="polygon3" />
<path
   d="M 206.38695,133.16228 L 206.38695,131.31072 L 239.01945,112.45228 L 239.01945,114.30478 L 206.38695,133.16228 z "
   id="polygon5" />
<g
   id="g7"
   transform="matrix(0.95,0,0,0.95,21.12555,8.582125)">
	<path
   d="M 256.94,139.587 L 256.94,122.399 L 259.28,122.399 L 268.284,135.888 L 268.284,122.399 L 270.472,122.399 L 270.472,139.587 L 268.132,139.587 L 259.128,126.098 L 259.128,139.587 L 256.94,139.587 L 256.94,139.587 z "
   id="path9" />
</g>
<g
   id="g11"
   transform="matrix(0.95,0,0,0.95,21.12555,8.582125)">
	<path
   d="M 257.05,159.537 L 257.05,142.35 L 259.331,142.35 L 259.331,149.413 L 268.222,149.413 L 268.222,142.35 L 270.503,142.35 L 270.503,159.538 L 268.222,159.538 L 268.222,151.444 L 259.331,151.444 L 259.331,159.538 L 257.05,159.538 L 257.05,159.537 z "
   id="path13" />
</g>
<path
   d="M 239.01945,114.30478 L 239.01945,112.45228 L 262.29445,125.89478 L 261.48695,127.27323 L 239.01945,114.30478 z "
   id="polygon15" />
<path
   d="M 281.8179,127.31978 L 281.00945,125.89478 L 304.33195,112.45228 L 304.33195,114.30478 L 281.8179,127.31978 z "
   id="polygon17" />
<path
   d="M 304.33195,114.30478 L 304.33195,112.45228 L 336.96445,131.31072 L 336.96445,132.21228 L 336.10945,132.63978 L 304.33195,114.30478 z "
   id="polygon19" />
<path
   d="M 337.8204,132.63978 L 336.96445,132.21228 L 336.96445,131.31072 L 368.9804,112.78573 L 369.6454,113.35478 L 369.6454,114.30478 L 337.8204,132.63978 z "
   id="polygon21" />
<path
   d="M 369.6454,114.30478 L 369.6454,113.35478 L 370.78445,113.11728 L 402.27695,131.31072 L 402.27695,133.16228 L 369.6454,114.30478 z "
   id="polygon23" />
<g
   id="g25"
   transform="matrix(0.95,0,0,0.95,21.12555,8.582125)">
	<path
   d="M 427.369,111.372 C 427.369,108.519 428.135,106.287 429.667,104.674 C 431.199,103.06 433.177,102.253 435.6,102.253 C 437.187,102.253 438.618,102.632 439.891,103.39 C 441.164,104.149 442.136,105.205 442.805,106.561 C 443.473,107.916 443.807,109.455 443.807,111.173 C 443.807,112.916 443.455,114.475 442.752,115.85 C 442.048,117.225 441.051,118.267 439.762,118.974 C 438.472,119.681 437.08,120.035 435.588,120.035 C 433.97,120.035 432.524,119.644 431.25,118.863 C 429.976,118.082 429.011,117.014 428.354,115.663 C 427.697,114.311 427.369,112.881 427.369,111.372 z M 429.712,111.401 C 429.712,113.471 430.269,115.102 431.383,116.294 C 432.497,117.486 433.895,118.081 435.575,118.081 C 437.287,118.081 438.696,117.479 439.803,116.276 C 440.91,115.073 441.462,113.366 441.462,111.155 C 441.462,109.757 441.226,108.536 440.753,107.493 C 440.279,106.45 439.587,105.641 438.677,105.067 C 437.767,104.493 436.744,104.206 435.611,104.206 C 434.001,104.206 432.615,104.759 431.454,105.864 C 430.293,106.969 429.712,108.815 429.712,111.401 z "
   id="path27" />
</g>
<path
   d="M 402.27695,133.16228 L 402.27695,131.31072 L 425.2679,118.01073 L 426.07445,119.43573 L 402.27695,133.16228 z "
   id="polygon29" />
<g
   id="g31"
   transform="matrix(0.95,0,0,0.95,21.12555,8.582125)">
	<path
   d="M 392.156,79.359 L 394.437,79.933 C 393.961,81.803 393.104,83.229 391.868,84.21 C 390.631,85.191 389.118,85.683 387.331,85.683 C 385.481,85.683 383.977,85.306 382.818,84.551 C 381.659,83.797 380.777,82.703 380.172,81.273 C 379.567,79.842 379.265,78.305 379.265,76.664 C 379.265,74.874 379.606,73.311 380.289,71.978 C 380.972,70.645 381.943,69.631 383.204,68.94 C 384.464,68.249 385.85,67.902 387.364,67.902 C 389.081,67.902 390.524,68.34 391.694,69.216 C 392.865,70.093 393.68,71.324 394.14,72.913 L 391.906,73.44 C 391.508,72.19 390.931,71.28 390.175,70.71 C 389.418,70.14 388.466,69.855 387.32,69.855 C 386.002,69.855 384.9,70.171 384.014,70.804 C 383.129,71.437 382.507,72.286 382.148,73.353 C 381.789,74.42 381.61,75.519 381.61,76.652 C 381.61,78.113 381.822,79.388 382.247,80.478 C 382.672,81.568 383.332,82.382 384.229,82.921 C 385.126,83.46 386.096,83.73 387.141,83.73 C 388.412,83.73 389.487,83.363 390.368,82.628 C 391.249,81.893 391.844,80.805 392.156,79.359 z "
   id="path33" />
	<path
   d="M 397.332,85.387 L 397.332,68.199 L 399.613,68.199 L 399.613,75.262 L 408.504,75.262 L 408.504,68.199 L 410.785,68.199 L 410.785,85.387 L 408.504,85.387 L 408.504,77.293 L 399.613,77.293 L 399.613,85.387 L 397.332,85.387 z "
   id="path35" />
</g>
<g
   id="g37"
   transform="matrix(0.95,0,0,0.95,21.12555,8.582125)">
	<path
   d="M 412.382,86.48 L 413.96,86.261 C 414.143,87.157 414.452,87.803 414.888,88.199 C 415.325,88.594 415.86,88.792 416.495,88.792 C 417.248,88.792 417.881,88.534 418.394,88.02 C 418.907,87.504 419.163,86.866 419.163,86.104 C 419.163,85.378 418.925,84.78 418.447,84.308 C 417.97,83.836 417.364,83.601 416.628,83.601 C 416.327,83.601 415.953,83.66 415.506,83.777 L 415.683,82.386 C 415.789,82.398 415.874,82.404 415.939,82.404 C 416.613,82.404 417.22,82.229 417.76,81.878 C 418.3,81.527 418.57,80.986 418.57,80.255 C 418.57,79.676 418.373,79.196 417.979,78.817 C 417.585,78.437 417.077,78.247 416.454,78.247 C 415.837,78.247 415.322,78.441 414.911,78.829 C 414.5,79.217 414.235,79.799 414.118,80.575 L 412.54,80.294 C 412.733,79.232 413.174,78.409 413.86,77.826 C 414.546,77.242 415.4,76.95 416.421,76.95 C 417.125,76.95 417.774,77.1 418.366,77.402 C 418.958,77.703 419.411,78.114 419.726,78.634 C 420.039,79.155 420.197,79.707 420.197,80.292 C 420.197,80.848 420.048,81.354 419.749,81.81 C 419.45,82.266 419.008,82.628 418.422,82.898 C 419.184,83.074 419.776,83.439 420.201,83.992 C 420.625,84.547 420.838,85.239 420.838,86.071 C 420.838,87.197 420.427,88.15 419.605,88.932 C 418.783,89.714 417.744,90.106 416.488,90.106 C 415.355,90.106 414.414,89.769 413.666,89.097 C 412.915,88.423 412.488,87.552 412.382,86.48 z "
   id="path39" />
</g>
<path
   d="M 379.76195,88.512275 L 386.0804,92.123225 L 370.78445,113.11728 L 369.6454,113.35478 L 368.9804,112.78573 L 379.76195,88.512275 z "
   id="polygon41" />
<g
   id="g43"
   transform="matrix(0.95,0,0,0.95,21.12555,8.582125)">
	<path
   d="M 311.975,85.387 L 311.975,68.199 L 314.256,68.199 L 314.256,75.262 L 323.147,75.262 L 323.147,68.199 L 325.428,68.199 L 325.428,85.387 L 323.147,85.387 L 323.147,77.293 L 314.256,77.293 L 314.256,85.387 L 311.975,85.387 z "
   id="path45" />
</g>
<g
   id="g47"
   transform="matrix(0.95,0,0,0.95,21.12555,8.582125)">
	<path
   d="M 327.437,86.48 L 329.015,86.261 C 329.198,87.157 329.507,87.803 329.943,88.199 C 330.38,88.594 330.915,88.792 331.55,88.792 C 332.303,88.792 332.936,88.534 333.449,88.02 C 333.962,87.504 334.218,86.866 334.218,86.104 C 334.218,85.378 333.98,84.78 333.502,84.308 C 333.025,83.836 332.419,83.601 331.683,83.601 C 331.382,83.601 331.008,83.66 330.561,83.777 L 330.738,82.386 C 330.844,82.398 330.929,82.404 330.994,82.404 C 331.668,82.404 332.275,82.229 332.815,81.878 C 333.355,81.527 333.625,80.986 333.625,80.255 C 333.625,79.676 333.428,79.196 333.034,78.817 C 332.64,78.437 332.132,78.247 331.509,78.247 C 330.892,78.247 330.377,78.441 329.966,78.829 C 329.555,79.217 329.29,79.799 329.173,80.575 L 327.595,80.294 C 327.788,79.232 328.229,78.409 328.915,77.826 C 329.601,77.242 330.455,76.95 331.476,76.95 C 332.18,76.95 332.829,77.1 333.421,77.402 C 334.013,77.703 334.466,78.114 334.781,78.634 C 335.094,79.155 335.252,79.707 335.252,80.292 C 335.252,80.848 335.103,81.354 334.804,81.81 C 334.505,82.266 334.063,82.628 333.477,82.898 C 334.239,83.074 334.831,83.439 335.256,83.992 C 335.68,84.547 335.893,85.239 335.893,86.071 C 335.893,87.197 335.482,88.15 334.66,88.932 C 333.838,89.714 332.799,90.106 331.543,90.106 C 330.41,90.106 329.469,89.769 328.721,89.097 C 327.969,88.423 327.542,87.552 327.437,86.48 z "
   id="path49" />
</g>
<g
   id="g51"
   transform="matrix(0.95,0,0,0.95,21.12555,8.582125)">
	<path
   d="M 350.014,79.359 L 352.295,79.933 C 351.819,81.803 350.962,83.229 349.726,84.21 C 348.489,85.191 346.976,85.683 345.189,85.683 C 343.339,85.683 341.835,85.306 340.676,84.551 C 339.517,83.797 338.635,82.703 338.03,81.273 C 337.425,79.842 337.123,78.305 337.123,76.664 C 337.123,74.874 337.464,73.311 338.147,71.978 C 338.83,70.645 339.801,69.631 341.062,68.94 C 342.322,68.249 343.708,67.902 345.222,67.902 C 346.939,67.902 348.382,68.34 349.552,69.216 C 350.723,70.093 351.538,71.324 351.998,72.913 L 349.764,73.44 C 349.366,72.19 348.789,71.28 348.033,70.71 C 347.276,70.14 346.324,69.855 345.178,69.855 C 343.86,69.855 342.758,70.171 341.872,70.804 C 340.987,71.437 340.365,72.286 340.006,73.353 C 339.647,74.42 339.468,75.519 339.468,76.652 C 339.468,78.113 339.68,79.388 340.105,80.478 C 340.53,81.568 341.19,82.382 342.087,82.921 C 342.984,83.46 343.954,83.73 344.999,83.73 C 346.27,83.73 347.345,83.363 348.226,82.628 C 349.107,81.893 349.702,80.805 350.014,79.359 z "
   id="path53" />
</g>
<path
   d="M 353.35195,92.454775 L 359.6704,88.844775 L 360.28695,90.364775 L 354.34945,93.785725 L 353.35195,92.454775 z "
   id="polygon55" />
<path
   d="M 355.8704,95.779775 L 361.23695,92.644775 L 361.90195,94.164775 L 356.8679,97.062275 L 355.8704,95.779775 z "
   id="polygon57" />
<path
   d="M 358.38695,99.057275 L 362.85195,96.492275 L 363.4704,98.012275 L 359.38445,100.38728 L 358.38695,99.057275 z "
   id="polygon59" />
<path
   d="M 360.9054,102.38228 L 364.4679,100.29228 L 365.08445,101.81228 L 361.90195,103.66478 L 360.9054,102.38228 z "
   id="polygon61" />
<path
   d="M 363.42195,105.66073 L 366.0829,104.13978 L 366.69945,105.66073 L 364.37195,106.98978 L 363.42195,105.66073 z "
   id="polygon63" />
<path
   d="M 365.93945,108.98573 L 367.64945,107.98728 L 368.31445,109.46073 L 366.88945,110.26728 L 365.93945,108.98573 z "
   id="polygon65" />
<g
   id="g67"
   transform="matrix(0.95,0,0,0.95,21.12555,8.582125)">
	<path
   d="M 324.269,170.922 C 324.269,168.069 325.035,165.837 326.567,164.224 C 328.099,162.61 330.077,161.803 332.5,161.803 C 334.087,161.803 335.517,162.182 336.791,162.94 C 338.065,163.699 339.036,164.755 339.705,166.111 C 340.374,167.467 340.707,169.005 340.707,170.723 C 340.707,172.466 340.355,174.025 339.652,175.4 C 338.949,176.775 337.952,177.817 336.662,178.524 C 335.372,179.231 333.981,179.585 332.488,179.585 C 330.87,179.585 329.424,179.194 328.15,178.413 C 326.876,177.632 325.911,176.564 325.254,175.213 C 324.597,173.862 324.269,172.431 324.269,170.922 z M 326.612,170.951 C 326.612,173.021 327.169,174.652 328.283,175.844 C 329.397,177.036 330.795,177.631 332.475,177.631 C 334.187,177.631 335.596,177.029 336.703,175.826 C 337.809,174.623 338.362,172.916 338.362,170.705 C 338.362,169.307 338.126,168.086 337.653,167.043 C 337.18,166 336.488,165.191 335.577,164.617 C 334.666,164.043 333.644,163.756 332.511,163.756 C 330.901,163.756 329.515,164.309 328.354,165.414 C 327.193,166.519 326.612,168.365 326.612,170.951 z "
   id="path69" />
	<path
   d="M 343.718,179.287 L 343.718,162.1 L 345.999,162.1 L 345.999,169.163 L 354.89,169.163 L 354.89,162.1 L 357.171,162.1 L 357.171,179.288 L 354.89,179.288 L 354.89,171.194 L 345.999,171.194 L 345.999,179.288 L 343.718,179.288 L 343.718,179.287 z "
   id="path71" />
</g>
<path
   d="M 340.62195,160.14228 L 333.3554,160.14228 L 336.10945,132.63978 L 336.96445,132.21228 L 337.8204,132.63978 L 340.62195,160.14228 z "
   id="polygon73" />
<g
   id="g75"
   transform="matrix(0.95,0,0,0.95,21.12555,8.582125)">
	<path
   d="M 289.869,71.722 C 289.869,68.869 290.635,66.637 292.167,65.024 C 293.699,63.41 295.677,62.603 298.1,62.603 C 299.687,62.603 301.117,62.982 302.391,63.74 C 303.665,64.499 304.636,65.555 305.305,66.911 C 305.974,68.267 306.307,69.805 306.307,71.523 C 306.307,73.266 305.955,74.825 305.252,76.2 C 304.549,77.575 303.552,78.617 302.262,79.324 C 300.972,80.031 299.581,80.385 298.088,80.385 C 296.47,80.385 295.024,79.994 293.75,79.213 C 292.476,78.432 291.511,77.364 290.854,76.013 C 290.197,74.662 289.869,73.23 289.869,71.722 z M 292.212,71.751 C 292.212,73.821 292.769,75.452 293.883,76.644 C 294.997,77.836 296.395,78.431 298.075,78.431 C 299.787,78.431 301.196,77.829 302.303,76.626 C 303.409,75.423 303.962,73.716 303.962,71.505 C 303.962,70.107 303.726,68.886 303.253,67.843 C 302.78,66.8 302.088,65.991 301.177,65.417 C 300.266,64.843 299.244,64.556 298.111,64.556 C 296.501,64.556 295.115,65.109 293.954,66.214 C 292.793,67.319 292.212,69.165 292.212,71.751 z "
   id="path77" />
</g>
<path
   d="M 300.67444,87.087276 L 302.28944,87.087276 L 302.28944,115.01728 L 300.67444,115.01728 L 300.67444,87.087276 z "
   id="rect79" />
<path
   d="M 306.32696,87.087276 L 307.94196,87.087276 L 307.94196,115.01728 L 306.32696,115.01728 L 306.32696,87.087276 z "
   id="rect81" />
<g
   id="g83"
   transform="matrix(0.95,0,0,0.95,21.12555,8.582125)">
	<path
   d="M 468.671,119.737 L 468.671,102.55 L 475.15,102.55 C 476.291,102.55 477.162,102.605 477.763,102.714 C 478.607,102.855 479.313,103.123 479.883,103.518 C 480.452,103.913 480.911,104.466 481.259,105.177 C 481.607,105.889 481.78,106.67 481.78,107.523 C 481.78,108.985 481.316,110.222 480.387,111.235 C 479.458,112.248 477.78,112.754 475.354,112.754 L 470.952,112.754 L 470.952,119.738 L 468.671,119.738 L 468.671,119.737 z M 470.953,110.722 L 475.389,110.722 C 476.856,110.722 477.897,110.449 478.514,109.902 C 479.129,109.355 479.438,108.586 479.438,107.593 C 479.438,106.874 479.256,106.259 478.895,105.747 C 478.532,105.235 478.053,104.897 477.461,104.733 C 477.078,104.631 476.371,104.581 475.342,104.581 L 470.953,104.581 L 470.953,110.722 L 470.953,110.722 z "
   id="path85" />
</g>
<path
   d="M 444.93291,112.54823 L 464.21791,112.54823 L 464.21791,114.16228 L 444.93291,114.16228 L 444.93291,112.54823 z "
   id="rect87" />
<g
   id="g89"
   transform="matrix(0.95,0,0,0.95,21.12555,8.582125)">
	<path
   d="M 467.019,71.722 C 467.019,68.869 467.785,66.637 469.316,65.024 C 470.849,63.41 472.826,62.603 475.25,62.603 C 476.836,62.603 478.267,62.982 479.541,63.74 C 480.814,64.499 481.785,65.555 482.454,66.911 C 483.123,68.267 483.457,69.805 483.457,71.523 C 483.457,73.266 483.105,74.825 482.401,76.2 C 481.697,77.575 480.701,78.617 479.412,79.324 C 478.121,80.031 476.73,80.385 475.238,80.385 C 473.619,80.385 472.174,79.994 470.9,79.213 C 469.625,78.432 468.66,77.364 468.004,76.013 C 467.348,74.662 467.019,73.23 467.019,71.722 z M 469.363,71.751 C 469.363,73.821 469.92,75.452 471.033,76.644 C 472.148,77.835 473.545,78.431 475.226,78.431 C 476.937,78.431 478.347,77.829 479.453,76.626 C 480.559,75.423 481.113,73.716 481.113,71.505 C 481.113,70.107 480.877,68.886 480.403,67.843 C 479.929,66.8 479.238,65.991 478.328,65.417 C 477.417,64.843 476.394,64.556 475.262,64.556 C 473.651,64.556 472.266,65.109 471.104,66.214 C 469.943,67.319 469.363,69.165 469.363,71.751 z "
   id="path91" />
</g>
<path
   d="M 468.96789,87.087276 L 470.58289,87.087276 L 470.58289,103.85478 L 468.96789,103.85478 L 468.96789,87.087276 z "
   id="rect93" />
<path
   d="M 474.62041,87.087276 L 476.28291,87.087276 L 476.28291,103.85478 L 474.62041,103.85478 L 474.62041,87.087276 z "
   id="rect95" />
<g
   id="g97"
   transform="matrix(0.95,0,0,0.95,21.12555,8.582125)">
	<path
   d="M 467.019,151.072 C 467.019,148.219 467.785,145.987 469.316,144.374 C 470.849,142.76 472.826,141.953 475.25,141.953 C 476.836,141.953 478.267,142.332 479.541,143.09 C 480.814,143.849 481.785,144.905 482.454,146.261 C 483.123,147.617 483.457,149.155 483.457,150.873 C 483.457,152.616 483.105,154.175 482.401,155.55 C 481.697,156.925 480.701,157.967 479.412,158.674 C 478.121,159.381 476.73,159.735 475.238,159.735 C 473.619,159.735 472.174,159.344 470.9,158.563 C 469.625,157.782 468.66,156.714 468.004,155.363 C 467.348,154.012 467.019,152.581 467.019,151.072 z M 469.363,151.102 C 469.363,153.172 469.92,154.803 471.033,155.995 C 472.148,157.186 473.545,157.782 475.226,157.782 C 476.937,157.782 478.347,157.18 479.453,155.977 C 480.559,154.774 481.113,153.067 481.113,150.856 C 481.113,149.458 480.877,148.237 480.403,147.194 C 479.929,146.151 479.238,145.342 478.328,144.768 C 477.417,144.194 476.394,143.907 475.262,143.907 C 473.651,143.907 472.266,144.46 471.104,145.565 C 469.943,146.67 469.363,148.516 469.363,151.102 z "
   id="path99" />
</g>
<path
   d="M 471.81789,124.51728 L 473.43289,124.51728 L 473.43289,141.28478 L 471.81789,141.28478 L 471.81789,124.51728 z "
   id="rect101" />
<path
   d="M 481.08039,112.54823 L 500.31789,112.54823 L 500.31789,114.16228 L 481.08039,114.16228 L 481.08039,112.54823 z "
   id="rect103" />
<path
   style="fill:none;stroke:#000000;stroke-width:1.35000002"
   d="M 478.98946,141.71227 L 486.58946,141.71227"
   id="line105" />
<g
   id="g107"
   transform="matrix(0.95,0,0,0.95,21.12555,8.582125)">
	<path
   d="M 152.418,71.722 C 152.418,68.869 153.184,66.637 154.716,65.024 C 156.248,63.41 158.226,62.603 160.649,62.603 C 162.236,62.603 163.666,62.982 164.94,63.74 C 166.214,64.499 167.185,65.555 167.854,66.911 C 168.523,68.267 168.856,69.805 168.856,71.523 C 168.856,73.266 168.504,74.825 167.801,76.2 C 167.098,77.575 166.101,78.617 164.811,79.324 C 163.521,80.031 162.13,80.385 160.637,80.385 C 159.019,80.385 157.573,79.994 156.299,79.213 C 155.025,78.432 154.06,77.364 153.403,76.013 C 152.746,74.662 152.418,73.23 152.418,71.722 z M 154.762,71.751 C 154.762,73.821 155.319,75.452 156.433,76.644 C 157.547,77.836 158.945,78.431 160.625,78.431 C 162.337,78.431 163.746,77.829 164.853,76.626 C 165.959,75.423 166.512,73.716 166.512,71.505 C 166.512,70.107 166.276,68.886 165.803,67.843 C 165.33,66.8 164.638,65.991 163.727,65.417 C 162.816,64.843 161.794,64.556 160.661,64.556 C 159.051,64.556 157.665,65.109 156.504,66.214 C 155.343,67.319 154.762,69.165 154.762,71.751 z "
   id="path109" />
</g>
<path
   d="M 170.09695,87.087276 L 171.71195,87.087276 L 171.71195,115.01728 L 170.09695,115.01728 L 170.09695,87.087276 z "
   id="rect111" />
<path
   d="M 175.74944,87.087276 L 177.36444,87.087276 L 177.36444,115.01728 L 175.74944,115.01728 L 175.74944,87.087276 z "
   id="rect113" />
<g
   id="g115"
   transform="matrix(0.95,0,0,0.95,21.12555,8.582125)">
	<path
   d="M 119.49,139.587 L 119.49,122.399 L 121.83,122.399 L 130.834,135.888 L 130.834,122.399 L 133.022,122.399 L 133.022,139.587 L 130.682,139.587 L 121.678,126.098 L 121.678,139.587 L 119.49,139.587 L 119.49,139.587 z "
   id="path117" />
</g>
<g
   id="g119"
   transform="matrix(0.95,0,0,0.95,21.12555,8.582125)">
	<path
   d="M 119.6,159.537 L 119.6,142.35 L 121.881,142.35 L 121.881,149.413 L 130.772,149.413 L 130.772,142.35 L 133.053,142.35 L 133.053,159.538 L 130.772,159.538 L 130.772,151.444 L 121.881,151.444 L 121.881,159.538 L 119.6,159.538 L 119.6,159.537 z "
   id="path121" />
</g>
<path
   d="M 151.23945,127.27323 L 150.43195,125.89478 L 173.70695,112.45228 L 173.70695,114.30478 L 151.23945,127.27323 z "
   id="polygon123" />
<path
   d="M 108.48945,114.30478 L 108.48945,112.45228 L 131.7179,125.84823 L 130.90945,127.27323 L 108.48945,114.30478 z "
   id="polygon125" />
<path
   d="M 75.85695,133.11478 L 75.85695,131.26228 L 108.48945,112.45228 L 108.48945,114.30478 L 75.85695,133.11478 z "
   id="polygon127" />
<g
   id="g129"
   transform="matrix(0.95,0,0,0.95,21.12555,8.582125)">
	<path
   d="M 0,119.737 L 0,102.55 L 2.281,102.55 L 2.281,109.613 L 11.172,109.613 L 11.172,102.55 L 13.453,102.55 L 13.453,119.738 L 11.172,119.738 L 11.172,111.644 L 2.281,111.644 L 2.281,119.738 L 0,119.738 L 0,119.737 z "
   id="path131" />
	<path
   d="M 16.488,114.222 L 18.629,114.034 C 18.731,114.895 18.967,115.601 19.338,116.153 C 19.709,116.705 20.286,117.152 21.067,117.492 C 21.848,117.833 22.728,118.003 23.705,118.003 C 24.573,118.003 25.339,117.874 26.003,117.615 C 26.667,117.357 27.162,117.003 27.486,116.552 C 27.81,116.102 27.972,115.611 27.972,115.078 C 27.972,114.538 27.814,114.066 27.497,113.663 C 27.18,113.261 26.662,112.922 25.943,112.647 C 25.482,112.467 24.461,112.187 22.881,111.807 C 21.301,111.428 20.195,111.07 19.563,110.734 C 18.743,110.303 18.132,109.77 17.73,109.132 C 17.328,108.494 17.127,107.781 17.127,106.99 C 17.127,106.123 17.373,105.311 17.866,104.556 C 18.358,103.801 19.078,103.228 20.024,102.837 C 20.97,102.445 22.022,102.25 23.179,102.25 C 24.453,102.25 25.577,102.456 26.551,102.866 C 27.525,103.277 28.274,103.882 28.797,104.679 C 29.321,105.477 29.603,106.381 29.642,107.39 L 27.454,107.562 C 27.337,106.469 26.939,105.645 26.264,105.086 C 25.587,104.528 24.588,104.249 23.267,104.249 C 21.891,104.249 20.887,104.502 20.258,105.007 C 19.628,105.512 19.314,106.12 19.314,106.832 C 19.314,107.451 19.537,107.96 19.983,108.358 C 20.421,108.757 21.564,109.167 23.414,109.586 C 25.264,110.005 26.533,110.371 27.222,110.684 C 28.224,111.145 28.964,111.729 29.442,112.437 C 29.92,113.145 30.159,113.959 30.159,114.882 C 30.159,115.797 29.897,116.658 29.374,117.468 C 28.851,118.278 28.099,118.906 27.119,119.356 C 26.139,119.806 25.035,120.031 23.809,120.031 C 22.254,120.031 20.952,119.804 19.902,119.351 C 18.851,118.898 18.027,118.216 17.43,117.306 C 16.834,116.399 16.52,115.37 16.488,114.222 z "
   id="path133" />
</g>
<path
   d="M 51.96445,119.33978 L 52.7729,117.96228 L 75.85695,131.26228 L 75.85695,133.11478 L 51.96445,119.33978 z "
   id="polygon135" />
<path
   d="M 689.0829,209.92322 L 691.83695,212.34478 L 691.0304,214.76728 L 643.62445,214.76728 L 642.8179,212.34478 L 645.57195,209.92322 L 689.0829,209.92322 z "
   id="polygon137" />
<path
   d="M 617.49945,170.11728 L 618.3079,169.92728 L 619.49445,170.21228 L 645.57195,209.92322 L 642.8179,212.34478 L 642.00945,218.80478 L 617.49945,170.11728 z "
   id="polygon139" />
<path
   d="M 715.15945,170.21228 L 716.34695,169.92728 L 717.1554,170.11728 L 692.6454,218.80478 L 691.83695,212.34478 L 689.0829,209.92322 L 715.15945,170.21228 z "
   id="polygon141" />
<path
   d="M 657.11445,149.45478 L 657.82695,150.87978 L 619.49445,170.21228 L 618.3079,169.92728 L 619.11445,168.59822 L 657.11445,149.45478 z "
   id="polygon143" />
<g
   id="g145"
   transform="matrix(0.95,0,0,0.95,21.12555,8.582125)">
	<path
   d="M 671.568,145.122 C 671.568,142.269 672.334,140.037 673.867,138.424 C 675.398,136.81 677.377,136.003 679.799,136.003 C 681.387,136.003 682.817,136.382 684.09,137.14 C 685.364,137.899 686.336,138.955 687.004,140.311 C 687.672,141.667 688.006,143.205 688.006,144.923 C 688.006,146.666 687.654,148.225 686.951,149.6 C 686.248,150.975 685.251,152.017 683.961,152.724 C 682.672,153.431 681.28,153.785 679.787,153.785 C 678.17,153.785 676.723,153.394 675.449,152.613 C 674.175,151.832 673.211,150.764 672.553,149.413 C 671.895,148.062 671.568,146.631 671.568,145.122 z M 673.912,145.151 C 673.912,147.221 674.469,148.852 675.584,150.044 C 676.697,151.235 678.096,151.831 679.775,151.831 C 681.488,151.831 682.896,151.229 684.004,150.026 C 685.109,148.823 685.662,147.116 685.662,144.905 C 685.662,143.507 685.426,142.286 684.953,141.243 C 684.48,140.2 683.788,139.391 682.877,138.817 C 681.967,138.243 680.945,137.956 679.811,137.956 C 678.202,137.956 676.815,138.509 675.655,139.614 C 674.492,140.72 673.912,142.565 673.912,145.151 z "
   id="path147" />
</g>
<path
   d="M 676.16195,150.87978 L 676.87445,149.40728 L 715.53945,168.59822 L 716.34695,169.92728 L 715.15945,170.21228 L 676.16195,150.87978 z "
   id="polygon149" />
<path
   d="M 617.49945,132.68728 L 619.11445,131.73728 L 619.11445,168.59822 L 618.3079,169.92728 L 617.49945,170.11728 L 617.49945,132.68728 z "
   id="polygon151" />
<g
   id="g153"
   transform="matrix(0.95,0,0,0.95,21.12555,8.582125)">
	<path
   d="M 697.769,255.271 C 697.769,252.418 698.535,250.186 700.066,248.573 C 701.599,246.959 703.576,246.152 706,246.152 C 707.586,246.152 709.017,246.531 710.291,247.289 C 711.564,248.048 712.535,249.104 713.204,250.46 C 713.873,251.816 714.207,253.354 714.207,255.072 C 714.207,256.815 713.855,258.374 713.151,259.749 C 712.447,261.124 711.451,262.166 710.162,262.873 C 708.871,263.58 707.48,263.934 705.988,263.934 C 704.369,263.934 702.924,263.543 701.65,262.762 C 700.375,261.981 699.41,260.913 698.754,259.562 C 698.098,258.211 697.769,256.78 697.769,255.271 z M 700.113,255.301 C 700.113,257.371 700.67,259.002 701.783,260.194 C 702.898,261.385 704.295,261.981 705.976,261.981 C 707.687,261.981 709.097,261.379 710.203,260.176 C 711.309,258.973 711.863,257.266 711.863,255.055 C 711.863,253.657 711.627,252.436 711.153,251.393 C 710.679,250.35 709.988,249.541 709.078,248.967 C 708.167,248.393 707.144,248.106 706.012,248.106 C 704.401,248.106 703.016,248.659 701.854,249.764 C 700.693,250.869 700.113,252.715 700.113,255.301 z "
   id="path155" />
	<path
   d="M 717.218,263.637 L 717.218,246.449 L 719.499,246.449 L 719.499,253.512 L 728.39,253.512 L 728.39,246.449 L 730.671,246.449 L 730.671,263.637 L 728.39,263.637 L 728.39,255.543 L 719.5,255.543 L 719.5,263.637 L 717.218,263.637 z "
   id="path157" />
</g>
<path
   d="M 692.6454,240.22727 L 691.0304,240.22727 L 691.0304,214.76728 L 691.83695,212.34478 L 692.6454,218.80478 L 692.6454,240.22727 z "
   id="polygon159" />
<path
   d="M 715.53945,132.97323 L 717.1554,132.97323 L 717.1554,170.11728 L 716.34695,169.92728 L 715.53945,168.59822 L 715.53945,132.97323 z "
   id="polygon161" />
<g
   id="g163"
   transform="matrix(0.95,0,0,0.95,21.12555,8.582125)">
	<path
   d="M 646.218,255.271 C 646.218,252.418 646.984,250.186 648.517,248.573 C 650.048,246.959 652.027,246.152 654.449,246.152 C 656.037,246.152 657.467,246.531 658.74,247.289 C 660.014,248.048 660.986,249.104 661.654,250.46 C 662.322,251.816 662.656,253.354 662.656,255.072 C 662.656,256.815 662.304,258.374 661.601,259.749 C 660.898,261.124 659.901,262.166 658.611,262.873 C 657.322,263.58 655.93,263.934 654.437,263.934 C 652.82,263.934 651.373,263.543 650.099,262.762 C 648.825,261.981 647.861,260.913 647.203,259.562 C 646.545,258.211 646.218,256.78 646.218,255.271 z M 648.562,255.301 C 648.562,257.371 649.119,259.002 650.234,260.194 C 651.347,261.385 652.746,261.981 654.425,261.981 C 656.138,261.981 657.546,261.379 658.654,260.176 C 659.759,258.973 660.312,257.266 660.312,255.055 C 660.312,253.657 660.076,252.436 659.603,251.393 C 659.13,250.35 658.438,249.541 657.527,248.967 C 656.617,248.393 655.595,248.106 654.461,248.106 C 652.852,248.106 651.465,248.659 650.305,249.764 C 649.142,250.869 648.562,252.715 648.562,255.301 z "
   id="path165" />
</g>
<path
   d="M 643.62445,240.22727 L 642.00945,240.22727 L 642.00945,218.80478 L 642.8179,212.34478 L 643.62445,214.76728 L 643.62445,240.22727 z "
   id="polygon167" />
<g
   id="g169"
   transform="matrix(0.95,0,0,0.95,21.12555,8.582125)">
	<path
   d="M 724.99,64.438 L 724.99,47.25 L 727.33,47.25 L 736.334,60.739 L 736.334,47.25 L 738.522,47.25 L 738.522,64.438 L 736.182,64.438 L 727.178,50.949 L 727.178,64.438 L 724.99,64.438 z "
   id="path171" />
</g>
<g
   id="g173"
   transform="matrix(0.95,0,0,0.95,21.12555,8.582125)">
	<path
   d="M 724.99,128.637 L 724.99,111.449 L 727.33,111.449 L 736.334,124.938 L 736.334,111.449 L 738.522,111.449 L 738.522,128.637 L 736.182,128.637 L 727.178,115.148 L 727.178,128.637 L 724.99,128.637 z "
   id="path175" />
</g>
<path
   d="M 751.40195,73.074775 L 752.20945,72.457275 L 753.0179,72.932275 L 753.0179,109.69823 L 752.20945,110.17323 L 751.40195,109.60228 L 751.40195,73.074775 z "
   id="polygon177" />
<path
   d="M 757.05542,75.734771 L 758.67042,75.734771 L 758.67042,106.89478 L 757.05542,106.89478 L 757.05542,75.734771 z "
   id="rect179" />
<path
   d="M 725.51445,64.667275 L 726.03695,63.099775 L 752.11445,71.602275 L 752.20945,72.457275 L 751.40195,73.074775 L 725.51445,64.667275 z "
   id="polygon181" />
<path
   d="M 695.16195,91.314775 L 693.1679,91.314775 L 707.8929,71.032275 L 709.22195,71.982275 L 695.16195,91.314775 z "
   id="polygon183" />
<path
   d="M 701.81195,91.789775 L 700.5304,90.839775 L 712.49945,74.357275 L 713.7829,75.307275 L 701.81195,91.789775 z "
   id="polygon185" />
<path
   d="M 709.9829,111.69228 L 708.65195,112.64228 L 693.1679,91.314775 L 695.16195,91.314775 L 709.9829,111.69228 z "
   id="polygon187" />
<path
   d="M 751.40195,109.60228 L 752.20945,110.17323 L 752.11445,111.02728 L 726.03695,119.52978 L 725.51445,118.01073 L 751.40195,109.60228 z "
   id="polygon189" />
<g
   id="g191"
   transform="matrix(0.95,0,0,0.95,21.12555,8.582125)">
	<path
   d="M 797.09,136.237 L 797.09,119.05 L 799.43,119.05 L 808.434,132.539 L 808.434,119.05 L 810.622,119.05 L 810.622,136.238 L 808.282,136.238 L 799.278,122.749 L 799.278,136.238 L 797.09,136.238 L 797.09,136.237 z "
   id="path193" />
</g>
<g
   id="g195"
   transform="matrix(0.95,0,0,0.95,21.12555,8.582125)">
	<path
   d="M 831.49,76.688 L 831.49,59.5 L 833.83,59.5 L 842.834,72.989 L 842.834,59.5 L 845.022,59.5 L 845.022,76.688 L 842.682,76.688 L 833.678,63.199 L 833.678,76.688 L 831.49,76.688 z "
   id="path197" />
</g>
<path
   d="M 775.43695,122.66478 L 774.6304,124.04228 L 752.11445,111.02728 L 752.20945,110.17323 L 753.0179,109.69823 L 775.43695,122.66478 z "
   id="polygon199" />
<path
   d="M 816.6679,109.69823 L 818.2829,110.64823 L 795.0554,124.04228 L 794.24695,122.66478 L 816.6679,109.69823 z "
   id="polygon201" />
<path
   d="M 811.4429,106.18228 L 812.24945,107.60728 L 792.25195,119.14978 L 791.4454,117.77323 L 811.4429,106.18228 z "
   id="polygon203" />
<path
   d="M 816.6679,83.619775 L 818.2829,83.619775 L 818.2829,110.64823 L 816.6679,109.69823 L 816.6679,83.619775 z "
   id="polygon205" />
<path
   d="M 784.8429,54.549775 L 784.8429,53.599775 L 785.64945,53.172275 L 808.0704,66.092275 L 807.26195,67.517275 L 784.8429,54.549775 z "
   id="polygon207" />
<path
   d="M 784.41445,60.867275 L 785.22195,59.442275 L 805.2679,70.984775 L 804.45945,72.409775 L 784.41445,60.867275 z "
   id="polygon209" />
<path
   d="M 753.0179,72.932275 L 752.20945,72.457275 L 752.11445,71.602275 L 784.03445,53.172275 L 784.8429,53.599775 L 784.8429,54.549775 L 753.0179,72.932275 z "
   id="polygon211" />
<g
   id="g213"
   transform="matrix(0.95,0,0,0.95,21.12555,8.582125)">
	<path
   d="M 797.09,17.188 L 797.09,0 L 799.43,0 L 808.434,13.489 L 808.434,0 L 810.622,0 L 810.622,17.188 L 808.282,17.188 L 799.278,3.699 L 799.278,17.188 L 797.09,17.188 z "
   id="path215" />
	<path
   d="M 814.532,17.188 L 814.532,0 L 816.813,0 L 816.813,7.063 L 825.704,7.063 L 825.704,0 L 827.985,0 L 827.985,17.188 L 825.704,17.188 L 825.704,9.094 L 816.813,9.094 L 816.813,17.188 L 814.532,17.188 z "
   id="path217" />
</g>
<g
   id="g219"
   transform="matrix(0.95,0,0,0.95,21.12555,8.582125)">
	<path
   d="M 838.767,20.172 L 838.767,21.688 L 830.236,21.688 C 830.224,21.307 830.285,20.941 830.422,20.589 C 830.64,20.009 830.988,19.438 831.47,18.876 C 831.95,18.314 832.641,17.665 833.539,16.929 C 834.935,15.776 835.882,14.865 836.379,14.195 C 836.877,13.525 837.127,12.89 837.127,12.292 C 837.127,11.666 836.901,11.139 836.451,10.708 C 836.001,10.278 835.414,10.063 834.691,10.063 C 833.925,10.063 833.314,10.292 832.855,10.751 C 832.396,11.21 832.164,11.845 832.158,12.656 L 830.533,12.484 C 830.644,11.268 831.064,10.342 831.793,9.706 C 832.521,9.068 833.498,8.75 834.727,8.75 C 835.965,8.75 836.946,9.093 837.668,9.779 C 838.391,10.465 838.752,11.315 838.752,12.329 C 838.752,12.845 838.646,13.352 838.434,13.85 C 838.223,14.348 837.871,14.873 837.381,15.424 C 836.891,15.975 836.077,16.731 834.942,17.692 C 833.991,18.49 833.379,19.03 833.108,19.315 C 832.837,19.598 832.612,19.884 832.436,20.171 L 838.767,20.171 L 838.767,20.172 z "
   id="path221" />
</g>
<path
   d="M 784.03445,27.094775 L 785.64945,27.094775 L 785.64945,53.172275 L 784.8429,53.599775 L 784.03445,53.172275 L 784.03445,27.094775 z "
   id="polygon223" />
<g
   id="g225"
   transform="matrix(0.95,0,0,0.95,21.12555,8.582125)">
	<path
   d="M 586.069,111.372 C 586.069,108.519 586.835,106.287 588.367,104.674 C 589.899,103.06 591.877,102.253 594.3,102.253 C 595.887,102.253 597.317,102.632 598.591,103.39 C 599.865,104.149 600.836,105.205 601.504,106.561 C 602.173,107.916 602.507,109.455 602.507,111.173 C 602.507,112.916 602.155,114.475 601.451,115.85 C 600.748,117.225 599.752,118.267 598.462,118.974 C 597.172,119.681 595.781,120.035 594.288,120.035 C 592.67,120.035 591.224,119.644 589.95,118.863 C 588.676,118.082 587.711,117.014 587.054,115.663 C 586.397,114.311 586.069,112.881 586.069,111.372 z M 588.413,111.401 C 588.413,113.471 588.97,115.102 590.084,116.294 C 591.198,117.486 592.596,118.081 594.276,118.081 C 595.988,118.081 597.397,117.479 598.504,116.276 C 599.609,115.073 600.163,113.366 600.163,111.155 C 600.163,109.757 599.927,108.536 599.453,107.493 C 598.98,106.45 598.289,105.641 597.378,105.067 C 596.467,104.493 595.445,104.206 594.312,104.206 C 592.702,104.206 591.316,104.759 590.155,105.864 C 588.994,106.969 588.413,108.815 588.413,111.401 z "
   id="path227" />
</g>
<path
   d="M 594.6054,119.48228 L 595.41195,118.05728 L 619.11445,131.73728 L 617.49945,132.68728 L 594.6054,119.48228 z "
   id="polygon229" />
<g
   id="g231"
   transform="matrix(0.95,0,0,0.95,21.12555,8.582125)">
	<path
   d="M 548.021,119.737 L 548.021,102.55 L 554.5,102.55 C 555.641,102.55 556.512,102.605 557.113,102.714 C 557.957,102.855 558.663,103.123 559.233,103.518 C 559.802,103.913 560.261,104.466 560.609,105.177 C 560.957,105.889 561.13,106.67 561.13,107.523 C 561.13,108.985 560.666,110.222 559.737,111.235 C 558.808,112.248 557.13,112.754 554.704,112.754 L 550.302,112.754 L 550.302,119.738 L 548.021,119.738 L 548.021,119.737 z M 550.302,110.722 L 554.738,110.722 C 556.205,110.722 557.246,110.449 557.863,109.902 C 558.478,109.355 558.787,108.586 558.787,107.593 C 558.787,106.874 558.605,106.259 558.244,105.747 C 557.881,105.235 557.402,104.897 556.81,104.733 C 556.427,104.631 555.72,104.581 554.691,104.581 L 550.302,104.581 L 550.302,110.722 z "
   id="path233" />
</g>
<path
   d="M 556.41443,112.54823 L 575.74693,112.54823 L 575.74693,114.16228 L 556.41443,114.16228 L 556.41443,112.54823 z "
   id="rect235" />
<g
   id="g237"
   transform="matrix(0.95,0,0,0.95,21.12555,8.582125)">
	<path
   d="M 506.668,111.372 C 506.668,108.519 507.434,106.287 508.966,104.674 C 510.498,103.06 512.476,102.253 514.899,102.253 C 516.486,102.253 517.916,102.632 519.19,103.39 C 520.464,104.149 521.435,105.205 522.103,106.561 C 522.772,107.916 523.106,109.455 523.106,111.173 C 523.106,112.916 522.754,114.475 522.05,115.85 C 521.347,117.225 520.351,118.267 519.061,118.974 C 517.771,119.681 516.38,120.035 514.887,120.035 C 513.269,120.035 511.823,119.644 510.549,118.863 C 509.275,118.082 508.31,117.014 507.653,115.663 C 506.997,114.311 506.668,112.881 506.668,111.372 z M 509.012,111.401 C 509.012,113.471 509.569,115.102 510.683,116.294 C 511.797,117.486 513.195,118.081 514.875,118.081 C 516.587,118.081 517.996,117.479 519.103,116.276 C 520.208,115.073 520.762,113.366 520.762,111.155 C 520.762,109.757 520.526,108.536 520.052,107.493 C 519.579,106.45 518.888,105.641 517.977,105.067 C 517.066,104.493 516.044,104.206 514.911,104.206 C 513.301,104.206 511.915,104.759 510.754,105.864 C 509.593,106.969 509.012,108.815 509.012,111.401 z "
   id="path239" />
</g>
<path
   d="M 520.31443,112.54823 L 539.59942,112.54823 L 539.59942,114.16228 L 520.31443,114.16228 L 520.31443,112.54823 z "
   id="rect241" />
<g
   id="g243"
   transform="matrix(0.95,0,0,0.95,21.12555,8.582125)">
	<path
   d="M 546.369,71.722 C 546.369,68.869 547.135,66.637 548.667,65.024 C 550.199,63.41 552.177,62.603 554.6,62.603 C 556.187,62.603 557.618,62.982 558.891,63.74 C 560.164,64.499 561.136,65.555 561.805,66.911 C 562.473,68.266 562.807,69.805 562.807,71.523 C 562.807,73.266 562.455,74.825 561.752,76.2 C 561.048,77.575 560.051,78.617 558.762,79.324 C 557.472,80.031 556.08,80.385 554.588,80.385 C 552.97,80.385 551.524,79.994 550.25,79.213 C 548.976,78.432 548.011,77.364 547.354,76.013 C 546.697,74.66 546.369,73.23 546.369,71.722 z M 548.712,71.751 C 548.712,73.821 549.269,75.452 550.383,76.644 C 551.497,77.836 552.895,78.431 554.575,78.431 C 556.287,78.431 557.696,77.829 558.803,76.626 C 559.91,75.423 560.462,73.716 560.462,71.505 C 560.462,70.107 560.226,68.886 559.753,67.843 C 559.279,66.8 558.587,65.991 557.677,65.417 C 556.767,64.843 555.744,64.556 554.611,64.556 C 553.001,64.556 551.615,65.109 550.454,66.214 C 549.293,67.319 548.712,69.165 548.712,71.751 z "
   id="path245" />
</g>
<path
   d="M 544.34947,87.135729 L 545.96447,87.135729 L 545.96447,103.85573 L 544.34947,103.85573 L 544.34947,87.135729 z "
   id="rect247" />
<path
   d="M 550.00193,87.135729 L 551.61693,87.135729 L 551.61693,103.85573 L 550.00193,103.85573 L 550.00193,87.135729 z "
   id="rect249" />
<g
   id="g251"
   transform="matrix(0.95,0,0,0.95,21.12555,8.582125)">
	<path
   d="M 546.369,151.021 C 546.369,148.168 547.135,145.936 548.667,144.323 C 550.199,142.709 552.177,141.902 554.6,141.902 C 556.187,141.902 557.618,142.281 558.891,143.039 C 560.164,143.798 561.136,144.854 561.805,146.21 C 562.473,147.565 562.807,149.104 562.807,150.822 C 562.807,152.565 562.455,154.124 561.752,155.499 C 561.048,156.874 560.051,157.916 558.762,158.623 C 557.472,159.33 556.08,159.684 554.588,159.684 C 552.97,159.684 551.524,159.293 550.25,158.512 C 548.976,157.731 548.011,156.663 547.354,155.312 C 546.697,153.96 546.369,152.53 546.369,151.021 z M 548.712,151.051 C 548.712,153.121 549.269,154.752 550.383,155.944 C 551.497,157.136 552.895,157.731 554.575,157.731 C 556.287,157.731 557.696,157.129 558.803,155.926 C 559.91,154.723 560.462,153.016 560.462,150.805 C 560.462,149.407 560.226,148.186 559.753,147.143 C 559.279,146.1 558.587,145.291 557.677,144.717 C 556.767,144.143 555.744,143.856 554.611,143.856 C 553.001,143.856 551.615,144.409 550.454,145.514 C 549.293,146.619 548.712,148.465 548.712,151.051 z "
   id="path253" />
</g>
<path
   d="M 547.19947,124.51728 L 548.81447,124.51728 L 548.81447,141.23728 L 547.19947,141.23728 L 547.19947,124.51728 z "
   id="rect255" />
<path
   style="fill:none;stroke:#000000;stroke-width:1.35000002"
   d="M 554.75193,141.71227 L 562.35193,141.71227"
   id="line257" />
<g
   id="g259"
   transform="matrix(0.95,0,0,0.95,21.12555,8.582125)">
	<path
   d="M 647.822,303.337 L 647.822,286.149 L 654.301,286.149 C 655.442,286.149 656.312,286.204 656.913,286.313 C 657.757,286.454 658.463,286.722 659.033,287.117 C 659.603,287.512 660.062,288.065 660.41,288.776 C 660.758,289.488 660.931,290.269 660.931,291.122 C 660.931,292.584 660.466,293.821 659.538,294.834 C 658.608,295.847 656.931,296.353 654.504,296.353 L 650.103,296.353 L 650.103,303.337 L 647.822,303.337 L 647.822,303.337 z M 650.103,294.321 L 654.539,294.321 C 656.006,294.321 657.047,294.048 657.663,293.501 C 658.279,292.954 658.588,292.185 658.588,291.192 C 658.588,290.473 658.406,289.858 658.044,289.346 C 657.681,288.834 657.203,288.496 656.61,288.332 C 656.227,288.23 655.521,288.18 654.492,288.18 L 650.103,288.18 L 650.103,294.321 z "
   id="path261" />
</g>
<path
   d="M 642.00946,261.46072 L 643.62446,261.46072 L 643.62446,278.22727 L 642.00946,278.22727 L 642.00946,261.46072 z "
   id="rect263" />
<g
   id="g265"
   transform="matrix(0.95,0,0,0.95,21.12555,8.582125)">
	<path
   d="M 646.218,334.622 C 646.218,331.769 646.984,329.537 648.517,327.924 C 650.048,326.31 652.027,325.503 654.449,325.503 C 656.037,325.503 657.467,325.882 658.74,326.64 C 660.014,327.399 660.986,328.455 661.654,329.811 C 662.322,331.167 662.656,332.705 662.656,334.423 C 662.656,336.166 662.304,337.725 661.601,339.1 C 660.898,340.475 659.901,341.517 658.611,342.224 C 657.322,342.931 655.93,343.285 654.437,343.285 C 652.82,343.285 651.373,342.894 650.099,342.113 C 648.825,341.332 647.861,340.264 647.203,338.913 C 646.545,337.562 646.218,336.131 646.218,334.622 z M 648.562,334.651 C 648.562,336.721 649.119,338.352 650.234,339.544 C 651.347,340.735 652.746,341.331 654.425,341.331 C 656.138,341.331 657.546,340.729 658.654,339.526 C 659.759,338.323 660.312,336.616 660.312,334.405 C 660.312,333.007 660.076,331.786 659.603,330.743 C 659.13,329.7 658.438,328.891 657.527,328.317 C 656.617,327.743 655.595,327.456 654.461,327.456 C 652.852,327.456 651.465,328.009 650.305,329.114 C 649.142,330.22 648.562,332.065 648.562,334.651 z "
   id="path267" />
</g>
<path
   d="M 642.00946,298.88978 L 643.62446,298.88978 L 643.62446,315.65728 L 642.00946,315.65728 L 642.00946,298.88978 z "
   id="rect269" />
<g
   id="g271"
   transform="matrix(0.95,0,0,0.95,21.12555,8.582125)">
	<path
   d="M 685.869,294.972 C 685.869,292.119 686.635,289.887 688.167,288.274 C 689.699,286.66 691.677,285.853 694.1,285.853 C 695.687,285.853 697.118,286.232 698.391,286.99 C 699.664,287.749 700.636,288.805 701.305,290.161 C 701.973,291.516 702.307,293.055 702.307,294.773 C 702.307,296.516 701.955,298.075 701.252,299.45 C 700.548,300.825 699.551,301.867 698.262,302.574 C 696.972,303.281 695.58,303.635 694.088,303.635 C 692.47,303.635 691.024,303.244 689.75,302.463 C 688.476,301.682 687.511,300.614 686.854,299.263 C 686.197,297.91 685.869,296.48 685.869,294.972 z M 688.212,295.001 C 688.212,297.071 688.769,298.702 689.883,299.894 C 690.997,301.086 692.395,301.681 694.075,301.681 C 695.787,301.681 697.196,301.079 698.303,299.876 C 699.41,298.673 699.962,296.966 699.962,294.755 C 699.962,293.357 699.726,292.136 699.253,291.093 C 698.779,290.05 698.087,289.241 697.177,288.667 C 696.267,288.093 695.244,287.806 694.111,287.806 C 692.501,287.806 691.115,288.359 689.954,289.464 C 688.793,290.569 688.212,292.415 688.212,295.001 z "
   id="path273" />
</g>
<path
   d="M 651.27196,286.96727 L 670.50946,286.96727 L 670.50946,288.58227 L 651.27196,288.58227 L 651.27196,286.96727 z "
   id="rect275" />
<g
   id="g277"
   transform="matrix(0.95,0,0,0.95,21.12555,8.582125)">
	<path
   d="M 606.568,294.972 C 606.568,292.119 607.334,289.887 608.867,288.274 C 610.398,286.66 612.377,285.853 614.799,285.853 C 616.387,285.853 617.817,286.232 619.09,286.99 C 620.364,287.749 621.336,288.805 622.004,290.161 C 622.672,291.517 623.006,293.055 623.006,294.773 C 623.006,296.516 622.654,298.075 621.951,299.45 C 621.248,300.825 620.251,301.867 618.961,302.574 C 617.672,303.281 616.28,303.635 614.787,303.635 C 613.17,303.635 611.723,303.244 610.449,302.463 C 609.175,301.682 608.211,300.614 607.553,299.263 C 606.895,297.912 606.568,296.48 606.568,294.972 z M 608.912,295.001 C 608.912,297.071 609.469,298.702 610.584,299.894 C 611.697,301.085 613.096,301.681 614.775,301.681 C 616.488,301.681 617.896,301.079 619.004,299.876 C 620.109,298.673 620.662,296.966 620.662,294.755 C 620.662,293.357 620.426,292.136 619.953,291.093 C 619.48,290.05 618.788,289.241 617.877,288.667 C 616.967,288.093 615.945,287.806 614.811,287.806 C 613.202,287.806 611.815,288.359 610.655,289.464 C 609.492,290.569 608.912,292.415 608.912,295.001 z "
   id="path279" />
</g>
<path
   d="M 615.17196,289.76977 L 634.40946,289.76977 L 634.40946,291.38477 L 615.17196,291.38477 L 615.17196,289.76977 z "
   id="rect281" />
<path
   d="M 615.17196,284.11727 L 634.40946,284.11727 L 634.40946,285.73227 L 615.17196,285.73227 L 615.17196,284.11727 z "
   id="rect283" />
<path
   style="fill:none;stroke:#000000;stroke-width:1.35000002"
   d="M 686.9929,278.93978 L 694.5929,278.93978 M 649.37195,315.89477 L 656.97195,315.89477"
   id="path285" />
</svg>