<svg width="132.487" height="262.644" xmlns="http://www.w3.org/2000/svg">
 <metadata id="metadata112">image/svg+xml</metadata>

 <g>
  <title>background</title>
  <rect x="-1" y="-1" width="134.487" height="264.644" id="canvas_background" fill="#ffffff"/>
 </g>
 <g>
  <title>Layer 1</title>
  <g id="g3" transform="matrix(0.95,0,0,0.95,3.312175,6.56615) ">
   <path d="m69.807,13.797l2.281,0.574c-0.476,1.87 -1.333,3.296 -2.569,4.277c-1.237,0.982 -2.75,1.473 -4.537,1.473c-1.85,0 -3.354,-0.377 -4.513,-1.132c-1.159,-0.755 -2.041,-1.847 -2.646,-3.278c-0.605,-1.431 -0.907,-2.967 -0.907,-4.609c0,-1.791 0.341,-3.353 1.024,-4.686c0.683,-1.334 1.654,-2.346 2.915,-3.038c1.26,-0.692 2.646,-1.038 4.16,-1.038c1.717,0 3.16,0.438 4.33,1.314c1.171,0.877 1.986,2.109 2.446,3.697l-2.234,0.527c-0.398,-1.25 -0.975,-2.16 -1.731,-2.73c-0.757,-0.57 -1.709,-0.855 -2.855,-0.855c-1.318,0 -2.42,0.316 -3.306,0.949c-0.885,0.633 -1.507,1.482 -1.866,2.549c-0.359,1.067 -0.539,2.167 -0.539,3.299c0,1.461 0.212,2.736 0.637,3.826c0.425,1.09 1.085,1.904 1.982,2.443c0.897,0.539 1.867,0.809 2.912,0.809c1.271,0 2.346,-0.367 3.227,-1.102c0.881,-0.735 1.477,-1.823 1.789,-3.269z" id="path5"/>
   <path d="m74.201,11.459c0,-2.852 0.766,-5.085 2.298,-6.699c1.532,-1.613 3.51,-2.42 5.933,-2.42c1.587,0 3.017,0.379 4.291,1.137c1.274,0.758 2.245,1.815 2.913,3.171c0.669,1.356 1.003,2.894 1.003,4.612c0,1.742 -0.352,3.302 -1.056,4.677c-0.703,1.376 -1.699,2.417 -2.989,3.124c-1.29,0.707 -2.681,1.061 -4.174,1.061c-1.618,0 -3.064,-0.391 -4.338,-1.172c-1.274,-0.781 -2.239,-1.848 -2.896,-3.2c-0.657,-1.352 -0.985,-2.783 -0.985,-4.291zm2.344,0.03c0,2.07 0.557,3.701 1.671,4.893c1.114,1.192 2.512,1.787 4.192,1.787c1.712,0 3.121,-0.602 4.228,-1.805c1.105,-1.203 1.659,-2.91 1.659,-5.121c0,-1.398 -0.236,-2.619 -0.71,-3.662c-0.473,-1.043 -1.164,-1.852 -2.075,-2.426c-0.911,-0.574 -1.933,-0.861 -3.066,-0.861c-1.61,0 -2.996,0.553 -4.157,1.658c-1.161,1.105 -1.742,2.951 -1.742,5.537z" id="path7"/>
   <path d="m92.869,11.459c0,-2.852 0.766,-5.085 2.298,-6.699c1.532,-1.613 3.51,-2.42 5.933,-2.42c1.587,0 3.017,0.379 4.291,1.137c1.274,0.758 2.245,1.815 2.913,3.171c0.669,1.356 1.003,2.894 1.003,4.612c0,1.742 -0.352,3.302 -1.056,4.677c-0.703,1.376 -1.699,2.417 -2.989,3.124c-1.29,0.707 -2.681,1.061 -4.174,1.061c-1.618,0 -3.064,-0.391 -4.338,-1.172c-1.274,-0.781 -2.239,-1.848 -2.896,-3.2c-0.657,-1.352 -0.985,-2.783 -0.985,-4.291zm2.344,0.03c0,2.07 0.557,3.701 1.671,4.893c1.114,1.192 2.512,1.787 4.192,1.787c1.712,0 3.121,-0.602 4.228,-1.805c1.105,-1.203 1.659,-2.91 1.659,-5.121c0,-1.398 -0.236,-2.619 -0.71,-3.662c-0.473,-1.043 -1.164,-1.852 -2.075,-2.426c-0.911,-0.574 -1.933,-0.861 -3.066,-0.861c-1.61,0 -2.996,0.553 -4.157,1.658c-1.161,1.105 -1.742,2.951 -1.742,5.537z" id="path9"/>
  </g>
  <path d="m65.21703,53.3299l-0.8075,0.8075l-0.80751,-0.8075l0,-25.555l1.61501,0l0,25.555z" id="polygon11"/>
  <path d="m65.21703,91.0449l-0.8075,0.8075l-0.80751,-0.8075l0,-36.1l0.80751,-0.8075l0.8075,0.8075l0,36.1z" id="polygon13"/>
  <path d="m65.21703,128.7124l-0.8075,0.8075l-0.80751,-0.8075l0,-36.0525l0.80751,-0.8075l0.8075,0.8075l0,36.0525z" id="polygon15"/>
  <path d="m65.21703,166.4274l-0.8075,0.8075l-0.80751,-0.8075l0,-36.1l0.80751,-0.8075l0.8075,0.8075l0,36.1z" id="polygon17"/>
  <g id="g19" transform="matrix(0.95,0,0,0.95,3.312175,6.56615) ">
   <path d="m95.819,51.16c0,-2.852 0.766,-5.085 2.297,-6.699c1.533,-1.613 3.51,-2.42 5.934,-2.42c1.586,0 3.017,0.379 4.291,1.137c1.273,0.758 2.244,1.815 2.913,3.171c0.669,1.356 1.003,2.894 1.003,4.612c0,1.742 -0.352,3.302 -1.056,4.677c-0.704,1.376 -1.7,2.417 -2.989,3.124c-1.291,0.707 -2.682,1.061 -4.174,1.061c-1.619,0 -3.064,-0.391 -4.338,-1.172c-1.275,-0.781 -2.24,-1.848 -2.896,-3.2c-0.657,-1.353 -0.985,-2.784 -0.985,-4.291zm2.344,0.029c0,2.07 0.557,3.701 1.67,4.893c1.115,1.191 2.512,1.787 4.193,1.787c1.711,0 3.121,-0.602 4.227,-1.805c1.106,-1.203 1.66,-2.91 1.66,-5.121c0,-1.398 -0.236,-2.619 -0.71,-3.662c-0.474,-1.043 -1.165,-1.852 -2.075,-2.426c-0.911,-0.574 -1.934,-0.861 -3.066,-0.861c-1.611,0 -2.996,0.553 -4.158,1.658c-1.161,1.105 -1.741,2.951 -1.741,5.537z" id="path21"/>
   <path d="m115.269,59.525l0,-17.188l2.281,0l0,7.063l8.891,0l0,-7.063l2.281,0l0,17.188l-2.281,0l0,-8.094l-8.891,0l0,8.094l-2.281,0l0,0z" id="path23"/>
  </g>
  <path d="m92.14952,53.3299l0,1.615l-26.93249,0l-0.8075,-0.8075l0.8075,-0.8075l26.93249,0z" id="polygon25"/>
  <g id="g27" transform="matrix(0.95,0,0,0.95,3.312175,6.56615) ">
   <path d="m0,99.225l0,-17.187l2.281,0l0,7.062l8.891,0l0,-7.063l2.281,0l0,17.188l-2.281,0l0,-8.094l-8.891,0l0,8.094l-2.281,0z" id="path29"/>
   <path d="m16.551,90.86c0,-2.852 0.766,-5.085 2.298,-6.699c1.532,-1.613 3.51,-2.42 5.933,-2.42c1.587,0 3.017,0.379 4.291,1.137c1.274,0.758 2.245,1.815 2.914,3.171c0.668,1.356 1.002,2.894 1.002,4.612c0,1.742 -0.352,3.302 -1.055,4.677c-0.704,1.376 -1.7,2.417 -2.99,3.124c-1.29,0.707 -2.681,1.061 -4.174,1.061c-1.618,0 -3.064,-0.391 -4.338,-1.172c-1.274,-0.781 -2.239,-1.848 -2.896,-3.2c-0.657,-1.353 -0.985,-2.783 -0.985,-4.291zm2.344,0.029c0,2.07 0.557,3.701 1.671,4.893c1.114,1.192 2.512,1.787 4.192,1.787c1.712,0 3.121,-0.602 4.228,-1.805c1.106,-1.203 1.659,-2.91 1.659,-5.121c0,-1.398 -0.236,-2.619 -0.709,-3.662c-0.473,-1.043 -1.165,-1.852 -2.076,-2.426c-0.911,-0.574 -1.933,-0.861 -3.066,-0.861c-1.61,0 -2.996,0.553 -4.157,1.658c-1.161,1.105 -1.742,2.951 -1.742,5.537z" id="path31"/>
  </g>
  <path d="m36.81202,92.6599l0,-1.615l26.79,0l0.80751,0.8075l-0.80751,0.8075l-26.79,0z" id="polygon33"/>
  <g id="g35" transform="matrix(0.95,0,0,0.95,3.312175,6.56615) ">
   <path d="m17.95,59.525l0,-17.188l2.281,0l0,7.063l8.891,0l0,-7.063l2.281,0l0,17.188l-2.281,0l0,-8.094l-8.891,0l0,8.094l-2.281,0l0,0z" id="path37"/>
  </g>
  <path d="m35.33953,54.9449l0,-1.615l28.26249,0l0.80751,0.8075l-0.80751,0.8075l-28.26249,0z" id="polygon39"/>
  <g id="g41" transform="matrix(0.95,0,0,0.95,3.312175,6.56615) ">
   <path d="m97.351,99.225l0,-17.187l2.281,0l0,7.062l8.891,0l0,-7.063l2.281,0l0,17.188l-2.281,0l0,-8.094l-8.891,0l0,8.094l-2.281,0z" id="path43"/>
  </g>
  <path d="m93.57452,91.0449l0,1.615l-28.35749,0l-0.8075,-0.8075l0.8075,-0.8075l28.35749,0z" id="polygon45"/>
  <g id="g47" transform="matrix(0.95,0,0,0.95,3.312175,6.56615) ">
   <path d="m95.819,130.509c0,-2.852 0.766,-5.085 2.297,-6.699c1.533,-1.613 3.51,-2.42 5.934,-2.42c1.586,0 3.017,0.379 4.291,1.137c1.273,0.758 2.244,1.815 2.913,3.171c0.669,1.356 1.003,2.894 1.003,4.612c0,1.742 -0.352,3.302 -1.056,4.677c-0.704,1.376 -1.7,2.417 -2.989,3.124c-1.291,0.707 -2.682,1.061 -4.174,1.061c-1.619,0 -3.064,-0.391 -4.338,-1.172c-1.275,-0.781 -2.24,-1.848 -2.896,-3.2c-0.657,-1.352 -0.985,-2.783 -0.985,-4.291zm2.344,0.03c0,2.07 0.557,3.701 1.67,4.893c1.115,1.191 2.512,1.787 4.193,1.787c1.711,0 3.121,-0.602 4.227,-1.805c1.106,-1.203 1.66,-2.91 1.66,-5.121c0,-1.398 -0.236,-2.619 -0.71,-3.662c-0.474,-1.043 -1.165,-1.852 -2.075,-2.426c-0.911,-0.574 -1.934,-0.861 -3.066,-0.861c-1.611,0 -2.996,0.553 -4.158,1.658c-1.161,1.105 -1.741,2.951 -1.741,5.537z" id="path49"/>
   <path d="m115.269,138.875l0,-17.188l2.281,0l0,7.063l8.891,0l0,-7.063l2.281,0l0,17.188l-2.281,0l0,-8.094l-8.891,0l0,8.094l-2.281,0z" id="path51"/>
  </g>
  <path d="m92.14952,128.7124l0,1.615l-26.93249,0l-0.8075,-0.8075l0.8075,-0.8075l26.93249,0z" id="polygon53"/>
  <g id="g55" transform="matrix(0.95,0,0,0.95,3.312175,6.56615) ">
   <path d="m17.95,138.875l0,-17.188l2.281,0l0,7.063l8.891,0l0,-7.063l2.281,0l0,17.188l-2.281,0l0,-8.094l-8.891,0l0,8.094l-2.281,0z" id="path57"/>
  </g>
  <path d="m35.38703,130.3274l0,-1.615l28.21499,0l0.80751,0.8075l-0.80751,0.8075l-28.21499,0z" id="polygon59"/>
  <g id="g61" transform="matrix(0.95,0,0,0.95,3.312175,6.56615) ">
   <path d="m95.819,170.209c0,-2.852 0.766,-5.085 2.297,-6.699c1.533,-1.613 3.51,-2.42 5.934,-2.42c1.586,0 3.017,0.379 4.291,1.137c1.273,0.758 2.244,1.815 2.913,3.171c0.669,1.356 1.003,2.894 1.003,4.612c0,1.742 -0.352,3.302 -1.056,4.677c-0.704,1.376 -1.7,2.417 -2.989,3.124c-1.291,0.707 -2.682,1.061 -4.174,1.061c-1.619,0 -3.064,-0.391 -4.338,-1.172c-1.275,-0.781 -2.24,-1.848 -2.896,-3.2c-0.657,-1.352 -0.985,-2.783 -0.985,-4.291zm2.344,0.03c0,2.07 0.557,3.701 1.67,4.893c1.115,1.191 2.512,1.787 4.193,1.787c1.711,0 3.121,-0.602 4.227,-1.805c1.106,-1.203 1.66,-2.91 1.66,-5.121c0,-1.398 -0.236,-2.619 -0.71,-3.662c-0.474,-1.043 -1.165,-1.852 -2.075,-2.426c-0.911,-0.574 -1.934,-0.861 -3.066,-0.861c-1.611,0 -2.996,0.553 -4.158,1.658c-1.161,1.105 -1.741,2.951 -1.741,5.537z" id="path63"/>
   <path d="m115.269,178.575l0,-17.188l2.281,0l0,7.063l8.891,0l0,-7.063l2.281,0l0,17.188l-2.281,0l0,-8.094l-8.891,0l0,8.094l-2.281,0z" id="path65"/>
  </g>
  <path d="m92.14952,166.4274l0,1.615l-26.93249,0l-0.8075,-0.8075l0.8075,-0.8075l26.93249,0z" id="polygon67"/>
  <g id="g69" transform="matrix(0.95,0,0,0.95,3.312175,6.56615) ">
   <path d="m17.95,178.575l0,-17.188l2.281,0l0,7.063l8.891,0l0,-7.063l2.281,0l0,17.188l-2.281,0l0,-8.094l-8.891,0l0,8.094l-2.281,0z" id="path71"/>
  </g>
  <path d="m35.38703,168.0424l0,-1.615l28.21499,0l0.80751,0.8075l-0.80751,0.8075l-28.21499,0z" id="polygon73"/>
  <g id="g75" transform="matrix(0.95,0,0,0.95,3.312175,6.56615) ">
   <path d="m69.807,212.248l2.281,0.574c-0.476,1.87 -1.333,3.296 -2.569,4.277c-1.237,0.982 -2.75,1.473 -4.537,1.473c-1.85,0 -3.354,-0.377 -4.513,-1.132c-1.159,-0.755 -2.041,-1.847 -2.646,-3.278c-0.605,-1.431 -0.907,-2.967 -0.907,-4.609c0,-1.791 0.341,-3.353 1.024,-4.686c0.683,-1.334 1.654,-2.346 2.915,-3.038c1.26,-0.692 2.646,-1.038 4.16,-1.038c1.717,0 3.16,0.438 4.33,1.314c1.171,0.877 1.986,2.109 2.446,3.697l-2.234,0.527c-0.398,-1.25 -0.975,-2.16 -1.731,-2.73c-0.757,-0.57 -1.709,-0.855 -2.855,-0.855c-1.318,0 -2.42,0.316 -3.306,0.949c-0.885,0.633 -1.507,1.482 -1.866,2.549c-0.359,1.067 -0.538,2.166 -0.538,3.299c0,1.461 0.212,2.736 0.637,3.826c0.425,1.09 1.085,1.904 1.982,2.443c0.897,0.539 1.867,0.809 2.912,0.809c1.271,0 2.346,-0.367 3.227,-1.102c0.881,-0.735 1.476,-1.824 1.788,-3.269z" id="path77"/>
   <path d="m74.982,218.275l0,-17.188l2.281,0l0,7.063l8.891,0l0,-7.063l2.281,0l0,17.188l-2.281,0l0,-8.094l-8.891,0l0,8.094l-2.281,0z" id="path79"/>
  </g>
  <g id="g81" transform="matrix(0.95,0,0,0.95,3.312175,6.56615) ">
   <path d="m98.345,221.259l0,1.516l-8.531,0c-0.012,-0.381 0.05,-0.747 0.186,-1.1c0.219,-0.58 0.567,-1.15 1.049,-1.712c0.48,-0.562 1.17,-1.211 2.069,-1.948c1.396,-1.152 2.343,-2.063 2.84,-2.733c0.498,-0.67 0.747,-1.304 0.747,-1.903c0,-0.626 -0.225,-1.154 -0.676,-1.584c-0.449,-0.43 -1.036,-0.645 -1.76,-0.645c-0.766,0 -1.377,0.229 -1.836,0.688c-0.459,0.458 -0.691,1.094 -0.697,1.905l-1.625,-0.172c0.111,-1.215 0.531,-2.142 1.26,-2.779c0.729,-0.637 1.706,-0.955 2.934,-0.955c1.238,0 2.22,0.343 2.941,1.029c0.723,0.686 1.084,1.535 1.084,2.55c0,0.517 -0.105,1.023 -0.317,1.521c-0.212,0.498 -0.563,1.022 -1.053,1.574c-0.491,0.551 -1.304,1.308 -2.44,2.269c-0.951,0.797 -1.562,1.338 -1.833,1.621c-0.271,0.285 -0.496,0.57 -0.673,0.857l6.331,0l0,0.001z" id="path83"/>
  </g>
  <path d="m65.21703,195.1174l-1.61501,0l0,-27.075l0.80751,-0.8075l0.8075,0.8075l0,27.075z" id="polygon85"/>
  <g id="g87" transform="matrix(0.95,0,0,0.95,3.312175,6.56615) ">
   <path d="m56.119,249.56c0,-2.852 0.766,-5.085 2.298,-6.699c1.532,-1.613 3.51,-2.42 5.933,-2.42c1.587,0 3.017,0.379 4.291,1.137c1.274,0.758 2.245,1.815 2.913,3.171c0.669,1.356 1.003,2.894 1.003,4.612c0,1.742 -0.352,3.302 -1.056,4.677c-0.703,1.376 -1.699,2.417 -2.989,3.124c-1.29,0.707 -2.681,1.061 -4.174,1.061c-1.618,0 -3.064,-0.391 -4.338,-1.172c-1.274,-0.781 -2.239,-1.848 -2.896,-3.2c-0.657,-1.352 -0.985,-2.783 -0.985,-4.291zm2.344,0.029c0,2.07 0.557,3.701 1.671,4.893c1.114,1.192 2.512,1.787 4.192,1.787c1.712,0 3.121,-0.602 4.228,-1.805c1.105,-1.203 1.659,-2.91 1.659,-5.121c0,-1.398 -0.236,-2.619 -0.71,-3.662c-0.473,-1.043 -1.165,-1.852 -2.075,-2.426c-0.91,-0.574 -1.933,-0.861 -3.066,-0.861c-1.61,0 -2.996,0.553 -4.157,1.658c-1.161,1.105 -1.742,2.951 -1.742,5.537z" id="path89"/>
   <path d="m75.49,257.925l0,-17.188l6.479,0c1.14,0 2.011,0.055 2.612,0.164c0.844,0.141 1.551,0.408 2.121,0.804c0.569,0.395 1.028,0.948 1.376,1.659c0.348,0.712 0.521,1.494 0.521,2.346c0,1.462 -0.464,2.699 -1.394,3.712c-0.928,1.013 -2.606,1.519 -5.033,1.519l-4.401,0l0,6.984l-2.281,0zm2.281,-9.015l4.436,0c1.466,0 2.508,-0.273 3.124,-0.82c0.616,-0.547 0.925,-1.316 0.925,-2.309c0,-0.719 -0.182,-1.334 -0.544,-1.846c-0.363,-0.512 -0.841,-0.85 -1.434,-1.014c-0.383,-0.102 -1.089,-0.152 -2.118,-0.152l-4.389,0l0,6.141z" id="path91"/>
   <path d="m90.795,249.56c0,-2.852 0.766,-5.085 2.298,-6.699c1.532,-1.613 3.51,-2.42 5.933,-2.42c1.587,0 3.017,0.379 4.291,1.137c1.274,0.758 2.245,1.815 2.913,3.171c0.669,1.356 1.003,2.894 1.003,4.612c0,1.742 -0.352,3.302 -1.056,4.677c-0.703,1.376 -1.699,2.417 -2.989,3.124c-1.29,0.707 -2.681,1.061 -4.174,1.061c-1.618,0 -3.064,-0.391 -4.338,-1.172c-1.274,-0.781 -2.239,-1.848 -2.896,-3.2c-0.657,-1.352 -0.985,-2.783 -0.985,-4.291zm2.344,0.029c0,2.07 0.557,3.701 1.671,4.893c1.114,1.192 2.512,1.787 4.192,1.787c1.712,0 3.121,-0.602 4.228,-1.805c1.105,-1.203 1.659,-2.91 1.659,-5.121c0,-1.398 -0.236,-2.619 -0.71,-3.662c-0.473,-1.043 -1.164,-1.852 -2.075,-2.426c-0.911,-0.574 -1.933,-0.861 -3.066,-0.861c-1.61,0 -2.996,0.553 -4.157,1.658c-1.161,1.105 -1.742,2.951 -1.742,5.537z" id="path93"/>
  </g>
  <g id="g95" transform="matrix(0.95,0,0,0.95,3.312175,6.56615) ">
   <path d="m108.556,259.019l1.578,-0.219c0.183,0.896 0.492,1.543 0.928,1.938c0.437,0.396 0.973,0.594 1.607,0.594c0.753,0 1.387,-0.258 1.898,-0.773c0.514,-0.515 0.77,-1.153 0.77,-1.914c0,-0.727 -0.238,-1.325 -0.716,-1.797c-0.477,-0.471 -1.083,-0.707 -1.819,-0.707c-0.301,0 -0.675,0.059 -1.122,0.176l0.177,-1.391c0.105,0.012 0.191,0.018 0.256,0.018c0.674,0 1.281,-0.176 1.821,-0.526c0.54,-0.35 0.81,-0.892 0.81,-1.623c0,-0.579 -0.197,-1.059 -0.591,-1.438c-0.394,-0.379 -0.902,-0.57 -1.525,-0.57c-0.617,0 -1.132,0.194 -1.544,0.582c-0.411,0.389 -0.676,0.971 -0.793,1.746l-1.578,-0.281c0.193,-1.062 0.634,-1.885 1.32,-2.469c0.686,-0.583 1.539,-0.875 2.561,-0.875c0.704,0 1.353,0.15 1.945,0.452c0.592,0.301 1.045,0.712 1.359,1.232c0.313,0.521 0.471,1.073 0.471,1.658c0,0.556 -0.149,1.062 -0.448,1.518c-0.299,0.456 -0.741,0.818 -1.327,1.088c0.762,0.176 1.354,0.54 1.779,1.095c0.424,0.553 0.637,1.246 0.637,2.078c0,1.125 -0.411,2.079 -1.232,2.861c-0.822,0.783 -1.861,1.174 -3.117,1.174c-1.133,0 -2.074,-0.336 -2.822,-1.01c-0.751,-0.674 -1.178,-1.547 -1.283,-2.617z" id="path97"/>
  </g>
  <g id="g99" transform="matrix(0.95,0,0,0.95,3.312175,6.56615) ">
   <path d="m126.102,247.41l0,1.516l-8.531,0c-0.012,-0.381 0.05,-0.747 0.186,-1.1c0.218,-0.58 0.567,-1.15 1.048,-1.712c0.481,-0.562 1.171,-1.211 2.07,-1.948c1.396,-1.152 2.342,-2.063 2.84,-2.733c0.498,-0.67 0.747,-1.304 0.747,-1.903c0,-0.626 -0.226,-1.154 -0.675,-1.584c-0.451,-0.43 -1.037,-0.645 -1.761,-0.645c-0.766,0 -1.377,0.229 -1.836,0.688c-0.459,0.458 -0.691,1.094 -0.697,1.905l-1.625,-0.172c0.111,-1.215 0.531,-2.142 1.26,-2.779c0.728,-0.637 1.706,-0.955 2.934,-0.955c1.239,0 2.22,0.343 2.942,1.029c0.722,0.686 1.083,1.535 1.083,2.55c0,0.517 -0.106,1.023 -0.317,1.521c-0.211,0.498 -0.563,1.022 -1.053,1.574c-0.491,0.551 -1.305,1.308 -2.44,2.269c-0.95,0.797 -1.562,1.338 -1.833,1.621c-0.271,0.285 -0.496,0.57 -0.673,0.857l6.331,0l0,0.001z" id="path101"/>
   <path d="m127.612,245.05l0,-1.594l4.875,0l0,1.594l-4.875,0z" id="path103"/>
  </g>
  <path d="m63.60203,216.30239l1.615,0l0,16.53l-1.615,0l0,-16.53z" id="rect105"/>
  <path d="m106.77952,7.2074l7.60001,0" id="line107" stroke-width="1.2825" stroke="#000000" fill="none"/>
 </g>
</svg>