<svg xmlns="http://www.w3.org/2000/svg" width="760" height="724">
 <!-- Created with Image Occlusion Enhanced -->
 <g>
  <title>Labels</title>
 </g>
 <g>
  <title>Masks</title>
  <rect id="dd8c872682ea473d9231e4435329cc27-oa-1" height="20.73171" width="93.90244" y="196.73172" x="13.1707" stroke="#2D2D2D" fill="#FFEBA2"/>
  <rect id="dd8c872682ea473d9231e4435329cc27-oa-2" height="31.70732" width="89.02439" y="228.43904" x="5.85363" stroke="#2D2D2D" fill="#FFEBA2"/>
  <rect id="dd8c872682ea473d9231e4435329cc27-oa-3" height="23.17073" width="36.58537" y="277.21952" x="53.41461" stroke="#2D2D2D" fill="#FFEBA2"/>
  <rect id="dd8c872682ea473d9231e4435329cc27-oa-4" height="26.82927" width="75.60976" y="480.87806" x="7.07314" stroke="#2D2D2D" fill="#FFEBA2"/>
  <rect id="dd8c872682ea473d9231e4435329cc27-oa-5" height="23.17073" width="69.5122" y="555.26831" x="42.439" stroke="#2D2D2D" fill="#FFEBA2"/>
  <rect id="dd8c872682ea473d9231e4435329cc27-oa-6" height="20.73171" width="62.19512" y="586.97563" x="609.51218" stroke="#2D2D2D" fill="#FFEBA2"/>
  <rect id="dd8c872682ea473d9231e4435329cc27-oa-7" height="47.56098" width="82.92683" y="438.19514" x="615.60974" stroke="#2D2D2D" fill="#FFEBA2"/>
  <rect id="dd8c872682ea473d9231e4435329cc27-oa-8" height="21.95122" width="82.92683" y="397.95123" x="619.26827" stroke="#2D2D2D" fill="#FFEBA2"/>
  <rect id="dd8c872682ea473d9231e4435329cc27-oa-9" height="42.68293" width="89.02439" y="343.07318" x="618.04876" stroke="#2D2D2D" fill="#FFEBA2"/>
  <rect id="dd8c872682ea473d9231e4435329cc27-oa-10" height="29.26829" width="117.07317" y="183.31708" x="618.04876" stroke="#2D2D2D" fill="#FFEBA2"/>
  <rect id="dd8c872682ea473d9231e4435329cc27-oa-11" height="14.63415" width="78.04878" y="222.34148" x="614.39022" stroke="#2D2D2D" fill="#FFEBA2"/>
  <rect id="dd8c872682ea473d9231e4435329cc27-oa-12" height="9.7561" width="93.90244" y="261.36587" x="622.92681" stroke="#2D2D2D" fill="#FFEBA2"/>
  <rect id="dd8c872682ea473d9231e4435329cc27-oa-13" height="30.48781" width="104.87805" y="290.63416" x="626.58535" stroke="#2D2D2D" fill="#FFEBA2"/>
  <rect id="dd8c872682ea473d9231e4435329cc27-oa-14" height="32.92683" width="91.46342" y="50.39025" x="480.24388" stroke="#2D2D2D" fill="#FFEBA2"/>
  <rect id="dd8c872682ea473d9231e4435329cc27-oa-15" height="9.7561" width="48.78049" y="95.51221" x="570.48778" stroke="#2D2D2D" fill="#FFEBA2"/>
 </g>
</svg>