<svg xmlns="http://www.w3.org/2000/svg" width="793" height="896">
 <!-- Created with Image Occlusion Enhanced -->
 <g>
  <title>Labels</title>
 </g>
 <g>
  <title>Masks</title>
  <rect id="e2fe84ac400249abbc2ba95f07250cf8-oa-1" height="22.72727" width="62.12121" y="263.09094" x="102.45453" stroke="#2D2D2D" fill="#FFEBA2"/>
  <rect id="e2fe84ac400249abbc2ba95f07250cf8-oa-2" height="25.75758" width="46.9697" y="266.12124" x="193.36362" stroke="#2D2D2D" fill="#FFEBA2"/>
  <rect id="e2fe84ac400249abbc2ba95f07250cf8-oa-3" height="31.81818" width="86.36364" y="308.54548" x="169.1212" stroke="#2D2D2D" fill="#FFEBA2"/>
  <rect id="e2fe84ac400249abbc2ba95f07250cf8-oa-4" height="21.21212" width="62.12121" y="347.93942" x="234.27271" stroke="#2D2D2D" fill="#FFEBA2"/>
  <rect id="e2fe84ac400249abbc2ba95f07250cf8-oa-5" height="13.63636" width="75.75758" y="417.6364" x="326.69696" stroke="#2D2D2D" fill="#FFEBA2"/>
  <rect id="e2fe84ac400249abbc2ba95f07250cf8-oa-6" height="36.36364" width="59.09091" y="407.03034" x="431.24241" stroke="#2D2D2D" fill="#FFEBA2"/>
  <rect id="e2fe84ac400249abbc2ba95f07250cf8-oa-7" height="36.36364" width="92.42424" y="5.51517" x="690.33333" stroke="#2D2D2D" fill="#FFEBA2"/>
  <rect id="e2fe84ac400249abbc2ba95f07250cf8-oa-8" height="30.30303" width="75.75758" y="54.00002" x="687.30303" stroke="#2D2D2D" fill="#FFEBA2"/>
  <rect id="e2fe84ac400249abbc2ba95f07250cf8-oa-9" height="33.33333" width="84.84849" y="93.39396" x="690.33333" stroke="#2D2D2D" fill="#FFEBA2"/>
  <rect id="e2fe84ac400249abbc2ba95f07250cf8-oa-10" height="9.09091" width="57.57576" y="137.33336" x="693.36363" stroke="#2D2D2D" fill="#FFEBA2"/>
  <rect id="e2fe84ac400249abbc2ba95f07250cf8-oa-11" height="36.36364" width="72.72727" y="158.54548" x="690.33333" stroke="#2D2D2D" fill="#FFEBA2"/>
  <rect id="e2fe84ac400249abbc2ba95f07250cf8-oa-12" height="36.36364" width="68.18182" y="266.12124" x="705.48485" stroke="#2D2D2D" fill="#FFEBA2"/>
  <rect id="e2fe84ac400249abbc2ba95f07250cf8-oa-13" height="33.33333" width="60.60606" y="308.54548" x="694.87878" stroke="#2D2D2D" fill="#FFEBA2"/>
  <rect id="e2fe84ac400249abbc2ba95f07250cf8-oa-14" height="15.15152" width="71.21212" y="350.96973" x="690.33333" stroke="#2D2D2D" fill="#FFEBA2"/>
  <rect id="e2fe84ac400249abbc2ba95f07250cf8-oa-15" height="30.30303" width="60.60606" y="376.7273" x="696.39394" stroke="#2D2D2D" fill="#FFEBA2"/>
 </g>
</svg>