<svg xmlns="http://www.w3.org/2000/svg" width="944.9999999999999" height="703">
 <!-- Created with Image Occlusion Enhanced -->
 <g>
  <title>Labels</title>
 </g>
 <g>
  <title>Masks</title>
  <rect id="e3d1859f9e2548f3a2445dd669762be3-ao-1" height="50.60241" width="83.13253" y="26.87953" x="441.74703" stroke="#2D2D2D" fill="#007fff"/>
  <rect id="e3d1859f9e2548f3a2445dd669762be3-ao-2" height="75.90362" width="168.6747" y="49.77109" x="576.68679" stroke="#2D2D2D" fill="#007fff"/>
  <rect id="e3d1859f9e2548f3a2445dd669762be3-ao-3" height="53.01205" width="127.71085" y="146.15664" x="680.30126" stroke="#2D2D2D" fill="#007fff"/>
  <rect id="e3d1859f9e2548f3a2445dd669762be3-ao-4" height="57.83133" width="101.20482" y="218.4458" x="755.00005" stroke="#2D2D2D" fill="#007fff"/>
  <rect id="e3d1859f9e2548f3a2445dd669762be3-ao-5" height="50.60241" width="126.50603" y="294.34941" x="779.09644" stroke="#2D2D2D" fill="#007fff"/>
  <rect id="e3d1859f9e2548f3a2445dd669762be3-ao-6" height="49.39759" width="119.27711" y="371.45785" x="779.09644" stroke="#2D2D2D" fill="#007fff"/>
  <rect id="e3d1859f9e2548f3a2445dd669762be3-ao-7" height="38.55422" width="100" y="443.74701" x="779.09644" stroke="#2D2D2D" fill="#007fff"/>
  <rect id="e3d1859f9e2548f3a2445dd669762be3-ao-8" height="28.91566" width="101.20482" y="496.75906" x="779.09644" stroke="#2D2D2D" fill="#007fff"/>
  <rect id="e3d1859f9e2548f3a2445dd669762be3-ao-9" height="28.91566" width="103.61446" y="541.33737" x="779.09644" stroke="#2D2D2D" fill="#007fff"/>
  <rect id="e3d1859f9e2548f3a2445dd669762be3-ao-10" height="53.01205" width="113.25302" y="601.57834" x="701.988" stroke="#2D2D2D" fill="#007fff"/>
  <rect id="e3d1859f9e2548f3a2445dd669762be3-ao-11" height="49.39759" width="80.72289" y="626.87954" x="573.07234" stroke="#2D2D2D" fill="#007fff"/>
  <rect id="e3d1859f9e2548f3a2445dd669762be3-ao-12" height="59.03615" width="93.97591" y="619.65063" x="430.90366" stroke="#2D2D2D" fill="#007fff"/>
  
  <rect id="e3d1859f9e2548f3a2445dd669762be3-ao-14" height="32.53012" width="128.91567" y="578.68677" x="80.30124" stroke="#2D2D2D" fill="#007fff"/>
  <rect id="e3d1859f9e2548f3a2445dd669762be3-ao-15" height="38.55422" width="107.22892" y="518.44581" x="50.18075" stroke="#2D2D2D" fill="#007fff"/>
  <rect id="e3d1859f9e2548f3a2445dd669762be3-ao-16" height="60.24097" width="138.55422" y="441.33737" x="22.46991" stroke="#2D2D2D" fill="#007fff"/>
  <rect id="e3d1859f9e2548f3a2445dd669762be3-ao-17" height="39.75904" width="102.40964" y="372.66267" x="55.00003" stroke="#2D2D2D" fill="#007fff"/>
  <rect id="e3d1859f9e2548f3a2445dd669762be3-ao-18" height="146.98796" width="193.97591" y="207.60242" x="21.26509" stroke="#2D2D2D" fill="#007fff"/>
  <rect id="e3d1859f9e2548f3a2445dd669762be3-ao-19" height="30.12048" width="115.66265" y="159.40965" x="146.5663" stroke="#2D2D2D" fill="#007fff"/>
  <rect id="e3d1859f9e2548f3a2445dd669762be3-ao-20" height="72.28916" width="202.40964" y="53.38555" x="167.04823" stroke="#2D2D2D" fill="#007fff"/>
 </g>
</svg>