<svg xmlns="http://www.w3.org/2000/svg" width="880" height="767.9999999999999">
 <!-- Created with Image Occlusion Enhanced -->
 <g>
  <title>Labels</title>
 </g>
 <g>
  <title>Masks</title>
  <rect id="e487912853fa4b5a8de7605f2859e46e-ao-1" height="33.33333" width="158.73016" y="0.25397" x="456.65669" stroke="#2D2D2D" fill="#FFEBA2"/>
  <rect id="e487912853fa4b5a8de7605f2859e46e-ao-2" height="31.74603" width="161.90476" y="1.84128" x="643.95828" stroke="#2D2D2D" fill="#FFEBA2"/>
  <rect id="e487912853fa4b5a8de7605f2859e46e-ao-3" height="28.57143" width="171.42857" y="62.15874" x="702.68844" stroke="#2D2D2D" fill="#FFEBA2"/>
  <rect id="e487912853fa4b5a8de7605f2859e46e-ao-4" height="26.98413" width="114.28572" y="693.90477" x="705.86304" stroke="#2D2D2D" fill="#FFEBA2"/>
  <rect id="e487912853fa4b5a8de7605f2859e46e-ao-5" height="26.98413" width="123.80952" y="714.53969" x="563.0059" stroke="#2D2D2D" fill="#FFEBA2"/>
  <rect id="e487912853fa4b5a8de7605f2859e46e-ao-6" height="46.03175" width="196.8254" y="717.7143" x="337.60907" stroke="#2D2D2D" fill="#FFEBA2"/>
  <rect id="e487912853fa4b5a8de7605f2859e46e-ao-7" height="33.33333" width="149.20635" y="662.15874" x="270.9424" stroke="#2D2D2D" fill="#FFEBA2"/>
  <rect id="e487912853fa4b5a8de7605f2859e46e-ao-8" height="31.74603" width="144.44445" y="582.79366" x="104.27573" stroke="#2D2D2D" fill="#FFEBA2"/>
  <rect id="e487912853fa4b5a8de7605f2859e46e-ao-9" height="26.98413" width="152.38095" y="524.0635" x="101.10113" stroke="#2D2D2D" fill="#FFEBA2"/>
  <rect id="e487912853fa4b5a8de7605f2859e46e-ao-10" height="22.76786" width="105.80357" y="490.92857" x="143.21431" stroke="#2D2D2D" fill="#FFEBA2"/>
  
  <rect id="e487912853fa4b5a8de7605f2859e46e-ao-12" height="26.11607" width="80.35714" y="424.63392" x="163.97324" stroke="#2D2D2D" fill="#FFEBA2"/>
  <rect id="e487912853fa4b5a8de7605f2859e46e-ao-13" height="24.10714" width="103.79465" y="388.47321" x="142.54467" stroke="#2D2D2D" fill="#FFEBA2"/>
  <rect id="e487912853fa4b5a8de7605f2859e46e-ao-14" height="50.89286" width="244.41965" y="312.80356" x="2.58931" stroke="#2D2D2D" fill="#FFEBA2"/>
  <rect id="e487912853fa4b5a8de7605f2859e46e-ao-15" height="28.79464" width="204.24108" y="238.47321" x="42.09824" stroke="#2D2D2D" fill="#FFEBA2"/>
  <rect id="e487912853fa4b5a8de7605f2859e46e-ao-16" height="25.44643" width="150.66965" y="271.28571" x="95.66967" stroke="#2D2D2D" fill="#FFEBA2"/>
  <rect id="e487912853fa4b5a8de7605f2859e46e-ao-17" height="23.4375" width="93.08036" y="200.9732" x="152.58931" stroke="#2D2D2D" fill="#FFEBA2"/>
  <rect id="e487912853fa4b5a8de7605f2859e46e-ao-18" height="23.4375" width="95.08929" y="163.4732" x="151.25003" stroke="#2D2D2D" fill="#FFEBA2"/>
  <rect id="e487912853fa4b5a8de7605f2859e46e-ao-19" height="55.58036" width="212.94643" y="97.17856" x="36.07145" stroke="#2D2D2D" fill="#FFEBA2"/>
  <rect id="e487912853fa4b5a8de7605f2859e46e-ao-20" height="28.79464" width="95.08929" y="9.45534" x="295.89289" stroke="#2D2D2D" fill="#FFEBA2"/>
 </g>
</svg>