<svg xmlns="http://www.w3.org/2000/svg" width="801.0000000000001" height="879">
 <!-- Created with Image Occlusion Enhanced -->
 <g>
  <title>Labels</title>
 </g>
 <g>
  <title>Masks</title>
  <rect id="e592e908f9a649809c6b934eadeafbf4-oa-1" height="58.20896" width="120.89553" y="82.19403" x="51.23883" stroke="#2D2D2D" fill="#FFEBA2"/>
  <rect id="e592e908f9a649809c6b934eadeafbf4-oa-2" height="35.8209" width="134.32836" y="4.58209" x="155.71645" stroke="#2D2D2D" fill="#FFEBA2"/>
  <rect id="e592e908f9a649809c6b934eadeafbf4-oa-3" height="25.37314" width="108.95523" y="13.53732" x="333.32839" stroke="#2D2D2D" fill="#FFEBA2"/>
  <rect id="e592e908f9a649809c6b934eadeafbf4-oa-4" height="14.92537" width="131.34329" y="18.01493" x="475.11944" stroke="#2D2D2D" fill="#FFEBA2"/>
  <rect id="e592e908f9a649809c6b934eadeafbf4-oa-5" height="32.83582" width="197.01493" y="109.05971" x="576.61198" stroke="#2D2D2D" fill="#FFEBA2"/>
  <rect id="e592e908f9a649809c6b934eadeafbf4-oa-6" height="107.46269" width="217.91045" y="165.77613" x="575.11945" stroke="#2D2D2D" fill="#FFEBA2"/>
  <rect id="e592e908f9a649809c6b934eadeafbf4-oa-7" height="26.86567" width="152.23881" y="297.11941" x="584.07467" stroke="#2D2D2D" fill="#FFEBA2"/>
  <rect id="e592e908f9a649809c6b934eadeafbf4-oa-8" height="43.28358" width="147.7612" y="362.79106" x="530.34333" stroke="#2D2D2D" fill="#FFEBA2"/>
  <rect id="e592e908f9a649809c6b934eadeafbf4-oa-9" height="28.35821" width="128.35821" y="438.91046" x="552.73139" stroke="#2D2D2D" fill="#FFEBA2"/>
  <rect id="e592e908f9a649809c6b934eadeafbf4-oa-10" height="44.77612" width="120.89553" y="491.14927" x="539.29855" stroke="#2D2D2D" fill="#FFEBA2"/>
  <rect id="e592e908f9a649809c6b934eadeafbf4-oa-11" height="55.22388" width="155.22389" y="165.77613" x="40.79107" stroke="#2D2D2D" fill="#FFEBA2"/>
  <rect id="e592e908f9a649809c6b934eadeafbf4-oa-12" height="77.61194" width="177.61195" y="243.38807" x="15.41794" stroke="#2D2D2D" fill="#FFEBA2"/>
  <rect id="e592e908f9a649809c6b934eadeafbf4-oa-13" height="47.7612" width="123.8806" y="338.91046" x="51.23883" stroke="#2D2D2D" fill="#FFEBA2"/>
  <rect id="e592e908f9a649809c6b934eadeafbf4-oa-14" height="49.25373" width="113.43284" y="416.5224" x="87.05973" stroke="#2D2D2D" fill="#FFEBA2"/>
  <rect id="e592e908f9a649809c6b934eadeafbf4-oa-15" height="52.23881" width="86.56717" y="488.1642" x="107.95525" stroke="#2D2D2D" fill="#FFEBA2"/>
 </g>
</svg>