<svg xmlns="http://www.w3.org/2000/svg" width="771.9999999999999" height="753">
 <!-- Created with Image Occlusion Enhanced -->
 <g>
  <title>Labels</title>
 </g>
 <g>
  <title>Masks</title>
  <rect id="e88895e4e3584c1bb0ccee7bc08f74d8-oa-1" height="58.97436" width="160.25642" y="174.43584" x="529.28211" stroke="#2D2D2D" fill="#FFEBA2"/>
  <rect id="e88895e4e3584c1bb0ccee7bc08f74d8-oa-2" height="20.51282" width="106.41026" y="243.66661" x="574.15391" stroke="#2D2D2D" fill="#FFEBA2"/>
  <rect id="e88895e4e3584c1bb0ccee7bc08f74d8-oa-3" height="30.76923" width="146.15385" y="275.71789" x="616.4616" stroke="#2D2D2D" fill="#FFEBA2"/>
  <rect id="e88895e4e3584c1bb0ccee7bc08f74d8-oa-4" height="15.38462" width="82.05129" y="321.87174" x="657.48724" stroke="#2D2D2D" fill="#FFEBA2"/>
  <rect id="e88895e4e3584c1bb0ccee7bc08f74d8-oa-5" height="7.69231" width="69.23077" y="355.20508" x="631.84622" stroke="#2D2D2D" fill="#FFEBA2"/>
  <rect id="e88895e4e3584c1bb0ccee7bc08f74d8-oa-6" height="17.94872" width="52.5641" y="378.282" x="662.61545" stroke="#2D2D2D" fill="#FFEBA2"/>
  <rect id="e88895e4e3584c1bb0ccee7bc08f74d8-oa-7" height="25.64103" width="105.12821" y="406.48713" x="644.66673" stroke="#2D2D2D" fill="#FFEBA2"/>
  <rect id="e88895e4e3584c1bb0ccee7bc08f74d8-oa-8" height="17.94872" width="115.38462" y="442.38457" x="640.82058" stroke="#2D2D2D" fill="#FFEBA2"/>
  <rect id="e88895e4e3584c1bb0ccee7bc08f74d8-oa-9" height="14.10256" width="80.76923" y="325.71789" x="15.17952" stroke="#2D2D2D" fill="#FFEBA2"/>
  <rect id="e88895e4e3584c1bb0ccee7bc08f74d8-oa-10" height="16.66667" width="93.58975" y="348.79482" x="8.76927" stroke="#2D2D2D" fill="#FFEBA2"/>
  <rect id="e88895e4e3584c1bb0ccee7bc08f74d8-oa-11" height="24.35898" width="105.12821" y="373.15379" x="2.35901" stroke="#2D2D2D" fill="#FFEBA2"/>
  <rect id="e88895e4e3584c1bb0ccee7bc08f74d8-oa-12" height="30.76923" width="91.02565" y="410.33328" x="4.92311" stroke="#2D2D2D" fill="#FFEBA2"/>
  <rect id="e88895e4e3584c1bb0ccee7bc08f74d8-oa-13" height="16.66667" width="76.92308" y="455.20508" x="11.33337" stroke="#2D2D2D" fill="#FFEBA2"/>
  <rect id="e88895e4e3584c1bb0ccee7bc08f74d8-oa-14" height="30.76923" width="73.07693" y="491.10252" x="25.43593" stroke="#2D2D2D" fill="#FFEBA2"/>
  <rect id="e88895e4e3584c1bb0ccee7bc08f74d8-oa-15" height="12.82051" width="85.89744" y="539.82047" x="42.1026" stroke="#2D2D2D" fill="#FFEBA2"/>
  <rect id="e88895e4e3584c1bb0ccee7bc08f74d8-oa-16" height="12.82051" width="106.41026" y="570.5897" x="110.05132" stroke="#2D2D2D" fill="#FFEBA2"/>
  <rect id="e88895e4e3584c1bb0ccee7bc08f74d8-oa-17" height="11.53846" width="97.4359" y="597.51278" x="124.15389" stroke="#2D2D2D" fill="#FFEBA2"/>
  <rect id="e88895e4e3584c1bb0ccee7bc08f74d8-oa-18" height="16.66667" width="80.76923" y="628.28201" x="149.79491" stroke="#2D2D2D" fill="#FFEBA2"/>
  <rect id="e88895e4e3584c1bb0ccee7bc08f74d8-oa-19" height="26.92308" width="62.82052" y="532.12816" x="652.35904" stroke="#2D2D2D" fill="#FFEBA2"/>
  <rect id="e88895e4e3584c1bb0ccee7bc08f74d8-oa-20" height="44.8718" width="71.79487" y="612.89739" x="661.3334" stroke="#2D2D2D" fill="#FFEBA2"/>
 </g>
</svg>