<svg xmlns="http://www.w3.org/2000/svg" width="1600" height="1473">
 <!-- Created with Image Occlusion Enhanced -->
 <g>
  <title>Labels</title>
 </g>
 <g>
  <title>Masks</title>
  <rect id="eeab0d90eb344d20bf73546a02332c2b-ao-1" height="25.64103" width="111.53847" y="79.56418" x="507.69229" stroke="#2D2D2D" fill="#007fff"/>
  <rect id="eeab0d90eb344d20bf73546a02332c2b-ao-2" height="20.51282" width="146.15385" y="44.9488" x="823.07692" stroke="#2D2D2D" fill="#007fff"/>
  <rect id="eeab0d90eb344d20bf73546a02332c2b-ao-3" height="28.20513" width="156.41026" y="80.84623" x="1101.28207" stroke="#2D2D2D" fill="#007fff"/>
  <rect id="eeab0d90eb344d20bf73546a02332c2b-ao-4" height="32.05128" width="110.25642" y="143.66675" x="1262.82054" stroke="#2D2D2D" fill="#007fff"/>
  <rect id="eeab0d90eb344d20bf73546a02332c2b-ao-5" height="51.28205" width="107.69231" y="1003.9232" x="1380.76926" stroke="#2D2D2D" fill="#007fff"/>
  <rect id="eeab0d90eb344d20bf73546a02332c2b-ao-6" height="19.23077" width="119.23078" y="1084.69244" x="1279.4872" stroke="#2D2D2D" fill="#007fff"/>
  <rect id="eeab0d90eb344d20bf73546a02332c2b-ao-7" height="44.8718" width="123.07693" y="1138.53859" x="1185.89746" stroke="#2D2D2D" fill="#007fff"/>
  <rect id="eeab0d90eb344d20bf73546a02332c2b-ao-8" height="73.07693" width="119.23078" y="1134.69244" x="1021.79488" stroke="#2D2D2D" fill="#007fff"/>
  <rect id="eeab0d90eb344d20bf73546a02332c2b-ao-9" height="51.28205" width="134.61539" y="1239.82065" x="919.23078" stroke="#2D2D2D" fill="#007fff"/>
  <rect id="eeab0d90eb344d20bf73546a02332c2b-ao-10" height="73.07693" width="117.94872" y="1130.84629" x="833.33334" stroke="#2D2D2D" fill="#007fff"/>
  <rect id="eeab0d90eb344d20bf73546a02332c2b-ao-11" height="55.12821" width="120.51283" y="1297.51296" x="764.10256" stroke="#2D2D2D" fill="#007fff"/>
  <rect id="eeab0d90eb344d20bf73546a02332c2b-ao-12" height="38.46154" width="152.56411" y="1357.76938" x="587.17948" stroke="#2D2D2D" fill="#007fff"/>
  <rect id="eeab0d90eb344d20bf73546a02332c2b-ao-13" height="26.92308" width="157.69232" y="1420.58989" x="315.38459" stroke="#2D2D2D" fill="#FF7E7E" class="qshape"/>
  <rect id="eeab0d90eb344d20bf73546a02332c2b-ao-14" height="26.92308" width="100.00001" y="1250.07706" x="151.28202" stroke="#2D2D2D" fill="#007fff"/>
  <rect id="eeab0d90eb344d20bf73546a02332c2b-ao-15" height="34.61539" width="78.20513" y="947.51294" x="156.41022" stroke="#2D2D2D" fill="#007fff"/>
  <rect id="eeab0d90eb344d20bf73546a02332c2b-ao-16" height="52.56411" width="110.25642" y="811.6155" x="138.4615" stroke="#2D2D2D" fill="#007fff"/>
  <rect id="eeab0d90eb344d20bf73546a02332c2b-ao-17" height="26.92308" width="89.74359" y="697.51293" x="161.53843" stroke="#2D2D2D" fill="#007fff"/>
  <rect id="eeab0d90eb344d20bf73546a02332c2b-ao-18" height="20.51282" width="112.82052" y="652.64113" x="137.17945" stroke="#2D2D2D" fill="#007fff"/>
  <rect id="eeab0d90eb344d20bf73546a02332c2b-ao-19" height="35.89744" width="132.05129" y="592.38472" x="142.30766" stroke="#2D2D2D" fill="#007fff"/>
  <rect id="eeab0d90eb344d20bf73546a02332c2b-ao-20" height="46.15385" width="141.02565" y="528.28215" x="141.02561" stroke="#2D2D2D" fill="#007fff"/>
  <rect id="eeab0d90eb344d20bf73546a02332c2b-ao-21" height="44.8718" width="108.97436" y="459.05138" x="164.10253" stroke="#2D2D2D" fill="#007fff"/>
  <rect id="eeab0d90eb344d20bf73546a02332c2b-ao-22" height="46.15385" width="147.4359" y="373.15394" x="146.15381" stroke="#2D2D2D" fill="#007fff"/>
  <rect id="eeab0d90eb344d20bf73546a02332c2b-ao-23" height="55.12821" width="128.20513" y="275.71804" x="220.51279" stroke="#2D2D2D" fill="#007fff"/>
  <rect id="eeab0d90eb344d20bf73546a02332c2b-ao-24" height="55.12821" width="139.7436" y="179.56419" x="249.99997" stroke="#2D2D2D" fill="#007fff"/>
 </g>
</svg>