<svg xmlns="http://www.w3.org/2000/svg" width="1600" height="1489">
 <!-- Created with Image Occlusion Enhanced -->
 <g>
  <title>Labels</title>
 </g>
 <g>
  <title>Masks</title>
  <rect id="f46db0adb1284629a68acd98bb465ae4-ao-1" height="46.15385" width="148.71795" y="363.30761" x="177.69231" stroke="#2D2D2D" fill="#007fff"/>
  <rect id="f46db0adb1284629a68acd98bb465ae4-ao-2" height="52.5641" width="106.41026" y="440.23068" x="202.05128" stroke="#2D2D2D" fill="#007fff"/>
  <rect id="f46db0adb1284629a68acd98bb465ae4-ao-3" height="44.87179" width="119.23077" y="510.74351" x="166.15385" stroke="#2D2D2D" fill="#007fff"/>
  <rect id="f46db0adb1284629a68acd98bb465ae4-ao-4" height="25.64103" width="116.66667" y="576.12812" x="163.58974" stroke="#2D2D2D" fill="#007fff"/>
  <rect id="f46db0adb1284629a68acd98bb465ae4-ao-5" height="43.58974" width="169.23077" y="619.71786" x="113.58974" stroke="#2D2D2D" fill="#007fff"/>
  <rect id="f46db0adb1284629a68acd98bb465ae4-ao-6" height="42.30769" width="133.33333" y="685.10248" x="150.76923" stroke="#2D2D2D" fill="#007fff"/>
  <rect id="f46db0adb1284629a68acd98bb465ae4-ao-7" height="41.02564" width="142.30769" y="753.0512" x="148.20513" stroke="#2D2D2D" fill="#007fff"/>
  <rect id="f46db0adb1284629a68acd98bb465ae4-ao-8" height="42.30769" width="111.53846" y="819.71786" x="172.5641" stroke="#2D2D2D" fill="#007fff"/>
  <rect id="f46db0adb1284629a68acd98bb465ae4-ao-9" height="29.48718" width="130.76923" y="881.25633" x="154.61538" stroke="#2D2D2D" fill="#007fff"/>
  <rect id="f46db0adb1284629a68acd98bb465ae4-ao-10" height="47.4359" width="146.15385" y="924.84607" x="136.66667" stroke="#2D2D2D" fill="#007fff"/>
  <rect id="f46db0adb1284629a68acd98bb465ae4-ao-11" height="51.28205" width="132.05128" y="994.07684" x="155.89744" stroke="#2D2D2D" fill="#007fff"/>
  <rect id="f46db0adb1284629a68acd98bb465ae4-ao-12" height="28.20513" width="96.15385" y="1070.99992" x="214.87179" stroke="#2D2D2D" fill="#007fff"/>
  <rect id="f46db0adb1284629a68acd98bb465ae4-ao-13" height="26.92308" width="92.30769" y="1117.15376" x="243.07692" stroke="#2D2D2D" fill="#007fff"/>
  <rect id="f46db0adb1284629a68acd98bb465ae4-ao-14" height="32.05128" width="150" y="1254.33325" x="231.53846" stroke="#2D2D2D" fill="#007fff"/>
  <rect id="f46db0adb1284629a68acd98bb465ae4-ao-15" height="25.64103" width="152.5641" y="1310.74351" x="262.30769" stroke="#2D2D2D" fill="#007fff"/>
  <rect id="f46db0adb1284629a68acd98bb465ae4-ao-16" height="50" width="144.87179" y="1305.6153" x="1178.97436" stroke="#2D2D2D" fill="#007fff"/>
  <rect id="f46db0adb1284629a68acd98bb465ae4-ao-17" height="67.94872" width="192.30769" y="1209.46145" x="1208.46154" stroke="#2D2D2D" fill="#007fff"/>
  <rect id="f46db0adb1284629a68acd98bb465ae4-ao-18" height="21.79487" width="103.84615" y="1162.02556" x="1204.61538" stroke="#2D2D2D" fill="#007fff"/>
  <rect id="f46db0adb1284629a68acd98bb465ae4-ao-19" height="28.20513" width="71.79487" y="1117.15376" x="1234.10256" stroke="#2D2D2D" fill="#007fff"/>
  <rect id="f46db0adb1284629a68acd98bb465ae4-ao-20" height="29.48718" width="117.94872" y="1072.28197" x="1262.30769" stroke="#2D2D2D" fill="#007fff"/>
  <rect id="f46db0adb1284629a68acd98bb465ae4-ao-21" height="24.35897" width="107.69231" y="985.10248" x="1287.94872" stroke="#2D2D2D" fill="#007fff"/>
  <rect id="f46db0adb1284629a68acd98bb465ae4-ao-22" height="53.84615" width="132.05128" y="127.41017" x="1178.97436" stroke="#2D2D2D" fill="#007fff"/>
  <rect id="f46db0adb1284629a68acd98bb465ae4-ao-23" height="32.05128" width="97.4359" y="342.79479" x="1267.4359" stroke="#2D2D2D" fill="#007fff"/>
  <rect id="f46db0adb1284629a68acd98bb465ae4-ao-24" height="32.05128" width="92.30769" y="394.07684" x="1271.28205" stroke="#2D2D2D" fill="#007fff"/>
  <rect id="f46db0adb1284629a68acd98bb465ae4-ao-25" height="50" width="167.94872" y="441.51274" x="1291.79487" stroke="#2D2D2D" fill="#007fff"/>
  <rect id="f46db0adb1284629a68acd98bb465ae4-ao-26" height="35.89744" width="171.79487" y="505.6153" x="1277.69231" stroke="#2D2D2D" fill="#007fff"/>
  
  <rect id="f46db0adb1284629a68acd98bb465ae4-ao-28" height="41.02564" width="162.82051" y="599.20504" x="1282.82051" stroke="#2D2D2D" fill="#007fff"/>
  <rect id="f46db0adb1284629a68acd98bb465ae4-ao-29" height="30.76923" width="94.87179" y="647.92299" x="1282.82051" stroke="#2D2D2D" fill="#007fff"/>
  <rect id="f46db0adb1284629a68acd98bb465ae4-ao-30" height="34.61538" width="165.38462" y="687.66658" x="1277.69231" stroke="#2D2D2D" fill="#007fff"/>
  <rect id="f46db0adb1284629a68acd98bb465ae4-ao-31" height="30.76923" width="153.84615" y="738.94863" x="1277.69231" stroke="#2D2D2D" fill="#007fff"/>
  <rect id="f46db0adb1284629a68acd98bb465ae4-ao-32" height="48.71795" width="138.46154" y="785.10248" x="1282.82051" stroke="#2D2D2D" fill="#007fff"/>
  <rect id="f46db0adb1284629a68acd98bb465ae4-ao-33" height="48.71795" width="142.30769" y="862.02556" x="1280.25641" stroke="#2D2D2D" fill="#007fff"/>
 </g>
</svg>