<?xml version="1.0" encoding="UTF-8" standalone="no"?>
<svg xmlns:inkscape="http://www.inkscape.org/namespaces/inkscape" xmlns:sodipodi="http://sodipodi.sourceforge.net/DTD/sodipodi-0.dtd" xmlns="http://www.w3.org/2000/svg" xmlns:svg="http://www.w3.org/2000/svg" xmlns:rdf="http://www.w3.org/1999/02/22-rdf-syntax-ns#" xmlns:cc="http://creativecommons.org/ns#" xmlns:dc="http://purl.org/dc/elements/1.1/" version="1.2" width="820.01" height="484.34" id="svg2" sodipodi:docname=".svg" inkscape:version="1.3 (0e150ed6c4, 2023-07-21)">
  <sodipodi:namedview id="namedview1" pagecolor="#ffffff" bordercolor="#000000" borderopacity="0.25" inkscape:showpageshadow="2" inkscape:pageopacity="0.0" inkscape:pagecheckerboard="0" inkscape:deskcolor="#d1d1d1" showgrid="false" inkscape:zoom="1" inkscape:cx="468" inkscape:cy="359.5" inkscape:window-width="1920" inkscape:window-height="1009" inkscape:window-x="-8" inkscape:window-y="-8" inkscape:window-maximized="1" inkscape:current-layer="switch5"/>
  <defs id="defs4"/>
  <metadata id="metadata7">
    <rdf:RDF>
      <cc:Work rdf:about="">
        <dc:format>image/svg+xml</dc:format>
        <dc:type rdf:resource="http://purl.org/dc/dcmitype/StillImage"/>
        <dc:title/>
      </cc:Work>
    </rdf:RDF>
  </metadata>
  <g transform="translate(2030.3,-722.74)" id="layer1">
    <flowRoot id="flowRoot3529" xml:space="preserve" style="font-size:12px;font-style:normal;font-weight:normal;fill:#000000;fill-opacity:1;stroke:none;font-family:Bitstream Vera Sans"><flowRegion id="flowRegion3531"><rect width="141.42" height="14.142" x="-107.08" y="436.17" id="rect3533"/></flowRegion><flowPara id="flowPara3535"/></flowRoot>
    <g id="g4006">
      <switch style="font-size:22.99px;line-height:1.25;font-family:arial;text-decoration-color:#000000;white-space:pre;fill:#000000;stroke-width:0;stroke-miterlimit:1;stop-color:#000000" id="switch1">
        <text xml:space="preserve" style="font-size:22.99px;line-height:1.25;font-family:arial;text-decoration-color:#000000;white-space:pre;fill:#000000;stroke-width:0;stroke-miterlimit:1;stop-color:#000000" x="-1525.3737" y="926.93097" id="text9-en" systemLanguage="en"><tspan id="trsvg1-en">Pentose</tspan></text>
        <text xml:space="preserve" style="font-size:22.99px;line-height:1.25;font-family:arial;text-decoration-color:#000000;white-space:pre;fill:#000000;stroke-width:0;stroke-miterlimit:1;stop-color:#000000" x="-1525.3737" y="926.93097" id="text9-hu" systemLanguage="hu"><tspan id="trsvg1-hu">Pentóz</tspan></text>
        
      <text xml:space="preserve" style="font-size:22.99px;line-height:1.25;font-family:arial;text-decoration-color:#000000;white-space:pre;fill:#000000;stroke-width:0;stroke-miterlimit:1;stop-color:#000000" x="-1525.3737" y="926.93097" id="text9-fr" systemLanguage="fr"><tspan id="trsvg1-fr">Pentose</tspan></text><text xml:space="preserve" style="font-size:22.99px;line-height:1.25;font-family:arial;text-decoration-color:#000000;white-space:pre;fill:#000000;stroke-width:0;stroke-miterlimit:1;stop-color:#000000" x="-1525.3737" y="926.93097" id="text9"><tspan id="trsvg1">Pentose</tspan></text></switch>
      <g id="text3074-5-7-1-2-3-7-2" style="font-size:22.99026px;font-style:normal;font-variant:normal;font-weight:normal;font-stretch:normal;text-align:start;line-height:125%;writing-mode:lr-tb;text-anchor:start;fill:#000000;fill-opacity:1;stroke:none;font-family:Arial;-inkscape-font-specification:Arial"/>
      <path d="m -1928.3,839.63 0,-10.49 1.5,0 1.3,0 0,4.34 0,4.34 5.5,0 5.4,0 0,-4.34 0,-4.34 1.5,0 1.4,0 0,10.49 0,10.5 -1.4,0 -1.5,0 0,-4.89 0,-4.88 -5.4,0 -5.5,0 0,4.88 0,4.89 -1.3,0 -1.5,0 0,-10.5 z" id="path2908" style="fill:#d40000"/>
      <path d="m -1832.8,839.63 0,-10.49 1.4,0 1.5,0 0,4.34 0,4.34 5.4,0 5.4,0 0,-4.34 0,-4.34 1.5,0 1.4,0 0,10.49 0,10.5 -1.4,0 -1.5,0 0,-4.89 0,-4.88 -5.4,0 -5.4,0 0,4.88 0,4.89 -1.5,0 -1.4,0 0,-10.5 z" id="path2906" style="fill:#008000"/>
      <path d="m -1736.9,839.63 0,-10.49 1.4,0 1.4,0 0,4.34 0,4.34 5.5,0 5.4,0 0,-4.34 0,-4.34 1.4,0 1.5,0 0,10.49 0,10.5 -1.5,0 -1.4,0 0,-4.89 0,-4.88 -5.4,0 -5.5,0 0,4.88 0,4.89 -1.4,0 -1.4,0 0,-10.5 z" id="path2904" style="fill:#0000ff"/>
      <path d="m -1942.8,815.94 0,-10.68 1.1,0 1,0 0,10.68 0,10.67 -1,0 -1.1,0 0,-10.67 z" id="path2902" style="fill:#d40000"/>
      <path d="m -1846.9,815.76 0,-10.86 1.1,0 1.1,0 0,10.86 0,10.85 -1.1,0 -1.1,0 0,-10.85 z" id="path2900" style="fill:#008000"/>
      <path d="m -1751.1,815.76 0,-10.86 0.9,0 0.9,0 0,10.86 0,10.85 -0.9,0 -0.9,0 0,-10.85 z" id="path2898" style="fill:#0000ff"/>
      <path d="m -2019.5,791.88 0,-10.49 1.4,0 1.5,0 0,4.34 0,4.35 5.4,0 5.5,0 0,-4.35 0,-4.34 1.4,0 1.4,0 0,10.49 0,10.49 -1.4,0 -1.4,0 0,-4.88 0,-4.89 -5.5,0 -5.4,0 0,4.89 0,4.88 -1.5,0 -1.4,0 0,-10.49 z" id="path2880" style="fill:#d40000"/>
      <path d="m -1976.8,791.15 0,-1.07 12.3,0 12.3,0 0,1.07 0,1.09 -12.3,0 -12.3,0 0,-1.09 z" id="path2866" style="fill:#d40000"/>
      <path d="m -1931.2,791.15 0,-1.07 12.3,0 12.2,0 0,1.07 0,1.09 -12.2,0 -12.3,0 0,-1.09 z" id="path2864" style="fill:#d40000"/>
      <path d="m -1880.6,791.15 0,-1.07 11.8,0 11.7,0 0,1.07 0,1.09 -11.7,0 -11.8,0 0,-1.09 z" id="path2862" style="fill:#008000"/>
      <path d="m -1835,791.15 0,-1.07 11.9,0 12,0 0,1.07 0,1.09 -12,0 -11.9,0 0,-1.09 z" id="path2860" style="fill:#008000"/>
      <path d="m -1785.1,791.15 0,-1.07 12,0 11.9,0 0,1.07 0,1.09 -11.9,0 -12,0 0,-1.09 z" id="path2858" style="fill:#0000ff"/>
      <path d="m -1739.5,791.15 0,-1.07 12.3,0 12.3,0 0,1.07 0,1.09 -12.3,0 -12.3,0 0,-1.09 z" id="path2856" style="fill:#0000ff"/>
      <path d="m -1946.4,768.36 0,-10.84 1,0 1.1,0 0,10.84 0,10.86 -1.1,0 -1,0 0,-10.86 z" id="path2854" style="fill:#d40000"/>
      <path d="m -1939.2,768.36 0,-10.84 1.1,0 1.1,0 0,10.84 0,10.86 -1.1,0 -1.1,0 0,-10.86 z" id="path2852" style="fill:#d40000"/>
      <path d="m -1850.5,768.19 0,-10.67 1.1,0 1,0 0,10.67 0,10.67 -1,0 -1.1,0 0,-10.67 z" id="path2850" style="fill:#008000"/>
      <path d="m -1843.4,768.19 0,-10.67 1.2,0 1.1,0 0,10.67 0,10.67 -1.1,0 -1.2,0 0,-10.67 z" id="path2848" style="fill:#008000"/>
      <path d="m -1754.7,768.19 0,-10.67 0.9,0 0.9,0 0,10.67 0,10.67 -0.9,0 -0.9,0 0,-10.67 z" id="path2846" style="fill:#0000ff"/>
      <path d="m -1747.8,768.19 0,-10.67 1.1,0 1,0 0,10.67 0,10.67 -1,0 -1.1,0 0,-10.67 z" id="path2844" style="fill:#0000ff"/>
      <path d="m -1534,817.55 1,0 0,26.84 0,26.85 -1,0 -1.1,0 0,-26.85 0,-26.84 1.1,0 z" id="path2856-7" style="fill:#800080"/>
      <path d="m -1564.8,946.48 0,-18.81 -32.3,0 -32.5,0 0,18.27 0,18.27 -0.9,0 -0.8,0 0,-15.52 0,-15.49 -15.2,-31.14 -15.2,-31.12 0,-27.85 0,-27.85 -14,-8.08 c -7.8,-4.41 -14.3,-8.17 -14.5,-8.38 -0.6,-0.47 0.1,-1.82 0.9,-1.6 0.4,0.1 7.2,3.95 15.2,8.57 l 14.6,8.4 0,27.61 0.2,27.55 25.2,-12.4 c 13.9,-6.84 25.4,-12.42 25.4,-12.34 0,0 0.3,0.43 0.4,0.87 0.5,0.8 0.1,0.98 -11.2,6.55 -35.9,17.65 -39.4,19.39 -39.2,19.86 0.1,0.29 7.3,11.57 16,25.07 l 15.8,24.6 29.9,0 29.9,0 15.9,-25.04 c 8.6,-13.78 15.6,-25.07 15.5,-25.14 -1.5,-0.58 -48.1,-24.63 -48.1,-24.92 -0.1,-0.18 0,-0.62 0.3,-0.95 0.4,-0.57 2.7,0.51 24.2,11.48 13,6.69 23.7,12.11 23.9,12.11 l 2.5,2.17 -14.8,30.94 -14.9,30.92 0,16.1 0,16.14 -1.1,0 -1.1,0 0,-18.81 0,0 z" id="path2926-4" style="fill:#000000"/>
      <g id="text3074" style="font-size:28.28155px;font-style:normal;font-variant:normal;font-weight:normal;font-stretch:normal;text-align:start;line-height:125%;writing-mode:lr-tb;text-anchor:start;fill:#000000;fill-opacity:1;stroke:none;font-family:Arial;-inkscape-font-specification:Arial">
        <path d="m -1640.7,977.77 c 0,-3.36 0.9,-5.99 2.7,-7.89 1.8,-1.9 4.1,-2.85 7,-2.85 1.8,0 3.5,0.44 5,1.34 1.5,0.89 2.7,2.13 3.5,3.73 0.7,1.6 1.1,3.41 1.1,5.44 0,2.05 -0.4,3.89 -1.2,5.51 -0.8,1.62 -2,2.84 -3.5,3.68 -1.6,0.83 -3.2,1.25 -4.9,1.25 -2,0 -3.7,-0.47 -5.2,-1.39 -1.5,-0.92 -2.6,-2.17 -3.4,-3.77 -0.7,-1.59 -1.1,-3.27 -1.1,-5.05 z m 2.7,0 c 0,2.44 0.7,4.36 2,5.77 1.3,1.4 3,2.1 4.9,2.1 2.1,0 3.7,-0.71 5,-2.12 1.3,-1.42 2,-3.43 2,-6.04 0,-1.65 -0.3,-3.08 -0.9,-4.31 -0.5,-1.23 -1.3,-2.19 -2.4,-2.86 -1.1,-0.68 -2.3,-1.02 -3.6,-1.02 -1.9,0 -3.5,0.65 -4.9,1.96 -1.4,1.3 -2.1,3.47 -2.1,6.52 z" id="path4657"/>
        <path d="m -1617.8,987.63 0,-20.24 2.6,0 0,8.31 10.6,0 0,-8.31 2.6,0 0,20.24 -2.6,0 0,-9.54 -10.6,0 0,9.54 z" id="path4659"/>
      </g>
      <g id="text3074-5" style="font-size:29.30257px;font-style:normal;font-variant:normal;font-weight:normal;font-stretch:normal;text-align:start;line-height:125%;writing-mode:lr-tb;text-anchor:start;fill:#000000;fill-opacity:1;stroke:none;font-family:Arial;-inkscape-font-specification:Arial">
        <path d="m -1573.2,988.61 0,-20.98 9.3,0 c 1.9,0 3.3,0.19 4.2,0.57 1,0.37 1.8,1.04 2.4,1.99 0.6,0.96 0.9,2.01 0.9,3.17 0,1.48 -0.5,2.74 -1.5,3.76 -1,1.02 -2.4,1.67 -4.5,1.94 0.8,0.36 1.3,0.71 1.7,1.05 0.8,0.74 1.6,1.67 2.3,2.79 l 3.7,5.71 -3.5,0 -2.8,-4.37 c -0.8,-1.25 -1.5,-2.22 -2,-2.89 -0.5,-0.66 -1,-1.13 -1.4,-1.4 -0.4,-0.27 -0.8,-0.45 -1.3,-0.56 -0.3,-0.1 -0.8,-0.1 -1.5,-0.1 l -3.2,0 0,9.32 z m 2.8,-11.72 5.9,0 c 1.3,0 2.3,-0.13 3,-0.39 0.7,-0.27 1.3,-0.69 1.6,-1.26 0.4,-0.58 0.6,-1.21 0.6,-1.88 0,-1 -0.4,-1.81 -1.1,-2.45 -0.7,-0.64 -1.8,-0.96 -3.4,-0.96 l -6.6,0 z" id="path4654"/>
      </g>
      <g id="text3074-5-7" style="font-size:29.30257px;font-style:normal;font-variant:normal;font-weight:normal;font-stretch:normal;text-align:start;line-height:125%;writing-mode:lr-tb;text-anchor:start;fill:#000000;fill-opacity:1;stroke:none;font-family:Arial;-inkscape-font-specification:Arial">
        <path d="m -1606.7,840.44 c 0,-3.49 1,-6.21 2.8,-8.18 1.9,-1.97 4.3,-2.96 7.3,-2.96 1.9,0 3.7,0.47 5.2,1.39 1.6,0.93 2.8,2.22 3.6,3.87 0.8,1.66 1.2,3.53 1.2,5.63 0,2.13 -0.4,4.03 -1.3,5.71 -0.9,1.68 -2.1,2.95 -3.6,3.81 -1.6,0.87 -3.3,1.3 -5.1,1.3 -2,0 -3.8,-0.48 -5.3,-1.43 -1.6,-0.96 -2.8,-2.26 -3.6,-3.91 -0.8,-1.65 -1.2,-3.39 -1.2,-5.23 z m 2.9,0 c 0,2.53 0.7,4.52 2,5.97 1.4,1.46 3.1,2.18 5.2,2.18 2,0 3.8,-0.73 5.1,-2.2 1.4,-1.47 2,-3.55 2,-6.25 0,-1.71 -0.3,-3.2 -0.8,-4.47 -0.6,-1.28 -1.5,-2.26 -2.6,-2.97 -1.1,-0.7 -2.3,-1.05 -3.7,-1.05 -2,0 -3.7,0.68 -5.1,2.03 -1.4,1.35 -2.1,3.6 -2.1,6.76 z" id="path4651"/>
      </g>
      <g id="text3074-5-7-1-2" style="font-size:29.30257px;font-style:normal;font-variant:normal;font-weight:normal;font-stretch:normal;text-align:start;line-height:125%;writing-mode:lr-tb;text-anchor:start;fill:#0000ff;fill-opacity:1;stroke:none;font-family:Arial;-inkscape-font-specification:Arial">
        <path d="m -1760.4,839.74 c 0,-3.49 1,-6.21 2.9,-8.18 1.8,-1.97 4.2,-2.96 7.2,-2.96 1.9,0 3.7,0.47 5.2,1.39 1.6,0.93 2.8,2.22 3.6,3.87 0.8,1.66 1.2,3.53 1.2,5.63 0,2.13 -0.4,4.03 -1.3,5.71 -0.8,1.68 -2.1,2.95 -3.6,3.82 -1.6,0.86 -3.3,1.29 -5.1,1.29 -2,0 -3.8,-0.48 -5.3,-1.43 -1.6,-0.95 -2.7,-2.26 -3.5,-3.91 -0.9,-1.65 -1.3,-3.39 -1.3,-5.23 z m 2.9,0 c 0,2.53 0.7,4.52 2,5.97 1.4,1.46 3.1,2.18 5.2,2.18 2.1,0 3.8,-0.73 5.1,-2.2 1.4,-1.47 2,-3.55 2,-6.25 0,-1.71 -0.2,-3.2 -0.8,-4.47 -0.6,-1.28 -1.4,-2.26 -2.6,-2.96 -1.1,-0.71 -2.3,-1.06 -3.7,-1.06 -2,0 -3.6,0.68 -5.1,2.03 -1.4,1.35 -2.1,3.6 -2.1,6.76 z" id="path4648"/>
      </g>
      <g id="text3074-5-7-1-2-2" style="font-size:29.30257px;font-style:normal;font-variant:normal;font-weight:normal;font-stretch:normal;text-align:start;line-height:125%;writing-mode:lr-tb;text-anchor:start;fill:#008000;fill-opacity:1;stroke:none;font-family:Arial;-inkscape-font-specification:Arial">
        <path d="m -1856.2,839.99 c 0,-3.48 0.9,-6.2 2.8,-8.17 1.8,-1.97 4.2,-2.96 7.2,-2.96 1.9,0 3.7,0.47 5.2,1.39 1.6,0.93 2.8,2.22 3.6,3.87 0.8,1.66 1.2,3.53 1.2,5.63 0,2.13 -0.4,4.03 -1.3,5.71 -0.8,1.68 -2,2.95 -3.6,3.81 -1.6,0.87 -3.3,1.3 -5.1,1.3 -2,0 -3.8,-0.48 -5.3,-1.43 -1.6,-0.96 -2.7,-2.26 -3.5,-3.91 -0.8,-1.65 -1.2,-3.39 -1.2,-5.24 z m 2.8,0 c 0,2.53 0.7,4.52 2.1,5.97 1.3,1.46 3,2.18 5.1,2.18 2.1,0 3.8,-0.73 5.1,-2.2 1.4,-1.47 2.1,-3.55 2.1,-6.25 0,-1.71 -0.3,-3.2 -0.9,-4.47 -0.6,-1.28 -1.4,-2.26 -2.5,-2.97 -1.2,-0.7 -2.4,-1.05 -3.8,-1.05 -1.9,0 -3.6,0.68 -5.1,2.03 -1.4,1.35 -2.1,3.6 -2.1,6.76 z" id="path4645"/>
      </g>
      <g id="text3074-5-7-1-2-2-2" style="font-size:29.30257px;font-style:normal;font-variant:normal;font-weight:normal;font-stretch:normal;text-align:start;line-height:125%;writing-mode:lr-tb;text-anchor:start;fill:#d40000;fill-opacity:1;stroke:none;font-family:Arial;-inkscape-font-specification:Arial">
        <path d="m -1951.6,839.99 c 0,-3.48 0.9,-6.2 2.8,-8.17 1.9,-1.97 4.3,-2.96 7.3,-2.96 1.9,0 3.6,0.47 5.2,1.39 1.5,0.93 2.7,2.22 3.5,3.87 0.9,1.66 1.3,3.53 1.3,5.63 0,2.13 -0.5,4.03 -1.3,5.71 -0.9,1.68 -2.1,2.95 -3.7,3.81 -1.5,0.87 -3.2,1.3 -5.1,1.3 -1.9,0 -3.7,-0.48 -5.3,-1.43 -1.5,-0.96 -2.7,-2.26 -3.5,-3.91 -0.8,-1.65 -1.2,-3.39 -1.2,-5.24 z m 2.9,0 c 0,2.53 0.6,4.52 2,5.97 1.4,1.46 3.1,2.18 5.1,2.18 2.1,0 3.8,-0.73 5.2,-2.2 1.3,-1.47 2,-3.55 2,-6.25 0,-1.71 -0.3,-3.2 -0.9,-4.47 -0.5,-1.28 -1.4,-2.26 -2.5,-2.97 -1.1,-0.7 -2.4,-1.05 -3.7,-1.05 -2,0 -3.7,0.68 -5.1,2.03 -1.4,1.35 -2.1,3.6 -2.1,6.76 z" id="path4642"/>
      </g>
      <g id="text3074-5-7-1-2-2-2-1" style="font-size:29.30257px;font-style:normal;font-variant:normal;font-weight:normal;font-stretch:normal;text-align:start;line-height:125%;writing-mode:lr-tb;text-anchor:start;fill:#d40000;fill-opacity:1;stroke:none;font-family:Arial;-inkscape-font-specification:Arial">
        <path d="m -1951.9,743.87 c 0,-3.48 1,-6.21 2.9,-8.18 1.8,-1.97 4.2,-2.95 7.2,-2.95 1.9,0 3.7,0.46 5.2,1.39 1.6,0.92 2.8,2.21 3.6,3.87 0.8,1.65 1.2,3.53 1.2,5.63 0,2.12 -0.4,4.03 -1.3,5.71 -0.8,1.68 -2.1,2.95 -3.6,3.81 -1.6,0.86 -3.3,1.29 -5.1,1.29 -2,0 -3.8,-0.47 -5.3,-1.43 -1.6,-0.95 -2.7,-2.25 -3.5,-3.9 -0.8,-1.65 -1.3,-3.4 -1.3,-5.24 z m 2.9,0 c 0,2.53 0.7,4.52 2,5.98 1.4,1.45 3.1,2.18 5.2,2.18 2.1,0 3.8,-0.74 5.1,-2.2 1.4,-1.47 2,-3.56 2,-6.26 0,-1.7 -0.2,-3.19 -0.8,-4.47 -0.6,-1.27 -1.4,-2.26 -2.6,-2.96 -1.1,-0.7 -2.3,-1.05 -3.7,-1.05 -2,0 -3.6,0.67 -5.1,2.02 -1.4,1.35 -2.1,3.61 -2.1,6.76 z" id="path4639"/>
      </g>
      <g id="text3074-5-7-1-2-2-2-1-8" style="font-size:29.30257px;font-style:normal;font-variant:normal;font-weight:normal;font-stretch:normal;text-align:start;line-height:125%;writing-mode:lr-tb;text-anchor:start;fill:#008000;fill-opacity:1;stroke:none;font-family:Arial;-inkscape-font-specification:Arial">
        <path d="m -1856.2,744.13 c 0,-3.48 0.9,-6.21 2.8,-8.18 1.8,-1.97 4.2,-2.95 7.2,-2.95 1.9,0 3.7,0.46 5.2,1.39 1.6,0.92 2.8,2.21 3.6,3.87 0.8,1.65 1.2,3.53 1.2,5.63 0,2.12 -0.4,4.03 -1.3,5.7 -0.8,1.68 -2,2.95 -3.6,3.82 -1.6,0.86 -3.3,1.29 -5.1,1.29 -2,0 -3.8,-0.47 -5.3,-1.43 -1.6,-0.95 -2.7,-2.25 -3.5,-3.9 -0.8,-1.65 -1.2,-3.4 -1.2,-5.24 z m 2.8,0 c 0,2.53 0.7,4.52 2.1,5.98 1.3,1.45 3,2.18 5.1,2.18 2.1,0 3.8,-0.74 5.1,-2.21 1.4,-1.46 2.1,-3.55 2.1,-6.25 0,-1.71 -0.3,-3.2 -0.9,-4.47 -0.6,-1.27 -1.4,-2.26 -2.5,-2.96 -1.2,-0.7 -2.4,-1.05 -3.8,-1.05 -1.9,0 -3.6,0.67 -5.1,2.02 -1.4,1.35 -2.1,3.6 -2.1,6.76 z" id="path4636"/>
      </g>
      <g id="text3074-5-7-1-2-2-2-1-6" style="font-size:29.30257px;font-style:normal;font-variant:normal;font-weight:normal;font-stretch:normal;text-align:start;line-height:125%;writing-mode:lr-tb;text-anchor:start;fill:#0000ff;fill-opacity:1;stroke:none;font-family:Arial;-inkscape-font-specification:Arial">
        <path d="m -1760.4,744.13 c 0,-3.48 1,-6.21 2.8,-8.18 1.9,-1.97 4.3,-2.95 7.3,-2.95 1.9,0 3.6,0.46 5.2,1.39 1.6,0.92 2.7,2.21 3.6,3.87 0.8,1.65 1.2,3.53 1.2,5.63 0,2.12 -0.4,4.03 -1.3,5.7 -0.9,1.68 -2.1,2.95 -3.7,3.82 -1.5,0.86 -3.2,1.29 -5,1.29 -2,0 -3.8,-0.47 -5.3,-1.43 -1.6,-0.95 -2.8,-2.25 -3.6,-3.9 -0.8,-1.65 -1.2,-3.4 -1.2,-5.24 z m 2.9,0 c 0,2.53 0.7,4.52 2,5.98 1.4,1.45 3.1,2.18 5.1,2.18 2.1,0 3.8,-0.74 5.2,-2.21 1.3,-1.46 2,-3.55 2,-6.25 0,-1.71 -0.3,-3.2 -0.8,-4.47 -0.6,-1.27 -1.5,-2.26 -2.6,-2.96 -1.1,-0.7 -2.3,-1.05 -3.7,-1.05 -2,0 -3.7,0.67 -5.1,2.02 -1.4,1.35 -2.1,3.6 -2.1,6.76 z" id="path4633"/>
      </g>
      <g id="text3074-5-7-1-2-2-2-1-89" style="font-size:29.30257px;font-style:normal;font-variant:normal;font-weight:normal;font-stretch:normal;text-align:start;line-height:125%;writing-mode:lr-tb;text-anchor:start;fill:#008000;fill-opacity:1;stroke:none;font-family:Arial;-inkscape-font-specification:Arial">
        <path d="m -1904,791.93 c 0,-3.48 0.9,-6.2 2.8,-8.17 1.8,-1.97 4.2,-2.96 7.2,-2.96 1.9,0 3.7,0.46 5.2,1.39 1.6,0.92 2.8,2.21 3.6,3.87 0.8,1.65 1.2,3.53 1.2,5.63 0,2.13 -0.4,4.03 -1.3,5.71 -0.8,1.68 -2,2.95 -3.6,3.81 -1.6,0.86 -3.3,1.3 -5.1,1.3 -2,0 -3.8,-0.48 -5.3,-1.43 -1.6,-0.96 -2.7,-2.26 -3.5,-3.91 -0.8,-1.65 -1.2,-3.4 -1.2,-5.24 z m 2.8,0.1 c 0,2.52 0.7,4.51 2.1,5.97 1.3,1.45 3,2.18 5.1,2.18 2.1,0 3.8,-0.73 5.1,-2.2 1.4,-1.47 2.1,-3.56 2.1,-6.25 0,-1.71 -0.3,-3.2 -0.9,-4.48 -0.6,-1.27 -1.4,-2.26 -2.5,-2.96 -1.2,-0.7 -2.4,-1.05 -3.8,-1.05 -2,0 -3.6,0.68 -5.1,2.03 -1.4,1.34 -2.1,3.6 -2.1,6.76 z" id="path4630"/>
      </g>
      <g id="text3074-5-7-1-2-2-2-1-89-7" style="font-size:29.30257px;font-style:normal;font-variant:normal;font-weight:normal;font-stretch:normal;text-align:start;line-height:125%;writing-mode:lr-tb;text-anchor:start;fill:#d40000;fill-opacity:1;stroke:none;font-family:Arial;-inkscape-font-specification:Arial">
        <path d="m -1999.4,792.19 c 0,-3.48 0.9,-6.21 2.8,-8.18 1.9,-1.97 4.3,-2.95 7.2,-2.95 2,0 3.7,0.46 5.3,1.39 1.5,0.92 2.7,2.21 3.5,3.87 0.9,1.65 1.3,3.53 1.3,5.63 0,2.13 -0.5,4.03 -1.3,5.71 -0.9,1.68 -2.1,2.95 -3.7,3.81 -1.5,0.86 -3.2,1.29 -5.1,1.29 -1.9,0 -3.7,-0.47 -5.3,-1.43 -1.5,-0.95 -2.7,-2.25 -3.5,-3.9 -0.8,-1.65 -1.2,-3.4 -1.2,-5.24 z m 2.9,0 c 0,2.53 0.6,4.52 2,5.98 1.4,1.45 3.1,2.18 5.1,2.18 2.1,0 3.8,-0.73 5.2,-2.2 1.3,-1.47 2,-3.56 2,-6.26 0,-1.7 -0.3,-3.19 -0.9,-4.47 -0.5,-1.27 -1.4,-2.26 -2.5,-2.96 -1.1,-0.7 -2.4,-1.05 -3.7,-1.05 -2,0 -3.7,0.67 -5.1,2.02 -1.4,1.35 -2.1,3.61 -2.1,6.76 z" id="path4627"/>
      </g>
      <g id="text3074-5-7-1-2-2-2-1-89-7-5" style="font-size:29.30257px;font-style:normal;font-variant:normal;font-weight:normal;font-stretch:normal;text-align:start;line-height:125%;writing-mode:lr-tb;text-anchor:start;fill:#0000ff;fill-opacity:1;stroke:none;font-family:Arial;-inkscape-font-specification:Arial">
        <path d="m -1808.4,792.19 c 0,-3.48 0.9,-6.21 2.8,-8.18 1.8,-1.97 4.2,-2.95 7.2,-2.95 1.9,0 3.7,0.46 5.2,1.39 1.6,0.92 2.8,2.21 3.6,3.87 0.8,1.65 1.2,3.53 1.2,5.63 0,2.13 -0.4,4.03 -1.3,5.71 -0.8,1.68 -2,2.95 -3.6,3.81 -1.6,0.86 -3.3,1.29 -5.1,1.29 -2,0 -3.7,-0.47 -5.3,-1.43 -1.6,-0.95 -2.7,-2.25 -3.5,-3.9 -0.8,-1.65 -1.2,-3.4 -1.2,-5.24 z m 2.8,0 c 0,2.53 0.7,4.52 2.1,5.98 1.3,1.45 3,2.18 5.1,2.18 2.1,0 3.8,-0.73 5.1,-2.2 1.4,-1.47 2.1,-3.56 2.1,-6.26 0,-1.7 -0.3,-3.19 -0.9,-4.47 -0.6,-1.27 -1.4,-2.26 -2.5,-2.96 -1.2,-0.7 -2.4,-1.05 -3.8,-1.05 -1.9,0 -3.6,0.67 -5.1,2.02 -1.4,1.35 -2.1,3.61 -2.1,6.76 z" id="path4624"/>
      </g>
      <g id="text3074-5-7-1-2-2-2-1-89-7-5-3" style="font-size:29.30257px;font-style:normal;font-variant:normal;font-weight:normal;font-stretch:normal;text-align:start;line-height:125%;writing-mode:lr-tb;text-anchor:start;fill:#000000;fill-opacity:1;stroke:none;font-family:Arial;-inkscape-font-specification:Arial">
        <path d="m -1712.3,792.19 c 0,-3.48 0.9,-6.21 2.8,-8.18 1.9,-1.97 4.3,-2.95 7.2,-2.95 2,0 3.7,0.46 5.3,1.39 1.5,0.92 2.7,2.21 3.5,3.87 0.8,1.65 1.2,3.53 1.2,5.63 0,2.13 -0.4,4.03 -1.2,5.71 -0.9,1.68 -2.1,2.95 -3.7,3.81 -1.6,0.86 -3.3,1.29 -5.1,1.29 -2,0 -3.7,-0.47 -5.3,-1.43 -1.5,-0.95 -2.7,-2.25 -3.5,-3.9 -0.8,-1.65 -1.2,-3.4 -1.2,-5.24 z m 2.8,0 c 0,2.53 0.7,4.52 2.1,5.98 1.3,1.45 3,2.18 5.1,2.18 2.1,0 3.8,-0.73 5.2,-2.2 1.3,-1.47 2,-3.56 2,-6.26 0,-1.7 -0.3,-3.19 -0.9,-4.47 -0.6,-1.27 -1.4,-2.26 -2.5,-2.96 -1.1,-0.7 -2.4,-1.05 -3.8,-1.05 -1.9,0 -3.6,0.67 -5,2.02 -1.4,1.35 -2.2,3.61 -2.2,6.76 z" id="path4621"/>
      </g>
      <g id="text3074-5-7-1-2-2-2-1-89-2" style="font-size:29.30257px;font-style:normal;font-variant:normal;font-weight:normal;font-stretch:normal;text-align:start;line-height:125%;writing-mode:lr-tb;text-anchor:start;fill:#d40000;fill-opacity:1;stroke:none;font-family:Arial;-inkscape-font-specification:Arial">
        <path d="m -1949.7,802.41 0,-20.98 7.9,0 c 1.4,0 2.5,0.1 3.2,0.2 1,0.17 1.9,0.5 2.6,0.98 0.7,0.48 1.2,1.16 1.7,2.03 0.4,0.86 0.6,1.82 0.6,2.86 0,1.78 -0.6,3.29 -1.7,4.53 -1.1,1.23 -3.2,1.85 -6.2,1.85 l -5.3,0 0,8.53 z m 2.8,-11.01 5.4,0 c 1.8,0 3.1,-0.33 3.8,-1 0.8,-0.66 1.1,-1.6 1.1,-2.82 0,-0.87 -0.2,-1.62 -0.6,-2.25 -0.5,-0.62 -1.1,-1.04 -1.8,-1.24 -0.5,-0.12 -1.3,-0.18 -2.6,-0.18 l -5.3,0 z" id="path4618"/>
      </g>
      <g id="text3074-5-7-1-2-2-2-1-89-2-3" style="font-size:29.30257px;font-style:normal;font-variant:normal;font-weight:normal;font-stretch:normal;text-align:start;line-height:125%;writing-mode:lr-tb;text-anchor:start;fill:#008000;fill-opacity:1;stroke:none;font-family:Arial;-inkscape-font-specification:Arial">
        <path d="m -1854.2,802.4 0,-20.98 7.9,0 c 1.4,0 2.5,0.1 3.2,0.2 1,0.18 1.9,0.5 2.6,0.98 0.7,0.49 1.2,1.16 1.7,2.03 0.4,0.87 0.6,1.82 0.6,2.86 0,1.78 -0.6,3.29 -1.7,4.53 -1.1,1.23 -3.2,1.85 -6.2,1.85 l -5.3,0 0,8.53 z m 2.8,-11 5.4,0 c 1.8,0 3,-0.34 3.8,-1 0.8,-0.67 1.1,-1.61 1.1,-2.82 0,-0.88 -0.2,-1.63 -0.6,-2.26 -0.5,-0.62 -1.1,-1.03 -1.8,-1.23 -0.5,-0.13 -1.3,-0.19 -2.6,-0.19 l -5.3,0 z" id="path4615"/>
      </g>
      <g id="text3074-5-7-1-2-2-2-1-89-2-3-1" style="font-size:29.30257px;font-style:normal;font-variant:normal;font-weight:normal;font-stretch:normal;text-align:start;line-height:125%;writing-mode:lr-tb;text-anchor:start;fill:#0000ff;fill-opacity:1;stroke:none;font-family:Arial;-inkscape-font-specification:Arial">
        <path d="m -1758.4,802.4 0,-20.98 8,0 c 1.4,0 2.4,0.1 3.2,0.2 1,0.18 1.8,0.5 2.5,0.98 0.7,0.49 1.3,1.16 1.7,2.03 0.4,0.87 0.7,1.82 0.7,2.86 0,1.78 -0.6,3.29 -1.7,4.53 -1.2,1.23 -3.2,1.85 -6.2,1.85 l -5.4,0 0,8.53 z m 2.8,-11 5.4,0 c 1.8,0 3.1,-0.34 3.9,-1 0.7,-0.67 1.1,-1.61 1.1,-2.82 0,-0.88 -0.2,-1.63 -0.7,-2.26 -0.4,-0.62 -1,-1.03 -1.7,-1.23 -0.5,-0.13 -1.4,-0.19 -2.6,-0.19 l -5.4,0 z" id="path4612"/>
      </g>
      <path d="m -1577.4,782.8 86.2,0 0,35.03 -86.2,0 z" id="rect3500" style="fill:#ffc680;fill-opacity:1;fill-rule:evenodd;stroke:#000000;stroke-width:1.84312;stroke-linecap:round;stroke-linejoin:round;stroke-miterlimit:4;stroke-opacity:1;stroke-dashoffset:0"/>
      <g id="text3074-5-7-1-2-3" style="font-size:29.30257px;font-style:normal;font-variant:normal;font-weight:normal;font-stretch:normal;text-align:start;line-height:125%;writing-mode:lr-tb;text-anchor:start;fill:#000000;fill-opacity:1;stroke:none;font-family:Arial;-inkscape-font-specification:Arial">
        <switch style="font-size:29.3043px;line-height:1;font-family:arial;text-decoration-color:#000000;fill:#000000;stroke-width:0;stroke-miterlimit:1;stop-color:#000000" id="switch2">
          <text xml:space="preserve" style="font-size:29.3043px;line-height:1;font-family:arial;text-decoration-color:#000000;fill:#000000;stroke-width:0;stroke-miterlimit:1;stop-color:#000000" x="-1567.9116" y="809.8269" id="text6-en" systemLanguage="en"><tspan sodipodi:role="line" id="tspan6-en" x="-1567.9116" y="809.8269" style="stroke-width:0">Base</tspan></text>
          <text xml:space="preserve" style="font-size:29.3043px;line-height:1;font-family:arial;text-decoration-color:#000000;fill:#000000;stroke-width:0;stroke-miterlimit:1;stop-color:#000000" x="-1567.9116" y="809.8269" id="text6-hu" systemLanguage="hu"><tspan sodipodi:role="line" id="tspan6-hu" x="-1567.9116" y="809.8269" style="stroke-width:0">Bázis</tspan></text>
          
        <text xml:space="preserve" style="font-size:29.3043px;line-height:1;font-family:arial;text-decoration-color:#000000;fill:#000000;stroke-width:0;stroke-miterlimit:1;stop-color:#000000" x="-1567.9116" y="809.8269" id="text6-fr" systemLanguage="fr"><tspan sodipodi:role="line" id="tspan6-fr" x="-1567.9116" y="809.8269" style="stroke-width:0">Base</tspan></text><text xml:space="preserve" style="font-size:29.3043px;line-height:1;font-family:arial;text-decoration-color:#000000;fill:#000000;stroke-width:0;stroke-miterlimit:1;stop-color:#000000" x="-1567.9116" y="809.8269" id="text6"><tspan sodipodi:role="line" id="tspan6" x="-1567.9116" y="809.8269" style="stroke-width:0">Base</tspan></text></switch>
      </g>
      <switch style="font-size:22.9867px;line-height:1;font-family:arial;text-decoration-color:#000000;fill:#800080;stroke-width:0;stroke-miterlimit:1;stop-color:#000000" id="switch3">
        <text xml:space="preserve" style="font-size:22.9867px;line-height:1;font-family:arial;text-decoration-color:#000000;fill:#800080;stroke-width:0;stroke-miterlimit:1;stop-color:#000000" x="-1503.0754" y="845.75433" id="text5-en" systemLanguage="en"><tspan id="trsvg2-en">glycosidic bond</tspan></text>
        <text xml:space="preserve" style="font-size:22.9867px;line-height:1;font-family:arial;text-decoration-color:#000000;fill:#800080;stroke-width:0;stroke-miterlimit:1;stop-color:#000000" x="-1503.0754" y="845.75433" id="text5-hu" systemLanguage="hu"><tspan id="trsvg2-hu">glikozidos kötés</tspan></text>
        
      <text xml:space="preserve" style="font-size:22.9867px;line-height:1;font-family:arial;text-decoration-color:#000000;fill:#800080;stroke-width:0;stroke-miterlimit:1;stop-color:#000000" x="-1503.0754" y="845.75433" id="text5-fr" systemLanguage="fr"><tspan id="trsvg2-fr">Liaison glycosidique</tspan></text><text xml:space="preserve" style="font-size:22.9867px;line-height:1;font-family:arial;text-decoration-color:#000000;fill:#800080;stroke-width:0;stroke-miterlimit:1;stop-color:#000000" x="-1503.0754" y="845.75433" id="text5"><tspan id="trsvg2">glykosidische Bindung</tspan></text></switch>
      <g id="text3074-5-7-1-2-3-7-2-7-6" style="font-style:normal;font-variant:normal;font-weight:normal;font-stretch:normal;font-size:33.8013px;line-height:100%;font-family:Arial;-inkscape-font-specification:Arial;text-align:start;writing-mode:lr-tb;text-anchor:start;fill:#000000;fill-opacity:1;stroke:none" transform="translate(399.35939,51.095508)">
        <switch style="font-size:33.1876px;line-height:1;font-family:arial;text-decoration-color:#000000;fill:#000000;stroke-width:0;stroke-miterlimit:1;stop-color:#000000" id="switch4">
          <text xml:space="preserve" style="font-size:33.1876px;line-height:1;font-family:arial;text-decoration-color:#000000;fill:#000000;stroke-width:0;stroke-miterlimit:1;stop-color:#000000" x="-1770" y="1086.3673" id="text1-4-en" systemLanguage="en"><tspan id="trsvg3-en">Nucleotide</tspan></text>
          <text xml:space="preserve" style="font-size:33.1876px;line-height:1;font-family:arial;text-decoration-color:#000000;fill:#000000;stroke-width:0;stroke-miterlimit:1;stop-color:#000000" x="-1770.3124" y="1086.3673" id="text1-4-hu" systemLanguage="hu"><tspan id="trsvg3-hu">Nukleotid</tspan></text>
          
        <text xml:space="preserve" style="font-size:33.1876px;line-height:1;font-family:arial;text-decoration-color:#000000;fill:#000000;stroke-width:0;stroke-miterlimit:1;stop-color:#000000" x="-1770.3124" y="1086.3673" id="text1-4-fr" systemLanguage="fr"><tspan id="trsvg3-fr">Nucléotide</tspan></text><text xml:space="preserve" style="font-size:33.1876px;line-height:1;font-family:arial;text-decoration-color:#000000;fill:#000000;stroke-width:0;stroke-miterlimit:1;stop-color:#000000" x="-1770.3124" y="1086.3673" id="text1-4"><tspan id="trsvg3">Nukleotid</tspan></text></switch>
      </g>
      <path d="m -1803.1,876.92 v 196.28 h 1.8" id="rect4388-3-2-9-3-1-3" style="fill:none;stroke:#000000;stroke-width:1.84312;stroke-linecap:round;stroke-linejoin:round;stroke-miterlimit:4;stroke-dasharray:11.0587, 11.0587;stroke-dashoffset:7.55679;stroke-opacity:1" sodipodi:nodetypes="ccc"/>
      <g id="text3074-5-7-1-2-3-7-2-7-9-6" style="font-style:normal;font-variant:normal;font-weight:normal;font-stretch:normal;font-size:22.9903px;line-height:125%;font-family:Arial;-inkscape-font-specification:Arial;text-align:start;writing-mode:lr-tb;text-anchor:start;fill:#0000ff;fill-opacity:1;stroke:none" transform="translate(-22.5,2.0564252)">
        <switch style="font-style:normal;font-variant:normal;font-weight:normal;font-stretch:normal;font-size:33.1876px;line-height:1;font-family:arial;text-align:start;text-decoration-color:#000000;writing-mode:lr-tb;text-anchor:start;fill:#000000;fill-opacity:1;stroke:none;stroke-width:0;stroke-miterlimit:1;stop-color:#000000" id="switch5">
          <text xml:space="preserve" style="font-style:normal;font-variant:normal;font-weight:normal;font-stretch:normal;font-size:33.1876px;line-height:1;font-family:arial;text-align:start;text-decoration-color:#000000;writing-mode:lr-tb;text-anchor:start;fill:#000000;fill-opacity:1;stroke:none;stroke-width:0;stroke-miterlimit:1;stop-color:#000000" x="-1774.528" y="1083.9514" id="text1-5-en" systemLanguage="en"><tspan sodipodi:role="line" id="tspan1-2-en" x="-1774.528" y="1083.9514" style="fill:#0000ff;stroke-width:0">Nucleoside monophosphate</tspan></text>
          <text xml:space="preserve" style="font-style:normal;font-variant:normal;font-weight:normal;font-stretch:normal;font-size:33.1876px;line-height:1;font-family:arial;text-align:start;text-decoration-color:#000000;writing-mode:lr-tb;text-anchor:start;fill:#000000;fill-opacity:1;stroke:none;stroke-width:0;stroke-miterlimit:1;stop-color:#000000" x="-1774.528" y="1083.9514" id="text1-5-hu" systemLanguage="hu"><tspan sodipodi:role="line" id="tspan1-2-hu" x="-1774.528" y="1083.9514" style="fill:#0000ff;stroke-width:0">Nukleozid-monofoszfát</tspan></text>
          
        <text xml:space="preserve" style="font-style:normal;font-variant:normal;font-weight:normal;font-stretch:normal;font-size:33.1876px;line-height:1;font-family:arial;text-align:start;text-decoration-color:#000000;writing-mode:lr-tb;text-anchor:start;fill:#000000;fill-opacity:1;stroke:none;stroke-width:0;stroke-miterlimit:1;stop-color:#000000" x="-1774.528" y="1083.9514" id="text1-5-fr" systemLanguage="fr"><tspan sodipodi:role="line" id="tspan1-2-fr" x="-1774.528" y="1083.9514" style="fill:#0000ff;stroke-width:0">Nucléotide monophosphate</tspan></text><text xml:space="preserve" style="font-style:normal;font-variant:normal;font-weight:normal;font-stretch:normal;font-size:33.1876px;line-height:1;font-family:arial;text-align:start;text-decoration-color:#000000;writing-mode:lr-tb;text-anchor:start;fill:#000000;fill-opacity:1;stroke:none;stroke-width:0;stroke-miterlimit:1;stop-color:#000000" x="-1774.528" y="1083.9514" id="text1-5"><tspan sodipodi:role="line" id="tspan1-2" x="-1774.528" y="1083.9514" style="fill:#0000ff;stroke-width:0">Nukleosidmonophosphat</tspan></text></switch>
      </g>
      <g id="text3074-5-7-1-2-3-7-2-7-9-6-0-2" style="font-size:19.9397px;font-style:normal;font-variant:normal;font-weight:normal;font-stretch:normal;text-align:start;line-height:125%;writing-mode:lr-tb;text-anchor:start;fill:#000000;fill-opacity:1;stroke:none;font-family:Arial;-inkscape-font-specification:Arial">
        <path d="m -1552.9,882.65 -1.7,0 0,-11.17 c -0.5,0.41 -1,0.81 -1.7,1.21 -0.7,0.4 -1.3,0.7 -1.9,0.91 l 0,-1.7 c 1,-0.46 1.9,-1.02 2.6,-1.67 0.8,-0.66 1.3,-1.29 1.6,-1.91 l 1.1,0 z" id="path4425"/>
        <path d="m -1547.9,873.43 -0.4,-2.67 0,-2.38 1.9,0 0,2.38 -0.4,2.67 z" id="path4427"/>
      </g>
      <g id="text3074-5-7-1-2-3-7-2-7-9-6-0-2-8" style="font-size:19.9397px;font-style:normal;font-variant:normal;font-weight:normal;font-stretch:normal;text-align:start;line-height:125%;writing-mode:lr-tb;text-anchor:start;fill:#000000;fill-opacity:1;stroke:none;font-family:Arial;-inkscape-font-specification:Arial">
        <path d="m -1568.4,915.81 0,1.68 -9.5,0 c 0,-0.42 0.1,-0.83 0.2,-1.21 0.3,-0.65 0.7,-1.28 1.2,-1.9 0.5,-0.63 1.3,-1.35 2.3,-2.16 1.5,-1.28 2.6,-2.28 3.1,-3.03 0.6,-0.74 0.8,-1.44 0.8,-2.11 0,-0.69 -0.2,-1.28 -0.7,-1.75 -0.5,-0.48 -1.1,-0.72 -1.9,-0.72 -0.9,0 -1.6,0.25 -2.1,0.76 -0.5,0.51 -0.7,1.21 -0.7,2.1 l -1.8,-0.18 c 0.1,-1.35 0.6,-2.37 1.4,-3.07 0.8,-0.71 1.8,-1.06 3.2,-1.06 1.4,0 2.5,0.38 3.3,1.14 0.7,0.76 1.1,1.7 1.1,2.82 0,0.57 -0.1,1.14 -0.3,1.69 -0.2,0.55 -0.6,1.13 -1.2,1.74 -0.5,0.61 -1.4,1.45 -2.7,2.51 -1,0.88 -1.7,1.48 -2,1.8 -0.3,0.31 -0.5,0.63 -0.7,0.95 z" id="path4420"/>
        <path d="m -1566,908.27 -0.5,-2.67 0,-2.38 2,0 0,2.38 -0.5,2.67 z" id="path4422"/>
      </g>
      <g id="text3074-5-7-1-2-3-7-2-7-9-6-0-2-8-5" style="font-size:19.9397px;font-style:normal;font-variant:normal;font-weight:normal;font-stretch:normal;text-align:start;line-height:125%;writing-mode:lr-tb;text-anchor:start;fill:#000000;fill-opacity:1;stroke:none;font-family:Arial;-inkscape-font-specification:Arial">
        <path d="m -1628,913.72 1.7,-0.23 c 0.2,0.99 0.6,1.71 1.1,2.15 0.5,0.44 1,0.65 1.7,0.65 0.9,0 1.6,-0.28 2.1,-0.85 0.6,-0.57 0.9,-1.28 0.9,-2.12 0,-0.81 -0.3,-1.47 -0.8,-2 -0.5,-0.52 -1.2,-0.78 -2,-0.78 -0.3,0 -0.8,0.1 -1.3,0.2 l 0.2,-1.54 c 0.2,0 0.3,0 0.3,0 0.8,0 1.4,-0.2 2,-0.59 0.6,-0.39 0.9,-0.99 0.9,-1.8 0,-0.64 -0.2,-1.17 -0.6,-1.6 -0.4,-0.42 -1,-0.63 -1.7,-0.63 -0.7,0 -1.2,0.22 -1.7,0.64 -0.5,0.43 -0.7,1.07 -0.9,1.93 l -1.7,-0.31 c 0.2,-1.17 0.7,-2.08 1.4,-2.73 0.8,-0.65 1.7,-0.97 2.9,-0.97 0.7,0 1.5,0.17 2.1,0.5 0.7,0.34 1.2,0.79 1.5,1.37 0.4,0.58 0.5,1.19 0.5,1.84 0,0.62 -0.1,1.18 -0.5,1.68 -0.3,0.51 -0.8,0.91 -1.4,1.21 0.8,0.2 1.5,0.6 1.9,1.21 0.5,0.62 0.7,1.38 0.7,2.31 0,1.24 -0.4,2.3 -1.3,3.17 -0.9,0.86 -2.1,1.3 -3.5,1.3 -1.2,0 -2.3,-0.38 -3.1,-1.12 -0.8,-0.75 -1.3,-1.72 -1.4,-2.91 z" id="path4415"/>
        <path d="m -1616.4,908.27 -0.5,-2.67 0,-2.38 2,0 0,2.38 -0.4,2.67 z" id="path4417"/>
      </g>
      <g id="text3074-5-7-1-2-3-7-2-7-9-6-0-2-8-5-9" style="font-size:19.9397px;font-style:normal;font-variant:normal;font-weight:normal;font-stretch:normal;text-align:start;line-height:125%;writing-mode:lr-tb;text-anchor:start;fill:#000000;fill-opacity:1;stroke:none;font-family:Arial;-inkscape-font-specification:Arial">
        <path d="m -1643,882.65 0,-3.42 -6.2,0 0,-1.6 6.5,-9.25 1.5,0 0,9.25 1.9,0 0,1.6 -1.9,0 0,3.42 z m 0,-5.02 0,-6.44 -4.5,6.44 z" id="path4410"/>
        <path d="m -1637,873.43 -0.5,-2.67 0,-2.38 2,0 0,2.38 -0.4,2.67 z" id="path4412"/>
      </g>
      <g id="text3074-5-7-1-2-3-7-2-7-9-6-0-2-8-5-9-0" style="font-size:19.9397px;font-style:normal;font-variant:normal;font-weight:normal;font-stretch:normal;text-align:start;line-height:125%;writing-mode:lr-tb;text-anchor:start;fill:#000000;fill-opacity:1;stroke:none;font-family:Arial;-inkscape-font-specification:Arial">
        <path d="m -1656.4,817.25 1.9,-0.16 c 0.1,0.9 0.4,1.57 0.9,2.02 0.5,0.46 1.1,0.68 1.8,0.68 0.9,0 1.6,-0.32 2.2,-0.95 0.6,-0.64 0.8,-1.48 0.8,-2.53 0,-1 -0.2,-1.79 -0.8,-2.37 -0.6,-0.58 -1.3,-0.87 -2.2,-0.87 -0.6,0 -1.1,0.13 -1.5,0.39 -0.5,0.25 -0.8,0.59 -1.1,1 l -1.6,-0.22 1.3,-7.33 7.1,0 0,1.68 -5.7,0 -0.7,3.83 c 0.8,-0.6 1.7,-0.89 2.7,-0.89 1.2,0 2.3,0.43 3.1,1.29 0.9,0.86 1.3,1.97 1.3,3.33 0,1.29 -0.4,2.41 -1.1,3.35 -0.9,1.15 -2.2,1.73 -3.8,1.73 -1.3,0 -2.3,-0.36 -3.1,-1.09 -0.9,-0.73 -1.3,-1.69 -1.5,-2.89 z" id="path4405"/>
        <path d="m -1644.8,811.77 -0.4,-2.67 0,-2.38 2,0 0,2.38 -0.5,2.67 z" id="path4407"/>
      </g>
      <path d="m -1711.2,1023.1 22.3,0 0,0 -22.3,0 0,0 z" id="rect4388-3-2-9-3-1-42-2" style="fill:#000000;stroke:#000000;stroke-width:1.84312;stroke-linecap:round;stroke-linejoin:round;stroke-miterlimit:4;stroke-opacity:1;stroke-dasharray:11.05872, 11.05872;stroke-dashoffset:2.39606"/>
      <path d="m -1903.9,1126.1 0,-254.37 0,0 0,254.37 0,0 z" id="rect4388-3-2-9-3-1-3-6" style="fill:#000000;stroke:#000000;stroke-width:1.84312;stroke-linecap:round;stroke-linejoin:round;stroke-miterlimit:4;stroke-opacity:1;stroke-dasharray:11.05872, 11.05872;stroke-dashoffset:5.71367"/>
      <path d="m -2019.4,1186 0,-314.27 0,0 0,314.27 0,0 z" id="rect4388-3-2-9-3-1-3-6-8" style="fill:#000000;stroke:#000000;stroke-width:1.84312;stroke-linecap:round;stroke-linejoin:round;stroke-miterlimit:4;stroke-opacity:1;stroke-dasharray:11.05872, 11.05872;stroke-dashoffset:12.71753"/>
      <path d="m -2019.3,1177.3 22.3,0 0,0 -22.3,0 0,0 z" id="rect4388-3-2-9-3-1-42-2-7" style="fill:#000000;stroke:#000000;stroke-width:1.84312;stroke-linecap:round;stroke-linejoin:round;stroke-miterlimit:4;stroke-opacity:1;stroke-dasharray:11.05872, 11.05872;stroke-dashoffset:2.94899"/>
      <path d="m -1903.7,1126.1 22.3,0 0,0 -22.3,0 0,0 z" id="rect4388-3-2-9-3-1-42-2-7-9" style="fill:#000000;stroke:#000000;stroke-width:1.84312;stroke-linecap:round;stroke-linejoin:round;stroke-miterlimit:4;stroke-opacity:1;stroke-dasharray:11.05872, 11.05872;stroke-dashoffset:2.94899"/>
      <path d="m -1712.7,876.64 0,147.36 0,0 0,-147.36 0,0 z" id="rect4388-3-2-9-3-1-3-6-1" style="fill:#000000;stroke:#000000;stroke-width:1.84312;stroke-linecap:round;stroke-linejoin:round;stroke-miterlimit:4;stroke-opacity:1;stroke-dasharray:11.05872, 11.05872;stroke-dashoffset:1.10587"/>
      <g transform="matrix(-0.56478405,0,0,1.4486572,-196.21861,59.51456)" id="text1316" style="font-style:normal;font-variant:normal;font-weight:normal;font-stretch:normal;font-size:143.186px;font-family:'Bitstream Vera Sans';writing-mode:lr-tb;text-anchor:start;fill:#000000;fill-opacity:1;stroke:none;stroke-width:0.991126">
        <path d="m 2109.6,785.1 c -0.1,-0.59 -0.5,-0.72 -2.3,-0.84 -4,-0.28 -7.6,-1.42 -9.6,-3.05 -0.8,-0.68 -1,-2.99 -1.1,-20.57 -0.1,-16.32 -0.3,-19.95 -1,-20.65 -1.3,-1.38 -4,-2.82 -6.2,-3.39 l -2.1,-0.54 2.3,-0.69 c 2.4,-0.74 4.7,-1.99 6,-3.37 0.7,-0.69 0.9,-4.47 1.1,-20.81 0.3,-18 0.4,-20.03 1.3,-20.68 2.1,-1.52 6.7,-2.79 10.2,-2.79 1.3,0 1.5,-0.11 1.5,-0.76 0,-0.74 -0.1,-0.75 -2.5,-0.63 -3.4,0.15 -6.7,0.83 -9.4,1.95 -4.5,1.85 -4.2,0.39 -4.6,22.67 -0.2,18.57 -0.4,20.03 -1.3,20.93 -2,1.82 -6.7,3.25 -10.6,3.27 -1.5,0 -1.6,0.1 -1.6,0.85 0,0.76 0.1,0.85 1.6,0.85 3.9,0 8.6,1.45 10.6,3.26 0.9,0.9 1,2.37 1.3,21.05 0.4,22.51 -0.1,20.67 4.7,22.63 2.9,1.21 5.3,1.69 9,1.86 l 2.9,0.15 z" id="path4000" style="fill:#000000;stroke-width:0.991126"/>
      </g>
      <switch style="font-style:normal;font-variant:normal;font-weight:normal;font-stretch:normal;font-size:33.1876px;line-height:1;font-family:arial;text-align:start;text-decoration-color:#000000;writing-mode:lr-tb;text-anchor:start;fill:#008000;fill-opacity:1;stroke:none;stroke-width:0;stroke-miterlimit:1;stop-color:#000000" id="switch6">
        <text xml:space="preserve" style="font-style:normal;font-variant:normal;font-weight:normal;font-stretch:normal;font-size:33.1876px;line-height:1;font-family:arial;text-align:start;text-decoration-color:#000000;writing-mode:lr-tb;text-anchor:start;fill:#008000;fill-opacity:1;stroke:none;stroke-width:0;stroke-miterlimit:1;stop-color:#000000" x="-1879.2301" y="1139.2563" id="text1-0-en" systemLanguage="en"><tspan id="trsvg4-en">Nucleoside diphosphate</tspan></text>
        <text xml:space="preserve" style="font-style:normal;font-variant:normal;font-weight:normal;font-stretch:normal;font-size:33.1876px;line-height:1;font-family:arial;text-align:start;text-decoration-color:#000000;writing-mode:lr-tb;text-anchor:start;fill:#008000;fill-opacity:1;stroke:none;stroke-width:0;stroke-miterlimit:1;stop-color:#000000" x="-1879.2301" y="1139.2563" id="text1-0-hu" systemLanguage="hu"><tspan id="trsvg4-hu">Nukleozid-difoszfát</tspan></text>
        
      <text xml:space="preserve" style="font-style:normal;font-variant:normal;font-weight:normal;font-stretch:normal;font-size:33.1876px;line-height:1;font-family:arial;text-align:start;text-decoration-color:#000000;writing-mode:lr-tb;text-anchor:start;fill:#008000;fill-opacity:1;stroke:none;stroke-width:0;stroke-miterlimit:1;stop-color:#000000" x="-1879.2301" y="1139.2563" id="text1-0-fr" systemLanguage="fr"><tspan id="trsvg4-fr">Nucléotide diphosphate</tspan></text><text xml:space="preserve" style="font-style:normal;font-variant:normal;font-weight:normal;font-stretch:normal;font-size:33.1876px;line-height:1;font-family:arial;text-align:start;text-decoration-color:#000000;writing-mode:lr-tb;text-anchor:start;fill:#008000;fill-opacity:1;stroke:none;stroke-width:0;stroke-miterlimit:1;stop-color:#000000" x="-1879.2301" y="1139.2563" id="text1-0"><tspan id="trsvg4">Nukleosiddiphosphat</tspan></text></switch>
      <switch style="font-style:normal;font-variant:normal;font-weight:normal;font-stretch:normal;font-size:33.1876px;line-height:1;font-family:arial;text-align:start;text-decoration-color:#000000;writing-mode:lr-tb;text-anchor:start;fill:#ff0000;fill-opacity:1;stroke:none;stroke-width:0;stroke-miterlimit:1;stop-color:#000000" id="switch7">
        <text xml:space="preserve" style="font-style:normal;font-variant:normal;font-weight:normal;font-stretch:normal;font-size:33.1876px;line-height:1;font-family:arial;text-align:start;text-decoration-color:#000000;writing-mode:lr-tb;text-anchor:start;fill:#ff0000;fill-opacity:1;stroke:none;stroke-width:0;stroke-miterlimit:1;stop-color:#000000" x="-1994.328" y="1188.802" id="text1-6-en" systemLanguage="en"><tspan id="trsvg5-en">Nucleoside triphosphate</tspan></text>
        <text xml:space="preserve" style="font-style:normal;font-variant:normal;font-weight:normal;font-stretch:normal;font-size:33.1876px;line-height:1;font-family:arial;text-align:start;text-decoration-color:#000000;writing-mode:lr-tb;text-anchor:start;fill:#ff0000;fill-opacity:1;stroke:none;stroke-width:0;stroke-miterlimit:1;stop-color:#000000" x="-1994.328" y="1188.802" id="text1-6-hu" systemLanguage="hu"><tspan id="trsvg5-hu">Nukleozid-trifoszfát</tspan></text>
        
      <text xml:space="preserve" style="font-style:normal;font-variant:normal;font-weight:normal;font-stretch:normal;font-size:33.1876px;line-height:1;font-family:arial;text-align:start;text-decoration-color:#000000;writing-mode:lr-tb;text-anchor:start;fill:#ff0000;fill-opacity:1;stroke:none;stroke-width:0;stroke-miterlimit:1;stop-color:#000000" x="-1994.328" y="1188.802" id="text1-6-fr" systemLanguage="fr"><tspan id="trsvg5-fr">Nucléotide triphosphate</tspan></text><text xml:space="preserve" style="font-style:normal;font-variant:normal;font-weight:normal;font-stretch:normal;font-size:33.1876px;line-height:1;font-family:arial;text-align:start;text-decoration-color:#000000;writing-mode:lr-tb;text-anchor:start;fill:#ff0000;fill-opacity:1;stroke:none;stroke-width:0;stroke-miterlimit:1;stop-color:#000000" x="-1994.328" y="1188.802" id="text1-6"><tspan id="trsvg5">Nukleosidtriphosphat</tspan></text></switch>
      <switch style="font-size:33.3333px;line-height:1;font-family:arial;text-decoration-color:#000000;fill:#000000;stroke-width:0;stroke-miterlimit:1;stop-color:#000000" id="switch8">
        <text xml:space="preserve" style="font-size:33.3333px;line-height:1;font-family:arial;text-decoration-color:#000000;fill:#000000;stroke-width:0;stroke-miterlimit:1;stop-color:#000000" x="-1679.1755" y="1033.9135" id="text1-en" systemLanguage="en"><tspan id="trsvg6-en">Nucleoside</tspan></text>
        <text xml:space="preserve" style="font-size:33.3333px;line-height:1;font-family:arial;text-decoration-color:#000000;fill:#000000;stroke-width:0;stroke-miterlimit:1;stop-color:#000000" x="-1679.1755" y="1033.9135" id="text1-hu" systemLanguage="hu"><tspan id="trsvg6-hu">Nukleozid</tspan></text>
        
      <text xml:space="preserve" style="font-size:33.3333px;line-height:1;font-family:arial;text-decoration-color:#000000;fill:#000000;stroke-width:0;stroke-miterlimit:1;stop-color:#000000" x="-1679.1755" y="1033.9135" id="text1-fr" systemLanguage="fr"><tspan id="trsvg6-fr">Nucléoside</tspan></text><text xml:space="preserve" style="font-size:33.3333px;line-height:1;font-family:arial;text-decoration-color:#000000;fill:#000000;stroke-width:0;stroke-miterlimit:1;stop-color:#000000" x="-1679.1755" y="1033.9135" id="text1"><tspan id="trsvg6">Nukleosid</tspan></text></switch>
      <switch style="font-size:22.99px;line-height:1.25;font-family:arial;text-decoration-color:#000000;fill:#000000;stroke-width:0;stroke-miterlimit:1;stop-color:#000000" id="switch9">
        <text xml:space="preserve" style="font-size:22.99px;line-height:1.25;font-family:arial;text-decoration-color:#000000;fill:#000000;stroke-width:0;stroke-miterlimit:1;stop-color:#000000" x="-1525.4073" y="950.94897" id="text2-en" systemLanguage="en"><tspan sodipodi:role="line" x="-1525.4073" y="950.94897" id="tspan2-en" style="font-size:22.99px;line-height:1.25">R=OH: ribose</tspan></text>
        <text xml:space="preserve" style="font-size:22.99px;line-height:1.25;font-family:arial;text-decoration-color:#000000;fill:#000000;stroke-width:0;stroke-miterlimit:1;stop-color:#000000" x="-1525.4073" y="950.94897" id="text2-hu" systemLanguage="hu"><tspan sodipodi:role="line" x="-1525.4073" y="950.94897" id="tspan2-hu" style="font-size:22.99px;line-height:1.25">R=OH: ribóz</tspan></text>
        
      <text xml:space="preserve" style="font-size:22.99px;line-height:1.25;font-family:arial;text-decoration-color:#000000;fill:#000000;stroke-width:0;stroke-miterlimit:1;stop-color:#000000" x="-1525.4073" y="950.94897" id="text2-fr" systemLanguage="fr"><tspan sodipodi:role="line" x="-1525.4073" y="950.94897" id="tspan2-fr" style="font-size:22.99px;line-height:1.25">R=OH: ribose</tspan></text><text xml:space="preserve" style="font-size:22.99px;line-height:1.25;font-family:arial;text-decoration-color:#000000;fill:#000000;stroke-width:0;stroke-miterlimit:1;stop-color:#000000" x="-1525.4073" y="950.94897" id="text2"><tspan sodipodi:role="line" x="-1525.4073" y="950.94897" id="tspan2" style="font-size:22.99px;line-height:1.25">R=OH: Ribose</tspan></text></switch>
      <switch style="font-size:22.99px;line-height:1;font-family:arial;text-decoration-color:#000000;fill:#000000;stroke-width:0;stroke-miterlimit:1;stop-color:#000000" id="switch10" transform="translate(0,19.79899)">
        <text xml:space="preserve" style="font-size:22.99px;line-height:1;font-family:arial;text-decoration-color:#000000;fill:#000000;stroke-width:0;stroke-miterlimit:1;stop-color:#000000" x="-1525.4073" y="950.94897" id="text3-en" systemLanguage="en"><tspan sodipodi:role="line" x="-1525.4073" y="950.94897" id="tspan4-en" style="font-size:22.99px">R=H: deoxyribose</tspan></text>
        <text xml:space="preserve" style="font-size:22.99px;line-height:1;font-family:arial;text-decoration-color:#000000;fill:#000000;stroke-width:0;stroke-miterlimit:1;stop-color:#000000" x="-1525.4073" y="950.94897" id="text3-hu" systemLanguage="hu"><tspan sodipodi:role="line" x="-1525.4073" y="950.94897" id="tspan4-hu" style="font-size:22.99px">R=H: dezoxiribóz</tspan></text>
        
      <text xml:space="preserve" style="font-size:22.99px;line-height:1;font-family:arial;text-decoration-color:#000000;fill:#000000;stroke-width:0;stroke-miterlimit:1;stop-color:#000000" x="-1525.4073" y="950.94897" id="text3-fr" systemLanguage="fr"><tspan sodipodi:role="line" x="-1525.4073" y="950.94897" id="tspan4-fr" style="font-size:22.99px">R=H: désoxyribose</tspan></text><text xml:space="preserve" style="font-size:22.99px;line-height:1;font-family:arial;text-decoration-color:#000000;fill:#000000;stroke-width:0;stroke-miterlimit:1;stop-color:#000000" x="-1525.4073" y="950.94897" id="text3"><tspan sodipodi:role="line" x="-1525.4073" y="950.94897" id="tspan4" style="font-size:22.99px">R=H: Desoxyribose</tspan></text></switch>
    </g>
  </g>
</svg>
