<svg xmlns="http://www.w3.org/2000/svg" width="2225" height="1391">
 <!-- Created with Image Occlusion Enhanced -->
 <g>
  <title>Labels</title>
 </g>
 <g>
  <title>Masks</title>
  <rect id="045708abdedb490ba564f63f0b6f75b3-ao-1" height="48.78049" width="185.36585" y="78.5122" x="540.85366" stroke="#2D2D2D" fill="#007fff"/>
  <rect id="045708abdedb490ba564f63f0b6f75b3-ao-2" height="75.60976" width="131.70732" y="144.36586" x="768.90244" stroke="#2D2D2D" fill="#007fff"/>
  <rect id="045708abdedb490ba564f63f0b6f75b3-ao-3" height="74.39024" width="209.7561" y="262.65854" x="771.34146" stroke="#2D2D2D" fill="#007fff"/>
  <rect id="045708abdedb490ba564f63f0b6f75b3-ao-4" height="39.02439" width="150" y="378.5122" x="772.56097" stroke="#2D2D2D" fill="#007fff"/>
  <rect id="045708abdedb490ba564f63f0b6f75b3-ao-5" height="42.68293" width="253.65854" y="446.80489" x="768.90244" stroke="#2D2D2D" fill="#007fff"/>
  <rect id="045708abdedb490ba564f63f0b6f75b3-ao-6" height="52.43902" width="282.92683" y="518.75611" x="771.34146" stroke="#2D2D2D" fill="#007fff"/>
  <rect id="045708abdedb490ba564f63f0b6f75b3-ao-7" height="37.80488" width="110.97561" y="600.46342" x="771.34146" stroke="#2D2D2D" fill="#007fff"/>
  <rect id="045708abdedb490ba564f63f0b6f75b3-ao-8" height="45.12195" width="285.36585" y="673.63416" x="766.46341" stroke="#2D2D2D" fill="#007fff"/>
  <rect id="045708abdedb490ba564f63f0b6f75b3-ao-9" height="43.90244" width="240.2439" y="745.58538" x="765.2439" stroke="#2D2D2D" fill="#007fff"/>
  <rect id="045708abdedb490ba564f63f0b6f75b3-ao-10" height="114.63415" width="141.46342" y="862.65855" x="903.04878" stroke="#2D2D2D" fill="#007fff"/>
  <rect id="045708abdedb490ba564f63f0b6f75b3-ao-11" height="82.92683" width="164.63415" y="1022.41464" x="907.92683" stroke="#2D2D2D" fill="#007fff"/>
  <rect id="045708abdedb490ba564f63f0b6f75b3-ao-12" height="43.90244" width="100" y="1002.90245" x="1111.58537" stroke="#2D2D2D" fill="#007fff"/>
  <rect id="045708abdedb490ba564f63f0b6f75b3-ao-13" height="40.2439" width="137.80488" y="1223.63416" x="678.65853" stroke="#2D2D2D" fill="#007fff"/>
  <rect id="045708abdedb490ba564f63f0b6f75b3-ao-14" height="76.82927" width="171.95122" y="1293.14635" x="514.02439" stroke="#2D2D2D" fill="#007fff"/>
  <rect id="045708abdedb490ba564f63f0b6f75b3-ao-15" height="69.5122" width="154.87805" y="1289.48782" x="299.39024" stroke="#2D2D2D" fill="#007fff"/>
  <rect id="045708abdedb490ba564f63f0b6f75b3-ao-16" height="82.92683" width="147.56098" y="1129.73172" x="903.04878" stroke="#2D2D2D" fill="#007fff"/>
  <rect id="045708abdedb490ba564f63f0b6f75b3-ao-17" height="79.26829" width="253.65854" y="1288.2683" x="1295.73171" stroke="#2D2D2D" fill="#007fff"/>
  <rect id="045708abdedb490ba564f63f0b6f75b3-ao-18" height="90.2439" width="160.97561" y="1288.2683" x="1642.07317" stroke="#2D2D2D" fill="#007fff"/>
  <rect id="045708abdedb490ba564f63f0b6f75b3-ao-19" height="90.2439" width="169.5122" y="724.85367" x="1215.2439" stroke="#2D2D2D" fill="#007fff"/>
  
  <rect id="045708abdedb490ba564f63f0b6f75b3-ao-21" height="53.65854" width="195.12195" y="569.97562" x="1188.41463" stroke="#2D2D2D" fill="#007fff"/>
  <rect id="045708abdedb490ba564f63f0b6f75b3-ao-22" height="82.92683" width="176.82927" y="401.68293" x="1218.90244" stroke="#2D2D2D" fill="#007fff"/>
  <rect id="045708abdedb490ba564f63f0b6f75b3-ao-23" height="63.41463" width="184.14634" y="289.48781" x="1214.02439" stroke="#2D2D2D" fill="#007fff"/>
  <rect id="045708abdedb490ba564f63f0b6f75b3-ao-24" height="76.82927" width="192.68293" y="679.73172" x="42.07317" stroke="#2D2D2D" fill="#007fff"/>
  <rect id="045708abdedb490ba564f63f0b6f75b3-ao-25" height="82.92683" width="195.12195" y="777.29269" x="56.70731" stroke="#2D2D2D" fill="#007fff"/>
  <rect id="045708abdedb490ba564f63f0b6f75b3-ao-26" height="81.70732" width="163.41463" y="84.60976" x="1595.73171" stroke="#2D2D2D" fill="#007fff"/>
  <rect id="045708abdedb490ba564f63f0b6f75b3-ao-27" height="54.87805" width="195.12195" y="448.0244" x="2003.04878" stroke="#2D2D2D" fill="#007fff"/>
  <rect id="045708abdedb490ba564f63f0b6f75b3-ao-28" height="123.17073" width="201.21951" y="532.17074" x="1998.17074" stroke="#2D2D2D" fill="#007fff"/>
  <rect id="045708abdedb490ba564f63f0b6f75b3-ao-29" height="76.82927" width="220.73171" y="683.39025" x="1950.60976" stroke="#2D2D2D" fill="#007fff"/>
  <rect id="045708abdedb490ba564f63f0b6f75b3-ao-30" height="48.78049" width="186.58537" y="811.43903" x="1916.46342" stroke="#2D2D2D" fill="#007fff"/>
 </g>
</svg>