<svg xmlns="http://www.w3.org/2000/svg" width="1270" height="1035">
 <!-- Created with Image Occlusion Enhanced -->
 <g>
  <title>Labels</title>
 </g>
 <g>
  <title>Masks</title>
  <rect id="05c80616554e4828a48df10479df348b-ao-1" height="64.28572" width="123.21429" y="96.42862" x="312.14281" stroke="#2D2D2D" fill="#007fff"/>
  <rect id="05c80616554e4828a48df10479df348b-ao-2" height="44.64286" width="194.64287" y="182.14291" x="897.85712" stroke="#2D2D2D" fill="#007fff"/>
  <rect id="05c80616554e4828a48df10479df348b-ao-3" height="39.28572" width="101.78572" y="244.64291" x="928.21427" stroke="#2D2D2D" fill="#007fff"/>
  <rect id="05c80616554e4828a48df10479df348b-ao-4" height="32.14286" width="75" y="310.71434" x="962.14284" stroke="#2D2D2D" fill="#007fff"/>
  <rect id="05c80616554e4828a48df10479df348b-ao-5" height="66.07143" width="208.92858" y="367.8572" x="997.85713" stroke="#2D2D2D" fill="#007fff"/>
  
  <rect id="05c80616554e4828a48df10479df348b-ao-7" height="57.14286" width="201.78572" y="560.71435" x="1001.42855" stroke="#2D2D2D" fill="#007fff"/>
  <rect id="05c80616554e4828a48df10479df348b-ao-8" height="69.64286" width="167.85715" y="648.21436" x="997.85713" stroke="#2D2D2D" fill="#007fff"/>
  <rect id="05c80616554e4828a48df10479df348b-ao-9" height="37.5" width="114.28572" y="742.85722" x="994.2857" stroke="#2D2D2D" fill="#007fff"/>
  <rect id="05c80616554e4828a48df10479df348b-ao-10" height="71.42857" width="148.21429" y="839.28579" x="815.71426" stroke="#2D2D2D" fill="#007fff"/>
  <rect id="05c80616554e4828a48df10479df348b-ao-11" height="100" width="191.07144" y="805.35722" x="358.57138" stroke="#2D2D2D" fill="#007fff"/>
  <rect id="05c80616554e4828a48df10479df348b-ao-12" height="67.85715" width="173.21429" y="717.85722" x="254.99995" stroke="#2D2D2D" fill="#007fff"/>
  <rect id="05c80616554e4828a48df10479df348b-ao-13" height="69.64286" width="173.21429" y="623.21436" x="176.42852" stroke="#2D2D2D" fill="#007fff"/>
  <rect id="05c80616554e4828a48df10479df348b-ao-14" height="44.64286" width="146.42858" y="557.14292" x="124.6428" stroke="#2D2D2D" fill="#007fff"/>
  <rect id="05c80616554e4828a48df10479df348b-ao-15" height="41.07143" width="167.85715" y="491.07149" x="65.71423" stroke="#2D2D2D" fill="#007fff"/>
  <rect id="05c80616554e4828a48df10479df348b-ao-16" height="37.5" width="171.42858" y="432.14292" x="38.92851" stroke="#2D2D2D" fill="#007fff"/>
  <rect id="05c80616554e4828a48df10479df348b-ao-17" height="33.92857" width="123.21429" y="369.64292" x="40.71423" stroke="#2D2D2D" fill="#007fff"/>
  <rect id="05c80616554e4828a48df10479df348b-ao-18" height="25" width="92.85715" y="314.28577" x="63.92851" stroke="#2D2D2D" fill="#007fff"/>
  <rect id="05c80616554e4828a48df10479df348b-ao-19" height="71.42857" width="123.21429" y="210.71434" x="47.85709" stroke="#2D2D2D" fill="#007fff"/>
 </g>
</svg>