<svg xmlns="http://www.w3.org/2000/svg" width="792" height="708">
 <!-- Created with Image Occlusion Enhanced -->
 <g>
  <title>Labels</title>
 </g>
 <g>
  <title>Masks</title>
  <rect id="11e0594050ab4f36bdddc24d621e8341-oa-1" height="31.3253" width="91.56627" y="3.32527" x="251.37352" stroke="#2D2D2D" fill="#FFEBA2"/>
  <rect id="11e0594050ab4f36bdddc24d621e8341-oa-2" height="27.71084" width="109.63856" y="5.73491" x="383.90364" stroke="#2D2D2D" fill="#FFEBA2"/>
  <rect id="11e0594050ab4f36bdddc24d621e8341-oa-3" height="21.68675" width="121.68675" y="62.36141" x="633.30124" stroke="#2D2D2D" fill="#FFEBA2"/>
  <rect id="11e0594050ab4f36bdddc24d621e8341-oa-4" height="38.55422" width="124.09639" y="100.91563" x="644.14461" stroke="#2D2D2D" fill="#FFEBA2"/>
  <rect id="11e0594050ab4f36bdddc24d621e8341-oa-5" height="34.93976" width="131.3253" y="163.56623" x="638.12051" stroke="#2D2D2D" fill="#FFEBA2"/>
  <rect id="11e0594050ab4f36bdddc24d621e8341-oa-6" height="57.83133" width="116.86747" y="225.01202" x="641.73497" stroke="#2D2D2D" fill="#FFEBA2"/>
  <rect id="11e0594050ab4f36bdddc24d621e8341-oa-7" height="39.75904" width="96.38554" y="296.09636" x="633.30124" stroke="#2D2D2D" fill="#FFEBA2"/>
  <rect id="11e0594050ab4f36bdddc24d621e8341-oa-8" height="19.27711" width="119.27711" y="357.54214" x="642.93979" stroke="#2D2D2D" fill="#FFEBA2"/>
  <rect id="11e0594050ab4f36bdddc24d621e8341-oa-9" height="34.93976" width="121.68675" y="398.506" x="636.91569" stroke="#2D2D2D" fill="#FFEBA2"/>
  <rect id="11e0594050ab4f36bdddc24d621e8341-oa-10" height="38.55422" width="80.72289" y="451.51805" x="641.73497" stroke="#2D2D2D" fill="#FFEBA2"/>
  <rect id="11e0594050ab4f36bdddc24d621e8341-oa-11" height="44.57831" width="110.84338" y="494.89154" x="642.93979" stroke="#2D2D2D" fill="#FFEBA2"/>
  <rect id="11e0594050ab4f36bdddc24d621e8341-oa-12" height="36.14458" width="77.10844" y="553.92769" x="641.73497" stroke="#2D2D2D" fill="#FFEBA2"/>
  <rect id="11e0594050ab4f36bdddc24d621e8341-oa-13" height="43.37349" width="95.18073" y="546.69877" x="244.1446" stroke="#2D2D2D" fill="#FFEBA2"/>
  <rect id="11e0594050ab4f36bdddc24d621e8341-oa-14" height="31.3253" width="89.15663" y="493.68672" x="188.72291" stroke="#2D2D2D" fill="#FFEBA2"/>
  <rect id="11e0594050ab4f36bdddc24d621e8341-oa-15" height="33.73494" width="122.89157" y="452.72287" x="124.86749" stroke="#2D2D2D" fill="#FFEBA2"/>
  <rect id="11e0594050ab4f36bdddc24d621e8341-oa-16" height="53.01205" width="149.39759" y="384.04817" x="54.98797" stroke="#2D2D2D" fill="#FFEBA2"/>
  <rect id="11e0594050ab4f36bdddc24d621e8341-oa-17" height="40.96386" width="92.77109" y="329.8313" x="79.08436" stroke="#2D2D2D" fill="#FFEBA2"/>
  <rect id="11e0594050ab4f36bdddc24d621e8341-oa-18" height="40.96386" width="109.63856" y="267.18069" x="29.68677" stroke="#2D2D2D" fill="#FFEBA2"/>
  <rect id="11e0594050ab4f36bdddc24d621e8341-oa-19" height="44.57831" width="73.49398" y="206.93973" x="69.4458" stroke="#2D2D2D" fill="#FFEBA2"/>
  <rect id="11e0594050ab4f36bdddc24d621e8341-oa-20" height="45.78313" width="127.71085" y="145.49394" x="17.63857" stroke="#2D2D2D" fill="#FFEBA2"/>
  <rect id="11e0594050ab4f36bdddc24d621e8341-oa-21" height="24.09639" width="108.43374" y="109.34937" x="33.30122" stroke="#2D2D2D" fill="#FFEBA2"/>
  <rect id="11e0594050ab4f36bdddc24d621e8341-oa-22" height="40.96386" width="83.13253" y="55.1325" x="64.62653" stroke="#2D2D2D" fill="#FFEBA2"/>
 </g>
</svg>