<svg xmlns="http://www.w3.org/2000/svg" width="803" height="744">
 <!-- Created with Image Occlusion Enhanced -->
 <g>
  <title>Labels</title>
 </g>
 <g>
  <title>Masks</title>
  <rect id="1d04670d18f94043ac04656288ecc3e5-oa-1" height="18.98734" width="63.29114" y="81.5696" x="297.00001" stroke="#2D2D2D" fill="#FFEBA2"/>
  <rect id="1d04670d18f94043ac04656288ecc3e5-oa-2" height="29.11392" width="48.10127" y="71.44302" x="370.41773" stroke="#2D2D2D" fill="#FFEBA2"/>
  <rect id="1d04670d18f94043ac04656288ecc3e5-oa-3" height="27.8481" width="55.6962" y="72.70884" x="450.16457" stroke="#2D2D2D" fill="#FFEBA2"/>
  <rect id="1d04670d18f94043ac04656288ecc3e5-oa-4" height="40.50633" width="65.82279" y="181.5696" x="695.73419" stroke="#2D2D2D" fill="#FFEBA2"/>
  <rect id="1d04670d18f94043ac04656288ecc3e5-oa-5" height="12.65823" width="78.48101" y="237.2658" x="693.20254" stroke="#2D2D2D" fill="#FFEBA2"/>
  <rect id="1d04670d18f94043ac04656288ecc3e5-oa-6" height="25.31646" width="92.40506" y="267.64555" x="690.6709" stroke="#2D2D2D" fill="#FFEBA2"/>
  <rect id="1d04670d18f94043ac04656288ecc3e5-oa-7" height="31.64557" width="87.34177" y="311.94935" x="695.73419" stroke="#2D2D2D" fill="#FFEBA2"/>
  <rect id="1d04670d18f94043ac04656288ecc3e5-oa-8" height="30.37975" width="92.40506" y="358.78479" x="688.13925" stroke="#2D2D2D" fill="#FFEBA2"/>
  <rect id="1d04670d18f94043ac04656288ecc3e5-oa-9" height="30.37975" width="72.1519" y="399.29112" x="694.46837" stroke="#2D2D2D" fill="#FFEBA2"/>
  <rect id="1d04670d18f94043ac04656288ecc3e5-oa-10" height="13.92405" width="72.1519" y="486.63289" x="524.84811" stroke="#2D2D2D" fill="#FFEBA2"/>
  <rect id="1d04670d18f94043ac04656288ecc3e5-oa-11" height="18.98734" width="68.35443" y="486.63289" x="436.24052" stroke="#2D2D2D" fill="#FFEBA2"/>
  <rect id="1d04670d18f94043ac04656288ecc3e5-oa-12" height="12.65823" width="49.36709" y="487.89872" x="350.16457" stroke="#2D2D2D" fill="#FFEBA2"/>
  <rect id="1d04670d18f94043ac04656288ecc3e5-oa-13" height="13.92405" width="58.22785" y="484.10125" x="246.3671" stroke="#2D2D2D" fill="#FFEBA2"/>
  <rect id="1d04670d18f94043ac04656288ecc3e5-oa-14" height="29.11392" width="75.94937" y="394.22783" x="26.11393" stroke="#2D2D2D" fill="#FFEBA2"/>
  <rect id="1d04670d18f94043ac04656288ecc3e5-oa-15" height="11.39241" width="81.01266" y="217.01264" x="21.05064" stroke="#2D2D2D" fill="#FFEBA2"/>
  <rect id="1d04670d18f94043ac04656288ecc3e5-oa-16" height="13.92405" width="63.29114" y="247.39239" x="34.97469" stroke="#2D2D2D" fill="#FFEBA2"/>
  <rect id="1d04670d18f94043ac04656288ecc3e5-oa-17" height="15.18987" width="88.6076" y="277.77213" x="19.78482" stroke="#2D2D2D" fill="#FFEBA2"/>
  <rect id="1d04670d18f94043ac04656288ecc3e5-oa-18" height="11.39241" width="100" y="306.88606" x="3.32912" stroke="#2D2D2D" fill="#FFEBA2"/>
  <rect id="1d04670d18f94043ac04656288ecc3e5-oa-19" height="15.18987" width="83.5443" y="325.8734" x="18.51899" stroke="#2D2D2D" fill="#FFEBA2"/>
  <rect id="1d04670d18f94043ac04656288ecc3e5-oa-20" height="32.91139" width="65.82279" y="349.92403" x="34.97469" stroke="#2D2D2D" fill="#FFEBA2"/>
 </g>
</svg>