<svg xmlns="http://www.w3.org/2000/svg" width="1600" height="1447">
 <!-- Created with Image Occlusion Enhanced -->
 <g>
  <title>Labels</title>
 </g>
 <g>
  <title>Masks</title>
  <rect id="2a6bf08ffefe4d21b9392edf2bb8eb3c-ao-1" height="50" width="93.58974" y="227.35891" x="241.02564" stroke="#2D2D2D" fill="#007fff"/>
  <rect id="2a6bf08ffefe4d21b9392edf2bb8eb3c-ao-2" height="58.97436" width="94.87179" y="615.82045" x="191.02564" stroke="#2D2D2D" fill="#007fff"/>
  <rect id="2a6bf08ffefe4d21b9392edf2bb8eb3c-ao-3" height="52.5641" width="138.46154" y="735.05122" x="180.76923" stroke="#2D2D2D" fill="#007fff"/>
  <rect id="2a6bf08ffefe4d21b9392edf2bb8eb3c-ao-4" height="42.30769" width="125.64103" y="819.6666" x="183.33333" stroke="#2D2D2D" fill="#007fff"/>
  <rect id="2a6bf08ffefe4d21b9392edf2bb8eb3c-ao-5" height="52.5641" width="129.48718" y="886.33327" x="203.84615" stroke="#2D2D2D" fill="#007fff"/>
  <rect id="2a6bf08ffefe4d21b9392edf2bb8eb3c-ao-6" height="24.35897" width="60.25641" y="960.69224" x="267.94872" stroke="#2D2D2D" fill="#007fff"/>
  <rect id="2a6bf08ffefe4d21b9392edf2bb8eb3c-ao-7" height="52.5641" width="100" y="1002.99993" x="261.53846" stroke="#2D2D2D" fill="#007fff"/>
  <rect id="2a6bf08ffefe4d21b9392edf2bb8eb3c-ao-8" height="25.64103" width="123.07692" y="1074.79481" x="265.38462" stroke="#2D2D2D" fill="#007fff"/>
  <rect id="2a6bf08ffefe4d21b9392edf2bb8eb3c-ao-9" height="52.5641" width="114.10256" y="1120.94865" x="289.74359" stroke="#2D2D2D" fill="#007fff"/>
  <rect id="2a6bf08ffefe4d21b9392edf2bb8eb3c-ao-10" height="57.69231" width="124.35897" y="1190.17942" x="276.92308" stroke="#2D2D2D" fill="#007fff"/>
  <rect id="2a6bf08ffefe4d21b9392edf2bb8eb3c-ao-11" height="28.20513" width="88.46154" y="1282.48711" x="360.25641" stroke="#2D2D2D" fill="#007fff"/>
  <rect id="2a6bf08ffefe4d21b9392edf2bb8eb3c-ao-12" height="43.58974" width="78.20513" y="1278.64096" x="1124.35897" stroke="#2D2D2D" fill="#007fff"/>
  <rect id="2a6bf08ffefe4d21b9392edf2bb8eb3c-ao-13" height="62.82051" width="100" y="1201.71788" x="1178.20513" stroke="#2D2D2D" fill="#007fff"/>
  <rect id="2a6bf08ffefe4d21b9392edf2bb8eb3c-ao-14" height="51.28205" width="157.69231" y="1118.38455" x="1178.20513" stroke="#2D2D2D" fill="#007fff"/>
  
  <rect id="2a6bf08ffefe4d21b9392edf2bb8eb3c-ao-16" height="52.5641" width="141.02564" y="961.97429" x="1250" stroke="#2D2D2D" fill="#007fff"/>
  <rect id="2a6bf08ffefe4d21b9392edf2bb8eb3c-ao-17" height="46.15385" width="107.69231" y="896.58968" x="1276.92308" stroke="#2D2D2D" fill="#007fff"/>
  <rect id="2a6bf08ffefe4d21b9392edf2bb8eb3c-ao-18" height="47.4359" width="152.5641" y="827.35891" x="1279.48718" stroke="#2D2D2D" fill="#007fff"/>
  <rect id="2a6bf08ffefe4d21b9392edf2bb8eb3c-ao-19" height="57.69231" width="124.35897" y="747.87173" x="1291.02564" stroke="#2D2D2D" fill="#007fff"/>
  <rect id="2a6bf08ffefe4d21b9392edf2bb8eb3c-ao-20" height="51.28205" width="124.35897" y="677.35891" x="1301.28205" stroke="#2D2D2D" fill="#007fff"/>
  <rect id="2a6bf08ffefe4d21b9392edf2bb8eb3c-ao-21" height="44.87179" width="111.53846" y="542.74352" x="1300" stroke="#2D2D2D" fill="#007fff"/>
  <rect id="2a6bf08ffefe4d21b9392edf2bb8eb3c-ao-22" height="32.05128" width="96.15385" y="355.56404" x="1306.41026" stroke="#2D2D2D" fill="#007fff"/>
 </g>
</svg>