<svg xmlns="http://www.w3.org/2000/svg" width="1465" height="1848">
 <!-- Created with Image Occlusion Enhanced -->
 <g>
  <title>Labels</title>
 </g>
 <g>
  <title>Masks</title>
  <rect id="5a2b27f9f2a4453aa2f6692511670e6b-ao-1" height="120.3125" width="265.62501" y="250.12505" x="73.75004" stroke="#2D2D2D" fill="#007fff"/>
  <rect id="5a2b27f9f2a4453aa2f6692511670e6b-ao-2" height="110.9375" width="284.37501" y="395.43755" x="72.18754" stroke="#2D2D2D" fill="#007fff"/>
  <rect id="5a2b27f9f2a4453aa2f6692511670e6b-ao-3" height="85.9375" width="292.18751" y="536.06256" x="80.00004" stroke="#2D2D2D" fill="#007fff"/>
  
  <rect id="5a2b27f9f2a4453aa2f6692511670e6b-ao-5" height="87.5" width="301.56251" y="745.43756" x="76.87504" stroke="#2D2D2D" fill="#007fff"/>
  <rect id="5a2b27f9f2a4453aa2f6692511670e6b-ao-6" height="112.5" width="293.75001" y="859.50007" x="78.43754" stroke="#2D2D2D" fill="#007fff"/>
  <rect id="5a2b27f9f2a4453aa2f6692511670e6b-ao-7" height="109.375" width="254.68751" y="998.56257" x="76.87504" stroke="#2D2D2D" fill="#007fff"/>
  <rect id="5a2b27f9f2a4453aa2f6692511670e6b-ao-8" height="223.43751" width="290.62501" y="1134.50007" x="73.75004" stroke="#2D2D2D" fill="#007fff"/>
  <rect id="5a2b27f9f2a4453aa2f6692511670e6b-ao-9" height="67.1875" width="296.87501" y="1386.06258" x="75.31254" stroke="#2D2D2D" fill="#007fff"/>
  <rect id="5a2b27f9f2a4453aa2f6692511670e6b-ao-10" height="225.00001" width="260.93751" y="1478.25008" x="80.00004" stroke="#2D2D2D" fill="#007fff"/>
  <rect id="5a2b27f9f2a4453aa2f6692511670e6b-ao-11" height="85.9375" width="270.31251" y="1728.25009" x="76.87504" stroke="#2D2D2D" fill="#007fff"/>
  <rect id="5a2b27f9f2a4453aa2f6692511670e6b-ao-12" height="123.4375" width="282.81251" y="1295.43758" x="1103.43757" stroke="#2D2D2D" fill="#007fff"/>
  <rect id="5a2b27f9f2a4453aa2f6692511670e6b-ao-13" height="143.75" width="293.75001" y="1115.75007" x="1103.43757" stroke="#2D2D2D" fill="#007fff"/>
  <rect id="5a2b27f9f2a4453aa2f6692511670e6b-ao-14" height="143.75" width="270.31251" y="934.50007" x="1098.75007" stroke="#2D2D2D" fill="#007fff"/>
  <rect id="5a2b27f9f2a4453aa2f6692511670e6b-ao-15" height="156.25" width="307.81251" y="750.12506" x="1103.43757" stroke="#2D2D2D" fill="#007fff"/>
  <rect id="5a2b27f9f2a4453aa2f6692511670e6b-ao-16" height="128.125" width="265.62501" y="592.31256" x="1100.31257" stroke="#2D2D2D" fill="#007fff"/>
  <rect id="5a2b27f9f2a4453aa2f6692511670e6b-ao-17" height="126.5625" width="246.87501" y="432.93756" x="1097.18757" stroke="#2D2D2D" fill="#007fff"/>
  <rect id="5a2b27f9f2a4453aa2f6692511670e6b-ao-18" height="154.6875" width="254.68751" y="247.00005" x="1097.18757" stroke="#2D2D2D" fill="#007fff"/>
 </g>
</svg>