<svg xmlns="http://www.w3.org/2000/svg" width="1279" height="1242">
 <!-- Created with Image Occlusion Enhanced -->
 <g>
  <title>Labels</title>
 </g>
 <g>
  <title>Masks</title>
  <rect id="5d51b4b550f9474587318e3970c43552-ao-1" height="55.31915" width="131.9149" y="164.80853" x="33.76593" stroke="#2D2D2D" fill="#007fff"/>
  <rect id="5d51b4b550f9474587318e3970c43552-ao-2" height="29.78723" width="108.51064" y="241.40428" x="52.91487" stroke="#2D2D2D" fill="#007fff"/>
  <rect id="5d51b4b550f9474587318e3970c43552-ao-3" height="42.55319" width="134.04256" y="288.21279" x="57.17019" stroke="#2D2D2D" fill="#007fff"/>
  <rect id="5d51b4b550f9474587318e3970c43552-ao-4" height="51.06383" width="129.78724" y="356.2979" x="63.55317" stroke="#2D2D2D" fill="#007fff"/>
  <rect id="5d51b4b550f9474587318e3970c43552-ao-5" height="57.44681" width="102.12766" y="418.00003" x="114.617" stroke="#2D2D2D" fill="#007fff"/>
  <rect id="5d51b4b550f9474587318e3970c43552-ao-6" height="27.65957" width="134.04256" y="500.97875" x="82.7021" stroke="#2D2D2D" fill="#007fff"/>
  <rect id="5d51b4b550f9474587318e3970c43552-ao-7" height="57.44681" width="131.9149" y="545.6596" x="116.74466" stroke="#2D2D2D" fill="#007fff"/>
  <rect id="5d51b4b550f9474587318e3970c43552-ao-8" height="36.17021" width="119.14894" y="628.63833" x="148.65955" stroke="#2D2D2D" fill="#007fff"/>
  <rect id="5d51b4b550f9474587318e3970c43552-ao-9" height="29.78723" width="85.10638" y="688.2128" x="201.85104" stroke="#2D2D2D" fill="#007fff"/>
  <rect id="5d51b4b550f9474587318e3970c43552-ao-10" height="53.19149" width="93.61702" y="756.29791" x="272.06381" stroke="#2D2D2D" fill="#007fff"/>
  
  <rect id="5d51b4b550f9474587318e3970c43552-ao-12" height="31.91489" width="119.14894" y="849.91493" x="889.08509" stroke="#2D2D2D" fill="#007fff"/>
  <rect id="5d51b4b550f9474587318e3970c43552-ao-13" height="51.06383" width="121.2766" y="760.55322" x="940.14893" stroke="#2D2D2D" fill="#007fff"/>
  <rect id="5d51b4b550f9474587318e3970c43552-ao-14" height="53.19149" width="108.51064" y="686.08514" x="935.89361" stroke="#2D2D2D" fill="#007fff"/>
  <rect id="5d51b4b550f9474587318e3970c43552-ao-15" height="31.91489" width="129.78724" y="641.40429" x="963.55318" stroke="#2D2D2D" fill="#007fff"/>
  <rect id="5d51b4b550f9474587318e3970c43552-ao-16" height="53.19149" width="134.04256" y="573.31918" x="984.82978" stroke="#2D2D2D" fill="#007fff"/>
  <rect id="5d51b4b550f9474587318e3970c43552-ao-17" height="55.31915" width="155.31915" y="496.72343" x="1001.85105" stroke="#2D2D2D" fill="#007fff"/>
  <rect id="5d51b4b550f9474587318e3970c43552-ao-18" height="25.53192" width="153.19149" y="458.42556" x="1033.76595" stroke="#2D2D2D" fill="#007fff"/>
  <rect id="5d51b4b550f9474587318e3970c43552-ao-19" height="25.53192" width="125.53192" y="407.36173" x="1059.29786" stroke="#2D2D2D" fill="#007fff"/>
  <rect id="5d51b4b550f9474587318e3970c43552-ao-20" height="55.31915" width="157.44681" y="335.0213" x="1059.29786" stroke="#2D2D2D" fill="#007fff"/>
  <rect id="5d51b4b550f9474587318e3970c43552-ao-21" height="29.78723" width="153.19149" y="288.21279" x="1086.95744" stroke="#2D2D2D" fill="#007fff"/>
  <rect id="5d51b4b550f9474587318e3970c43552-ao-22" height="23.40426" width="78.72341" y="243.53194" x="1091.21276" stroke="#2D2D2D" fill="#007fff"/>
  <rect id="5d51b4b550f9474587318e3970c43552-ao-23" height="51.06383" width="106.38298" y="171.19151" x="1089.0851" stroke="#2D2D2D" fill="#007fff"/>
  <rect id="5d51b4b550f9474587318e3970c43552-ao-24" height="61.70213" width="123.40426" y="96.72343" x="1089.0851" stroke="#2D2D2D" fill="#007fff"/>
 </g>
</svg>