<svg xmlns="http://www.w3.org/2000/svg" width="676" height="534">
 <!-- Created with Image Occlusion Enhanced -->
 <g>
  <title>Labels</title>
 </g>
 <g>
  <title>Masks</title>
  <rect id="6c0e2410b6174659939d60846054e38c-oa-1" height="34.23423" width="65.76577" y="245.45947" x="46.52254" stroke="#2D2D2D" fill="#FFEBA2"/>
  <rect id="6c0e2410b6174659939d60846054e38c-oa-2" height="32.43243" width="75.67568" y="202.21623" x="46.52254" stroke="#2D2D2D" fill="#FFEBA2"/>
  <rect id="6c0e2410b6174659939d60846054e38c-oa-3" height="32.43243" width="79.27928" y="160.77479" x="32.10812" stroke="#2D2D2D" fill="#FFEBA2"/>
  <rect id="6c0e2410b6174659939d60846054e38c-oa-4" height="25.22523" width="90.09009" y="131.94596" x="17.69371" stroke="#2D2D2D" fill="#FFEBA2"/>
  <rect id="6c0e2410b6174659939d60846054e38c-oa-5" height="20.72072" width="81.08108" y="106.72073" x="27.60362" stroke="#2D2D2D" fill="#FFEBA2"/>
  <rect id="6c0e2410b6174659939d60846054e38c-oa-6" height="23.42342" width="68.46847" y="45.45947" x="156.43245" stroke="#2D2D2D" fill="#FFEBA2"/>
  <rect id="6c0e2410b6174659939d60846054e38c-oa-7" height="27.92793" width="81.98198" y="37.35136" x="258.23425" stroke="#2D2D2D" fill="#FFEBA2"/>
  <rect id="6c0e2410b6174659939d60846054e38c-oa-8" height="24.32432" width="52.25225" y="38.25226" x="376.25227" stroke="#2D2D2D" fill="#FFEBA2"/>
  <rect id="6c0e2410b6174659939d60846054e38c-oa-9" height="18.91892" width="76.57658" y="122.93695" x="546.88291" stroke="#2D2D2D" fill="#FFEBA2"/>
  <rect id="6c0e2410b6174659939d60846054e38c-oa-10" height="23.42342" width="83.78379" y="148.16217" x="545.0811" stroke="#2D2D2D" fill="#FFEBA2"/>
  <rect id="6c0e2410b6174659939d60846054e38c-oa-11" height="20.72072" width="91.89189" y="177.8919" x="550.48651" stroke="#2D2D2D" fill="#FFEBA2"/>
  <rect id="6c0e2410b6174659939d60846054e38c-oa-12" height="13.51351" width="79.27928" y="209.42344" x="550.48651" stroke="#2D2D2D" fill="#FFEBA2"/>
  <rect id="6c0e2410b6174659939d60846054e38c-oa-13" height="17.11712" width="81.08108" y="230.14416" x="546.88291" stroke="#2D2D2D" fill="#FFEBA2"/>
  <rect id="6c0e2410b6174659939d60846054e38c-oa-14" height="26.12613" width="73.87388" y="255.36938" x="586.52255" stroke="#2D2D2D" fill="#FFEBA2"/>
  <rect id="6c0e2410b6174659939d60846054e38c-oa-15" height="32.43243" width="52.25225" y="294.10812" x="582.91894" stroke="#2D2D2D" fill="#FFEBA2"/>
  <rect id="6c0e2410b6174659939d60846054e38c-oa-16" height="29.72973" width="64.86487" y="346.36038" x="578.41444" stroke="#2D2D2D" fill="#FFEBA2"/>
  <rect id="6c0e2410b6174659939d60846054e38c-oa-17" height="41.44144" width="59.45946" y="393.20722" x="582.01804" stroke="#2D2D2D" fill="#FFEBA2"/>
 </g>
</svg>