<svg xmlns="http://www.w3.org/2000/svg" width="2118" height="488">
 <!-- Created with Image Occlusion Enhanced -->
 <g>
  <title>Labels</title>
 </g>
 <g>
  <title>Masks</title>
  <rect id="70700b4ffab54e638633892213112c9e-ao-1" height="37.2549" width="184.31372" y="19.84313" x="123.17633" stroke="#2D2D2D" fill="#FFEBA2"/>
  <rect id="70700b4ffab54e638633892213112c9e-ao-2" height="41.17647" width="170.58823" y="137.49018" x="376.1175" stroke="#2D2D2D" fill="#FFEBA2"/>
  <rect id="70700b4ffab54e638633892213112c9e-ao-3" height="43.13725" width="154.90196" y="19.84313" x="762.392" stroke="#2D2D2D" fill="#FFEBA2"/>
  <rect id="70700b4ffab54e638633892213112c9e-ao-4" height="66.66667" width="282.35294" y="206.11763" x="372.19593" stroke="#2D2D2D" fill="#FFEBA2"/>
  <rect id="70700b4ffab54e638633892213112c9e-ao-5" height="49.01961" width="145.09804" y="57.09803" x="1058.47043" stroke="#2D2D2D" fill="#FFEBA2"/>
  <rect id="70700b4ffab54e638633892213112c9e-ao-6" height="45.09804" width="162.74509" y="294.35293" x="378.07829" stroke="#2D2D2D" fill="#FFEBA2"/>
  <rect id="70700b4ffab54e638633892213112c9e-ao-7" height="78.43137" width="207.84313" y="135.5294" x="1062.392" stroke="#2D2D2D" fill="#FFEBA2"/>
  <rect id="70700b4ffab54e638633892213112c9e-ao-8" height="45.09804" width="164.70588" y="357.09802" x="376.1175" stroke="#2D2D2D" fill="#FFEBA2"/>
  <rect id="70700b4ffab54e638633892213112c9e-ao-9" height="37.2549" width="209.80392" y="108.07842" x="1817.29394" stroke="#2D2D2D" fill="#FFEBA2"/>
  <rect id="70700b4ffab54e638633892213112c9e-ao-10" height="47.05882" width="194.11764" y="231.60783" x="1056.50965" stroke="#2D2D2D" fill="#FFEBA2"/>
  <rect id="70700b4ffab54e638633892213112c9e-ao-11" height="43.13725" width="139.21568" y="172.7843" x="1819.25473" stroke="#2D2D2D" fill="#FF7E7E" class="qshape"/>
  <rect id="70700b4ffab54e638633892213112c9e-ao-12" height="39.21569" width="168.62745" y="300.23528" x="1050.62729" stroke="#2D2D2D" fill="#FFEBA2"/>
  <rect id="70700b4ffab54e638633892213112c9e-ao-13" height="43.13725" width="137.2549" y="233.56861" x="1823.1763" stroke="#2D2D2D" fill="#FFEBA2"/>
  <rect id="70700b4ffab54e638633892213112c9e-ao-14" height="45.09804" width="164.70588" y="366.90194" x="1827.09787" stroke="#2D2D2D" fill="#FFEBA2"/>
  <rect id="70700b4ffab54e638633892213112c9e-ao-15" height="50.98039" width="152.94117" y="357.09802" x="1054.54886" stroke="#2D2D2D" fill="#FFEBA2"/>
  <rect id="70700b4ffab54e638633892213112c9e-ao-16" height="41.17647" width="152.94117" y="302.19606" x="1817.29394" stroke="#2D2D2D" fill="#FFEBA2"/>
 </g>
</svg>