<svg xmlns="http://www.w3.org/2000/svg" width="1600" height="1398">
 <!-- Created with Image Occlusion Enhanced -->
 <g>
  <title>Labels</title>
 </g>
 <g>
  <title>Masks</title>
  <rect id="7629f96510d0497bb87bf5a8e112f9e7-ao-1" height="32.09877" width="104.93827" y="311.87653" x="198.76543" stroke="#2D2D2D" fill="#007fff"/>
  <rect id="7629f96510d0497bb87bf5a8e112f9e7-ao-2" height="48.14815" width="97.53086" y="382.2469" x="212.34568" stroke="#2D2D2D" fill="#007fff"/>
  <rect id="7629f96510d0497bb87bf5a8e112f9e7-ao-3" height="50.61728" width="123.45679" y="445.20987" x="179.01235" stroke="#2D2D2D" fill="#007fff"/>
  <rect id="7629f96510d0497bb87bf5a8e112f9e7-ao-4" height="24.69136" width="90.12346" y="511.87653" x="212.34568" stroke="#2D2D2D" fill="#007fff"/>
  <rect id="7629f96510d0497bb87bf5a8e112f9e7-ao-5" height="56.79012" width="139.50617" y="550.14814" x="165.4321" stroke="#2D2D2D" fill="#007fff"/>
  <rect id="7629f96510d0497bb87bf5a8e112f9e7-ao-6" height="74.07407" width="143.20988" y="624.22221" x="162.96296" stroke="#2D2D2D" fill="#007fff"/>
  <rect id="7629f96510d0497bb87bf5a8e112f9e7-ao-7" height="56.79012" width="120.98765" y="708.17283" x="182.71605" stroke="#2D2D2D" fill="#007fff"/>
  <rect id="7629f96510d0497bb87bf5a8e112f9e7-ao-8" height="45.67901" width="139.50617" y="782.2469" x="170.37037" stroke="#2D2D2D" fill="#007fff"/>
  <rect id="7629f96510d0497bb87bf5a8e112f9e7-ao-9" height="23.45679" width="76.54321" y="846.44444" x="223.45679" stroke="#2D2D2D" fill="#007fff"/>
  <rect id="7629f96510d0497bb87bf5a8e112f9e7-ao-10" height="60.49383" width="133.33333" y="882.2469" x="192.59259" stroke="#2D2D2D" fill="#007fff"/>
  <rect id="7629f96510d0497bb87bf5a8e112f9e7-ao-11" height="54.32099" width="111.11111" y="958.79011" x="237.03704" stroke="#2D2D2D" fill="#007fff"/>
  <rect id="7629f96510d0497bb87bf5a8e112f9e7-ao-12" height="29.62963" width="95.06173" y="1218.04937" x="340.74074" stroke="#2D2D2D" fill="#007fff"/>
  <rect id="7629f96510d0497bb87bf5a8e112f9e7-ao-13" height="54.32099" width="81.48148" y="1237.80246" x="1144.44444" stroke="#2D2D2D" fill="#007fff"/>
  <rect id="7629f96510d0497bb87bf5a8e112f9e7-ao-14" height="28.39506" width="77.77778" y="1073.60493" x="1160.49383" stroke="#2D2D2D" fill="#007fff"/>
  <rect id="7629f96510d0497bb87bf5a8e112f9e7-ao-15" height="49.38272" width="148.14815" y="966.19752" x="1244.44444" stroke="#2D2D2D" fill="#007fff"/>
  <rect id="7629f96510d0497bb87bf5a8e112f9e7-ao-16" height="50.61728" width="106.17284" y="884.71604" x="1267.90123" stroke="#2D2D2D" fill="#007fff"/>
  <rect id="7629f96510d0497bb87bf5a8e112f9e7-ao-17" height="23.45679" width="65.4321" y="829.16048" x="1295.06173" stroke="#2D2D2D" fill="#007fff"/>
  <rect id="7629f96510d0497bb87bf5a8e112f9e7-ao-18" height="37.03704" width="169.1358" y="769.90123" x="1296.2963" stroke="#2D2D2D" fill="#007fff"/>
  <rect id="7629f96510d0497bb87bf5a8e112f9e7-ao-19" height="25.92593" width="140.74074" y="719.28394" x="1297.53086" stroke="#2D2D2D" fill="#007fff"/>
  <rect id="7629f96510d0497bb87bf5a8e112f9e7-ao-20" height="46.91358" width="149.38272" y="651.38271" x="1292.59259" stroke="#2D2D2D" fill="#007fff"/>
  <rect id="7629f96510d0497bb87bf5a8e112f9e7-ao-21" height="18.51852" width="59.25926" y="609.4074" x="1297.53086" stroke="#2D2D2D" fill="#007fff"/>
  <rect id="7629f96510d0497bb87bf5a8e112f9e7-ao-22" height="33.33333" width="114.81481" y="560.02468" x="1295.06173" stroke="#2D2D2D" fill="#007fff"/>
  <rect id="7629f96510d0497bb87bf5a8e112f9e7-ao-23" height="45.67901" width="143.20988" y="493.35802" x="1288.88889" stroke="#2D2D2D" fill="#007fff"/>
  <rect id="7629f96510d0497bb87bf5a8e112f9e7-ao-24" height="51.85185" width="123.45679" y="422.98765" x="1292.59259" stroke="#2D2D2D" fill="#007fff"/>
  <rect id="7629f96510d0497bb87bf5a8e112f9e7-ao-25" height="28.39506" width="109.87654" y="378.5432" x="1292.59259" stroke="#2D2D2D" fill="#FF7E7E" class="qshape"/>
 </g>
</svg>