<svg xmlns="http://www.w3.org/2000/svg" width="763" height="778.9999999999999">
 <!-- Created with Image Occlusion Enhanced -->
 <g>
  <title>Labels</title>
 </g>
 <g>
  <title>Masks</title>
  <rect id="7b0918ac951544bf9a93dd29de26373b-oa-1" height="47.36842" width="136.84211" y="7.57898" x="109.3684" stroke="#2D2D2D" fill="#FFEBA2"/>
  <rect id="7b0918ac951544bf9a93dd29de26373b-oa-2" height="63.1579" width="81.57895" y="1.00003" x="273.84209" stroke="#2D2D2D" fill="#FFEBA2"/>
  <rect id="7b0918ac951544bf9a93dd29de26373b-oa-3" height="53.94737" width="88.1579" y="1.00003" x="379.10525" stroke="#2D2D2D" fill="#FFEBA2"/>
  <rect id="7b0918ac951544bf9a93dd29de26373b-oa-4" height="46.05263" width="84.21053" y="12.84213" x="484.36842" stroke="#2D2D2D" fill="#FFEBA2"/>
  <rect id="7b0918ac951544bf9a93dd29de26373b-oa-5" height="23.68421" width="73.68421" y="74.68424" x="563.31579" stroke="#2D2D2D" fill="#FFEBA2"/>
  <rect id="7b0918ac951544bf9a93dd29de26373b-oa-6" height="46.05263" width="97.36842" y="118.1053" x="589.63158" stroke="#2D2D2D" fill="#FFEBA2"/>
  <rect id="7b0918ac951544bf9a93dd29de26373b-oa-7" height="21.05263" width="106.57895" y="179.9474" x="593.57895" stroke="#2D2D2D" fill="#FFEBA2"/>
  <rect id="7b0918ac951544bf9a93dd29de26373b-oa-8" height="17.10526" width="101.31579" y="216.78951" x="612" stroke="#2D2D2D" fill="#FFEBA2"/>
  <rect id="7b0918ac951544bf9a93dd29de26373b-oa-9" height="32.89474" width="81.57895" y="251.00004" x="618.57895" stroke="#2D2D2D" fill="#FFEBA2"/>
  <rect id="7b0918ac951544bf9a93dd29de26373b-oa-10" height="42.10526" width="75" y="301.00004" x="618.57895" stroke="#2D2D2D" fill="#FFEBA2"/>
  <rect id="7b0918ac951544bf9a93dd29de26373b-oa-11" height="27.63158" width="97.36842" y="364.15794" x="617.26316" stroke="#2D2D2D" fill="#FFEBA2"/>
  <rect id="7b0918ac951544bf9a93dd29de26373b-oa-12" height="43.42105" width="94.73685" y="404.94741" x="618.57895" stroke="#2D2D2D" fill="#FFEBA2"/>
  <rect id="7b0918ac951544bf9a93dd29de26373b-oa-13" height="34.21053" width="88.1579" y="468.10531" x="619.89474" stroke="#2D2D2D" fill="#FFEBA2"/>
  <rect id="7b0918ac951544bf9a93dd29de26373b-oa-14" height="31.57895" width="93.42106" y="514.15794" x="618.57895" stroke="#2D2D2D" fill="#FFEBA2"/>
  <rect id="7b0918ac951544bf9a93dd29de26373b-oa-15" height="36.84211" width="93.42106" y="560.21058" x="617.26316" stroke="#2D2D2D" fill="#FFEBA2"/>
  <rect id="7b0918ac951544bf9a93dd29de26373b-oa-16" height="30.26316" width="78.94737" y="607.579" x="634.36842" stroke="#2D2D2D" fill="#FFEBA2"/>
  <rect id="7b0918ac951544bf9a93dd29de26373b-oa-17" height="39.47369" width="130.26316" y="679.94742" x="490.94736" stroke="#2D2D2D" fill="#FFEBA2"/>
  <rect id="7b0918ac951544bf9a93dd29de26373b-oa-18" height="39.47369" width="90.78948" y="677.31584" x="389.63157" stroke="#2D2D2D" fill="#FFEBA2"/>
  <rect id="7b0918ac951544bf9a93dd29de26373b-oa-19" height="35.52632" width="85.52632" y="679.94742" x="165.94735" stroke="#2D2D2D" fill="#FFEBA2"/>
  <rect id="7b0918ac951544bf9a93dd29de26373b-oa-20" height="44.73684" width="73.68421" y="672.05269" x="290.94736" stroke="#2D2D2D" fill="#FFEBA2"/>
  <rect id="7b0918ac951544bf9a93dd29de26373b-oa-21" height="44.73684" width="76.31579" y="573.36847" x="38.31577" stroke="#2D2D2D" fill="#FFEBA2"/>
  <rect id="7b0918ac951544bf9a93dd29de26373b-oa-22" height="44.73684" width="101.31579" y="520.73689" x="25.15787" stroke="#2D2D2D" fill="#FFEBA2"/>
  <rect id="7b0918ac951544bf9a93dd29de26373b-oa-23" height="25" width="75" y="481.2632" x="40.94735" stroke="#2D2D2D" fill="#FFEBA2"/>
  <rect id="7b0918ac951544bf9a93dd29de26373b-oa-24" height="53.94737" width="88.1579" y="104.9474" x="23.84208" stroke="#2D2D2D" fill="#FFEBA2"/>
  <rect id="7b0918ac951544bf9a93dd29de26373b-oa-25" height="51.31579" width="69.73684" y="173.36846" x="39.63156" stroke="#2D2D2D" fill="#FFEBA2"/>
  <rect id="7b0918ac951544bf9a93dd29de26373b-oa-26" height="43.42105" width="88.1579" y="244.42109" x="34.3684" stroke="#2D2D2D" fill="#FFEBA2"/>
  <rect id="7b0918ac951544bf9a93dd29de26373b-oa-27" height="38.1579" width="92.10527" y="306.2632" x="17.26313" stroke="#2D2D2D" fill="#FFEBA2"/>
  <rect id="7b0918ac951544bf9a93dd29de26373b-oa-28" height="39.47369" width="93.42106" y="358.89478" x="19.89471" stroke="#2D2D2D" fill="#FFEBA2"/>
  <rect id="7b0918ac951544bf9a93dd29de26373b-oa-29" height="14.47368" width="88.1579" y="418.10531" x="30.42103" stroke="#2D2D2D" fill="#FFEBA2"/>
  <rect id="7b0918ac951544bf9a93dd29de26373b-oa-30" height="25" width="93.42106" y="448.36847" x="14.63156" stroke="#2D2D2D" fill="#FFEBA2"/>
 </g>
</svg>