<svg xmlns="http://www.w3.org/2000/svg" width="1600" height="1749.0000000000002">
 <!-- Created with Image Occlusion Enhanced -->
 <g>
  <title>Labels</title>
 </g>
 <g>
  <title>Masks</title>
  <rect id="7b758043e9e3406da59dfdfdf17236d4-ao-1" height="19.69697" width="172.72728" y="193.12127" x="145.1515" stroke="#2D2D2D" fill="#007fff"/>
  <rect id="7b758043e9e3406da59dfdfdf17236d4-ao-2" height="104.54546" width="265.15152" y="247.66673" x="146.66665" stroke="#2D2D2D" fill="#007fff"/>
  <rect id="7b758043e9e3406da59dfdfdf17236d4-ao-3" height="124.24243" width="281.81819" y="381.00006" x="145.1515" stroke="#2D2D2D" fill="#007fff"/>
  <rect id="7b758043e9e3406da59dfdfdf17236d4-ao-4" height="22.72727" width="166.66667" y="546.15158" x="148.1818" stroke="#2D2D2D" fill="#007fff"/>
  <rect id="7b758043e9e3406da59dfdfdf17236d4-ao-5" height="127.27273" width="189.39395" y="597.66674" x="143.63634" stroke="#2D2D2D" fill="#007fff"/>
  <rect id="7b758043e9e3406da59dfdfdf17236d4-ao-6" height="319.69698" width="246.9697" y="756.75765" x="146.66665" stroke="#2D2D2D" fill="#007fff"/>
  <rect id="7b758043e9e3406da59dfdfdf17236d4-ao-7" height="122.72728" width="304.54546" y="1112.81827" x="145.1515" stroke="#2D2D2D" fill="#007fff"/>
  <rect id="7b758043e9e3406da59dfdfdf17236d4-ao-8" height="125.75758" width="303.03031" y="1264.33342" x="145.1515" stroke="#2D2D2D" fill="#007fff"/>
  <rect id="7b758043e9e3406da59dfdfdf17236d4-ao-9" height="18.18182" width="189.39395" y="1434.0304" x="146.66665" stroke="#2D2D2D" fill="#007fff"/>
  <rect id="7b758043e9e3406da59dfdfdf17236d4-ao-10" height="174.24243" width="307.57577" y="1482.51525" x="143.63634" stroke="#2D2D2D" fill="#007fff"/>
  <rect id="7b758043e9e3406da59dfdfdf17236d4-ao-11" height="75.75758" width="290.9091" y="1612.81828" x="1169.39395" stroke="#2D2D2D" fill="#007fff"/>
  <rect id="7b758043e9e3406da59dfdfdf17236d4-ao-12" height="57.57576" width="296.96971" y="1518.87888" x="1166.36365" stroke="#2D2D2D" fill="#007fff"/>
  <rect id="7b758043e9e3406da59dfdfdf17236d4-ao-13" height="103.03031" width="303.03031" y="1379.48494" x="1169.39395" stroke="#2D2D2D" fill="#007fff"/>
  
  <rect id="7b758043e9e3406da59dfdfdf17236d4-ao-15" height="218.18182" width="284.84849" y="1034.03039" x="1169.39395" stroke="#2D2D2D" fill="#007fff"/>
  <rect id="7b758043e9e3406da59dfdfdf17236d4-ao-16" height="24.24242" width="198.48485" y="981.00008" x="1166.36365" stroke="#2D2D2D" fill="#007fff"/>
  <rect id="7b758043e9e3406da59dfdfdf17236d4-ao-17" height="53.0303" width="301.51516" y="882.51523" x="1169.39395" stroke="#2D2D2D" fill="#007fff"/>
  <rect id="7b758043e9e3406da59dfdfdf17236d4-ao-18" height="81.81818" width="306.06062" y="764.33341" x="1169.39395" stroke="#2D2D2D" fill="#007fff"/>
  <rect id="7b758043e9e3406da59dfdfdf17236d4-ao-19" height="113.63637" width="307.57577" y="618.87886" x="1169.39395" stroke="#2D2D2D" fill="#007fff"/>
  <rect id="7b758043e9e3406da59dfdfdf17236d4-ao-20" height="106.06061" width="293.9394" y="476.45461" x="1169.39395" stroke="#2D2D2D" fill="#007fff"/>
  <rect id="7b758043e9e3406da59dfdfdf17236d4-ao-21" height="101.51515" width="300.00001" y="341.60612" x="1166.36365" stroke="#2D2D2D" fill="#007fff"/>
  <rect id="7b758043e9e3406da59dfdfdf17236d4-ao-22" height="60.60606" width="237.87879" y="246.15157" x="1169.39395" stroke="#2D2D2D" fill="#007fff"/>
  <rect id="7b758043e9e3406da59dfdfdf17236d4-ao-23" height="24.24242" width="187.87879" y="191.60612" x="1173.93941" stroke="#2D2D2D" fill="#007fff"/>
 </g>
</svg>