<svg xmlns="http://www.w3.org/2000/svg" width="955" height="918">
 <!-- Created with Image Occlusion Enhanced -->
 <g>
  <title>Labels</title>
 </g>
 <g>
  <title>Masks</title>
  <rect id="7eee49fe2b034d31b4e47d166ff957d2-ao-1" height="56.25" width="153.125" y="53.87496" x="749.06247" stroke="#2D2D2D" fill="#007fff"/>
  <rect id="7eee49fe2b034d31b4e47d166ff957d2-ao-2" height="21.09375" width="66.40625" y="117.93746" x="752.18747" stroke="#2D2D2D" fill="#007fff"/>
  <rect id="7eee49fe2b034d31b4e47d166ff957d2-ao-3" height="25" width="153.90625" y="159.34371" x="751.40622" stroke="#2D2D2D" fill="#007fff"/>
  <rect id="7eee49fe2b034d31b4e47d166ff957d2-ao-4" height="25.78125" width="112.5" y="200.74996" x="751.40622" stroke="#2D2D2D" fill="#007fff"/>
  <rect id="7eee49fe2b034d31b4e47d166ff957d2-ao-5" height="25" width="128.125" y="242.15621" x="746.71872" stroke="#2D2D2D" fill="#007fff"/>
  <rect id="7eee49fe2b034d31b4e47d166ff957d2-ao-6" height="43.75" width="140.625" y="281.99996" x="746.71872" stroke="#2D2D2D" fill="#007fff"/>
  <rect id="7eee49fe2b034d31b4e47d166ff957d2-ao-7" height="53.90625" width="123.4375" y="345.28121" x="741.24997" stroke="#2D2D2D" fill="#007fff"/>
  <rect id="7eee49fe2b034d31b4e47d166ff957d2-ao-8" height="30.46875" width="138.28125" y="410.90621" x="746.71872" stroke="#2D2D2D" fill="#007fff"/>
  <rect id="7eee49fe2b034d31b4e47d166ff957d2-ao-9" height="25.78125" width="113.28125" y="449.9687" x="743.59372" stroke="#2D2D2D" fill="#007fff"/>
  <rect id="7eee49fe2b034d31b4e47d166ff957d2-ao-10" height="27.34375" width="96.09375" y="489.81245" x="746.71872" stroke="#2D2D2D" fill="#007fff"/>
  <rect id="7eee49fe2b034d31b4e47d166ff957d2-ao-11" height="46.875" width="136.71875" y="528.0937" x="745.93747" stroke="#2D2D2D" fill="#007fff"/>
  <rect id="7eee49fe2b034d31b4e47d166ff957d2-ao-12" height="30.46875" width="177.34375" y="587.4687" x="737.34372" stroke="#2D2D2D" fill="#007fff"/>
  <rect id="7eee49fe2b034d31b4e47d166ff957d2-ao-13" height="26.5625" width="142.96875" y="631.2187" x="738.12497" stroke="#2D2D2D" fill="#007fff"/>
  <rect id="7eee49fe2b034d31b4e47d166ff957d2-ao-14" height="28.125" width="161.71875" y="671.8437" x="721.71872" stroke="#2D2D2D" fill="#007fff"/>
  <rect id="7eee49fe2b034d31b4e47d166ff957d2-ao-15" height="69.53125" width="134.375" y="717.93745" x="720.93747" stroke="#2D2D2D" fill="#007fff"/>
  <rect id="7eee49fe2b034d31b4e47d166ff957d2-ao-16" height="28.125" width="121.875" y="803.87495" x="721.71872" stroke="#2D2D2D" fill="#007fff"/>
  <rect id="7eee49fe2b034d31b4e47d166ff957d2-ao-17" height="46.875" width="142.96875" y="835.9062" x="545.93747" stroke="#2D2D2D" fill="#007fff"/>
  <rect id="7eee49fe2b034d31b4e47d166ff957d2-ao-18" height="49.21875" width="114.0625" y="835.9062" x="413.90622" stroke="#2D2D2D" fill="#007fff"/>
  <rect id="7eee49fe2b034d31b4e47d166ff957d2-ao-19" height="45.3125" width="78.125" y="836.68745" x="321.71872" stroke="#2D2D2D" fill="#007fff"/>
  <rect id="7eee49fe2b034d31b4e47d166ff957d2-ao-20" height="42.96875" width="114.0625" y="840.5937" x="163.12498" stroke="#2D2D2D" fill="#007fff"/>
  <rect id="7eee49fe2b034d31b4e47d166ff957d2-ao-21" height="43.75" width="70.3125" y="818.7187" x="61.56248" stroke="#2D2D2D" fill="#007fff"/>
  <rect id="7eee49fe2b034d31b4e47d166ff957d2-ao-22" height="46.09375" width="82.8125" y="755.43745" x="49.06248" stroke="#2D2D2D" fill="#007fff"/>
  <rect id="7eee49fe2b034d31b4e47d166ff957d2-ao-23" height="20.3125" width="83.59375" y="721.06245" x="44.37498" stroke="#2D2D2D" fill="#FF7E7E" class="qshape"/>
  <rect id="7eee49fe2b034d31b4e47d166ff957d2-ao-24" height="87.5" width="107.8125" y="614.0312" x="21.71873" stroke="#2D2D2D" fill="#007fff"/>
  <rect id="7eee49fe2b034d31b4e47d166ff957d2-ao-25" height="46.09375" width="89.0625" y="549.18745" x="38.12498" stroke="#2D2D2D" fill="#007fff"/>
  <rect id="7eee49fe2b034d31b4e47d166ff957d2-ao-26" height="48.4375" width="109.375" y="489.81245" x="41.24998" stroke="#2D2D2D" fill="#007fff"/>
  <rect id="7eee49fe2b034d31b4e47d166ff957d2-ao-27" height="93.75" width="181.25" y="389.81246" x="40.46873" stroke="#2D2D2D" fill="#007fff"/>
  <rect id="7eee49fe2b034d31b4e47d166ff957d2-ao-28" height="24.21875" width="137.5" y="356.99996" x="106.09373" stroke="#2D2D2D" fill="#007fff"/>
  <rect id="7eee49fe2b034d31b4e47d166ff957d2-ao-29" height="23.4375" width="192.96875" y="324.18746" x="75.62498" stroke="#2D2D2D" fill="#007fff"/>
  <rect id="7eee49fe2b034d31b4e47d166ff957d2-ao-30" height="51.5625" width="175" y="259.34371" x="131.09373" stroke="#2D2D2D" fill="#007fff"/>
  <rect id="7eee49fe2b034d31b4e47d166ff957d2-ao-31" height="41.40625" width="139.84375" y="209.34371" x="209.21873" stroke="#2D2D2D" fill="#007fff"/>
  <rect id="7eee49fe2b034d31b4e47d166ff957d2-ao-32" height="25.78125" width="143.75" y="174.96871" x="224.84373" stroke="#2D2D2D" fill="#007fff"/>
  <rect id="7eee49fe2b034d31b4e47d166ff957d2-ao-33" height="21.09375" width="150" y="141.37496" x="249.06248" stroke="#2D2D2D" fill="#007fff"/>
  <rect id="7eee49fe2b034d31b4e47d166ff957d2-ao-34" height="47.65625" width="193.75" y="78.09371" x="249.84373" stroke="#2D2D2D" fill="#007fff"/>
  <rect id="7eee49fe2b034d31b4e47d166ff957d2-ao-35" height="23.4375" width="121.09375" y="38.24996" x="321.71872" stroke="#2D2D2D" fill="#007fff"/>
 </g>
</svg>