<svg xmlns="http://www.w3.org/2000/svg" width="1479" height="1078">
 <!-- Created with Image Occlusion Enhanced -->
 <g>
  <title>Labels</title>
 </g>
 <g>
  <title>Masks</title>
  <rect id="896d01429d8f4ada8ef63b5f2042b875-ao-1" height="53.70371" width="89.81482" y="199.96297" x="653.22229" stroke="#2D2D2D" fill="#007fff"/>
  <rect id="896d01429d8f4ada8ef63b5f2042b875-ao-2" height="69.44445" width="115.74074" y="269.40741" x="655.07415" stroke="#2D2D2D" fill="#007fff"/>
  <rect id="896d01429d8f4ada8ef63b5f2042b875-ao-3" height="70.37037" width="120.37037" y="339.77778" x="44.88894" stroke="#2D2D2D" fill="#007fff"/>
  <rect id="896d01429d8f4ada8ef63b5f2042b875-ao-4" height="44.44445" width="91.66667" y="276.81482" x="78.22227" stroke="#2D2D2D" fill="#007fff"/>
  <rect id="896d01429d8f4ada8ef63b5f2042b875-ao-5" height="47.22222" width="125.92593" y="210.14815" x="43.03709" stroke="#2D2D2D" fill="#007fff"/>
  <rect id="896d01429d8f4ada8ef63b5f2042b875-ao-6" height="75" width="87.03704" y="592.55557" x="64.33339" stroke="#2D2D2D" fill="#007fff"/>
  <rect id="896d01429d8f4ada8ef63b5f2042b875-ao-7" height="70.37037" width="95.37037" y="687.92594" x="51.37042" stroke="#2D2D2D" fill="#007fff"/>
  <rect id="896d01429d8f4ada8ef63b5f2042b875-ao-8" height="49.07408" width="74.07408" y="775.88891" x="72.66672" stroke="#2D2D2D" fill="#007fff"/>
  <rect id="896d01429d8f4ada8ef63b5f2042b875-ao-9" height="50.92593" width="88.88889" y="844.40743" x="56.92598" stroke="#2D2D2D" fill="#007fff"/>
  <rect id="896d01429d8f4ada8ef63b5f2042b875-ao-10" height="51.85185" width="117.5926" y="1009.22225" x="224.51858" stroke="#2D2D2D" fill="#007fff"/>
  <rect id="896d01429d8f4ada8ef63b5f2042b875-ao-11" height="45.37037" width="86.11111" y="1012.92596" x="373.59265" stroke="#2D2D2D" fill="#007fff"/>
  <rect id="896d01429d8f4ada8ef63b5f2042b875-ao-12" height="50.92593" width="88.88889" y="555.51853" x="565.25933" stroke="#2D2D2D" fill="#007fff"/>
  <rect id="896d01429d8f4ada8ef63b5f2042b875-ao-13" height="50" width="93.51852" y="556.44446" x="682.85192" stroke="#2D2D2D" fill="#007fff"/>
  <rect id="896d01429d8f4ada8ef63b5f2042b875-ao-14" height="51.85185" width="103.70371" y="556.44446" x="809.70378" stroke="#2D2D2D" fill="#007fff"/>
  <rect id="896d01429d8f4ada8ef63b5f2042b875-ao-15" height="57.40741" width="137.96297" y="1007.3704" x="667.11118" stroke="#2D2D2D" fill="#007fff"/>
  <rect id="896d01429d8f4ada8ef63b5f2042b875-ao-16" height="34.25926" width="145.37038" y="52.74074" x="943.96304" stroke="#2D2D2D" fill="#007fff"/>
  <rect id="896d01429d8f4ada8ef63b5f2042b875-ao-17" height="54.62963" width="116.66667" y="117.55555" x="1249.51861" stroke="#2D2D2D" fill="#007fff"/>
  <rect id="896d01429d8f4ada8ef63b5f2042b875-ao-18" height="47.22222" width="98.14815" y="192.55556" x="1246.74083" stroke="#2D2D2D" fill="#007fff"/>
  <rect id="896d01429d8f4ada8ef63b5f2042b875-ao-19" height="31.48148" width="103.70371" y="262" x="1246.74083" stroke="#2D2D2D" fill="#007fff"/>
  
  <rect id="896d01429d8f4ada8ef63b5f2042b875-ao-21" height="25" width="119.44445" y="439.77779" x="904.14823" stroke="#2D2D2D" fill="#007fff"/>
  <rect id="896d01429d8f4ada8ef63b5f2042b875-ao-22" height="23.14815" width="89.81482" y="650.88891" x="969.88897" stroke="#2D2D2D" fill="#007fff"/>
  <rect id="896d01429d8f4ada8ef63b5f2042b875-ao-23" height="52.77778" width="103.70371" y="624.96298" x="1091.18527" stroke="#2D2D2D" fill="#007fff"/>
  <rect id="896d01429d8f4ada8ef63b5f2042b875-ao-24" height="30.55556" width="107.40741" y="745.33335" x="1231.92602" stroke="#2D2D2D" fill="#007fff"/>
  <rect id="896d01429d8f4ada8ef63b5f2042b875-ao-25" height="23.14815" width="130.55556" y="790.70373" x="1235.62972" stroke="#2D2D2D" fill="#007fff"/>
  <rect id="896d01429d8f4ada8ef63b5f2042b875-ao-26" height="51.85185" width="114.81482" y="832.37039" x="1233.77787" stroke="#2D2D2D" fill="#007fff"/>
  <rect id="896d01429d8f4ada8ef63b5f2042b875-ao-27" height="47.22222" width="80.55556" y="896.25928" x="1230.07417" stroke="#2D2D2D" fill="#007fff"/>
  <rect id="896d01429d8f4ada8ef63b5f2042b875-ao-28" height="50" width="101.85186" y="1011.0741" x="1085.62972" stroke="#2D2D2D" fill="#007fff"/>
 </g>
</svg>