<svg xmlns="http://www.w3.org/2000/svg" width="587" height="778.9999999999999">
 <!-- Created with Image Occlusion Enhanced -->
 <g>
  <title>Labels</title>
 </g>
 <g>
  <title>Masks</title>
  <rect id="8c982249b8be441c9c40c654f4d18ec3-oa-1" height="38.1579" width="63.1579" y="297.05267" x="458.63159" stroke="#2D2D2D" fill="#FFEBA2"/>
  <rect id="8c982249b8be441c9c40c654f4d18ec3-oa-2" height="17.10526" width="59.21053" y="335.21057" x="446.78948" stroke="#2D2D2D" fill="#FFEBA2"/>
  <rect id="8c982249b8be441c9c40c654f4d18ec3-oa-3" height="13.1579" width="63.1579" y="360.21057" x="437.57895" stroke="#2D2D2D" fill="#FFEBA2"/>
  <rect id="8c982249b8be441c9c40c654f4d18ec3-oa-4" height="30.26316" width="78.94737" y="378.63162" x="412.57895" stroke="#2D2D2D" fill="#FFEBA2"/>
  <rect id="8c982249b8be441c9c40c654f4d18ec3-oa-5" height="17.10526" width="39.47369" y="411.52636" x="421.78948" stroke="#2D2D2D" fill="#FFEBA2"/>
  <rect id="8c982249b8be441c9c40c654f4d18ec3-oa-6" height="6.57895" width="78.94737" y="436.52636" x="421.78948" stroke="#2D2D2D" fill="#FFEBA2"/>
  <rect id="8c982249b8be441c9c40c654f4d18ec3-oa-7" height="25" width="98.68421" y="453.63162" x="416.52632" stroke="#2D2D2D" fill="#FFEBA2"/>
  <rect id="8c982249b8be441c9c40c654f4d18ec3-oa-8" height="15.78947" width="71.05263" y="504.94742" x="412.57895" stroke="#2D2D2D" fill="#FFEBA2"/>
  <rect id="8c982249b8be441c9c40c654f4d18ec3-oa-9" height="32.89474" width="68.42106" y="639.15795" x="407.31579" stroke="#2D2D2D" fill="#FFEBA2"/>
  <rect id="8c982249b8be441c9c40c654f4d18ec3-oa-10" height="17.10526" width="56.57895" y="668.10532" x="383.63158" stroke="#2D2D2D" fill="#FFEBA2"/>
  <rect id="8c982249b8be441c9c40c654f4d18ec3-oa-11" height="25" width="55.26316" y="195.73688" x="19.15788" stroke="#2D2D2D" fill="#FFEBA2"/>
  <rect id="8c982249b8be441c9c40c654f4d18ec3-oa-12" height="31.57895" width="60.52632" y="243.1053" x="11.26315" stroke="#2D2D2D" fill="#FFEBA2"/>
  <rect id="8c982249b8be441c9c40c654f4d18ec3-oa-13" height="34.21053" width="46.05263" y="295.73688" x="13.89473" stroke="#2D2D2D" fill="#FFEBA2"/>
  <rect id="8c982249b8be441c9c40c654f4d18ec3-oa-14" height="31.57895" width="56.57895" y="368.10531" x="7.31578" stroke="#2D2D2D" fill="#FFEBA2"/>
  <rect id="8c982249b8be441c9c40c654f4d18ec3-oa-15" height="14.47368" width="38.1579" y="408.89478" x="17.8421" stroke="#2D2D2D" fill="#FFEBA2"/>
  <rect id="8c982249b8be441c9c40c654f4d18ec3-oa-16" height="14.47368" width="44.73684" y="460.21057" x="111.26315" stroke="#2D2D2D" fill="#FFEBA2"/>
  <rect id="8c982249b8be441c9c40c654f4d18ec3-oa-17" height="21.05263" width="51.31579" y="485.21057" x="119.15789" stroke="#2D2D2D" fill="#FFEBA2"/>
  <rect id="8c982249b8be441c9c40c654f4d18ec3-oa-18" height="23.68421" width="42.10526" y="519.4211" x="134.94736" stroke="#2D2D2D" fill="#FFEBA2"/>
  <rect id="8c982249b8be441c9c40c654f4d18ec3-oa-19" height="23.68421" width="48.68421" y="551.00005" x="127.05263" stroke="#2D2D2D" fill="#FFEBA2"/>
 </g>
</svg>