<svg xmlns="http://www.w3.org/2000/svg" width="2330" height="1221">
 <!-- Created with Image Occlusion Enhanced -->
 <g>
  <title>Labels</title>
 </g>
 <g>
  <title>Masks</title>
  <rect id="a41c91f8959d45e582cc5fb98fedb81a-ao-1" height="86.36364" width="172.72728" y="280.8182" x="165.45466" stroke="#2D2D2D" fill="#007fff"/>
  
  <rect id="a41c91f8959d45e582cc5fb98fedb81a-ao-3" height="68.18182" width="140.9091" y="503.54548" x="197.27285" stroke="#2D2D2D" fill="#007fff"/>
  <rect id="a41c91f8959d45e582cc5fb98fedb81a-ao-4" height="54.54546" width="181.81819" y="599.00003" x="151.8183" stroke="#2D2D2D" fill="#007fff"/>
  <rect id="a41c91f8959d45e582cc5fb98fedb81a-ao-5" height="86.36364" width="150.00001" y="685.36367" x="188.18194" stroke="#2D2D2D" fill="#007fff"/>
  <rect id="a41c91f8959d45e582cc5fb98fedb81a-ao-6" height="72.72728" width="145.45455" y="808.09095" x="183.63648" stroke="#2D2D2D" fill="#007fff"/>
  <rect id="a41c91f8959d45e582cc5fb98fedb81a-ao-7" height="63.63637" width="168.18183" y="17.18182" x="701.81833" stroke="#2D2D2D" fill="#007fff"/>
  <rect id="a41c91f8959d45e582cc5fb98fedb81a-ao-8" height="86.36364" width="254.54547" y="149.00001" x="1060.90925" stroke="#2D2D2D" fill="#007fff"/>
  <rect id="a41c91f8959d45e582cc5fb98fedb81a-ao-9" height="77.27273" width="145.45455" y="280.8182" x="1156.3638" stroke="#2D2D2D" fill="#007fff"/>
  <rect id="a41c91f8959d45e582cc5fb98fedb81a-ao-10" height="77.27273" width="145.45455" y="389.90911" x="1156.3638" stroke="#2D2D2D" fill="#007fff"/>
  <rect id="a41c91f8959d45e582cc5fb98fedb81a-ao-11" height="77.27273" width="140.9091" y="499.00003" x="1160.90926" stroke="#2D2D2D" fill="#007fff"/>
  <rect id="a41c91f8959d45e582cc5fb98fedb81a-ao-12" height="59.09091" width="163.63637" y="603.54549" x="1165.45471" stroke="#2D2D2D" fill="#007fff"/>
  <rect id="a41c91f8959d45e582cc5fb98fedb81a-ao-13" height="86.36364" width="218.18183" y="280.8182" x="1374.54563" stroke="#2D2D2D" fill="#007fff"/>
  <rect id="a41c91f8959d45e582cc5fb98fedb81a-ao-14" height="95.45455" width="227.27274" y="276.27274" x="1642.72746" stroke="#2D2D2D" fill="#007fff"/>
  <rect id="a41c91f8959d45e582cc5fb98fedb81a-ao-15" height="86.36364" width="140.9091" y="276.27274" x="1920.0002" stroke="#2D2D2D" fill="#007fff"/>
  <rect id="a41c91f8959d45e582cc5fb98fedb81a-ao-16" height="40.90909" width="163.63637" y="417.18184" x="2138.18203" stroke="#2D2D2D" fill="#007fff"/>
  <rect id="a41c91f8959d45e582cc5fb98fedb81a-ao-17" height="31.81818" width="150.00001" y="485.36366" x="2138.18203" stroke="#2D2D2D" fill="#007fff"/>
  <rect id="a41c91f8959d45e582cc5fb98fedb81a-ao-18" height="36.36364" width="177.27274" y="553.54549" x="2138.18203" stroke="#2D2D2D" fill="#007fff"/>
  <rect id="a41c91f8959d45e582cc5fb98fedb81a-ao-19" height="77.27273" width="177.27274" y="621.72731" x="2142.72749" stroke="#2D2D2D" fill="#007fff"/>
  <rect id="a41c91f8959d45e582cc5fb98fedb81a-ao-20" height="40.90909" width="145.45455" y="721.72731" x="2138.18203" stroke="#2D2D2D" fill="#007fff"/>
  <rect id="a41c91f8959d45e582cc5fb98fedb81a-ao-21" height="59.09091" width="140.9091" y="789.90913" x="2138.18203" stroke="#2D2D2D" fill="#007fff"/>
  <rect id="a41c91f8959d45e582cc5fb98fedb81a-ao-22" height="68.18182" width="131.81819" y="885.36368" x="2138.18203" stroke="#2D2D2D" fill="#007fff"/>
  <rect id="a41c91f8959d45e582cc5fb98fedb81a-ao-23" height="72.72728" width="131.81819" y="989.90914" x="2133.63658" stroke="#2D2D2D" fill="#007fff"/>
  <rect id="a41c91f8959d45e582cc5fb98fedb81a-ao-24" height="68.18182" width="195.45455" y="1117.18188" x="1847.27293" stroke="#2D2D2D" fill="#007fff"/>
  <rect id="a41c91f8959d45e582cc5fb98fedb81a-ao-25" height="31.81818" width="177.27274" y="1117.18188" x="1615.45473" stroke="#2D2D2D" fill="#007fff"/>
  <rect id="a41c91f8959d45e582cc5fb98fedb81a-ao-26" height="72.72728" width="145.45455" y="1117.18188" x="1429.09109" stroke="#2D2D2D" fill="#007fff"/>
 </g>
</svg>