<svg xmlns="http://www.w3.org/2000/svg" width="1600" height="1418">
 <!-- Created with Image Occlusion Enhanced -->
 <g>
  <title>Labels</title>
 </g>
 <g>
  <title>Masks</title>
  <rect id="a4a924629b934c638c59d4f1365bbd1b-ao-1" height="54.87805" width="182.92683" y="131.99998" x="528.04878" stroke="#2D2D2D" fill="#007fff"/>
  <rect id="a4a924629b934c638c59d4f1365bbd1b-ao-2" height="19.5122" width="102.43902" y="206.39023" x="554.87805" stroke="#2D2D2D" fill="#FF7E7E" class="qshape"/>
  <rect id="a4a924629b934c638c59d4f1365bbd1b-ao-3" height="52.43902" width="115.85366" y="295.41462" x="301.21951" stroke="#2D2D2D" fill="#007fff"/>
  <rect id="a4a924629b934c638c59d4f1365bbd1b-ao-4" height="50" width="158.53659" y="369.80486" x="215.85366" stroke="#2D2D2D" fill="#007fff"/>
  <rect id="a4a924629b934c638c59d4f1365bbd1b-ao-5" height="56.09756" width="143.90244" y="442.97559" x="207.31707" stroke="#2D2D2D" fill="#007fff"/>
  <rect id="a4a924629b934c638c59d4f1365bbd1b-ao-6" height="53.65854" width="147.56098" y="522.24388" x="178.04878" stroke="#2D2D2D" fill="#007fff"/>
  <rect id="a4a924629b934c638c59d4f1365bbd1b-ao-7" height="50" width="102.43902" y="619.80486" x="200" stroke="#2D2D2D" fill="#007fff"/>
  <rect id="a4a924629b934c638c59d4f1365bbd1b-ao-8" height="50" width="131.70732" y="695.41462" x="167.07317" stroke="#2D2D2D" fill="#007fff"/>
  <rect id="a4a924629b934c638c59d4f1365bbd1b-ao-9" height="37.80488" width="56.09756" y="773.4634" x="243.90244" stroke="#2D2D2D" fill="#007fff"/>
  <rect id="a4a924629b934c638c59d4f1365bbd1b-ao-10" height="30.4878" width="100" y="961.26827" x="217.07317" stroke="#2D2D2D" fill="#007fff"/>
  <rect id="a4a924629b934c638c59d4f1365bbd1b-ao-11" height="29.26829" width="100" y="1178.34145" x="290.2439" stroke="#2D2D2D" fill="#007fff"/>
  <rect id="a4a924629b934c638c59d4f1365bbd1b-ao-12" height="60.97561" width="140.2439" y="1245.41462" x="308.53659" stroke="#2D2D2D" fill="#007fff"/>
  <rect id="a4a924629b934c638c59d4f1365bbd1b-ao-13" height="50" width="69.5122" y="1113.7073" x="1314.63415" stroke="#2D2D2D" fill="#007fff"/>
  <rect id="a4a924629b934c638c59d4f1365bbd1b-ao-14" height="51.21951" width="101.21951" y="1035.65852" x="1336.58537" stroke="#2D2D2D" fill="#007fff"/>
  <rect id="a4a924629b934c638c59d4f1365bbd1b-ao-15" height="24.39024" width="118.29268" y="831.99998" x="1368.29268" stroke="#2D2D2D" fill="#007fff"/>
  <rect id="a4a924629b934c638c59d4f1365bbd1b-ao-16" height="18.29268" width="91.46341" y="777.12193" x="1365.85366" stroke="#2D2D2D" fill="#007fff"/>
  <rect id="a4a924629b934c638c59d4f1365bbd1b-ao-17" height="24.39024" width="70.73171" y="723.4634" x="1360.97561" stroke="#2D2D2D" fill="#007fff"/>
  <rect id="a4a924629b934c638c59d4f1365bbd1b-ao-18" height="28.04878" width="114.63415" y="669.80486" x="1340.2439" stroke="#2D2D2D" fill="#007fff"/>
  <rect id="a4a924629b934c638c59d4f1365bbd1b-ao-19" height="46.34146" width="104.87805" y="594.1951" x="1337.80488" stroke="#2D2D2D" fill="#007fff"/>
  <rect id="a4a924629b934c638c59d4f1365bbd1b-ao-20" height="46.34146" width="109.7561" y="522.24388" x="1339.02439" stroke="#2D2D2D" fill="#007fff"/>
  <rect id="a4a924629b934c638c59d4f1365bbd1b-ao-21" height="29.26829" width="113.41463" y="469.80486" x="1320.73171" stroke="#2D2D2D" fill="#007fff"/>
  <rect id="a4a924629b934c638c59d4f1365bbd1b-ao-22" height="45.12195" width="107.31707" y="394.1951" x="1289.02439" stroke="#2D2D2D" fill="#007fff"/>
  <rect id="a4a924629b934c638c59d4f1365bbd1b-ao-23" height="45.12195" width="100" y="323.4634" x="1264.63415" stroke="#2D2D2D" fill="#007fff"/>
  <rect id="a4a924629b934c638c59d4f1365bbd1b-ao-24" height="47.56098" width="114.63415" y="250.29267" x="1217.07317" stroke="#2D2D2D" fill="#007fff"/>
  <rect id="a4a924629b934c638c59d4f1365bbd1b-ao-25" height="50" width="93.90244" y="160.04876" x="979.26829" stroke="#2D2D2D" fill="#007fff"/>
 </g>
</svg>