<svg xmlns="http://www.w3.org/2000/svg" width="1012.0000000000001" height="905.9999999999999">
 <!-- Created with Image Occlusion Enhanced -->
 <g>
  <title>Labels</title>
 </g>
 <g>
  <title>Masks</title>
  <rect id="ae351452f9ea4e8cb742b0bb4f9391d5-oa-1" height="52.30769" width="224.61539" y="852.46149" x="0.30771" stroke="#2D2D2D" fill="#FFEBA2"/>
  <rect id="ae351452f9ea4e8cb742b0bb4f9391d5-oa-2" height="21.53846" width="178.46154" y="821.69226" x="3.38463" stroke="#2D2D2D" fill="#FFEBA2"/>
  <rect id="ae351452f9ea4e8cb742b0bb4f9391d5-oa-3" height="156.92308" width="206.15385" y="660.15379" x="-4.30767" stroke="#2D2D2D" fill="#FFEBA2"/>
  <rect id="ae351452f9ea4e8cb742b0bb4f9391d5-oa-4" height="30.76923" width="130.76923" y="629.38456" x="14.15387" stroke="#2D2D2D" fill="#FFEBA2"/>
  <rect id="ae351452f9ea4e8cb742b0bb4f9391d5-oa-5" height="32.30769" width="240" y="587.8461" x="-1.23075" stroke="#2D2D2D" fill="#FFEBA2"/>
  <rect id="ae351452f9ea4e8cb742b0bb4f9391d5-oa-6" height="30.76923" width="136.92308" y="555.53841" x="8.00002" stroke="#2D2D2D" fill="#FFEBA2"/>
  <rect id="ae351452f9ea4e8cb742b0bb4f9391d5-oa-7" height="18.46154" width="121.53846" y="373.99994" x="4.9231" stroke="#2D2D2D" fill="#FFEBA2"/>
  <rect id="ae351452f9ea4e8cb742b0bb4f9391d5-oa-8" height="146.15385" width="218.46154" y="407.8461" x="-5.84614" stroke="#2D2D2D" fill="#FFEBA2"/>
  <rect id="ae351452f9ea4e8cb742b0bb4f9391d5-oa-9" height="20" width="161.53846" y="272.46148" x="1.84617" stroke="#2D2D2D" fill="#FFEBA2"/>
  <rect id="ae351452f9ea4e8cb742b0bb4f9391d5-oa-10" height="66.15385" width="129.23077" y="301.69225" x="8.00002" stroke="#2D2D2D" fill="#FFEBA2"/>
  <rect id="ae351452f9ea4e8cb742b0bb4f9391d5-oa-11" height="23.07692" width="173.84616" y="492.46148" x="777.2308" stroke="#2D2D2D" fill="#FFEBA2"/>
  <rect id="ae351452f9ea4e8cb742b0bb4f9391d5-oa-12" height="96.92308" width="160" y="521.69225" x="771.07696" stroke="#2D2D2D" fill="#FFEBA2"/>
  <rect id="ae351452f9ea4e8cb742b0bb4f9391d5-oa-13" height="23.07692" width="160" y="361.69225" x="778.76926" stroke="#2D2D2D" fill="#FFEBA2"/>
  <rect id="ae351452f9ea4e8cb742b0bb4f9391d5-oa-14" height="92.30769" width="227.69231" y="387.8461" x="769.53849" stroke="#2D2D2D" fill="#FFEBA2"/>
  <rect id="ae351452f9ea4e8cb742b0bb4f9391d5-oa-15" height="27.69231" width="187.69231" y="220.15379" x="777.2308" stroke="#2D2D2D" fill="#FFEBA2"/>
  <rect id="ae351452f9ea4e8cb742b0bb4f9391d5-oa-16" height="90.76923" width="213.84616" y="257.07686" x="775.69234" stroke="#2D2D2D" fill="#FFEBA2"/>
  <rect id="ae351452f9ea4e8cb742b0bb4f9391d5-oa-17" height="21.53846" width="123.07693" y="164.76917" x="4.9231" stroke="#2D2D2D" fill="#FFEBA2"/>
  <rect id="ae351452f9ea4e8cb742b0bb4f9391d5-oa-18" height="58.46154" width="220" y="201.69225" x="3.38463" stroke="#2D2D2D" fill="#FFEBA2"/>
  <rect id="ae351452f9ea4e8cb742b0bb4f9391d5-oa-19" height="20" width="153.84616" y="89.38455" x="763.38465" stroke="#2D2D2D" fill="#FFEBA2"/>
  <rect id="ae351452f9ea4e8cb742b0bb4f9391d5-oa-20" height="98.46154" width="213.84616" y="115.5384" x="777.2308" stroke="#2D2D2D" fill="#FFEBA2"/>
 </g>
</svg>