<svg xmlns="http://www.w3.org/2000/svg" width="1435" height="571">
 <!-- Created with Image Occlusion Enhanced -->
 <g>
  <title>Labels</title>
 </g>
 <g>
  <title>Masks</title>
  <rect id="b62506f4b4bb4ed896b4256b99c17f08-ao-1" height="27.08333" width="87.5" y="54.00003" x="160.20834" stroke="#2D2D2D" fill="#007fff"/>
  <rect id="b62506f4b4bb4ed896b4256b99c17f08-ao-2" height="52.08334" width="107.29167" y="31.08336" x="293.54168" stroke="#2D2D2D" fill="#007fff"/>
  <rect id="b62506f4b4bb4ed896b4256b99c17f08-ao-3" height="46.875" width="100" y="96.70837" x="553.95836" stroke="#2D2D2D" fill="#007fff"/>
  <rect id="b62506f4b4bb4ed896b4256b99c17f08-ao-4" height="47.91667" width="119.79167" y="164.4167" x="549.7917" stroke="#2D2D2D" fill="#007fff"/>
  <rect id="b62506f4b4bb4ed896b4256b99c17f08-ao-5" height="28.125" width="115.62501" y="229.00004" x="546.6667" stroke="#2D2D2D" fill="#007fff"/>
  <rect id="b62506f4b4bb4ed896b4256b99c17f08-ao-6" height="45.83334" width="115.62501" y="274.83337" x="549.7917" stroke="#2D2D2D" fill="#007fff"/>
  <rect id="b62506f4b4bb4ed896b4256b99c17f08-ao-7" height="46.875" width="100" y="348.79171" x="548.75003" stroke="#2D2D2D" fill="#007fff"/>
  <rect id="b62506f4b4bb4ed896b4256b99c17f08-ao-8" height="41.66667" width="82.29167" y="424.83338" x="83.12501" stroke="#2D2D2D" fill="#007fff"/>
  <rect id="b62506f4b4bb4ed896b4256b99c17f08-ao-9" height="70.83334" width="113.54167" y="325.87504" x="63.33334" stroke="#2D2D2D" fill="#007fff"/>
  <rect id="b62506f4b4bb4ed896b4256b99c17f08-ao-10" height="50" width="88.54167" y="220.66671" x="61.25001" stroke="#2D2D2D" fill="#007fff"/>
  <rect id="b62506f4b4bb4ed896b4256b99c17f08-ao-11" height="45.83334" width="110.41667" y="42.5417" x="1217.50006" stroke="#2D2D2D" fill="#007fff"/>
  <rect id="b62506f4b4bb4ed896b4256b99c17f08-ao-12" height="98.95834" width="191.66668" y="113.37503" x="1213.3334" stroke="#2D2D2D" fill="#007fff"/>
  <rect id="b62506f4b4bb4ed896b4256b99c17f08-ao-13" height="45.83334" width="96.875" y="224.83337" x="1216.4584" stroke="#2D2D2D" fill="#007fff"/>
  <rect id="b62506f4b4bb4ed896b4256b99c17f08-ao-14" height="45.83334" width="136.45834" y="290.45838" x="1216.4584" stroke="#2D2D2D" fill="#007fff"/>
  <rect id="b62506f4b4bb4ed896b4256b99c17f08-ao-15" height="48.95834" width="93.75" y="383.16671" x="1218.54173" stroke="#2D2D2D" fill="#007fff"/>
  <rect id="b62506f4b4bb4ed896b4256b99c17f08-ao-16" height="29.16667" width="126.04167" y="331.08338" x="735.20837" stroke="#2D2D2D" fill="#007fff"/>
  <rect id="b62506f4b4bb4ed896b4256b99c17f08-ao-17" height="43.75" width="107.29167" y="258.16671" x="745.62504" stroke="#2D2D2D" fill="#007fff"/>
  <rect id="b62506f4b4bb4ed896b4256b99c17f08-ao-18" height="32.29167" width="122.91667" y="181.08337" x="727.91671" stroke="#2D2D2D" fill="#007fff"/>
  <rect id="b62506f4b4bb4ed896b4256b99c17f08-ao-19" height="47.91667" width="123.95834" y="116.50003" x="735.20837" stroke="#2D2D2D" fill="#007fff"/>
  <rect id="b62506f4b4bb4ed896b4256b99c17f08-ao-20" height="27.08333" width="106.25001" y="73.7917" x="746.66671" stroke="#2D2D2D" fill="#007fff"/>
  
 </g>
</svg>