<svg xmlns="http://www.w3.org/2000/svg" width="1020" height="824">
 <!-- Created with Image Occlusion Enhanced -->
 <g>
  <title>Labels</title>
 </g>
 <g>
  <title>Masks</title>
  <rect id="b93fb1ef293b4cb9838e2e567045dcf0-ao-1" height="36.61972" width="125.35212" y="32.90144" x="222.81686" stroke="#2D2D2D" fill="#007fff"/>
  <rect id="b93fb1ef293b4cb9838e2e567045dcf0-ao-2" height="47.88733" width="95.77465" y="21.63383" x="380.56335" stroke="#2D2D2D" fill="#007fff"/>
  <rect id="b93fb1ef293b4cb9838e2e567045dcf0-ao-3" height="40.84507" width="90.14085" y="23.04229" x="505.91547" stroke="#2D2D2D" fill="#007fff"/>
  <rect id="b93fb1ef293b4cb9838e2e567045dcf0-ao-4" height="29.57747" width="81.69014" y="41.35215" x="632.67604" stroke="#2D2D2D" fill="#007fff"/>
  <rect id="b93fb1ef293b4cb9838e2e567045dcf0-ao-5" height="29.57747" width="107.04226" y="100.50708" x="789.01407" stroke="#2D2D2D" fill="#007fff"/>
  <rect id="b93fb1ef293b4cb9838e2e567045dcf0-ao-6" height="49.29578" width="114.08451" y="139.9437" x="791.83097" stroke="#2D2D2D" fill="#007fff"/>
  <rect id="b93fb1ef293b4cb9838e2e567045dcf0-ao-7" height="46.47887" width="108.45071" y="206.14088" x="794.64787" stroke="#2D2D2D" fill="#007fff"/>
  <rect id="b93fb1ef293b4cb9838e2e567045dcf0-ao-8" height="49.29578" width="87.32395" y="272.33807" x="790.42252" stroke="#2D2D2D" fill="#007fff"/>
  <rect id="b93fb1ef293b4cb9838e2e567045dcf0-ao-9" height="26.76056" width="112.67606" y="337.1268" x="793.23942" stroke="#2D2D2D" fill="#007fff"/>
  <rect id="b93fb1ef293b4cb9838e2e567045dcf0-ao-10" height="49.29578" width="163.38029" y="379.38033" x="743.94364" stroke="#2D2D2D" fill="#007fff"/>
  <rect id="b93fb1ef293b4cb9838e2e567045dcf0-ao-11" height="22.53521" width="147.88733" y="444.16906" x="741.12674" stroke="#2D2D2D" fill="#007fff"/>
  <rect id="b93fb1ef293b4cb9838e2e567045dcf0-ao-12" height="46.47887" width="119.71831" y="486.42258" x="739.71829" stroke="#2D2D2D" fill="#007fff"/>
  <rect id="b93fb1ef293b4cb9838e2e567045dcf0-ao-13" height="23.94366" width="147.88733" y="552.61977" x="743.94364" stroke="#2D2D2D" fill="#007fff"/>
  <rect id="b93fb1ef293b4cb9838e2e567045dcf0-ao-14" height="50.70423" width="101.40845" y="587.83104" x="741.12674" stroke="#2D2D2D" fill="#007fff"/>
  <rect id="b93fb1ef293b4cb9838e2e567045dcf0-ao-15" height="30.98592" width="115.49296" y="656.84513" x="718.59153" stroke="#2D2D2D" fill="#007fff"/>
  <rect stroke="#2D2D2D" id="b93fb1ef293b4cb9838e2e567045dcf0-ao-16" height="52.11267" width="129.57747" y="699.09865" x="712.95773" fill="#007fff"/>
  <rect id="b93fb1ef293b4cb9838e2e567045dcf0-ao-17" height="26.76056" width="140.84508" y="769.52119" x="411.54927" stroke="#2D2D2D" fill="#007fff"/>
  <rect id="b93fb1ef293b4cb9838e2e567045dcf0-ao-18" height="74.64789" width="107.04226" y="675.15499" x="35.49291" stroke="#2D2D2D" fill="#007fff"/>
  <rect id="b93fb1ef293b4cb9838e2e567045dcf0-ao-19" height="49.29578" width="102.81691" y="611.7747" x="45.35207" stroke="#2D2D2D" fill="#007fff"/>
  <rect id="b93fb1ef293b4cb9838e2e567045dcf0-ao-20" height="49.29578" width="87.32395" y="548.39442" x="53.80277" stroke="#2D2D2D" fill="#007fff"/>
  <rect id="b93fb1ef293b4cb9838e2e567045dcf0-ao-21" height="25.35211" width="128.16902" y="508.9578" x="18.59151" stroke="#2D2D2D" fill="#007fff"/>
  <rect id="b93fb1ef293b4cb9838e2e567045dcf0-ao-22" height="25.35211" width="101.40845" y="466.70427" x="41.12672" stroke="#2D2D2D" fill="#007fff"/>
  <rect id="b93fb1ef293b4cb9838e2e567045dcf0-ao-23" height="61.97183" width="95.77465" y="386.42258" x="48.16897" stroke="#2D2D2D" fill="#007fff"/>
  <rect id="b93fb1ef293b4cb9838e2e567045dcf0-ao-24" height="47.88733" width="94.3662" y="311.77469" x="49.57742" stroke="#2D2D2D" fill="#007fff"/>
  <rect id="b93fb1ef293b4cb9838e2e567045dcf0-ao-25" height="45.07042" width="95.77465" y="249.80286" x="46.76052" stroke="#2D2D2D" fill="#007fff"/>
  <rect id="b93fb1ef293b4cb9838e2e567045dcf0-ao-26" height="78.87324" width="95.77465" y="159.66201" x="42.53517" stroke="#2D2D2D" fill="#007fff"/>
  
 </g>
</svg>