<svg xmlns="http://www.w3.org/2000/svg" width="1600" height="1503">
 <!-- Created with Image Occlusion Enhanced -->
 <g>
  <title>Labels</title>
 </g>
 <g>
  <title>Masks</title>
  <rect id="c2afd41c4d734838a2ba8a6f5f3d83d4-ao-1" height="48" width="84" y="342.33333" x="173.33333" stroke="#2D2D2D" fill="#007fff"/>
  <rect id="c2afd41c4d734838a2ba8a6f5f3d83d4-ao-2" height="50.66667" width="109.33333" y="575.66667" x="150.66667" stroke="#2D2D2D" fill="#FF7E7E" class="qshape"/>
  <rect id="c2afd41c4d734838a2ba8a6f5f3d83d4-ao-3" height="41.33333" width="112" y="662.33333" x="144" stroke="#2D2D2D" fill="#007fff"/>
  <rect id="c2afd41c4d734838a2ba8a6f5f3d83d4-ao-4" height="45.33333" width="122.66667" y="733" x="132" stroke="#2D2D2D" fill="#007fff"/>
  <rect id="c2afd41c4d734838a2ba8a6f5f3d83d4-ao-5" height="30.66667" width="128" y="877" x="129.33333" stroke="#2D2D2D" fill="#007fff"/>
  <rect id="c2afd41c4d734838a2ba8a6f5f3d83d4-ao-6" height="21.33333" width="126.66667" y="947.66667" x="132" stroke="#2D2D2D" fill="#007fff"/>
  <rect id="c2afd41c4d734838a2ba8a6f5f3d83d4-ao-7" height="30.66667" width="118.66667" y="1005" x="142.66667" stroke="#2D2D2D" fill="#007fff"/>
  <rect id="c2afd41c4d734838a2ba8a6f5f3d83d4-ao-8" height="28" width="66.66667" y="1093" x="214.66667" stroke="#2D2D2D" fill="#007fff"/>
  <rect id="c2afd41c4d734838a2ba8a6f5f3d83d4-ao-9" height="30.66667" width="106.66667" y="1159.66667" x="204" stroke="#2D2D2D" fill="#007fff"/>
  <rect id="c2afd41c4d734838a2ba8a6f5f3d83d4-ao-10" height="50.66667" width="132" y="1411.66667" x="401.33333" stroke="#2D2D2D" fill="#007fff"/>
  <rect id="c2afd41c4d734838a2ba8a6f5f3d83d4-ao-11" height="28" width="92" y="1417" x="565.33333" stroke="#2D2D2D" fill="#007fff"/>
  <rect id="c2afd41c4d734838a2ba8a6f5f3d83d4-ao-12" height="45.33333" width="88" y="1419.66667" x="705.33333" stroke="#2D2D2D" fill="#007fff"/>
  <rect id="c2afd41c4d734838a2ba8a6f5f3d83d4-ao-13" height="53.33333" width="137.33333" y="1415.66667" x="837.33333" stroke="#2D2D2D" fill="#007fff"/>
  <rect id="c2afd41c4d734838a2ba8a6f5f3d83d4-ao-14" height="57.33333" width="90.66667" y="1406.33333" x="1028" stroke="#2D2D2D" fill="#007fff"/>
  <rect id="c2afd41c4d734838a2ba8a6f5f3d83d4-ao-15" height="50.66667" width="154.66667" y="1071.66667" x="1277.33333" stroke="#2D2D2D" fill="#007fff"/>
  <rect id="c2afd41c4d734838a2ba8a6f5f3d83d4-ao-16" height="48" width="145.33333" y="999.66667" x="1304" stroke="#2D2D2D" fill="#007fff"/>
  <rect id="c2afd41c4d734838a2ba8a6f5f3d83d4-ao-17" height="78.66667" width="141.33333" y="898.33333" x="1302.66667" stroke="#2D2D2D" fill="#007fff"/>
  <rect id="c2afd41c4d734838a2ba8a6f5f3d83d4-ao-18" height="42.66667" width="110.66667" y="831.66667" x="1312" stroke="#2D2D2D" fill="#007fff"/>
  <rect id="c2afd41c4d734838a2ba8a6f5f3d83d4-ao-19" height="68" width="142.66667" y="731.66667" x="1302.66667" stroke="#2D2D2D" fill="#007fff"/>
  <rect id="c2afd41c4d734838a2ba8a6f5f3d83d4-ao-20" height="25.33333" width="118.66667" y="679.66667" x="1308" stroke="#2D2D2D" fill="#007fff"/>
  <rect id="c2afd41c4d734838a2ba8a6f5f3d83d4-ao-21" height="25.33333" width="85.33333" y="629" x="1304" stroke="#2D2D2D" fill="#007fff"/>
  <rect id="c2afd41c4d734838a2ba8a6f5f3d83d4-ao-22" height="46.66667" width="100" y="555.66667" x="1310.66667" stroke="#2D2D2D" fill="#007fff"/>
  <rect id="c2afd41c4d734838a2ba8a6f5f3d83d4-ao-23" height="28" width="104" y="263.66667" x="1282.66667" stroke="#2D2D2D" fill="#007fff"/>
  <rect id="c2afd41c4d734838a2ba8a6f5f3d83d4-ao-24" height="48" width="129.33333" y="157" x="1233.33333" stroke="#2D2D2D" fill="#007fff"/>
 </g>
</svg>