<svg xmlns="http://www.w3.org/2000/svg" width="1600" height="1371">
 <!-- Created with Image Occlusion Enhanced -->
 <g>
  <title>Labels</title>
 </g>
 <g>
  <title>Masks</title>
  <rect id="c487d2d5339d4d1f97108b2fd0013cc6-ao-1" height="34.88372" width="66.27907" y="122.25571" x="585.5814" stroke="#2D2D2D" fill="#007fff"/>
  <rect id="c487d2d5339d4d1f97108b2fd0013cc6-ao-2" height="48.83721" width="84.88372" y="168.76734" x="557.67442" stroke="#2D2D2D" fill="#007fff"/>
  <rect id="c487d2d5339d4d1f97108b2fd0013cc6-ao-3" height="20.93023" width="77.90698" y="311.7906" x="304.18605" stroke="#2D2D2D" fill="#007fff"/>
  <rect id="c487d2d5339d4d1f97108b2fd0013cc6-ao-4" height="25.5814" width="105.81395" y="395.51153" x="251.86047" stroke="#2D2D2D" fill="#007fff"/>
  <rect id="c487d2d5339d4d1f97108b2fd0013cc6-ao-5" height="32.55814" width="87.2093" y="442.02315" x="243.72093" stroke="#2D2D2D" fill="#007fff"/>
  <rect id="c487d2d5339d4d1f97108b2fd0013cc6-ao-6" height="29.06977" width="123.25581" y="496.67432" x="218.13953" stroke="#2D2D2D" fill="#007fff"/>
  <rect id="c487d2d5339d4d1f97108b2fd0013cc6-ao-7" height="32.55814" width="132.55814" y="551.32548" x="178.60465" stroke="#2D2D2D" fill="#007fff"/>
  <rect id="c487d2d5339d4d1f97108b2fd0013cc6-ao-8" height="46.51163" width="109.30233" y="603.65106" x="177.44186" stroke="#2D2D2D" fill="#007fff"/>
  <rect id="c487d2d5339d4d1f97108b2fd0013cc6-ao-9" height="43.02326" width="89.53488" y="679.23246" x="175.11628" stroke="#2D2D2D" fill="#FF7E7E" class="qshape"/>
  <rect id="c487d2d5339d4d1f97108b2fd0013cc6-ao-10" height="47.67442" width="109.30233" y="755.97664" x="151.86047" stroke="#2D2D2D" fill="#007fff"/>
  <rect id="c487d2d5339d4d1f97108b2fd0013cc6-ao-11" height="44.18605" width="89.53488" y="825.74408" x="177.44186" stroke="#2D2D2D" fill="#007fff"/>
  <rect id="c487d2d5339d4d1f97108b2fd0013cc6-ao-12" height="26.74419" width="88.37209" y="902.48827" x="210" stroke="#2D2D2D" fill="#007fff"/>
  <rect id="c487d2d5339d4d1f97108b2fd0013cc6-ao-13" height="44.18605" width="136.04651" y="953.65106" x="179.76744" stroke="#2D2D2D" fill="#007fff"/>
  <rect id="c487d2d5339d4d1f97108b2fd0013cc6-ao-14" height="27.90698" width="113.95349" y="1026.90687" x="218.13953" stroke="#2D2D2D" fill="#007fff"/>
  <rect id="c487d2d5339d4d1f97108b2fd0013cc6-ao-15" height="34.88372" width="127.90698" y="1148.9999" x="293.72093" stroke="#2D2D2D" fill="#007fff"/>
  <rect id="c487d2d5339d4d1f97108b2fd0013cc6-ao-16" height="48.83721" width="137.2093" y="1196.67432" x="1189.06977" stroke="#2D2D2D" fill="#007fff"/>
  <rect id="c487d2d5339d4d1f97108b2fd0013cc6-ao-17" height="51.16279" width="119.76744" y="1125.74408" x="1212.32558" stroke="#2D2D2D" fill="#007fff"/>
  <rect id="c487d2d5339d4d1f97108b2fd0013cc6-ao-18" height="47.67442" width="93.02326" y="1003.65106" x="1289.06977" stroke="#2D2D2D" fill="#007fff"/>
  <rect id="c487d2d5339d4d1f97108b2fd0013cc6-ao-19" height="54.65116" width="108.13953" y="925.74408" x="1315.81395" stroke="#2D2D2D" fill="#007fff"/>
  <rect id="c487d2d5339d4d1f97108b2fd0013cc6-ao-20" height="55.81395" width="101.16279" y="837.37199" x="1361.16279" stroke="#2D2D2D" fill="#007fff"/>
  <rect id="c487d2d5339d4d1f97108b2fd0013cc6-ao-21" height="31.39535" width="100" y="772.25571" x="1335.5814" stroke="#2D2D2D" fill="#007fff"/>
  <rect id="c487d2d5339d4d1f97108b2fd0013cc6-ao-22" height="48.83721" width="150" y="700.16269" x="1315.81395" stroke="#2D2D2D" fill="#007fff"/>
  <rect id="c487d2d5339d4d1f97108b2fd0013cc6-ao-23" height="32.55814" width="118.60465" y="642.02315" x="1311.16279" stroke="#2D2D2D" fill="#007fff"/>
  <rect id="c487d2d5339d4d1f97108b2fd0013cc6-ao-24" height="32.55814" width="123.25581" y="587.37199" x="1291.39535" stroke="#2D2D2D" fill="#007fff"/>
  <rect id="c487d2d5339d4d1f97108b2fd0013cc6-ao-25" height="27.90698" width="133.72093" y="535.04641" x="1291.39535" stroke="#2D2D2D" fill="#007fff"/>
  <rect id="c487d2d5339d4d1f97108b2fd0013cc6-ao-26" height="51.16279" width="141.86047" y="455.97664" x="1289.06977" stroke="#2D2D2D" fill="#007fff"/>
  <rect id="c487d2d5339d4d1f97108b2fd0013cc6-ao-27" height="26.74419" width="110.46512" y="405.97664" x="1289.06977" stroke="#2D2D2D" fill="#007fff"/>
  <rect id="c487d2d5339d4d1f97108b2fd0013cc6-ao-28" height="24.4186" width="79.06977" y="354.81385" x="1262.32558" stroke="#2D2D2D" fill="#007fff"/>
  <rect id="c487d2d5339d4d1f97108b2fd0013cc6-ao-29" height="46.51163" width="139.53488" y="274.58129" x="1210" stroke="#2D2D2D" fill="#007fff"/>
  <rect id="c487d2d5339d4d1f97108b2fd0013cc6-ao-30" height="26.74419" width="108.13953" y="223.4185" x="1168.13953" stroke="#2D2D2D" fill="#007fff"/>
  <rect id="c487d2d5339d4d1f97108b2fd0013cc6-ao-31" height="67.44186" width="117.44186" y="124.58129" x="976.27907" stroke="#2D2D2D" fill="#007fff"/>
 </g>
</svg>