<svg xmlns="http://www.w3.org/2000/svg" width="792.0000000000001" height="732">
 <!-- Created with Image Occlusion Enhanced -->
 <g>
  <title>Labels</title>
 </g>
 <g>
  <title>Masks</title>
  <rect id="cd9946af79ea4377af832f6812a04a48-oa-1" height="37.03704" width="117.28395" y="131.45682" x="21.5802" stroke="#2D2D2D" fill="#FFEBA2"/>
  <rect id="cd9946af79ea4377af832f6812a04a48-oa-2" height="20.98765" width="86.41976" y="191.95064" x="31.45674" stroke="#2D2D2D" fill="#FFEBA2"/>
  <rect id="cd9946af79ea4377af832f6812a04a48-oa-3" height="29.62963" width="61.7284" y="225.28398" x="53.67897" stroke="#2D2D2D" fill="#FFEBA2"/>
  <rect id="cd9946af79ea4377af832f6812a04a48-oa-4" height="28.39506" width="70.37037" y="263.55558" x="30.22218" stroke="#2D2D2D" fill="#FFEBA2"/>
  <rect id="cd9946af79ea4377af832f6812a04a48-oa-5" height="17.28395" width="53.08642" y="298.12349" x="37.62958" stroke="#2D2D2D" fill="#FFEBA2"/>
  <rect id="cd9946af79ea4377af832f6812a04a48-oa-6" height="43.20988" width="83.95062" y="325.28398" x="6.76538" stroke="#2D2D2D" fill="#FFEBA2"/>
  <rect id="cd9946af79ea4377af832f6812a04a48-oa-7" height="23.45679" width="81.48148" y="438.86423" x="9.23452" stroke="#2D2D2D" fill="#FFEBA2"/>
  <rect id="cd9946af79ea4377af832f6812a04a48-oa-8" height="27.16049" width="83.95062" y="470.963" x="6.76538" stroke="#2D2D2D" fill="#FFEBA2"/>
  <rect id="cd9946af79ea4377af832f6812a04a48-oa-9" height="28.39506" width="65.4321" y="506.76547" x="17.8765" stroke="#2D2D2D" fill="#FFEBA2"/>
  <rect id="cd9946af79ea4377af832f6812a04a48-oa-10" height="29.62963" width="82.71605" y="541.33337" x="7.99995" stroke="#2D2D2D" fill="#FFEBA2"/>
  <rect id="cd9946af79ea4377af832f6812a04a48-oa-11" height="20.98765" width="61.7284" y="573.43214" x="38.86415" stroke="#2D2D2D" fill="#FFEBA2"/>
  <rect id="cd9946af79ea4377af832f6812a04a48-oa-12" height="19.75309" width="67.90124" y="603.06177" x="45.03699" stroke="#2D2D2D" fill="#FFEBA2"/>
  <rect id="cd9946af79ea4377af832f6812a04a48-oa-13" height="22.22222" width="69.1358" y="631.45683" x="64.79008" stroke="#2D2D2D" fill="#FFEBA2"/>
  <rect id="cd9946af79ea4377af832f6812a04a48-oa-14" height="28.39506" width="64.19753" y="680.83955" x="145.03699" stroke="#2D2D2D" fill="#FFEBA2"/>
  <rect id="cd9946af79ea4377af832f6812a04a48-oa-15" height="22.22222" width="108.64198" y="463.55559" x="663.55553" stroke="#2D2D2D" fill="#FFEBA2"/>
  <rect id="cd9946af79ea4377af832f6812a04a48-oa-16" height="28.39506" width="72.83951" y="504.29633" x="658.61726" stroke="#2D2D2D" fill="#FFEBA2"/>
  <rect id="cd9946af79ea4377af832f6812a04a48-oa-17" height="41.97531" width="69.1358" y="35.16052" x="663.55553" stroke="#2D2D2D" fill="#FFEBA2"/>
  <rect id="cd9946af79ea4377af832f6812a04a48-oa-18" height="18.51852" width="83.95062" y="79.60496" x="678.37034" stroke="#2D2D2D" fill="#FFEBA2"/>
  <rect id="cd9946af79ea4377af832f6812a04a48-oa-19" height="14.81482" width="81.48148" y="709.23461" x="224.04934" stroke="#2D2D2D" fill="#FFEBA2"/>
 </g>
</svg>