<svg xmlns="http://www.w3.org/2000/svg" width="1159" height="790">
 <!-- Created with Image Occlusion Enhanced -->
 <g>
  <title>Labels</title>
 </g>
 <g>
  <title>Masks</title>
  <rect id="d3292d99639f41ec97ed2876af4268fd-ao-1" height="51.35135" width="136.48649" y="52.70274" x="873.4325" stroke="#2D2D2D" fill="#007fff"/>
  <rect id="d3292d99639f41ec97ed2876af4268fd-ao-2" height="29.72973" width="94.5946" y="122.97301" x="901.81088" stroke="#2D2D2D" fill="#007fff"/>
  <rect id="d3292d99639f41ec97ed2876af4268fd-ao-3" height="29.72973" width="104.05406" y="175.67572" x="919.37845" stroke="#2D2D2D" fill="#007fff"/>
  <rect id="d3292d99639f41ec97ed2876af4268fd-ao-4" height="52.7027" width="135.13514" y="224.32437" x="924.78385" stroke="#2D2D2D" fill="#007fff"/>
  <rect id="d3292d99639f41ec97ed2876af4268fd-ao-5" height="35.13514" width="114.86487" y="294.59464" x="924.78385" stroke="#2D2D2D" fill="#007fff"/>
  <rect id="d3292d99639f41ec97ed2876af4268fd-ao-6" height="52.7027" width="135.13514" y="343.24329" x="949.10818" stroke="#2D2D2D" fill="#007fff"/>
  <rect id="d3292d99639f41ec97ed2876af4268fd-ao-7" height="36.48649" width="141.8919" y="413.51356" x="947.75683" stroke="#2D2D2D" fill="#007fff"/>
  <rect id="d3292d99639f41ec97ed2876af4268fd-ao-8" height="48.64865" width="143.24325" y="466.21627" x="945.05412" stroke="#2D2D2D" fill="#007fff"/>
  <rect id="d3292d99639f41ec97ed2876af4268fd-ao-9" height="39.18919" width="174.32433" y="535.13519" x="918.0271" stroke="#2D2D2D" fill="#007fff"/>
  <rect id="d3292d99639f41ec97ed2876af4268fd-ao-10" height="50" width="133.78379" y="585.13519" x="916.67574" stroke="#2D2D2D" fill="#007fff"/>
  <rect id="d3292d99639f41ec97ed2876af4268fd-ao-11" height="33.78379" width="178.37839" y="656.75682" x="889.64872" stroke="#2D2D2D" fill="#007fff"/>
  <rect id="d3292d99639f41ec97ed2876af4268fd-ao-12" height="27.02703" width="102.70271" y="713.51358" x="862.62169" stroke="#2D2D2D" fill="#007fff"/>
  <rect id="d3292d99639f41ec97ed2876af4268fd-ao-13" height="33.78379" width="166.21622" y="747.29736" x="673.43249" stroke="#2D2D2D" fill="#007fff"/>
  <rect id="d3292d99639f41ec97ed2876af4268fd-ao-14" height="33.78379" width="159.45947" y="747.29736" x="468.02708" stroke="#2D2D2D" fill="#007fff"/>
  <rect id="d3292d99639f41ec97ed2876af4268fd-ao-15" height="31.08108" width="112.16217" y="748.64871" x="313.97302" stroke="#2D2D2D" fill="#007fff"/>
  <rect id="d3292d99639f41ec97ed2876af4268fd-ao-16" height="28.37838" width="170.27028" y="660.81087" x="103.1622" stroke="#2D2D2D" fill="#007fff"/>
  <rect id="d3292d99639f41ec97ed2876af4268fd-ao-17" height="27.02703" width="187.83785" y="606.75682" x="92.35139" stroke="#2D2D2D" fill="#007fff"/>
  <rect id="d3292d99639f41ec97ed2876af4268fd-ao-18" height="32.43243" width="198.64866" y="552.70276" x="84.24328" stroke="#2D2D2D" fill="#007fff"/>
  <rect id="d3292d99639f41ec97ed2876af4268fd-ao-19" height="22.97297" width="156.75676" y="509.45951" x="126.13517" stroke="#2D2D2D" fill="#007fff"/>
  <rect id="d3292d99639f41ec97ed2876af4268fd-ao-20" height="24.32433" width="185.13514" y="456.75681" x="92.35139" stroke="#2D2D2D" fill="#007fff"/>
  <rect id="d3292d99639f41ec97ed2876af4268fd-ao-21" height="29.72973" width="159.45947" y="402.70275" x="96.40544" stroke="#2D2D2D" fill="#007fff"/>
  <rect id="d3292d99639f41ec97ed2876af4268fd-ao-22" height="28.37838" width="117.56757" y="351.3514" x="143.70274" stroke="#2D2D2D" fill="#007fff"/>
  <rect id="d3292d99639f41ec97ed2876af4268fd-ao-23" height="28.37838" width="186.48649" y="300.00005" x="68.02706" stroke="#2D2D2D" fill="#007fff"/>
  <rect id="d3292d99639f41ec97ed2876af4268fd-ao-24" height="54.05406" width="132.43244" y="224.32437" x="126.13517" stroke="#2D2D2D" fill="#007fff"/>
  <rect id="d3292d99639f41ec97ed2876af4268fd-ao-25" height="31.08108" width="109.45946" y="174.32436" x="146.40544" stroke="#2D2D2D" fill="#007fff"/>
  
  <rect id="d3292d99639f41ec97ed2876af4268fd-ao-27" height="48.64865" width="114.86487" y="33.78382" x="223.43247" stroke="#2D2D2D" fill="#007fff"/>
 </g>
</svg>