<svg xmlns="http://www.w3.org/2000/svg" width="778" height="553">
 <!-- Created with Image Occlusion Enhanced -->
 <g>
  <title>Labels</title>
 </g>
 <g>
  <title>Masks</title>
  <rect id="dfd90742ddaf4f11842476324da7b8b0-oa-1" height="25.23364" width="110.28037" y="129.80371" x="18.26166" stroke="#2D2D2D" fill="#FFEBA2"/>
  <rect id="dfd90742ddaf4f11842476324da7b8b0-oa-2" height="24.29906" width="109.34579" y="170.92521" x="12.65418" stroke="#2D2D2D" fill="#FFEBA2"/>
  <rect id="dfd90742ddaf4f11842476324da7b8b0-oa-3" height="68.2243" width="112.14953" y="214.85044" x="15.45792" stroke="#2D2D2D" fill="#FFEBA2"/>
  <rect id="dfd90742ddaf4f11842476324da7b8b0-oa-4" height="50.46729" width="101.86916" y="287.74763" x="9.85045" stroke="#2D2D2D" fill="#FFEBA2"/>
  <rect id="dfd90742ddaf4f11842476324da7b8b0-oa-5" height="48.59813" width="94.39252" y="353.16819" x="12.65418" stroke="#2D2D2D" fill="#FFEBA2"/>
  <rect id="dfd90742ddaf4f11842476324da7b8b0-oa-6" height="65.42056" width="121.49532" y="3.63549" x="198.63549" stroke="#2D2D2D" fill="#FFEBA2"/>
  <rect id="dfd90742ddaf4f11842476324da7b8b0-oa-7" height="46.72897" width="98.13084" y="11.11213" x="356.57941" stroke="#2D2D2D" fill="#FFEBA2"/>
  <rect id="dfd90742ddaf4f11842476324da7b8b0-oa-8" height="43.92523" width="104.67289" y="390.55137" x="564.42987" stroke="#2D2D2D" fill="#FFEBA2"/>
  <rect id="dfd90742ddaf4f11842476324da7b8b0-oa-9" height="26.16822" width="135.51402" y="450.36445" x="569.10277" stroke="#2D2D2D" fill="#FFEBA2"/>
  <rect id="dfd90742ddaf4f11842476324da7b8b0-oa-10" height="26.16822" width="127.1028" y="484.00931" x="567.23361" stroke="#2D2D2D" fill="#FFEBA2"/>
  <rect id="dfd90742ddaf4f11842476324da7b8b0-oa-11" height="42.99065" width="125.23364" y="136.34577" x="639.19622" stroke="#2D2D2D" fill="#FFEBA2"/>
  <rect id="dfd90742ddaf4f11842476324da7b8b0-oa-12" height="33.64486" width="90.6542" y="191.48595" x="661.62613" stroke="#2D2D2D" fill="#FFEBA2"/>
  <rect id="dfd90742ddaf4f11842476324da7b8b0-oa-13" height="22.42991" width="121.49532" y="243.8224" x="650.41118" stroke="#2D2D2D" fill="#FFEBA2"/>
  <rect id="dfd90742ddaf4f11842476324da7b8b0-oa-14" height="41.12149" width="73.83177" y="282.14016" x="655.08407" stroke="#2D2D2D" fill="#FFEBA2"/>
  <rect id="dfd90742ddaf4f11842476324da7b8b0-oa-15" height="24.29906" width="100.93458" y="341.95324" x="640.1308" stroke="#2D2D2D" fill="#FFEBA2"/>
  <rect id="dfd90742ddaf4f11842476324da7b8b0-oa-16" height="30.84112" width="134.57944" y="520.45791" x="228.91586" stroke="#2D2D2D" fill="#FFEBA2"/>
 </g>
</svg>