<svg xmlns="http://www.w3.org/2000/svg" width="1599" height="1465.9999999999998">
 <!-- Created with Image Occlusion Enhanced -->
 <g>
  <title>Labels</title>
 </g>
 <g>
  <title>Masks</title>
  <rect id="e62786f178714901bb20373924218413-ao-1" height="52.5" width="73.75" y="211.99989" x="561.00008" stroke="#2D2D2D" fill="#007fff"/>
  <rect id="e62786f178714901bb20373924218413-ao-2" height="46.25" width="155.00001" y="348.24989" x="202.25007" stroke="#2D2D2D" fill="#007fff"/>
  <rect id="e62786f178714901bb20373924218413-ao-3" height="52.5" width="132.50001" y="424.4999" x="204.75007" stroke="#2D2D2D" fill="#007fff"/>
  <rect id="e62786f178714901bb20373924218413-ao-4" height="50" width="117.5" y="504.4999" x="192.25007" stroke="#2D2D2D" fill="#007fff"/>
  <rect id="e62786f178714901bb20373924218413-ao-5" height="30" width="141.25001" y="579.4999" x="172.25007" stroke="#2D2D2D" fill="#007fff"/>
  <rect id="e62786f178714901bb20373924218413-ao-6" height="40" width="126.25" y="636.9999" x="159.75007" stroke="#2D2D2D" fill="#007fff"/>
  <rect id="e62786f178714901bb20373924218413-ao-7" height="51.25" width="98.75" y="704.49991" x="189.75007" stroke="#2D2D2D" fill="#007fff"/>
  <rect id="e62786f178714901bb20373924218413-ao-8" height="52.5" width="130" y="778.24991" x="129.75007" stroke="#2D2D2D" fill="#007fff"/>
  <rect id="e62786f178714901bb20373924218413-ao-9" height="53.75" width="133.75001" y="936.99992" x="151.00007" stroke="#2D2D2D" fill="#007fff"/>
  <rect id="e62786f178714901bb20373924218413-ao-10" height="48.75" width="91.25" y="1011.99992" x="196.00007" stroke="#2D2D2D" fill="#007fff"/>
  <rect id="e62786f178714901bb20373924218413-ao-11" height="46.25" width="88.75" y="1086.99992" x="216.00007" stroke="#2D2D2D" fill="#007fff"/>
  <rect id="e62786f178714901bb20373924218413-ao-12" height="27.5" width="102.5" y="1203.24993" x="249.75007" stroke="#2D2D2D" fill="#007fff"/>
  <rect id="e62786f178714901bb20373924218413-ao-13" height="47.5" width="126.25" y="1259.49993" x="274.75007" stroke="#2D2D2D" fill="#007fff"/>
  
  <rect id="e62786f178714901bb20373924218413-ao-15" height="43.75" width="66.25" y="1165.74992" x="1239.75011" stroke="#2D2D2D" fill="#007fff"/>
  <rect id="e62786f178714901bb20373924218413-ao-16" height="45" width="132.50001" y="1091.99992" x="1264.75011" stroke="#2D2D2D" fill="#007fff"/>
  <rect id="e62786f178714901bb20373924218413-ao-17" height="46.25" width="115" y="1013.24992" x="1287.25011" stroke="#2D2D2D" fill="#007fff"/>
  <rect id="e62786f178714901bb20373924218413-ao-18" height="47.5" width="115" y="938.24992" x="1334.75011" stroke="#2D2D2D" fill="#007fff"/>
  <rect id="e62786f178714901bb20373924218413-ao-19" height="25" width="86.25" y="885.74991" x="1341.00011" stroke="#2D2D2D" fill="#007fff"/>
  <rect id="e62786f178714901bb20373924218413-ao-20" height="32.5" width="103.75" y="831.99991" x="1336.00011" stroke="#2D2D2D" fill="#007fff"/>
  <rect id="e62786f178714901bb20373924218413-ao-21" height="26.25" width="75" y="780.74991" x="1309.75011" stroke="#2D2D2D" fill="#007fff"/>
  <rect id="e62786f178714901bb20373924218413-ao-22" height="51.25" width="128.75" y="701.99991" x="1307.25011" stroke="#2D2D2D" fill="#007fff"/>
  <rect id="e62786f178714901bb20373924218413-ao-23" height="30" width="112.5" y="621.9999" x="1282.25011" stroke="#2D2D2D" fill="#007fff"/>
  <rect id="e62786f178714901bb20373924218413-ao-24" height="55" width="145.00001" y="531.9999" x="1283.50011" stroke="#2D2D2D" fill="#007fff"/>
  <rect id="e62786f178714901bb20373924218413-ao-25" height="28.75" width="117.5" y="485.7499" x="1264.75011" stroke="#2D2D2D" fill="#007fff"/>
  <rect id="e62786f178714901bb20373924218413-ao-26" height="28.75" width="133.75001" y="429.4999" x="1241.00011" stroke="#2D2D2D" fill="#007fff"/>
  <rect id="e62786f178714901bb20373924218413-ao-27" height="48.75" width="96.25" y="346.99989" x="1212.25011" stroke="#2D2D2D" fill="#007fff"/>
  <rect id="e62786f178714901bb20373924218413-ao-28" height="47.5" width="85" y="214.49989" x="939.7501" stroke="#2D2D2D" fill="#007fff"/>
 </g>
</svg>