<svg xmlns="http://www.w3.org/2000/svg" width="1468" height="1711">
 <!-- Created with Image Occlusion Enhanced -->
 <g>
  <title>Labels</title>
 </g>
 <g>
  <title>Masks</title>
  <rect id="e65aecd6749948e381fb393d3b2db46c-ao-1" height="51.51515" width="130.30303" y="369.30301" x="147.15151" stroke="#2D2D2D" fill="#007fff"/>
  <rect id="e65aecd6749948e381fb393d3b2db46c-ao-2" height="30.30303" width="146.9697" y="440.51513" x="241.0909" stroke="#2D2D2D" fill="#007fff"/>
  <rect id="e65aecd6749948e381fb393d3b2db46c-ao-3" height="28.78788" width="160.60606" y="531.42422" x="230.48484" stroke="#2D2D2D" fill="#007fff"/>
  <rect id="e65aecd6749948e381fb393d3b2db46c-ao-4" height="45.45455" width="189.39394" y="596.57574" x="206.24242" stroke="#2D2D2D" fill="#007fff"/>
  <rect id="e65aecd6749948e381fb393d3b2db46c-ao-5" height="28.78788" width="151.51515" y="179.90907" x="859.27272" stroke="#2D2D2D" fill="#007fff"/>
  <rect id="e65aecd6749948e381fb393d3b2db46c-ao-6" height="51.51515" width="166.66667" y="232.93937" x="830.48484" stroke="#2D2D2D" fill="#007fff"/>
  <rect id="e65aecd6749948e381fb393d3b2db46c-ao-7" height="37.87879" width="183.33333" y="375.36362" x="804.72726" stroke="#2D2D2D" fill="#007fff"/>
  <rect id="e65aecd6749948e381fb393d3b2db46c-ao-8" height="24.24242" width="186.36364" y="443.54543" x="836.54544" stroke="#2D2D2D" fill="#007fff"/>
  <rect id="e65aecd6749948e381fb393d3b2db46c-ao-9" height="80.30303" width="163.63636" y="507.1818" x="881.99999" stroke="#2D2D2D" fill="#007fff"/>
  <rect id="e65aecd6749948e381fb393d3b2db46c-ao-10" height="53.0303" width="128.78788" y="704.15149" x="1009.27271" stroke="#2D2D2D" fill="#007fff"/>
  <rect id="e65aecd6749948e381fb393d3b2db46c-ao-11" height="48.48485" width="107.57576" y="684.45452" x="1185.03029" stroke="#2D2D2D" fill="#007fff"/>
  <rect id="e65aecd6749948e381fb393d3b2db46c-ao-12" height="54.54545" width="122.72727" y="707.1818" x="1321.39393" stroke="#2D2D2D" fill="#007fff"/>
  <rect id="e65aecd6749948e381fb393d3b2db46c-ao-13" height="56.06061" width="95.45454" y="1042.03028" x="1362.30302" stroke="#2D2D2D" fill="#007fff"/>
  <rect id="e65aecd6749948e381fb393d3b2db46c-ao-14" height="54.54545" width="122.72727" y="1113.2424" x="1180.48484" stroke="#2D2D2D" fill="#007fff"/>
  <rect id="e65aecd6749948e381fb393d3b2db46c-ao-15" height="28.78788" width="130.30303" y="1045.06058" x="992.60605" stroke="#2D2D2D" fill="#007fff"/>
  <rect id="e65aecd6749948e381fb393d3b2db46c-ao-16" height="54.54545" width="119.69697" y="926.87877" x="863.81817" stroke="#2D2D2D" fill="#007fff"/>
  <rect id="e65aecd6749948e381fb393d3b2db46c-ao-17" height="42.42424" width="110.60606" y="870.81816" x="872.90908" stroke="#2D2D2D" fill="#007fff"/>
  <rect id="e65aecd6749948e381fb393d3b2db46c-ao-18" height="31.81818" width="154.54545" y="1155.66664" x="206.24242" stroke="#2D2D2D" fill="#007fff"/>
  <rect id="e65aecd6749948e381fb393d3b2db46c-ao-19" height="27.27273" width="168.18182" y="1202.63634" x="209.27272" stroke="#2D2D2D" fill="#007fff"/>
  <rect id="e65aecd6749948e381fb393d3b2db46c-ao-20" height="25.75758" width="122.72727" y="1246.57573" x="256.24242" stroke="#2D2D2D" fill="#007fff"/>
  <rect id="e65aecd6749948e381fb393d3b2db46c-ao-21" height="25.75758" width="160.60606" y="1323.84846" x="227.45454" stroke="#2D2D2D" fill="#007fff"/>
  <rect id="e65aecd6749948e381fb393d3b2db46c-ao-22" height="27.27273" width="168.18182" y="1372.33331" x="215.33332" stroke="#2D2D2D" fill="#007fff"/>
  <rect id="e65aecd6749948e381fb393d3b2db46c-ao-23" height="22.72727" width="174.24242" y="1420.81816" x="210.78787" stroke="#2D2D2D" fill="#007fff"/>
  <rect id="e65aecd6749948e381fb393d3b2db46c-ao-24" height="53.0303" width="148.48485" y="1120.81816" x="807.75756" stroke="#2D2D2D" fill="#FF7E7E" class="qshape"/>
  <rect id="e65aecd6749948e381fb393d3b2db46c-ao-25" height="46.9697" width="146.9697" y="1190.51513" x="806.24241" stroke="#2D2D2D" fill="#007fff"/>
  <rect id="e65aecd6749948e381fb393d3b2db46c-ao-26" height="30.30303" width="159.09091" y="1258.69695" x="778.96969" stroke="#2D2D2D" fill="#007fff"/>
  <rect id="e65aecd6749948e381fb393d3b2db46c-ao-27" height="74.24242" width="165.15151" y="1370.81816" x="798.66666" stroke="#2D2D2D" fill="#007fff"/>
  <rect id="e65aecd6749948e381fb393d3b2db46c-ao-28" height="25.75758" width="165.15151" y="1322.33331" x="781.99999" stroke="#2D2D2D" fill="#007fff"/>
 </g>
</svg>