<svg xmlns="http://www.w3.org/2000/svg" width="1201" height="990">
 <!-- Created with Image Occlusion Enhanced -->
 <g>
  <title>Labels</title>
 </g>
 <g>
  <title>Masks</title>
  <rect id="ec3e5f3f4e544da7b48b8510c9d5f18e-ao-1" height="34.69388" width="159.18368" y="83.46936" x="372.46941" stroke="#2D2D2D" fill="#FFEBA2"/>
  <rect id="ec3e5f3f4e544da7b48b8510c9d5f18e-ao-2" height="71.42857" width="122.44898" y="77.34691" x="566.34697" stroke="#2D2D2D" fill="#FFEBA2"/>
  <rect id="ec3e5f3f4e544da7b48b8510c9d5f18e-ao-3" height="36.73469" width="136.7347" y="205.91834" x="668.38779" stroke="#2D2D2D" fill="#FFEBA2"/>
  <rect id="ec3e5f3f4e544da7b48b8510c9d5f18e-ao-4" height="65.30612" width="167.34694" y="116.12242" x="923.48983" stroke="#2D2D2D" fill="#FFEBA2"/>
  <rect id="ec3e5f3f4e544da7b48b8510c9d5f18e-ao-5" height="34.69388" width="44.89796" y="403.87753" x="1039.81636" stroke="#2D2D2D" fill="#FFEBA2"/>
  <rect id="ec3e5f3f4e544da7b48b8510c9d5f18e-ao-6" height="42.85714" width="173.46939" y="581.42855" x="917.36738" stroke="#2D2D2D" fill="#FFEBA2"/>
  <rect id="ec3e5f3f4e544da7b48b8510c9d5f18e-ao-7" height="75.51021" width="110.20408" y="463.06121" x="801.04085" stroke="#2D2D2D" fill="#FFEBA2"/>
  <rect id="ec3e5f3f4e544da7b48b8510c9d5f18e-ao-8" height="63.26531" width="148.97959" y="556.93876" x="460.22452" stroke="#2D2D2D" fill="#FFEBA2"/>
  <rect id="ec3e5f3f4e544da7b48b8510c9d5f18e-ao-9" height="32.65306" width="165.30613" y="507.95917" x="345.9388" stroke="#2D2D2D" fill="#FFEBA2"/>
  
  <rect id="ec3e5f3f4e544da7b48b8510c9d5f18e-ao-11" height="34.69388" width="36.73469" y="207.95916" x="199.00002" stroke="#2D2D2D" fill="#FFEBA2"/>
  <rect id="ec3e5f3f4e544da7b48b8510c9d5f18e-ao-12" height="36.73469" width="46.93878" y="205.91834" x="121.449" stroke="#2D2D2D" fill="#FFEBA2"/>
  <rect id="ec3e5f3f4e544da7b48b8510c9d5f18e-ao-13" height="30.61225" width="36.73469" y="281.42855" x="152.06125" stroke="#2D2D2D" fill="#FFEBA2"/>
  <rect id="ec3e5f3f4e544da7b48b8510c9d5f18e-ao-14" height="28.57143" width="40.81633" y="256.93875" x="90.83676" stroke="#2D2D2D" fill="#FFEBA2"/>
  <rect id="ec3e5f3f4e544da7b48b8510c9d5f18e-ao-15" height="38.77551" width="46.93878" y="338.57141" x="135.73472" stroke="#2D2D2D" fill="#FFEBA2"/>
  <rect id="ec3e5f3f4e544da7b48b8510c9d5f18e-ao-16" height="30.61225" width="46.93878" y="465.10202" x="237.77553" stroke="#2D2D2D" fill="#FFEBA2"/>
  <rect id="ec3e5f3f4e544da7b48b8510c9d5f18e-ao-17" height="30.61225" width="46.93878" y="463.06121" x="309.20411" stroke="#2D2D2D" fill="#FFEBA2"/>
 </g>
</svg>