<svg xmlns="http://www.w3.org/2000/svg" width="1600" height="1549">
 <!-- Created with Image Occlusion Enhanced -->
 <g>
  <title>Labels</title>
 </g>
 <g>
  <title>Masks</title>
  <rect id="f11882c8d0ec4a3fb44e6f761f0b86e0-ao-1" height="51.31579" width="90.78947" y="362.84212" x="175.52631" stroke="#2D2D2D" fill="#007fff"/>
  <rect id="f11882c8d0ec4a3fb44e6f761f0b86e0-ao-2" height="28.94737" width="115.78947" y="526.00002" x="149.21052" stroke="#2D2D2D" fill="#007fff"/>
  <rect id="f11882c8d0ec4a3fb44e6f761f0b86e0-ao-3" height="51.31579" width="102.63158" y="572.05265" x="168.94736" stroke="#2D2D2D" fill="#007fff"/>
  <rect id="f11882c8d0ec4a3fb44e6f761f0b86e0-ao-4" height="32.89474" width="143.42105" y="643.10528" x="124.21052" stroke="#2D2D2D" fill="#007fff"/>
  <rect id="f11882c8d0ec4a3fb44e6f761f0b86e0-ao-5" height="30.26316" width="160.52632" y="694.42107" x="114.99999" stroke="#2D2D2D" fill="#007fff"/>
  <rect id="f11882c8d0ec4a3fb44e6f761f0b86e0-ao-6" height="28.94737" width="122.36842" y="745.73686" x="158.42105" stroke="#2D2D2D" fill="#007fff"/>
  <rect id="f11882c8d0ec4a3fb44e6f761f0b86e0-ao-7" height="38.1579" width="148.68421" y="791.78949" x="117.63157" stroke="#2D2D2D" fill="#007fff"/>
  <rect id="f11882c8d0ec4a3fb44e6f761f0b86e0-ao-8" height="46.05263" width="123.68421" y="845.73686" x="141.31578" stroke="#2D2D2D" fill="#007fff"/>
  <rect id="f11882c8d0ec4a3fb44e6f761f0b86e0-ao-9" height="50" width="121.05263" y="916.78949" x="143.94736" stroke="#2D2D2D" fill="#007fff"/>
  <rect id="f11882c8d0ec4a3fb44e6f761f0b86e0-ao-10" height="52.63158" width="143.42105" y="981.26318" x="128.15789" stroke="#2D2D2D" fill="#007fff"/>
  <rect id="f11882c8d0ec4a3fb44e6f761f0b86e0-ao-11" height="27.63158" width="115.78947" y="1053.6316" x="151.8421" stroke="#2D2D2D" fill="#007fff"/>
  <rect id="f11882c8d0ec4a3fb44e6f761f0b86e0-ao-12" height="31.57895" width="126.31579" y="1154.94739" x="164.99999" stroke="#2D2D2D" fill="#007fff"/>
  <rect id="f11882c8d0ec4a3fb44e6f761f0b86e0-ao-13" height="27.63158" width="109.21053" y="1239.15792" x="186.05263" stroke="#2D2D2D" fill="#007fff"/>
  <rect id="f11882c8d0ec4a3fb44e6f761f0b86e0-ao-14" height="32.89474" width="101.31579" y="1314.15792" x="226.8421" stroke="#2D2D2D" fill="#007fff"/>
  <rect id="f11882c8d0ec4a3fb44e6f761f0b86e0-ao-15" height="31.57895" width="159.21053" y="1398.36845" x="217.63157" stroke="#2D2D2D" fill="#007fff"/>
  <rect id="f11882c8d0ec4a3fb44e6f761f0b86e0-ao-16" height="56.57895" width="88.1579" y="1344.42108" x="1187.36842" stroke="#2D2D2D" fill="#007fff"/>
  <rect id="f11882c8d0ec4a3fb44e6f761f0b86e0-ao-17" height="30.26316" width="139.47369" y="1236.52634" x="1262.36842" stroke="#2D2D2D" fill="#007fff"/>
  <rect id="f11882c8d0ec4a3fb44e6f761f0b86e0-ao-18" height="51.31579" width="136.84211" y="1157.57897" x="1286.05264" stroke="#2D2D2D" fill="#007fff"/>
  <rect id="f11882c8d0ec4a3fb44e6f761f0b86e0-ao-19" height="28.94737" width="122.36842" y="1110.21055" x="1312.36843" stroke="#2D2D2D" fill="#007fff"/>
  <rect id="f11882c8d0ec4a3fb44e6f761f0b86e0-ao-20" height="26.31579" width="132.89474" y="1061.52634" x="1336.05264" stroke="#2D2D2D" fill="#007fff"/>
  <rect id="f11882c8d0ec4a3fb44e6f761f0b86e0-ao-21" height="47.36842" width="119.73684" y="987.84213" x="1334.73685" stroke="#2D2D2D" fill="#007fff"/>
  <rect id="f11882c8d0ec4a3fb44e6f761f0b86e0-ao-22" height="26.31579" width="114.47369" y="937.84213" x="1333.42106" stroke="#2D2D2D" fill="#007fff"/>
  <rect id="f11882c8d0ec4a3fb44e6f761f0b86e0-ao-23" height="50" width="110.52632" y="860.21055" x="1332.10527" stroke="#2D2D2D" fill="#007fff"/>
  <rect id="f11882c8d0ec4a3fb44e6f761f0b86e0-ao-24" height="26.31579" width="103.94737" y="818.10528" x="1334.73685" stroke="#2D2D2D" fill="#007fff"/>
  <rect id="f11882c8d0ec4a3fb44e6f761f0b86e0-ao-25" height="42.10526" width="98.68421" y="751.00002" x="1332.10527" stroke="#2D2D2D" fill="#007fff"/>
  <rect id="f11882c8d0ec4a3fb44e6f761f0b86e0-ao-26" height="25" width="110.52632" y="706.26318" x="1337.36843" stroke="#2D2D2D" fill="#007fff"/>
  <rect id="f11882c8d0ec4a3fb44e6f761f0b86e0-ao-27" height="31.57895" width="122.36842" y="656.26318" x="1333.42106" stroke="#2D2D2D" fill="#007fff"/>
  <rect id="f11882c8d0ec4a3fb44e6f761f0b86e0-ao-28" height="39.47368" width="92.10526" y="593.10528" x="1332.10527" stroke="#2D2D2D" fill="#007fff"/>
  <rect id="f11882c8d0ec4a3fb44e6f761f0b86e0-ao-29" height="30.26316" width="89.47368" y="543.10528" x="1336.05264" stroke="#2D2D2D" fill="#007fff"/>
  <rect id="f11882c8d0ec4a3fb44e6f761f0b86e0-ao-30" height="27.63158" width="93.42105" y="498.36844" x="1334.73685" stroke="#2D2D2D" fill="#007fff"/>
  <rect id="f11882c8d0ec4a3fb44e6f761f0b86e0-ao-31" height="38.1579" width="135.52632" y="448.36844" x="1333.42106" stroke="#2D2D2D" fill="#007fff"/>
  <rect id="f11882c8d0ec4a3fb44e6f761f0b86e0-ao-32" height="44.73684" width="122.36842" y="379.94738" x="1332.10527" stroke="#2D2D2D" fill="#007fff"/>
  <rect id="f11882c8d0ec4a3fb44e6f761f0b86e0-ao-33" height="44.73684" width="97.36842" y="314.15791" x="1304.47369" stroke="#2D2D2D" fill="#007fff"/>
  <rect id="f11882c8d0ec4a3fb44e6f761f0b86e0-ao-34" height="47.36842" width="105.26316" y="244.42107" x="1282.10527" stroke="#2D2D2D" fill="#FF7E7E" class="qshape"/>
  <rect id="f11882c8d0ec4a3fb44e6f761f0b86e0-ao-35" height="23.68421" width="109.21053" y="190.4737" x="1261.05264" stroke="#2D2D2D" fill="#007fff"/>
  <rect id="f11882c8d0ec4a3fb44e6f761f0b86e0-ao-36" height="52.63158" width="135.52632" y="106.26317" x="1186.05263" stroke="#2D2D2D" fill="#007fff"/>
 </g>
</svg>