<svg xmlns="http://www.w3.org/2000/svg" width="1600" height="1245.9999999999998">
 <!-- Created with Image Occlusion Enhanced -->
 <g>
  <title>Labels</title>
 </g>
 <g>
  <title>Masks</title>
  <rect id="17f92716a2da4ea9a691102cbdc10ce7-ao-1" height="20.65217" width="131.52175" y="32.26093" x="392.39129" stroke="#2D2D2D" fill="#007fff"/>
  <rect id="17f92716a2da4ea9a691102cbdc10ce7-ao-2" height="38.04348" width="131.52175" y="107.26093" x="644.56521" stroke="#2D2D2D" fill="#007fff"/>
  <rect id="17f92716a2da4ea9a691102cbdc10ce7-ao-3" height="45.65218" width="141.30435" y="164.86963" x="693.47826" stroke="#2D2D2D" fill="#007fff"/>
  <rect id="17f92716a2da4ea9a691102cbdc10ce7-ao-4" height="54.34783" width="145.65218" y="231.17398" x="714.13043" stroke="#2D2D2D" fill="#007fff"/>
  <rect id="17f92716a2da4ea9a691102cbdc10ce7-ao-5" height="94.56522" width="161.95653" y="308.3479" x="742.3913" stroke="#2D2D2D" fill="#007fff"/>
  <rect id="17f92716a2da4ea9a691102cbdc10ce7-ao-6" height="70.65218" width="128.26088" y="423.5653" x="747.82608" stroke="#2D2D2D" fill="#007fff"/>
  <rect id="17f92716a2da4ea9a691102cbdc10ce7-ao-7" height="26.08696" width="122.82609" y="518.13052" x="743.47826" stroke="#2D2D2D" fill="#007fff"/>
  <rect id="17f92716a2da4ea9a691102cbdc10ce7-ao-8" height="51.08696" width="141.30435" y="560.52182" x="743.47826" stroke="#2D2D2D" fill="#007fff"/>
  <rect id="17f92716a2da4ea9a691102cbdc10ce7-ao-9" height="38.04348" width="136.95653" y="629.00009" x="739.13043" stroke="#2D2D2D" fill="#007fff"/>
  <rect id="17f92716a2da4ea9a691102cbdc10ce7-ao-10" height="30.43478" width="123.91305" y="814.86966" x="570.65216" stroke="#2D2D2D" fill="#007fff"/>
  
  <rect id="17f92716a2da4ea9a691102cbdc10ce7-ao-12" height="63.04348" width="130.43479" y="757.26096" x="255.43476" stroke="#2D2D2D" fill="#007fff"/>
  <rect id="17f92716a2da4ea9a691102cbdc10ce7-ao-13" height="52.17392" width="136.95653" y="679.00009" x="135.86953" stroke="#2D2D2D" fill="#007fff"/>
  <rect id="17f92716a2da4ea9a691102cbdc10ce7-ao-14" height="54.34783" width="98.91305" y="557.26095" x="129.34779" stroke="#2D2D2D" fill="#007fff"/>
  <rect id="17f92716a2da4ea9a691102cbdc10ce7-ao-15" height="91.30435" width="117.39131" y="438.78269" x="111.95649" stroke="#2D2D2D" fill="#007fff"/>
  <rect id="17f92716a2da4ea9a691102cbdc10ce7-ao-16" height="50" width="88.04348" y="363.78268" x="138.04345" stroke="#2D2D2D" fill="#007fff"/>
  <rect id="17f92716a2da4ea9a691102cbdc10ce7-ao-17" height="47.82609" width="63.04348" y="286.60877" x="184.78258" stroke="#2D2D2D" fill="#007fff"/>
  <rect id="17f92716a2da4ea9a691102cbdc10ce7-ao-18" height="54.34783" width="118.47827" y="210.52181" x="158.69562" stroke="#2D2D2D" fill="#007fff"/>
  <rect id="17f92716a2da4ea9a691102cbdc10ce7-ao-19" height="71.73913" width="125.00001" y="109.43485" x="170.65214" stroke="#2D2D2D" fill="#007fff"/>
  <rect id="17f92716a2da4ea9a691102cbdc10ce7-ao-20" height="32.6087" width="143.47827" y="405.08703" x="1075.00001" stroke="#2D2D2D" fill="#007fff"/>
  <rect id="17f92716a2da4ea9a691102cbdc10ce7-ao-21" height="52.17392" width="82.6087" y="532.26095" x="1308.69568" stroke="#2D2D2D" fill="#007fff"/>
  <rect id="17f92716a2da4ea9a691102cbdc10ce7-ao-22" height="80.43479" width="129.34783" y="601.82617" x="1331.52176" stroke="#2D2D2D" fill="#007fff"/>
  <rect id="17f92716a2da4ea9a691102cbdc10ce7-ao-23" height="93.47827" width="89.13044" y="700.73922" x="1366.30437" stroke="#2D2D2D" fill="#007fff"/>
  <rect id="17f92716a2da4ea9a691102cbdc10ce7-ao-24" height="94.56522" width="96.73913" y="818.13053" x="1357.60872" stroke="#2D2D2D" fill="#007fff"/>
  <rect id="17f92716a2da4ea9a691102cbdc10ce7-ao-25" height="56.52174" width="81.52174" y="927.91315" x="1368.47829" stroke="#2D2D2D" fill="#007fff"/>
  <rect id="17f92716a2da4ea9a691102cbdc10ce7-ao-26" height="108.69566" width="78.26087" y="999.65228" x="1369.56524" stroke="#2D2D2D" fill="#007fff"/>
  <rect id="17f92716a2da4ea9a691102cbdc10ce7-ao-27" height="50" width="142.39131" y="1114.86968" x="1319.56524" stroke="#2D2D2D" fill="#007fff"/>
  <rect id="17f92716a2da4ea9a691102cbdc10ce7-ao-28" height="52.17392" width="123.91305" y="1174.65229" x="1171.73915" stroke="#2D2D2D" fill="#007fff"/>
  <rect id="17f92716a2da4ea9a691102cbdc10ce7-ao-29" height="29.34783" width="135.86957" y="1193.13055" x="985.86957" stroke="#2D2D2D" fill="#007fff"/>
  <rect id="17f92716a2da4ea9a691102cbdc10ce7-ao-30" height="50" width="75" y="1079.00011" x="792.3913" stroke="#2D2D2D" fill="#007fff"/>
  <rect id="17f92716a2da4ea9a691102cbdc10ce7-ao-31" height="51.08696" width="138.04348" y="1001.82619" x="726.08695" stroke="#2D2D2D" fill="#007fff"/>
  <rect id="17f92716a2da4ea9a691102cbdc10ce7-ao-32" height="22.82609" width="119.56522" y="956.17402" x="741.30435" stroke="#2D2D2D" fill="#007fff"/>
  <rect id="17f92716a2da4ea9a691102cbdc10ce7-ao-33" height="48.91305" width="115.2174" y="884.43488" x="750" stroke="#2D2D2D" fill="#007fff"/>
  <rect id="17f92716a2da4ea9a691102cbdc10ce7-ao-34" height="40.21739" width="85.86957" y="819.21749" x="776.08696" stroke="#2D2D2D" fill="#007fff"/>
  <rect id="17f92716a2da4ea9a691102cbdc10ce7-ao-35" height="46.73913" width="78.26087" y="707.26096" x="791.30435" stroke="#2D2D2D" fill="#007fff"/>
  <rect id="17f92716a2da4ea9a691102cbdc10ce7-ao-36" height="45.65218" width="71.73913" y="445.30443" x="967.39131" stroke="#2D2D2D" fill="#007fff"/>
 </g>
</svg>