<svg xmlns="http://www.w3.org/2000/svg" width="1600" height="1229">
 <!-- Created with Image Occlusion Enhanced -->
 <g>
  <title>Labels</title>
 </g>
 <g>
  <title>Masks</title>
  <rect id="205da23daced4ca081f5495cc733b1d7-ao-1" height="59.13979" width="94.62366" y="130.13982" x="1120.43012" stroke="#2D2D2D" fill="#007fff"/>
  <rect id="205da23daced4ca081f5495cc733b1d7-ao-2" height="25.80645" width="74.19355" y="240.89251" x="1092.47313" stroke="#2D2D2D" fill="#007fff"/>
  <rect id="205da23daced4ca081f5495cc733b1d7-ao-3" height="49.46237" width="190.32259" y="319.38714" x="1093.54839" stroke="#2D2D2D" fill="#007fff"/>
  <rect id="205da23daced4ca081f5495cc733b1d7-ao-4" height="48.3871" width="179.5699" y="394.65596" x="1090.32259" stroke="#2D2D2D" fill="#007fff"/>
  <rect id="205da23daced4ca081f5495cc733b1d7-ao-5" height="46.23656" width="173.11828" y="468.84951" x="1093.54839" stroke="#2D2D2D" fill="#007fff"/>
  <rect id="205da23daced4ca081f5495cc733b1d7-ao-6" height="21.50538" width="152.68818" y="536.59144" x="1117.20431" stroke="#2D2D2D" fill="#FF7E7E" class="qshape"/>
  <rect id="205da23daced4ca081f5495cc733b1d7-ao-7" height="25.80645" width="151.61291" y="583.90327" x="1140.86022" stroke="#2D2D2D" fill="#007fff"/>
  <rect id="205da23daced4ca081f5495cc733b1d7-ao-8" height="24.73118" width="90.32258" y="640.89252" x="1166.66668" stroke="#2D2D2D" fill="#007fff"/>
  <rect id="205da23daced4ca081f5495cc733b1d7-ao-9" height="27.95699" width="113.9785" y="688.20435" x="1190.32259" stroke="#2D2D2D" fill="#007fff"/>
  <rect id="205da23daced4ca081f5495cc733b1d7-ao-10" height="31.1828" width="126.88172" y="753.79575" x="1215.05377" stroke="#2D2D2D" fill="#007fff"/>
  <rect id="205da23daced4ca081f5495cc733b1d7-ao-11" height="63.44086" width="122.58065" y="839.81726" x="1238.70969" stroke="#2D2D2D" fill="#007fff"/>
  <rect id="205da23daced4ca081f5495cc733b1d7-ao-12" height="73.11828" width="166.66667" y="967.77425" x="1246.23657" stroke="#2D2D2D" fill="#007fff"/>
  <rect id="205da23daced4ca081f5495cc733b1d7-ao-13" height="44.08602" width="138.70968" y="1065.62371" x="1243.01076" stroke="#2D2D2D" fill="#007fff"/>
  <rect id="205da23daced4ca081f5495cc733b1d7-ao-14" height="32.25807" width="66.66667" y="1065.62371" x="275.2688" stroke="#2D2D2D" fill="#007fff"/>
  <rect id="205da23daced4ca081f5495cc733b1d7-ao-15" height="18.27957" width="117.2043" y="1001.10758" x="230.10751" stroke="#2D2D2D" fill="#007fff"/>
  <rect id="205da23daced4ca081f5495cc733b1d7-ao-16" height="51.6129" width="132.25807" y="918.31188" x="226.88171" stroke="#2D2D2D" fill="#007fff"/>
  <rect id="205da23daced4ca081f5495cc733b1d7-ao-17" height="16.12903" width="133.33334" y="761.32263" x="207.52687" stroke="#2D2D2D" fill="#007fff"/>
  <rect id="205da23daced4ca081f5495cc733b1d7-ao-18" height="55.91398" width="130.10753" y="679.6022" x="224.73117" stroke="#2D2D2D" fill="#007fff"/>
  <rect id="205da23daced4ca081f5495cc733b1d7-ao-19" height="30.10753" width="183.87097" y="630.13983" x="160.21504" stroke="#2D2D2D" fill="#007fff"/>
  <rect id="205da23daced4ca081f5495cc733b1d7-ao-20" height="25.80645" width="194.62366" y="582.828" x="150.53762" stroke="#2D2D2D" fill="#007fff"/>
  <rect id="205da23daced4ca081f5495cc733b1d7-ao-21" height="69.89247" width="181.72043" y="491.43015" x="165.59138" stroke="#2D2D2D" fill="#007fff"/>
  <rect id="205da23daced4ca081f5495cc733b1d7-ao-22" height="20.43011" width="79.56989" y="451.6452" x="283.87095" stroke="#2D2D2D" fill="#007fff"/>
  <rect id="205da23daced4ca081f5495cc733b1d7-ao-23" height="17.2043" width="177.41936" y="408.63445" x="211.82794" stroke="#2D2D2D" fill="#007fff"/>
  <rect id="205da23daced4ca081f5495cc733b1d7-ao-24" height="49.46237" width="115.05377" y="237.6667" x="323.6559" stroke="#2D2D2D" fill="#007fff"/>
  <rect id="205da23daced4ca081f5495cc733b1d7-ao-25" height="48.3871" width="112.90323" y="114.01079" x="401.07526" stroke="#2D2D2D" fill="#007fff"/>
 </g>
</svg>