<svg xmlns="http://www.w3.org/2000/svg" width="1313" height="724">
 <!-- Created with Image Occlusion Enhanced -->
 <g>
  <title>Labels</title>
 </g>
 <g>
  <title>Masks</title>
  <rect id="234362835253414c961c01368f0aa69e-ao-1" height="46.83544" width="141.13924" y="24.73414" x="677.50629" stroke="#2D2D2D" fill="#007fff"/>
  <rect id="234362835253414c961c01368f0aa69e-ao-2" height="43.03797" width="108.22785" y="27.8987" x="874.97464" stroke="#2D2D2D" fill="#007fff"/>
  <rect id="234362835253414c961c01368f0aa69e-ao-3" height="28.48101" width="113.92405" y="78.53161" x="1107.25312" stroke="#2D2D2D" fill="#007fff"/>
  <rect id="234362835253414c961c01368f0aa69e-ao-4" height="29.11392" width="141.13924" y="121.56958" x="1112.31641" stroke="#2D2D2D" fill="#007fff"/>
  <rect id="234362835253414c961c01368f0aa69e-ao-5" height="25.31646" width="108.86076" y="163.34173" x="1109.78476" stroke="#2D2D2D" fill="#007fff"/>
  <rect id="234362835253414c961c01368f0aa69e-ao-6" height="22.78481" width="107.59493" y="203.84806" x="1109.15185" stroke="#2D2D2D" fill="#007fff"/>
  <rect id="234362835253414c961c01368f0aa69e-ao-7" height="72.1519" width="148.73417" y="244.35439" x="1112.31641" stroke="#2D2D2D" fill="#007fff"/>
  <rect id="234362835253414c961c01368f0aa69e-ao-8" height="27.21519" width="147.46835" y="328.5316" x="1109.15185" stroke="#2D2D2D" fill="#007fff"/>
  <rect id="234362835253414c961c01368f0aa69e-ao-9" height="24.05063" width="65.82278" y="370.30376" x="1111.05059" stroke="#2D2D2D" fill="#007fff"/>
  <rect id="234362835253414c961c01368f0aa69e-ao-10" height="31.64557" width="138.60759" y="408.27844" x="1109.15185" stroke="#2D2D2D" fill="#007fff"/>
  <rect id="234362835253414c961c01368f0aa69e-ao-11" height="74.05063" width="171.51898" y="446.25312" x="1104.72147" stroke="#2D2D2D" fill="#007fff"/>
  <rect id="234362835253414c961c01368f0aa69e-ao-12" height="24.05063" width="138.60759" y="531.06325" x="1108.51894" stroke="#2D2D2D" fill="#007fff"/>
  <rect id="234362835253414c961c01368f0aa69e-ao-13" height="24.05063" width="146.83544" y="572.20249" x="1109.78476" stroke="#2D2D2D" fill="#007fff"/>
  <rect id="234362835253414c961c01368f0aa69e-ao-14" height="29.11392" width="143.67088" y="610.81008" x="1107.25312" stroke="#2D2D2D" fill="#007fff"/>
  <rect id="234362835253414c961c01368f0aa69e-ao-15" height="24.05063" width="150" y="654.48097" x="83.20251" stroke="#2D2D2D" fill="#007fff"/>
  <rect id="234362835253414c961c01368f0aa69e-ao-16" height="26.58228" width="153.16455" y="615.87337" x="80.67086" stroke="#2D2D2D" fill="#007fff"/>
  <rect id="234362835253414c961c01368f0aa69e-ao-17" height="28.48101" width="155.06329" y="570.93666" x="81.30377" stroke="#2D2D2D" fill="#007fff"/>
  <rect id="234362835253414c961c01368f0aa69e-ao-18" height="28.48101" width="103.79747" y="529.79742" x="133.2025" stroke="#2D2D2D" fill="#007fff"/>
  <rect id="234362835253414c961c01368f0aa69e-ao-19" height="24.05063" width="91.13924" y="491.82274" x="138.89871" stroke="#2D2D2D" fill="#007fff"/>
  
  <rect id="234362835253414c961c01368f0aa69e-ao-21" height="47.46835" width="189.87341" y="390.55692" x="48.39238" stroke="#2D2D2D" fill="#007fff"/>
  <rect id="234362835253414c961c01368f0aa69e-ao-22" height="27.8481" width="163.29114" y="350.6835" x="67.37972" stroke="#2D2D2D" fill="#007fff"/>
  <rect id="234362835253414c961c01368f0aa69e-ao-23" height="42.40506" width="181.64557" y="291.18983" x="53.45567" stroke="#2D2D2D" fill="#007fff"/>
  <rect id="234362835253414c961c01368f0aa69e-ao-24" height="53.79747" width="146.83544" y="183.5949" x="101.55694" stroke="#2D2D2D" fill="#007fff"/>
  <rect id="234362835253414c961c01368f0aa69e-ao-25" height="46.83544" width="126.58228" y="99.41768" x="113.58225" stroke="#2D2D2D" fill="#007fff"/>
  <rect id="234362835253414c961c01368f0aa69e-ao-26" height="55.6962" width="84.17721" y="22.2025" x="345.22782" stroke="#2D2D2D" fill="#007fff"/>
  <rect id="234362835253414c961c01368f0aa69e-ao-27" height="66.45569" width="129.74683" y="19.67085" x="485.73414" stroke="#2D2D2D" fill="#007fff"/>
 </g>
</svg>