<svg xmlns="http://www.w3.org/2000/svg" width="1288" height="1271">
 <!-- Created with Image Occlusion Enhanced -->
 <g>
  <title>Labels</title>
 </g>
 <g>
  <title>Masks</title>
  <rect id="3a85fbdfa4d2406ca8188c07a16f3bec-ao-1" height="54.44445" width="190.00001" y="47.88882" x="344.22229" stroke="#2D2D2D" fill="#007fff"/>
  <rect id="3a85fbdfa4d2406ca8188c07a16f3bec-ao-2" height="47.77778" width="103.33334" y="48.99993" x="598.66675" stroke="#2D2D2D" fill="#007fff"/>
  <rect id="3a85fbdfa4d2406ca8188c07a16f3bec-ao-3" height="44.44445" width="117.77778" y="51.22216" x="753.1112" stroke="#2D2D2D" fill="#007fff"/>
  <rect id="3a85fbdfa4d2406ca8188c07a16f3bec-ao-4" height="34.44445" width="96.66667" y="306.77772" x="985.33343" stroke="#2D2D2D" fill="#007fff"/>
  <rect id="3a85fbdfa4d2406ca8188c07a16f3bec-ao-5" height="32.22222" width="143.33334" y="373.44439" x="984.22232" stroke="#2D2D2D" fill="#007fff"/>
  <rect id="3a85fbdfa4d2406ca8188c07a16f3bec-ao-6" height="53.33334" width="167.77778" y="436.77773" x="985.33343" stroke="#2D2D2D" fill="#007fff"/>
  
  <rect id="3a85fbdfa4d2406ca8188c07a16f3bec-ao-8" height="63.33334" width="155.55556" y="654.55552" x="1018.66676" stroke="#2D2D2D" fill="#007fff"/>
  <rect id="3a85fbdfa4d2406ca8188c07a16f3bec-ao-9" height="33.33333" width="150.00001" y="847.88886" x="1025.33343" stroke="#2D2D2D" fill="#007fff"/>
  <rect id="3a85fbdfa4d2406ca8188c07a16f3bec-ao-10" height="32.22222" width="130.00001" y="918.99997" x="1024.22232" stroke="#2D2D2D" fill="#007fff"/>
  <rect id="3a85fbdfa4d2406ca8188c07a16f3bec-ao-11" height="42.22222" width="168.8889" y="1223.44443" x="769.77786" stroke="#2D2D2D" fill="#007fff"/>
  <rect id="3a85fbdfa4d2406ca8188c07a16f3bec-ao-12" height="27.77778" width="104.44445" y="1221.22221" x="530.88897" stroke="#2D2D2D" fill="#007fff"/>
  <rect id="3a85fbdfa4d2406ca8188c07a16f3bec-ao-13" height="30" width="98.88889" y="1220.1111" x="402.00007" stroke="#2D2D2D" fill="#007fff"/>
  <rect id="3a85fbdfa4d2406ca8188c07a16f3bec-ao-14" height="28.88889" width="143.33334" y="1057.88887" x="95.33339" stroke="#2D2D2D" fill="#007fff"/>
  <rect id="3a85fbdfa4d2406ca8188c07a16f3bec-ao-15" height="25.55556" width="106.66667" y="920.11108" x="105.33339" stroke="#2D2D2D" fill="#007fff"/>
  <rect id="3a85fbdfa4d2406ca8188c07a16f3bec-ao-16" height="33.33333" width="138.88889" y="860.11108" x="76.4445" stroke="#2D2D2D" fill="#007fff"/>
  <rect id="3a85fbdfa4d2406ca8188c07a16f3bec-ao-17" height="26.66667" width="132.22223" y="812.3333" x="80.88895" stroke="#2D2D2D" fill="#007fff"/>
  <rect id="3a85fbdfa4d2406ca8188c07a16f3bec-ao-18" height="56.66667" width="133.33334" y="720.11107" x="84.22228" stroke="#2D2D2D" fill="#007fff"/>
  <rect id="3a85fbdfa4d2406ca8188c07a16f3bec-ao-19" height="55.55556" width="141.11112" y="575.66662" x="42.00006" stroke="#2D2D2D" fill="#007fff"/>
  <rect id="3a85fbdfa4d2406ca8188c07a16f3bec-ao-20" height="54.44445" width="83.33334" y="385.66662" x="48.66672" stroke="#2D2D2D" fill="#007fff"/>
  <rect id="3a85fbdfa4d2406ca8188c07a16f3bec-ao-21" height="24.44445" width="85.55556" y="342.33328" x="47.55561" stroke="#2D2D2D" fill="#007fff"/>
 </g>
</svg>