<svg xmlns="http://www.w3.org/2000/svg" width="2560" height="1448">
 <!-- Created with Image Occlusion Enhanced -->
 <g>
  <title>Labels</title>
 </g>
 <g>
  <title>Masks</title>
  <rect id="4de08e3b20cc4d6ca390b46bc96fff94-ao-1" height="73.41772" width="111.3924" y="81.11385" x="1258.9873" stroke="#2D2D2D" fill="#007fff"/>
  <rect id="4de08e3b20cc4d6ca390b46bc96fff94-ao-2" height="79.74683" width="254.43038" y="76.05056" x="1433.67084" stroke="#2D2D2D" fill="#007fff"/>
  <rect id="4de08e3b20cc4d6ca390b46bc96fff94-ao-3" height="86.07595" width="216.45569" y="148.20246" x="1885.56957" stroke="#2D2D2D" fill="#007fff"/>
  <rect id="4de08e3b20cc4d6ca390b46bc96fff94-ao-4" height="86.07595" width="183.5443" y="283.64549" x="1994.43032" stroke="#2D2D2D" fill="#007fff"/>
  <rect id="4de08e3b20cc4d6ca390b46bc96fff94-ao-5" height="75.94937" width="148.10126" y="414.02524" x="2071.64551" stroke="#2D2D2D" fill="#007fff"/>
  <rect id="4de08e3b20cc4d6ca390b46bc96fff94-ao-6" height="86.07595" width="198.73417" y="536.81005" x="2115.94931" stroke="#2D2D2D" fill="#007fff"/>
  <rect id="4de08e3b20cc4d6ca390b46bc96fff94-ao-7" height="83.5443" width="143.03797" y="669.72144" x="2152.65817" stroke="#2D2D2D" fill="#007fff"/>
  <rect id="4de08e3b20cc4d6ca390b46bc96fff94-ao-8" height="83.5443" width="125.31645" y="778.58219" x="2146.32906" stroke="#2D2D2D" fill="#007fff"/>
  <rect id="4de08e3b20cc4d6ca390b46bc96fff94-ao-9" height="50.63291" width="192.40506" y="900.10118" x="2147.59488" stroke="#2D2D2D" fill="#007fff"/>
  <rect id="4de08e3b20cc4d6ca390b46bc96fff94-ao-10" height="49.36709" width="167.08861" y="982.37966" x="2162.78475" stroke="#2D2D2D" fill="#007fff"/>
  <rect id="4de08e3b20cc4d6ca390b46bc96fff94-ao-11" height="79.74683" width="144.3038" y="1068.45561" x="2150.12653" stroke="#2D2D2D" fill="#007fff"/>
  <rect id="4de08e3b20cc4d6ca390b46bc96fff94-ao-12" height="78.48101" width="145.56962" y="1184.9113" x="2153.92399" stroke="#2D2D2D" fill="#FF7E7E" class="qshape"/>
  <rect id="4de08e3b20cc4d6ca390b46bc96fff94-ao-13" height="65.82278" width="202.53164" y="1362.12649" x="1833.67083" stroke="#2D2D2D" fill="#007fff"/>
  <rect id="4de08e3b20cc4d6ca390b46bc96fff94-ao-14" height="78.48101" width="317.72152" y="1354.53155" x="1431.13919" stroke="#2D2D2D" fill="#007fff"/>
  <rect id="4de08e3b20cc4d6ca390b46bc96fff94-ao-15" height="70.88608" width="169.62025" y="1358.32902" x="1176.70882" stroke="#2D2D2D" fill="#007fff"/>
  <rect id="4de08e3b20cc4d6ca390b46bc96fff94-ao-16" height="44.3038" width="218.98734" y="1354.53155" x="869.11388" stroke="#2D2D2D" fill="#007fff"/>
  <rect id="4de08e3b20cc4d6ca390b46bc96fff94-ao-17" height="73.41772" width="206.32911" y="1358.32902" x="599.49363" stroke="#2D2D2D" fill="#007fff"/>
  <rect id="4de08e3b20cc4d6ca390b46bc96fff94-ao-18" height="41.77215" width="129.11392" y="1138.07586" x="231.13921" stroke="#2D2D2D" fill="#007fff"/>
  <rect id="4de08e3b20cc4d6ca390b46bc96fff94-ao-19" height="68.35443" width="141.77215" y="1024.15181" x="232.40503" stroke="#2D2D2D" fill="#007fff"/>
  <rect id="4de08e3b20cc4d6ca390b46bc96fff94-ao-20" height="67.08861" width="167.08861" y="907.69612" x="212.15187" stroke="#2D2D2D" fill="#007fff"/>
  <rect id="4de08e3b20cc4d6ca390b46bc96fff94-ao-21" height="69.62025" width="136.70886" y="789.9746" x="239.99997" stroke="#2D2D2D" fill="#007fff"/>
  <rect id="4de08e3b20cc4d6ca390b46bc96fff94-ao-22" height="146.83544" width="241.77215" y="595.03789" x="207.08857" stroke="#2D2D2D" fill="#007fff"/>
  <rect id="4de08e3b20cc4d6ca390b46bc96fff94-ao-23" height="74.68354" width="213.92405" y="476.05055" x="258.98731" stroke="#2D2D2D" fill="#007fff"/>
  <rect id="4de08e3b20cc4d6ca390b46bc96fff94-ao-24" height="73.41772" width="163.29114" y="353.26574" x="355.18984" stroke="#2D2D2D" fill="#007fff"/>
  <rect id="4de08e3b20cc4d6ca390b46bc96fff94-ao-25" height="70.88608" width="196.20253" y="245.67081" x="400.75946" stroke="#2D2D2D" fill="#007fff"/>
  <rect id="4de08e3b20cc4d6ca390b46bc96fff94-ao-26" height="73.41772" width="208.86076" y="116.55689" x="581.77211" stroke="#2D2D2D" fill="#007fff"/>
  <rect id="4de08e3b20cc4d6ca390b46bc96fff94-ao-27" height="84.81013" width="155.6962" y="76.05056" x="1015.94932" stroke="#2D2D2D" fill="#007fff"/>
 </g>
</svg>