<svg xmlns="http://www.w3.org/2000/svg" width="1849.0000000000002" height="1349">
 <!-- Created with Image Occlusion Enhanced -->
 <g>
  <title>Labels</title>
 </g>
 <g>
  <title>Masks</title>
  <rect id="5a9de06e6a0647a2a47e25630da6f0eb-ao-1" height="75.75758" width="139.39394" y="75.24235" x="429.78794" stroke="#2D2D2D" fill="#FFEBA2"/>
  <rect id="5a9de06e6a0647a2a47e25630da6f0eb-ao-2" height="87.87879" width="124.24243" y="69.18174" x="641.90916" stroke="#2D2D2D" fill="#FFEBA2"/>
  <rect id="5a9de06e6a0647a2a47e25630da6f0eb-ao-3" height="84.84849" width="136.36364" y="75.24235" x="838.87886" stroke="#2D2D2D" fill="#FFEBA2"/>
  <rect id="5a9de06e6a0647a2a47e25630da6f0eb-ao-4" height="93.9394" width="157.57576" y="72.21204" x="1196.45463" stroke="#2D2D2D" fill="#FFEBA2"/>
  <rect id="5a9de06e6a0647a2a47e25630da6f0eb-ao-5" height="42.42424" width="236.36364" y="238.87871" x="1520.69706" stroke="#2D2D2D" fill="#FFEBA2"/>
  <rect id="5a9de06e6a0647a2a47e25630da6f0eb-ao-6" height="96.9697" width="163.63637" y="323.7272" x="1572.21222" stroke="#2D2D2D" fill="#FF7E7E" class="qshape"/>
  <rect id="5a9de06e6a0647a2a47e25630da6f0eb-ao-7" height="87.87879" width="160.60607" y="463.12115" x="1626.75767" stroke="#2D2D2D" fill="#FFEBA2"/>
  <rect id="5a9de06e6a0647a2a47e25630da6f0eb-ao-8" height="72.72727" width="145.45455" y="605.54539" x="1626.75767" stroke="#2D2D2D" fill="#FFEBA2"/>
  <rect id="5a9de06e6a0647a2a47e25630da6f0eb-ao-9" height="96.9697" width="187.87879" y="735.84843" x="1626.75767" stroke="#2D2D2D" fill="#FFEBA2"/>
  <rect id="5a9de06e6a0647a2a47e25630da6f0eb-ao-10" height="81.81818" width="163.63637" y="875.24237" x="1626.75767" stroke="#2D2D2D" fill="#FFEBA2"/>
  <rect id="5a9de06e6a0647a2a47e25630da6f0eb-ao-11" height="96.9697" width="203.03031" y="999.4848" x="1526.75767" stroke="#2D2D2D" fill="#FFEBA2"/>
  <rect id="5a9de06e6a0647a2a47e25630da6f0eb-ao-12" height="87.87879" width="178.78788" y="1141.90904" x="1360.091" stroke="#2D2D2D" fill="#FFEBA2"/>
  <rect id="5a9de06e6a0647a2a47e25630da6f0eb-ao-13" height="90.90909" width="200.00001" y="1217.66662" x="1054.03038" stroke="#2D2D2D" fill="#FFEBA2"/>
  <rect id="5a9de06e6a0647a2a47e25630da6f0eb-ao-14" height="103.03031" width="163.63637" y="996.45449" x="281.30309" stroke="#2D2D2D" fill="#FFEBA2"/>
  <rect id="5a9de06e6a0647a2a47e25630da6f0eb-ao-15" height="57.57576" width="227.27273" y="866.15146" x="205.54551" stroke="#2D2D2D" fill="#FFEBA2"/>
  <rect id="5a9de06e6a0647a2a47e25630da6f0eb-ao-16" height="87.87879" width="175.75758" y="732.81812" x="266.15157" stroke="#2D2D2D" fill="#FFEBA2"/>
  <rect id="5a9de06e6a0647a2a47e25630da6f0eb-ao-17" height="106.06061" width="184.84849" y="593.42418" x="211.60612" stroke="#2D2D2D" fill="#FFEBA2"/>
  <rect id="5a9de06e6a0647a2a47e25630da6f0eb-ao-18" height="60.60606" width="227.27273" y="496.45448" x="141.90915" stroke="#2D2D2D" fill="#FFEBA2"/>
 </g>
</svg>