<svg xmlns="http://www.w3.org/2000/svg" width="1600" height="1462">
 <!-- Created with Image Occlusion Enhanced -->
 <g>
  <title>Labels</title>
 </g>
 <g>
  <title>Masks</title>
  <rect id="661c180ed5504acc89f55412bcb8c4a3-ao-1" height="39.74359" width="129.48718" y="107.23079" x="1315.38462" stroke="#2D2D2D" fill="#007fff"/>
  <rect id="661c180ed5504acc89f55412bcb8c4a3-ao-2" height="28.20513" width="106.41026" y="171.33335" x="1316.66667" stroke="#2D2D2D" fill="#007fff"/>
  <rect id="661c180ed5504acc89f55412bcb8c4a3-ao-3" height="32.05128" width="147.4359" y="254.66669" x="1316.66667" stroke="#2D2D2D" fill="#007fff"/>
  <rect id="661c180ed5504acc89f55412bcb8c4a3-ao-4" height="42.30769" width="124.35898" y="309.79489" x="1314.10257" stroke="#2D2D2D" fill="#007fff"/>
  <rect id="661c180ed5504acc89f55412bcb8c4a3-ao-5" height="26.92308" width="138.46154" y="379.02566" x="1315.38462" stroke="#2D2D2D" fill="#007fff"/>
  <rect id="661c180ed5504acc89f55412bcb8c4a3-ao-6" height="26.92308" width="141.02564" y="425.17951" x="1317.94872" stroke="#2D2D2D" fill="#007fff"/>
  <rect id="661c180ed5504acc89f55412bcb8c4a3-ao-7" height="46.15385" width="107.69231" y="466.20515" x="1315.38462" stroke="#2D2D2D" fill="#007fff"/>
  <rect id="661c180ed5504acc89f55412bcb8c4a3-ao-8" height="44.8718" width="156.41026" y="530.30772" x="1314.10257" stroke="#2D2D2D" fill="#007fff"/>
  <rect id="661c180ed5504acc89f55412bcb8c4a3-ao-9" height="46.15385" width="111.53846" y="590.56413" x="1315.38462" stroke="#2D2D2D" fill="#007fff"/>
  <rect id="661c180ed5504acc89f55412bcb8c4a3-ao-10" height="47.4359" width="155.12821" y="655.94875" x="1312.82052" stroke="#2D2D2D" fill="#007fff"/>
  <rect id="661c180ed5504acc89f55412bcb8c4a3-ao-11" height="47.4359" width="164.10257" y="720.05131" x="1330.76924" stroke="#2D2D2D" fill="#007fff"/>
  <rect id="661c180ed5504acc89f55412bcb8c4a3-ao-12" height="46.15385" width="102.5641" y="785.43593" x="1351.28206" stroke="#2D2D2D" fill="#007fff"/>
  <rect id="661c180ed5504acc89f55412bcb8c4a3-ao-13" height="46.15385" width="130.76923" y="850.82054" x="1352.56411" stroke="#2D2D2D" fill="#007fff"/>
  <rect id="661c180ed5504acc89f55412bcb8c4a3-ao-14" height="53.84615" width="130.76923" y="918.76926" x="1350.00001" stroke="#2D2D2D" fill="#007fff"/>
  <rect id="661c180ed5504acc89f55412bcb8c4a3-ao-15" height="24.35897" width="73.07692" y="1013.64106" x="1353.84616" stroke="#2D2D2D" fill="#007fff"/>
  <rect id="661c180ed5504acc89f55412bcb8c4a3-ao-16" height="51.28205" width="125.64103" y="1061.07696" x="1352.56411" stroke="#2D2D2D" fill="#007fff"/>
  <rect id="661c180ed5504acc89f55412bcb8c4a3-ao-17" height="42.30769" width="124.35898" y="1132.87183" x="1353.84616" stroke="#2D2D2D" fill="#007fff"/>
  <rect id="661c180ed5504acc89f55412bcb8c4a3-ao-18" height="42.30769" width="128.20513" y="1200.82055" x="1353.84616" stroke="#2D2D2D" fill="#007fff"/>
  <rect id="661c180ed5504acc89f55412bcb8c4a3-ao-19" height="25.64103" width="67.94872" y="1407.23081" x="834.61539" stroke="#2D2D2D" fill="#007fff"/>
  <rect id="661c180ed5504acc89f55412bcb8c4a3-ao-20" height="24.35897" width="65.38462" y="1407.23081" x="717.94872" stroke="#2D2D2D" fill="#007fff"/>
  <rect id="661c180ed5504acc89f55412bcb8c4a3-ao-21" height="21.79487" width="97.4359" y="1409.79491" x="438.46153" stroke="#2D2D2D" fill="#007fff"/>
  <rect id="661c180ed5504acc89f55412bcb8c4a3-ao-22" height="29.48718" width="148.71795" y="1284.15388" x="138.46153" stroke="#2D2D2D" fill="#007fff"/>
  <rect id="661c180ed5504acc89f55412bcb8c4a3-ao-23" height="26.92308" width="134.61539" y="1232.87183" x="147.43589" stroke="#2D2D2D" fill="#007fff"/>
  <rect id="661c180ed5504acc89f55412bcb8c4a3-ao-24" height="44.8718" width="120.51282" y="1170.05132" x="161.53845" stroke="#2D2D2D" fill="#007fff"/>
  <rect id="661c180ed5504acc89f55412bcb8c4a3-ao-25" height="41.02564" width="121.79487" y="1108.51285" x="162.8205" stroke="#2D2D2D" fill="#007fff"/>
  <rect id="661c180ed5504acc89f55412bcb8c4a3-ao-26" height="41.02564" width="148.71795" y="1043.12824" x="139.74358" stroke="#2D2D2D" fill="#007fff"/>
  <rect id="661c180ed5504acc89f55412bcb8c4a3-ao-27" height="43.58974" width="125.64103" y="981.58977" x="166.66666" stroke="#2D2D2D" fill="#007fff"/>
  <rect id="661c180ed5504acc89f55412bcb8c4a3-ao-28" height="48.71795" width="126.92308" y="918.76926" x="166.66666" stroke="#2D2D2D" fill="#007fff"/>
  <rect id="661c180ed5504acc89f55412bcb8c4a3-ao-29" height="52.5641" width="134.61539" y="852.10259" x="153.84615" stroke="#2D2D2D" fill="#007fff"/>
  <rect id="661c180ed5504acc89f55412bcb8c4a3-ao-30" height="44.8718" width="138.46154" y="794.41029" x="148.71794" stroke="#2D2D2D" fill="#007fff"/>
  <rect id="661c180ed5504acc89f55412bcb8c4a3-ao-31" height="50" width="134.61539" y="729.02567" x="170.51281" stroke="#2D2D2D" fill="#007fff"/>
  <rect id="661c180ed5504acc89f55412bcb8c4a3-ao-32" height="44.8718" width="161.53846" y="672.61541" x="144.87179" stroke="#2D2D2D" fill="#007fff"/>
  <rect id="661c180ed5504acc89f55412bcb8c4a3-ao-33" height="46.15385" width="126.92308" y="605.94874" x="182.05127" stroke="#2D2D2D" fill="#FF7E7E" class="qshape"/>
  <rect id="661c180ed5504acc89f55412bcb8c4a3-ao-34" height="30.76923" width="155.12821" y="553.38464" x="151.28204" stroke="#2D2D2D" fill="#007fff"/>
  <rect id="661c180ed5504acc89f55412bcb8c4a3-ao-35" height="25.64103" width="141.02564" y="511.07695" x="167.94871" stroke="#2D2D2D" fill="#007fff"/>
  <rect id="661c180ed5504acc89f55412bcb8c4a3-ao-36" height="33.33333" width="146.15385" y="457.23079" x="167.94871" stroke="#2D2D2D" fill="#007fff"/>
  <rect id="661c180ed5504acc89f55412bcb8c4a3-ao-37" height="29.48718" width="138.46154" y="409.7949" x="173.07692" stroke="#2D2D2D" fill="#007fff"/>
  <rect id="661c180ed5504acc89f55412bcb8c4a3-ao-38" height="48.71795" width="132.05128" y="349.53848" x="180.76922" stroke="#2D2D2D" fill="#007fff"/>
  <rect id="661c180ed5504acc89f55412bcb8c4a3-ao-39" height="46.15385" width="129.48718" y="285.43592" x="183.33333" stroke="#2D2D2D" fill="#007fff"/>
  <rect id="661c180ed5504acc89f55412bcb8c4a3-ao-40" height="30.76923" width="126.92308" y="221.33335" x="183.33333" stroke="#2D2D2D" fill="#007fff"/>
  <rect id="661c180ed5504acc89f55412bcb8c4a3-ao-41" height="44.8718" width="126.92308" y="154.66669" x="187.17948" stroke="#2D2D2D" fill="#007fff"/>
  <rect id="661c180ed5504acc89f55412bcb8c4a3-ao-42" height="28.20513" width="119.23077" y="104.66669" x="197.43589" stroke="#2D2D2D" fill="#007fff"/>
 </g>
</svg>