<svg xmlns="http://www.w3.org/2000/svg" width="1600" height="895.0000000000001">
 <!-- Created with Image Occlusion Enhanced -->
 <g>
  <title>Labels</title>
 </g>
 <g>
  <title>Masks</title>
  <rect id="79ef1bcd533048efbaf598339f83ba20-ao-1" height="28.125" width="188.28125" y="87.81252" x="734.375" stroke="#2D2D2D" fill="#007fff"/>
  <rect id="79ef1bcd533048efbaf598339f83ba20-ao-2" height="50" width="115.625" y="83.90627" x="974.21875" stroke="#2D2D2D" fill="#007fff"/>
  <rect id="79ef1bcd533048efbaf598339f83ba20-ao-3" height="51.5625" width="121.09375" y="137.03127" x="1156.25001" stroke="#2D2D2D" fill="#007fff"/>
  <rect id="79ef1bcd533048efbaf598339f83ba20-ao-4" height="58.59375" width="113.28125" y="302.65628" x="1320.31251" stroke="#2D2D2D" fill="#007fff"/>
  <rect id="79ef1bcd533048efbaf598339f83ba20-ao-5" height="21.875" width="93.75" y="380.00003" x="1317.18751" stroke="#2D2D2D" fill="#007fff"/>
  <rect id="79ef1bcd533048efbaf598339f83ba20-ao-6" height="28.125" width="77.34375" y="426.87503" x="1316.40626" stroke="#2D2D2D" fill="#007fff"/>
  <rect id="79ef1bcd533048efbaf598339f83ba20-ao-7" height="48.4375" width="117.1875" y="474.53128" x="1313.28126" stroke="#2D2D2D" fill="#007fff"/>
  
  <rect id="79ef1bcd533048efbaf598339f83ba20-ao-9" height="32.8125" width="107.8125" y="611.25003" x="1311.71876" stroke="#2D2D2D" fill="#007fff"/>
  <rect id="79ef1bcd533048efbaf598339f83ba20-ao-10" height="44.53125" width="116.40625" y="658.90628" x="1288.28126" stroke="#2D2D2D" fill="#007fff"/>
  <rect id="79ef1bcd533048efbaf598339f83ba20-ao-11" height="34.375" width="80.46875" y="739.37503" x="1256.25001" stroke="#2D2D2D" fill="#007fff"/>
  <rect id="79ef1bcd533048efbaf598339f83ba20-ao-12" height="50" width="182.8125" y="792.50004" x="1189.84376" stroke="#2D2D2D" fill="#007fff"/>
  <rect id="79ef1bcd533048efbaf598339f83ba20-ao-13" height="64.84375" width="132.8125" y="713.59378" x="239.84374" stroke="#2D2D2D" fill="#007fff"/>
  <rect id="79ef1bcd533048efbaf598339f83ba20-ao-14" height="50.78125" width="122.65625" y="654.21878" x="228.12499" stroke="#2D2D2D" fill="#007fff"/>
  <rect id="79ef1bcd533048efbaf598339f83ba20-ao-15" height="46.875" width="136.71875" y="587.03128" x="189.06249" stroke="#2D2D2D" fill="#007fff"/>
  <rect id="79ef1bcd533048efbaf598339f83ba20-ao-16" height="47.65625" width="122.65625" y="519.06253" x="203.12499" stroke="#2D2D2D" fill="#007fff"/>
  <rect id="79ef1bcd533048efbaf598339f83ba20-ao-17" height="25.78125" width="129.6875" y="474.53128" x="192.96874" stroke="#2D2D2D" fill="#007fff"/>
  <rect id="79ef1bcd533048efbaf598339f83ba20-ao-18" height="26.5625" width="143.75" y="424.53128" x="178.90624" stroke="#2D2D2D" fill="#007fff"/>
  <rect id="79ef1bcd533048efbaf598339f83ba20-ao-19" height="26.5625" width="119.53125" y="380.00003" x="204.68749" stroke="#2D2D2D" fill="#007fff"/>
  <rect id="79ef1bcd533048efbaf598339f83ba20-ao-20" height="58.59375" width="126.5625" y="297.96878" x="195.31249" stroke="#2D2D2D" fill="#007fff"/>
  <rect id="79ef1bcd533048efbaf598339f83ba20-ao-21" height="53.125" width="119.53125" y="137.81252" x="384.37499" stroke="#2D2D2D" fill="#007fff"/>
  <rect id="79ef1bcd533048efbaf598339f83ba20-ao-22" height="50" width="103.125" y="86.25002" x="570.3125" stroke="#2D2D2D" fill="#007fff"/>
 </g>
</svg>