<svg xmlns="http://www.w3.org/2000/svg" width="1408.9999999999998" height="1348.9999999999998">
 <!-- Created with Image Occlusion Enhanced -->
 <g>
  <title>Labels</title>
 </g>
 <g>
  <title>Masks</title>
  <rect id="9139b97315f941719783388f520c9900-ao-1" height="50.58823" width="232.94117" y="55.70585" x="395.70585" stroke="#2D2D2D" fill="#007fff"/>
  <rect id="9139b97315f941719783388f520c9900-ao-2" height="49.41176" width="144.70588" y="55.70585" x="649.82349" stroke="#2D2D2D" fill="#007fff"/>
  <rect id="9139b97315f941719783388f520c9900-ao-3" height="51.7647" width="140" y="55.70585" x="822.76466" stroke="#2D2D2D" fill="#007fff"/>
  <rect id="9139b97315f941719783388f520c9900-ao-4" height="68.23529" width="142.35294" y="294.52938" x="1155.70583" stroke="#2D2D2D" fill="#007fff"/>
  <rect id="9139b97315f941719783388f520c9900-ao-5" height="64.70588" width="142.35294" y="385.11761" x="1181.58818" stroke="#2D2D2D" fill="#007fff"/>
  <rect id="9139b97315f941719783388f520c9900-ao-6" height="55.29412" width="149.41176" y="466.29408" x="1180.41171" stroke="#2D2D2D" fill="#007fff"/>
  <rect id="9139b97315f941719783388f520c9900-ao-7" height="54.11765" width="130.58823" y="546.29408" x="1182.76465" stroke="#2D2D2D" fill="#007fff"/>
  <rect id="9139b97315f941719783388f520c9900-ao-8" height="56.47059" width="175.29411" y="612.17643" x="1188.64701" stroke="#2D2D2D" fill="#007fff"/>
  <rect id="9139b97315f941719783388f520c9900-ao-9" height="50.58823" width="184.70588" y="707.47054" x="1180.41171" stroke="#2D2D2D" fill="#007fff"/>
  <rect id="9139b97315f941719783388f520c9900-ao-10" height="50.58823" width="150.58823" y="806.29407" x="1185.11759" stroke="#2D2D2D" fill="#007fff"/>
  <rect id="9139b97315f941719783388f520c9900-ao-11" height="57.64706" width="192.94117" y="885.1176" x="1186.29406" stroke="#2D2D2D" fill="#007fff"/>
  <rect id="9139b97315f941719783388f520c9900-ao-12" height="50.58823" width="177.64706" y="962.76466" x="1188.64701" stroke="#2D2D2D" fill="#007fff"/>
  <rect id="9139b97315f941719783388f520c9900-ao-13" height="43.52941" width="111.7647" y="1033.35289" x="1183.94112" stroke="#2D2D2D" fill="#007fff"/>
  <rect id="9139b97315f941719783388f520c9900-ao-14" height="49.41176" width="141.17647" y="1100.41171" x="1185.11759" stroke="#2D2D2D" fill="#007fff"/>
  <rect id="9139b97315f941719783388f520c9900-ao-15" height="34.11765" width="115.29412" y="1168.64701" x="1185.11759" stroke="#2D2D2D" fill="#007fff"/>
  <rect id="9139b97315f941719783388f520c9900-ao-16" height="28.23529" width="140" y="1238.05877" x="43.94115" stroke="#2D2D2D" fill="#007fff"/>
  <rect id="9139b97315f941719783388f520c9900-ao-17" height="43.52941" width="138.82353" y="1100.41171" x="50.99997" stroke="#2D2D2D" fill="#007fff"/>
  <rect id="9139b97315f941719783388f520c9900-ao-18" height="51.7647" width="116.47059" y="1018.05877" x="65.11762" stroke="#2D2D2D" fill="#007fff"/>
  <rect id="9139b97315f941719783388f520c9900-ao-19" height="56.47059" width="156.47059" y="936.8823" x="30.99997" stroke="#2D2D2D" fill="#007fff"/>
  <rect id="9139b97315f941719783388f520c9900-ao-20" height="60" width="148.23529" y="753.3529" x="40.41174" stroke="#2D2D2D" fill="#007fff"/>
  <rect id="9139b97315f941719783388f520c9900-ao-21" height="24.70588" width="145.88235" y="707.47054" x="41.58821" stroke="#2D2D2D" fill="#007fff"/>
  <rect id="9139b97315f941719783388f520c9900-ao-22" height="44.70588" width="120" y="635.70584" x="68.64703" stroke="#2D2D2D" fill="#007fff"/>
  <rect id="9139b97315f941719783388f520c9900-ao-23" height="40" width="120" y="534.52937" x="62.76468" stroke="#2D2D2D" fill="#007fff"/>
  <rect id="9139b97315f941719783388f520c9900-ao-24" height="45.88235" width="114.11764" y="470.99996" x="80.41173" stroke="#2D2D2D" fill="#007fff"/>
  <rect id="9139b97315f941719783388f520c9900-ao-25" height="47.05882" width="92.94117" y="400.41173" x="95.70585" stroke="#2D2D2D" fill="#007fff"/>
  <rect id="9139b97315f941719783388f520c9900-ao-26" height="41.17647" width="136.47059" y="333.35291" x="50.99997" stroke="#2D2D2D" fill="#FF7E7E" class="qshape"/>
  <rect id="9139b97315f941719783388f520c9900-ao-27" height="54.11765" width="143.52941" y="259.23526" x="74.52938" stroke="#2D2D2D" fill="#007fff"/>
 </g>
</svg>