<svg xmlns="http://www.w3.org/2000/svg" width="1286" height="1680">
 <!-- Created with Image Occlusion Enhanced -->
 <g>
  <title>Labels</title>
 </g>
 <g>
  <title>Masks</title>
  <rect id="91d233e3aaf743b9984a7ddc2b5ab36d-ao-1" height="19.11765" width="104.41177" y="94.99993" x="1066.52942" stroke="#2D2D2D" fill="#007fff"/>
  <rect id="91d233e3aaf743b9984a7ddc2b5ab36d-ao-2" height="66.17647" width="161.76471" y="140.58817" x="1063.58824" stroke="#2D2D2D" fill="#007fff"/>
  <rect id="91d233e3aaf743b9984a7ddc2b5ab36d-ao-3" height="26.47059" width="151.47059" y="328.82346" x="1063.58824" stroke="#2D2D2D" fill="#007fff"/>
  <rect id="91d233e3aaf743b9984a7ddc2b5ab36d-ao-4" height="23.52941" width="126.47059" y="378.82347" x="1066.52942" stroke="#2D2D2D" fill="#007fff"/>
  <rect id="91d233e3aaf743b9984a7ddc2b5ab36d-ao-5" height="25" width="132.35294" y="422.94111" x="1066.52942" stroke="#2D2D2D" fill="#007fff"/>
  <rect id="91d233e3aaf743b9984a7ddc2b5ab36d-ao-6" height="42.64706" width="135.29412" y="469.99994" x="1065.05883" stroke="#2D2D2D" fill="#007fff"/>
  <rect id="91d233e3aaf743b9984a7ddc2b5ab36d-ao-7" height="26.47059" width="142.64706" y="540.58817" x="1063.58824" stroke="#2D2D2D" fill="#FF7E7E" class="qshape"/>
  <rect id="91d233e3aaf743b9984a7ddc2b5ab36d-ao-8" height="52.94118" width="152.94118" y="581.76465" x="1066.52942" stroke="#2D2D2D" fill="#007fff"/>
  <rect id="91d233e3aaf743b9984a7ddc2b5ab36d-ao-9" height="27.94118" width="157.35294" y="652.35288" x="1063.58824" stroke="#2D2D2D" fill="#007fff"/>
  <rect id="91d233e3aaf743b9984a7ddc2b5ab36d-ao-10" height="48.52941" width="148.52942" y="697.94112" x="1063.58824" stroke="#2D2D2D" fill="#007fff"/>
  <rect id="91d233e3aaf743b9984a7ddc2b5ab36d-ao-11" height="23.52941" width="116.17647" y="769.99994" x="1065.05883" stroke="#2D2D2D" fill="#007fff"/>
  <rect id="91d233e3aaf743b9984a7ddc2b5ab36d-ao-12" height="27.94118" width="172.05883" y="821.47053" x="1063.58824" stroke="#2D2D2D" fill="#007fff"/>
  <rect id="91d233e3aaf743b9984a7ddc2b5ab36d-ao-13" height="20.58824" width="163.2353" y="871.47054" x="1065.05883" stroke="#2D2D2D" fill="#007fff"/>
  <rect id="91d233e3aaf743b9984a7ddc2b5ab36d-ao-14" height="47.05882" width="154.41177" y="922.94112" x="1063.58824" stroke="#2D2D2D" fill="#007fff"/>
  <rect id="91d233e3aaf743b9984a7ddc2b5ab36d-ao-15" height="48.52941" width="113.2353" y="1143.52936" x="1065.05883" stroke="#2D2D2D" fill="#007fff"/>
  <rect id="91d233e3aaf743b9984a7ddc2b5ab36d-ao-16" height="25" width="77.94118" y="1228.82348" x="1065.05883" stroke="#2D2D2D" fill="#007fff"/>
  <rect id="91d233e3aaf743b9984a7ddc2b5ab36d-ao-17" height="27.94118" width="75" y="1281.76466" x="1066.52942" stroke="#2D2D2D" fill="#007fff"/>
  <rect id="91d233e3aaf743b9984a7ddc2b5ab36d-ao-18" height="44.11765" width="114.70588" y="1337.64702" x="1062.11766" stroke="#2D2D2D" fill="#007fff"/>
  <rect id="91d233e3aaf743b9984a7ddc2b5ab36d-ao-19" height="55.88235" width="104.41177" y="1374.41172" x="176.82352" stroke="#2D2D2D" fill="#007fff"/>
  <rect id="91d233e3aaf743b9984a7ddc2b5ab36d-ao-20" height="57.35294" width="151.47059" y="1222.94113" x="132.70587" stroke="#2D2D2D" fill="#007fff"/>
  <rect id="91d233e3aaf743b9984a7ddc2b5ab36d-ao-21" height="22.05882" width="125" y="1164.1176" x="147.41175" stroke="#2D2D2D" fill="#007fff"/>
  <rect id="91d233e3aaf743b9984a7ddc2b5ab36d-ao-22" height="52.94118" width="113.2353" y="974.41171" x="100.35293" stroke="#2D2D2D" fill="#007fff"/>
  <rect id="91d233e3aaf743b9984a7ddc2b5ab36d-ao-23" height="41.17647" width="91.17647" y="892.05877" x="112.11764" stroke="#2D2D2D" fill="#007fff"/>
  <rect id="91d233e3aaf743b9984a7ddc2b5ab36d-ao-24" height="20.58824" width="142.64706" y="819.99995" x="57.70587" stroke="#2D2D2D" fill="#007fff"/>
  <rect id="91d233e3aaf743b9984a7ddc2b5ab36d-ao-25" height="48.52941" width="108.82353" y="727.35288" x="92.99999" stroke="#2D2D2D" fill="#007fff"/>
  <rect id="91d233e3aaf743b9984a7ddc2b5ab36d-ao-26" height="50" width="113.2353" y="655.29406" x="97.41175" stroke="#2D2D2D" fill="#007fff"/>
  <rect id="91d233e3aaf743b9984a7ddc2b5ab36d-ao-27" height="44.11765" width="116.17647" y="586.17641" x="87.11763" stroke="#2D2D2D" fill="#007fff"/>
  <rect id="91d233e3aaf743b9984a7ddc2b5ab36d-ao-28" height="19.11765" width="129.41177" y="546.47053" x="72.41175" stroke="#2D2D2D" fill="#007fff"/>
  <rect id="91d233e3aaf743b9984a7ddc2b5ab36d-ao-29" height="25" width="67.64706" y="503.82347" x="138.58822" stroke="#2D2D2D" fill="#007fff"/>
  <rect id="91d233e3aaf743b9984a7ddc2b5ab36d-ao-30" height="42.64706" width="92.64706" y="436.17641" x="120.94116" stroke="#2D2D2D" fill="#007fff"/>
  <rect id="91d233e3aaf743b9984a7ddc2b5ab36d-ao-31" height="29.41177" width="130.88236" y="386.17641" x="67.99999" stroke="#2D2D2D" fill="#007fff"/>
  <rect id="91d233e3aaf743b9984a7ddc2b5ab36d-ao-32" height="44.11765" width="176.47059" y="319.99993" x="26.82352" stroke="#2D2D2D" fill="#007fff"/>
  <rect id="91d233e3aaf743b9984a7ddc2b5ab36d-ao-33" height="23.52941" width="157.35294" y="272.94111" x="41.5294" stroke="#2D2D2D" fill="#007fff"/>
  <rect id="91d233e3aaf743b9984a7ddc2b5ab36d-ao-34" height="26.47059" width="58.82353" y="197.94111" x="142.99999" stroke="#2D2D2D" fill="#007fff"/>
  <rect id="91d233e3aaf743b9984a7ddc2b5ab36d-ao-35" height="32.35294" width="82.35294" y="124.41169" x="122.41175" stroke="#2D2D2D" fill="#007fff"/>
 </g>
</svg>