<svg xmlns="http://www.w3.org/2000/svg" width="1820" height="1690">
 <!-- Created with Image Occlusion Enhanced -->
 <g>
  <title>Labels</title>
 </g>
 <g>
  <title>Masks</title>
  <rect id="967930b8249d4fffacb27278742f4427-ao-1" height="92.72727" width="156.36364" y="313.63636" x="112.72727" stroke="#2D2D2D" fill="#FFEBA2"/>
  <rect id="967930b8249d4fffacb27278742f4427-ao-2" height="96.36364" width="90.90909" y="688.18182" x="176.36364" stroke="#2D2D2D" fill="#FFEBA2"/>
  <rect id="967930b8249d4fffacb27278742f4427-ao-3" height="69.09091" width="156.36364" y="840.90909" x="118.18182" stroke="#2D2D2D" fill="#FFEBA2"/>
  <rect id="967930b8249d4fffacb27278742f4427-ao-4" height="67.27273" width="158.18182" y="920.90909" x="1052.72727" stroke="#2D2D2D" fill="#FFEBA2"/>
  <rect id="967930b8249d4fffacb27278742f4427-ao-5" height="109.09091" width="170.90909" y="1215.45455" x="1525.45455" stroke="#2D2D2D" fill="#FFEBA2"/>
  <rect id="967930b8249d4fffacb27278742f4427-ao-6" height="85.45455" width="187.27273" y="1457.27273" x="1207.27273" stroke="#2D2D2D" fill="#FF7E7E" class="qshape"/>
  <rect id="967930b8249d4fffacb27278742f4427-ao-7" height="85.45455" width="200" y="1448.18182" x="512.72727" stroke="#2D2D2D" fill="#FFEBA2"/>
  <g id="967930b8249d4fffacb27278742f4427-ao-8">
   <rect height="70.90909" width="143.63636" y="1331.81818" x="578.18182" stroke="#2D2D2D" fill="#FFEBA2"/>
   <rect height="69.09091" width="176.36364" y="1273.63636" x="358.18182" stroke="#2D2D2D" fill="#FFEBA2"/>
  </g>
  <rect id="967930b8249d4fffacb27278742f4427-ao-9" height="69.09091" width="174.54545" y="975.45455" x="96.36364" stroke="#2D2D2D" fill="#FFEBA2"/>
  <rect id="967930b8249d4fffacb27278742f4427-ao-10" height="52.72727" width="121.81818" y="1200.90909" x="218.18182" stroke="#2D2D2D" fill="#FFEBA2"/>
  <rect id="967930b8249d4fffacb27278742f4427-ao-11" height="60" width="94.54545" y="682.72727" x="692.72727" stroke="#2D2D2D" fill="#FFEBA2"/>
  <rect id="967930b8249d4fffacb27278742f4427-ao-12" height="96.36364" width="207.27273" y="677.27273" x="834.54545" stroke="#2D2D2D" fill="#FFEBA2"/>
  <rect id="967930b8249d4fffacb27278742f4427-ao-13" height="70.90909" width="134.54545" y="682.72727" x="1074.54545" stroke="#2D2D2D" fill="#FFEBA2"/>
  <rect id="967930b8249d4fffacb27278742f4427-ao-14" height="72.72727" width="138.18182" y="802.72727" x="1060" stroke="#2D2D2D" fill="#FFEBA2"/>
  <rect id="967930b8249d4fffacb27278742f4427-ao-15" height="101.81818" width="156.36364" y="604.54545" x="1529.09091" stroke="#2D2D2D" fill="#FFEBA2"/>
  <rect id="967930b8249d4fffacb27278742f4427-ao-16" height="107.27273" width="178.18182" y="133.63636" x="1556.36364" stroke="#2D2D2D" fill="#FFEBA2"/>
  <rect id="967930b8249d4fffacb27278742f4427-ao-17" height="63.63636" width="161.81818" y="188.18182" x="914.54545" stroke="#2D2D2D" fill="#FFEBA2"/>
  <rect id="967930b8249d4fffacb27278742f4427-ao-18" height="63.63636" width="152.72727" y="195.45455" x="718.18182" stroke="#2D2D2D" fill="#FFEBA2"/>
  <rect id="967930b8249d4fffacb27278742f4427-ao-19" height="69.09091" width="203.63636" y="155.45455" x="481.81818" stroke="#2D2D2D" fill="#FFEBA2"/>
  <rect id="967930b8249d4fffacb27278742f4427-ao-20" height="63.63636" width="180" y="911.81818" x="792.72727" stroke="#2D2D2D" fill="#FFEBA2"/>
  <rect id="967930b8249d4fffacb27278742f4427-ao-21" height="72.72727" width="125.45455" y="1440.90909" x="1067.27273" stroke="#2D2D2D" fill="#FFEBA2"/>
 </g>
</svg>