<svg xmlns="http://www.w3.org/2000/svg" width="1600" height="1176">
 <!-- Created with Image Occlusion Enhanced -->
 <g>
  <title>Labels</title>
 </g>
 <g>
  <title>Masks</title>
  <rect id="99d5d896bf2348a9b51364225fe5da07-ao-1" height="53.60825" width="162.8866" y="99.25776" x="1169.07217" stroke="#2D2D2D" fill="#007fff"/>
  <rect id="99d5d896bf2348a9b51364225fe5da07-ao-2" height="44.3299" width="150.51547" y="175.54643" x="1216.49486" stroke="#2D2D2D" fill="#007fff"/>
  <rect id="99d5d896bf2348a9b51364225fe5da07-ao-3" height="32.98969" width="138.14433" y="242.55674" x="1265.97939" stroke="#2D2D2D" fill="#007fff"/>
  <rect id="99d5d896bf2348a9b51364225fe5da07-ao-4" height="26.80412" width="102.06186" y="298.22684" x="1293.81445" stroke="#2D2D2D" fill="#007fff"/>
  <rect id="99d5d896bf2348a9b51364225fe5da07-ao-5" height="27.83505" width="128.86598" y="351.83509" x="1316.49486" stroke="#2D2D2D" fill="#007fff"/>
  <rect id="99d5d896bf2348a9b51364225fe5da07-ao-6" height="47.42268" width="124.74227" y="404.41241" x="1340.2062" stroke="#2D2D2D" fill="#007fff"/>
  <rect id="99d5d896bf2348a9b51364225fe5da07-ao-7" height="55.6701" width="101.03093" y="470.39179" x="1361.85568" stroke="#2D2D2D" fill="#007fff"/>
  <rect id="99d5d896bf2348a9b51364225fe5da07-ao-8" height="52.57732" width="82.47423" y="543.58767" x="1358.7629" stroke="#2D2D2D" fill="#007fff"/>
  <rect id="99d5d896bf2348a9b51364225fe5da07-ao-9" height="119.58763" width="109.27835" y="627.09283" x="1362.88661" stroke="#2D2D2D" fill="#007fff"/>
  <rect id="99d5d896bf2348a9b51364225fe5da07-ao-10" height="57.73196" width="101.03093" y="769.36087" x="1362.88661" stroke="#2D2D2D" fill="#007fff"/>
  
  <rect id="99d5d896bf2348a9b51364225fe5da07-ao-12" height="59.79382" width="155.67011" y="1094.10315" x="1214.433" stroke="#2D2D2D" fill="#007fff"/>
  <rect id="99d5d896bf2348a9b51364225fe5da07-ao-13" height="31.95876" width="81.4433" y="1097.19593" x="1028.86599" stroke="#2D2D2D" fill="#007fff"/>
  <rect id="99d5d896bf2348a9b51364225fe5da07-ao-14" height="47.42268" width="100" y="1101.31965" x="856.70103" stroke="#2D2D2D" fill="#007fff"/>
  <rect id="99d5d896bf2348a9b51364225fe5da07-ao-15" height="49.48454" width="111.34021" y="1098.22686" x="671.13402" stroke="#2D2D2D" fill="#007fff"/>
  <rect id="99d5d896bf2348a9b51364225fe5da07-ao-16" height="54.63918" width="175.25774" y="1094.10315" x="434.02061" stroke="#2D2D2D" fill="#007fff"/>
  <rect id="99d5d896bf2348a9b51364225fe5da07-ao-17" height="27.83505" width="104.12371" y="930.18562" x="162.88658" stroke="#2D2D2D" fill="#007fff"/>
  <rect id="99d5d896bf2348a9b51364225fe5da07-ao-18" height="47.42268" width="134.02062" y="850.80418" x="142.26802" stroke="#2D2D2D" fill="#007fff"/>
  <rect id="99d5d896bf2348a9b51364225fe5da07-ao-19" height="83.50516" width="107.2165" y="741.52582" x="170.10308" stroke="#2D2D2D" fill="#007fff"/>
  <rect id="99d5d896bf2348a9b51364225fe5da07-ao-20" height="52.57732" width="120.61856" y="669.36087" x="146.39174" stroke="#2D2D2D" fill="#007fff"/>
  <rect id="99d5d896bf2348a9b51364225fe5da07-ao-21" height="48.45361" width="80.41237" y="593.07221" x="194.84535" stroke="#2D2D2D" fill="#007fff"/>
  <rect id="99d5d896bf2348a9b51364225fe5da07-ao-22" height="43.29897" width="162.8866" y="513.69077" x="134.0206" stroke="#2D2D2D" fill="#007fff"/>
  <rect id="99d5d896bf2348a9b51364225fe5da07-ao-23" height="42.26804" width="138.14433" y="441.52581" x="152.5773" stroke="#2D2D2D" fill="#007fff"/>
  <rect id="99d5d896bf2348a9b51364225fe5da07-ao-24" height="42.26804" width="77.31959" y="371.42272" x="216.49483" stroke="#2D2D2D" fill="#007fff"/>
  <rect id="99d5d896bf2348a9b51364225fe5da07-ao-25" height="48.45361" width="123.71134" y="251.83509" x="240.20617" stroke="#2D2D2D" fill="#007fff"/>
  <rect id="99d5d896bf2348a9b51364225fe5da07-ao-26" height="41.23711" width="103.09279" y="173.48457" x="309.27834" stroke="#2D2D2D" fill="#007fff"/>
  <rect id="99d5d896bf2348a9b51364225fe5da07-ao-27" height="62.8866" width="135.05155" y="91.01034" x="328.86597" stroke="#2D2D2D" fill="#007fff"/>
 </g>
</svg>