<svg version="1.1" id="Layer_1" xmlns="http://www.w3.org/2000/svg" xmlns:xlink="http://www.w3.org/1999/xlink" x="0px" y="0px"
	 width="100%" viewBox="0 0 1025 1025" enable-background="new 0 0 1025 1025" xml:space="preserve">
<path fill="none" opacity="1.000000" stroke="none" 
	d="
M608.000000,1026.000000 
	C405.333344,1026.000000 203.166672,1026.000000 1.000000,1026.000000 
	C1.000000,684.333313 1.000000,342.666656 1.000000,1.000000 
	C342.666656,1.000000 684.333313,1.000000 1026.000000,1.000000 
	C1026.000000,342.666656 1026.000000,684.333313 1026.000000,1026.000000 
	C886.833313,1026.000000 747.666687,1026.000000 608.000000,1026.000000 
M136.350708,993.246216 
	C135.678314,994.641235 135.005920,996.036255 134.333557,997.431274 
	C136.304337,997.953552 138.274994,998.932800 140.245895,998.933350 
	C388.887390,999.002014 637.528870,998.999084 886.170410,998.987793 
	C887.922363,998.987732 889.674377,998.822449 892.330872,998.688721 
	C869.406250,956.601196 846.901184,915.283936 823.728638,872.741211 
	C872.673767,872.741211 920.157410,872.741211 968.677856,872.741211 
	C967.414185,870.286560 966.736633,868.838440 965.945679,867.455139 
	C960.423279,857.797180 954.707764,848.245117 949.381775,838.480530 
	C942.591003,826.030457 936.188965,813.368835 929.458679,800.885071 
	C926.273132,794.976257 922.545532,789.359680 919.359253,783.451233 
	C912.627441,770.968384 906.208130,758.316406 899.434570,745.856689 
	C894.279541,736.374268 888.613708,727.169434 883.466736,717.682922 
	C876.307922,704.488525 869.532593,691.085999 862.379883,677.888123 
	C857.553345,668.982483 852.200745,660.362061 847.367065,651.460083 
	C840.599670,638.997009 834.214600,626.326172 827.441162,613.866455 
	C822.286316,604.384033 816.618530,595.180176 811.471497,585.693665 
	C804.312683,572.499207 797.538513,559.096069 790.385803,545.898193 
	C785.559326,536.992493 780.205505,528.372864 775.371948,519.470825 
	C768.604736,507.007568 762.181885,494.357574 755.451294,481.873932 
	C752.265625,475.965179 748.540161,470.347412 745.353699,464.439026 
	C738.621582,451.956268 732.162170,439.326477 725.430908,426.843231 
	C722.244812,420.934570 718.525085,415.313721 715.338318,409.405457 
	C708.605530,396.923126 702.142151,384.295471 695.410339,371.812622 
	C692.223938,365.904114 688.510132,360.280060 685.322998,354.371887 
	C678.589539,341.889954 672.123840,329.263550 665.388611,316.782593 
	C662.279419,311.020966 658.617371,305.557312 655.517151,299.791290 
	C648.487061,286.716156 641.726746,273.495911 634.696777,260.420715 
	C631.831970,255.092331 628.363159,250.088715 625.498535,244.760254 
	C618.469055,231.684631 611.671082,218.484787 604.702942,205.375854 
	C599.268005,195.151535 593.751770,184.969894 588.188904,174.814590 
	C587.071716,172.775055 585.581848,170.939651 584.125854,168.808243 
	C581.801575,173.087616 579.785156,176.624817 577.933105,180.246048 
	C573.908142,188.116241 570.102844,196.101578 565.952026,203.903824 
	C562.101440,211.141632 557.800171,218.138840 553.909912,225.356522 
	C548.196655,235.956314 542.736450,246.692307 537.050049,257.306854 
	C531.146423,268.326843 525.158569,279.302704 519.103699,290.240417 
	C512.334167,302.469330 505.331573,314.570282 498.644043,326.843323 
	C491.347504,340.234039 484.339996,353.781921 477.123657,367.216797 
	C471.207886,378.230316 465.227875,389.210297 459.171814,400.147278 
	C452.481171,412.230286 445.552429,424.182617 438.945160,436.310486 
	C431.570343,449.847321 424.492615,463.545685 417.187439,477.120941 
	C411.185089,488.275238 405.084930,499.377625 398.944366,510.456635 
	C392.168121,522.682678 385.178162,534.791504 378.498352,547.069458 
	C371.289856,560.319275 364.444275,573.766479 357.233612,587.015076 
	C350.235260,599.873596 342.869232,612.531799 335.859070,625.384094 
	C328.874359,638.189697 322.237152,651.184875 315.252228,663.990356 
	C308.241943,676.842468 300.884857,689.505493 293.874695,702.357666 
	C286.889954,715.163330 280.207275,728.133423 273.280396,740.971069 
	C267.187073,752.263855 261.002655,763.508850 254.740555,774.709045 
	C249.253387,784.523254 243.288193,794.086060 238.197723,804.097351 
	C236.463470,807.507996 234.578186,808.057129 231.365799,808.043640 
	C211.034897,807.958008 190.703430,808.007141 170.372177,807.987244 
	C168.764465,807.985718 167.156967,807.798523 165.242783,807.678345 
	C165.813995,806.034973 166.067230,804.763733 166.660751,803.678528 
	C180.293686,778.752258 193.982407,753.856567 207.622513,728.934204 
	C230.724258,686.724243 253.827148,644.514954 276.877045,602.276672 
	C293.854828,571.165344 310.713654,539.989136 327.688843,508.876343 
	C350.735413,466.635834 373.866364,424.441315 396.915710,382.202271 
	C413.892670,351.091156 430.785980,319.934357 447.736633,288.808838 
	C465.323944,256.514160 482.914398,224.221146 500.547119,191.951218 
	C507.136200,179.892410 513.907959,167.933334 520.489746,155.870575 
	C529.454529,139.440491 538.332397,122.962898 547.187988,106.473717 
	C547.762939,105.403244 548.379395,103.863976 548.029114,102.880165 
	C546.995178,99.976723 545.601807,97.180428 544.142334,94.452820 
	C535.077515,77.511177 525.984253,60.584572 516.821167,43.695957 
	C515.546082,41.345875 513.834961,39.232418 511.983551,36.505486 
	C499.372223,59.512024 487.107880,81.663971 475.059784,103.932938 
	C464.924438,122.666512 455.080994,141.557785 445.030304,160.337479 
	C439.131226,171.359924 433.079590,182.300705 427.096558,193.278214 
	C421.113556,204.255722 415.187622,215.264801 409.132324,226.202286 
	C402.362244,238.430832 395.357697,250.530594 388.670227,262.803558 
	C381.373657,276.194397 374.368500,289.743683 367.152100,303.178650 
	C361.236420,314.192078 355.255219,325.171265 349.197205,336.106995 
	C342.504211,348.188965 335.569244,360.138000 328.961975,372.266052 
	C321.587341,385.802856 314.515564,399.504303 307.212799,413.080750 
	C301.212311,424.236176 295.059326,435.309448 288.987549,446.426636 
	C282.994934,457.398865 277.019440,468.380463 271.036438,479.357941 
	C265.053406,490.335419 259.070374,501.312927 253.087372,512.290405 
	C247.104355,523.267883 241.178345,534.276978 235.123169,545.214478 
	C228.353287,557.443176 221.349304,569.543213 214.661835,581.816284 
	C207.365265,595.207092 200.367828,608.760498 193.140411,622.189514 
	C187.137451,633.343262 181.034500,644.443970 174.894714,655.523193 
	C168.119080,667.749817 161.141174,679.865479 154.452789,692.139221 
	C147.156235,705.528992 140.213242,719.111816 132.892181,732.487854 
	C124.426208,747.955811 115.628639,763.242004 107.131721,778.693298 
	C93.387482,803.686646 79.752533,828.740234 66.114525,853.791809 
	C62.934429,859.633301 59.927452,865.569092 56.087467,872.899658 
	C104.933662,872.899658 152.202225,872.899658 200.415146,872.899658 
	C194.189316,884.874512 188.734558,895.731506 182.944687,906.406738 
	C176.281006,918.693054 169.274826,930.793030 162.503494,943.021667 
	C156.366852,954.104126 150.292175,965.221863 144.301880,976.383911 
	C142.092377,980.501099 140.202133,984.789612 138.005493,989.670410 
	C137.655518,990.742859 137.305542,991.815369 136.350708,993.246216 
z"/>
<path fill="#0AA7B9" opacity="1.000000" stroke="none" 
	d="
M136.955566,992.887817 
	C137.305542,991.815369 137.655518,990.742859 138.396393,989.216736 
	C140.509094,986.804260 142.662903,985.082642 143.887894,982.851135 
	C162.388657,949.148438 180.805893,915.399719 199.150177,881.611511 
	C204.304245,872.118225 203.564423,871.008850 192.848373,871.005005 
	C151.391129,870.990173 109.933861,871.013733 68.476677,870.963867 
	C61.445217,870.955444 60.719219,869.464905 64.032219,863.409912 
	C77.213821,839.318420 90.296616,815.172974 103.478485,791.081665 
	C112.264313,775.024536 121.155807,759.025208 130.226974,742.828491 
	C130.969299,742.104614 131.484665,741.552307 132.079010,740.645020 
	C133.772003,737.193420 135.386002,734.096680 137.153534,730.873413 
	C137.538040,730.164551 137.769028,729.582275 138.124756,728.673035 
	C139.833008,725.564026 141.416504,722.782043 143.153534,719.873413 
	C143.538055,719.164551 143.769028,718.582275 144.124771,717.673035 
	C145.833023,714.564026 147.416504,711.782043 149.153534,708.873413 
	C149.538055,708.164551 149.769043,707.582275 150.124786,706.673035 
	C151.833023,703.564026 153.416519,700.782043 155.153534,697.873413 
	C155.538040,697.164551 155.769028,696.582275 156.124756,695.673035 
	C157.833008,692.564026 159.416504,689.782043 161.153534,686.873413 
	C161.538025,686.164551 161.768997,685.582275 162.124741,684.673035 
	C163.832993,681.564026 165.416489,678.781982 167.153534,675.873413 
	C167.538071,675.164551 167.769043,674.582275 168.124786,673.673035 
	C169.833023,670.564026 171.416519,667.782043 173.153534,664.873413 
	C173.538040,664.164551 173.769028,663.582275 174.124756,662.673035 
	C175.833008,659.564026 177.416504,656.782043 179.153534,653.873413 
	C179.538025,653.164551 179.769012,652.582275 180.124756,651.673035 
	C181.833023,648.564026 183.416519,645.782043 185.153534,642.873413 
	C185.538040,642.164551 185.769012,641.582275 186.124756,640.673035 
	C187.833023,637.564026 189.416519,634.782043 191.153534,631.873413 
	C191.538040,631.164551 191.769028,630.582275 192.124756,629.673035 
	C193.833008,626.564026 195.416504,623.782043 197.153534,620.873413 
	C197.538025,620.164551 197.769012,619.582275 198.124771,618.673035 
	C199.833054,615.564087 201.416534,612.782043 203.153564,609.873413 
	C203.538071,609.164551 203.769043,608.582275 204.124756,607.673035 
	C205.833008,604.564026 207.416489,601.782043 209.153534,598.873413 
	C209.538055,598.164551 209.769028,597.582275 210.124756,596.673035 
	C211.833008,593.564026 213.416504,590.782043 215.153534,587.873413 
	C215.538025,587.164551 215.769012,586.582275 216.124756,585.673035 
	C217.833023,582.564026 219.416519,579.782043 221.153549,576.873413 
	C221.538071,576.164551 221.769043,575.582275 222.124786,574.673035 
	C223.833038,571.564026 225.416519,568.782043 227.153534,565.873413 
	C227.538055,565.164551 227.769028,564.582275 228.124756,563.673035 
	C229.833008,560.564026 231.416504,557.782043 233.153534,554.873413 
	C233.538025,554.164551 233.769012,553.582275 234.124756,552.673035 
	C235.833023,549.564026 237.416519,546.782043 239.153534,543.873413 
	C239.538040,543.164551 239.769012,542.582275 240.124756,541.673035 
	C241.833008,538.564026 243.416504,535.782043 245.153534,532.873413 
	C245.538055,532.164551 245.769028,531.582275 246.124756,530.673035 
	C247.833023,527.564026 249.416504,524.782043 251.153534,521.873413 
	C251.538040,521.164551 251.769012,520.582275 252.124756,519.673035 
	C253.833023,516.564026 255.416519,513.782043 257.153564,510.873444 
	C257.538086,510.164581 257.769043,509.582306 258.124756,508.673004 
	C259.833038,505.564026 261.416534,502.782013 263.153564,499.873444 
	C263.538086,499.164612 263.769043,498.582306 264.124786,497.673004 
	C265.833008,494.563995 267.416504,491.781982 269.153564,488.873444 
	C269.538055,488.164581 269.769043,487.582306 270.124756,486.673004 
	C271.833038,483.564026 273.416534,480.782013 275.153534,477.873444 
	C275.538055,477.164581 275.769012,476.582275 276.124756,475.673004 
	C277.833008,472.563995 279.416504,469.781982 281.153564,466.873444 
	C281.538086,466.164612 281.769043,465.582306 282.124786,464.673004 
	C283.833008,461.563995 285.416504,458.782013 287.153564,455.873444 
	C287.538055,455.164581 287.769043,454.582306 288.124756,453.673004 
	C289.833008,450.563995 291.416504,447.782013 293.153564,444.873444 
	C293.538086,444.164581 293.769043,443.582306 294.124756,442.673004 
	C295.833038,439.563995 297.416504,436.782013 299.153564,433.873444 
	C299.538086,433.164612 299.769043,432.582306 300.124786,431.673004 
	C301.833038,428.563995 303.416504,425.782013 305.153564,422.873444 
	C305.538055,422.164581 305.769043,421.582306 306.124756,420.673004 
	C307.833008,417.563995 309.416473,414.781982 311.153503,411.873444 
	C311.538055,411.164581 311.769012,410.582275 312.124756,409.673004 
	C313.833038,406.563995 315.416504,403.782013 317.153564,400.873444 
	C317.538086,400.164612 317.769043,399.582306 318.124817,398.673035 
	C319.833069,395.564026 321.416534,392.782013 323.153564,389.873474 
	C323.538055,389.164581 323.769043,388.582306 324.124756,387.673004 
	C325.833038,384.563995 327.416534,381.782013 329.153564,378.873444 
	C329.538086,378.164581 329.769043,377.582306 330.124756,376.673004 
	C331.833038,373.563995 333.416534,370.782013 335.153564,367.873444 
	C335.538086,367.164612 335.769043,366.582306 336.124786,365.673004 
	C337.833038,362.564026 339.416534,359.782013 341.153564,356.873444 
	C341.538055,356.164581 341.769043,355.582306 342.124756,354.673004 
	C343.833008,351.563995 345.416504,348.781982 347.153503,345.873444 
	C347.538055,345.164581 347.769012,344.582275 348.124756,343.673004 
	C349.833008,340.563995 351.416504,337.781982 353.153564,334.873444 
	C353.538086,334.164612 353.769043,333.582306 354.124786,332.673004 
	C355.833008,329.563995 357.416504,326.781982 359.153564,323.873444 
	C359.538055,323.164581 359.769043,322.582306 360.124786,321.673004 
	C361.833038,318.564026 363.416534,315.782013 365.153564,312.873444 
	C365.538086,312.164581 365.769043,311.582306 366.124756,310.673004 
	C367.833008,307.563995 369.416504,304.782013 371.153564,301.873444 
	C371.538086,301.164612 371.769043,300.582306 372.124786,299.673004 
	C373.833038,296.564026 375.416534,293.782013 377.153564,290.873444 
	C377.538055,290.164581 377.769043,289.582306 378.124756,288.673004 
	C379.833038,285.563995 381.416504,282.782013 383.153534,279.873444 
	C383.538055,279.164581 383.769012,278.582275 384.124756,277.673004 
	C385.833038,274.563995 387.416504,271.782013 389.153564,268.873444 
	C389.538086,268.164612 389.769043,267.582306 390.124756,266.673004 
	C391.833038,263.563995 393.416504,260.782013 395.153564,257.873444 
	C395.538055,257.164581 395.769043,256.582306 396.124756,255.673004 
	C397.833008,252.563995 399.416504,249.781982 401.153503,246.873428 
	C401.538055,246.164581 401.769043,245.582291 402.124756,244.673004 
	C403.833038,241.564011 405.416504,238.781998 407.153534,235.873444 
	C407.538055,235.164581 407.769012,234.582291 408.124756,233.673004 
	C409.833038,230.564011 411.416504,227.782013 413.153534,224.873444 
	C413.538025,224.164581 413.769012,223.582291 414.124756,222.673004 
	C415.833038,219.564011 417.416534,216.782013 419.153503,213.873444 
	C419.538025,213.164581 419.769012,212.582291 420.124756,211.673004 
	C421.833038,208.564011 423.416534,205.782013 425.153534,202.873444 
	C425.538055,202.164581 425.769012,201.582291 426.124756,200.673004 
	C427.833038,197.564011 429.416534,194.782013 431.153534,191.873444 
	C431.538025,191.164581 431.769012,190.582291 432.124756,189.673004 
	C433.833008,186.563995 435.416504,183.781998 437.153534,180.873428 
	C437.538025,180.164581 437.769012,179.582291 438.124756,178.673004 
	C439.833008,175.563995 441.416504,172.781998 443.153534,169.873444 
	C443.538055,169.164581 443.769043,168.582291 444.124786,167.673004 
	C445.833038,164.564011 447.416534,161.782013 449.153564,158.873444 
	C449.538055,158.164581 449.769012,157.582291 450.124786,156.673004 
	C451.833038,153.564011 453.416534,150.782013 455.153564,147.873444 
	C455.538025,147.164581 455.769012,146.582291 456.124756,145.673004 
	C457.833008,142.563995 459.416504,139.781998 461.153503,136.873428 
	C461.538025,136.164566 461.769012,135.582275 462.124756,134.672989 
	C463.833038,131.563995 465.416534,128.781998 467.153534,125.873444 
	C467.538055,125.164589 467.769043,124.582298 468.124786,123.673012 
	C469.833069,120.564011 471.416534,117.782005 473.153534,114.873444 
	C473.538055,114.164589 473.769043,113.582298 474.124786,112.673012 
	C475.833038,109.564011 477.416534,106.782005 479.153564,103.873444 
	C479.538055,103.164589 479.769043,102.582298 480.124817,101.673012 
	C481.833038,98.564011 483.416504,95.782005 485.153534,92.873436 
	C485.538025,92.164581 485.769012,91.582291 486.124786,90.673004 
	C487.833038,87.564003 489.416504,84.781998 491.153534,81.873436 
	C491.538025,81.164581 491.769012,80.582291 492.124786,79.673012 
	C493.833069,76.564018 495.416534,73.782013 497.153534,70.873444 
	C497.538025,70.164581 497.769012,69.582291 498.124756,68.673004 
	C499.833038,65.564011 501.416534,62.782005 503.153534,59.873444 
	C503.538055,59.164589 503.769043,58.582298 504.124786,57.673012 
	C505.833069,54.564018 507.416534,51.782013 509.268616,48.817146 
	C511.024841,47.756195 512.512390,46.878101 514.213318,46.261162 
	C515.951111,49.348209 517.475525,52.174107 519.003906,55.195568 
	C519.338501,55.927425 519.669250,56.463715 520.213318,57.261162 
	C521.951050,60.348213 523.475525,63.174110 525.003906,66.195564 
	C525.338562,66.927414 525.669250,67.463707 526.214355,68.258347 
	C527.952454,71.344460 529.476257,74.172226 531.003906,77.195557 
	C531.338501,77.927422 531.669250,78.463715 532.214355,79.258354 
	C533.952454,82.344467 535.476257,85.172234 537.003906,88.195557 
	C537.338562,88.927414 537.669250,89.463707 538.214355,90.258347 
	C539.952515,93.344460 541.476257,96.172226 543.003906,99.195557 
	C543.338562,99.927406 543.669250,100.463699 544.112427,101.321503 
	C543.816589,103.762009 543.408325,105.881004 542.773071,108.171547 
	C542.030640,108.895386 541.515320,109.447685 540.921326,110.354233 
	C539.561768,113.472321 538.280884,116.236160 536.773010,119.171539 
	C536.030701,119.895401 535.515320,120.447701 534.921326,121.354248 
	C533.561768,124.472321 532.280884,127.236160 530.773071,130.171539 
	C530.030701,130.895401 529.515381,131.447693 528.921326,132.354263 
	C527.561768,135.472351 526.280884,138.236176 524.773071,141.171539 
	C524.030701,141.895386 523.515381,142.447693 522.921326,143.354263 
	C521.561768,146.472351 520.280884,149.236176 518.773071,152.171539 
	C518.030701,152.895386 517.515381,153.447693 516.921326,154.354248 
	C515.561768,157.472336 514.280884,160.236160 512.773010,163.171539 
	C512.030701,163.895401 511.515350,164.447708 510.921326,165.354263 
	C509.561768,168.472336 508.280884,171.236160 506.773041,174.171555 
	C506.030731,174.895416 505.515350,175.447708 504.921326,176.354248 
	C503.561798,179.472351 502.280914,182.236176 500.773010,185.171539 
	C500.030701,185.895386 499.515350,186.447693 498.921326,187.354248 
	C497.561798,190.472351 496.280914,193.236176 494.773071,196.171570 
	C494.030731,196.895416 493.515350,197.447708 492.919983,198.358246 
	C491.660431,201.464020 490.694031,204.327698 489.269745,206.941895 
	C464.639771,252.148209 439.927490,297.309662 415.286438,342.509979 
	C388.253021,392.098663 361.307953,441.735535 334.261993,491.317383 
	C305.301361,544.409241 276.238953,597.445557 247.274796,650.535400 
	C219.986069,700.554321 192.772003,750.613892 165.512360,800.648682 
	C161.640045,807.756226 162.830353,809.958679 170.854599,809.978027 
	C190.687378,810.026001 210.522568,809.829041 230.351883,810.095581 
	C236.362671,810.176392 239.575882,807.776855 242.371063,802.555725 
	C258.883789,771.711853 275.740906,741.052307 292.499847,710.340454 
	C311.573029,675.387634 330.677460,640.451904 349.744659,605.495911 
	C366.657928,574.488708 383.528839,543.458313 400.436584,512.448120 
	C419.736816,477.049957 439.052216,441.660095 458.369934,406.271484 
	C475.372772,375.123596 492.442749,344.012207 509.382050,312.829803 
	C525.763062,282.675049 542.023682,252.454803 558.320312,222.254211 
	C565.912415,208.184570 573.422791,194.070648 581.060730,180.026031 
	C583.264709,175.973389 585.020203,175.900208 587.457092,179.767822 
	C589.584290,183.143951 591.338928,186.754654 593.261169,190.260117 
	C612.325378,225.025955 631.437744,259.765533 650.438416,294.566071 
	C663.440552,318.379974 676.227722,342.311188 689.220520,366.130188 
	C702.213318,389.949371 715.406372,413.659363 728.394531,437.481079 
	C743.374634,464.956329 758.165405,492.534760 773.151123,520.006897 
	C788.137024,547.479187 803.324219,574.841553 818.308899,602.314453 
	C833.293518,629.787231 848.073853,657.371338 863.059143,684.843628 
	C878.044434,712.316223 893.239441,739.674377 908.220276,767.149353 
	C925.193176,798.277710 942.014099,829.488953 958.935913,860.645264 
	C964.272278,870.470520 963.988647,870.995422 952.531799,870.997681 
	C911.699402,871.005798 870.866943,870.986450 830.034546,871.026428 
	C822.342651,871.033997 821.020813,873.261780 824.626709,880.043274 
	C828.690491,887.685547 832.878784,895.262024 837.043762,902.850159 
	C852.101196,930.283325 867.201965,957.692932 882.221863,985.146667 
	C888.005615,995.718201 887.789185,995.999146 875.807678,995.999146 
	C633.479736,996.000183 391.151825,996.000183 148.823883,995.996155 
	C146.657822,995.996155 144.394135,996.321716 142.354034,995.799622 
	C140.432022,995.307800 138.745621,993.895264 136.955566,992.887817 
M582.954590,306.073425 
	C582.414490,307.403625 581.999084,308.801941 581.315369,310.053650 
	C573.187927,324.931946 565.072876,339.817505 556.847839,354.641907 
	C549.406738,368.053436 541.690613,381.313873 534.356689,394.782959 
	C525.711426,410.660339 517.468323,426.756683 508.823090,442.634094 
	C501.489227,456.103180 493.709595,469.329346 486.352142,482.785980 
	C479.395935,495.508667 472.831604,508.445251 465.907715,521.185974 
	C460.845337,530.501404 455.349518,539.581116 450.280640,548.893127 
	C443.427032,561.483704 436.886108,574.244385 430.042572,586.840576 
	C424.902802,596.300842 419.380005,605.553040 414.239899,615.013062 
	C407.553619,627.318726 401.128357,639.765808 394.496399,652.101318 
	C388.108765,663.982361 381.603638,675.800171 375.145203,687.643127 
	C369.613953,697.785828 364.127014,707.953125 358.525848,718.057007 
	C353.145111,727.763367 347.527802,737.339722 342.222961,747.086731 
	C335.527771,759.388306 329.064056,771.815674 322.461334,784.167908 
	C318.356750,791.846558 314.179596,799.486450 309.789062,807.598145 
	C445.165375,807.598145 579.526428,807.598145 714.499634,807.598145 
	C713.661133,805.713562 713.167053,804.339783 712.470215,803.077942 
	C706.013733,791.387329 699.452087,779.754333 693.056702,768.030518 
	C682.315613,748.340088 671.707764,728.576965 660.978271,708.880127 
	C653.717834,695.551514 646.293701,682.311951 639.034180,668.982788 
	C628.463440,649.573975 618.022705,630.094360 607.437195,610.693665 
	C598.061279,593.509827 588.532654,576.409363 579.127869,559.241211 
	C569.194519,541.108337 559.263489,522.973206 549.535278,504.730438 
	C548.597778,502.972382 548.315674,500.101227 549.087769,498.343506 
	C551.107727,493.744934 553.868408,489.470123 556.356201,485.078979 
	C559.727966,479.127838 563.215515,473.240234 566.482239,467.232300 
	C571.600525,457.819397 576.535889,448.307129 581.636047,438.884247 
	C583.112854,436.155670 584.925720,436.315521 586.412354,438.939392 
	C588.830688,443.207886 591.105103,447.557770 593.510986,451.833496 
	C600.480408,464.219543 607.607361,476.518707 614.435608,488.981781 
	C619.608398,498.423187 624.325806,508.112976 629.412354,517.602966 
	C635.428406,528.827026 641.638916,539.946777 647.736511,551.127319 
	C653.676941,562.019653 659.500244,572.976807 665.522766,583.823425 
	C672.421692,596.248474 679.605774,608.516113 686.434082,620.979126 
	C691.606934,630.420532 696.257019,640.148193 701.426086,649.591797 
	C708.488342,662.494324 715.957275,675.174438 723.001892,688.086304 
	C729.953186,700.826965 736.453430,713.813660 743.408264,726.552246 
	C750.615234,739.752869 758.157715,752.769836 765.499573,765.897278 
	C769.239502,772.584412 772.933472,779.299500 776.514587,786.072632 
	C779.563416,791.839172 782.270569,797.790039 785.428101,803.493774 
	C786.928650,806.204407 788.901184,808.168396 792.824158,808.119568 
	C813.486633,807.862366 834.154114,808.007812 854.819824,807.981934 
	C856.208923,807.980164 857.597717,807.718445 859.761353,807.499084 
	C856.606873,801.905090 853.755615,797.001465 851.047729,792.019958 
	C840.335632,772.313599 829.702515,752.564270 818.972961,732.867371 
	C811.712463,719.538818 804.293579,706.296570 797.028198,692.970581 
	C786.370972,673.423462 775.815674,653.820923 765.163452,634.271118 
	C757.822083,620.797485 750.353699,607.392944 743.008118,593.921570 
	C734.376953,578.092285 725.849487,562.206421 717.216492,546.378113 
	C709.869202,532.907227 702.380920,519.513184 695.055115,506.030731 
	C686.522339,490.326813 678.163147,474.528503 669.607727,458.837036 
	C662.187073,445.226990 654.529785,431.746002 647.100708,418.140472 
	C638.301208,402.025085 629.610535,385.850067 620.918152,369.676453 
	C615.359436,359.333740 609.990601,348.887665 604.339600,338.596130 
	C598.528503,328.013123 592.512817,317.541351 586.458923,307.094940 
	C586.023254,306.343140 584.543762,306.196259 582.954590,306.073425 
M349.500000,935.000183 
	C493.929810,935.000183 638.359619,935.000183 783.244324,935.000183 
	C782.754883,932.977173 782.705933,931.431030 782.040283,930.225525 
	C772.424438,912.812866 762.532349,895.548706 753.190857,877.991272 
	C751.016541,873.904541 748.599792,872.917175 744.349731,872.919800 
	C589.694946,873.013672 435.040100,873.037598 280.385559,872.832397 
	C275.120544,872.825378 272.393616,875.049622 270.311218,878.876709 
	C263.459839,891.468445 256.807922,904.168762 250.082993,916.829224 
	C247.044144,922.550232 244.013687,928.275635 240.448700,935.000183 
	C277.289307,935.000183 312.894653,935.000183 349.500000,935.000183 
z"/>
<path fill="#0AA7B9" opacity="1.000000" stroke="none" 
	d="
M130.000000,743.000000 
	C121.155807,759.025208 112.264313,775.024536 103.478485,791.081665 
	C90.296616,815.172974 77.213821,839.318420 64.032219,863.409912 
	C60.719219,869.464905 61.445217,870.955444 68.476677,870.963867 
	C109.933861,871.013733 151.391129,870.990173 192.848373,871.005005 
	C203.564423,871.008850 204.304245,872.118225 199.150177,881.611511 
	C180.805893,915.399719 162.388657,949.148438 143.887894,982.851135 
	C142.662903,985.082642 140.509094,986.804260 138.476776,988.881531 
	C140.202133,984.789612 142.092377,980.501099 144.301880,976.383911 
	C150.292175,965.221863 156.366852,954.104126 162.503494,943.021667 
	C169.274826,930.793030 176.281006,918.693054 182.944687,906.406738 
	C188.734558,895.731506 194.189316,884.874512 200.415146,872.899658 
	C152.202225,872.899658 104.933662,872.899658 56.087467,872.899658 
	C59.927452,865.569092 62.934429,859.633301 66.114525,853.791809 
	C79.752533,828.740234 93.387482,803.686646 107.131721,778.693298 
	C115.628639,763.242004 124.426208,747.955811 132.892181,732.487854 
	C140.213242,719.111816 147.156235,705.528992 154.452789,692.139221 
	C161.141174,679.865479 168.119080,667.749817 174.894714,655.523193 
	C181.034500,644.443970 187.137451,633.343262 193.140411,622.189514 
	C200.367828,608.760498 207.365265,595.207092 214.661835,581.816284 
	C221.349304,569.543213 228.353287,557.443176 235.123169,545.214478 
	C241.178345,534.276978 247.104355,523.267883 253.087372,512.290405 
	C259.070374,501.312927 265.053406,490.335419 271.036438,479.357941 
	C277.019440,468.380463 282.994934,457.398865 288.987549,446.426636 
	C295.059326,435.309448 301.212311,424.236176 307.212799,413.080750 
	C314.515564,399.504303 321.587341,385.802856 328.961975,372.266052 
	C335.569244,360.138000 342.504211,348.188965 349.197205,336.106995 
	C355.255219,325.171265 361.236420,314.192078 367.152100,303.178650 
	C374.368500,289.743683 381.373657,276.194397 388.670227,262.803558 
	C395.357697,250.530594 402.362244,238.430832 409.132324,226.202286 
	C415.187622,215.264801 421.113556,204.255722 427.096558,193.278214 
	C433.079590,182.300705 439.131226,171.359924 445.030304,160.337479 
	C455.080994,141.557785 464.924438,122.666512 475.059784,103.932938 
	C487.107880,81.663971 499.372223,59.512024 511.983551,36.505486 
	C513.834961,39.232418 515.546082,41.345875 516.821167,43.695957 
	C525.984253,60.584572 535.077515,77.511177 544.142334,94.452820 
	C545.601807,97.180428 546.995178,99.976723 548.029114,102.880165 
	C548.379395,103.863976 547.762939,105.403244 547.187988,106.473717 
	C538.332397,122.962898 529.454529,139.440491 520.489746,155.870575 
	C513.907959,167.933334 507.136200,179.892410 500.547119,191.951218 
	C482.914398,224.221146 465.323944,256.514160 447.736633,288.808838 
	C430.785980,319.934357 413.892670,351.091156 396.915710,382.202271 
	C373.866364,424.441315 350.735413,466.635834 327.688843,508.876343 
	C310.713654,539.989136 293.854828,571.165344 276.877045,602.276672 
	C253.827148,644.514954 230.724258,686.724243 207.622513,728.934204 
	C193.982407,753.856567 180.293686,778.752258 166.660751,803.678528 
	C166.067230,804.763733 165.813995,806.034973 165.242783,807.678345 
	C167.156967,807.798523 168.764465,807.985718 170.372177,807.987244 
	C190.703430,808.007141 211.034897,807.958008 231.365799,808.043640 
	C234.578186,808.057129 236.463470,807.507996 238.197723,804.097351 
	C243.288193,794.086060 249.253387,784.523254 254.740555,774.709045 
	C261.002655,763.508850 267.187073,752.263855 273.280396,740.971069 
	C280.207275,728.133423 286.889954,715.163330 293.874695,702.357666 
	C300.884857,689.505493 308.241943,676.842468 315.252228,663.990356 
	C322.237152,651.184875 328.874359,638.189697 335.859070,625.384094 
	C342.869232,612.531799 350.235260,599.873596 357.233612,587.015076 
	C364.444275,573.766479 371.289856,560.319275 378.498352,547.069458 
	C385.178162,534.791504 392.168121,522.682678 398.944366,510.456635 
	C405.084930,499.377625 411.185089,488.275238 417.187439,477.120941 
	C424.492615,463.545685 431.570343,449.847321 438.945160,436.310486 
	C445.552429,424.182617 452.481171,412.230286 459.171814,400.147278 
	C465.227875,389.210297 471.207886,378.230316 477.123657,367.216797 
	C484.339996,353.781921 491.347504,340.234039 498.644043,326.843323 
	C505.331573,314.570282 512.334167,302.469330 519.103699,290.240417 
	C525.158569,279.302704 531.146423,268.326843 537.050049,257.306854 
	C542.736450,246.692307 548.196655,235.956314 553.909912,225.356522 
	C557.800171,218.138840 562.101440,211.141632 565.952026,203.903824 
	C570.102844,196.101578 573.908142,188.116241 577.933105,180.246048 
	C579.785156,176.624817 581.801575,173.087616 584.125854,168.808243 
	C585.581848,170.939651 587.071716,172.775055 588.188904,174.814590 
	C593.751770,184.969894 599.268005,195.151535 604.702942,205.375854 
	C611.671082,218.484787 618.469055,231.684631 625.498535,244.760254 
	C628.363159,250.088715 631.831970,255.092331 634.696777,260.420715 
	C641.726746,273.495911 648.487061,286.716156 655.517151,299.791290 
	C658.617371,305.557312 662.279419,311.020966 665.388611,316.782593 
	C672.123840,329.263550 678.589539,341.889954 685.322998,354.371887 
	C688.510132,360.280060 692.223938,365.904114 695.410339,371.812622 
	C702.142151,384.295471 708.605530,396.923126 715.338318,409.405457 
	C718.525085,415.313721 722.244812,420.934570 725.430908,426.843231 
	C732.162170,439.326477 738.621582,451.956268 745.353699,464.439026 
	C748.540161,470.347412 752.265625,475.965179 755.451294,481.873932 
	C762.181885,494.357574 768.604736,507.007568 775.371948,519.470825 
	C780.205505,528.372864 785.559326,536.992493 790.385803,545.898193 
	C797.538513,559.096069 804.312683,572.499207 811.471497,585.693665 
	C816.618530,595.180176 822.286316,604.384033 827.441162,613.866455 
	C834.214600,626.326172 840.599670,638.997009 847.367065,651.460083 
	C852.200745,660.362061 857.553345,668.982483 862.379883,677.888123 
	C869.532593,691.085999 876.307922,704.488525 883.466736,717.682922 
	C888.613708,727.169434 894.279541,736.374268 899.434570,745.856689 
	C906.208130,758.316406 912.627441,770.968384 919.359253,783.451233 
	C922.545532,789.359680 926.273132,794.976257 929.458679,800.885071 
	C936.188965,813.368835 942.591003,826.030457 949.381775,838.480530 
	C954.707764,848.245117 960.423279,857.797180 965.945679,867.455139 
	C966.736633,868.838440 967.414185,870.286560 968.677856,872.741211 
	C920.157410,872.741211 872.673767,872.741211 823.728638,872.741211 
	C846.901184,915.283936 869.406250,956.601196 892.330872,998.688721 
	C889.674377,998.822449 887.922363,998.987732 886.170410,998.987793 
	C637.528870,998.999084 388.887390,999.002014 140.245895,998.933350 
	C138.274994,998.932800 136.304337,997.953552 134.333527,997.431274 
	C135.005920,996.036255 135.678314,994.641235 136.653137,993.067017 
	C138.745621,993.895264 140.432022,995.307800 142.354034,995.799622 
	C144.394135,996.321716 146.657822,995.996155 148.823883,995.996155 
	C391.151825,996.000183 633.479736,996.000183 875.807678,995.999146 
	C887.789185,995.999146 888.005615,995.718201 882.221863,985.146667 
	C867.201965,957.692932 852.101196,930.283325 837.043762,902.850159 
	C832.878784,895.262024 828.690491,887.685547 824.626709,880.043274 
	C821.020813,873.261780 822.342651,871.033997 830.034546,871.026428 
	C870.866943,870.986450 911.699402,871.005798 952.531799,870.997681 
	C963.988647,870.995422 964.272278,870.470520 958.935913,860.645264 
	C942.014099,829.488953 925.193176,798.277710 908.220276,767.149353 
	C893.239441,739.674377 878.044434,712.316223 863.059143,684.843628 
	C848.073853,657.371338 833.293518,629.787231 818.308899,602.314453 
	C803.324219,574.841553 788.137024,547.479187 773.151123,520.006897 
	C758.165405,492.534760 743.374634,464.956329 728.394531,437.481079 
	C715.406372,413.659363 702.213318,389.949371 689.220520,366.130188 
	C676.227722,342.311188 663.440552,318.379974 650.438416,294.566071 
	C631.437744,259.765533 612.325378,225.025955 593.261169,190.260117 
	C591.338928,186.754654 589.584290,183.143951 587.457092,179.767822 
	C585.020203,175.900208 583.264709,175.973389 581.060730,180.026031 
	C573.422791,194.070648 565.912415,208.184570 558.320312,222.254211 
	C542.023682,252.454803 525.763062,282.675049 509.382050,312.829803 
	C492.442749,344.012207 475.372772,375.123596 458.369934,406.271484 
	C439.052216,441.660095 419.736816,477.049957 400.436584,512.448120 
	C383.528839,543.458313 366.657928,574.488708 349.744659,605.495911 
	C330.677460,640.451904 311.573029,675.387634 292.499847,710.340454 
	C275.740906,741.052307 258.883789,771.711853 242.371063,802.555725 
	C239.575882,807.776855 236.362671,810.176392 230.351883,810.095581 
	C210.522568,809.829041 190.687378,810.026001 170.854599,809.978027 
	C162.830353,809.958679 161.640045,807.756226 165.512360,800.648682 
	C192.772003,750.613892 219.986069,700.554321 247.274796,650.535400 
	C276.238953,597.445557 305.301361,544.409241 334.261993,491.317383 
	C361.307953,441.735535 388.253021,392.098663 415.286438,342.509979 
	C439.927490,297.309662 464.639771,252.148209 489.269745,206.941895 
	C490.694031,204.327698 491.660431,201.464020 493.146942,198.186676 
	C493.969269,197.104584 494.484619,196.552292 495.000000,196.000000 
	C496.280914,193.236176 497.561798,190.472351 499.148315,187.182709 
	C499.969299,186.104614 500.484650,185.552307 501.000000,185.000000 
	C502.280914,182.236176 503.561798,179.472351 505.148315,176.182709 
	C505.969269,175.104584 506.484619,174.552292 507.000000,174.000000 
	C508.280884,171.236160 509.561768,168.472336 511.148285,165.182709 
	C511.969269,164.104614 512.484619,163.552307 513.000000,163.000000 
	C514.280884,160.236160 515.561768,157.472336 517.148315,154.182709 
	C517.969299,153.104614 518.484680,152.552322 519.000000,152.000000 
	C520.280884,149.236176 521.561768,146.472351 523.148315,143.182709 
	C523.969299,142.104599 524.484619,141.552307 525.000000,141.000000 
	C526.280884,138.236176 527.561768,135.472351 529.148315,132.182709 
	C529.969299,131.104614 530.484619,130.552307 531.000000,130.000000 
	C532.280884,127.236160 533.561768,124.472321 535.148315,121.182701 
	C535.969299,120.104614 536.484680,119.552307 537.000000,119.000000 
	C538.280884,116.236160 539.561768,113.472321 541.148315,110.182693 
	C541.969299,109.104599 542.484680,108.552299 543.000000,108.000000 
	C543.408325,105.881004 543.816589,103.762009 543.996460,101.067062 
	C543.512024,99.994072 543.256042,99.497032 543.000000,98.999992 
	C541.476257,96.172226 539.952515,93.344460 538.098389,90.003906 
	C537.512024,88.994072 537.255981,88.497032 537.000000,88.000000 
	C535.476257,85.172234 533.952454,82.344467 532.098389,79.003906 
	C531.512024,77.994072 531.255981,77.497032 531.000000,76.999992 
	C529.476257,74.172226 527.952454,71.344460 526.098389,68.003906 
	C525.512024,66.994072 525.255981,66.497032 525.000000,66.000000 
	C523.475525,63.174110 521.951050,60.348213 520.097290,57.006710 
	C519.512024,55.994064 519.256042,55.497025 519.000000,54.999996 
	C517.475525,52.174107 515.951111,49.348209 514.087158,46.031975 
	C509.069794,42.445251 510.352509,47.531414 509.000000,49.000004 
	C507.416534,51.782013 505.833069,54.564018 503.990845,57.918457 
	C503.488098,58.993931 503.244049,59.496967 503.000000,60.000004 
	C501.416534,62.782005 499.833038,65.564011 497.990814,68.918449 
	C497.488068,69.993927 497.244019,70.496964 497.000000,71.000000 
	C495.416534,73.782013 493.833069,76.564018 491.990845,79.918457 
	C491.488068,80.993935 491.244049,81.496971 491.000000,82.000000 
	C489.416504,84.781998 487.833038,87.564003 485.990845,90.918449 
	C485.488068,91.993927 485.244019,92.496964 485.000000,93.000000 
	C483.416504,95.782005 481.833038,98.564011 479.990845,101.918457 
	C479.488068,102.993935 479.244049,103.496971 479.000000,104.000000 
	C477.416534,106.782005 475.833038,109.564011 473.990845,112.918457 
	C473.488068,113.993927 473.244019,114.496964 473.000000,115.000000 
	C471.416534,117.782005 469.833069,120.564011 467.990845,123.918457 
	C467.488068,124.993927 467.244049,125.496964 467.000000,126.000000 
	C465.416534,128.781998 463.833038,131.563995 461.990814,134.918457 
	C461.488037,135.993942 461.244019,136.496964 461.000000,137.000000 
	C459.416504,139.781998 457.833008,142.563995 455.990814,145.918457 
	C455.488068,146.993942 455.244019,147.496979 455.000000,148.000000 
	C453.416534,150.782013 451.833038,153.564011 449.990845,156.918472 
	C449.488068,157.993942 449.244019,158.496979 449.000000,159.000000 
	C447.416534,161.782013 445.833038,164.564011 443.990814,167.918457 
	C443.488037,168.993942 443.244019,169.496964 443.000000,170.000000 
	C441.416504,172.781998 439.833008,175.563995 437.990814,178.918457 
	C437.488068,179.993958 437.244049,180.496979 437.000000,181.000000 
	C435.416504,183.781998 433.833008,186.563995 431.990814,189.918457 
	C431.488037,190.993942 431.244019,191.496964 431.000000,192.000000 
	C429.416534,194.782013 427.833038,197.564011 425.990814,200.918457 
	C425.488068,201.993942 425.244019,202.496979 425.000000,203.000000 
	C423.416534,205.782013 421.833038,208.564011 419.990814,211.918457 
	C419.488068,212.993942 419.244019,213.496979 419.000000,214.000000 
	C417.416534,216.782013 415.833038,219.564011 413.990814,222.918457 
	C413.488068,223.993958 413.244049,224.496979 413.000000,225.000000 
	C411.416504,227.782013 409.833038,230.564011 407.990814,233.918457 
	C407.488037,234.993942 407.244019,235.496964 407.000000,236.000000 
	C405.416504,238.781998 403.833038,241.564011 401.990814,244.918457 
	C401.488037,245.993942 401.244019,246.496964 401.000000,247.000000 
	C399.416504,249.781982 397.833008,252.563995 395.990784,255.918457 
	C395.488037,256.993927 395.244019,257.496979 395.000000,258.000000 
	C393.416504,260.782013 391.833038,263.563995 389.990845,266.918457 
	C389.488068,267.993958 389.244049,268.496979 389.000000,269.000000 
	C387.416504,271.782013 385.833038,274.563995 383.990814,277.918457 
	C383.488068,278.993958 383.244049,279.496979 383.000000,280.000000 
	C381.416504,282.782013 379.833038,285.563995 377.990814,288.918457 
	C377.488068,289.993927 377.244049,290.496979 377.000000,291.000000 
	C375.416534,293.782013 373.833038,296.564026 371.990845,299.918457 
	C371.488068,300.993927 371.244019,301.496979 371.000000,302.000000 
	C369.416504,304.782013 367.833008,307.563995 365.990814,310.918457 
	C365.488068,311.993927 365.244019,312.496979 365.000000,313.000000 
	C363.416534,315.782013 361.833038,318.564026 359.990845,321.918457 
	C359.488037,322.993927 359.244019,323.496979 359.000000,324.000000 
	C357.416504,326.781982 355.833008,329.563995 353.990814,332.918457 
	C353.488037,333.993927 353.244019,334.496948 353.000000,335.000000 
	C351.416504,337.781982 349.833008,340.563995 347.990814,343.918457 
	C347.488068,344.993927 347.244049,345.496979 347.000000,346.000000 
	C345.416504,348.781982 343.833008,351.563995 341.990784,354.918457 
	C341.488068,355.993927 341.244019,356.496979 341.000000,357.000000 
	C339.416534,359.782013 337.833038,362.564026 335.990845,365.918457 
	C335.488098,366.993958 335.244049,367.496979 335.000000,368.000000 
	C333.416534,370.782013 331.833038,373.563995 329.990845,376.918457 
	C329.488068,377.993958 329.244049,378.496979 329.000000,379.000000 
	C327.416534,381.782013 325.833038,384.563995 323.990845,387.918457 
	C323.488068,388.993958 323.244049,389.496979 323.000031,390.000000 
	C321.416534,392.782013 319.833069,395.564026 317.990845,398.918457 
	C317.488037,399.993927 317.244019,400.496948 317.000000,401.000000 
	C315.416504,403.782013 313.833038,406.563995 311.990814,409.918457 
	C311.488068,410.993927 311.244049,411.496979 311.000000,412.000000 
	C309.416473,414.781982 307.833008,417.563995 305.990784,420.918457 
	C305.488068,421.993927 305.244019,422.496979 305.000000,423.000000 
	C303.416504,425.782013 301.833038,428.563995 299.990814,431.918457 
	C299.488068,432.993927 299.244019,433.496979 299.000000,434.000000 
	C297.416504,436.782013 295.833038,439.563995 293.990814,442.918457 
	C293.488037,443.993927 293.244019,444.496979 293.000000,445.000000 
	C291.416504,447.782013 289.833008,450.563995 287.990814,453.918457 
	C287.488037,454.993927 287.244019,455.496948 287.000000,456.000000 
	C285.416504,458.782013 283.833008,461.563995 281.990784,464.918457 
	C281.488037,465.993927 281.244019,466.496948 281.000000,467.000000 
	C279.416504,469.781982 277.833008,472.563995 275.990784,475.918457 
	C275.488037,476.993927 275.244019,477.496948 275.000000,478.000000 
	C273.416534,480.782013 271.833038,483.564026 269.990814,486.918457 
	C269.488068,487.993927 269.244019,488.496979 269.000000,489.000000 
	C267.416504,491.781982 265.833008,494.563995 263.990814,497.918457 
	C263.488068,498.993927 263.244019,499.496979 263.000000,500.000000 
	C261.416534,502.782013 259.833038,505.564026 257.990845,508.918457 
	C257.488068,509.993958 257.244049,510.496979 257.000000,511.000000 
	C255.416519,513.782043 253.833023,516.564026 251.990799,519.918457 
	C251.488052,520.993958 251.244019,521.496948 251.000000,522.000000 
	C249.416504,524.782043 247.833023,527.564026 245.990799,530.918457 
	C245.488052,531.993958 245.244034,532.496948 245.000000,533.000000 
	C243.416504,535.782043 241.833008,538.564026 239.990799,541.918457 
	C239.488052,542.993958 239.244034,543.496948 239.000000,544.000000 
	C237.416519,546.782043 235.833023,549.564026 233.990814,552.918457 
	C233.488068,553.993958 233.244034,554.496948 233.000000,555.000000 
	C231.416504,557.782043 229.833008,560.564026 227.990799,563.918457 
	C227.488037,564.993958 227.244019,565.496948 227.000000,566.000000 
	C225.416519,568.782043 223.833038,571.564026 221.990814,574.918457 
	C221.488052,575.993958 221.244019,576.496948 221.000000,577.000000 
	C219.416519,579.782043 217.833023,582.564026 215.990799,585.918457 
	C215.488052,586.993958 215.244034,587.496948 215.000000,588.000000 
	C213.416504,590.782043 211.833008,593.564026 209.990799,596.918457 
	C209.488052,597.993958 209.244034,598.496948 209.000000,599.000000 
	C207.416489,601.782043 205.833008,604.564026 203.990799,607.918457 
	C203.488052,608.993958 203.244034,609.496948 203.000031,610.000000 
	C201.416534,612.782043 199.833054,615.564087 197.990814,618.918457 
	C197.488037,619.993958 197.244019,620.496948 197.000000,621.000000 
	C195.416504,623.782043 193.833008,626.564026 191.990799,629.918457 
	C191.488037,630.993958 191.244019,631.496948 191.000000,632.000000 
	C189.416519,634.782043 187.833023,637.564026 185.990814,640.918457 
	C185.488052,641.993958 185.244019,642.496948 185.000000,643.000000 
	C183.416519,645.782043 181.833023,648.564026 179.990784,651.918457 
	C179.488022,652.993896 179.244003,653.496948 179.000000,654.000000 
	C177.416504,656.782043 175.833008,659.564026 173.990814,662.918457 
	C173.488052,663.993958 173.244034,664.496948 173.000015,665.000000 
	C171.416519,667.782043 169.833023,670.564026 167.990814,673.918457 
	C167.488068,674.993958 167.244034,675.496948 167.000000,676.000000 
	C165.416489,678.781982 163.832993,681.564026 161.990784,684.918457 
	C161.488037,685.993958 161.244019,686.496948 161.000000,687.000000 
	C159.416504,689.782043 157.833008,692.564026 155.990799,695.918457 
	C155.488037,696.993958 155.244019,697.496948 155.000000,698.000000 
	C153.416519,700.782043 151.833023,703.564026 149.990784,706.918457 
	C149.488022,707.993896 149.244003,708.496948 148.999985,709.000000 
	C147.416504,711.782043 145.833023,714.564026 143.990799,717.918457 
	C143.488052,718.993958 143.244034,719.496948 143.000000,720.000000 
	C141.416504,722.782043 139.833008,725.564026 137.990784,728.918457 
	C137.488037,729.993958 137.244003,730.496948 137.000000,731.000000 
	C135.386002,734.096680 133.772003,737.193420 131.852036,740.816589 
	C131.030731,741.895386 130.515366,742.447693 130.000000,743.000000 
z"/>
<path fill="none" opacity="1.000000" stroke="none" 
	d="
M583.252075,305.920776 
	C584.543762,306.196259 586.023254,306.343140 586.458923,307.094940 
	C592.512817,317.541351 598.528503,328.013123 604.339600,338.596130 
	C609.990601,348.887665 615.359436,359.333740 620.918152,369.676453 
	C629.610535,385.850067 638.301208,402.025085 647.100708,418.140472 
	C654.529785,431.746002 662.187073,445.226990 669.607727,458.837036 
	C678.163147,474.528503 686.522339,490.326813 695.055115,506.030731 
	C702.380920,519.513184 709.869202,532.907227 717.216492,546.378113 
	C725.849487,562.206421 734.376953,578.092285 743.008118,593.921570 
	C750.353699,607.392944 757.822083,620.797485 765.163452,634.271118 
	C775.815674,653.820923 786.370972,673.423462 797.028198,692.970581 
	C804.293579,706.296570 811.712463,719.538818 818.972961,732.867371 
	C829.702515,752.564270 840.335632,772.313599 851.047729,792.019958 
	C853.755615,797.001465 856.606873,801.905090 859.761353,807.499084 
	C857.597717,807.718445 856.208923,807.980164 854.819824,807.981934 
	C834.154114,808.007812 813.486633,807.862366 792.824158,808.119568 
	C788.901184,808.168396 786.928650,806.204407 785.428101,803.493774 
	C782.270569,797.790039 779.563416,791.839172 776.514587,786.072632 
	C772.933472,779.299500 769.239502,772.584412 765.499573,765.897278 
	C758.157715,752.769836 750.615234,739.752869 743.408264,726.552246 
	C736.453430,713.813660 729.953186,700.826965 723.001892,688.086304 
	C715.957275,675.174438 708.488342,662.494324 701.426086,649.591797 
	C696.257019,640.148193 691.606934,630.420532 686.434082,620.979126 
	C679.605774,608.516113 672.421692,596.248474 665.522766,583.823425 
	C659.500244,572.976807 653.676941,562.019653 647.736511,551.127319 
	C641.638916,539.946777 635.428406,528.827026 629.412354,517.602966 
	C624.325806,508.112976 619.608398,498.423187 614.435608,488.981781 
	C607.607361,476.518707 600.480408,464.219543 593.510986,451.833496 
	C591.105103,447.557770 588.830688,443.207886 586.412354,438.939392 
	C584.925720,436.315521 583.112854,436.155670 581.636047,438.884247 
	C576.535889,448.307129 571.600525,457.819397 566.482239,467.232300 
	C563.215515,473.240234 559.727966,479.127838 556.356201,485.078979 
	C553.868408,489.470123 551.107727,493.744934 549.087769,498.343506 
	C548.315674,500.101227 548.597778,502.972382 549.535278,504.730438 
	C559.263489,522.973206 569.194519,541.108337 579.127869,559.241211 
	C588.532654,576.409363 598.061279,593.509827 607.437195,610.693665 
	C618.022705,630.094360 628.463440,649.573975 639.034180,668.982788 
	C646.293701,682.311951 653.717834,695.551514 660.978271,708.880127 
	C671.707764,728.576965 682.315613,748.340088 693.056702,768.030518 
	C699.452087,779.754333 706.013733,791.387329 712.470215,803.077942 
	C713.167053,804.339783 713.661133,805.713562 714.499634,807.598145 
	C579.526428,807.598145 445.165375,807.598145 309.789062,807.598145 
	C314.179596,799.486450 318.356750,791.846558 322.461334,784.167908 
	C329.064056,771.815674 335.527771,759.388306 342.222961,747.086731 
	C347.527802,737.339722 353.145111,727.763367 358.525848,718.057007 
	C364.127014,707.953125 369.613953,697.785828 375.145203,687.643127 
	C381.603638,675.800171 388.108765,663.982361 394.496399,652.101318 
	C401.128357,639.765808 407.553619,627.318726 414.239899,615.013062 
	C419.380005,605.553040 424.902802,596.300842 430.042572,586.840576 
	C436.886108,574.244385 443.427032,561.483704 450.280640,548.893127 
	C455.349518,539.581116 460.845337,530.501404 465.907715,521.185974 
	C472.831604,508.445251 479.395935,495.508667 486.352142,482.785980 
	C493.709595,469.329346 501.489227,456.103180 508.823090,442.634094 
	C517.468323,426.756683 525.711426,410.660339 534.356689,394.782959 
	C541.690613,381.313873 549.406738,368.053436 556.847839,354.641907 
	C565.072876,339.817505 573.187927,324.931946 581.315369,310.053650 
	C581.999084,308.801941 582.414490,307.403625 583.252075,305.920776 
z"/>
<path fill="none" opacity="1.000000" stroke="none" 
	d="
M349.000000,935.000183 
	C312.894653,935.000183 277.289307,935.000183 240.448700,935.000183 
	C244.013687,928.275635 247.044144,922.550232 250.082993,916.829224 
	C256.807922,904.168762 263.459839,891.468445 270.311218,878.876709 
	C272.393616,875.049622 275.120544,872.825378 280.385559,872.832397 
	C435.040100,873.037598 589.694946,873.013672 744.349731,872.919800 
	C748.599792,872.917175 751.016541,873.904541 753.190857,877.991272 
	C762.532349,895.548706 772.424438,912.812866 782.040283,930.225525 
	C782.705933,931.431030 782.754883,932.977173 783.244324,935.000183 
	C638.359619,935.000183 493.929810,935.000183 349.000000,935.000183 
z"/>
<path fill="#0AA7B9" opacity="1.000000" stroke="none" 
	d="
M509.268616,48.817142 
	C510.352509,47.531414 509.069794,42.445251 513.873779,45.770824 
	C512.512390,46.878101 511.024841,47.756195 509.268616,48.817142 
z"/>
<path fill="#0AA7B9" opacity="1.000000" stroke="none" 
	d="
M519.003906,55.195560 
	C519.256042,55.497025 519.512024,55.994064 519.884033,56.745552 
	C519.669250,56.463715 519.338501,55.927425 519.003906,55.195560 
z"/>
<path fill="#0AA7B9" opacity="1.000000" stroke="none" 
	d="
M245.153534,532.873413 
	C245.244034,532.496948 245.488052,531.993958 245.866028,531.245483 
	C245.769028,531.582275 245.538055,532.164551 245.153534,532.873413 
z"/>
<path fill="#0AA7B9" opacity="1.000000" stroke="none" 
	d="
M251.153534,521.873413 
	C251.244019,521.496948 251.488052,520.993958 251.866028,520.245483 
	C251.769012,520.582275 251.538040,521.164551 251.153534,521.873413 
z"/>
<path fill="#0AA7B9" opacity="1.000000" stroke="none" 
	d="
M257.153564,510.873444 
	C257.244049,510.496979 257.488068,509.993958 257.866058,509.245453 
	C257.769043,509.582306 257.538086,510.164581 257.153564,510.873444 
z"/>
<path fill="#0AA7B9" opacity="1.000000" stroke="none" 
	d="
M263.153564,499.873444 
	C263.244019,499.496979 263.488068,498.993927 263.866058,498.245453 
	C263.769043,498.582306 263.538086,499.164612 263.153564,499.873444 
z"/>
<path fill="#0AA7B9" opacity="1.000000" stroke="none" 
	d="
M269.153564,488.873444 
	C269.244019,488.496979 269.488068,487.993927 269.866028,487.245453 
	C269.769043,487.582306 269.538055,488.164581 269.153564,488.873444 
z"/>
<path fill="#0AA7B9" opacity="1.000000" stroke="none" 
	d="
M275.153503,477.873444 
	C275.244019,477.496948 275.488037,476.993927 275.866028,476.245453 
	C275.769012,476.582275 275.538055,477.164581 275.153503,477.873444 
z"/>
<path fill="#0AA7B9" opacity="1.000000" stroke="none" 
	d="
M281.153564,466.873444 
	C281.244019,466.496948 281.488037,465.993927 281.866028,465.245453 
	C281.769043,465.582306 281.538086,466.164612 281.153564,466.873444 
z"/>
<path fill="#0AA7B9" opacity="1.000000" stroke="none" 
	d="
M287.153564,455.873444 
	C287.244019,455.496948 287.488037,454.993927 287.866028,454.245453 
	C287.769043,454.582306 287.538055,455.164581 287.153564,455.873444 
z"/>
<path fill="#0AA7B9" opacity="1.000000" stroke="none" 
	d="
M293.153564,444.873444 
	C293.244019,444.496979 293.488037,443.993927 293.866028,443.245453 
	C293.769043,443.582306 293.538086,444.164581 293.153564,444.873444 
z"/>
<path fill="#0AA7B9" opacity="1.000000" stroke="none" 
	d="
M239.153534,543.873413 
	C239.244034,543.496948 239.488052,542.993958 239.866043,542.245483 
	C239.769012,542.582275 239.538040,543.164551 239.153534,543.873413 
z"/>
<path fill="#0AA7B9" opacity="1.000000" stroke="none" 
	d="
M299.153564,433.873444 
	C299.244019,433.496979 299.488068,432.993927 299.866058,432.245453 
	C299.769043,432.582306 299.538086,433.164612 299.153564,433.873444 
z"/>
<path fill="#0AA7B9" opacity="1.000000" stroke="none" 
	d="
M305.153564,422.873444 
	C305.244019,422.496979 305.488068,421.993927 305.866028,421.245453 
	C305.769043,421.582306 305.538055,422.164581 305.153564,422.873444 
z"/>
<path fill="#0AA7B9" opacity="1.000000" stroke="none" 
	d="
M311.153534,411.873444 
	C311.244049,411.496979 311.488068,410.993927 311.866028,410.245453 
	C311.769012,410.582275 311.538055,411.164581 311.153534,411.873444 
z"/>
<path fill="#0AA7B9" opacity="1.000000" stroke="none" 
	d="
M317.153564,400.873444 
	C317.244019,400.496948 317.488037,399.993927 317.866058,399.245453 
	C317.769043,399.582306 317.538086,400.164612 317.153564,400.873444 
z"/>
<path fill="#0AA7B9" opacity="1.000000" stroke="none" 
	d="
M323.153564,389.873444 
	C323.244049,389.496979 323.488068,388.993958 323.866058,388.245453 
	C323.769043,388.582306 323.538055,389.164581 323.153564,389.873444 
z"/>
<path fill="#0AA7B9" opacity="1.000000" stroke="none" 
	d="
M329.153564,378.873444 
	C329.244049,378.496979 329.488068,377.993958 329.866058,377.245453 
	C329.769043,377.582306 329.538086,378.164581 329.153564,378.873444 
z"/>
<path fill="#0AA7B9" opacity="1.000000" stroke="none" 
	d="
M335.153564,367.873444 
	C335.244049,367.496979 335.488098,366.993958 335.866089,366.245453 
	C335.769043,366.582306 335.538086,367.164612 335.153564,367.873444 
z"/>
<path fill="#0AA7B9" opacity="1.000000" stroke="none" 
	d="
M341.153564,356.873444 
	C341.244019,356.496979 341.488068,355.993927 341.866028,355.245453 
	C341.769043,355.582306 341.538055,356.164581 341.153564,356.873444 
z"/>
<path fill="#0AA7B9" opacity="1.000000" stroke="none" 
	d="
M191.153534,631.873413 
	C191.244019,631.496948 191.488037,630.993958 191.866028,630.245483 
	C191.769028,630.582275 191.538040,631.164551 191.153534,631.873413 
z"/>
<path fill="#0AA7B9" opacity="1.000000" stroke="none" 
	d="
M137.153534,730.873413 
	C137.244003,730.496948 137.488037,729.993958 137.866028,729.245483 
	C137.769028,729.582275 137.538040,730.164551 137.153534,730.873413 
z"/>
<path fill="#0AA7B9" opacity="1.000000" stroke="none" 
	d="
M143.153534,719.873413 
	C143.244034,719.496948 143.488052,718.993958 143.866043,718.245483 
	C143.769028,718.582275 143.538055,719.164551 143.153534,719.873413 
z"/>
<path fill="#0AA7B9" opacity="1.000000" stroke="none" 
	d="
M149.153534,708.873413 
	C149.244003,708.496948 149.488022,707.993896 149.866028,707.245483 
	C149.769043,707.582275 149.538055,708.164551 149.153534,708.873413 
z"/>
<path fill="#0AA7B9" opacity="1.000000" stroke="none" 
	d="
M155.153534,697.873413 
	C155.244019,697.496948 155.488037,696.993958 155.866028,696.245483 
	C155.769028,696.582275 155.538040,697.164551 155.153534,697.873413 
z"/>
<path fill="#0AA7B9" opacity="1.000000" stroke="none" 
	d="
M161.153519,686.873413 
	C161.244019,686.496948 161.488037,685.993958 161.866028,685.245483 
	C161.768997,685.582275 161.538025,686.164551 161.153519,686.873413 
z"/>
<path fill="#0AA7B9" opacity="1.000000" stroke="none" 
	d="
M167.153549,675.873413 
	C167.244034,675.496948 167.488068,674.993958 167.866058,674.245483 
	C167.769043,674.582275 167.538071,675.164551 167.153549,675.873413 
z"/>
<path fill="#0AA7B9" opacity="1.000000" stroke="none" 
	d="
M173.153534,664.873413 
	C173.244034,664.496948 173.488052,663.993958 173.866043,663.245483 
	C173.769028,663.582275 173.538040,664.164551 173.153534,664.873413 
z"/>
<path fill="#0AA7B9" opacity="1.000000" stroke="none" 
	d="
M179.153519,653.873413 
	C179.244003,653.496948 179.488022,652.993896 179.866028,652.245483 
	C179.769012,652.582275 179.538025,653.164551 179.153519,653.873413 
z"/>
<path fill="#0AA7B9" opacity="1.000000" stroke="none" 
	d="
M185.153534,642.873413 
	C185.244019,642.496948 185.488052,641.993958 185.866028,641.245483 
	C185.769012,641.582275 185.538040,642.164551 185.153534,642.873413 
z"/>
<path fill="#0AA7B9" opacity="1.000000" stroke="none" 
	d="
M130.226959,742.828491 
	C130.515366,742.447693 131.030731,741.895386 131.773041,741.171509 
	C131.484665,741.552307 130.969299,742.104614 130.226959,742.828491 
z"/>
<path fill="#0AA7B9" opacity="1.000000" stroke="none" 
	d="
M197.153519,620.873413 
	C197.244019,620.496948 197.488037,619.993958 197.866028,619.245483 
	C197.769012,619.582275 197.538025,620.164551 197.153519,620.873413 
z"/>
<path fill="#0AA7B9" opacity="1.000000" stroke="none" 
	d="
M203.153549,609.873413 
	C203.244034,609.496948 203.488052,608.993958 203.866058,608.245483 
	C203.769043,608.582275 203.538071,609.164551 203.153549,609.873413 
z"/>
<path fill="#0AA7B9" opacity="1.000000" stroke="none" 
	d="
M209.153534,598.873413 
	C209.244034,598.496948 209.488052,597.993958 209.866028,597.245483 
	C209.769028,597.582275 209.538055,598.164551 209.153534,598.873413 
z"/>
<path fill="#0AA7B9" opacity="1.000000" stroke="none" 
	d="
M215.153534,587.873413 
	C215.244034,587.496948 215.488052,586.993958 215.866028,586.245483 
	C215.769012,586.582275 215.538025,587.164551 215.153534,587.873413 
z"/>
<path fill="#0AA7B9" opacity="1.000000" stroke="none" 
	d="
M221.153549,576.873413 
	C221.244019,576.496948 221.488052,575.993958 221.866058,575.245483 
	C221.769043,575.582275 221.538071,576.164551 221.153549,576.873413 
z"/>
<path fill="#0AA7B9" opacity="1.000000" stroke="none" 
	d="
M227.153534,565.873413 
	C227.244019,565.496948 227.488037,564.993958 227.866028,564.245483 
	C227.769028,564.582275 227.538055,565.164551 227.153534,565.873413 
z"/>
<path fill="#0AA7B9" opacity="1.000000" stroke="none" 
	d="
M233.153534,554.873413 
	C233.244034,554.496948 233.488068,553.993958 233.866028,553.245483 
	C233.769012,553.582275 233.538025,554.164551 233.153534,554.873413 
z"/>
<path fill="#0AA7B9" opacity="1.000000" stroke="none" 
	d="
M353.153564,334.873444 
	C353.244019,334.496948 353.488037,333.993927 353.866058,333.245453 
	C353.769043,333.582306 353.538086,334.164612 353.153564,334.873444 
z"/>
<path fill="#0AA7B9" opacity="1.000000" stroke="none" 
	d="
M536.773010,119.171555 
	C536.484680,119.552307 535.969299,120.104614 535.226990,120.828461 
	C535.515320,120.447701 536.030701,119.895401 536.773010,119.171555 
z"/>
<path fill="#0AA7B9" opacity="1.000000" stroke="none" 
	d="
M443.153503,169.873428 
	C443.244019,169.496964 443.488037,168.993942 443.866028,168.245453 
	C443.769043,168.582291 443.538055,169.164581 443.153503,169.873428 
z"/>
<path fill="#0AA7B9" opacity="1.000000" stroke="none" 
	d="
M512.773010,163.171555 
	C512.484619,163.552307 511.969269,164.104614 511.226929,164.828461 
	C511.515350,164.447708 512.030701,163.895401 512.773010,163.171555 
z"/>
<path fill="#0AA7B9" opacity="1.000000" stroke="none" 
	d="
M449.153534,158.873444 
	C449.244019,158.496979 449.488068,157.993942 449.866028,157.245453 
	C449.769012,157.582291 449.538055,158.164581 449.153534,158.873444 
z"/>
<path fill="#0AA7B9" opacity="1.000000" stroke="none" 
	d="
M518.773071,152.171539 
	C518.484680,152.552322 517.969299,153.104614 517.226929,153.828461 
	C517.515381,153.447693 518.030701,152.895386 518.773071,152.171539 
z"/>
<path fill="#0AA7B9" opacity="1.000000" stroke="none" 
	d="
M455.153534,147.873444 
	C455.244019,147.496979 455.488068,146.993942 455.866028,146.245453 
	C455.769012,146.582291 455.538025,147.164581 455.153534,147.873444 
z"/>
<path fill="#0AA7B9" opacity="1.000000" stroke="none" 
	d="
M524.773071,141.171539 
	C524.484619,141.552307 523.969299,142.104599 523.226929,142.828461 
	C523.515381,142.447693 524.030701,141.895386 524.773071,141.171539 
z"/>
<path fill="#0AA7B9" opacity="1.000000" stroke="none" 
	d="
M461.153503,136.873428 
	C461.244019,136.496964 461.488037,135.993942 461.866028,135.245453 
	C461.769012,135.582275 461.538025,136.164566 461.153503,136.873428 
z"/>
<path fill="#0AA7B9" opacity="1.000000" stroke="none" 
	d="
M530.773071,130.171539 
	C530.484619,130.552307 529.969299,131.104614 529.226929,131.828461 
	C529.515381,131.447693 530.030701,130.895401 530.773071,130.171539 
z"/>
<path fill="#0AA7B9" opacity="1.000000" stroke="none" 
	d="
M467.153534,125.873444 
	C467.244049,125.496964 467.488068,124.993927 467.866028,124.245453 
	C467.769043,124.582298 467.538055,125.164589 467.153534,125.873444 
z"/>
<path fill="#0AA7B9" opacity="1.000000" stroke="none" 
	d="
M506.773041,174.171555 
	C506.484619,174.552292 505.969269,175.104584 505.226959,175.828445 
	C505.515350,175.447708 506.030731,174.895416 506.773041,174.171555 
z"/>
<path fill="#0AA7B9" opacity="1.000000" stroke="none" 
	d="
M473.153534,114.873444 
	C473.244019,114.496964 473.488068,113.993927 473.866028,113.245453 
	C473.769043,113.582298 473.538055,114.164589 473.153534,114.873444 
z"/>
<path fill="#0AA7B9" opacity="1.000000" stroke="none" 
	d="
M542.773010,108.171539 
	C542.484680,108.552299 541.969299,109.104599 541.226990,109.828445 
	C541.515320,109.447685 542.030640,108.895386 542.773010,108.171539 
z"/>
<path fill="#0AA7B9" opacity="1.000000" stroke="none" 
	d="
M479.153564,103.873444 
	C479.244049,103.496971 479.488068,102.993935 479.866058,102.245453 
	C479.769043,102.582298 479.538055,103.164589 479.153564,103.873444 
z"/>
<path fill="#0AA7B9" opacity="1.000000" stroke="none" 
	d="
M543.003906,99.195557 
	C543.256042,99.497032 543.512024,99.994072 543.884033,100.745552 
	C543.669250,100.463699 543.338562,99.927406 543.003906,99.195557 
z"/>
<path fill="#0AA7B9" opacity="1.000000" stroke="none" 
	d="
M485.153534,92.873436 
	C485.244019,92.496964 485.488068,91.993927 485.866028,91.245438 
	C485.769012,91.582291 485.538025,92.164581 485.153534,92.873436 
z"/>
<path fill="#0AA7B9" opacity="1.000000" stroke="none" 
	d="
M537.003906,88.195557 
	C537.255981,88.497032 537.512024,88.994072 537.884033,89.745560 
	C537.669250,89.463707 537.338562,88.927414 537.003906,88.195557 
z"/>
<path fill="#0AA7B9" opacity="1.000000" stroke="none" 
	d="
M491.153534,81.873444 
	C491.244049,81.496971 491.488068,80.993935 491.866028,80.245453 
	C491.769012,80.582291 491.538025,81.164581 491.153534,81.873444 
z"/>
<path fill="#0AA7B9" opacity="1.000000" stroke="none" 
	d="
M531.003906,77.195557 
	C531.255981,77.497032 531.512024,77.994072 531.884033,78.745560 
	C531.669250,78.463715 531.338501,77.927422 531.003906,77.195557 
z"/>
<path fill="#0AA7B9" opacity="1.000000" stroke="none" 
	d="
M497.153534,70.873444 
	C497.244019,70.496964 497.488068,69.993927 497.866028,69.245445 
	C497.769012,69.582291 497.538025,70.164581 497.153534,70.873444 
z"/>
<path fill="#0AA7B9" opacity="1.000000" stroke="none" 
	d="
M401.153534,246.873444 
	C401.244019,246.496964 401.488037,245.993942 401.866028,245.245453 
	C401.769043,245.582291 401.538055,246.164581 401.153534,246.873444 
z"/>
<path fill="#0AA7B9" opacity="1.000000" stroke="none" 
	d="
M525.003906,66.195557 
	C525.255981,66.497032 525.512024,66.994072 525.884033,67.745560 
	C525.669250,67.463707 525.338562,66.927414 525.003906,66.195557 
z"/>
<path fill="#0AA7B9" opacity="1.000000" stroke="none" 
	d="
M359.153564,323.873444 
	C359.244019,323.496979 359.488037,322.993927 359.866028,322.245453 
	C359.769043,322.582306 359.538055,323.164581 359.153564,323.873444 
z"/>
<path fill="#0AA7B9" opacity="1.000000" stroke="none" 
	d="
M365.153564,312.873444 
	C365.244019,312.496979 365.488068,311.993927 365.866028,311.245453 
	C365.769043,311.582306 365.538086,312.164581 365.153564,312.873444 
z"/>
<path fill="#0AA7B9" opacity="1.000000" stroke="none" 
	d="
M503.153534,59.873444 
	C503.244049,59.496967 503.488098,58.993931 503.866058,58.245449 
	C503.769043,58.582298 503.538055,59.164589 503.153534,59.873444 
z"/>
<path fill="#0AA7B9" opacity="1.000000" stroke="none" 
	d="
M371.153564,301.873444 
	C371.244019,301.496979 371.488068,300.993927 371.866028,300.245453 
	C371.769043,300.582306 371.538086,301.164612 371.153564,301.873444 
z"/>
<path fill="#0AA7B9" opacity="1.000000" stroke="none" 
	d="
M377.153564,290.873444 
	C377.244049,290.496979 377.488068,289.993927 377.866028,289.245453 
	C377.769043,289.582306 377.538055,290.164581 377.153564,290.873444 
z"/>
<path fill="#0AA7B9" opacity="1.000000" stroke="none" 
	d="
M383.153534,279.873444 
	C383.244049,279.496979 383.488068,278.993958 383.866028,278.245453 
	C383.769012,278.582275 383.538055,279.164581 383.153534,279.873444 
z"/>
<path fill="#0AA7B9" opacity="1.000000" stroke="none" 
	d="
M389.153564,268.873444 
	C389.244049,268.496979 389.488068,267.993958 389.866058,267.245453 
	C389.769043,267.582306 389.538086,268.164612 389.153564,268.873444 
z"/>
<path fill="#0AA7B9" opacity="1.000000" stroke="none" 
	d="
M395.153564,257.873444 
	C395.244019,257.496979 395.488037,256.993927 395.866028,256.245453 
	C395.769043,256.582306 395.538055,257.164581 395.153564,257.873444 
z"/>
<path fill="#0AA7B9" opacity="1.000000" stroke="none" 
	d="
M347.153534,345.873444 
	C347.244049,345.496979 347.488068,344.993927 347.866028,344.245453 
	C347.769012,344.582275 347.538055,345.164581 347.153534,345.873444 
z"/>
<path fill="#0AA7B9" opacity="1.000000" stroke="none" 
	d="
M407.153534,235.873444 
	C407.244019,235.496964 407.488037,234.993942 407.866028,234.245453 
	C407.769012,234.582291 407.538055,235.164581 407.153534,235.873444 
z"/>
<path fill="#0AA7B9" opacity="1.000000" stroke="none" 
	d="
M413.153534,224.873444 
	C413.244049,224.496979 413.488068,223.993958 413.866028,223.245453 
	C413.769012,223.582291 413.538025,224.164581 413.153534,224.873444 
z"/>
<path fill="#0AA7B9" opacity="1.000000" stroke="none" 
	d="
M419.153503,213.873444 
	C419.244019,213.496979 419.488068,212.993942 419.866028,212.245453 
	C419.769012,212.582291 419.538025,213.164581 419.153503,213.873444 
z"/>
<path fill="#0AA7B9" opacity="1.000000" stroke="none" 
	d="
M425.153534,202.873444 
	C425.244019,202.496979 425.488068,201.993942 425.866028,201.245453 
	C425.769012,201.582291 425.538055,202.164581 425.153534,202.873444 
z"/>
<path fill="#0AA7B9" opacity="1.000000" stroke="none" 
	d="
M494.773041,196.171555 
	C494.484619,196.552292 493.969269,197.104584 493.226959,197.828445 
	C493.515350,197.447708 494.030731,196.895416 494.773041,196.171555 
z"/>
<path fill="#0AA7B9" opacity="1.000000" stroke="none" 
	d="
M431.153534,191.873444 
	C431.244019,191.496964 431.488037,190.993942 431.866028,190.245453 
	C431.769012,190.582291 431.538025,191.164581 431.153534,191.873444 
z"/>
<path fill="#0AA7B9" opacity="1.000000" stroke="none" 
	d="
M500.773041,185.171555 
	C500.484650,185.552307 499.969299,186.104614 499.226959,186.828445 
	C499.515350,186.447693 500.030701,185.895386 500.773041,185.171555 
z"/>
<path fill="#0AA7B9" opacity="1.000000" stroke="none" 
	d="
M437.153534,180.873444 
	C437.244049,180.496979 437.488068,179.993958 437.866028,179.245453 
	C437.769012,179.582291 437.538025,180.164581 437.153534,180.873444 
z"/>
</svg>