<svg xmlns="http://www.w3.org/2000/svg" width="24" height="24" fill="none" viewBox="0 0 24 24">
  <path fill="#99A7B3" d="M15.9 7.7a1.301 1.301 0 010 2.6A1.302 1.302 0 0114.6 9c0-.717.583-1.3 1.3-1.3zm0 4.6c1.82 0 3.3-1.48 3.3-3.3 0-1.82-1.48-3.3-3.3-3.3A3.304 3.304 0 0012.6 9c0 1.82 1.48 3.3 3.3 3.3zM6 20c-.551 0-1-.448-1-1v-2.586l3-3 5.293 5.293a.997.997 0 001.414 0l2.263-2.263 3.233 3.515c-.068.015-.131.041-.203.041H6zm-3.197-8l1.752-1.168C4.833 10.646 5 10.334 5 10V5c0-.552.449-1 1-1h14a1 1 0 011 1v12.871l-3.264-3.548a1 1 0 00-1.443-.03L14 16.586l-5.293-5.294a1.03 1.03 0 00-1.414 0l-2.362 2.363a1.004 1.004 0 00-.376-.487L2.803 12zM20 2H6C4.346 2 3 3.345 3 5v4.464L.445 11.167a1.002 1.002 0 000 1.665L3 14.535V19c0 1.654 1.346 3 3 3h14c1.654 0 3-1.346 3-3V5c0-1.655-1.346-3-3-3z"></path>
</svg>