<svg xmlns="http://www.w3.org/2000/svg" width="24" height="24" fill="none" viewBox="0 0 24 24">
  <path fill="#15A6B7" d="M7.593 15.164l-1.7-1a1 1 0 011.013-1.724l1.701.999a1.002 1.002 0 01-1.014 1.725zm7.288-8.6C17.989 7.917 20 10.926 20 14.401c0 4.676-3.504 8.372-8.151 8.6H5a1 1 0 110-1.999h6.8c3.514-.173 6.2-3.01 6.2-6.6 0-2.997-1.954-5.543-4.862-6.336a1 1 0 01-.598-1.475l1.076-1.817-2.545-1.42-3.695 6.37 2.561 1.43 1.103-1.862a1 1 0 011.082-.466c2.653.603 4.578 2.948 4.578 5.575 0 3.143-2.656 5.8-5.8 5.8a5.764 5.764 0 01-3.791-1.4H5a1 1 0 110-2h2.5c.265 0 .52.106.707.293a3.78 3.78 0 002.693 1.107c2.06 0 3.8-1.74 3.8-3.8 0-1.474-.953-2.815-2.345-3.406l-1.195 2.016a.998.998 0 01-1.347.363l-4.3-2.4A1.003 1.003 0 015.135 9.6l4.701-8.1a.996.996 0 011.352-.37l4.299 2.4a1.002 1.002 0 01.373 1.382l-.979 1.653z"></path>
</svg>