<svg xmlns="http://www.w3.org/2000/svg" width="1668" height="835">
 <!-- Created with Image Occlusion Enhanced -->
 <g>
  <title>Labels</title>
 </g>
 <g>
  <title>Masks</title>
  <rect id="a22b627aa2194d7590ea99655dcaeadc-ao-1" height="178.33334" width="280" y="258.33333" x="683.6667" stroke="#2D2D2D" fill="#FFEBA2"/>
  <rect id="a22b627aa2194d7590ea99655dcaeadc-ao-2" height="185" width="286.66667" y="255" x="987.00003" stroke="#2D2D2D" fill="#FFEBA2"/>
  <rect id="a22b627aa2194d7590ea99655dcaeadc-ao-3" height="190" width="288.33334" y="253.33333" x="1290.33337" stroke="#2D2D2D" fill="#FFEBA2"/>
  <rect id="a22b627aa2194d7590ea99655dcaeadc-ao-4" height="173.33334" width="283.33334" y="260" x="380.33336" stroke="#2D2D2D" fill="#FFEBA2"/>
  <rect id="a22b627aa2194d7590ea99655dcaeadc-ao-5" height="110" width="280" y="455" x="380.33336" stroke="#2D2D2D" fill="#FFEBA2"/>
  <rect id="a22b627aa2194d7590ea99655dcaeadc-ao-6" height="103.33333" width="280" y="456.66667" x="690.33336" stroke="#2D2D2D" fill="#FFEBA2"/>
  <rect id="a22b627aa2194d7590ea99655dcaeadc-ao-7" height="113.33333" width="291.66667" y="450" x="985.33337" stroke="#2D2D2D" fill="#FFEBA2"/>
  <rect id="a22b627aa2194d7590ea99655dcaeadc-ao-8" height="105" width="281.66667" y="456.66667" x="1292.00004" stroke="#2D2D2D" fill="#FFEBA2"/>
  <rect id="a22b627aa2194d7590ea99655dcaeadc-ao-9" height="106.66667" width="286.66667" y="583.33334" x="380.33336" stroke="#2D2D2D" fill="#FFEBA2"/>
  <rect id="a22b627aa2194d7590ea99655dcaeadc-ao-10" height="113.33333" width="281.66667" y="578.33334" x="685.33336" stroke="#2D2D2D" fill="#FFEBA2"/>
  <rect id="a22b627aa2194d7590ea99655dcaeadc-ao-11" height="110" width="285" y="580" x="988.6667" stroke="#2D2D2D" fill="#FFEBA2"/>
  <rect id="a22b627aa2194d7590ea99655dcaeadc-ao-12" height="105" width="281.66667" y="583.33334" x="1295.33337" stroke="#2D2D2D" fill="#FFEBA2"/>
  <rect id="a22b627aa2194d7590ea99655dcaeadc-ao-13" height="45" width="280" y="701.66667" x="382.00003" stroke="#2D2D2D" fill="#FFEBA2"/>
  <rect id="a22b627aa2194d7590ea99655dcaeadc-ao-14" height="45" width="285" y="700" x="682.00003" stroke="#2D2D2D" fill="#FFEBA2"/>
  
  <rect id="a22b627aa2194d7590ea99655dcaeadc-ao-16" height="36.66667" width="286.66667" y="705" x="1292.00004" stroke="#2D2D2D" fill="#FFEBA2"/>
 </g>
</svg>