<svg xmlns="http://www.w3.org/2000/svg" width="1600" height="978.9999999999999">
 <!-- Created with Image Occlusion Enhanced -->
 <g>
  <title>Labels</title>
 </g>
 <g>
  <title>Masks</title>
  <rect id="a8a8e18b8f554f64b499db454e6648af-ao-1" height="47.00855" width="111.11111" y="153.47856" x="1040.17094" stroke="#2D2D2D" fill="#007fff"/>
  <rect id="a8a8e18b8f554f64b499db454e6648af-ao-2" height="46.15385" width="134.18803" y="217.58113" x="1064.95726" stroke="#2D2D2D" fill="#007fff"/>
  <rect id="a8a8e18b8f554f64b499db454e6648af-ao-3" height="25.64103" width="125.64103" y="279.97429" x="1090.59829" stroke="#2D2D2D" fill="#007fff"/>
  <rect id="a8a8e18b8f554f64b499db454e6648af-ao-4" height="22.22222" width="117.94872" y="323.56403" x="1092.30769" stroke="#2D2D2D" fill="#FF7E7E" class="qshape"/>
  <rect id="a8a8e18b8f554f64b499db454e6648af-ao-5" height="67.52137" width="92.30769" y="359.46147" x="1091.45299" stroke="#2D2D2D" fill="#007fff"/>
  <rect id="a8a8e18b8f554f64b499db454e6648af-ao-6" height="46.15385" width="106.83761" y="301.34181" x="517.94872" stroke="#2D2D2D" fill="#007fff"/>
  <rect id="a8a8e18b8f554f64b499db454e6648af-ao-7" height="40.17094" width="101.7094" y="220.99993" x="529.91453" stroke="#2D2D2D" fill="#007fff"/>
  <rect id="a8a8e18b8f554f64b499db454e6648af-ao-8" height="51.28205" width="84.61538" y="150.05976" x="541.02564" stroke="#2D2D2D" fill="#007fff"/>
  <rect id="a8a8e18b8f554f64b499db454e6648af-ao-9" height="52.13675" width="103.4188" y="528.69224" x="682.90598" stroke="#2D2D2D" fill="#007fff"/>
  <rect id="a8a8e18b8f554f64b499db454e6648af-ao-10" height="71.79487" width="97.4359" y="594.5042" x="730.76923" stroke="#2D2D2D" fill="#007fff"/>
  <rect id="a8a8e18b8f554f64b499db454e6648af-ao-11" height="49.57265" width="80.34188" y="683.39309" x="756.41026" stroke="#2D2D2D" fill="#007fff"/>
  <rect id="a8a8e18b8f554f64b499db454e6648af-ao-12" height="39.31624" width="92.30769" y="753.47856" x="755.55556" stroke="#2D2D2D" fill="#007fff"/>
  <rect id="a8a8e18b8f554f64b499db454e6648af-ao-13" height="77.77778" width="92.30769" y="819.29053" x="755.55556" stroke="#2D2D2D" fill="#007fff"/>
  <rect id="a8a8e18b8f554f64b499db454e6648af-ao-14" height="42.73504" width="102.5641" y="897.06831" x="563.24786" stroke="#2D2D2D" fill="#007fff"/>
  <rect id="a8a8e18b8f554f64b499db454e6648af-ao-15" height="51.28205" width="80.34188" y="895.35891" x="446.15385" stroke="#2D2D2D" fill="#007fff"/>
  <rect id="a8a8e18b8f554f64b499db454e6648af-ao-16" height="71.79487" width="128.20513" y="872.28198" x="275.21368" stroke="#2D2D2D" fill="#007fff"/>
  <rect id="a8a8e18b8f554f64b499db454e6648af-ao-17" height="90.59829" width="143.58974" y="760.31617" x="150.42735" stroke="#2D2D2D" fill="#007fff"/>
  <rect id="a8a8e18b8f554f64b499db454e6648af-ao-18" height="34.18803" width="134.18803" y="709.03412" x="152.99145" stroke="#2D2D2D" fill="#007fff"/>
  <rect id="a8a8e18b8f554f64b499db454e6648af-ao-19" height="79.48718" width="111.96581" y="614.16232" x="185.47009" stroke="#2D2D2D" fill="#007fff"/>
  <rect id="a8a8e18b8f554f64b499db454e6648af-ao-20" height="52.99145" width="78.63248" y="544.07685" x="220.51282" stroke="#2D2D2D" fill="#007fff"/>
  <rect id="a8a8e18b8f554f64b499db454e6648af-ao-21" height="54.70085" width="95.7265" y="482.53839" x="225.64103" stroke="#2D2D2D" fill="#007fff"/>
  <rect id="a8a8e18b8f554f64b499db454e6648af-ao-22" height="53.84615" width="76.06838" y="420.14523" x="270.08547" stroke="#2D2D2D" fill="#007fff"/>
  <rect id="a8a8e18b8f554f64b499db454e6648af-ao-23" height="55.55556" width="75.21368" y="456.89737" x="1384.61538" stroke="#2D2D2D" fill="#007fff"/>
  <rect id="a8a8e18b8f554f64b499db454e6648af-ao-24" height="44.44444" width="79.48718" y="597.06831" x="1367.52137" stroke="#2D2D2D" fill="#007fff"/>
  <rect id="a8a8e18b8f554f64b499db454e6648af-ao-25" height="39.31624" width="84.61538" y="659.46147" x="1364.10256" stroke="#2D2D2D" fill="#007fff"/>
  <rect id="a8a8e18b8f554f64b499db454e6648af-ao-26" height="40.17094" width="73.50427" y="723.56403" x="1367.52137" stroke="#2D2D2D" fill="#007fff"/>
  <rect id="a8a8e18b8f554f64b499db454e6648af-ao-27" height="40.17094" width="85.47009" y="780.82899" x="1362.39316" stroke="#2D2D2D" fill="#007fff"/>
  <rect id="a8a8e18b8f554f64b499db454e6648af-ao-28" height="48.71795" width="67.52137" y="842.36745" x="1367.52137" stroke="#2D2D2D" fill="#007fff"/>
  <rect id="a8a8e18b8f554f64b499db454e6648af-ao-29" height="46.15385" width="103.4188" y="897.92301" x="1217.94872" stroke="#2D2D2D" fill="#007fff"/>
  <rect id="a8a8e18b8f554f64b499db454e6648af-ao-30" height="52.13675" width="75.21368" y="892.7948" x="1109.40171" stroke="#2D2D2D" fill="#007fff"/>
  <rect id="a8a8e18b8f554f64b499db454e6648af-ao-31" height="46.15385" width="69.23077" y="894.5042" x="942.73504" stroke="#2D2D2D" fill="#007fff"/>
  <rect id="a8a8e18b8f554f64b499db454e6648af-ao-32" height="77.77778" width="100" y="591.9401" x="869.23077" stroke="#2D2D2D" fill="#007fff"/>
  <rect id="a8a8e18b8f554f64b499db454e6648af-ao-33" height="41.02564" width="100" y="532.96574" x="918.80342" stroke="#2D2D2D" fill="#007fff"/>
 </g>
</svg>