<svg xmlns="http://www.w3.org/2000/svg" width="1284" height="1269">
 <!-- Created with Image Occlusion Enhanced -->
 <g>
  <title>Labels</title>
 </g>
 <g>
  <title>Masks</title>
  <rect id="b0c1b20cbea742c18aad172a8857da48-ao-1" height="36.95652" width="126.08696" y="120.56524" x="5.13038" stroke="#2D2D2D" fill="#007fff"/>
  <rect id="b0c1b20cbea742c18aad172a8857da48-ao-2" height="26.08696" width="130.43478" y="194.47829" x="0.78255" stroke="#2D2D2D" fill="#007fff"/>
  <rect id="b0c1b20cbea742c18aad172a8857da48-ao-3" height="43.47826" width="132.6087" y="309.69568" x="0.78255" stroke="#2D2D2D" fill="#007fff"/>
  <rect id="b0c1b20cbea742c18aad172a8857da48-ao-4" height="28.26087" width="67.39131" y="387.95655" x="61.65212" stroke="#2D2D2D" fill="#007fff"/>
  <rect id="b0c1b20cbea742c18aad172a8857da48-ao-5" height="15.21739" width="97.82609" y="444.47829" x="26.86951" stroke="#2D2D2D" fill="#007fff"/>
  <rect id="b0c1b20cbea742c18aad172a8857da48-ao-6" height="19.56522" width="104.34783" y="555.34786" x="18.17385" stroke="#2D2D2D" fill="#007fff"/>
  <rect id="b0c1b20cbea742c18aad172a8857da48-ao-7" height="17.3913" width="113.04348" y="659.69568" x="9.4782" stroke="#2D2D2D" fill="#007fff"/>
  <rect id="b0c1b20cbea742c18aad172a8857da48-ao-8" height="43.47826" width="119.56522" y="716.21742" x="5.13038" stroke="#2D2D2D" fill="#007fff"/>
  <rect id="b0c1b20cbea742c18aad172a8857da48-ao-9" height="39.13044" width="126.08696" y="790.13047" x="0.78255" stroke="#2D2D2D" fill="#007fff"/>
  <rect id="b0c1b20cbea742c18aad172a8857da48-ao-10" height="39.13043" width="101.08696" y="857.08694" x="33.84783" stroke="#2D2D2D" fill="#007fff"/>
  <rect id="b0c1b20cbea742c18aad172a8857da48-ao-11" height="24.45652" width="91.30435" y="922.30433" x="40.36957" stroke="#2D2D2D" fill="#007fff"/>
  <rect id="b0c1b20cbea742c18aad172a8857da48-ao-12" height="19.56522" width="117.3913" y="976.10867" x="11.02175" stroke="#2D2D2D" fill="#007fff"/>
  
  <rect id="b0c1b20cbea742c18aad172a8857da48-ao-14" height="44.02174" width="174.45652" y="12.52173" x="1003.95652" stroke="#2D2D2D" fill="#007fff"/>
  <rect id="b0c1b20cbea742c18aad172a8857da48-ao-15" height="27.71739" width="176.08695" y="79.36955" x="1038.19565" stroke="#2D2D2D" fill="#007fff"/>
  <rect id="b0c1b20cbea742c18aad172a8857da48-ao-16" height="24.45652" width="102.71739" y="126.65216" x="1067.54347" stroke="#2D2D2D" fill="#007fff"/>
  <rect id="b0c1b20cbea742c18aad172a8857da48-ao-17" height="37.5" width="123.91304" y="175.5652" x="1113.19565" stroke="#2D2D2D" fill="#007fff"/>
  <rect id="b0c1b20cbea742c18aad172a8857da48-ao-18" height="61.95652" width="177.71739" y="242.41303" x="1105.04347" stroke="#2D2D2D" fill="#007fff"/>
  <rect id="b0c1b20cbea742c18aad172a8857da48-ao-19" height="45.65217" width="150" y="336.97825" x="1106.67391" stroke="#2D2D2D" fill="#007fff"/>
  <rect id="b0c1b20cbea742c18aad172a8857da48-ao-20" height="29.34783" width="141.84782" y="400.5652" x="1103.41304" stroke="#2D2D2D" fill="#007fff"/>
  <rect id="b0c1b20cbea742c18aad172a8857da48-ao-21" height="47.28261" width="112.5" y="454.36955" x="1116.45652" stroke="#2D2D2D" fill="#007fff"/>
  <rect id="b0c1b20cbea742c18aad172a8857da48-ao-22" height="21.19565" width="128.80435" y="535.89129" x="1111.56521" stroke="#2D2D2D" fill="#007fff"/>
  <rect id="b0c1b20cbea742c18aad172a8857da48-ao-23" height="48.91304" width="114.13043" y="586.43477" x="1113.19565" stroke="#2D2D2D" fill="#007fff"/>
  <rect id="b0c1b20cbea742c18aad172a8857da48-ao-24" height="26.08696" width="109.23913" y="733.17389" x="1111.56521" stroke="#2D2D2D" fill="#007fff"/>
  <rect id="b0c1b20cbea742c18aad172a8857da48-ao-25" height="27.71739" width="122.28261" y="786.97824" x="1114.82608" stroke="#2D2D2D" fill="#007fff"/>
  <rect id="b0c1b20cbea742c18aad172a8857da48-ao-26" height="45.65217" width="133.69565" y="842.41302" x="1108.30434" stroke="#2D2D2D" fill="#007fff"/>
  <rect id="b0c1b20cbea742c18aad172a8857da48-ao-27" height="44.02174" width="148.36956" y="920.67389" x="1113.19565" stroke="#2D2D2D" fill="#007fff"/>
  <rect id="b0c1b20cbea742c18aad172a8857da48-ao-28" height="61.95652" width="148.36956" y="997.30433" x="1111.56521" stroke="#2D2D2D" fill="#007fff"/>
  <rect id="b0c1b20cbea742c18aad172a8857da48-ao-29" height="42.3913" width="123.91304" y="1088.60867" x="1109.93478" stroke="#2D2D2D" fill="#007fff"/>
 </g>
</svg>