<svg xmlns="http://www.w3.org/2000/svg" width="1355" height="1135">
 <!-- Created with Image Occlusion Enhanced -->
 <g>
  <title>Labels</title>
 </g>
 <g>
  <title>Masks</title>
  <rect id="be5776372d6946dbae921fdc520fb65a-ao-1" height="45.54456" width="283.16832" y="69.95052" x="944.99993" stroke="#2D2D2D" fill="#007fff"/>
  <rect id="be5776372d6946dbae921fdc520fb65a-ao-2" height="76.23763" width="249.50496" y="152.12874" x="956.88112" stroke="#2D2D2D" fill="#007fff"/>
  <rect id="be5776372d6946dbae921fdc520fb65a-ao-3" height="48.51485" width="234.65347" y="257.07924" x="948.96033" stroke="#2D2D2D" fill="#007fff"/>
  <rect id="be5776372d6946dbae921fdc520fb65a-ao-4" height="71.28713" width="203.9604" y="336.28716" x="946.98013" stroke="#2D2D2D" fill="#007fff"/>
  <rect id="be5776372d6946dbae921fdc520fb65a-ao-5" height="51.48515" width="197.02971" y="430.34657" x="956.88112" stroke="#2D2D2D" fill="#007fff"/>
  <rect id="be5776372d6946dbae921fdc520fb65a-ao-6" height="35.64357" width="173.26733" y="504.604" x="953.91082" stroke="#2D2D2D" fill="#007fff"/>
  <rect id="be5776372d6946dbae921fdc520fb65a-ao-7" height="88.11881" width="238.61387" y="682.82182" x="951.93063" stroke="#2D2D2D" fill="#007fff"/>
  <rect id="be5776372d6946dbae921fdc520fb65a-ao-8" height="44.55446" width="174.25743" y="799.65351" x="954.90092" stroke="#2D2D2D" fill="#007fff"/>
  <rect id="be5776372d6946dbae921fdc520fb65a-ao-9" height="79.20792" width="241.58416" y="987.77232" x="169.75239" stroke="#2D2D2D" fill="#007fff"/>
  <rect id="be5776372d6946dbae921fdc520fb65a-ao-10" height="67.32673" width="199.00991" y="778.86143" x="217.27715" stroke="#2D2D2D" fill="#007fff"/>
  <rect id="be5776372d6946dbae921fdc520fb65a-ao-11" height="81.18812" width="248.51486" y="663.01984" x="172.72269" stroke="#2D2D2D" fill="#007fff"/>
  <rect id="be5776372d6946dbae921fdc520fb65a-ao-12" height="31.68317" width="195.04951" y="602.6238" x="211.33655" stroke="#2D2D2D" fill="#007fff"/>
  <rect id="be5776372d6946dbae921fdc520fb65a-ao-13" height="34.65347" width="178.21783" y="505.59409" x="227.17814" stroke="#2D2D2D" fill="#FF7E7E" class="qshape"/>
  <rect id="be5776372d6946dbae921fdc520fb65a-ao-14" height="73.26733" width="223.76238" y="399.6535" x="184.60388" stroke="#2D2D2D" fill="#007fff"/>
  <rect id="be5776372d6946dbae921fdc520fb65a-ao-15" height="37.62376" width="129.70297" y="336.28716" x="285.59398" stroke="#2D2D2D" fill="#007fff"/>
  <rect id="be5776372d6946dbae921fdc520fb65a-ao-16" height="74.25743" width="227.72278" y="231.33666" x="185.59398" stroke="#2D2D2D" fill="#007fff"/>
  <rect id="be5776372d6946dbae921fdc520fb65a-ao-17" height="42.57426" width="239.60397" y="160.04953" x="169.75239" stroke="#2D2D2D" fill="#007fff"/>
  <rect id="be5776372d6946dbae921fdc520fb65a-ao-18" height="64.35644" width="204.9505" y="67.97032" x="215.29695" stroke="#2D2D2D" fill="#007fff"/>
 </g>
</svg>