<svg xmlns="http://www.w3.org/2000/svg" width="1449" height="1460.9999999999998">
 <!-- Created with Image Occlusion Enhanced -->
 <g>
  <title>Labels</title>
 </g>
 <g>
  <title>Masks</title>
  <rect id="c001d23f09f74407b7dc357e5dc59275-ao-1" height="30.76923" width="105.12821" y="137.71801" x="1263.82059" stroke="#2D2D2D" fill="#007fff"/>
  <rect id="c001d23f09f74407b7dc357e5dc59275-ao-2" height="67.94872" width="141.02565" y="195.41032" x="1267.66674" stroke="#2D2D2D" fill="#007fff"/>
  <rect id="c001d23f09f74407b7dc357e5dc59275-ao-3" height="46.15385" width="138.46154" y="278.74366" x="1266.38469" stroke="#2D2D2D" fill="#007fff"/>
  <rect id="c001d23f09f74407b7dc357e5dc59275-ao-4" height="44.8718" width="120.51283" y="339.00007" x="1266.38469" stroke="#2D2D2D" fill="#007fff"/>
  <rect id="c001d23f09f74407b7dc357e5dc59275-ao-5" height="43.58975" width="128.20513" y="403.10264" x="1263.82059" stroke="#2D2D2D" fill="#007fff"/>
  <rect id="c001d23f09f74407b7dc357e5dc59275-ao-6" height="30.76923" width="148.71795" y="469.76931" x="1262.53854" stroke="#2D2D2D" fill="#007fff"/>
  <rect id="c001d23f09f74407b7dc357e5dc59275-ao-7" height="43.58975" width="103.84616" y="519.76931" x="1265.10264" stroke="#2D2D2D" fill="#007fff"/>
  <rect id="c001d23f09f74407b7dc357e5dc59275-ao-8" height="52.5641" width="82.05129" y="626.17957" x="1265.10264" stroke="#2D2D2D" fill="#007fff"/>
  <rect id="c001d23f09f74407b7dc357e5dc59275-ao-9" height="44.8718" width="91.02564" y="765.92316" x="1262.53854" stroke="#2D2D2D" fill="#007fff"/>
  <rect id="c001d23f09f74407b7dc357e5dc59275-ao-10" height="71.79487" width="79.48718" y="868.48727" x="1286.89751" stroke="#2D2D2D" fill="#007fff"/>
  <rect id="c001d23f09f74407b7dc357e5dc59275-ao-11" height="43.58975" width="71.79487" y="958.23086" x="1288.17957" stroke="#2D2D2D" fill="#007fff"/>
  <rect id="c001d23f09f74407b7dc357e5dc59275-ao-12" height="48.71795" width="130.76924" y="1342.84626" x="825.35903" stroke="#2D2D2D" fill="#007fff"/>
  <rect id="c001d23f09f74407b7dc357e5dc59275-ao-13" height="50" width="130.76924" y="1397.97447" x="731.76929" stroke="#2D2D2D" fill="#007fff"/>
  <rect id="c001d23f09f74407b7dc357e5dc59275-ao-14" height="41.02564" width="111.53847" y="1342.84626" x="635.61544" stroke="#2D2D2D" fill="#007fff"/>
  <rect id="c001d23f09f74407b7dc357e5dc59275-ao-15" height="24.35898" width="82.05129" y="1345.41036" x="538.17954" stroke="#2D2D2D" fill="#007fff"/>
  <rect id="c001d23f09f74407b7dc357e5dc59275-ao-16" height="50" width="183.33334" y="1397.97447" x="397.15389" stroke="#2D2D2D" fill="#007fff"/>
  <rect id="c001d23f09f74407b7dc357e5dc59275-ao-17" height="26.92308" width="102.56411" y="1340.28216" x="361.25645" stroke="#2D2D2D" fill="#007fff"/>
  <rect id="c001d23f09f74407b7dc357e5dc59275-ao-18" height="43.58975" width="130.76924" y="1208.23087" x="56.12824" stroke="#2D2D2D" fill="#007fff"/>
  <rect id="c001d23f09f74407b7dc357e5dc59275-ao-19" height="57.69231" width="138.46154" y="1132.58984" x="51.00003" stroke="#2D2D2D" fill="#007fff"/>
  <rect id="c001d23f09f74407b7dc357e5dc59275-ao-20" height="44.8718" width="123.07693" y="1073.61548" x="61.25644" stroke="#2D2D2D" fill="#007fff"/>
  <rect id="c001d23f09f74407b7dc357e5dc59275-ao-21" height="39.74359" width="119.23077" y="1019.76933" x="61.25644" stroke="#2D2D2D" fill="#FF7E7E" class="qshape"/>
  <rect id="c001d23f09f74407b7dc357e5dc59275-ao-22" height="43.58975" width="116.66667" y="963.35907" x="67.6667" stroke="#2D2D2D" fill="#007fff"/>
  <rect id="c001d23f09f74407b7dc357e5dc59275-ao-23" height="42.30769" width="135.89744" y="908.23086" x="51.00003" stroke="#2D2D2D" fill="#007fff"/>
  <rect id="c001d23f09f74407b7dc357e5dc59275-ao-24" height="41.02564" width="129.48718" y="851.8206" x="53.56413" stroke="#2D2D2D" fill="#007fff"/>
  <rect id="c001d23f09f74407b7dc357e5dc59275-ao-25" height="43.58975" width="130.76924" y="794.12829" x="66.38465" stroke="#2D2D2D" fill="#007fff"/>
  <rect id="c001d23f09f74407b7dc357e5dc59275-ao-26" height="50" width="120.51283" y="731.30778" x="86.89747" stroke="#2D2D2D" fill="#007fff"/>
  <rect id="c001d23f09f74407b7dc357e5dc59275-ao-27" height="43.58975" width="155.12821" y="672.33342" x="57.41029" stroke="#2D2D2D" fill="#007fff"/>
  <rect id="c001d23f09f74407b7dc357e5dc59275-ao-28" height="46.15385" width="128.20513" y="610.79495" x="90.74362" stroke="#2D2D2D" fill="#007fff"/>
  <rect id="c001d23f09f74407b7dc357e5dc59275-ao-29" height="29.48718" width="155.12821" y="551.82059" x="65.1026" stroke="#2D2D2D" fill="#007fff"/>
  <rect id="c001d23f09f74407b7dc357e5dc59275-ao-30" height="57.69231" width="129.48718" y="435.15392" x="89.46157" stroke="#2D2D2D" fill="#007fff"/>
  <rect id="c001d23f09f74407b7dc357e5dc59275-ao-31" height="28.20513" width="142.3077" y="367.2052" x="70.2308" stroke="#2D2D2D" fill="#007fff"/>
  <rect id="c001d23f09f74407b7dc357e5dc59275-ao-32" height="52.5641" width="121.79488" y="282.58981" x="89.46157" stroke="#2D2D2D" fill="#007fff"/>
  <rect id="c001d23f09f74407b7dc357e5dc59275-ao-33" height="34.61539" width="123.07693" y="182.58981" x="93.30772" stroke="#2D2D2D" fill="#007fff"/>
 </g>
</svg>