<svg xmlns="http://www.w3.org/2000/svg" width="1227" height="717">
 <!-- Created with Image Occlusion Enhanced -->
 <g>
  <title>Labels</title>
 </g>
 <g>
  <title>Masks</title>
  <rect id="ca32725fd3724688a2b52dbd8fcfa64f-ao-1" height="46.54088" width="103.77358" y="25.76728" x="631.49051" stroke="#2D2D2D" fill="#007fff"/>
  <rect id="ca32725fd3724688a2b52dbd8fcfa64f-ao-2" height="49.68553" width="100.62893" y="45.26413" x="878.66032" stroke="#2D2D2D" fill="#007fff"/>
  <rect id="ca32725fd3724688a2b52dbd8fcfa64f-ao-3" height="45.91195" width="145.91195" y="116.33331" x="928.34585" stroke="#2D2D2D" fill="#007fff"/>
  <rect id="ca32725fd3724688a2b52dbd8fcfa64f-ao-4" height="25.15723" width="126.41509" y="186.77356" x="961.67919" stroke="#2D2D2D" fill="#007fff"/>
  <rect id="ca32725fd3724688a2b52dbd8fcfa64f-ao-5" height="23.27044" width="96.85534" y="241.49054" x="984.32069" stroke="#2D2D2D" fill="#007fff"/>
  <rect id="ca32725fd3724688a2b52dbd8fcfa64f-ao-6" height="56.60377" width="183.64779" y="293.06287" x="981.80497" stroke="#2D2D2D" fill="#007fff"/>
  <rect id="ca32725fd3724688a2b52dbd8fcfa64f-ao-7" height="21.38365" width="118.23899" y="368.53456" x="984.94963" stroke="#2D2D2D" fill="#007fff"/>
  <rect id="ca32725fd3724688a2b52dbd8fcfa64f-ao-8" height="44.65409" width="143.39622" y="410.044" x="983.69176" stroke="#2D2D2D" fill="#007fff"/>
  <rect id="ca32725fd3724688a2b52dbd8fcfa64f-ao-9" height="41.50943" width="123.27044" y="474.82387" x="982.4339" stroke="#2D2D2D" fill="#FF7E7E" class="qshape"/>
  <rect id="ca32725fd3724688a2b52dbd8fcfa64f-ao-10" height="24.5283" width="140.25157" y="544.00626" x="981.17604" stroke="#2D2D2D" fill="#007fff"/>
  <rect id="ca32725fd3724688a2b52dbd8fcfa64f-ao-11" height="27.67296" width="141.50943" y="591.17607" x="979.28925" stroke="#2D2D2D" fill="#007fff"/>
  <rect id="ca32725fd3724688a2b52dbd8fcfa64f-ao-12" height="22.64151" width="111.94968" y="645.26412" x="981.80497" stroke="#2D2D2D" fill="#007fff"/>
  <rect id="ca32725fd3724688a2b52dbd8fcfa64f-ao-13" height="52.20126" width="145.28302" y="615.07544" x="611.36473" stroke="#2D2D2D" fill="#007fff"/>
  <rect id="ca32725fd3724688a2b52dbd8fcfa64f-ao-14" height="45.91195" width="74.21383" y="558.47167" x="560.42133" stroke="#2D2D2D" fill="#007fff"/>
  <rect id="ca32725fd3724688a2b52dbd8fcfa64f-ao-15" height="47.16981" width="106.91824" y="620.10688" x="449.72951" stroke="#2D2D2D" fill="#007fff"/>
  <rect id="ca32725fd3724688a2b52dbd8fcfa64f-ao-16" height="42.13836" width="93.71069" y="563.50311" x="361.05027" stroke="#2D2D2D" fill="#007fff"/>
  <rect id="ca32725fd3724688a2b52dbd8fcfa64f-ao-17" height="25.15723" width="130.18868" y="508.78613" x="245.95593" stroke="#2D2D2D" fill="#007fff"/>
  <rect id="ca32725fd3724688a2b52dbd8fcfa64f-ao-18" height="40.8805" width="164.15094" y="443.37733" x="163.566" stroke="#2D2D2D" fill="#007fff"/>
  <rect id="ca32725fd3724688a2b52dbd8fcfa64f-ao-19" height="24.5283" width="140.25157" y="392.43393" x="148.47166" stroke="#2D2D2D" fill="#007fff"/>
  <rect id="ca32725fd3724688a2b52dbd8fcfa64f-ao-20" height="40.25157" width="184.27672" y="318.84903" x="56.64776" stroke="#2D2D2D" fill="#007fff"/>
  <rect id="ca32725fd3724688a2b52dbd8fcfa64f-ao-21" height="22.01258" width="107.54717" y="245.26413" x="77.40248" stroke="#2D2D2D" fill="#007fff"/>
  <rect id="ca32725fd3724688a2b52dbd8fcfa64f-ao-22" height="49.68553" width="132.7044" y="145.89306" x="13.88047" stroke="#2D2D2D" fill="#007fff"/>
  <rect id="ca32725fd3724688a2b52dbd8fcfa64f-ao-23" height="49.0566" width="146.54088" y="27.02514" x="222.68549" stroke="#2D2D2D" fill="#007fff"/>
  <rect id="ca32725fd3724688a2b52dbd8fcfa64f-ao-24" height="51.57233" width="164.15094" y="24.50941" x="432.74838" stroke="#2D2D2D" fill="#007fff"/>
 </g>
</svg>