<svg xmlns="http://www.w3.org/2000/svg" width="1600" height="1357">
 <!-- Created with Image Occlusion Enhanced -->
 <g>
  <title>Labels</title>
 </g>
 <g>
  <title>Masks</title>
  <rect id="dc70014a50a1486db31c8341ec064da7-ao-1" height="54.7619" width="113.09524" y="12.04761" x="120.2381" stroke="#2D2D2D" fill="#007fff"/>
  <rect id="dc70014a50a1486db31c8341ec064da7-ao-2" height="47.61905" width="78.57143" y="17.99999" x="286.90476" stroke="#2D2D2D" fill="#007fff"/>
  <rect id="dc70014a50a1486db31c8341ec064da7-ao-3" height="42.85714" width="88.09524" y="22.7619" x="419.04762" stroke="#2D2D2D" fill="#007fff"/>
  <rect id="dc70014a50a1486db31c8341ec064da7-ao-4" height="26.19048" width="73.80952" y="39.42856" x="548.80952" stroke="#2D2D2D" fill="#007fff"/>
  <rect id="dc70014a50a1486db31c8341ec064da7-ao-5" height="51.19048" width="107.14286" y="17.99999" x="661.90476" stroke="#2D2D2D" fill="#007fff"/>
  <rect id="dc70014a50a1486db31c8341ec064da7-ao-6" height="47.61905" width="90.47619" y="20.38094" x="1045.2381" stroke="#2D2D2D" fill="#007fff"/>
  <rect id="dc70014a50a1486db31c8341ec064da7-ao-7" height="36.90476" width="105.95238" y="39.42856" x="1186.90476" stroke="#2D2D2D" fill="#007fff"/>
  <rect id="dc70014a50a1486db31c8341ec064da7-ao-8" height="47.61905" width="75" y="644.19047" x="286.90476" stroke="#2D2D2D" fill="#FF7E7E" class="qshape"/>
  <rect id="dc70014a50a1486db31c8341ec064da7-ao-9" height="54.7619" width="116.66667" y="641.80952" x="409.52381" stroke="#2D2D2D" fill="#007fff"/>
  <rect id="dc70014a50a1486db31c8341ec064da7-ao-10" height="22.61905" width="60.71429" y="647.7619" x="566.66667" stroke="#2D2D2D" fill="#007fff"/>
  <rect id="dc70014a50a1486db31c8341ec064da7-ao-11" height="59.52381" width="86.90476" y="640.61904" x="667.85714" stroke="#2D2D2D" fill="#007fff"/>
  <rect id="dc70014a50a1486db31c8341ec064da7-ao-12" height="48.80952" width="79.7619" y="647.7619" x="988.09524" stroke="#2D2D2D" fill="#007fff"/>
  <rect id="dc70014a50a1486db31c8341ec064da7-ao-13" height="48.80952" width="92.85714" y="640.61904" x="1126.19048" stroke="#2D2D2D" fill="#007fff"/>
  <rect id="dc70014a50a1486db31c8341ec064da7-ao-14" height="51.19048" width="79.7619" y="644.19047" x="1254.7619" stroke="#2D2D2D" fill="#007fff"/>
  <rect id="dc70014a50a1486db31c8341ec064da7-ao-15" height="26.19048" width="52.38095" y="644.19047" x="1383.33333" stroke="#2D2D2D" fill="#007fff"/>
  <rect id="dc70014a50a1486db31c8341ec064da7-ao-16" height="46.42857" width="80.95238" y="1265.61904" x="188.09524" stroke="#2D2D2D" fill="#007fff"/>
  <rect id="dc70014a50a1486db31c8341ec064da7-ao-17" height="51.19048" width="111.90476" y="1264.42856" x="291.66667" stroke="#2D2D2D" fill="#007fff"/>
  <rect id="dc70014a50a1486db31c8341ec064da7-ao-18" height="48.80952" width="130.95238" y="1265.61904" x="427.38095" stroke="#2D2D2D" fill="#007fff"/>
  <rect id="dc70014a50a1486db31c8341ec064da7-ao-19" height="47.61905" width="78.57143" y="1266.80952" x="585.71429" stroke="#2D2D2D" fill="#007fff"/>
  <rect id="dc70014a50a1486db31c8341ec064da7-ao-20" height="26.19048" width="77.38095" y="1266.80952" x="690.47619" stroke="#2D2D2D" fill="#007fff"/>
  <rect id="dc70014a50a1486db31c8341ec064da7-ao-21" height="60.71429" width="86.90476" y="1257.28571" x="965.47619" stroke="#2D2D2D" fill="#007fff"/>
  <rect id="dc70014a50a1486db31c8341ec064da7-ao-22" height="58.33333" width="75" y="1260.85713" x="1100" stroke="#2D2D2D" fill="#007fff"/>
  <rect id="dc70014a50a1486db31c8341ec064da7-ao-23" height="57.14286" width="89.28571" y="1264.42856" x="1219.04762" stroke="#2D2D2D" fill="#007fff"/>
  <rect id="dc70014a50a1486db31c8341ec064da7-ao-24" height="41.66667" width="89.28571" y="1260.85713" x="1357.14286" stroke="#2D2D2D" fill="#007fff"/>
 </g>
</svg>