<svg xmlns="http://www.w3.org/2000/svg" width="1600" height="937.9999999999999">
 <!-- Created with Image Occlusion Enhanced -->
 <g>
  <title>Labels</title>
 </g>
 <g>
  <title>Masks</title>
  <rect id="e00143993fc44394b81f7ccaea12d833-ao-1" height="42.62295" width="125.40984" y="7.08198" x="600" stroke="#2D2D2D" fill="#007fff"/>
  <rect id="e00143993fc44394b81f7ccaea12d833-ao-2" height="24.59016" width="98.36066" y="30.0328" x="777.04918" stroke="#2D2D2D" fill="#007fff"/>
  <rect id="e00143993fc44394b81f7ccaea12d833-ao-3" height="52.45902" width="118.85246" y="7.90165" x="929.5082" stroke="#2D2D2D" fill="#007fff"/>
  <rect id="e00143993fc44394b81f7ccaea12d833-ao-4" height="52.45902" width="97.54098" y="27.57378" x="1088.52459" stroke="#2D2D2D" fill="#007fff"/>
  <rect id="e00143993fc44394b81f7ccaea12d833-ao-5" height="53.27869" width="118.85246" y="207.08198" x="1312.29509" stroke="#2D2D2D" fill="#007fff"/>
  <rect id="e00143993fc44394b81f7ccaea12d833-ao-6" height="55.73771" width="145.08197" y="277.57379" x="1310.65574" stroke="#2D2D2D" fill="#007fff"/>
  <rect id="e00143993fc44394b81f7ccaea12d833-ao-7" height="50.81967" width="161.47541" y="349.70493" x="1307.37706" stroke="#2D2D2D" fill="#007fff"/>
  <rect id="e00143993fc44394b81f7ccaea12d833-ao-8" height="30.32787" width="143.44262" y="419.37707" x="1309.0164" stroke="#2D2D2D" fill="#007fff"/>
  
  <rect id="e00143993fc44394b81f7ccaea12d833-ao-10" height="47.54098" width="86.06557" y="510.36067" x="1315.57378" stroke="#2D2D2D" fill="#007fff"/>
  <rect id="e00143993fc44394b81f7ccaea12d833-ao-11" height="24.59016" width="68.03279" y="582.49182" x="1316.39345" stroke="#2D2D2D" fill="#007fff"/>
  <rect id="e00143993fc44394b81f7ccaea12d833-ao-12" height="50" width="174.59017" y="693.14756" x="1272.13115" stroke="#2D2D2D" fill="#007fff"/>
  <rect id="e00143993fc44394b81f7ccaea12d833-ao-13" height="49.18033" width="168.85246" y="764.45904" x="1229.5082" stroke="#2D2D2D" fill="#007fff"/>
  <rect id="e00143993fc44394b81f7ccaea12d833-ao-14" height="29.5082" width="97.54098" y="826.75412" x="1113.11476" stroke="#2D2D2D" fill="#007fff"/>
  <rect id="e00143993fc44394b81f7ccaea12d833-ao-15" height="49.18033" width="118.03279" y="848.0656" x="962.29508" stroke="#2D2D2D" fill="#007fff"/>
  <rect id="e00143993fc44394b81f7ccaea12d833-ao-16" height="52.45902" width="106.55738" y="851.34429" x="818.85246" stroke="#2D2D2D" fill="#007fff"/>
  <rect id="e00143993fc44394b81f7ccaea12d833-ao-17" height="50.81967" width="171.31148" y="852.16396" x="608.19672" stroke="#2D2D2D" fill="#007fff"/>
  <rect id="e00143993fc44394b81f7ccaea12d833-ao-18" height="50" width="94.2623" y="827.57379" x="481.14754" stroke="#2D2D2D" fill="#007fff"/>
  <rect id="e00143993fc44394b81f7ccaea12d833-ao-19" height="19.67213" width="86.88525" y="813.63937" x="355.7377" stroke="#2D2D2D" fill="#007fff"/>
  <rect id="e00143993fc44394b81f7ccaea12d833-ao-20" height="57.37705" width="105.73771" y="709.541" x="253.27868" stroke="#2D2D2D" fill="#007fff"/>
  <rect id="e00143993fc44394b81f7ccaea12d833-ao-21" height="26.22951" width="136.88525" y="652.16395" x="205.7377" stroke="#2D2D2D" fill="#007fff"/>
  <rect id="e00143993fc44394b81f7ccaea12d833-ao-22" height="43.44262" width="127.86885" y="577.57379" x="192.62294" stroke="#2D2D2D" fill="#007fff"/>
  <rect id="e00143993fc44394b81f7ccaea12d833-ao-23" height="44.2623" width="119.67213" y="509.541" x="204.91803" stroke="#2D2D2D" fill="#007fff"/>
  <rect id="e00143993fc44394b81f7ccaea12d833-ao-24" height="26.22951" width="119.67213" y="463.63936" x="197.54098" stroke="#2D2D2D" fill="#007fff"/>
  <rect id="e00143993fc44394b81f7ccaea12d833-ao-25" height="46.72131" width="123.77049" y="396.42625" x="197.54098" stroke="#2D2D2D" fill="#007fff"/>
  <rect id="e00143993fc44394b81f7ccaea12d833-ao-26" height="27.04918" width="113.93443" y="349.70493" x="205.7377" stroke="#2D2D2D" fill="#007fff"/>
  <rect id="e00143993fc44394b81f7ccaea12d833-ao-27" height="59.01639" width="117.21312" y="270.19674" x="202.45901" stroke="#2D2D2D" fill="#007fff"/>
  <rect id="e00143993fc44394b81f7ccaea12d833-ao-28" height="54.91803" width="122.13115" y="20.19673" x="422.13114" stroke="#2D2D2D" fill="#007fff"/>
 </g>
</svg>