<svg xmlns="http://www.w3.org/2000/svg" width="1600" height="1116">
 <!-- Created with Image Occlusion Enhanced -->
 <g>
  <title>Labels</title>
 </g>
 <g>
  <title>Masks</title>
  <rect id="e148fbb9fb4c4cef8a54aa291634b18f-ao-1" height="26.47059" width="133.33334" y="35.96084" x="447.05881" stroke="#2D2D2D" fill="#007fff"/>
  <rect id="e148fbb9fb4c4cef8a54aa291634b18f-ao-2" height="61.76471" width="86.27451" y="224.19614" x="693.13725" stroke="#2D2D2D" fill="#007fff"/>
  <rect id="e148fbb9fb4c4cef8a54aa291634b18f-ao-3" height="58.82353" width="79.41177" y="317.3334" x="720.58823" stroke="#2D2D2D" fill="#007fff"/>
  <rect id="e148fbb9fb4c4cef8a54aa291634b18f-ao-4" height="81.37255" width="139.21569" y="414.39223" x="745.09804" stroke="#2D2D2D" fill="#007fff"/>
  <rect id="e148fbb9fb4c4cef8a54aa291634b18f-ao-5" height="51.96079" width="70.58824" y="533.01969" x="749.01961" stroke="#2D2D2D" fill="#007fff"/>
  <rect id="e148fbb9fb4c4cef8a54aa291634b18f-ao-6" height="68.62745" width="149.01961" y="732.0393" x="619.60783" stroke="#2D2D2D" fill="#007fff"/>
  <rect id="e148fbb9fb4c4cef8a54aa291634b18f-ao-7" height="52.94118" width="92.15687" y="796.74519" x="486.2745" stroke="#2D2D2D" fill="#007fff"/>
  <rect id="e148fbb9fb4c4cef8a54aa291634b18f-ao-8" height="28.43137" width="117.64706" y="822.23539" x="309.8039" stroke="#2D2D2D" fill="#007fff"/>
  <rect id="e148fbb9fb4c4cef8a54aa291634b18f-ao-9" height="46.07843" width="76.47059" y="603.60792" x="146.0784" stroke="#2D2D2D" fill="#007fff"/>
  <rect id="e148fbb9fb4c4cef8a54aa291634b18f-ao-10" height="50.98039" width="68.62745" y="433.01968" x="157.84311" stroke="#2D2D2D" fill="#007fff"/>
  <rect id="e148fbb9fb4c4cef8a54aa291634b18f-ao-11" height="35.29412" width="127.45099" y="297.72556" x="1057.84315" stroke="#2D2D2D" fill="#007fff"/>
  <rect id="e148fbb9fb4c4cef8a54aa291634b18f-ao-12" height="68.62745" width="98.03922" y="531.0589" x="1375.49022" stroke="#2D2D2D" fill="#007fff"/>
  <rect id="e148fbb9fb4c4cef8a54aa291634b18f-ao-13" height="57.84314" width="74.50981" y="642.82361" x="1398.03924" stroke="#2D2D2D" fill="#007fff"/>
  <rect id="e148fbb9fb4c4cef8a54aa291634b18f-ao-14" height="65.68628" width="80.39216" y="881.05892" x="1393.13728" stroke="#2D2D2D" fill="#007fff"/>
  <rect id="e148fbb9fb4c4cef8a54aa291634b18f-ao-15" height="27.45098" width="128.43138" y="1066.35304" x="1100.98041" stroke="#2D2D2D" fill="#007fff"/>
  <rect id="e148fbb9fb4c4cef8a54aa291634b18f-ao-16" height="78.43138" width="86.27451" y="954.58833" x="812.7451" stroke="#2D2D2D" fill="#007fff"/>
  <rect id="e148fbb9fb4c4cef8a54aa291634b18f-ao-17" height="57.84314" width="61.76471" y="790.86284" x="834.31373" stroke="#2D2D2D" fill="#007fff"/>
  
 </g>
</svg>