<svg xmlns="http://www.w3.org/2000/svg" width="1668" height="1036">
 <!-- Created with Image Occlusion Enhanced -->
 <g>
  <title>Labels</title>
 </g>
 <g>
  <title>Masks</title>
  <rect id="ed03868dba6f4883936ba41b96d2309f-ao-1" height="47.91667" width="114.58333" y="397.33334" x="536.16662" stroke="#2D2D2D" fill="#FFEBA2"/>
  <rect id="ed03868dba6f4883936ba41b96d2309f-ao-2" height="54.16667" width="116.66667" y="395.25" x="809.08329" stroke="#2D2D2D" fill="#FFEBA2"/>
  <rect id="ed03868dba6f4883936ba41b96d2309f-ao-3" height="45.83333" width="87.5" y="399.41667" x="1142.41662" stroke="#2D2D2D" fill="#FFEBA2"/>
  <rect id="ed03868dba6f4883936ba41b96d2309f-ao-4" height="58.33333" width="102.08333" y="397.33334" x="1471.58329" stroke="#2D2D2D" fill="#FFEBA2"/>
  <rect id="ed03868dba6f4883936ba41b96d2309f-ao-5" height="43.75" width="120.83333" y="470.25" x="544.49995" stroke="#2D2D2D" fill="#FFEBA2"/>
  <rect id="ed03868dba6f4883936ba41b96d2309f-ao-6" height="43.75" width="137.5" y="470.25" x="804.91662" stroke="#2D2D2D" fill="#FFEBA2"/>
  <rect id="ed03868dba6f4883936ba41b96d2309f-ao-7" height="45.83333" width="143.75" y="468.16667" x="1121.58329" stroke="#2D2D2D" fill="#FFEBA2"/>
  <rect id="ed03868dba6f4883936ba41b96d2309f-ao-8" height="39.58333" width="131.25" y="476.5" x="1438.24996" stroke="#2D2D2D" fill="#FFEBA2"/>
  <rect id="ed03868dba6f4883936ba41b96d2309f-ao-9" height="43.75" width="91.66667" y="539" x="1461.16662" stroke="#2D2D2D" fill="#FFEBA2"/>
  <rect id="ed03868dba6f4883936ba41b96d2309f-ao-10" height="39.58333" width="150" y="536.91667" x="1104.91662" stroke="#2D2D2D" fill="#FFEBA2"/>
  <rect id="ed03868dba6f4883936ba41b96d2309f-ao-11" height="50" width="100" y="530.66667" x="819.49995" stroke="#2D2D2D" fill="#FFEBA2"/>
  <rect id="ed03868dba6f4883936ba41b96d2309f-ao-12" height="43.75" width="114.58333" y="536.91667" x="540.33329" stroke="#2D2D2D" fill="#FFEBA2"/>
  <rect id="ed03868dba6f4883936ba41b96d2309f-ao-13" height="50" width="93.75" y="601.5" x="552.83329" stroke="#2D2D2D" fill="#FFEBA2"/>
  <rect id="ed03868dba6f4883936ba41b96d2309f-ao-14" height="54.16667" width="95.83333" y="591.08334" x="815.33329" stroke="#2D2D2D" fill="#FFEBA2"/>
  <rect id="ed03868dba6f4883936ba41b96d2309f-ao-15" height="45.83333" width="108.33333" y="601.5" x="1127.83329" stroke="#2D2D2D" fill="#FFEBA2"/>
  <rect id="ed03868dba6f4883936ba41b96d2309f-ao-16" height="47.91667" width="97.91667" y="599.41667" x="1461.16662" stroke="#2D2D2D" fill="#FFEBA2"/>
  <rect id="ed03868dba6f4883936ba41b96d2309f-ao-17" height="54.16667" width="106.25" y="664" x="1452.83329" stroke="#2D2D2D" fill="#FFEBA2"/>
  <rect id="ed03868dba6f4883936ba41b96d2309f-ao-18" height="43.75" width="95.83333" y="670.25" x="1134.08329" stroke="#2D2D2D" fill="#FFEBA2"/>
  <rect id="ed03868dba6f4883936ba41b96d2309f-ao-19" height="52.08333" width="114.58333" y="666.08334" x="813.24995" stroke="#2D2D2D" fill="#FFEBA2"/>
  <rect id="ed03868dba6f4883936ba41b96d2309f-ao-20" height="52.08333" width="108.33333" y="661.91667" x="540.33329" stroke="#2D2D2D" fill="#FFEBA2"/>
  <rect id="ed03868dba6f4883936ba41b96d2309f-ao-21" height="52.08333" width="104.16667" y="736.91667" x="546.58329" stroke="#2D2D2D" fill="#FFEBA2"/>
  <rect id="ed03868dba6f4883936ba41b96d2309f-ao-22" height="43.75" width="118.75" y="726.5" x="811.16662" stroke="#2D2D2D" fill="#FFEBA2"/>
  <rect id="ed03868dba6f4883936ba41b96d2309f-ao-23" height="41.66667" width="106.25" y="741.08334" x="1127.83329" stroke="#2D2D2D" fill="#FFEBA2"/>
  <rect id="ed03868dba6f4883936ba41b96d2309f-ao-24" height="56.25" width="110.41667" y="730.66667" x="1446.58329" stroke="#2D2D2D" fill="#FFEBA2"/>
  <rect id="ed03868dba6f4883936ba41b96d2309f-ao-25" height="56.25" width="104.16667" y="799.41667" x="1136.16662" stroke="#2D2D2D" fill="#FFEBA2"/>
  <rect id="ed03868dba6f4883936ba41b96d2309f-ao-26" height="50" width="102.08333" y="795.25" x="811.16662" stroke="#2D2D2D" fill="#FFEBA2"/>
  <rect id="ed03868dba6f4883936ba41b96d2309f-ao-27" height="39.58333" width="108.33333" y="807.75" x="540.33329" stroke="#2D2D2D" fill="#FFEBA2"/>
  <rect id="ed03868dba6f4883936ba41b96d2309f-ao-28" height="50" width="110.41667" y="797.33334" x="1446.58329" stroke="#2D2D2D" fill="#FFEBA2"/>
  <rect id="ed03868dba6f4883936ba41b96d2309f-ao-29" height="43.75" width="95.83333" y="868.16667" x="546.58329" stroke="#2D2D2D" fill="#FFEBA2"/>
  <rect id="ed03868dba6f4883936ba41b96d2309f-ao-30" height="52.08333" width="97.91667" y="864" x="821.58329" stroke="#2D2D2D" fill="#FFEBA2"/>
  
  <rect id="ed03868dba6f4883936ba41b96d2309f-ao-32" height="45.83333" width="100" y="868.16667" x="1454.91662" stroke="#2D2D2D" fill="#FFEBA2"/>
  <rect id="ed03868dba6f4883936ba41b96d2309f-ao-33" height="50" width="187.5" y="932.75" x="496.58329" stroke="#2D2D2D" fill="#FFEBA2"/>
  <rect id="ed03868dba6f4883936ba41b96d2309f-ao-34" height="50" width="206.25" y="930.66667" x="773.66662" stroke="#2D2D2D" fill="#FFEBA2"/>
  <rect id="ed03868dba6f4883936ba41b96d2309f-ao-35" height="50" width="187.5" y="930.66667" x="1100.74995" stroke="#2D2D2D" fill="#FFEBA2"/>
  <rect id="ed03868dba6f4883936ba41b96d2309f-ao-36" height="52.08333" width="200" y="928.58334" x="1415.33329" stroke="#2D2D2D" fill="#FFEBA2"/>
 </g>
</svg>