<svg xmlns="http://www.w3.org/2000/svg" width="1379" height="1536.9999999999998">
 <!-- Created with Image Occlusion Enhanced -->
 <g>
  <title>Labels</title>
 </g>
 <g>
  <title>Masks</title>
  <rect id="f6f02d1fb5fa441db15d8dff40b7c4d2-ao-1" height="64.86486" width="158.10811" y="46.78378" x="350.31077" stroke="#2D2D2D" fill="#007fff"/>
  <rect id="f6f02d1fb5fa441db15d8dff40b7c4d2-ao-2" height="48.64865" width="189.18919" y="49.48648" x="538.14861" stroke="#2D2D2D" fill="#007fff"/>
  <rect id="f6f02d1fb5fa441db15d8dff40b7c4d2-ao-3" height="54.05405" width="81.08108" y="45.43243" x="751.66212" stroke="#2D2D2D" fill="#007fff"/>
  <rect id="f6f02d1fb5fa441db15d8dff40b7c4d2-ao-4" height="58.10811" width="117.56757" y="45.43243" x="866.52699" stroke="#2D2D2D" fill="#FF7E7E" class="qshape"/>
  <rect id="f6f02d1fb5fa441db15d8dff40b7c4d2-ao-5" height="37.83784" width="82.43243" y="600.83783" x="1155.71617" stroke="#2D2D2D" fill="#007fff"/>
  <rect id="f6f02d1fb5fa441db15d8dff40b7c4d2-ao-6" height="83.78378" width="182.43243" y="911.64864" x="1148.95942" stroke="#2D2D2D" fill="#007fff"/>
  <rect id="f6f02d1fb5fa441db15d8dff40b7c4d2-ao-7" height="108.10811" width="174.32432" y="1172.45945" x="1177.33779" stroke="#2D2D2D" fill="#007fff"/>
  <rect id="f6f02d1fb5fa441db15d8dff40b7c4d2-ao-8" height="101.35135" width="164.86486" y="1303.54053" x="1182.7432" stroke="#2D2D2D" fill="#007fff"/>
  <rect id="f6f02d1fb5fa441db15d8dff40b7c4d2-ao-9" height="62.16216" width="225.67567" y="1450.83783" x="567.87834" stroke="#2D2D2D" fill="#007fff"/>
  <rect id="f6f02d1fb5fa441db15d8dff40b7c4d2-ao-10" height="56.75676" width="75.67568" y="1454.89188" x="446.25672" stroke="#2D2D2D" fill="#007fff"/>
  <rect id="f6f02d1fb5fa441db15d8dff40b7c4d2-ao-11" height="67.56757" width="117.56757" y="1231.91891" x="20.58104" stroke="#2D2D2D" fill="#007fff"/>
  <rect id="f6f02d1fb5fa441db15d8dff40b7c4d2-ao-12" height="29.72973" width="60.81081" y="1040.02702" x="71.93239" stroke="#2D2D2D" fill="#007fff"/>
  <rect id="f6f02d1fb5fa441db15d8dff40b7c4d2-ao-13" height="27.02703" width="77.02703" y="981.91891" x="54.36483" stroke="#2D2D2D" fill="#007fff"/>
  <rect id="f6f02d1fb5fa441db15d8dff40b7c4d2-ao-14" height="28.37838" width="105.4054" y="921.1081" x="46.25672" stroke="#2D2D2D" fill="#007fff"/>
  <rect id="f6f02d1fb5fa441db15d8dff40b7c4d2-ao-15" height="60.81081" width="106.75676" y="807.59458" x="57.06753" stroke="#2D2D2D" fill="#007fff"/>
  <rect id="f6f02d1fb5fa441db15d8dff40b7c4d2-ao-16" height="93.24324" width="108.10811" y="460.29729" x="46.25672" stroke="#2D2D2D" fill="#007fff"/>
  <rect id="f6f02d1fb5fa441db15d8dff40b7c4d2-ao-17" height="58.10811" width="89.18919" y="375.16215" x="69.22969" stroke="#2D2D2D" fill="#007fff"/>
 </g>
</svg>