<svg xmlns="http://www.w3.org/2000/svg" width="1000" height="1911">
 <!-- Created with Image Occlusion Enhanced -->
 <g>
  <title>Labels</title>
 </g>
 <g>
  <title>Masks</title>
  <rect id="c993c790eb5343a49130a7f2e9eeed08-ao-1" height="68" width="166" y="669" x="132" stroke="#2D2D2D" fill="#FFEBA2"/>
  <rect id="c993c790eb5343a49130a7f2e9eeed08-ao-2" height="74" width="162" y="759" x="132" stroke="#2D2D2D" fill="#FFEBA2"/>
  <rect id="c993c790eb5343a49130a7f2e9eeed08-ao-3" height="88" width="170" y="211" x="48" stroke="#2D2D2D" fill="#FFEBA2"/>
  <rect id="c993c790eb5343a49130a7f2e9eeed08-ao-4" height="42" width="186" y="183" x="698" stroke="#2D2D2D" fill="#FFEBA2"/>
  <rect id="c993c790eb5343a49130a7f2e9eeed08-ao-5" height="82" width="206" y="283" x="732" stroke="#2D2D2D" fill="#FFEBA2"/>
  <rect id="c993c790eb5343a49130a7f2e9eeed08-ao-6" height="74" width="190" y="431" x="764" stroke="#2D2D2D" fill="#FFEBA2"/>
  <rect id="c993c790eb5343a49130a7f2e9eeed08-ao-7" height="64" width="142" y="577" x="802" stroke="#2D2D2D" fill="#FFEBA2"/>
  <rect id="c993c790eb5343a49130a7f2e9eeed08-ao-8" height="102" width="172" y="671" x="806" stroke="#2D2D2D" fill="#FFEBA2"/>
  <rect id="c993c790eb5343a49130a7f2e9eeed08-ao-9" height="78" width="150" y="803" x="818" stroke="#2D2D2D" fill="#FFEBA2"/>
  <rect id="c993c790eb5343a49130a7f2e9eeed08-ao-10" height="70" width="134" y="1039" x="202" stroke="#2D2D2D" fill="#FFEBA2"/>
  <rect id="c993c790eb5343a49130a7f2e9eeed08-ao-11" height="134" width="126" y="1379" x="44" stroke="#2D2D2D" fill="#FFEBA2"/>
  <rect id="c993c790eb5343a49130a7f2e9eeed08-ao-12" height="96" width="124" y="1331" x="210" stroke="#2D2D2D" fill="#FFEBA2"/>
  <rect id="c993c790eb5343a49130a7f2e9eeed08-ao-13" height="98" width="120" y="1447" x="208" stroke="#2D2D2D" fill="#FFEBA2"/>
  <rect id="c993c790eb5343a49130a7f2e9eeed08-ao-14" height="86" width="194" y="1681" x="44" stroke="#2D2D2D" fill="#FFEBA2"/>
  <rect id="c993c790eb5343a49130a7f2e9eeed08-ao-15" height="80" width="198" y="1819" x="206" stroke="#2D2D2D" fill="#FFEBA2"/>
  <rect id="c993c790eb5343a49130a7f2e9eeed08-ao-16" height="58" width="174" y="1707" x="784" stroke="#2D2D2D" fill="#FF7E7E" class="qshape"/>
 </g>
</svg>