<svg xmlns="http://www.w3.org/2000/svg" width="1795" height="2149">
 <!-- Created with Image Occlusion Enhanced -->
 <g>
  <title>Labels</title>
 </g>
 <g>
  <title>Masks</title>
  <g id="ebb729e8bcc54d559cc12af9b51283d0-ao-1">
   <rect height="80" width="146.66667" y="806.55559" x="707.22222" stroke="#2D2D2D" fill="#FFEBA2"/>
   <rect height="82.22222" width="133.33334" y="282.11114" x="429.44444" stroke="#2D2D2D" fill="#FFEBA2"/>
   <rect height="64.44445" width="117.77778" y="1964.33339" x="53.88888" stroke="#2D2D2D" fill="#FFEBA2"/>
   <rect height="64.44445" width="117.77778" y="1931.00005" x="969.44445" stroke="#2D2D2D" fill="#FFEBA2"/>
  </g>
  <rect id="ebb729e8bcc54d559cc12af9b51283d0-ao-2" height="75.55556" width="175.55556" y="473.22226" x="720.55555" stroke="#2D2D2D" fill="#FFEBA2"/>
  <g id="ebb729e8bcc54d559cc12af9b51283d0-ao-3">
   <rect height="60" width="144.44445" y="1319.88893" x="871.66667" stroke="#2D2D2D" fill="#FFEBA2"/>
   <rect height="73.33333" width="142.22222" y="375.44448" x="1182.77778" stroke="#2D2D2D" fill="#FFEBA2"/>
   <rect height="57.77778" width="171.11111" y="1531.00005" x="1118.33334" stroke="#2D2D2D" fill="#FFEBA2"/>
   <rect height="51.11111" width="162.22222" y="1564.33338" x="209.44444" stroke="#2D2D2D" fill="#FFEBA2"/>
  </g>
  <g id="ebb729e8bcc54d559cc12af9b51283d0-ao-4">
   <rect height="51.11111" width="164.44445" y="235.44447" x="1089.44445" stroke="#2D2D2D" fill="#FFEBA2"/>
   <rect height="44.44445" width="142.22222" y="1653.22227" x="1629.44445" stroke="#2D2D2D" fill="#FFEBA2"/>
   <rect height="57.77778" width="173.33334" y="875.44448" x="1078.33334" stroke="#2D2D2D" fill="#FFEBA2"/>
   <rect height="60" width="93.33333" y="1773.22227" x="767.22222" stroke="#2D2D2D" fill="#FFEBA2"/>
  </g>
  <g id="ebb729e8bcc54d559cc12af9b51283d0-ao-5">
   <rect height="77.77778" width="182.22222" y="586.55559" x="847.22222" stroke="#2D2D2D" fill="#FFEBA2"/>
   <rect height="60" width="162.22222" y="1324.33338" x="671.66666" stroke="#2D2D2D" fill="#FFEBA2"/>
   <rect height="64.44445" width="148.88889" y="1602.11116" x="716.11111" stroke="#2D2D2D" fill="#FFEBA2"/>
  </g>
  <g id="ebb729e8bcc54d559cc12af9b51283d0-ao-6">
   <rect height="68.88889" width="128.88889" y="1855.44449" x="967.22222" stroke="#2D2D2D" fill="#FFEBA2"/>
   <rect height="71.11111" width="131.11111" y="1657.66671" x="47.22221" stroke="#2D2D2D" fill="#FFEBA2"/>
  </g>
  <g id="ebb729e8bcc54d559cc12af9b51283d0-ao-7">
   <rect height="86.66667" width="148.88889" y="1928.77783" x="707.22222" stroke="#2D2D2D" fill="#FFEBA2"/>
   <rect height="62.22222" width="162.22222" y="1566.5556" x="491.66666" stroke="#2D2D2D" fill="#FFEBA2"/>
   <rect height="75.55556" width="133.33334" y="1766.5556" x="956.11111" stroke-linecap="null" stroke-linejoin="null" stroke-dasharray="null" stroke="#2D2D2D" fill="#FFEBA2"/>
  </g>
  <g id="ebb729e8bcc54d559cc12af9b51283d0-ao-8">
   <rect height="95.55556" width="128.88889" y="1855.44449" x="51.66666" stroke="#2D2D2D" fill="#FFEBA2"/>
   <rect height="73.33333" width="171.11111" y="1888.77783" x="1616.11112" stroke="#2D2D2D" fill="#FFEBA2"/>
   <rect height="66.66667" width="166.66667" y="51.00003" x="778.33333" stroke="#2D2D2D" fill="#FFEBA2"/>
  </g>
  <g id="ebb729e8bcc54d559cc12af9b51283d0-ao-9" class="qshape">
   <rect height="33.33333" width="188.88889" y="193.22225" x="1093.88889" stroke="#2D2D2D" fill="#FF7E7E" class="qshape"/>
   <rect height="66.66667" width="140" y="1568.77782" x="1620.55556" stroke="#2D2D2D" fill="#FF7E7E" class="qshape"/>
  </g>
  <rect id="ebb729e8bcc54d559cc12af9b51283d0-ao-10" height="68.88889" width="135.55556" y="1648.77783" x="951.66667" stroke="#2D2D2D" fill="#FFEBA2"/>
  <g id="ebb729e8bcc54d559cc12af9b51283d0-ao-11">
   <rect height="57.77778" width="146.66667" y="1848.77783" x="709.44444" stroke="#2D2D2D" fill="#FFEBA2"/>
   <rect height="71.11111" width="173.33334" y="815.44448" x="876.11111" stroke="#2D2D2D" fill="#FFEBA2"/>
   <rect height="53.33333" width="166.66667" y="51.00003" x="958.33333" stroke="#2D2D2D" fill="#FFEBA2"/>
   <rect height="75.55556" width="153.33334" y="1797.66672" x="1622.77779" stroke="#2D2D2D" fill="#FFEBA2"/>
  </g>
  <g id="ebb729e8bcc54d559cc12af9b51283d0-ao-12">
   <rect height="60" width="168.88889" y="128.77781" x="1107.22222" stroke="#2D2D2D" fill="#FFEBA2"/>
   <rect height="66.66667" width="148.88889" y="1533.22227" x="1427.22223" stroke="#2D2D2D" fill="#FFEBA2"/>
   <rect height="60" width="157.77778" y="1682.11116" x="707.22222" stroke="#2D2D2D" fill="#FFEBA2"/>
  </g>
  <g id="ebb729e8bcc54d559cc12af9b51283d0-ao-13">
   <rect height="82.22222" width="195.55556" y="1213.22226" x="418.33333" stroke-linecap="null" stroke-linejoin="null" stroke-dasharray="null" stroke="#2D2D2D" fill="#FFEBA2"/>
   <rect height="71.11111" width="193.33334" y="544.33337" x="1053.88889" stroke-linecap="null" stroke-linejoin="null" stroke-dasharray="null" stroke="#2D2D2D" fill="#FFEBA2"/>
  </g>
 </g>
</svg>