<svg xmlns="http://www.w3.org/2000/svg" width="24" height="24" fill="none" viewBox="0 0 24 24">
    <path fill="#FF4440" d="M5.784 18.226l1.926 1.541 3.484-4.758c.188-.257.525-.39.806-.409a1 1 0 01.802.402l3.482 4.67 1.941-1.553-3.33-4.527a1.002 1.002 0 01.475-1.536l5.35-1.868-.819-2.295-5.45 2.043A.997.997 0 0113.101 9V3h-2.3v6a.998.998 0 01-1.357.934L4.098 7.897l-.82 2.299 5.461 1.963a1.002 1.002 0 01.46 1.544l-3.415 4.523zM7.9 22.2c-.225 0-.446-.077-.624-.219l-3.5-2.8a1 1 0 01-.174-1.384l3.182-4.216-5.122-1.84a1.001 1.001 0 01-.604-1.278l1.5-4.2c.091-.253.28-.459.524-.572.244-.111.523-.121.774-.026L8.8 7.549V2a1 1 0 011-1h4.3a1 1 0 011 1v5.557l5.05-1.894a.999.999 0 011.292.6l1.5 4.2a.999.999 0 01-.612 1.281l-5.022 1.753 3.098 4.209a1.001 1.001 0 01-.18 1.374l-3.5 2.801a1.002 1.002 0 01-1.427-.183l-3.29-4.415-3.302 4.507a1 1 0 01-.807.41z"></path>
</svg>